G04*
G04 #@! TF.GenerationSoftware,Altium Limited,Altium Designer,21.6.1 (37)*
G04*
G04 Layer_Color=16711935*
%FSLAX44Y44*%
%MOMM*%
G71*
G04*
G04 #@! TF.SameCoordinates,1A0BCF72-60D2-4BA0-9B7A-98A30DA12748*
G04*
G04*
G04 #@! TF.FilePolarity,Positive*
G04*
G01*
G75*
%ADD11C,0.2000*%
%ADD16C,0.1524*%
G36*
X186899Y463478D02*
X186893Y463437D01*
Y463390D01*
X186881Y463285D01*
X186869Y463167D01*
X186846Y463044D01*
X186816Y462921D01*
X186775Y462809D01*
Y462803D01*
X186770Y462798D01*
X186752Y462762D01*
X186723Y462710D01*
X186681Y462651D01*
X186629Y462580D01*
X186564Y462504D01*
X186482Y462434D01*
X186394Y462369D01*
X186382Y462363D01*
X186347Y462346D01*
X186300Y462316D01*
X186230Y462287D01*
X186147Y462258D01*
X186059Y462228D01*
X185960Y462211D01*
X185860Y462205D01*
X185848D01*
X185819D01*
X185766Y462211D01*
X185702Y462223D01*
X185625Y462240D01*
X185543Y462270D01*
X185461Y462305D01*
X185373Y462352D01*
X185361Y462357D01*
X185338Y462375D01*
X185291Y462410D01*
X185244Y462457D01*
X185185Y462516D01*
X185121Y462586D01*
X185062Y462674D01*
X185003Y462774D01*
Y462768D01*
X184998Y462757D01*
X184992Y462739D01*
X184980Y462715D01*
X184956Y462645D01*
X184915Y462563D01*
X184863Y462475D01*
X184798Y462375D01*
X184722Y462287D01*
X184628Y462205D01*
X184616Y462199D01*
X184581Y462176D01*
X184528Y462140D01*
X184458Y462105D01*
X184364Y462070D01*
X184264Y462035D01*
X184147Y462011D01*
X184018Y462006D01*
X184012D01*
X184006D01*
X183971D01*
X183912Y462011D01*
X183842Y462023D01*
X183759Y462035D01*
X183671Y462058D01*
X183578Y462088D01*
X183484Y462129D01*
X183472Y462135D01*
X183443Y462152D01*
X183402Y462176D01*
X183343Y462211D01*
X183284Y462258D01*
X183220Y462305D01*
X183155Y462363D01*
X183102Y462428D01*
X183097Y462434D01*
X183079Y462457D01*
X183055Y462498D01*
X183032Y462551D01*
X182997Y462616D01*
X182962Y462692D01*
X182932Y462774D01*
X182903Y462874D01*
Y462886D01*
X182891Y462921D01*
X182885Y462980D01*
X182873Y463056D01*
X182862Y463150D01*
X182850Y463261D01*
X182844Y463384D01*
X182838Y463525D01*
Y465074D01*
X186899D01*
Y463478D01*
D02*
G37*
G36*
X184387Y461513D02*
X184446D01*
X184510Y461507D01*
X184593Y461495D01*
X184675Y461483D01*
X184769Y461460D01*
X184863Y461436D01*
X184962Y461407D01*
X185068Y461372D01*
X185168Y461325D01*
X185262Y461278D01*
X185355Y461213D01*
X185443Y461149D01*
X185520Y461067D01*
X185526Y461061D01*
X185532Y461049D01*
X185549Y461026D01*
X185572Y460996D01*
X185596Y460961D01*
X185625Y460914D01*
X185655Y460867D01*
X185684Y460808D01*
X185713Y460744D01*
X185743Y460674D01*
X185795Y460515D01*
X185837Y460333D01*
X185842Y460239D01*
X185848Y460140D01*
Y460081D01*
X185842Y460040D01*
X185837Y459987D01*
X185825Y459928D01*
X185813Y459864D01*
X185801Y459788D01*
X185749Y459629D01*
X185719Y459547D01*
X185678Y459465D01*
X185637Y459383D01*
X185578Y459301D01*
X185520Y459224D01*
X185449Y459148D01*
X185443Y459142D01*
X185432Y459131D01*
X185408Y459113D01*
X185379Y459089D01*
X185338Y459060D01*
X185285Y459025D01*
X185226Y458990D01*
X185162Y458954D01*
X185091Y458919D01*
X185003Y458884D01*
X184915Y458849D01*
X184816Y458820D01*
X184710Y458796D01*
X184599Y458778D01*
X184481Y458767D01*
X184352Y458761D01*
X184346D01*
X184329D01*
X184299D01*
X184258D01*
X184211Y458767D01*
X184153Y458773D01*
X184094D01*
X184029Y458784D01*
X183883Y458802D01*
X183736Y458837D01*
X183589Y458878D01*
X183454Y458937D01*
X183449D01*
X183443Y458943D01*
X183425Y458954D01*
X183402Y458966D01*
X183343Y459007D01*
X183272Y459060D01*
X183190Y459131D01*
X183108Y459218D01*
X183026Y459318D01*
X182950Y459436D01*
Y459441D01*
X182944Y459447D01*
X182932Y459465D01*
X182920Y459494D01*
X182909Y459524D01*
X182897Y459559D01*
X182862Y459647D01*
X182833Y459747D01*
X182803Y459870D01*
X182780Y459999D01*
X182774Y460140D01*
Y460198D01*
X182780Y460245D01*
X182785Y460298D01*
X182797Y460357D01*
X182809Y460427D01*
X182821Y460498D01*
X182868Y460656D01*
X182903Y460744D01*
X182938Y460826D01*
X182985Y460908D01*
X183038Y460990D01*
X183097Y461067D01*
X183167Y461143D01*
X183173Y461149D01*
X183185Y461161D01*
X183208Y461178D01*
X183243Y461202D01*
X183284Y461231D01*
X183331Y461260D01*
X183390Y461296D01*
X183460Y461331D01*
X183536Y461366D01*
X183625Y461401D01*
X183718Y461431D01*
X183818Y461460D01*
X183930Y461483D01*
X184047Y461501D01*
X184176Y461513D01*
X184311Y461519D01*
X184323D01*
X184346D01*
X184387Y461513D01*
D02*
G37*
G36*
Y458356D02*
X184446D01*
X184510Y458350D01*
X184593Y458338D01*
X184675Y458327D01*
X184769Y458303D01*
X184863Y458280D01*
X184962Y458250D01*
X185068Y458215D01*
X185168Y458168D01*
X185262Y458121D01*
X185355Y458057D01*
X185443Y457992D01*
X185520Y457910D01*
X185526Y457904D01*
X185532Y457892D01*
X185549Y457869D01*
X185572Y457840D01*
X185596Y457804D01*
X185625Y457757D01*
X185655Y457710D01*
X185684Y457652D01*
X185713Y457587D01*
X185743Y457517D01*
X185795Y457359D01*
X185837Y457177D01*
X185842Y457083D01*
X185848Y456983D01*
Y456924D01*
X185842Y456883D01*
X185837Y456830D01*
X185825Y456772D01*
X185813Y456707D01*
X185801Y456631D01*
X185749Y456473D01*
X185719Y456390D01*
X185678Y456308D01*
X185637Y456226D01*
X185578Y456144D01*
X185520Y456068D01*
X185449Y455991D01*
X185443Y455985D01*
X185432Y455974D01*
X185408Y455956D01*
X185379Y455933D01*
X185338Y455903D01*
X185285Y455868D01*
X185226Y455833D01*
X185162Y455798D01*
X185091Y455763D01*
X185003Y455727D01*
X184915Y455692D01*
X184816Y455663D01*
X184710Y455639D01*
X184599Y455622D01*
X184481Y455610D01*
X184352Y455604D01*
X184346D01*
X184329D01*
X184299D01*
X184258D01*
X184211Y455610D01*
X184153Y455616D01*
X184094D01*
X184029Y455628D01*
X183883Y455645D01*
X183736Y455680D01*
X183589Y455722D01*
X183454Y455780D01*
X183449D01*
X183443Y455786D01*
X183425Y455798D01*
X183402Y455810D01*
X183343Y455851D01*
X183272Y455903D01*
X183190Y455974D01*
X183108Y456062D01*
X183026Y456161D01*
X182950Y456279D01*
Y456285D01*
X182944Y456291D01*
X182932Y456308D01*
X182920Y456338D01*
X182909Y456367D01*
X182897Y456402D01*
X182862Y456490D01*
X182833Y456590D01*
X182803Y456713D01*
X182780Y456842D01*
X182774Y456983D01*
Y457042D01*
X182780Y457089D01*
X182785Y457141D01*
X182797Y457200D01*
X182809Y457271D01*
X182821Y457341D01*
X182868Y457499D01*
X182903Y457587D01*
X182938Y457669D01*
X182985Y457752D01*
X183038Y457834D01*
X183097Y457910D01*
X183167Y457986D01*
X183173Y457992D01*
X183185Y458004D01*
X183208Y458022D01*
X183243Y458045D01*
X183284Y458074D01*
X183331Y458104D01*
X183390Y458139D01*
X183460Y458174D01*
X183536Y458209D01*
X183625Y458245D01*
X183718Y458274D01*
X183818Y458303D01*
X183930Y458327D01*
X184047Y458344D01*
X184176Y458356D01*
X184311Y458362D01*
X184323D01*
X184346D01*
X184387Y458356D01*
D02*
G37*
G36*
X185784Y454935D02*
X186511D01*
X186810Y454436D01*
X185784D01*
Y453932D01*
X185396D01*
Y454436D01*
X183666D01*
X183654D01*
X183630D01*
X183595D01*
X183554Y454431D01*
X183460Y454425D01*
X183419Y454419D01*
X183390Y454413D01*
X183378Y454407D01*
X183355Y454390D01*
X183325Y454366D01*
X183296Y454325D01*
X183290Y454313D01*
X183278Y454284D01*
X183267Y454231D01*
X183261Y454155D01*
Y454096D01*
X183267Y454067D01*
Y454026D01*
X183272Y453979D01*
X183278Y453932D01*
X182838Y453867D01*
Y453879D01*
X182833Y453903D01*
X182827Y453944D01*
X182821Y453997D01*
X182809Y454055D01*
X182803Y454120D01*
X182797Y454249D01*
Y454296D01*
X182803Y454343D01*
X182809Y454401D01*
X182815Y454472D01*
X182833Y454542D01*
X182850Y454607D01*
X182879Y454671D01*
X182885Y454677D01*
X182897Y454695D01*
X182915Y454718D01*
X182944Y454753D01*
X182973Y454783D01*
X183014Y454818D01*
X183055Y454853D01*
X183108Y454877D01*
X183114D01*
X183138Y454888D01*
X183179Y454894D01*
X183237Y454906D01*
X183314Y454918D01*
X183361Y454924D01*
X183413D01*
X183478Y454929D01*
X183542Y454935D01*
X183613D01*
X183695D01*
X185396D01*
Y455305D01*
X185784D01*
Y454935D01*
D02*
G37*
G36*
X242212Y479136D02*
X242218Y479113D01*
X242223Y479072D01*
X242229Y479019D01*
X242241Y478960D01*
X242247Y478896D01*
X242253Y478767D01*
Y478720D01*
X242247Y478673D01*
X242241Y478614D01*
X242235Y478544D01*
X242218Y478473D01*
X242200Y478409D01*
X242171Y478344D01*
X242165Y478338D01*
X242153Y478321D01*
X242135Y478297D01*
X242106Y478262D01*
X242077Y478233D01*
X242036Y478198D01*
X241995Y478162D01*
X241942Y478139D01*
X241936D01*
X241912Y478127D01*
X241871Y478121D01*
X241813Y478110D01*
X241736Y478098D01*
X241689Y478092D01*
X241637D01*
X241572Y478086D01*
X241508Y478080D01*
X241437D01*
X241355D01*
X239653D01*
Y477711D01*
X239266D01*
Y478080D01*
X238539D01*
X238239Y478579D01*
X239266D01*
Y479084D01*
X239653D01*
Y478579D01*
X241384D01*
X241396D01*
X241420D01*
X241455D01*
X241496Y478585D01*
X241590Y478591D01*
X241631Y478596D01*
X241660Y478602D01*
X241672Y478608D01*
X241695Y478626D01*
X241725Y478649D01*
X241754Y478690D01*
X241760Y478702D01*
X241772Y478731D01*
X241783Y478784D01*
X241789Y478861D01*
Y478919D01*
X241783Y478949D01*
Y478990D01*
X241777Y479037D01*
X241772Y479084D01*
X242212Y479148D01*
Y479136D01*
D02*
G37*
G36*
X240868Y477382D02*
Y475182D01*
X240874D01*
X240891D01*
X240915Y475188D01*
X240950D01*
X240991Y475193D01*
X241038Y475205D01*
X241144Y475223D01*
X241261Y475258D01*
X241390Y475305D01*
X241508Y475369D01*
X241613Y475452D01*
Y475457D01*
X241625Y475463D01*
X241654Y475499D01*
X241695Y475551D01*
X241736Y475622D01*
X241783Y475716D01*
X241824Y475821D01*
X241854Y475939D01*
X241860Y476003D01*
X241866Y476073D01*
Y476120D01*
X241860Y476173D01*
X241848Y476238D01*
X241830Y476308D01*
X241807Y476390D01*
X241772Y476467D01*
X241725Y476543D01*
X241719Y476549D01*
X241695Y476578D01*
X241660Y476613D01*
X241613Y476654D01*
X241549Y476701D01*
X241467Y476754D01*
X241373Y476807D01*
X241261Y476854D01*
X241326Y477370D01*
X241332D01*
X241343Y477364D01*
X241367Y477359D01*
X241402Y477347D01*
X241437Y477329D01*
X241484Y477312D01*
X241584Y477265D01*
X241695Y477206D01*
X241813Y477124D01*
X241924Y477030D01*
X242030Y476913D01*
Y476907D01*
X242041Y476895D01*
X242053Y476877D01*
X242071Y476854D01*
X242089Y476819D01*
X242106Y476783D01*
X242129Y476737D01*
X242153Y476684D01*
X242176Y476625D01*
X242200Y476566D01*
X242235Y476420D01*
X242264Y476255D01*
X242276Y476073D01*
Y476009D01*
X242270Y475968D01*
X242264Y475915D01*
X242253Y475851D01*
X242241Y475780D01*
X242229Y475704D01*
X242182Y475540D01*
X242147Y475452D01*
X242112Y475369D01*
X242065Y475281D01*
X242012Y475199D01*
X241954Y475123D01*
X241883Y475047D01*
X241877Y475041D01*
X241866Y475029D01*
X241842Y475011D01*
X241807Y474988D01*
X241766Y474959D01*
X241719Y474929D01*
X241660Y474894D01*
X241596Y474859D01*
X241519Y474824D01*
X241437Y474789D01*
X241343Y474759D01*
X241244Y474730D01*
X241138Y474706D01*
X241021Y474689D01*
X240897Y474677D01*
X240768Y474671D01*
X240762D01*
X240733D01*
X240698D01*
X240645Y474677D01*
X240581Y474683D01*
X240510Y474689D01*
X240428Y474701D01*
X240346Y474718D01*
X240158Y474765D01*
X240064Y474795D01*
X239965Y474830D01*
X239871Y474877D01*
X239783Y474929D01*
X239695Y474988D01*
X239612Y475053D01*
X239607Y475059D01*
X239595Y475070D01*
X239577Y475094D01*
X239548Y475123D01*
X239519Y475158D01*
X239483Y475205D01*
X239442Y475258D01*
X239407Y475322D01*
X239366Y475387D01*
X239331Y475463D01*
X239296Y475546D01*
X239266Y475634D01*
X239237Y475727D01*
X239219Y475827D01*
X239208Y475933D01*
X239202Y476044D01*
Y476103D01*
X239208Y476144D01*
X239213Y476191D01*
X239225Y476250D01*
X239237Y476314D01*
X239254Y476390D01*
X239272Y476461D01*
X239301Y476543D01*
X239331Y476619D01*
X239372Y476701D01*
X239419Y476783D01*
X239472Y476866D01*
X239536Y476942D01*
X239607Y477012D01*
X239612Y477018D01*
X239624Y477030D01*
X239648Y477048D01*
X239683Y477071D01*
X239724Y477100D01*
X239771Y477130D01*
X239830Y477165D01*
X239900Y477200D01*
X239976Y477235D01*
X240058Y477271D01*
X240152Y477300D01*
X240252Y477329D01*
X240364Y477353D01*
X240481Y477370D01*
X240604Y477382D01*
X240739Y477388D01*
X240745D01*
X240768D01*
X240809D01*
X240868Y477382D01*
D02*
G37*
G36*
X241437Y474243D02*
X241502Y474231D01*
X241572Y474214D01*
X241648Y474184D01*
X241736Y474149D01*
X241819Y474102D01*
X241830Y474096D01*
X241854Y474073D01*
X241895Y474043D01*
X241942Y473997D01*
X241995Y473932D01*
X242053Y473862D01*
X242106Y473779D01*
X242159Y473680D01*
Y473674D01*
X242165Y473668D01*
X242176Y473633D01*
X242194Y473574D01*
X242218Y473498D01*
X242241Y473404D01*
X242259Y473298D01*
X242270Y473187D01*
X242276Y473058D01*
Y473005D01*
X242270Y472964D01*
Y472917D01*
X242264Y472858D01*
X242259Y472799D01*
X242247Y472735D01*
X242218Y472594D01*
X242176Y472448D01*
X242118Y472307D01*
X242083Y472242D01*
X242041Y472183D01*
X242036Y472178D01*
X242030Y472172D01*
X241995Y472136D01*
X241942Y472084D01*
X241860Y472025D01*
X241760Y471960D01*
X241642Y471896D01*
X241496Y471843D01*
X241332Y471802D01*
X241255Y472295D01*
X241261D01*
X241267D01*
X241302Y472307D01*
X241361Y472318D01*
X241425Y472342D01*
X241496Y472371D01*
X241572Y472406D01*
X241648Y472459D01*
X241713Y472524D01*
X241719Y472536D01*
X241736Y472559D01*
X241760Y472606D01*
X241789Y472665D01*
X241819Y472741D01*
X241842Y472829D01*
X241860Y472934D01*
X241866Y473058D01*
Y473116D01*
X241860Y473175D01*
X241848Y473251D01*
X241830Y473334D01*
X241807Y473422D01*
X241777Y473498D01*
X241731Y473568D01*
X241725Y473574D01*
X241707Y473597D01*
X241678Y473621D01*
X241637Y473656D01*
X241590Y473685D01*
X241531Y473715D01*
X241472Y473732D01*
X241402Y473738D01*
X241396D01*
X241373D01*
X241343Y473732D01*
X241302Y473721D01*
X241261Y473703D01*
X241220Y473674D01*
X241173Y473639D01*
X241138Y473586D01*
X241132Y473580D01*
X241126Y473562D01*
X241109Y473533D01*
X241091Y473486D01*
X241068Y473416D01*
X241050Y473374D01*
X241038Y473328D01*
X241021Y473275D01*
X241003Y473216D01*
X240985Y473152D01*
X240968Y473075D01*
Y473069D01*
X240962Y473052D01*
X240956Y473022D01*
X240944Y472987D01*
X240933Y472940D01*
X240915Y472887D01*
X240886Y472776D01*
X240845Y472647D01*
X240809Y472524D01*
X240768Y472406D01*
X240745Y472354D01*
X240727Y472313D01*
X240721Y472301D01*
X240710Y472277D01*
X240686Y472242D01*
X240657Y472195D01*
X240616Y472142D01*
X240569Y472090D01*
X240516Y472037D01*
X240452Y471990D01*
X240446Y471984D01*
X240422Y471972D01*
X240381Y471955D01*
X240334Y471937D01*
X240275Y471919D01*
X240205Y471902D01*
X240135Y471890D01*
X240053Y471884D01*
X240041D01*
X240017D01*
X239982Y471890D01*
X239929Y471896D01*
X239876Y471908D01*
X239812Y471919D01*
X239753Y471943D01*
X239689Y471972D01*
X239683Y471978D01*
X239659Y471990D01*
X239630Y472007D01*
X239589Y472037D01*
X239548Y472072D01*
X239495Y472113D01*
X239448Y472160D01*
X239407Y472219D01*
X239401Y472225D01*
X239395Y472242D01*
X239378Y472266D01*
X239360Y472301D01*
X239337Y472348D01*
X239313Y472401D01*
X239290Y472465D01*
X239266Y472536D01*
X239260Y472547D01*
X239254Y472571D01*
X239243Y472612D01*
X239231Y472665D01*
X239219Y472729D01*
X239213Y472799D01*
X239202Y472882D01*
Y473022D01*
X239208Y473087D01*
X239213Y473175D01*
X239225Y473269D01*
X239249Y473369D01*
X239272Y473474D01*
X239307Y473574D01*
Y473580D01*
X239313Y473586D01*
X239325Y473615D01*
X239348Y473662D01*
X239378Y473721D01*
X239419Y473785D01*
X239466Y473850D01*
X239519Y473909D01*
X239577Y473961D01*
X239583Y473967D01*
X239607Y473979D01*
X239648Y474002D01*
X239695Y474032D01*
X239765Y474061D01*
X239841Y474090D01*
X239929Y474114D01*
X240029Y474137D01*
X240094Y473650D01*
X240082D01*
X240058Y473644D01*
X240017Y473633D01*
X239965Y473615D01*
X239912Y473586D01*
X239853Y473551D01*
X239794Y473509D01*
X239741Y473451D01*
X239736Y473445D01*
X239724Y473422D01*
X239700Y473386D01*
X239677Y473334D01*
X239653Y473275D01*
X239630Y473199D01*
X239618Y473105D01*
X239612Y473005D01*
Y472946D01*
X239618Y472887D01*
X239624Y472811D01*
X239642Y472735D01*
X239659Y472653D01*
X239689Y472577D01*
X239730Y472512D01*
X239736Y472506D01*
X239747Y472489D01*
X239771Y472465D01*
X239806Y472442D01*
X239841Y472412D01*
X239888Y472389D01*
X239941Y472371D01*
X239994Y472365D01*
X240000D01*
X240011D01*
X240029Y472371D01*
X240053D01*
X240111Y472389D01*
X240170Y472424D01*
X240176Y472430D01*
X240182Y472436D01*
X240199Y472448D01*
X240217Y472471D01*
X240234Y472494D01*
X240258Y472530D01*
X240275Y472571D01*
X240299Y472618D01*
Y472623D01*
X240305Y472635D01*
X240311Y472659D01*
X240328Y472700D01*
X240346Y472758D01*
X240364Y472835D01*
X240381Y472882D01*
X240393Y472934D01*
X240410Y472993D01*
X240428Y473058D01*
Y473064D01*
X240434Y473081D01*
X240440Y473111D01*
X240452Y473146D01*
X240463Y473187D01*
X240475Y473240D01*
X240510Y473351D01*
X240545Y473474D01*
X240586Y473597D01*
X240627Y473709D01*
X240645Y473756D01*
X240663Y473797D01*
X240669Y473809D01*
X240680Y473832D01*
X240698Y473867D01*
X240727Y473920D01*
X240762Y473973D01*
X240809Y474026D01*
X240862Y474079D01*
X240921Y474126D01*
X240927Y474131D01*
X240950Y474143D01*
X240985Y474167D01*
X241038Y474190D01*
X241103Y474208D01*
X241173Y474231D01*
X241255Y474243D01*
X241349Y474249D01*
X241361D01*
X241390D01*
X241437Y474243D01*
D02*
G37*
G36*
X240868Y471385D02*
Y469185D01*
X240874D01*
X240891D01*
X240915Y469191D01*
X240950D01*
X240991Y469197D01*
X241038Y469209D01*
X241144Y469226D01*
X241261Y469262D01*
X241390Y469308D01*
X241508Y469373D01*
X241613Y469455D01*
Y469461D01*
X241625Y469467D01*
X241654Y469502D01*
X241695Y469555D01*
X241736Y469625D01*
X241783Y469719D01*
X241824Y469825D01*
X241854Y469942D01*
X241860Y470007D01*
X241866Y470077D01*
Y470124D01*
X241860Y470177D01*
X241848Y470241D01*
X241830Y470312D01*
X241807Y470394D01*
X241772Y470470D01*
X241725Y470546D01*
X241719Y470552D01*
X241695Y470582D01*
X241660Y470617D01*
X241613Y470658D01*
X241549Y470705D01*
X241467Y470758D01*
X241373Y470811D01*
X241261Y470857D01*
X241326Y471374D01*
X241332D01*
X241343Y471368D01*
X241367Y471362D01*
X241402Y471350D01*
X241437Y471333D01*
X241484Y471315D01*
X241584Y471268D01*
X241695Y471209D01*
X241813Y471127D01*
X241924Y471033D01*
X242030Y470916D01*
Y470910D01*
X242041Y470899D01*
X242053Y470881D01*
X242071Y470857D01*
X242089Y470822D01*
X242106Y470787D01*
X242129Y470740D01*
X242153Y470687D01*
X242176Y470629D01*
X242200Y470570D01*
X242235Y470423D01*
X242264Y470259D01*
X242276Y470077D01*
Y470013D01*
X242270Y469972D01*
X242264Y469919D01*
X242253Y469854D01*
X242241Y469784D01*
X242229Y469707D01*
X242182Y469543D01*
X242147Y469455D01*
X242112Y469373D01*
X242065Y469285D01*
X242012Y469203D01*
X241954Y469127D01*
X241883Y469050D01*
X241877Y469044D01*
X241866Y469033D01*
X241842Y469015D01*
X241807Y468992D01*
X241766Y468962D01*
X241719Y468933D01*
X241660Y468898D01*
X241596Y468862D01*
X241519Y468827D01*
X241437Y468792D01*
X241343Y468763D01*
X241244Y468733D01*
X241138Y468710D01*
X241021Y468692D01*
X240897Y468681D01*
X240768Y468675D01*
X240762D01*
X240733D01*
X240698D01*
X240645Y468681D01*
X240581Y468686D01*
X240510Y468692D01*
X240428Y468704D01*
X240346Y468722D01*
X240158Y468769D01*
X240064Y468798D01*
X239965Y468833D01*
X239871Y468880D01*
X239783Y468933D01*
X239695Y468992D01*
X239612Y469056D01*
X239607Y469062D01*
X239595Y469074D01*
X239577Y469097D01*
X239548Y469127D01*
X239519Y469162D01*
X239483Y469209D01*
X239442Y469262D01*
X239407Y469326D01*
X239366Y469391D01*
X239331Y469467D01*
X239296Y469549D01*
X239266Y469637D01*
X239237Y469731D01*
X239219Y469831D01*
X239208Y469936D01*
X239202Y470048D01*
Y470106D01*
X239208Y470148D01*
X239213Y470194D01*
X239225Y470253D01*
X239237Y470318D01*
X239254Y470394D01*
X239272Y470464D01*
X239301Y470546D01*
X239331Y470623D01*
X239372Y470705D01*
X239419Y470787D01*
X239472Y470869D01*
X239536Y470945D01*
X239607Y471016D01*
X239612Y471022D01*
X239624Y471033D01*
X239648Y471051D01*
X239683Y471074D01*
X239724Y471104D01*
X239771Y471133D01*
X239830Y471168D01*
X239900Y471204D01*
X239976Y471239D01*
X240058Y471274D01*
X240152Y471303D01*
X240252Y471333D01*
X240364Y471356D01*
X240481Y471374D01*
X240604Y471385D01*
X240739Y471391D01*
X240745D01*
X240768D01*
X240809D01*
X240868Y471385D01*
D02*
G37*
G36*
X242212Y467718D02*
X241367Y467184D01*
X241361D01*
X241349Y467173D01*
X241332Y467161D01*
X241308Y467143D01*
X241244Y467102D01*
X241161Y467049D01*
X241073Y466985D01*
X240979Y466920D01*
X240891Y466856D01*
X240809Y466797D01*
X240804Y466791D01*
X240780Y466774D01*
X240745Y466744D01*
X240704Y466703D01*
X240616Y466615D01*
X240575Y466568D01*
X240539Y466521D01*
X240534Y466516D01*
X240528Y466504D01*
X240516Y466480D01*
X240498Y466445D01*
X240481Y466410D01*
X240463Y466369D01*
X240434Y466275D01*
Y466269D01*
X240428Y466257D01*
Y466234D01*
X240422Y466205D01*
X240416Y466163D01*
Y466117D01*
X240410Y466052D01*
Y465360D01*
X242212D01*
Y464820D01*
X238151D01*
Y466703D01*
X238157Y466750D01*
Y466803D01*
X238163Y466926D01*
X238181Y467055D01*
X238198Y467196D01*
X238228Y467325D01*
X238245Y467390D01*
X238263Y467443D01*
Y467449D01*
X238269Y467454D01*
X238286Y467490D01*
X238310Y467542D01*
X238351Y467607D01*
X238404Y467677D01*
X238474Y467754D01*
X238556Y467824D01*
X238650Y467894D01*
X238656D01*
X238662Y467900D01*
X238697Y467924D01*
X238756Y467947D01*
X238832Y467982D01*
X238920Y468012D01*
X239026Y468041D01*
X239137Y468059D01*
X239260Y468064D01*
X239266D01*
X239278D01*
X239301D01*
X239331Y468059D01*
X239372D01*
X239413Y468053D01*
X239513Y468029D01*
X239630Y467994D01*
X239753Y467947D01*
X239876Y467877D01*
X239935Y467830D01*
X239994Y467783D01*
X240000Y467777D01*
X240005Y467771D01*
X240023Y467754D01*
X240041Y467730D01*
X240064Y467701D01*
X240088Y467666D01*
X240117Y467619D01*
X240152Y467572D01*
X240182Y467513D01*
X240211Y467449D01*
X240246Y467378D01*
X240275Y467302D01*
X240299Y467214D01*
X240328Y467126D01*
X240346Y467026D01*
X240364Y466920D01*
X240369Y466932D01*
X240381Y466956D01*
X240404Y466991D01*
X240428Y467038D01*
X240492Y467143D01*
X240534Y467196D01*
X240569Y467243D01*
X240581Y467255D01*
X240610Y467284D01*
X240657Y467331D01*
X240716Y467390D01*
X240798Y467454D01*
X240886Y467531D01*
X240991Y467607D01*
X241109Y467689D01*
X242212Y468387D01*
Y467718D01*
D02*
G37*
%LPC*%
G36*
X186417Y464534D02*
X185197D01*
Y463537D01*
X185203Y463461D01*
X185209Y463378D01*
X185215Y463296D01*
X185226Y463214D01*
X185238Y463150D01*
X185244Y463138D01*
X185250Y463114D01*
X185267Y463079D01*
X185291Y463032D01*
X185314Y462985D01*
X185350Y462933D01*
X185396Y462880D01*
X185443Y462839D01*
X185449Y462833D01*
X185467Y462821D01*
X185502Y462803D01*
X185543Y462786D01*
X185590Y462768D01*
X185649Y462751D01*
X185719Y462739D01*
X185795Y462733D01*
X185807D01*
X185831D01*
X185866Y462739D01*
X185913Y462745D01*
X185972Y462757D01*
X186030Y462774D01*
X186089Y462798D01*
X186147Y462833D01*
X186153Y462839D01*
X186171Y462850D01*
X186200Y462874D01*
X186230Y462903D01*
X186265Y462944D01*
X186300Y462991D01*
X186335Y463050D01*
X186359Y463114D01*
Y463120D01*
X186371Y463150D01*
X186376Y463191D01*
X186388Y463255D01*
X186400Y463343D01*
X186406Y463443D01*
X186417Y463572D01*
Y464534D01*
D02*
G37*
G36*
X184716D02*
X183319D01*
Y463378D01*
X183325Y463255D01*
X183331Y463202D01*
X183337Y463156D01*
Y463150D01*
X183343Y463126D01*
X183349Y463091D01*
X183361Y463050D01*
X183396Y462950D01*
X183443Y462850D01*
X183449Y462845D01*
X183460Y462827D01*
X183478Y462803D01*
X183501Y462774D01*
X183536Y462745D01*
X183572Y462704D01*
X183619Y462674D01*
X183671Y462639D01*
X183677Y462633D01*
X183695Y462627D01*
X183730Y462616D01*
X183771Y462598D01*
X183818Y462580D01*
X183877Y462569D01*
X183947Y462563D01*
X184018Y462557D01*
X184029D01*
X184053D01*
X184100Y462563D01*
X184153Y462575D01*
X184211Y462586D01*
X184276Y462610D01*
X184340Y462639D01*
X184405Y462680D01*
X184411Y462686D01*
X184434Y462704D01*
X184464Y462727D01*
X184499Y462762D01*
X184540Y462809D01*
X184581Y462868D01*
X184616Y462933D01*
X184646Y463009D01*
X184651Y463021D01*
X184657Y463044D01*
X184669Y463097D01*
X184681Y463161D01*
X184692Y463243D01*
X184704Y463343D01*
X184716Y463466D01*
Y464534D01*
D02*
G37*
G36*
X184311Y461008D02*
X184305D01*
X184288D01*
X184258D01*
X184217Y461002D01*
X184170D01*
X184117Y460996D01*
X183994Y460979D01*
X183853Y460949D01*
X183713Y460902D01*
X183578Y460844D01*
X183519Y460803D01*
X183460Y460762D01*
Y460756D01*
X183449Y460750D01*
X183419Y460715D01*
X183372Y460662D01*
X183325Y460591D01*
X183272Y460503D01*
X183226Y460398D01*
X183196Y460275D01*
X183190Y460210D01*
X183185Y460140D01*
Y460104D01*
X183190Y460075D01*
X183202Y460011D01*
X183220Y459922D01*
X183255Y459829D01*
X183302Y459723D01*
X183372Y459623D01*
X183419Y459571D01*
X183466Y459524D01*
X183472Y459518D01*
X183478Y459512D01*
X183496Y459500D01*
X183519Y459482D01*
X183548Y459465D01*
X183584Y459441D01*
X183630Y459418D01*
X183677Y459394D01*
X183736Y459371D01*
X183801Y459353D01*
X183871Y459330D01*
X183947Y459312D01*
X184035Y459295D01*
X184123Y459283D01*
X184223Y459271D01*
X184329D01*
X184335D01*
X184352D01*
X184381D01*
X184417Y459277D01*
X184464D01*
X184516Y459283D01*
X184640Y459301D01*
X184769Y459330D01*
X184909Y459377D01*
X185039Y459441D01*
X185103Y459477D01*
X185156Y459524D01*
X185162D01*
X185168Y459535D01*
X185203Y459571D01*
X185244Y459623D01*
X185297Y459694D01*
X185350Y459782D01*
X185396Y459887D01*
X185426Y460005D01*
X185432Y460069D01*
X185438Y460140D01*
Y460175D01*
X185432Y460204D01*
X185426Y460269D01*
X185402Y460357D01*
X185367Y460457D01*
X185320Y460562D01*
X185250Y460662D01*
X185203Y460715D01*
X185156Y460762D01*
X185150D01*
X185144Y460773D01*
X185127Y460785D01*
X185103Y460803D01*
X185074Y460820D01*
X185039Y460838D01*
X184992Y460861D01*
X184945Y460885D01*
X184886Y460908D01*
X184827Y460932D01*
X184757Y460949D01*
X184681Y460967D01*
X184599Y460984D01*
X184510Y460996D01*
X184411Y461002D01*
X184311Y461008D01*
D02*
G37*
G36*
Y457851D02*
X184305D01*
X184288D01*
X184258D01*
X184217Y457845D01*
X184170D01*
X184117Y457840D01*
X183994Y457822D01*
X183853Y457793D01*
X183713Y457746D01*
X183578Y457687D01*
X183519Y457646D01*
X183460Y457605D01*
Y457599D01*
X183449Y457593D01*
X183419Y457558D01*
X183372Y457505D01*
X183325Y457435D01*
X183272Y457347D01*
X183226Y457241D01*
X183196Y457118D01*
X183190Y457053D01*
X183185Y456983D01*
Y456948D01*
X183190Y456918D01*
X183202Y456854D01*
X183220Y456766D01*
X183255Y456672D01*
X183302Y456566D01*
X183372Y456467D01*
X183419Y456414D01*
X183466Y456367D01*
X183472Y456361D01*
X183478Y456355D01*
X183496Y456343D01*
X183519Y456326D01*
X183548Y456308D01*
X183584Y456285D01*
X183630Y456261D01*
X183677Y456238D01*
X183736Y456214D01*
X183801Y456197D01*
X183871Y456173D01*
X183947Y456156D01*
X184035Y456138D01*
X184123Y456126D01*
X184223Y456115D01*
X184329D01*
X184335D01*
X184352D01*
X184381D01*
X184417Y456120D01*
X184464D01*
X184516Y456126D01*
X184640Y456144D01*
X184769Y456173D01*
X184909Y456220D01*
X185039Y456285D01*
X185103Y456320D01*
X185156Y456367D01*
X185162D01*
X185168Y456379D01*
X185203Y456414D01*
X185244Y456467D01*
X185297Y456537D01*
X185350Y456625D01*
X185396Y456731D01*
X185426Y456848D01*
X185432Y456913D01*
X185438Y456983D01*
Y457018D01*
X185432Y457048D01*
X185426Y457112D01*
X185402Y457200D01*
X185367Y457300D01*
X185320Y457405D01*
X185250Y457505D01*
X185203Y457558D01*
X185156Y457605D01*
X185150D01*
X185144Y457617D01*
X185127Y457628D01*
X185103Y457646D01*
X185074Y457664D01*
X185039Y457681D01*
X184992Y457705D01*
X184945Y457728D01*
X184886Y457752D01*
X184827Y457775D01*
X184757Y457793D01*
X184681Y457810D01*
X184599Y457828D01*
X184510Y457840D01*
X184411Y457845D01*
X184311Y457851D01*
D02*
G37*
G36*
X240457Y476860D02*
X240452D01*
X240440D01*
X240422Y476854D01*
X240399D01*
X240328Y476842D01*
X240252Y476825D01*
X240158Y476795D01*
X240070Y476766D01*
X239982Y476719D01*
X239906Y476666D01*
X239900D01*
X239894Y476654D01*
X239859Y476625D01*
X239812Y476572D01*
X239759Y476502D01*
X239706Y476414D01*
X239659Y476308D01*
X239624Y476185D01*
X239618Y476120D01*
X239612Y476050D01*
Y476015D01*
X239618Y475991D01*
X239624Y475927D01*
X239642Y475851D01*
X239671Y475757D01*
X239712Y475657D01*
X239771Y475563D01*
X239847Y475469D01*
X239859Y475457D01*
X239888Y475434D01*
X239941Y475393D01*
X240011Y475352D01*
X240094Y475305D01*
X240199Y475264D01*
X240322Y475229D01*
X240457Y475211D01*
Y476860D01*
D02*
G37*
G36*
Y470863D02*
X240452D01*
X240440D01*
X240422Y470857D01*
X240399D01*
X240328Y470846D01*
X240252Y470828D01*
X240158Y470799D01*
X240070Y470769D01*
X239982Y470723D01*
X239906Y470670D01*
X239900D01*
X239894Y470658D01*
X239859Y470629D01*
X239812Y470576D01*
X239759Y470505D01*
X239706Y470417D01*
X239659Y470312D01*
X239624Y470188D01*
X239618Y470124D01*
X239612Y470054D01*
Y470018D01*
X239618Y469995D01*
X239624Y469930D01*
X239642Y469854D01*
X239671Y469760D01*
X239712Y469660D01*
X239771Y469567D01*
X239847Y469473D01*
X239859Y469461D01*
X239888Y469437D01*
X239941Y469396D01*
X240011Y469355D01*
X240094Y469308D01*
X240199Y469267D01*
X240322Y469232D01*
X240457Y469215D01*
Y470863D01*
D02*
G37*
G36*
X239266Y467513D02*
X239260D01*
X239254D01*
X239219Y467507D01*
X239167Y467501D01*
X239096Y467490D01*
X239026Y467460D01*
X238944Y467425D01*
X238867Y467372D01*
X238791Y467302D01*
X238785Y467290D01*
X238762Y467261D01*
X238732Y467214D01*
X238697Y467137D01*
X238662Y467049D01*
X238633Y466932D01*
X238609Y466797D01*
X238603Y466639D01*
Y465360D01*
X239947D01*
Y466568D01*
X239941Y466639D01*
X239935Y466721D01*
X239929Y466815D01*
X239918Y466909D01*
X239900Y467002D01*
X239876Y467085D01*
X239871Y467096D01*
X239859Y467120D01*
X239841Y467155D01*
X239818Y467202D01*
X239783Y467255D01*
X239741Y467308D01*
X239689Y467360D01*
X239630Y467402D01*
X239624Y467407D01*
X239601Y467419D01*
X239566Y467437D01*
X239519Y467460D01*
X239466Y467478D01*
X239407Y467495D01*
X239337Y467507D01*
X239266Y467513D01*
D02*
G37*
%LPD*%
D11*
X197956Y438074D02*
Y492074D01*
X163956Y438074D02*
X197956D01*
X163956D02*
Y492074D01*
X197956D01*
X227094Y437820D02*
Y491820D01*
X261094D01*
Y437820D02*
Y491820D01*
X227094Y437820D02*
X261094D01*
D16*
X40513Y375031D02*
Y389509D01*
Y375031D02*
X70231D01*
Y389509D01*
X40513D02*
X70231D01*
X46609Y377571D02*
Y386969D01*
X64135D01*
Y377571D02*
Y386969D01*
X46609Y377571D02*
X64135D01*
M02*
