G04*
G04 #@! TF.GenerationSoftware,Altium Limited,Altium Designer,19.1.9 (167)*
G04*
G04 Layer_Physical_Order=1*
G04 Layer_Color=255*
%FSLAX25Y25*%
%MOIN*%
G70*
G01*
G75*
%ADD11C,0.01000*%
%ADD16C,0.00500*%
%ADD19R,0.04134X0.04134*%
%ADD20R,0.04134X0.04134*%
%ADD21R,0.02559X0.04134*%
%ADD22R,0.04724X0.02362*%
%ADD23R,0.04134X0.01575*%
%ADD24R,0.01575X0.04134*%
%ADD25R,0.02362X0.07087*%
%ADD26R,0.04134X0.08661*%
%ADD27R,0.03937X0.04134*%
%ADD28R,0.08661X0.04724*%
%ADD29R,0.01870X0.01476*%
G04:AMPARAMS|DCode=30|XSize=59.06mil|YSize=59.06mil|CornerRadius=2.95mil|HoleSize=0mil|Usage=FLASHONLY|Rotation=180.000|XOffset=0mil|YOffset=0mil|HoleType=Round|Shape=RoundedRectangle|*
%AMROUNDEDRECTD30*
21,1,0.05906,0.05315,0,0,180.0*
21,1,0.05315,0.05906,0,0,180.0*
1,1,0.00591,-0.02657,0.02657*
1,1,0.00591,0.02657,0.02657*
1,1,0.00591,0.02657,-0.02657*
1,1,0.00591,-0.02657,-0.02657*
%
%ADD30ROUNDEDRECTD30*%
G04:AMPARAMS|DCode=31|XSize=19.68mil|YSize=31.5mil|CornerRadius=3.94mil|HoleSize=0mil|Usage=FLASHONLY|Rotation=270.000|XOffset=0mil|YOffset=0mil|HoleType=Round|Shape=RoundedRectangle|*
%AMROUNDEDRECTD31*
21,1,0.01968,0.02362,0,0,270.0*
21,1,0.01181,0.03150,0,0,270.0*
1,1,0.00787,-0.01181,-0.00591*
1,1,0.00787,-0.01181,0.00591*
1,1,0.00787,0.01181,0.00591*
1,1,0.00787,0.01181,-0.00591*
%
%ADD31ROUNDEDRECTD31*%
G04:AMPARAMS|DCode=32|XSize=19.68mil|YSize=31.5mil|CornerRadius=3.94mil|HoleSize=0mil|Usage=FLASHONLY|Rotation=180.000|XOffset=0mil|YOffset=0mil|HoleType=Round|Shape=RoundedRectangle|*
%AMROUNDEDRECTD32*
21,1,0.01968,0.02362,0,0,180.0*
21,1,0.01181,0.03150,0,0,180.0*
1,1,0.00787,-0.00591,0.01181*
1,1,0.00787,0.00591,0.01181*
1,1,0.00787,0.00591,-0.01181*
1,1,0.00787,-0.00591,-0.01181*
%
%ADD32ROUNDEDRECTD32*%
%ADD33R,0.03543X0.02559*%
%ADD34R,0.03543X0.03937*%
%ADD35R,0.02756X0.01968*%
%ADD36R,0.02362X0.03347*%
%ADD37R,0.03347X0.02362*%
G04:AMPARAMS|DCode=38|XSize=23.62mil|YSize=57.09mil|CornerRadius=2.01mil|HoleSize=0mil|Usage=FLASHONLY|Rotation=180.000|XOffset=0mil|YOffset=0mil|HoleType=Round|Shape=RoundedRectangle|*
%AMROUNDEDRECTD38*
21,1,0.02362,0.05307,0,0,180.0*
21,1,0.01961,0.05709,0,0,180.0*
1,1,0.00402,-0.00980,0.02653*
1,1,0.00402,0.00980,0.02653*
1,1,0.00402,0.00980,-0.02653*
1,1,0.00402,-0.00980,-0.02653*
%
%ADD38ROUNDEDRECTD38*%
%ADD39R,0.05906X0.02756*%
%ADD40R,0.05906X0.03937*%
%ADD41R,0.02756X0.05906*%
%ADD42R,0.03150X0.02975*%
%ADD43R,0.04000X0.03500*%
%ADD44R,0.03700X0.03800*%
%ADD45R,0.02975X0.03150*%
%ADD46R,0.03800X0.03700*%
%ADD47R,0.02362X0.04528*%
%ADD48R,0.02835X0.02717*%
%ADD49R,0.01102X0.01614*%
%ADD50R,0.01614X0.01102*%
%ADD93C,0.01028*%
%ADD94C,0.01700*%
%ADD95C,0.01500*%
%ADD96C,0.01734*%
%ADD97C,0.01968*%
%ADD98C,0.25000*%
%ADD99O,0.10000X0.20000*%
%ADD100R,0.08000X0.08000*%
%ADD101O,0.06693X0.04724*%
%ADD102O,0.05512X0.03937*%
%ADD103C,0.05906*%
%ADD104R,0.05906X0.05906*%
%ADD105C,0.12000*%
%ADD106C,0.01800*%
%ADD107C,0.01600*%
%ADD108C,0.03200*%
G36*
X321703Y254158D02*
X323503Y253676D01*
X325225Y252962D01*
X326839Y252030D01*
X328318Y250896D01*
X329636Y249578D01*
X330770Y248099D01*
X331702Y246485D01*
X332416Y244763D01*
X332898Y242962D01*
X333141Y241114D01*
X333141Y240182D01*
Y234277D01*
X333145Y234258D01*
X333142Y234239D01*
X333175Y232887D01*
X333188Y232832D01*
X333182Y232775D01*
X333447Y230083D01*
X333469Y230011D01*
Y229935D01*
X333997Y227282D01*
X334026Y227212D01*
X334033Y227137D01*
X334818Y224549D01*
X334854Y224482D01*
X334869Y224407D01*
X335904Y221909D01*
X335946Y221846D01*
X335968Y221773D01*
X337243Y219388D01*
X337291Y219329D01*
X337320Y219259D01*
X338823Y217010D01*
X338876Y216957D01*
X338912Y216890D01*
X340628Y214799D01*
X340686Y214751D01*
X340728Y214688D01*
X342641Y212776D01*
X342704Y212734D01*
X342752Y212675D01*
X344843Y210959D01*
X344910Y210923D01*
X344963Y210870D01*
X347212Y209367D01*
X347282Y209338D01*
X347341Y209290D01*
X349726Y208015D01*
X349798Y207993D01*
X349862Y207951D01*
X352360Y206916D01*
X352434Y206901D01*
X352501Y206865D01*
X355089Y206080D01*
X355165Y206073D01*
X355235Y206044D01*
X357888Y205516D01*
X357963D01*
X358036Y205494D01*
X360728Y205229D01*
X360784Y205235D01*
X360840Y205222D01*
X362192Y205189D01*
X362211Y205192D01*
X362230Y205189D01*
X371036D01*
X372884Y204945D01*
X374684Y204463D01*
X376406Y203750D01*
X378020Y202818D01*
X379499Y201683D01*
X380817Y200365D01*
X381951Y198886D01*
X382884Y197272D01*
X383597Y195550D01*
X384079Y193750D01*
X384322Y191902D01*
Y190970D01*
Y64986D01*
Y64054D01*
X384079Y62206D01*
X383597Y60405D01*
X382884Y58683D01*
X381951Y57069D01*
X380817Y55590D01*
X379499Y54273D01*
X378020Y53138D01*
X376406Y52206D01*
X374684Y51493D01*
X372884Y51010D01*
X371036Y50767D01*
X370104Y50767D01*
X362230D01*
X362211Y50763D01*
X362192Y50766D01*
X360840Y50733D01*
X360784Y50721D01*
X360728Y50726D01*
X358036Y50461D01*
X357963Y50439D01*
X357888D01*
X355235Y49912D01*
X355165Y49883D01*
X355089Y49875D01*
X352501Y49090D01*
X352434Y49054D01*
X352360Y49040D01*
X349862Y48005D01*
X349798Y47962D01*
X349726Y47940D01*
X347341Y46665D01*
X347282Y46617D01*
X347212Y46588D01*
X344963Y45086D01*
X344910Y45032D01*
X344843Y44996D01*
X342752Y43281D01*
X342704Y43222D01*
X342641Y43180D01*
X340728Y41267D01*
X340686Y41204D01*
X340628Y41156D01*
X338912Y39066D01*
X338876Y38999D01*
X338823Y38945D01*
X337320Y36696D01*
X337291Y36626D01*
X337243Y36568D01*
X335968Y34183D01*
X335946Y34110D01*
X335904Y34047D01*
X334869Y31548D01*
X334854Y31474D01*
X334818Y31407D01*
X334033Y28819D01*
X334026Y28743D01*
X333997Y28673D01*
X333469Y26021D01*
Y25945D01*
X333447Y25872D01*
X333182Y23181D01*
X333188Y23124D01*
X333175Y23068D01*
X333142Y21716D01*
X333145Y21697D01*
X333141Y21678D01*
Y14841D01*
X332898Y12993D01*
X332416Y11193D01*
X331702Y9471D01*
X330770Y7857D01*
X329636Y6378D01*
X328318Y5060D01*
X326839Y3925D01*
X325225Y2993D01*
X323503Y2280D01*
X321703Y1798D01*
X319855Y1554D01*
X205416D01*
Y5456D01*
X208300D01*
Y8424D01*
X208800D01*
Y8924D01*
X212753D01*
Y10574D01*
Y12452D01*
X208800D01*
Y13452D01*
X212753D01*
Y13766D01*
X213677Y14149D01*
X214763Y13063D01*
X215193Y12775D01*
X215700Y12675D01*
X216776D01*
Y11133D01*
X227824D01*
Y12497D01*
X228824Y12601D01*
X229363Y12063D01*
X229793Y11775D01*
X230300Y11675D01*
X232154D01*
Y10293D01*
X234513D01*
Y10093D01*
X235800D01*
Y13160D01*
X236800D01*
Y10093D01*
X238087D01*
Y10293D01*
X240446D01*
Y11834D01*
X250533D01*
Y5676D01*
X256267D01*
Y6886D01*
X257283D01*
Y6053D01*
X261717D01*
Y7999D01*
X261963Y8163D01*
X264800Y11000D01*
X265088Y11430D01*
X265188Y11937D01*
Y12914D01*
X267853Y15578D01*
X269926D01*
Y11400D01*
X272993D01*
X276060D01*
Y14037D01*
X281540D01*
Y11400D01*
X284107D01*
Y16230D01*
X281569D01*
Y19771D01*
X276324D01*
Y21700D01*
X273257D01*
Y22200D01*
X272758D01*
Y25267D01*
X270191D01*
Y25067D01*
X265076D01*
Y23225D01*
X261140D01*
Y24373D01*
X259203D01*
X258820Y25297D01*
X287588Y54065D01*
X291633D01*
Y52143D01*
X297767D01*
Y54710D01*
X297567D01*
Y59824D01*
X296404D01*
Y63779D01*
X298241D01*
Y67741D01*
X291916D01*
Y63779D01*
X293753D01*
Y59824D01*
X291833D01*
Y56716D01*
X287039D01*
X286532Y56615D01*
X286102Y56328D01*
X254148Y24373D01*
X252060D01*
Y21301D01*
X249357Y18599D01*
X240446D01*
Y20882D01*
X243114D01*
X243621Y20982D01*
X244052Y21270D01*
X244637Y21856D01*
X244925Y22286D01*
X245025Y22793D01*
Y25460D01*
X246273D01*
Y26448D01*
X246973D01*
X247481Y26549D01*
X247910Y26836D01*
X249304Y28229D01*
X249624Y28293D01*
X250153Y28646D01*
X250507Y29176D01*
X250631Y29800D01*
X250507Y30424D01*
X250153Y30953D01*
X249624Y31307D01*
X249000Y31431D01*
X248376Y31307D01*
X247847Y30953D01*
X247790Y30869D01*
X247473Y30773D01*
X246473Y31515D01*
Y32059D01*
X243800D01*
X241127D01*
Y30378D01*
X241220D01*
X241327Y29422D01*
X241327Y29378D01*
Y25460D01*
X242374D01*
Y23533D01*
X240288D01*
X240215Y23614D01*
X239845Y24533D01*
X240007Y24776D01*
X240131Y25400D01*
X240007Y26024D01*
X239653Y26553D01*
X239124Y26907D01*
X238500Y27031D01*
X237876Y26907D01*
X237867Y26901D01*
X236867Y27436D01*
Y29391D01*
X237067D01*
Y31958D01*
X230933D01*
Y30688D01*
X229933Y30385D01*
X229753Y30654D01*
X229224Y31007D01*
X228600Y31131D01*
X227976Y31007D01*
X227447Y30654D01*
X227093Y30124D01*
X226969Y29500D01*
X227093Y28876D01*
X227447Y28346D01*
X227976Y27993D01*
X228499Y27889D01*
X228911Y27477D01*
X229341Y27190D01*
X229848Y27089D01*
X231133D01*
Y24276D01*
X231595D01*
X232154Y23507D01*
Y17773D01*
X232786D01*
X232794Y17762D01*
X232804Y17712D01*
X233091Y17282D01*
X233236Y17137D01*
X233334Y16998D01*
X232932Y16027D01*
X232154D01*
Y14325D01*
X230849D01*
X230237Y14937D01*
X229807Y15225D01*
X229300Y15326D01*
X227824D01*
Y16867D01*
X227824D01*
Y17133D01*
X227824D01*
Y22867D01*
X227036D01*
X226827Y23071D01*
X226365Y23867D01*
X226431Y24200D01*
X226307Y24824D01*
X225954Y25354D01*
X225424Y25707D01*
X224800Y25831D01*
X224176Y25707D01*
X223646Y25354D01*
X223293Y24824D01*
X223169Y24200D01*
X223235Y23867D01*
X222774Y23071D01*
X222564Y22867D01*
X216776D01*
Y22151D01*
X213656D01*
X212753Y22385D01*
Y24263D01*
X204847D01*
Y22385D01*
X205047D01*
Y19446D01*
X204600Y18516D01*
X178800D01*
X178115Y19301D01*
X178107Y19320D01*
Y20326D01*
X170202D01*
Y18448D01*
Y17389D01*
X174154D01*
Y16389D01*
X170202D01*
Y14511D01*
Y13452D01*
X174154D01*
Y12452D01*
X170202D01*
Y10574D01*
Y8924D01*
X174154D01*
Y8424D01*
X174654D01*
Y5456D01*
X177984D01*
Y1554D01*
X150684D01*
X62971Y2120D01*
X62374Y2280D01*
X60652Y2993D01*
X59038Y3925D01*
X57559Y5060D01*
X56241Y6378D01*
X55106Y7857D01*
X54174Y9471D01*
X53461Y11193D01*
X52979Y12993D01*
X52736Y14841D01*
X52736Y15773D01*
Y21679D01*
X52732Y21697D01*
X52735Y21716D01*
X52702Y23068D01*
X52689Y23124D01*
X52695Y23181D01*
X52430Y25872D01*
X52408Y25945D01*
Y26021D01*
X51880Y28673D01*
X51851Y28743D01*
X51844Y28819D01*
X51059Y31407D01*
X51023Y31474D01*
X51008Y31548D01*
X49973Y34047D01*
X49931Y34110D01*
X49909Y34183D01*
X48634Y36568D01*
X48586Y36626D01*
X48557Y36696D01*
X47054Y38945D01*
X47001Y38999D01*
X46965Y39066D01*
X45249Y41156D01*
X45191Y41204D01*
X45148Y41267D01*
X43236Y43180D01*
X43173Y43222D01*
X43125Y43281D01*
X41034Y44996D01*
X40967Y45032D01*
X40914Y45086D01*
X38665Y46588D01*
X38595Y46617D01*
X38536Y46665D01*
X36151Y47940D01*
X36078Y47962D01*
X36015Y48005D01*
X33517Y49040D01*
X33442Y49054D01*
X33375Y49090D01*
X30787Y49875D01*
X30712Y49883D01*
X30642Y49912D01*
X27989Y50439D01*
X27913D01*
X27841Y50461D01*
X25149Y50726D01*
X25093Y50721D01*
X25037Y50733D01*
X23685Y50766D01*
X23666Y50763D01*
X23647Y50767D01*
X15773Y50767D01*
X14841Y50767D01*
X12993Y51010D01*
X11193Y51493D01*
X9471Y52206D01*
X7857Y53138D01*
X6378Y54273D01*
X5060Y55590D01*
X3925Y57069D01*
X2993Y58683D01*
X2280Y60405D01*
X1798Y62206D01*
X1554Y64054D01*
X1554Y64986D01*
Y190970D01*
X1554Y191902D01*
X1798Y193750D01*
X2280Y195550D01*
X2993Y197272D01*
X3925Y198886D01*
X5060Y200365D01*
X6378Y201683D01*
X7857Y202818D01*
X9471Y203750D01*
X11193Y204463D01*
X12993Y204945D01*
X14841Y205189D01*
X15773Y205189D01*
X23647Y205189D01*
X23666Y205192D01*
X23685Y205189D01*
X25037Y205222D01*
X25093Y205235D01*
X25149Y205229D01*
X27841Y205494D01*
X27913Y205516D01*
X27989D01*
X30642Y206044D01*
X30712Y206073D01*
X30787Y206080D01*
X33375Y206865D01*
X33442Y206901D01*
X33517Y206916D01*
X36015Y207951D01*
X36078Y207993D01*
X36151Y208015D01*
X38536Y209290D01*
X38595Y209338D01*
X38665Y209367D01*
X40914Y210870D01*
X40967Y210923D01*
X41034Y210959D01*
X43125Y212675D01*
X43173Y212734D01*
X43236Y212776D01*
X45148Y214688D01*
X45191Y214751D01*
X45249Y214799D01*
X46965Y216890D01*
X47001Y216957D01*
X47054Y217010D01*
X48557Y219259D01*
X48586Y219329D01*
X48634Y219388D01*
X49909Y221773D01*
X49931Y221846D01*
X49973Y221909D01*
X51008Y224407D01*
X51023Y224482D01*
X51059Y224549D01*
X51844Y227137D01*
X51851Y227212D01*
X51880Y227282D01*
X52408Y229935D01*
Y230011D01*
X52430Y230083D01*
X52695Y232775D01*
X52689Y232832D01*
X52702Y232887D01*
X52735Y234239D01*
X52732Y234258D01*
X52736Y234277D01*
X52736Y240182D01*
X52736Y241114D01*
X52979Y242962D01*
X53461Y244763D01*
X54174Y246485D01*
X55106Y248099D01*
X56241Y249578D01*
X57559Y250896D01*
X59038Y252030D01*
X60652Y252962D01*
X62374Y253676D01*
X64174Y254158D01*
X66022Y254401D01*
X66954D01*
X86684D01*
X86684Y219200D01*
X86746Y218888D01*
X86923Y218623D01*
X87188Y218446D01*
X87500Y218384D01*
X189318Y218384D01*
Y215801D01*
X188318Y215014D01*
X188150Y215050D01*
X187533Y215050D01*
X185750D01*
Y212200D01*
Y209350D01*
X187533D01*
X188150Y209350D01*
X188443Y209414D01*
X189443Y208686D01*
Y206916D01*
X188627D01*
Y202954D01*
X193573D01*
Y206916D01*
X192807D01*
Y209550D01*
X193850D01*
Y214850D01*
X192682D01*
Y218384D01*
X286300Y218384D01*
X286612Y218446D01*
X286877Y218623D01*
X287054Y218888D01*
X287116Y219200D01*
X287116Y254401D01*
X318923D01*
X319855D01*
X321703Y254158D01*
D02*
G37*
%LPC*%
G36*
X306974Y252231D02*
X304407D01*
Y247400D01*
X306974D01*
Y252231D01*
D02*
G37*
G36*
X295360D02*
X292793D01*
Y247400D01*
X295360D01*
Y252231D01*
D02*
G37*
G36*
X303407D02*
X300840D01*
Y247400D01*
X303407D01*
Y252231D01*
D02*
G37*
G36*
X291793D02*
X289226D01*
Y247400D01*
X291793D01*
Y252231D01*
D02*
G37*
G36*
X306974Y246400D02*
X304407D01*
Y241569D01*
X306974D01*
Y246400D01*
D02*
G37*
G36*
X291793D02*
X289226D01*
Y241569D01*
X291793D01*
Y246400D01*
D02*
G37*
G36*
X318600Y248733D02*
X317267Y248602D01*
X315985Y248213D01*
X314804Y247581D01*
X313768Y246732D01*
X312919Y245696D01*
X312287Y244515D01*
X311898Y243233D01*
X311767Y241900D01*
X311898Y240567D01*
X312287Y239285D01*
X312919Y238104D01*
X313768Y237068D01*
X314804Y236219D01*
X315985Y235587D01*
X317267Y235198D01*
X318600Y235067D01*
X319933Y235198D01*
X321215Y235587D01*
X322396Y236219D01*
X323432Y237068D01*
X324281Y238104D01*
X324913Y239285D01*
X325302Y240567D01*
X325433Y241900D01*
X325302Y243233D01*
X324913Y244515D01*
X324281Y245696D01*
X323432Y246732D01*
X322396Y247581D01*
X321215Y248213D01*
X319933Y248602D01*
X318600Y248733D01*
D02*
G37*
G36*
X65900D02*
X64567Y248602D01*
X63285Y248213D01*
X62104Y247581D01*
X61068Y246732D01*
X60219Y245696D01*
X59587Y244515D01*
X59198Y243233D01*
X59067Y241900D01*
X59198Y240567D01*
X59587Y239285D01*
X60219Y238104D01*
X61068Y237068D01*
X62104Y236219D01*
X63285Y235587D01*
X64567Y235198D01*
X65900Y235067D01*
X67233Y235198D01*
X68515Y235587D01*
X69696Y236219D01*
X70732Y237068D01*
X71581Y238104D01*
X72213Y239285D01*
X72602Y240567D01*
X72733Y241900D01*
X72602Y243233D01*
X72213Y244515D01*
X71581Y245696D01*
X70732Y246732D01*
X69696Y247581D01*
X68515Y248213D01*
X67233Y248602D01*
X65900Y248733D01*
D02*
G37*
G36*
X295360Y246400D02*
X292793D01*
Y241569D01*
X295332D01*
Y238029D01*
X296418D01*
Y225597D01*
X286003Y215182D01*
X263446D01*
X263446Y215182D01*
X262802Y215054D01*
X262256Y214690D01*
X262256Y214690D01*
X249066Y201500D01*
X193573D01*
Y201798D01*
X188627D01*
Y197836D01*
X189193D01*
Y196640D01*
X188193Y196032D01*
X187650Y196150D01*
X187033Y196150D01*
X185250D01*
Y193300D01*
Y190450D01*
X187033D01*
X187650Y190450D01*
X187933Y190512D01*
X188933Y189779D01*
Y184172D01*
X188040Y183402D01*
X187950D01*
Y180800D01*
Y178198D01*
X188040D01*
X188584Y178306D01*
X189045Y178614D01*
X189543Y178495D01*
X190009Y178402D01*
X191190D01*
X191656Y178495D01*
X192154Y178614D01*
X192614Y178306D01*
X193158Y178198D01*
X193249D01*
Y180800D01*
Y183402D01*
X193158D01*
X192297Y184193D01*
Y190650D01*
X193350D01*
Y195950D01*
X192557D01*
Y197836D01*
X193573D01*
Y198135D01*
X249763D01*
X250407Y198263D01*
X250952Y198627D01*
X264142Y211818D01*
X286700D01*
X287344Y211946D01*
X287890Y212310D01*
X299290Y223710D01*
X299290Y223710D01*
X299654Y224256D01*
X299782Y224900D01*
Y238029D01*
X300869D01*
Y241569D01*
X303407D01*
Y246400D01*
X300840D01*
Y243763D01*
X295360D01*
Y246400D01*
D02*
G37*
G36*
X184750Y215050D02*
X182350D01*
Y212700D01*
X184750D01*
Y215050D01*
D02*
G37*
G36*
Y211700D02*
X182350D01*
Y209350D01*
X184750D01*
Y211700D01*
D02*
G37*
G36*
X332600Y215125D02*
X318616D01*
X318109Y215025D01*
X317679Y214737D01*
X310391Y207450D01*
X290550D01*
X290042Y207349D01*
X289612Y207062D01*
X288100Y205550D01*
X285225D01*
Y204638D01*
X283075D01*
Y205650D01*
X278325D01*
Y201075D01*
X283075D01*
Y201987D01*
X285225D01*
Y200975D01*
X288177D01*
X288569Y200068D01*
X288045Y199425D01*
X285225D01*
Y194850D01*
X289975D01*
Y197113D01*
X290333Y197383D01*
X291333Y196885D01*
Y194576D01*
X292539D01*
Y191852D01*
X292469Y191500D01*
X292593Y190876D01*
X292947Y190347D01*
X293476Y189993D01*
X293968Y189895D01*
X294227Y189454D01*
X294395Y188908D01*
X288663Y183176D01*
X288375Y182746D01*
X288275Y182238D01*
Y166950D01*
X287225D01*
Y162375D01*
X291975D01*
Y163287D01*
X293425D01*
Y162275D01*
X298175D01*
Y166850D01*
X295312D01*
X295009Y167850D01*
X295153Y167947D01*
X295507Y168476D01*
X295631Y169100D01*
X295507Y169724D01*
X295325Y169996D01*
Y172350D01*
X297550D01*
Y177250D01*
X297550Y178000D01*
X297550Y178750D01*
Y180576D01*
X299349Y182375D01*
X304300D01*
X304807Y182475D01*
X305237Y182763D01*
X307308Y184833D01*
X310224D01*
Y186374D01*
X311893D01*
Y186172D01*
X317627D01*
Y189347D01*
X311893D01*
Y189025D01*
X310224D01*
Y190567D01*
X308325D01*
X307770Y191567D01*
X307966Y191881D01*
X308024Y191893D01*
X308554Y192246D01*
X308907Y192776D01*
X309031Y193400D01*
X308907Y194024D01*
X308554Y194553D01*
X308024Y194907D01*
X307400Y195031D01*
X306776Y194907D01*
X306246Y194553D01*
X306009Y194199D01*
X302672Y190862D01*
X302475Y190567D01*
X301110D01*
X300727Y191491D01*
X319511Y210275D01*
X330388D01*
X330489Y210124D01*
X329954Y209124D01*
X326933D01*
Y207800D01*
X324360D01*
X324200Y207831D01*
X323576Y207707D01*
X323046Y207353D01*
X322693Y206824D01*
X322569Y206200D01*
X322693Y205576D01*
X323046Y205047D01*
X323576Y204693D01*
X324200Y204569D01*
X324552Y204639D01*
X326933D01*
Y202225D01*
X324996D01*
X324724Y202407D01*
X324100Y202531D01*
X323476Y202407D01*
X322947Y202053D01*
X322593Y201524D01*
X322469Y200900D01*
X322593Y200276D01*
X322947Y199747D01*
X323476Y199393D01*
X324100Y199269D01*
X324724Y199393D01*
X324996Y199574D01*
X326933D01*
Y198076D01*
X328574D01*
Y195334D01*
X328529Y195325D01*
X328198Y195103D01*
X327977Y194772D01*
X327899Y194382D01*
Y189075D01*
X327977Y188684D01*
X328198Y188353D01*
X328529Y188132D01*
X328920Y188054D01*
X329252D01*
X329685Y187085D01*
X329247Y186525D01*
X325107D01*
Y189347D01*
X323566D01*
Y190843D01*
X323810Y191209D01*
X323940Y191860D01*
X323810Y192510D01*
X323442Y193062D01*
X323402Y193102D01*
X322850Y193470D01*
X322200Y193600D01*
X321550Y193470D01*
X320998Y193102D01*
X320630Y192550D01*
X320500Y191900D01*
X320630Y191250D01*
X320915Y190823D01*
Y189347D01*
X319373D01*
Y186172D01*
Y183613D01*
Y181053D01*
X320915D01*
Y175360D01*
X321016Y174853D01*
X321303Y174423D01*
X325763Y169963D01*
X326193Y169675D01*
X326700Y169574D01*
X327899D01*
Y167618D01*
X327977Y167228D01*
X328198Y166897D01*
X328529Y166675D01*
X328920Y166598D01*
X330880D01*
X331271Y166675D01*
X331602Y166897D01*
X331823Y167228D01*
X331901Y167618D01*
X332899D01*
X332977Y167228D01*
X333198Y166897D01*
X333529Y166675D01*
X333575Y166666D01*
Y165325D01*
X329153D01*
X328645Y165225D01*
X328215Y164937D01*
X327262Y163984D01*
X326876Y163907D01*
X326346Y163554D01*
X325993Y163024D01*
X325869Y162400D01*
X325993Y161776D01*
X326346Y161247D01*
X326677Y161026D01*
X326501Y160026D01*
X325786D01*
X325279Y159925D01*
X324849Y159637D01*
X323263Y158052D01*
X322975Y157622D01*
X322874Y157114D01*
Y153940D01*
X321727D01*
Y149978D01*
X326673D01*
Y150634D01*
X327933D01*
Y148791D01*
Y143476D01*
X328161D01*
X328318Y143371D01*
X328904Y142476D01*
X328869Y142300D01*
X328993Y141676D01*
X329346Y141147D01*
X329876Y140793D01*
X330500Y140669D01*
X331124Y140793D01*
X331653Y141147D01*
X332007Y141676D01*
X332131Y142300D01*
X332096Y142476D01*
X332682Y143371D01*
X332839Y143476D01*
X333667D01*
Y148910D01*
X334660Y148927D01*
Y148927D01*
X338622D01*
Y153873D01*
X334660D01*
Y153873D01*
X333667Y153890D01*
Y154524D01*
X327933D01*
Y153285D01*
X326673D01*
Y153940D01*
X325525D01*
Y156565D01*
X326335Y157375D01*
X339360D01*
Y155427D01*
X343322D01*
Y160373D01*
X339360D01*
Y160026D01*
X328499D01*
X328323Y161026D01*
X328654Y161247D01*
X329007Y161776D01*
X329058Y162031D01*
X329702Y162674D01*
X360514D01*
X361021Y162775D01*
X361452Y163063D01*
X362037Y163648D01*
X362325Y164078D01*
X362425Y164586D01*
Y166123D01*
X362471Y166132D01*
X362802Y166353D01*
X363023Y166684D01*
X363101Y167075D01*
X364099D01*
X364177Y166684D01*
X364398Y166353D01*
X364729Y166132D01*
X365120Y166054D01*
X367080D01*
X367471Y166132D01*
X367802Y166353D01*
X368023Y166684D01*
X368101Y167075D01*
X369099D01*
X369177Y166684D01*
X369398Y166353D01*
X369729Y166132D01*
X370120Y166054D01*
X372080D01*
X372471Y166132D01*
X372802Y166353D01*
X373023Y166684D01*
X373101Y167075D01*
Y172382D01*
X373023Y172772D01*
X372802Y173103D01*
X372471Y173325D01*
X372099Y173399D01*
Y178516D01*
X373433D01*
Y176576D01*
X374974D01*
Y166149D01*
X371851Y163025D01*
X364100D01*
X363593Y162925D01*
X363163Y162637D01*
X359751Y159225D01*
X348440D01*
Y160373D01*
X344478D01*
Y155427D01*
X348440D01*
Y156574D01*
X360300D01*
X360807Y156675D01*
X361237Y156963D01*
X364649Y160374D01*
X372400D01*
X372907Y160475D01*
X373337Y160763D01*
X377237Y164663D01*
X377525Y165093D01*
X377625Y165600D01*
Y176576D01*
X379167D01*
Y181891D01*
Y187624D01*
X377699D01*
Y192140D01*
X377731Y192300D01*
X377607Y192924D01*
X377254Y193454D01*
X376724Y193807D01*
X376100Y193931D01*
X375476Y193807D01*
X374946Y193454D01*
X374593Y192924D01*
X374469Y192300D01*
X374539Y191947D01*
Y187624D01*
X373433D01*
Y181166D01*
X372073D01*
Y181822D01*
X367127D01*
Y177860D01*
X369448D01*
Y173137D01*
X369398Y173103D01*
X369177Y172772D01*
X369099Y172382D01*
X368101D01*
X368023Y172772D01*
X367802Y173103D01*
X367471Y173325D01*
X367080Y173402D01*
X365120D01*
X364729Y173325D01*
X364398Y173103D01*
X364177Y172772D01*
X364099Y172382D01*
X363101D01*
X363023Y172772D01*
X362802Y173103D01*
X362471Y173325D01*
X362080Y173402D01*
X360120D01*
X359729Y173325D01*
X359398Y173103D01*
X359177Y172772D01*
X359099Y172382D01*
X358101D01*
X358023Y172772D01*
X357802Y173103D01*
X357471Y173325D01*
X357425Y173334D01*
Y175876D01*
X358967D01*
Y177875D01*
X360104D01*
X360376Y177693D01*
X361000Y177569D01*
X361624Y177693D01*
X362154Y178047D01*
X362507Y178576D01*
X362631Y179200D01*
X362507Y179824D01*
X362154Y180353D01*
X361624Y180707D01*
X361000Y180831D01*
X360376Y180707D01*
X360104Y180526D01*
X358967D01*
Y184689D01*
X363298Y189021D01*
X363641Y189534D01*
X363761Y190138D01*
Y191947D01*
X363831Y192300D01*
X363707Y192924D01*
X363353Y193454D01*
X362824Y193807D01*
X362200Y193931D01*
X361576Y193807D01*
X361047Y193454D01*
X360693Y192924D01*
X360569Y192300D01*
X360600Y192140D01*
Y190793D01*
X356732Y186924D01*
X353233D01*
Y184111D01*
X351886D01*
X351379Y184010D01*
X350949Y183723D01*
X343963Y176737D01*
X343675Y176307D01*
X343575Y175800D01*
Y173877D01*
X343529Y173868D01*
X343198Y173647D01*
X342977Y173316D01*
X342899Y172925D01*
X341901D01*
X341823Y173316D01*
X341602Y173647D01*
X341271Y173868D01*
X341226Y173877D01*
Y180305D01*
X348318Y187398D01*
X348606Y187828D01*
X348707Y188336D01*
Y199019D01*
X348606Y199526D01*
X348318Y199956D01*
X333537Y214737D01*
X333107Y215025D01*
X332600Y215125D01*
D02*
G37*
G36*
X93685Y207267D02*
X91118D01*
Y204700D01*
X93685D01*
Y207267D01*
D02*
G37*
G36*
X75283Y206373D02*
X73602D01*
Y204200D01*
X75283D01*
Y206373D01*
D02*
G37*
G36*
X97252Y207267D02*
X94685D01*
Y204200D01*
Y201133D01*
X97252D01*
Y201333D01*
X99507D01*
Y195036D01*
X98753D01*
Y189302D01*
X99507D01*
Y178698D01*
X98753D01*
Y172964D01*
X102912D01*
Y178698D01*
X102158D01*
Y189302D01*
X102912D01*
Y195036D01*
X102158D01*
Y201333D01*
X102367D01*
Y202574D01*
X106004D01*
X106276Y202393D01*
X106900Y202269D01*
X107524Y202393D01*
X108054Y202747D01*
X108407Y203276D01*
X108531Y203900D01*
X108407Y204524D01*
X108054Y205053D01*
X107524Y205407D01*
X106900Y205531D01*
X106276Y205407D01*
X106004Y205225D01*
X102367D01*
Y207067D01*
X97252D01*
Y207267D01*
D02*
G37*
G36*
X93685Y203700D02*
X91118D01*
Y201133D01*
X93685D01*
Y203700D01*
D02*
G37*
G36*
X75283Y203200D02*
X73602D01*
Y201027D01*
X75283D01*
Y203200D01*
D02*
G37*
G36*
X72602Y206373D02*
X70920D01*
Y206280D01*
X69965Y206173D01*
X69920Y206173D01*
X66002D01*
Y201227D01*
X66171D01*
Y194136D01*
X64931D01*
Y188402D01*
X65685D01*
Y177798D01*
X64931D01*
Y172064D01*
X65630D01*
Y170379D01*
X65393Y170024D01*
X65269Y169400D01*
X65393Y168776D01*
X65746Y168246D01*
X66276Y167893D01*
X66900Y167769D01*
X67524Y167893D01*
X68054Y168246D01*
X68407Y168776D01*
X68531Y169400D01*
X68407Y170024D01*
X68281Y170214D01*
Y172064D01*
X69090D01*
Y177798D01*
X68336D01*
Y188402D01*
X69090D01*
Y194136D01*
X68822D01*
Y201227D01*
X69920D01*
X69965Y201227D01*
X70920Y201120D01*
Y201027D01*
X72602D01*
Y203700D01*
Y206373D01*
D02*
G37*
G36*
X163600Y203324D02*
X161033D01*
Y200758D01*
X163600D01*
Y203324D01*
D02*
G37*
G36*
X174167Y203224D02*
X171600D01*
Y200658D01*
X174167D01*
Y203224D01*
D02*
G37*
G36*
X140200Y207931D02*
X139576Y207807D01*
X139047Y207453D01*
X138693Y206924D01*
X138569Y206300D01*
X138693Y205676D01*
X138874Y205404D01*
Y202440D01*
X137827D01*
Y198478D01*
X142773D01*
Y202440D01*
X141525D01*
Y205404D01*
X141707Y205676D01*
X141831Y206300D01*
X141707Y206924D01*
X141353Y207453D01*
X140824Y207807D01*
X140200Y207931D01*
D02*
G37*
G36*
X148200D02*
X147576Y207807D01*
X147046Y207453D01*
X146693Y206924D01*
X146569Y206300D01*
X146693Y205676D01*
X146874Y205404D01*
Y202340D01*
X145727D01*
Y198378D01*
X150673D01*
Y202340D01*
X149525D01*
Y205404D01*
X149707Y205676D01*
X149831Y206300D01*
X149707Y206924D01*
X149354Y207453D01*
X148824Y207807D01*
X148200Y207931D01*
D02*
G37*
G36*
X80500Y201231D02*
X79876Y201107D01*
X79347Y200753D01*
X78993Y200224D01*
X78929Y199904D01*
X74799Y195773D01*
X74512Y195343D01*
X74411Y194836D01*
Y194136D01*
X73395D01*
Y188402D01*
X74149D01*
Y177798D01*
X73395D01*
Y172064D01*
X77554D01*
Y177798D01*
X76800D01*
Y188402D01*
X77554D01*
Y194136D01*
X77554D01*
X77806Y195032D01*
X80804Y198029D01*
X81124Y198093D01*
X81653Y198447D01*
X82007Y198976D01*
X82131Y199600D01*
X82007Y200224D01*
X81653Y200753D01*
X81124Y201107D01*
X80500Y201231D01*
D02*
G37*
G36*
X184250Y196150D02*
X181850D01*
Y193800D01*
X184250D01*
Y196150D01*
D02*
G37*
G36*
X94647Y195236D02*
X92868D01*
Y192669D01*
X94647D01*
Y195236D01*
D02*
G37*
G36*
X91868D02*
X90088D01*
Y192669D01*
X91868D01*
Y195236D01*
D02*
G37*
G36*
X184250Y192800D02*
X181850D01*
Y190450D01*
X184250D01*
Y192800D01*
D02*
G37*
G36*
X283075Y199525D02*
X278325D01*
Y194950D01*
X279039D01*
Y191253D01*
X278969Y190900D01*
X279093Y190276D01*
X279447Y189746D01*
X279976Y189393D01*
X280600Y189269D01*
X281224Y189393D01*
X281753Y189746D01*
X282107Y190276D01*
X282231Y190900D01*
X282200Y191060D01*
Y194950D01*
X283075D01*
Y199525D01*
D02*
G37*
G36*
X156100Y207931D02*
X155476Y207807D01*
X154946Y207453D01*
X154593Y206924D01*
X154469Y206300D01*
X154593Y205676D01*
X154774Y205404D01*
Y203350D01*
X153350D01*
Y198450D01*
X153350Y197700D01*
X153350Y196950D01*
Y192050D01*
X158650D01*
Y193617D01*
X161233D01*
Y192076D01*
X166967D01*
Y193714D01*
X168233D01*
Y191976D01*
X170376D01*
Y189608D01*
X169451Y189257D01*
X169376Y189271D01*
X169053Y189753D01*
X168524Y190107D01*
X167900Y190231D01*
X167276Y190107D01*
X166746Y189753D01*
X166393Y189224D01*
X166309Y189193D01*
X165307Y189224D01*
X164953Y189753D01*
X164424Y190107D01*
X163800Y190231D01*
X163176Y190107D01*
X162646Y189753D01*
X162396Y189379D01*
X161850Y189294D01*
X161304Y189379D01*
X161054Y189753D01*
X160524Y190107D01*
X159900Y190231D01*
X159276Y190107D01*
X158747Y189753D01*
X158393Y189224D01*
X158269Y188600D01*
X158393Y187976D01*
X158747Y187446D01*
X159067Y187232D01*
X158677Y186290D01*
X158500Y186326D01*
X145906D01*
X145524Y187249D01*
X149137Y190863D01*
X149425Y191293D01*
X149525Y191800D01*
Y193260D01*
X150673D01*
Y197222D01*
X145727D01*
Y193260D01*
X146659D01*
X146785Y192260D01*
X140463Y185937D01*
X139263Y184737D01*
X138975Y184307D01*
X138874Y183800D01*
Y181350D01*
X137550D01*
Y176450D01*
X137550Y175700D01*
X137550Y174950D01*
Y170050D01*
X137550D01*
X137880Y169254D01*
X135063Y166437D01*
X134775Y166007D01*
X134675Y165500D01*
Y159199D01*
X134610Y159134D01*
X133610Y159546D01*
Y169950D01*
X134750D01*
Y174850D01*
X134750Y175600D01*
X134750Y176350D01*
Y181250D01*
X133425D01*
Y183751D01*
X141237Y191563D01*
X141525Y191993D01*
X141625Y192500D01*
Y193360D01*
X142773D01*
Y197322D01*
X137827D01*
Y196596D01*
X136091D01*
X135924Y196707D01*
X135300Y196831D01*
X134676Y196707D01*
X134146Y196353D01*
X133793Y195824D01*
X133669Y195200D01*
X133793Y194576D01*
X134146Y194046D01*
X134676Y193693D01*
X135300Y193569D01*
X135924Y193693D01*
X136302Y193945D01*
X137827D01*
Y193360D01*
X137871D01*
X138285Y192360D01*
X131163Y185237D01*
X130875Y184807D01*
X130774Y184300D01*
Y181250D01*
X129450D01*
Y176350D01*
X129450Y175600D01*
X129450Y174850D01*
Y169950D01*
X130959D01*
Y130033D01*
X124651Y123725D01*
X121796D01*
X121524Y123907D01*
X120900Y124031D01*
X120276Y123907D01*
X119746Y123554D01*
X119393Y123024D01*
X119269Y122400D01*
X119393Y121776D01*
X119746Y121247D01*
X120276Y120893D01*
X120900Y120769D01*
X121524Y120893D01*
X121796Y121074D01*
X125200D01*
X125707Y121175D01*
X126137Y121463D01*
X130035Y125360D01*
X130959Y124978D01*
Y121153D01*
X131060Y120646D01*
X131347Y120216D01*
X132167Y119396D01*
X132597Y119108D01*
X132884Y119051D01*
Y118965D01*
X133196D01*
Y118591D01*
X134747D01*
Y117591D01*
X133196D01*
Y117310D01*
X127310D01*
X127307Y117324D01*
X126953Y117853D01*
X126424Y118207D01*
X125800Y118331D01*
X125176Y118207D01*
X124646Y117853D01*
X124293Y117324D01*
X124169Y116700D01*
X124293Y116076D01*
X124646Y115547D01*
X125176Y115193D01*
X125699Y115089D01*
X125741Y115047D01*
X126171Y114760D01*
X126678Y114659D01*
X134930D01*
X135833Y114424D01*
X135833Y113990D01*
Y109309D01*
X135633D01*
Y106743D01*
X138700D01*
X141767D01*
Y109309D01*
X142574Y109774D01*
X143804D01*
X144076Y109593D01*
X144700Y109469D01*
X145324Y109593D01*
X145853Y109947D01*
X146207Y110476D01*
X146331Y111100D01*
X146207Y111724D01*
X145853Y112253D01*
X145324Y112607D01*
X144700Y112731D01*
X144076Y112607D01*
X143804Y112425D01*
X141567D01*
Y114424D01*
X140010D01*
Y116284D01*
X140153D01*
Y118091D01*
X140653D01*
Y118591D01*
X142204D01*
Y118965D01*
X142516D01*
Y119038D01*
X142868Y119108D01*
X143298Y119396D01*
X148637Y124735D01*
X148925Y125165D01*
X149025Y125672D01*
Y142645D01*
X150025Y142744D01*
X150075Y142493D01*
X150363Y142063D01*
X151637Y140788D01*
X152068Y140501D01*
X152575Y140400D01*
X153828D01*
X153912Y140274D01*
X154307Y140010D01*
X154772Y139918D01*
X157135D01*
X157600Y140010D01*
X157995Y140274D01*
X158259Y140669D01*
X158352Y141135D01*
Y142316D01*
X158259Y142781D01*
X158046Y143300D01*
X158259Y143818D01*
X158352Y144284D01*
Y145465D01*
X158259Y145931D01*
X157995Y146326D01*
Y146573D01*
X158259Y146968D01*
X158352Y147434D01*
Y148615D01*
X158259Y149081D01*
X158046Y149599D01*
X158259Y150118D01*
X158352Y150584D01*
Y151765D01*
X158259Y152230D01*
X158139Y152728D01*
X158448Y153189D01*
X158556Y153733D01*
Y153824D01*
X155954D01*
Y154824D01*
X158556D01*
Y154914D01*
X158448Y155458D01*
X158139Y155919D01*
X158259Y156417D01*
X158352Y156883D01*
Y158064D01*
X158259Y158529D01*
X158046Y159048D01*
X158259Y159566D01*
X158352Y160032D01*
Y161213D01*
X158259Y161679D01*
X157995Y162074D01*
Y162321D01*
X158259Y162716D01*
X158352Y163182D01*
Y164363D01*
X158259Y164829D01*
X157995Y165224D01*
Y165471D01*
X158259Y165866D01*
X158352Y166332D01*
Y167513D01*
X158259Y167978D01*
X158046Y168497D01*
X158259Y169015D01*
X158352Y169481D01*
Y170662D01*
X158259Y171128D01*
X157995Y171523D01*
Y171770D01*
X158259Y172165D01*
X158352Y172631D01*
Y173812D01*
X158259Y174278D01*
X158046Y174796D01*
X158259Y175315D01*
X158352Y175780D01*
Y176961D01*
X158259Y177427D01*
X158255Y177434D01*
X158342Y177761D01*
X158791Y178402D01*
X159694D01*
X160160Y178495D01*
X160678Y178708D01*
X161196Y178495D01*
X161662Y178402D01*
X162843D01*
X163309Y178495D01*
X163704Y178758D01*
X163951D01*
X164346Y178495D01*
X164812Y178402D01*
X165993D01*
X166459Y178495D01*
X166977Y178708D01*
X167496Y178495D01*
X167961Y178402D01*
X169142D01*
X169608Y178495D01*
X170003Y178758D01*
X170250D01*
X170645Y178495D01*
X171111Y178402D01*
X172292D01*
X172758Y178495D01*
X173153Y178758D01*
X173400D01*
X173795Y178495D01*
X174261Y178402D01*
X175442D01*
X175908Y178495D01*
X176426Y178708D01*
X176944Y178495D01*
X177410Y178402D01*
X178591D01*
X179057Y178495D01*
X179452Y178758D01*
X179699D01*
X180094Y178495D01*
X180560Y178402D01*
X181741D01*
X182207Y178495D01*
X182601Y178758D01*
X182849D01*
X183244Y178495D01*
X183709Y178402D01*
X184891D01*
X185356Y178495D01*
X185854Y178614D01*
X186315Y178306D01*
X186859Y178198D01*
X186950D01*
Y180800D01*
Y183402D01*
X186859D01*
X186315Y183294D01*
X185854Y182986D01*
X185356Y183106D01*
X184891Y183198D01*
X183709D01*
X183244Y183106D01*
X182849Y182842D01*
X182601D01*
X182207Y183106D01*
X181741Y183198D01*
X180560D01*
X180094Y183106D01*
X179699Y182842D01*
X179452D01*
X179057Y183106D01*
X178591Y183198D01*
X177410D01*
X176944Y183106D01*
X176426Y182893D01*
X175908Y183106D01*
X175442Y183198D01*
X174261D01*
X174027Y183152D01*
X173291Y183558D01*
X173027Y183795D01*
Y191976D01*
X173967D01*
Y197091D01*
X174167D01*
Y199657D01*
X171100D01*
Y200157D01*
X170600D01*
Y203224D01*
X168033D01*
Y203224D01*
X167167Y203324D01*
Y203324D01*
X167075Y203324D01*
X164600D01*
Y200257D01*
X164100D01*
Y199758D01*
X161033D01*
Y197191D01*
X161033D01*
X160846Y196268D01*
X159357D01*
X158650Y196975D01*
X158650Y197700D01*
X158650Y198450D01*
Y203350D01*
X157425D01*
Y205404D01*
X157607Y205676D01*
X157731Y206300D01*
X157607Y206924D01*
X157254Y207453D01*
X156724Y207807D01*
X156100Y207931D01*
D02*
G37*
G36*
X94647Y191669D02*
X92868D01*
Y189102D01*
X94647D01*
Y191669D01*
D02*
G37*
G36*
X91868D02*
X90088D01*
Y189102D01*
X91868D01*
Y191669D01*
D02*
G37*
G36*
X7000Y192485D02*
X6020Y192356D01*
X5107Y191978D01*
X4324Y191376D01*
X3722Y190593D01*
X3344Y189680D01*
X3215Y188700D01*
X3344Y187720D01*
X3722Y186807D01*
X4324Y186023D01*
X5107Y185422D01*
X6020Y185044D01*
X7000Y184915D01*
X7980Y185044D01*
X8893Y185422D01*
X9676Y186023D01*
X10278Y186807D01*
X10656Y187720D01*
X10785Y188700D01*
X10656Y189680D01*
X10278Y190593D01*
X9676Y191376D01*
X8893Y191978D01*
X7980Y192356D01*
X7000Y192485D01*
D02*
G37*
G36*
X369000Y193931D02*
X368376Y193807D01*
X367846Y193454D01*
X367493Y192924D01*
X367369Y192300D01*
X367439Y191947D01*
Y186940D01*
X367127D01*
Y182978D01*
X372073D01*
Y186940D01*
X370600D01*
Y192140D01*
X370631Y192300D01*
X370507Y192924D01*
X370153Y193454D01*
X369624Y193807D01*
X369000Y193931D01*
D02*
G37*
G36*
X194339Y183402D02*
X194249D01*
Y181300D01*
X195760D01*
Y181981D01*
X195652Y182525D01*
X195344Y182986D01*
X194883Y183294D01*
X194339Y183402D01*
D02*
G37*
G36*
X317627Y184228D02*
X311893D01*
Y181053D01*
X313147D01*
Y178324D01*
X311533D01*
Y176725D01*
X309296D01*
X309024Y176907D01*
X308400Y177031D01*
X307776Y176907D01*
X307246Y176553D01*
X306893Y176024D01*
X306769Y175400D01*
X306893Y174776D01*
X307246Y174247D01*
X307776Y173893D01*
X308400Y173769D01*
X309024Y173893D01*
X309296Y174074D01*
X311533D01*
Y171425D01*
X309296D01*
X309024Y171607D01*
X308400Y171731D01*
X307776Y171607D01*
X307246Y171254D01*
X306893Y170724D01*
X306769Y170100D01*
X306893Y169476D01*
X307246Y168947D01*
X307776Y168593D01*
X308400Y168469D01*
X309024Y168593D01*
X309296Y168774D01*
X311533D01*
Y167276D01*
X317267D01*
Y172591D01*
Y178324D01*
X315798D01*
Y181053D01*
X317627D01*
Y184228D01*
D02*
G37*
G36*
X195760Y180300D02*
X194249D01*
Y177959D01*
X194601Y177781D01*
X194802Y177336D01*
X194593Y176935D01*
X194500Y176469D01*
X194500Y176469D01*
X194500Y176461D01*
Y175288D01*
X194593Y174822D01*
X194857Y174428D01*
Y174180D01*
X194593Y173785D01*
X194500Y173320D01*
Y172139D01*
X194593Y171673D01*
X194857Y171278D01*
Y171031D01*
X194593Y170636D01*
X194500Y170170D01*
Y168989D01*
X194593Y168523D01*
X194857Y168128D01*
Y167881D01*
X194593Y167486D01*
X194500Y167020D01*
Y165839D01*
X194593Y165374D01*
X194857Y164979D01*
Y164732D01*
X194593Y164337D01*
X194500Y163871D01*
Y162690D01*
X194593Y162224D01*
X194857Y161829D01*
Y161582D01*
X194593Y161187D01*
X194500Y160721D01*
Y159540D01*
X194593Y159074D01*
X194857Y158680D01*
Y158432D01*
X194593Y158037D01*
X194500Y157572D01*
Y156391D01*
X194593Y155925D01*
X194857Y155530D01*
Y155283D01*
X194593Y154888D01*
X194500Y154422D01*
Y153241D01*
X194593Y152775D01*
X194857Y152380D01*
Y152133D01*
X194593Y151738D01*
X194500Y151272D01*
Y150091D01*
X194593Y149626D01*
X194857Y149231D01*
Y148983D01*
X194593Y148589D01*
X194500Y148123D01*
Y146942D01*
X194593Y146476D01*
X194857Y146081D01*
Y145834D01*
X194593Y145439D01*
X194500Y144973D01*
Y143792D01*
X194593Y143326D01*
X194857Y142931D01*
Y142684D01*
X194593Y142289D01*
X194500Y141824D01*
Y140642D01*
X194593Y140177D01*
X194857Y139782D01*
X195252Y139518D01*
X195717Y139425D01*
X198080D01*
X198545Y139518D01*
X198940Y139782D01*
X199204Y140177D01*
X199297Y140642D01*
Y141824D01*
X199204Y142289D01*
X198940Y142684D01*
Y142931D01*
X199204Y143326D01*
X199297Y143792D01*
Y144973D01*
X199204Y145439D01*
X198940Y145834D01*
Y146081D01*
X199204Y146476D01*
X199297Y146942D01*
Y148123D01*
X199204Y148589D01*
X198940Y148983D01*
Y149231D01*
X199204Y149626D01*
X199297Y150091D01*
Y151272D01*
X199250Y151506D01*
X199656Y152242D01*
X199894Y152506D01*
X201270D01*
X203900Y149875D01*
Y145650D01*
X211774D01*
Y143440D01*
X210227D01*
Y139478D01*
X214305D01*
X214639Y138900D01*
X214305Y138322D01*
X210227D01*
Y134360D01*
X211175D01*
Y133296D01*
X210993Y133024D01*
X210869Y132400D01*
X210993Y131776D01*
X211347Y131246D01*
X211876Y130893D01*
X212500Y130769D01*
X213124Y130893D01*
X213653Y131246D01*
X214007Y131776D01*
X214131Y132400D01*
X214007Y133024D01*
X213825Y133296D01*
Y133653D01*
X214273Y134100D01*
X215379Y133989D01*
X215624Y133547D01*
Y104203D01*
X181932D01*
X181425Y104102D01*
X180995Y103815D01*
X156105Y78926D01*
X10513D01*
X10278Y79493D01*
X9676Y80277D01*
X8893Y80878D01*
X7980Y81256D01*
X7000Y81385D01*
X6020Y81256D01*
X5107Y80878D01*
X4324Y80277D01*
X3722Y79493D01*
X3344Y78580D01*
X3215Y77600D01*
X3344Y76620D01*
X3722Y75707D01*
X4324Y74923D01*
X5107Y74322D01*
X6020Y73944D01*
X7000Y73815D01*
X7980Y73944D01*
X8893Y74322D01*
X9676Y74923D01*
X10278Y75707D01*
X10513Y76275D01*
X12494D01*
X12876Y75351D01*
X8878Y71353D01*
X3247D01*
Y63847D01*
X10753D01*
Y69478D01*
X15749Y74475D01*
X157400D01*
X157907Y74575D01*
X158337Y74863D01*
X182927Y99452D01*
X212131D01*
X212403Y99271D01*
X213027Y99146D01*
X213651Y99271D01*
X213974Y99487D01*
X214706Y99240D01*
X214974Y99044D01*
Y85649D01*
X203610Y74284D01*
X203323Y73855D01*
X203222Y73347D01*
Y54343D01*
X203323Y53835D01*
X203610Y53405D01*
X204753Y52263D01*
X205047Y52066D01*
Y50144D01*
Y46207D01*
Y42889D01*
X204847D01*
Y41011D01*
X212753D01*
Y42889D01*
X212553D01*
Y46207D01*
Y50144D01*
Y54081D01*
Y58437D01*
X210071D01*
X207673Y60836D01*
Y71998D01*
X219437Y83763D01*
X219725Y84193D01*
X219826Y84700D01*
Y99604D01*
X220007Y99876D01*
X220131Y100500D01*
X220075Y100781D01*
Y157050D01*
X219975Y157557D01*
X219687Y157987D01*
X217429Y160245D01*
X217499Y160812D01*
X218551Y161174D01*
X222929Y156797D01*
X222993Y156476D01*
X223346Y155947D01*
X223876Y155593D01*
X224197Y155529D01*
X268751Y110974D01*
X269181Y110687D01*
X269688Y110586D01*
X278741D01*
X285431Y103896D01*
X285157Y102756D01*
X284670Y102430D01*
X284139Y101636D01*
X283953Y100700D01*
X284139Y99764D01*
X284670Y98970D01*
X284468Y98192D01*
X284257Y97967D01*
X281842D01*
Y94900D01*
Y91833D01*
X284409D01*
Y92033D01*
X285474D01*
Y90261D01*
X284622D01*
Y86849D01*
X281640D01*
Y88373D01*
X277678D01*
Y83816D01*
X277678Y83427D01*
X278072Y82590D01*
X278072Y82427D01*
Y78935D01*
X280253D01*
Y78435D01*
D01*
Y78935D01*
X282434D01*
X282434Y82979D01*
X282084Y83198D01*
X282372Y84198D01*
X284622D01*
Y83739D01*
X288978D01*
Y86692D01*
Y90261D01*
X288125D01*
Y92033D01*
X289524D01*
Y93534D01*
X292216D01*
Y92879D01*
X298541D01*
Y93898D01*
X299465Y94281D01*
X300234Y93512D01*
Y93140D01*
X300335Y92633D01*
X300622Y92203D01*
X305339Y87486D01*
X305768Y87199D01*
X306276Y87098D01*
X309122D01*
Y86639D01*
X313478D01*
Y89592D01*
Y93161D01*
X312626D01*
Y95251D01*
X313507Y96132D01*
X314846D01*
X315033Y95209D01*
X315033D01*
Y92642D01*
X321167D01*
Y95209D01*
X320967D01*
Y98450D01*
X322480Y99963D01*
X322767Y100393D01*
X322868Y100900D01*
Y117781D01*
X322767Y118288D01*
X322480Y118718D01*
X322431Y118751D01*
X322734Y119751D01*
X333196D01*
X333330Y119778D01*
X333575Y119479D01*
X334458Y118754D01*
X335466Y118216D01*
X336559Y117884D01*
X337696Y117772D01*
X338833Y117884D01*
X339926Y118216D01*
X340934Y118754D01*
X341817Y119479D01*
X342542Y120362D01*
X343080Y121370D01*
X343412Y122463D01*
X343475Y123097D01*
X344475Y123047D01*
Y91668D01*
X342807D01*
Y86132D01*
X347950D01*
Y91668D01*
X347126D01*
Y116286D01*
X347860Y116927D01*
X351822D01*
Y121873D01*
X351266D01*
Y137227D01*
X352022D01*
Y139544D01*
X352178Y139649D01*
X353178Y139114D01*
Y137227D01*
X353581D01*
X354425Y136850D01*
Y132275D01*
X359175D01*
Y132275D01*
X360126Y132157D01*
Y130843D01*
X359175Y130725D01*
X359126Y130725D01*
X354425D01*
Y126150D01*
X355375D01*
Y125096D01*
X355193Y124824D01*
X355069Y124200D01*
X355193Y123576D01*
X355546Y123047D01*
X355806Y122873D01*
X355502Y121873D01*
X352978D01*
Y116927D01*
X355778D01*
X356967Y115738D01*
Y93243D01*
X352650D01*
Y89084D01*
X352650Y89084D01*
Y88716D01*
X352650D01*
X352650Y88084D01*
Y84557D01*
X357793D01*
Y86059D01*
X359230Y87497D01*
X359518Y87927D01*
X359618Y88434D01*
Y116287D01*
X359518Y116794D01*
X359230Y117224D01*
X356940Y119514D01*
Y121597D01*
X356940Y121838D01*
X357155Y122317D01*
X357344Y122706D01*
X357854Y123047D01*
X358207Y123576D01*
X358331Y124200D01*
X358207Y124824D01*
X358026Y125096D01*
Y126150D01*
X359126D01*
X359171Y126150D01*
X360126Y126041D01*
X360129Y126041D01*
X361474D01*
Y124996D01*
X361293Y124724D01*
X361169Y124100D01*
X361293Y123476D01*
X361647Y122947D01*
X362176Y122593D01*
X362800Y122469D01*
X363424Y122593D01*
X363953Y122947D01*
X364307Y123476D01*
X364431Y124100D01*
X364307Y124724D01*
X364125Y124996D01*
Y126041D01*
X365860D01*
Y126612D01*
X366227Y127460D01*
X366860Y127460D01*
X371173D01*
Y128416D01*
X373000D01*
Y125000D01*
X382600D01*
Y134600D01*
X373000D01*
Y131066D01*
X371173D01*
Y131422D01*
X367137D01*
X366803Y132000D01*
X367137Y132578D01*
X371173D01*
Y136540D01*
X366227D01*
X365860Y137090D01*
Y137090D01*
X363541D01*
X363158Y138014D01*
X367037Y141893D01*
X367325Y142323D01*
X367425Y142830D01*
Y144666D01*
X367471Y144675D01*
X367802Y144897D01*
X368023Y145228D01*
X368101Y145618D01*
X369099D01*
X369177Y145228D01*
X369398Y144897D01*
X369729Y144675D01*
X370120Y144598D01*
X372080D01*
X372471Y144675D01*
X372802Y144897D01*
X373023Y145228D01*
X373101Y145618D01*
Y150925D01*
X373023Y151316D01*
X372802Y151647D01*
X372526Y151831D01*
Y154354D01*
X372807Y154776D01*
X372931Y155400D01*
X372807Y156024D01*
X372453Y156553D01*
X371924Y156907D01*
X371300Y157031D01*
X370676Y156907D01*
X370146Y156553D01*
X369793Y156024D01*
X369669Y155400D01*
X369793Y154776D01*
X369875Y154653D01*
Y151897D01*
X369729Y151868D01*
X369398Y151647D01*
X369177Y151316D01*
X369099Y150925D01*
X368101D01*
X368023Y151316D01*
X367802Y151647D01*
X367471Y151868D01*
X367080Y151946D01*
X365120D01*
X364729Y151868D01*
X364398Y151647D01*
X364177Y151316D01*
X364099Y150925D01*
X363101D01*
X363023Y151316D01*
X362802Y151647D01*
X362471Y151868D01*
X362080Y151946D01*
X360120D01*
X359729Y151868D01*
X359398Y151647D01*
X359177Y151316D01*
X359099Y150925D01*
X358101D01*
X358023Y151316D01*
X357802Y151647D01*
X357471Y151868D01*
X357080Y151946D01*
X355120D01*
X354729Y151868D01*
X354398Y151647D01*
X354177Y151316D01*
X354099Y150925D01*
Y149349D01*
X350778D01*
Y152761D01*
X346422D01*
Y152761D01*
X345558Y153090D01*
X345207Y153325D01*
X344700Y153426D01*
X343740D01*
Y153873D01*
X339778D01*
Y148927D01*
X340434D01*
Y146641D01*
X340534Y146134D01*
X340822Y145704D01*
X344475Y142051D01*
Y134153D01*
X343475Y134104D01*
X343412Y134737D01*
X343080Y135830D01*
X342542Y136838D01*
X341817Y137721D01*
X340934Y138446D01*
X339926Y138984D01*
X338833Y139316D01*
X337696Y139428D01*
X336559Y139316D01*
X335466Y138984D01*
X334458Y138446D01*
X333575Y137721D01*
X332850Y136838D01*
X332312Y135830D01*
X331980Y134737D01*
X331868Y133600D01*
Y123600D01*
X331888Y123402D01*
X330981Y122402D01*
X319078D01*
Y122861D01*
X314722D01*
Y119106D01*
X313575D01*
Y120225D01*
X308825D01*
Y115650D01*
X313575D01*
Y116455D01*
X314722D01*
Y116339D01*
X319078D01*
Y116455D01*
X320217D01*
Y101449D01*
X319092Y100324D01*
X315233D01*
Y98783D01*
X313892D01*
X309397Y103277D01*
X308967Y103565D01*
X308460Y103666D01*
X308383D01*
Y104321D01*
X302059D01*
Y100781D01*
X301859D01*
Y99100D01*
X305221D01*
Y98100D01*
X301859D01*
Y97050D01*
X300859Y96636D01*
X298258Y99237D01*
X298075Y99359D01*
X298368Y100359D01*
X298541D01*
Y104321D01*
X292216D01*
Y102166D01*
X291293Y101783D01*
X280227Y112849D01*
X279797Y113136D01*
X279290Y113237D01*
X270237D01*
X239400Y144074D01*
X239814Y145074D01*
X297001D01*
X309025Y133051D01*
Y130350D01*
X309875D01*
Y126350D01*
X308825D01*
Y121775D01*
X313575D01*
Y126350D01*
X312526D01*
Y130350D01*
X313775D01*
Y134925D01*
X311355D01*
X311092Y135275D01*
X311591Y136275D01*
X313975D01*
Y138262D01*
X311400D01*
X308719D01*
X307901Y137924D01*
X298488Y147337D01*
X298058Y147625D01*
X297550Y147725D01*
X238949D01*
X219187Y167487D01*
X218757Y167775D01*
X218250Y167876D01*
X208651D01*
X207927Y168876D01*
X207931Y168900D01*
X207807Y169524D01*
X207453Y170054D01*
X206924Y170407D01*
X206401Y170511D01*
X206269Y170643D01*
X206289Y171668D01*
X206371Y171871D01*
X206401Y171901D01*
X206924Y172005D01*
X207453Y172359D01*
X207807Y172888D01*
X207931Y173512D01*
X207807Y174136D01*
X207453Y174666D01*
X206924Y175019D01*
X206300Y175144D01*
X205676Y175019D01*
X205105Y175841D01*
X205847Y176583D01*
X206300Y176493D01*
X206924Y176617D01*
X207453Y176971D01*
X207807Y177500D01*
X207931Y178124D01*
X207807Y178749D01*
X207453Y179278D01*
X206924Y179631D01*
X206300Y179756D01*
X205676Y179631D01*
X205357Y179419D01*
X205007Y179349D01*
X204577Y179061D01*
X202720Y177204D01*
X199024D01*
X198940Y177330D01*
X198545Y177594D01*
X198080Y177686D01*
X196564D01*
X195643Y177874D01*
X195539Y178414D01*
X195667Y179148D01*
X195760Y179619D01*
Y180300D01*
D02*
G37*
G36*
X94647Y178898D02*
X92868D01*
Y176331D01*
X94647D01*
Y178898D01*
D02*
G37*
G36*
X91868D02*
X90088D01*
Y176331D01*
X91868D01*
Y178898D01*
D02*
G37*
G36*
X7000Y182485D02*
X6020Y182356D01*
X5107Y181978D01*
X4324Y181377D01*
X3722Y180593D01*
X3344Y179680D01*
X3215Y178700D01*
X3344Y177720D01*
X3722Y176807D01*
X4324Y176023D01*
X5107Y175422D01*
X6020Y175044D01*
X7000Y174915D01*
X7980Y175044D01*
X8893Y175422D01*
X9676Y176023D01*
X10278Y176807D01*
X10656Y177720D01*
X10785Y178700D01*
X10656Y179680D01*
X10278Y180593D01*
X9676Y181377D01*
X8893Y181978D01*
X7980Y182356D01*
X7000Y182485D01*
D02*
G37*
G36*
X94647Y175331D02*
X92868D01*
Y172764D01*
X94647D01*
Y175331D01*
D02*
G37*
G36*
X91868D02*
X90088D01*
Y172764D01*
X91868D01*
Y175331D01*
D02*
G37*
G36*
X188926Y172377D02*
X186768D01*
Y168898D01*
X190247D01*
Y171056D01*
X190146Y171561D01*
X189860Y171990D01*
X189431Y172276D01*
X188926Y172377D01*
D02*
G37*
G36*
X179083D02*
X176926D01*
Y168898D01*
X180404D01*
Y171056D01*
X180304Y171561D01*
X180017Y171990D01*
X179589Y172276D01*
X179083Y172377D01*
D02*
G37*
G36*
X169241D02*
X167084D01*
Y168898D01*
X170562D01*
Y171056D01*
X170461Y171561D01*
X170175Y171990D01*
X169746Y172276D01*
X169241Y172377D01*
D02*
G37*
G36*
X185768D02*
X183611D01*
X183106Y172276D01*
X182677Y171990D01*
X182391Y171561D01*
X182290Y171056D01*
Y168898D01*
X185768D01*
Y172377D01*
D02*
G37*
G36*
X175926D02*
X173768D01*
X173263Y172276D01*
X172835Y171990D01*
X172548Y171561D01*
X172448Y171056D01*
Y168898D01*
X175926D01*
Y172377D01*
D02*
G37*
G36*
X166084D02*
X163926D01*
X163421Y172276D01*
X162992Y171990D01*
X162706Y171561D01*
X162605Y171056D01*
Y168898D01*
X166084D01*
Y172377D01*
D02*
G37*
G36*
X7000Y172485D02*
X6020Y172356D01*
X5107Y171978D01*
X4324Y171377D01*
X3722Y170593D01*
X3344Y169680D01*
X3215Y168700D01*
X3344Y167720D01*
X3722Y166807D01*
X4324Y166024D01*
X5107Y165422D01*
X6020Y165044D01*
X7000Y164915D01*
X7980Y165044D01*
X8893Y165422D01*
X9676Y166024D01*
X10278Y166807D01*
X10656Y167720D01*
X10785Y168700D01*
X10656Y169680D01*
X10278Y170593D01*
X9676Y171377D01*
X8893Y171978D01*
X7980Y172356D01*
X7000Y172485D01*
D02*
G37*
G36*
X190247Y167898D02*
X186768D01*
Y164420D01*
X188926D01*
X189431Y164521D01*
X189860Y164807D01*
X190146Y165236D01*
X190247Y165741D01*
Y167898D01*
D02*
G37*
G36*
X185768D02*
X182290D01*
Y165741D01*
X182391Y165236D01*
X182677Y164807D01*
X183106Y164521D01*
X183611Y164420D01*
X185768D01*
Y167898D01*
D02*
G37*
G36*
X180404D02*
X176926D01*
Y164420D01*
X179083D01*
X179589Y164521D01*
X180017Y164807D01*
X180304Y165236D01*
X180404Y165741D01*
Y167898D01*
D02*
G37*
G36*
X175926D02*
X172448D01*
Y165741D01*
X172548Y165236D01*
X172835Y164807D01*
X173263Y164521D01*
X173768Y164420D01*
X175926D01*
Y167898D01*
D02*
G37*
G36*
X170562D02*
X167084D01*
Y164420D01*
X169241D01*
X169746Y164521D01*
X170175Y164807D01*
X170461Y165236D01*
X170562Y165741D01*
Y167898D01*
D02*
G37*
G36*
X166084D02*
X162605D01*
Y165741D01*
X162706Y165236D01*
X162992Y164807D01*
X163421Y164521D01*
X163926Y164420D01*
X166084D01*
Y167898D01*
D02*
G37*
G36*
X305367Y166724D02*
X299633D01*
Y160991D01*
Y159763D01*
X298175D01*
Y160725D01*
X293425D01*
Y156150D01*
X298175D01*
Y157112D01*
X299633D01*
Y155676D01*
X301075D01*
Y152796D01*
X300893Y152524D01*
X300769Y151900D01*
X300893Y151276D01*
X301247Y150747D01*
X301776Y150393D01*
X302400Y150269D01*
X303024Y150393D01*
X303554Y150747D01*
X303907Y151276D01*
X304031Y151900D01*
X303907Y152524D01*
X303726Y152796D01*
Y155676D01*
X305367D01*
Y160991D01*
Y162277D01*
X306688D01*
X308014Y160951D01*
X308527Y160609D01*
X309131Y160488D01*
X314044D01*
X314300Y160437D01*
X314924Y160562D01*
X315454Y160915D01*
X315807Y161444D01*
X315931Y162069D01*
X315807Y162693D01*
X315454Y163222D01*
X314924Y163576D01*
X314300Y163700D01*
X314044Y163649D01*
X309786D01*
X308460Y164975D01*
X307947Y165318D01*
X307343Y165438D01*
X305367D01*
Y166724D01*
D02*
G37*
G36*
X169241Y162534D02*
X167084D01*
Y159056D01*
X170562D01*
Y161213D01*
X170461Y161719D01*
X170175Y162147D01*
X169746Y162434D01*
X169241Y162534D01*
D02*
G37*
G36*
X188926D02*
X186768D01*
Y159056D01*
X190247D01*
Y161213D01*
X190146Y161719D01*
X189860Y162147D01*
X189431Y162434D01*
X188926Y162534D01*
D02*
G37*
G36*
X179083D02*
X176926D01*
Y159056D01*
X180404D01*
Y161213D01*
X180304Y161719D01*
X180017Y162147D01*
X179589Y162434D01*
X179083Y162534D01*
D02*
G37*
G36*
X185768D02*
X183611D01*
X183106Y162434D01*
X182677Y162147D01*
X182391Y161719D01*
X182290Y161213D01*
Y159056D01*
X185768D01*
Y162534D01*
D02*
G37*
G36*
X166084D02*
X163926D01*
X163421Y162434D01*
X162992Y162147D01*
X162706Y161719D01*
X162605Y161213D01*
Y159056D01*
X166084D01*
Y162534D01*
D02*
G37*
G36*
X175926D02*
X173768D01*
X173263Y162434D01*
X172835Y162147D01*
X172548Y161719D01*
X172448Y161213D01*
Y159056D01*
X175926D01*
Y162534D01*
D02*
G37*
G36*
X190247Y158056D02*
X186768D01*
Y154578D01*
X188926D01*
X189431Y154678D01*
X189860Y154965D01*
X190146Y155393D01*
X190247Y155898D01*
Y158056D01*
D02*
G37*
G36*
X185768D02*
X182290D01*
Y155898D01*
X182391Y155393D01*
X182677Y154965D01*
X183106Y154678D01*
X183611Y154578D01*
X185768D01*
Y158056D01*
D02*
G37*
G36*
X180404D02*
X176926D01*
Y154578D01*
X179083D01*
X179589Y154678D01*
X180017Y154965D01*
X180304Y155393D01*
X180404Y155898D01*
Y158056D01*
D02*
G37*
G36*
X175926D02*
X172448D01*
Y155898D01*
X172548Y155393D01*
X172835Y154965D01*
X173263Y154678D01*
X173768Y154578D01*
X175926D01*
Y158056D01*
D02*
G37*
G36*
X170562D02*
X167084D01*
Y154578D01*
X169241D01*
X169746Y154678D01*
X170175Y154965D01*
X170461Y155393D01*
X170562Y155898D01*
Y158056D01*
D02*
G37*
G36*
X166084D02*
X162605D01*
Y155898D01*
X162706Y155393D01*
X162992Y154965D01*
X163421Y154678D01*
X163926Y154578D01*
X166084D01*
Y158056D01*
D02*
G37*
G36*
X78983Y154521D02*
X72659D01*
Y153880D01*
X69141D01*
Y154521D01*
X62817D01*
Y152584D01*
X62560Y152533D01*
X62125Y152242D01*
X61355Y151473D01*
X61075Y151054D01*
X59434D01*
X59326Y151161D01*
X58891Y151452D01*
X58378Y151554D01*
X53582D01*
X53447Y151644D01*
X53252Y151683D01*
Y152169D01*
X50414D01*
X49782Y152169D01*
X48782Y152169D01*
X45944D01*
Y151646D01*
X45800Y151617D01*
X45663Y151525D01*
X44498D01*
X43991Y151425D01*
X43561Y151137D01*
X38979Y146555D01*
X38691Y146125D01*
X38590Y145618D01*
Y132095D01*
X35730Y129235D01*
X34754Y129353D01*
X34224Y129707D01*
X33600Y129831D01*
X32976Y129707D01*
X32447Y129353D01*
X32093Y128824D01*
X31969Y128200D01*
X32093Y127576D01*
X32447Y127047D01*
Y126753D01*
X32093Y126224D01*
X31969Y125600D01*
X32093Y124976D01*
X32447Y124446D01*
X32976Y124093D01*
X33600Y123969D01*
X34224Y124093D01*
X34754Y124446D01*
X34769Y124469D01*
X34875Y124490D01*
X35151Y124674D01*
X36915D01*
X37423Y124775D01*
X37853Y125063D01*
X42653Y129863D01*
X42675Y129896D01*
X43675Y129592D01*
Y129100D01*
X49204D01*
Y139580D01*
X48528Y139513D01*
X47397Y139170D01*
X46354Y138613D01*
X45441Y137863D01*
X44691Y136950D01*
X44134Y135907D01*
X44041Y135603D01*
X43041Y135751D01*
Y144323D01*
X45004Y146286D01*
X45944Y146431D01*
Y146431D01*
X48782D01*
X49414Y146431D01*
X50414Y146431D01*
X53252D01*
Y146917D01*
X53447Y146956D01*
X53582Y147046D01*
X57066D01*
X57174Y146939D01*
X57609Y146648D01*
X58121Y146546D01*
X61075D01*
X61355Y146127D01*
X62125Y145358D01*
X62560Y145067D01*
X62817Y145016D01*
Y143079D01*
X69141D01*
Y143720D01*
X72659D01*
Y143079D01*
X78983D01*
Y145016D01*
X79240Y145067D01*
X79675Y145358D01*
X79923Y145605D01*
X81260Y145682D01*
X82060Y144882D01*
Y112443D01*
X82162Y111930D01*
X82453Y111495D01*
X100224Y93725D01*
X100658Y93434D01*
X101171Y93332D01*
X145857D01*
X146370Y93434D01*
X146804Y93725D01*
X159133Y106053D01*
X159424Y106488D01*
X159526Y107001D01*
Y124603D01*
X160300Y125469D01*
X160825Y125573D01*
X161286Y125221D01*
X161633Y124864D01*
Y122543D01*
X164700D01*
Y122043D01*
X165200D01*
Y118976D01*
X169750D01*
Y122043D01*
X170750D01*
Y118976D01*
X175300D01*
Y122043D01*
X176300D01*
Y118976D01*
X181300D01*
Y122043D01*
X182300D01*
Y118976D01*
X184574D01*
Y115996D01*
X184393Y115724D01*
X184269Y115100D01*
X184393Y114476D01*
X184747Y113946D01*
X185276Y113593D01*
X185900Y113469D01*
X186524Y113593D01*
X187054Y113946D01*
X187407Y114476D01*
X187531Y115100D01*
X187407Y115724D01*
X187225Y115996D01*
Y118676D01*
X189300D01*
Y121742D01*
X190300D01*
Y118676D01*
X195000D01*
Y121742D01*
X196000D01*
Y118676D01*
X200600D01*
Y121742D01*
X201100D01*
Y122242D01*
X204167D01*
Y124809D01*
X204167D01*
X204309Y125510D01*
X205276Y125793D01*
X205900Y125669D01*
X206524Y125793D01*
X207053Y126146D01*
X207407Y126676D01*
X207531Y127300D01*
X207407Y127924D01*
X207053Y128454D01*
X206524Y128807D01*
X205900Y128931D01*
X205276Y128807D01*
X204967Y128601D01*
X204593Y128705D01*
X203967Y129307D01*
Y129924D01*
X190801D01*
X190725Y130307D01*
X190437Y130737D01*
X189137Y132037D01*
X188707Y132325D01*
X188200Y132425D01*
X179878D01*
X179303Y132980D01*
X179354Y133964D01*
X179596Y134126D01*
X180094Y134006D01*
X180560Y133914D01*
X181741D01*
X182207Y134006D01*
X182601Y134270D01*
X182849D01*
X183244Y134006D01*
X183709Y133914D01*
X184891D01*
X185356Y134006D01*
X185751Y134270D01*
X185998D01*
X186393Y134006D01*
X186859Y133914D01*
X188040D01*
X188506Y134006D01*
X188901Y134270D01*
X189148D01*
X189543Y134006D01*
X190009Y133914D01*
X191190D01*
X191656Y134006D01*
X192050Y134270D01*
X192298D01*
X192692Y134006D01*
X193158Y133914D01*
X194339D01*
X194805Y134006D01*
X195200Y134270D01*
X195464Y134665D01*
X195556Y135131D01*
Y137493D01*
X195464Y137959D01*
X195200Y138354D01*
X194805Y138617D01*
X194339Y138710D01*
X193158D01*
X192692Y138617D01*
X192298Y138354D01*
X192050D01*
X191656Y138617D01*
X191190Y138710D01*
X190009D01*
X189543Y138617D01*
X189148Y138354D01*
X188901D01*
X188506Y138617D01*
X188040Y138710D01*
X186859D01*
X186393Y138617D01*
X185998Y138354D01*
X185751D01*
X185356Y138617D01*
X184891Y138710D01*
X183709D01*
X183244Y138617D01*
X182849Y138354D01*
X182601D01*
X182207Y138617D01*
X181741Y138710D01*
X180560D01*
X180094Y138617D01*
X179596Y138498D01*
X179135Y138806D01*
X178591Y138914D01*
X178501D01*
Y136312D01*
X177501D01*
Y138914D01*
X177410D01*
X176866Y138806D01*
X176405Y138498D01*
X175908Y138617D01*
X175442Y138710D01*
X174261D01*
X173795Y138617D01*
X173400Y138354D01*
X173153D01*
X172758Y138617D01*
X172292Y138710D01*
X171111D01*
X170645Y138617D01*
X170250Y138354D01*
X170003D01*
X169608Y138617D01*
X169142Y138710D01*
X167961D01*
X167496Y138617D01*
X166998Y138498D01*
X166537Y138806D01*
X165993Y138914D01*
X165902D01*
Y136312D01*
X164902D01*
Y138914D01*
X164812D01*
X164268Y138806D01*
X163807Y138498D01*
X163309Y138617D01*
X162843Y138710D01*
X161662D01*
X161196Y138617D01*
X160802Y138354D01*
X160554D01*
X160160Y138617D01*
X159694Y138710D01*
X158513D01*
X158047Y138617D01*
X157652Y138354D01*
X157388Y137959D01*
X157296Y137493D01*
Y135131D01*
X157388Y134665D01*
X157652Y134270D01*
X158047Y134006D01*
X158352Y133946D01*
X158424Y133837D01*
Y132694D01*
X155411Y129680D01*
X155120Y129245D01*
X155018Y128733D01*
Y108313D01*
X144545Y97840D01*
X102483D01*
X86568Y113755D01*
Y146194D01*
X86466Y146707D01*
X86175Y147142D01*
X82656Y150661D01*
X82221Y150952D01*
X81708Y151054D01*
X80725D01*
X80445Y151473D01*
X79675Y152242D01*
X79240Y152533D01*
X78983Y152584D01*
Y154521D01*
D02*
G37*
G36*
X291975Y160825D02*
X287225D01*
Y156250D01*
X288020D01*
Y152256D01*
X287969Y152000D01*
X288093Y151376D01*
X288446Y150847D01*
X288976Y150493D01*
X289600Y150369D01*
X290224Y150493D01*
X290754Y150847D01*
X291107Y151376D01*
X291231Y152000D01*
X291180Y152256D01*
Y156250D01*
X291975D01*
Y160825D01*
D02*
G37*
G36*
X169241Y152691D02*
X167084D01*
Y149213D01*
X170562D01*
Y151371D01*
X170461Y151876D01*
X170175Y152305D01*
X169746Y152591D01*
X169241Y152691D01*
D02*
G37*
G36*
X188926D02*
X186768D01*
Y149213D01*
X190247D01*
Y151371D01*
X190146Y151876D01*
X189860Y152305D01*
X189431Y152591D01*
X188926Y152691D01*
D02*
G37*
G36*
X179083D02*
X176926D01*
Y149213D01*
X180404D01*
Y151371D01*
X180304Y151876D01*
X180017Y152305D01*
X179589Y152591D01*
X179083Y152691D01*
D02*
G37*
G36*
X185768D02*
X183611D01*
X183106Y152591D01*
X182677Y152305D01*
X182391Y151876D01*
X182290Y151371D01*
Y149213D01*
X185768D01*
Y152691D01*
D02*
G37*
G36*
X166084D02*
X163926D01*
X163421Y152591D01*
X162992Y152305D01*
X162706Y151876D01*
X162605Y151371D01*
Y149213D01*
X166084D01*
Y152691D01*
D02*
G37*
G36*
X175926D02*
X173768D01*
X173263Y152591D01*
X172835Y152305D01*
X172548Y151876D01*
X172448Y151371D01*
Y149213D01*
X175926D01*
Y152691D01*
D02*
G37*
G36*
X190247Y148213D02*
X186768D01*
Y144735D01*
X188926D01*
X189431Y144836D01*
X189860Y145122D01*
X190146Y145551D01*
X190247Y146056D01*
Y148213D01*
D02*
G37*
G36*
X185768D02*
X182290D01*
Y146056D01*
X182391Y145551D01*
X182677Y145122D01*
X183106Y144836D01*
X183611Y144735D01*
X185768D01*
Y148213D01*
D02*
G37*
G36*
X180404D02*
X176926D01*
Y144735D01*
X179083D01*
X179589Y144836D01*
X180017Y145122D01*
X180304Y145551D01*
X180404Y146056D01*
Y148213D01*
D02*
G37*
G36*
X175926D02*
X172448D01*
Y146056D01*
X172548Y145551D01*
X172835Y145122D01*
X173263Y144836D01*
X173768Y144735D01*
X175926D01*
Y148213D01*
D02*
G37*
G36*
X170562D02*
X167084D01*
Y144735D01*
X169241D01*
X169746Y144836D01*
X170175Y145122D01*
X170461Y145551D01*
X170562Y146056D01*
Y148213D01*
D02*
G37*
G36*
X166084D02*
X162605D01*
Y146056D01*
X162706Y145551D01*
X162992Y145122D01*
X163421Y144836D01*
X163926Y144735D01*
X166084D01*
Y148213D01*
D02*
G37*
G36*
X326673Y148822D02*
X321727D01*
Y144860D01*
X322775D01*
Y143196D01*
X322593Y142924D01*
X322469Y142300D01*
X322593Y141676D01*
X322947Y141147D01*
X323476Y140793D01*
X324100Y140669D01*
X324724Y140793D01*
X325254Y141147D01*
X325607Y141676D01*
X325731Y142300D01*
X325607Y142924D01*
X325426Y143196D01*
Y144860D01*
X326673D01*
Y148822D01*
D02*
G37*
G36*
X313975Y141250D02*
X311900D01*
Y139262D01*
X313975D01*
Y141250D01*
D02*
G37*
G36*
X310900D02*
X308825D01*
Y139262D01*
X310900D01*
Y141250D01*
D02*
G37*
G36*
X12712Y142318D02*
X10743D01*
X9918Y142209D01*
X9149Y141891D01*
X8488Y141384D01*
X7981Y140723D01*
X7662Y139954D01*
X7554Y139128D01*
X7662Y138303D01*
X7981Y137534D01*
X8488Y136873D01*
X9149Y136366D01*
X9918Y136047D01*
X10743Y135939D01*
X12712D01*
X13537Y136047D01*
X14307Y136366D01*
X14967Y136873D01*
X15474Y137534D01*
X15793Y138303D01*
X15901Y139128D01*
X15793Y139954D01*
X15474Y140723D01*
X14967Y141384D01*
X14307Y141891D01*
X13537Y142209D01*
X12712Y142318D01*
D02*
G37*
G36*
X24444Y140740D02*
X22869D01*
X22147Y140645D01*
X21473Y140366D01*
X20895Y139922D01*
X20451Y139343D01*
X20172Y138670D01*
X20077Y137947D01*
X20172Y137224D01*
X20451Y136551D01*
X20895Y135973D01*
X21473Y135529D01*
X22147Y135250D01*
X22869Y135155D01*
X24444D01*
X25167Y135250D01*
X25840Y135529D01*
X26419Y135973D01*
X26862Y136551D01*
X27141Y137224D01*
X27237Y137947D01*
X27141Y138670D01*
X26862Y139343D01*
X26419Y139922D01*
X25840Y140366D01*
X25167Y140645D01*
X24444Y140740D01*
D02*
G37*
G36*
X50204Y139580D02*
Y129100D01*
X55733D01*
Y133600D01*
X55617Y134776D01*
X55274Y135907D01*
X54717Y136950D01*
X53967Y137863D01*
X53053Y138613D01*
X52011Y139170D01*
X50880Y139513D01*
X50204Y139580D01*
D02*
G37*
G36*
X164200Y121543D02*
X161633D01*
Y118976D01*
X164200D01*
Y121543D01*
D02*
G37*
G36*
X204167Y121242D02*
X201600D01*
Y118676D01*
X204167D01*
Y121242D01*
D02*
G37*
G36*
X55733Y128100D02*
X50204D01*
Y117620D01*
X50880Y117687D01*
X52011Y118030D01*
X53053Y118587D01*
X53967Y119337D01*
X54717Y120250D01*
X55274Y121293D01*
X55617Y122424D01*
X55733Y123600D01*
Y128100D01*
D02*
G37*
G36*
X49204D02*
X43675D01*
Y123600D01*
X43791Y122424D01*
X44134Y121293D01*
X44691Y120250D01*
X45441Y119337D01*
X46354Y118587D01*
X47397Y118030D01*
X48528Y117687D01*
X49204Y117620D01*
Y128100D01*
D02*
G37*
G36*
X142204Y117591D02*
X141153D01*
Y116284D01*
X142204D01*
Y117591D01*
D02*
G37*
G36*
X24444Y121645D02*
X22869D01*
X22147Y121550D01*
X21473Y121271D01*
X20895Y120827D01*
X20451Y120249D01*
X20172Y119576D01*
X20077Y118853D01*
X20172Y118130D01*
X20451Y117457D01*
X20895Y116878D01*
X21473Y116435D01*
X22147Y116156D01*
X22869Y116060D01*
X24444D01*
X25167Y116156D01*
X25840Y116435D01*
X26419Y116878D01*
X26862Y117457D01*
X27141Y118130D01*
X27237Y118853D01*
X27141Y119576D01*
X26862Y120249D01*
X26419Y120827D01*
X25840Y121271D01*
X25167Y121550D01*
X24444Y121645D01*
D02*
G37*
G36*
X283169Y141941D02*
X281082Y141777D01*
X279046Y141288D01*
X277112Y140487D01*
X275327Y139393D01*
X273735Y138034D01*
X272375Y136442D01*
X271282Y134657D01*
X270480Y132723D01*
X269992Y130687D01*
X269827Y128600D01*
X269992Y126513D01*
X270480Y124477D01*
X271282Y122543D01*
X272375Y120758D01*
X273735Y119166D01*
X275327Y117807D01*
X277112Y116713D01*
X279046Y115912D01*
X281082Y115423D01*
X283169Y115259D01*
X285256Y115423D01*
X287291Y115912D01*
X289225Y116713D01*
X291010Y117807D01*
X292602Y119166D01*
X293962Y120758D01*
X295056Y122543D01*
X295857Y124477D01*
X296345Y126513D01*
X296510Y128600D01*
X296345Y130687D01*
X295857Y132723D01*
X295056Y134657D01*
X293962Y136442D01*
X292602Y138034D01*
X291010Y139393D01*
X289225Y140487D01*
X287291Y141288D01*
X285256Y141777D01*
X283169Y141941D01*
D02*
G37*
G36*
X104232D02*
X102145Y141777D01*
X100109Y141288D01*
X98175Y140487D01*
X96390Y139393D01*
X94798Y138034D01*
X93438Y136442D01*
X92344Y134657D01*
X91543Y132723D01*
X91055Y130687D01*
X90890Y128600D01*
X91055Y126513D01*
X91543Y124477D01*
X92344Y122543D01*
X93438Y120758D01*
X94798Y119166D01*
X96390Y117807D01*
X98175Y116713D01*
X100109Y115912D01*
X102145Y115423D01*
X104232Y115259D01*
X106318Y115423D01*
X108354Y115912D01*
X110288Y116713D01*
X112073Y117807D01*
X113665Y119166D01*
X115025Y120758D01*
X116119Y122543D01*
X116920Y124477D01*
X117408Y126513D01*
X117573Y128600D01*
X117408Y130687D01*
X116920Y132723D01*
X116119Y134657D01*
X115025Y136442D01*
X113665Y138034D01*
X112073Y139393D01*
X110288Y140487D01*
X108354Y141288D01*
X106318Y141777D01*
X104232Y141941D01*
D02*
G37*
G36*
X12712Y120861D02*
X10743D01*
X9918Y120753D01*
X9149Y120434D01*
X8488Y119927D01*
X7981Y119266D01*
X7662Y118497D01*
X7554Y117672D01*
X7662Y116846D01*
X7981Y116077D01*
X8488Y115416D01*
X9149Y114910D01*
X9918Y114591D01*
X10743Y114482D01*
X12712D01*
X13537Y114591D01*
X14307Y114910D01*
X14967Y115416D01*
X15474Y116077D01*
X15793Y116846D01*
X15901Y117672D01*
X15793Y118497D01*
X15474Y119266D01*
X14967Y119927D01*
X14307Y120434D01*
X13537Y120753D01*
X12712Y120861D01*
D02*
G37*
G36*
X52150Y113950D02*
X49800D01*
Y111550D01*
X52150D01*
Y113950D01*
D02*
G37*
G36*
X48800D02*
X46450D01*
Y111550D01*
X48800D01*
Y113950D01*
D02*
G37*
G36*
X379581Y114085D02*
X377900D01*
Y111321D01*
X379581D01*
Y114085D01*
D02*
G37*
G36*
X376900D02*
X375219D01*
Y111321D01*
X376900D01*
Y114085D01*
D02*
G37*
G36*
X379581Y110321D02*
X377900D01*
Y107557D01*
X379581D01*
Y110321D01*
D02*
G37*
G36*
X376900D02*
X375219D01*
Y107557D01*
X376900D01*
Y110321D01*
D02*
G37*
G36*
X370867Y109224D02*
X368300D01*
Y106658D01*
X370867D01*
Y109224D01*
D02*
G37*
G36*
X367300D02*
X364733D01*
Y106658D01*
X367300D01*
Y109224D01*
D02*
G37*
G36*
X52150Y110550D02*
X49300D01*
X46450D01*
Y108767D01*
X46450Y108150D01*
X46650Y107233D01*
Y102450D01*
X51950D01*
Y103420D01*
X55144D01*
X55400Y103369D01*
X56024Y103493D01*
X56554Y103847D01*
X56907Y104376D01*
X57031Y105000D01*
X56907Y105624D01*
X56554Y106154D01*
X56024Y106507D01*
X55400Y106631D01*
X55144Y106580D01*
X52622D01*
X52026Y107580D01*
X52150Y108150D01*
X52150Y108767D01*
Y110550D01*
D02*
G37*
G36*
X141767Y105743D02*
X139200D01*
Y103176D01*
X141767D01*
Y105743D01*
D02*
G37*
G36*
X138200D02*
X135633D01*
Y103176D01*
X138200D01*
Y105743D01*
D02*
G37*
G36*
X367800Y106158D02*
D01*
Y105657D01*
X364733D01*
Y103091D01*
X364933D01*
Y102025D01*
X363196D01*
X362924Y102207D01*
X362300Y102331D01*
X361676Y102207D01*
X361146Y101854D01*
X360793Y101324D01*
X360669Y100700D01*
X360793Y100076D01*
X361146Y99546D01*
X361676Y99193D01*
X362300Y99069D01*
X362924Y99193D01*
X363196Y99375D01*
X364933D01*
Y97976D01*
X370667D01*
Y99253D01*
X371679D01*
Y97915D01*
X375641D01*
Y100356D01*
X375685Y100579D01*
X375641Y100802D01*
Y104042D01*
X371679D01*
X370867Y104497D01*
Y105657D01*
X367800D01*
Y106158D01*
D02*
G37*
G36*
X280842Y97967D02*
X278276D01*
Y95400D01*
X280842D01*
Y97967D01*
D02*
G37*
G36*
X7000Y101385D02*
X6020Y101256D01*
X5107Y100878D01*
X4324Y100277D01*
X3722Y99493D01*
X3344Y98580D01*
X3215Y97600D01*
X3344Y96620D01*
X3722Y95707D01*
X4324Y94924D01*
X5107Y94322D01*
X6020Y93944D01*
X7000Y93815D01*
X7980Y93944D01*
X8893Y94322D01*
X9676Y94924D01*
X10278Y95707D01*
X10656Y96620D01*
X10785Y97600D01*
X10656Y98580D01*
X10278Y99493D01*
X9676Y100277D01*
X8893Y100878D01*
X7980Y101256D01*
X7000Y101385D01*
D02*
G37*
G36*
X383121Y104042D02*
X379159D01*
Y97915D01*
X379159D01*
X379540Y96915D01*
X378596Y95971D01*
X378276Y95907D01*
X377747Y95553D01*
X377393Y95024D01*
X377269Y94400D01*
X377393Y93776D01*
X377747Y93247D01*
X378276Y92893D01*
X378900Y92769D01*
X379524Y92893D01*
X380053Y93247D01*
X380407Y93776D01*
X380471Y94096D01*
X382490Y96115D01*
X382777Y96545D01*
X382878Y97053D01*
Y97915D01*
X383121D01*
Y100406D01*
X383165Y100471D01*
X383266Y100979D01*
X383165Y101486D01*
X383121Y101551D01*
Y104042D01*
D02*
G37*
G36*
X280842Y94400D02*
X278276D01*
Y91833D01*
X280842D01*
Y94400D01*
D02*
G37*
G36*
X321167Y91642D02*
X318600D01*
Y89076D01*
X321167D01*
Y91642D01*
D02*
G37*
G36*
X317600D02*
X315033D01*
Y89076D01*
X317600D01*
Y91642D01*
D02*
G37*
G36*
X7000Y91385D02*
X6020Y91256D01*
X5107Y90878D01*
X4324Y90276D01*
X3722Y89493D01*
X3344Y88580D01*
X3215Y87600D01*
X3344Y86620D01*
X3722Y85707D01*
X4324Y84923D01*
X5107Y84322D01*
X6020Y83944D01*
X7000Y83815D01*
X7980Y83944D01*
X8893Y84322D01*
X9676Y84923D01*
X10278Y85707D01*
X10656Y86620D01*
X10785Y87600D01*
X10656Y88580D01*
X10278Y89493D01*
X9676Y90276D01*
X8893Y90878D01*
X7980Y91256D01*
X7000Y91385D01*
D02*
G37*
G36*
X186300Y81950D02*
X183800D01*
Y79700D01*
X186300D01*
Y81950D01*
D02*
G37*
G36*
Y78700D02*
X183800D01*
Y76450D01*
X186300D01*
Y78700D01*
D02*
G37*
G36*
X276522Y88373D02*
X272560D01*
Y83427D01*
X272560Y83427D01*
X272366Y82779D01*
X272366D01*
X272366Y82507D01*
Y81341D01*
X269997Y78971D01*
X269676Y78907D01*
X269146Y78553D01*
X268793Y78024D01*
X268669Y77400D01*
X268793Y76776D01*
X269146Y76247D01*
X269676Y75893D01*
X270300Y75769D01*
X270924Y75893D01*
X271366Y76188D01*
X271788Y76087D01*
X272366Y75812D01*
Y74092D01*
X276328D01*
Y82779D01*
X276328Y82779D01*
X276522Y83427D01*
X276522D01*
X276522Y83698D01*
Y88373D01*
D02*
G37*
G36*
X282434Y77935D02*
X280753D01*
Y73892D01*
X282434D01*
Y77935D01*
D02*
G37*
G36*
X279753D02*
X278072D01*
Y73892D01*
X279753D01*
Y77935D01*
D02*
G37*
G36*
X322750Y75875D02*
X320762D01*
Y73800D01*
X322750D01*
Y75875D01*
D02*
G37*
G36*
X319762D02*
X317775D01*
Y73800D01*
X319762D01*
Y75875D01*
D02*
G37*
G36*
X189800Y81950D02*
X187300D01*
Y79200D01*
Y76450D01*
X189800D01*
Y76650D01*
X191037D01*
Y75373D01*
X189778D01*
Y72099D01*
X188778Y71359D01*
X188622Y71407D01*
Y75373D01*
X184660D01*
Y74426D01*
X178396D01*
X178124Y74607D01*
X177500Y74731D01*
X176876Y74607D01*
X176347Y74253D01*
X175993Y73724D01*
X175869Y73100D01*
X175993Y72476D01*
X176347Y71947D01*
X176876Y71593D01*
X177500Y71469D01*
X178124Y71593D01*
X178396Y71775D01*
X184660D01*
Y70550D01*
X183850D01*
Y65250D01*
X188750D01*
X189250Y65250D01*
X190152Y65013D01*
Y61587D01*
X185981D01*
Y61787D01*
X184103D01*
Y57834D01*
Y53881D01*
X185981D01*
X186706Y53217D01*
Y48143D01*
X186493Y47824D01*
X186369Y47200D01*
X186493Y46576D01*
X186846Y46047D01*
X187376Y45693D01*
X188000Y45569D01*
X188624Y45693D01*
X189154Y46047D01*
X189507Y46576D01*
X189631Y47200D01*
X189507Y47824D01*
X189357Y48049D01*
Y54081D01*
X196973D01*
Y53881D01*
X198851D01*
Y57834D01*
Y61787D01*
X196973D01*
Y61587D01*
X192803D01*
Y65250D01*
X195150D01*
Y70550D01*
X193740D01*
Y75373D01*
X193688D01*
Y76650D01*
X195200D01*
Y81750D01*
X189800D01*
Y81950D01*
D02*
G37*
G36*
X298241Y75221D02*
X291916D01*
Y71259D01*
X298241D01*
Y75221D01*
D02*
G37*
G36*
X304700Y80731D02*
X304076Y80607D01*
X303547Y80253D01*
X303193Y79724D01*
X303069Y79100D01*
X303193Y78476D01*
X303375Y78204D01*
Y75221D01*
X301759D01*
Y71681D01*
X301559D01*
Y70000D01*
X304921D01*
X308283D01*
Y71681D01*
X309187Y71915D01*
X311850D01*
Y70925D01*
X316425D01*
Y75675D01*
X311850D01*
Y74566D01*
X308084D01*
Y75221D01*
X306026D01*
Y78204D01*
X306207Y78476D01*
X306331Y79100D01*
X306207Y79724D01*
X305854Y80253D01*
X305324Y80607D01*
X304700Y80731D01*
D02*
G37*
G36*
X322750Y72800D02*
X320762D01*
Y70725D01*
X322750D01*
Y72800D01*
D02*
G37*
G36*
X319762D02*
X317775D01*
Y70725D01*
X319762D01*
Y72800D01*
D02*
G37*
G36*
X323224Y68967D02*
X320657D01*
Y66400D01*
X323224D01*
Y68967D01*
D02*
G37*
G36*
Y65400D02*
X320657D01*
Y62833D01*
X323224D01*
Y65400D01*
D02*
G37*
G36*
X308283Y69000D02*
X304921D01*
X301559D01*
Y67319D01*
X301759D01*
Y63779D01*
X308084D01*
Y64434D01*
X311976D01*
Y63033D01*
X313164D01*
X313465Y62033D01*
X313393Y61924D01*
X313269Y61300D01*
X313393Y60676D01*
X313747Y60146D01*
X314276Y59793D01*
X314900Y59669D01*
X315524Y59793D01*
X316054Y60146D01*
X316407Y60676D01*
X316531Y61300D01*
X316407Y61924D01*
X316499Y62080D01*
X317091Y62833D01*
X317091Y62833D01*
X319657D01*
Y65900D01*
Y68967D01*
X317091D01*
Y68767D01*
X311976D01*
Y67085D01*
X309187D01*
X308283Y67319D01*
Y69000D01*
D02*
G37*
G36*
X201729Y61787D02*
X199851D01*
Y58334D01*
X201729D01*
Y61787D01*
D02*
G37*
G36*
X183103D02*
X181225D01*
Y58334D01*
X183103D01*
Y61787D01*
D02*
G37*
G36*
X158442Y56867D02*
X155876D01*
Y54300D01*
X158442D01*
Y56867D01*
D02*
G37*
G36*
X201729Y57334D02*
X199851D01*
Y53881D01*
X201729D01*
Y57334D01*
D02*
G37*
G36*
X183103D02*
X181225D01*
Y53881D01*
X183103D01*
Y57334D01*
D02*
G37*
G36*
X158442Y53300D02*
X155876D01*
Y50733D01*
X158442D01*
Y53300D01*
D02*
G37*
G36*
X297767Y51143D02*
X295200D01*
Y48576D01*
X297767D01*
Y51143D01*
D02*
G37*
G36*
X294200D02*
X291633D01*
Y48576D01*
X294200D01*
Y51143D01*
D02*
G37*
G36*
X163800Y62247D02*
X162864Y62061D01*
X162070Y61530D01*
X161799Y61125D01*
X151900D01*
X151393Y61025D01*
X150963Y60737D01*
X140063Y49837D01*
X139775Y49407D01*
X139674Y48900D01*
Y30230D01*
X139775Y29723D01*
X140063Y29293D01*
X142347Y27009D01*
X142411Y26688D01*
X142764Y26159D01*
X143293Y25805D01*
X143614Y25742D01*
X144551Y24804D01*
X144551Y24804D01*
X152493Y16863D01*
X152923Y16575D01*
X153430Y16475D01*
X157070D01*
X157577Y16575D01*
X158007Y16863D01*
X162077Y20933D01*
X165024D01*
Y23438D01*
X169298D01*
X170202Y23204D01*
Y21326D01*
X178107D01*
Y23204D01*
X177907D01*
Y26522D01*
Y30459D01*
Y34396D01*
Y38133D01*
X178107D01*
Y40011D01*
X170202D01*
Y38133D01*
X170402D01*
Y34396D01*
Y30864D01*
X169423Y30450D01*
X169402Y30450D01*
X168885Y30967D01*
X168455Y31255D01*
X167947Y31355D01*
X165024D01*
Y34467D01*
X163044D01*
X162211Y34884D01*
X162110Y35391D01*
X161823Y35821D01*
X156207Y41437D01*
X155777Y41725D01*
X155270Y41826D01*
X147696D01*
X147424Y42007D01*
X146800Y42131D01*
X146176Y42007D01*
X145647Y41653D01*
X145293Y41124D01*
X145169Y40500D01*
X145293Y39876D01*
X145647Y39347D01*
X146176Y38993D01*
X146800Y38869D01*
X147424Y38993D01*
X147696Y39175D01*
X154721D01*
X158305Y35591D01*
X157922Y34667D01*
X157343D01*
Y31600D01*
Y28533D01*
X159909D01*
Y28733D01*
X164191D01*
X164335Y28705D01*
X167398D01*
X168340Y27763D01*
X168770Y27475D01*
X169277Y27375D01*
X170402D01*
Y26089D01*
X165024D01*
Y26667D01*
X159909D01*
Y26867D01*
X157343D01*
Y23800D01*
X156843D01*
Y23300D01*
X153776D01*
Y20743D01*
X153061Y20043D01*
X146426Y26679D01*
X146426Y26679D01*
X145489Y27616D01*
X145425Y27937D01*
X145071Y28466D01*
X144542Y28820D01*
X144221Y28883D01*
X142325Y30779D01*
Y48351D01*
X152449Y58474D01*
X161799D01*
X162070Y58070D01*
X162032Y56892D01*
X162009Y56867D01*
X159442D01*
Y53800D01*
Y50733D01*
X162009D01*
Y50933D01*
X167124D01*
Y54145D01*
X170402D01*
Y50144D01*
Y46826D01*
X170202D01*
Y44948D01*
X178107D01*
Y46826D01*
X177907D01*
Y50144D01*
Y54081D01*
Y58437D01*
X170402D01*
Y56796D01*
X166697D01*
Y58229D01*
X166596Y58736D01*
X166308Y59166D01*
X166152Y59323D01*
X166247Y59800D01*
X166061Y60736D01*
X165530Y61530D01*
X164736Y62061D01*
X163800Y62247D01*
D02*
G37*
G36*
X178107Y43948D02*
X170202D01*
Y42070D01*
Y41011D01*
X178107D01*
Y42070D01*
Y43948D01*
D02*
G37*
G36*
X212753Y40011D02*
X204847D01*
Y38133D01*
Y37074D01*
X212753D01*
Y38133D01*
Y40011D01*
D02*
G37*
G36*
X246473Y34740D02*
X244300D01*
Y33059D01*
X246473D01*
Y34740D01*
D02*
G37*
G36*
X243300D02*
X241127D01*
Y33059D01*
X243300D01*
Y34740D01*
D02*
G37*
G36*
X237067Y35524D02*
X234500D01*
Y32958D01*
X237067D01*
Y35524D01*
D02*
G37*
G36*
X233500D02*
X230933D01*
Y32958D01*
X233500D01*
Y35524D01*
D02*
G37*
G36*
X156342Y34667D02*
X153776D01*
Y32100D01*
X156342D01*
Y34667D01*
D02*
G37*
G36*
X212753Y36074D02*
X204847D01*
Y34196D01*
X205047D01*
Y31078D01*
X204847D01*
Y29200D01*
X212753D01*
Y31078D01*
X212553D01*
Y34196D01*
X212753D01*
Y36074D01*
D02*
G37*
G36*
X156342Y31100D02*
X153776D01*
Y28533D01*
X156342D01*
Y31100D01*
D02*
G37*
G36*
X212753Y28200D02*
X204847D01*
Y26322D01*
Y25263D01*
X212753D01*
Y26322D01*
Y28200D01*
D02*
G37*
G36*
X156342Y26867D02*
X153776D01*
Y24300D01*
X156342D01*
Y26867D01*
D02*
G37*
G36*
X276324Y25267D02*
X273758D01*
Y22700D01*
X276324D01*
Y25267D01*
D02*
G37*
G36*
X287674Y16230D02*
X285107D01*
Y11400D01*
X287674D01*
Y16230D01*
D02*
G37*
G36*
X318600Y22833D02*
X317267Y22702D01*
X315985Y22313D01*
X314804Y21681D01*
X313768Y20832D01*
X312919Y19796D01*
X312287Y18615D01*
X311898Y17333D01*
X311767Y16000D01*
X311898Y14667D01*
X312287Y13385D01*
X312919Y12204D01*
X313768Y11168D01*
X314804Y10319D01*
X315985Y9687D01*
X317267Y9298D01*
X318600Y9167D01*
X319933Y9298D01*
X321215Y9687D01*
X322396Y10319D01*
X323432Y11168D01*
X324281Y12204D01*
X324913Y13385D01*
X325302Y14667D01*
X325433Y16000D01*
X325302Y17333D01*
X324913Y18615D01*
X324281Y19796D01*
X323432Y20832D01*
X322396Y21681D01*
X321215Y22313D01*
X319933Y22702D01*
X318600Y22833D01*
D02*
G37*
G36*
X65900D02*
X64567Y22702D01*
X63285Y22313D01*
X62104Y21681D01*
X61068Y20832D01*
X60219Y19796D01*
X59587Y18615D01*
X59198Y17333D01*
X59067Y16000D01*
X59198Y14667D01*
X59587Y13385D01*
X60219Y12204D01*
X61068Y11168D01*
X62104Y10319D01*
X63285Y9687D01*
X64567Y9298D01*
X65900Y9167D01*
X67233Y9298D01*
X68515Y9687D01*
X69696Y10319D01*
X70732Y11168D01*
X71581Y12204D01*
X72213Y13385D01*
X72602Y14667D01*
X72733Y16000D01*
X72602Y17333D01*
X72213Y18615D01*
X71581Y19796D01*
X70732Y20832D01*
X69696Y21681D01*
X68515Y22313D01*
X67233Y22702D01*
X65900Y22833D01*
D02*
G37*
G36*
X287674Y10400D02*
X285107D01*
Y5570D01*
X287674D01*
Y10400D01*
D02*
G37*
G36*
X284107D02*
X281540D01*
Y5570D01*
X284107D01*
Y10400D01*
D02*
G37*
G36*
X276060D02*
X273493D01*
Y5570D01*
X276060D01*
Y10400D01*
D02*
G37*
G36*
X272493D02*
X269926D01*
Y5570D01*
X272493D01*
Y10400D01*
D02*
G37*
G36*
X212753Y7924D02*
X209300D01*
Y5456D01*
X212753D01*
Y7924D01*
D02*
G37*
G36*
X173654D02*
X170202D01*
Y5456D01*
X173654D01*
Y7924D01*
D02*
G37*
%LPD*%
G36*
X309362Y203875D02*
X296692Y191205D01*
X296146Y191373D01*
X295705Y191632D01*
X295700Y191660D01*
Y194576D01*
X297067D01*
Y199891D01*
Y201474D01*
X300804D01*
X301076Y201293D01*
X301700Y201169D01*
X302324Y201293D01*
X302853Y201646D01*
X303207Y202176D01*
X303331Y202800D01*
X303207Y203424D01*
X302957Y203799D01*
X303132Y204394D01*
X303388Y204799D01*
X308979D01*
X309362Y203875D01*
D02*
G37*
G36*
X157352Y183294D02*
X157540Y182675D01*
X157388Y182447D01*
X157296Y181981D01*
Y179619D01*
X157388Y179153D01*
X157392Y179147D01*
X157305Y178819D01*
X156857Y178179D01*
X154772D01*
X154307Y178086D01*
X154044Y177911D01*
X151268D01*
X150824Y178207D01*
X150200Y178331D01*
X149576Y178207D01*
X149047Y177854D01*
X148693Y177324D01*
X148569Y176700D01*
X148693Y176076D01*
X149047Y175547D01*
X149049Y175545D01*
Y174355D01*
X149047Y174354D01*
X148693Y173824D01*
X148569Y173200D01*
X148693Y172576D01*
X148836Y172361D01*
X148707Y172032D01*
X148279Y171566D01*
X148201Y171512D01*
X147600Y171631D01*
X146976Y171507D01*
X146447Y171153D01*
X146093Y170624D01*
X145969Y170000D01*
X146060Y169539D01*
X145674Y168913D01*
X145401Y168612D01*
X144876Y168507D01*
X144346Y168154D01*
X143993Y167624D01*
X143869Y167000D01*
X143993Y166376D01*
X144346Y165847D01*
X144375Y165828D01*
Y134241D01*
X143713Y133865D01*
X143367Y134160D01*
Y135458D01*
X137233D01*
Y132891D01*
X137433D01*
Y130219D01*
X137337Y130200D01*
X136907Y129913D01*
X134610Y127615D01*
X133610Y128030D01*
Y129484D01*
Y156434D01*
X133780Y156500D01*
X134610Y156601D01*
X134846Y156246D01*
X135376Y155893D01*
X136000Y155769D01*
X136624Y155893D01*
X137153Y156246D01*
X137507Y156776D01*
X137631Y157400D01*
X137507Y158024D01*
X137326Y158296D01*
Y164951D01*
X141337Y168963D01*
X141625Y169393D01*
X141726Y169900D01*
Y170050D01*
X142850D01*
Y174950D01*
X142850Y175700D01*
X142850Y176450D01*
Y181350D01*
X141525D01*
Y183251D01*
X141949Y183675D01*
X157098D01*
X157352Y183294D01*
D02*
G37*
%LPC*%
G36*
X143367Y139024D02*
X140800D01*
Y136458D01*
X143367D01*
Y139024D01*
D02*
G37*
G36*
X139800D02*
X137233D01*
Y136458D01*
X139800D01*
Y139024D01*
D02*
G37*
%LPD*%
D11*
X70785Y150085D02*
X70900Y150200D01*
X68906Y150085D02*
X70785D01*
X218250Y166550D02*
X238400Y146400D01*
X310619Y133419D02*
X311400Y132638D01*
X238400Y146400D02*
X297550D01*
X310531Y133419D01*
X310619D01*
X270300Y77400D02*
X274570Y81670D01*
Y85870D01*
X274541Y85900D02*
X274570Y85870D01*
X47441Y148207D02*
X47679Y147969D01*
X46307Y148207D02*
X47441D01*
X46115Y148400D02*
X46307Y148207D01*
X45244Y148400D02*
X46115D01*
X41716Y144872D02*
X45244Y148400D01*
X41716Y130800D02*
Y144872D01*
X36915Y126000D02*
X41716Y130800D01*
X34653Y126000D02*
X36915D01*
X34367Y125715D02*
X34653Y126000D01*
X33715Y125715D02*
X34367D01*
X33600Y125600D02*
X33715Y125715D01*
X47441Y150392D02*
X47679Y150631D01*
X46307Y150392D02*
X47441D01*
X46115Y150200D02*
X46307Y150392D01*
X44498Y150200D02*
X46115D01*
X39916Y145618D02*
X44498Y150200D01*
X39916Y131546D02*
Y145618D01*
X36170Y127800D02*
X39916Y131546D01*
X34653Y127800D02*
X36170D01*
X34367Y128085D02*
X34653Y127800D01*
X33715Y128085D02*
X34367D01*
X33600Y128200D02*
X33715Y128085D01*
X345800Y88900D02*
Y142600D01*
X356430Y86571D02*
X358293Y88434D01*
X355180Y119400D02*
X358293Y116287D01*
Y88434D02*
Y116287D01*
X160886Y33170D02*
X162456Y31600D01*
X253400Y8542D02*
X253731Y8212D01*
X259500D01*
X263863Y11937D02*
Y13463D01*
X261026Y9100D02*
X263863Y11937D01*
X260447Y9100D02*
X261026D01*
X259559Y8212D02*
X260447Y9100D01*
X259500Y8212D02*
X259559D01*
X263863Y13463D02*
X267304Y16904D01*
X278800D01*
X252702Y13160D02*
X253400Y13858D01*
X238859Y13160D02*
X252702D01*
X236587Y23487D02*
X238500Y25400D01*
X236587Y20928D02*
Y23487D01*
X236300Y20640D02*
X236587Y20928D01*
X224800Y20458D02*
X225257Y20000D01*
X224800Y20458D02*
Y24200D01*
X239146Y22207D02*
X243114D01*
X238859Y21920D02*
X239146Y22207D01*
X238859Y20640D02*
Y21920D01*
X218917Y20826D02*
X219742Y20000D01*
X208800Y20826D02*
X218917D01*
X219642Y14000D02*
X219839D01*
X215700D02*
X219642D01*
X212600Y17100D02*
X215700Y14000D01*
X209323Y17100D02*
X212600D01*
X302043Y187700D02*
X303609Y189267D01*
X307278Y193285D02*
X307393Y193400D01*
X306970Y193285D02*
X307278D01*
X303609Y189924D02*
X306970Y193285D01*
X303609Y189267D02*
Y189924D01*
X356700Y124200D02*
Y128338D01*
X356800Y128438D01*
X362800Y124100D02*
Y127938D01*
X363600Y128738D01*
Y130241D01*
X362300Y134659D02*
X368000D01*
X356400Y134358D02*
X361998D01*
X362300Y134659D01*
X363500Y130341D02*
X363600Y130241D01*
X357305Y135262D02*
X359381Y137339D01*
X360609D01*
X314161Y170100D02*
X314400Y170339D01*
X360609Y137339D02*
X366100Y142830D01*
Y148272D01*
X163765Y53900D02*
X163800Y53935D01*
X206347Y60287D02*
X210375Y56259D01*
X206347Y72547D02*
X218500Y84700D01*
X206347Y60287D02*
Y72547D01*
X216300Y85100D02*
Y102878D01*
X204547Y73347D02*
X216300Y85100D01*
X204547Y54343D02*
Y73347D01*
X216950Y103528D02*
Y152900D01*
X216300Y102878D02*
X216950Y103528D01*
X181932Y102878D02*
X216300D01*
X156654Y77600D02*
X181932Y102878D01*
X218500Y84700D02*
Y100500D01*
X218750Y100750D02*
Y157050D01*
X218500Y100500D02*
X218750Y100750D01*
X157400Y75800D02*
X182378Y100778D01*
X15200Y75800D02*
X157400D01*
X7000Y67600D02*
X15200Y75800D01*
X7000Y77600D02*
X156654D01*
X182378Y100778D02*
X213027D01*
X214600Y161200D02*
X218750Y157050D01*
X214550Y155300D02*
X216950Y152900D01*
X367957Y100700D02*
X368200Y100943D01*
X362300Y100700D02*
X367957D01*
X329800Y201139D02*
X329900Y201039D01*
X329561Y200900D02*
X329800Y201139D01*
X329900Y191728D02*
Y201039D01*
X314472Y175333D02*
Y182353D01*
X356100Y178743D02*
Y178939D01*
Y169728D02*
Y178743D01*
X314261Y175400D02*
X314400Y175261D01*
X286200Y96043D02*
X287000Y95243D01*
X314702Y65760D02*
X314900Y65562D01*
X171702Y131256D02*
X175800Y127157D01*
X164700Y127156D02*
X169598D01*
X381553Y100591D02*
X381940Y100979D01*
X381553Y97053D02*
Y100591D01*
X378900Y94400D02*
X381553Y97053D01*
X311357Y117781D02*
X321543D01*
X311300Y95800D02*
X312958Y97457D01*
X311300Y91376D02*
Y95800D01*
X305221Y102340D02*
X308460D01*
X307161Y187700D02*
X315100D01*
X294000Y181050D02*
X296150D01*
X304300Y183700D02*
X307161Y186561D01*
X298800Y183700D02*
X304300D01*
X296150Y181050D02*
X298800Y183700D01*
X307161Y186561D02*
Y187700D01*
X304921Y73240D02*
X314581D01*
X147700Y125672D02*
Y169900D01*
X147600Y170000D02*
X147700Y169900D01*
X150125Y170036D02*
X150160Y170072D01*
X150125Y170036D02*
X155918D01*
X147636D02*
X150125D01*
X147600Y170000D02*
X147636Y170036D01*
X155918D02*
X155954Y170072D01*
X177500Y73100D02*
X186441D01*
X186641Y72900D01*
Y67991D02*
Y72900D01*
X186550Y67900D02*
X186641Y67991D01*
X165371Y55470D02*
X173365D01*
X165335D02*
X165371D01*
Y58229D01*
Y55435D02*
Y55470D01*
X165335D02*
X165371Y55435D01*
X162456Y23186D02*
Y23800D01*
X163800Y59800D02*
X165371Y58229D01*
X143918Y27312D02*
X145489Y25742D01*
X157070Y17800D02*
X162456Y23186D01*
X191477Y66927D02*
X192450Y67900D01*
X191477Y57834D02*
Y66927D01*
X330500Y142300D02*
Y146239D01*
X330800Y146539D01*
X324100Y142300D02*
Y146741D01*
X324200Y146841D01*
X355340Y139519D02*
X359781D01*
X361100Y146598D02*
Y148272D01*
X357897Y143395D02*
X361100Y146598D01*
X353244Y143395D02*
X357897D01*
X350041Y140192D02*
X353244Y143395D01*
X350041Y139700D02*
Y140192D01*
X349941Y139600D02*
X350041Y139700D01*
X349941Y119500D02*
Y139600D01*
X349841Y119400D02*
X349941Y119500D01*
X324200Y157114D02*
X325786Y158700D01*
X340660D01*
X341341Y158019D01*
Y157900D02*
Y158019D01*
X324200Y151959D02*
Y157114D01*
Y151959D02*
X330302D01*
X330800Y151461D01*
X330861Y151400D01*
X336641D01*
X341759Y146641D02*
Y151400D01*
Y146641D02*
X345800Y142600D01*
X342759Y152100D02*
X344700D01*
X342659Y152200D02*
X342759Y152100D01*
X344700D02*
X345722Y151078D01*
X348498D01*
X348600Y150976D01*
X202650Y164750D02*
X216850D01*
X201180Y163280D02*
X202650Y164750D01*
X196898Y163280D02*
X201180D01*
X216850Y164750D02*
X224489Y157111D01*
X139157Y111100D02*
X144700D01*
X138700Y111557D02*
X139157Y111100D01*
X197019Y166550D02*
X218250D01*
X205514Y178124D02*
X206407D01*
X287687Y203262D02*
X290550Y206124D01*
X310940D02*
X318616Y213800D01*
X290550Y206124D02*
X310940D01*
X318616Y213800D02*
X332600D01*
X302400Y151900D02*
Y158442D01*
X184024Y125791D02*
X185900Y123915D01*
Y115100D02*
Y123915D01*
X175800Y127357D02*
X181800D01*
X183367Y125791D02*
X184024D01*
X181800Y127357D02*
X183367Y125791D01*
X189500Y127357D02*
X189800Y127058D01*
X195500D01*
X201100D01*
X204667D02*
X204795Y127185D01*
X205785D01*
X205900Y127300D01*
X201100Y127058D02*
X204667D01*
X189500Y127357D02*
Y129800D01*
X188200Y131100D02*
X189500Y129800D01*
X178815Y131100D02*
X188200D01*
X175335Y134580D02*
X178815Y131100D01*
X175335Y134580D02*
Y135828D01*
X174851Y136312D02*
X175335Y135828D01*
X205900Y127300D02*
X205967D01*
X175800Y127157D02*
X175898Y127256D01*
X171702Y131256D02*
Y136312D01*
X206138Y173512D02*
X206300D01*
X205355Y172729D02*
X206138Y173512D01*
X196898Y172729D02*
X205355D01*
X150200Y173200D02*
X150211Y173211D01*
X155943D01*
X155954Y173221D01*
X150200Y176700D02*
X150315Y176585D01*
X205052Y169985D02*
X206138Y168900D01*
X197304Y169985D02*
X205052D01*
X206138Y168900D02*
X206300D01*
X203269Y175879D02*
X205514Y178124D01*
X196898Y175879D02*
X203269D01*
X356100Y183861D02*
Y184057D01*
X370092Y179841D02*
X376098D01*
X370773Y170055D02*
X371100Y169728D01*
X370773Y170055D02*
Y179160D01*
X370092Y179841D02*
X370773Y179160D01*
X369600Y179841D02*
X370092D01*
X376098D02*
X376300Y179639D01*
X372400Y161700D02*
X376300Y165600D01*
Y179639D01*
X364100Y161700D02*
X372400D01*
X360300Y157900D02*
X364100Y161700D01*
X346459Y157900D02*
X360300D01*
X334700Y164000D02*
X360514D01*
X329153D02*
X334700D01*
X334900Y164200D01*
Y170272D01*
X361100Y164586D02*
Y169728D01*
X366100D01*
X360514Y164000D02*
X361100Y164586D01*
X327553Y162400D02*
X329153Y164000D01*
X327500Y162400D02*
X327553D01*
X302395Y158438D02*
X302400Y158442D01*
X302500Y158543D01*
X292633Y201191D02*
X294200Y202758D01*
X291740Y201191D02*
X292633D01*
X287687Y197138D02*
X291740Y201191D01*
X287600Y197138D02*
X287687D01*
X287600Y203262D02*
X287687D01*
X287550Y203312D02*
X287600Y203262D01*
X280750Y203312D02*
X287550D01*
X280700Y203362D02*
X280750Y203312D01*
X294243Y202800D02*
X301700D01*
X294200Y202758D02*
X294243Y202800D01*
X289600Y164662D02*
Y182238D01*
X295800Y158438D02*
X302395D01*
X295750Y164612D02*
X295800Y164562D01*
X289650Y164612D02*
X295750D01*
X289600Y164662D02*
X289650Y164612D01*
X212700Y141459D02*
X213100Y141859D01*
Y148400D01*
X196898Y153832D02*
X201818D01*
X207250Y148400D01*
X207500D01*
X212500Y132400D02*
Y136141D01*
X212700Y136341D01*
X212208D02*
X212700D01*
X339900Y191728D02*
Y203400D01*
X331700Y211600D02*
X339900Y203400D01*
X318962Y211600D02*
X331700D01*
X289600Y182238D02*
X318962Y211600D01*
X347381Y188336D02*
Y199019D01*
X332600Y213800D02*
X347381Y199019D01*
X351886Y182786D02*
X355025D01*
X344900Y175800D02*
X351886Y182786D01*
X344900Y170272D02*
Y175800D01*
X140400Y169900D02*
Y173450D01*
X136665Y118040D02*
X136716Y118091D01*
X125800Y116700D02*
X125962D01*
X136665Y116812D02*
Y118040D01*
X126678Y115984D02*
X135837D01*
X132284Y129484D02*
Y173534D01*
Y121153D02*
Y129484D01*
X125200Y122400D02*
X132284Y129484D01*
X120900Y122400D02*
X125200D01*
X134765Y125896D02*
X137845Y128976D01*
X134765Y124526D02*
Y125896D01*
X137845Y128976D02*
X138633D01*
X140300Y130642D01*
X141000Y30230D02*
X143918Y27312D01*
X141000Y30230D02*
Y48900D01*
X145489Y25741D02*
Y25742D01*
Y25741D02*
X153430Y17800D01*
X157070D01*
X151900Y59800D02*
X163800D01*
X141000Y48900D02*
X151900Y59800D01*
X294700Y56958D02*
X295079Y57336D01*
X293133Y55391D02*
X294700Y56958D01*
X254041Y21900D02*
Y22392D01*
Y21408D02*
Y21900D01*
X174154Y24763D02*
X174614D01*
X163728D02*
X174154D01*
X138500Y126638D02*
X138633Y126505D01*
Y124560D02*
Y126505D01*
Y124560D02*
X138684Y124509D01*
X136716D02*
X138684D01*
X68879Y150059D02*
X68906Y150085D01*
X68419Y150059D02*
X68879D01*
X67160Y148800D02*
X68419Y150059D01*
X65979Y148800D02*
X67160D01*
X224511Y157089D02*
X269688Y111912D01*
X279290D02*
X292901Y98300D01*
X269688Y111912D02*
X279290D01*
X138667Y118109D02*
Y119478D01*
X135878Y122267D02*
X138667Y119478D01*
X151300Y143000D02*
X152575Y141725D01*
X151300Y143000D02*
Y149300D01*
X152575Y141725D02*
X155954D01*
X151300Y149300D02*
X152879Y150879D01*
X155658D02*
X155954Y151174D01*
X142361Y120333D02*
X147700Y125672D01*
X152879Y150879D02*
X155658D01*
X174154Y28700D02*
X174577D01*
X169277D02*
X174154D01*
X292901Y98300D02*
X297320D01*
X286400Y96242D02*
Y100700D01*
X286200Y96043D02*
X286400Y96242D01*
X297320Y98300D02*
X301559Y94061D01*
X339900Y180854D02*
X347381Y188336D01*
X339900Y170272D02*
Y180854D01*
X334900Y170272D02*
Y180055D01*
X145700Y126218D02*
Y166683D01*
X141784Y122302D02*
X145700Y126218D01*
X145500Y166884D02*
X145700Y166683D01*
X145500Y166884D02*
Y167100D01*
X294000Y169100D02*
Y175150D01*
X314472Y182353D02*
X314760Y182641D01*
X314400Y175261D02*
X314472Y175333D01*
X308400Y170100D02*
X314161D01*
X140653Y124509D02*
Y124765D01*
X140784Y124896D01*
Y130158D01*
X308700Y175400D02*
X314261D01*
X322240Y187759D02*
Y191860D01*
X326700Y170900D02*
X329272D01*
X329900Y170272D01*
X322240Y175360D02*
X326700Y170900D01*
X322240Y175360D02*
Y182641D01*
Y185200D02*
X330045D01*
X334900Y190055D01*
Y191728D01*
X140300Y130642D02*
X140784Y130158D01*
X174577Y28700D02*
X174677Y28600D01*
X146800Y40500D02*
X155270D01*
X174614Y24763D02*
X174677Y24700D01*
X333196Y121076D02*
X337696Y125576D01*
X228600Y29500D02*
X228762D01*
X136000Y157800D02*
Y165500D01*
X140400Y169900D01*
X135300Y195200D02*
X135371Y195271D01*
X140229D01*
X140300Y195341D01*
X159900Y188500D02*
X162253Y186147D01*
Y180800D02*
Y186147D01*
X158500Y185000D02*
X159103Y184397D01*
Y180800D02*
Y184397D01*
X141400Y185000D02*
X158500D01*
X141400D02*
X148200Y191800D01*
X140200Y183800D02*
X141400Y185000D01*
X140200Y178650D02*
Y183800D01*
X148200Y191800D02*
Y195241D01*
X132100Y178550D02*
Y184300D01*
X140300Y192500D01*
Y195341D01*
X140200Y200559D02*
X140300Y200459D01*
X140200Y200559D02*
Y206200D01*
X148200Y200359D02*
Y206300D01*
X156000Y200650D02*
X156100Y200750D01*
Y206200D01*
X169100Y128058D02*
Y131300D01*
X168552Y131848D02*
Y136312D01*
Y131848D02*
X169100Y131300D01*
Y128058D02*
X169800Y127357D01*
X207922Y53200D02*
X208800Y52322D01*
X204547Y54343D02*
X205690Y53200D01*
X369300Y129741D02*
X379341D01*
X205690Y53200D02*
X207922D01*
X162765Y23800D02*
X163728Y24763D01*
X167947Y30030D02*
X169277Y28700D01*
X164335Y30030D02*
X167947D01*
X173365Y55470D02*
X174154Y56259D01*
X188031Y55568D02*
X188063Y55600D01*
X188031Y47232D02*
Y55568D01*
X188000Y47200D02*
X188031Y47232D01*
X155954Y144875D02*
Y148024D01*
X307393Y193400D02*
X307400D01*
X355025Y182786D02*
X356100Y183861D01*
X371200Y155300D02*
X371300Y155400D01*
X371200Y148372D02*
Y155300D01*
X371100Y148272D02*
X371200Y148372D01*
X165402Y180800D02*
Y186950D01*
X150315Y176585D02*
X155739D01*
X155954Y176371D01*
X304700Y73461D02*
Y79100D01*
Y73461D02*
X304921Y73240D01*
X171100Y195039D02*
X171702Y194438D01*
Y180800D02*
Y194438D01*
X167900Y188438D02*
Y188600D01*
Y188438D02*
X168552Y187786D01*
Y180800D02*
Y187786D01*
X163800Y188552D02*
Y188600D01*
Y188552D02*
X165402Y186950D01*
X196898Y169580D02*
X197304Y169985D01*
X337696Y125576D02*
Y128600D01*
X316900Y121076D02*
X333196D01*
X318100Y97457D02*
X321543Y100900D01*
Y117781D01*
X140909Y120316D02*
X140926Y120333D01*
X142361D01*
X132284Y173534D02*
X132300Y173550D01*
X134747Y124509D02*
X134765Y124526D01*
X134619Y124381D02*
X134747Y124509D01*
X134619Y122412D02*
Y124381D01*
X134491Y122284D02*
X134619Y122412D01*
X66900Y169400D02*
X66955Y169455D01*
Y174876D01*
X67010Y174931D01*
X150500Y160500D02*
X150561Y160561D01*
X150386Y163686D02*
X155867D01*
X155954Y163772D01*
X150561Y160561D02*
X155892D01*
X150300Y163600D02*
X150386Y163686D01*
X150400Y157100D02*
X150515Y157215D01*
X155892Y160561D02*
X155954Y160623D01*
X150515Y157215D02*
X155695D01*
X99800Y203900D02*
X100832Y202868D01*
X99800Y203900D02*
X106900D01*
X99500Y204200D02*
X99800Y203900D01*
X165887Y181284D02*
Y182587D01*
X165402Y180800D02*
X165887Y181284D01*
X155695Y157215D02*
X155954Y157473D01*
X125962Y116700D02*
X126678Y115984D01*
X135837D02*
X136665Y116812D01*
X150211Y167011D02*
X155865D01*
X150200Y167000D02*
X150211Y167011D01*
X150160Y170072D02*
X155954D01*
X155865Y167011D02*
X155954Y166922D01*
X140457Y130800D02*
X143500D01*
X140300Y130642D02*
X140457Y130800D01*
X140926Y122302D02*
X141784D01*
X140909Y122284D02*
X140926Y122302D01*
X138667Y118109D02*
X138684Y118091D01*
X134509Y122267D02*
X135878D01*
X134491Y122284D02*
X134509Y122267D01*
X134474Y120333D02*
X134491Y120316D01*
X133104Y120333D02*
X134474D01*
X132284Y121153D02*
X133104Y120333D01*
X138684Y111573D02*
X138700Y111557D01*
X138684Y111573D02*
Y118091D01*
X160300Y127100D02*
X160328Y127128D01*
X164672D01*
X164700Y127156D01*
X306276Y88424D02*
X311300D01*
X301559Y93140D02*
X306276Y88424D01*
X301559Y93140D02*
Y94061D01*
X196898Y166430D02*
X197019Y166550D01*
X234028Y18219D02*
Y20353D01*
X233741Y20640D02*
X234028Y20353D01*
Y18219D02*
X234974Y17273D01*
X249906D02*
X254041Y21408D01*
X234974Y17273D02*
X249906D01*
X254041Y22392D02*
X287039Y55391D01*
X293133D01*
X314900Y61300D02*
Y65562D01*
X286658Y94900D02*
X287000Y95243D01*
X311200Y132438D02*
X311400Y132638D01*
X311200Y124062D02*
Y132438D01*
Y117938D02*
X311357Y117781D01*
X356361Y179200D02*
X361000D01*
X356100Y178939D02*
X356361Y179200D01*
X324100Y200900D02*
X329561D01*
X75736Y191531D02*
Y194836D01*
X75475Y191269D02*
X75736Y191531D01*
Y194836D02*
X80500Y199600D01*
X214550Y161200D02*
X214600D01*
X100832Y175831D02*
Y192169D01*
Y202868D01*
X75475Y174931D02*
Y191269D01*
X67010Y174931D02*
Y191269D01*
X67497Y191756D01*
Y203213D01*
X67984Y203700D01*
X368200Y100943D02*
X368564Y100579D01*
X374360D01*
X334900Y180055D02*
X344900Y190055D01*
Y191728D01*
X371100Y168055D02*
Y169728D01*
X348600Y148024D02*
X355852D01*
X356100Y148272D01*
X233741Y27080D02*
X234000Y27339D01*
X233741Y20640D02*
Y27080D01*
X160886Y33170D02*
Y34884D01*
X155270Y40500D02*
X160886Y34884D01*
X162456Y31600D02*
X162765D01*
X244132Y27773D02*
X246973D01*
X243800Y27441D02*
X244132Y27773D01*
X246973D02*
X249000Y29800D01*
X243114Y22207D02*
X243700Y22793D01*
Y27341D01*
X243800Y27441D01*
X229848Y28414D02*
X232925D01*
X234000Y27339D01*
X228762Y29500D02*
X229848Y28414D01*
X162456Y23800D02*
X162765D01*
Y31600D02*
X164335Y30030D01*
X295079Y57336D02*
Y65760D01*
X304921D02*
X314702D01*
X314581Y73240D02*
X314641Y73300D01*
X279659Y85900D02*
X280035Y85524D01*
X286800D01*
X286698Y94860D02*
X286800Y94757D01*
X286658Y94900D02*
X286698Y94860D01*
X286800Y88476D02*
Y94757D01*
X286698Y94860D02*
X295379D01*
X308460Y102340D02*
X312958Y97843D01*
Y97457D02*
Y97843D01*
X305221Y92179D02*
X306024Y91376D01*
X305221Y92179D02*
Y94860D01*
X306024Y91376D02*
X311300D01*
X312958Y97457D02*
X318100D01*
X267839Y21900D02*
X268139Y22200D01*
X259159Y21900D02*
X267839D01*
X259159D02*
X259330Y21730D01*
Y12359D02*
Y21730D01*
Y12359D02*
X259500Y12188D01*
X230300Y13000D02*
X233581D01*
X233741Y13160D01*
X229300Y14000D02*
X230300Y13000D01*
X224761Y14000D02*
X229300D01*
X192000Y78100D02*
X192362Y77738D01*
Y72000D02*
Y77738D01*
X169598Y127156D02*
X169800Y127357D01*
X156000Y194750D02*
X156193Y194942D01*
X164100D01*
X164197Y195039D01*
X171100D01*
D16*
X354142Y125988D02*
Y137110D01*
X359359D01*
Y125988D02*
Y137110D01*
X354142Y125988D02*
X359359D01*
X286943Y156088D02*
Y167210D01*
X292159D01*
Y156088D02*
Y167210D01*
X286943Y156088D02*
X292159D01*
X298458Y155890D02*
Y167012D01*
X293241Y155890D02*
X298458D01*
X293241D02*
Y167012D01*
X298458D01*
X290258Y194590D02*
Y205712D01*
X285041Y194590D02*
X290258D01*
X285041D02*
Y205712D01*
X290258D01*
X278043Y194788D02*
Y205910D01*
X283259D01*
Y194788D02*
Y205910D01*
X278043Y194788D02*
X283259D01*
X311590Y70643D02*
X322712D01*
X311590D02*
Y75859D01*
X322712D01*
Y70643D02*
Y75859D01*
X308841Y141212D02*
X314057D01*
X308841Y130090D02*
Y141212D01*
Y130090D02*
X314057D01*
Y141212D01*
X308641Y126512D02*
X313858D01*
X308641Y115390D02*
Y126512D01*
Y115390D02*
X313858D01*
Y126512D01*
D19*
X318100Y92142D02*
D03*
Y97457D02*
D03*
X329800Y206258D02*
D03*
Y200942D02*
D03*
X253400Y13858D02*
D03*
Y8542D02*
D03*
X234000Y32458D02*
D03*
Y27143D02*
D03*
X330800Y151657D02*
D03*
Y146343D02*
D03*
X376300Y179443D02*
D03*
Y184757D02*
D03*
X171100Y200157D02*
D03*
Y194843D02*
D03*
X201100Y121742D02*
D03*
Y127058D02*
D03*
X181800Y122043D02*
D03*
Y127357D02*
D03*
X164700Y122043D02*
D03*
Y127357D02*
D03*
X138700Y111557D02*
D03*
Y106243D02*
D03*
X362993Y134223D02*
D03*
Y128908D02*
D03*
X302500Y163857D02*
D03*
Y158543D02*
D03*
X294200Y202758D02*
D03*
Y197442D02*
D03*
X314400Y175458D02*
D03*
Y170142D02*
D03*
X356100Y184057D02*
D03*
Y178743D02*
D03*
X294700Y51643D02*
D03*
Y56958D02*
D03*
X367800Y106158D02*
D03*
Y100842D02*
D03*
X140300Y135958D02*
D03*
Y130642D02*
D03*
X195500Y127058D02*
D03*
Y121742D02*
D03*
X189800Y127058D02*
D03*
Y121742D02*
D03*
X175800Y127357D02*
D03*
Y122043D02*
D03*
X170250Y127357D02*
D03*
Y122043D02*
D03*
X164100Y200257D02*
D03*
Y194942D02*
D03*
D20*
X302043Y187700D02*
D03*
X307358D02*
D03*
X224957Y14000D02*
D03*
X219642D02*
D03*
X224957Y20000D02*
D03*
X219642D02*
D03*
X273257Y22200D02*
D03*
X267943D02*
D03*
X162157Y23800D02*
D03*
X156843D02*
D03*
X162157Y31600D02*
D03*
X156843D02*
D03*
X158942Y53800D02*
D03*
X164258D02*
D03*
X281343Y94900D02*
D03*
X286658D02*
D03*
X94185Y204200D02*
D03*
X99500D02*
D03*
X320158Y65900D02*
D03*
X314843D02*
D03*
D21*
X75475Y191269D02*
D03*
Y174931D02*
D03*
X67010Y191269D02*
D03*
Y174931D02*
D03*
X92368Y175831D02*
D03*
Y192169D02*
D03*
X100832Y175831D02*
D03*
Y192169D02*
D03*
D22*
X65979Y152540D02*
D03*
Y148800D02*
D03*
Y145060D02*
D03*
X75821D02*
D03*
Y148800D02*
D03*
Y152540D02*
D03*
X295079Y65760D02*
D03*
Y73240D02*
D03*
X304921D02*
D03*
Y69500D02*
D03*
Y65760D02*
D03*
X295379Y94860D02*
D03*
Y102340D02*
D03*
X305221D02*
D03*
Y98600D02*
D03*
Y94860D02*
D03*
D23*
X322240Y182641D02*
D03*
Y185200D02*
D03*
Y187759D02*
D03*
X314760D02*
D03*
Y182641D02*
D03*
D24*
X233741Y13160D02*
D03*
X236300D02*
D03*
X238859D02*
D03*
Y20640D02*
D03*
X236300D02*
D03*
X233741D02*
D03*
D25*
X280253Y78435D02*
D03*
X274347D02*
D03*
D26*
X292293Y246900D02*
D03*
X303907D02*
D03*
X284607Y10900D02*
D03*
X272993D02*
D03*
D27*
X298100Y240896D02*
D03*
X278800Y16904D02*
D03*
D28*
X191000Y224811D02*
D03*
Y251189D02*
D03*
D29*
X47679Y150631D02*
D03*
Y147969D02*
D03*
X51517D02*
D03*
Y150631D02*
D03*
D30*
X186268Y168398D02*
D03*
Y158556D02*
D03*
Y148713D02*
D03*
X176426Y168398D02*
D03*
Y158556D02*
D03*
Y148713D02*
D03*
X166584Y168398D02*
D03*
Y158556D02*
D03*
Y148713D02*
D03*
D31*
X155954Y176371D02*
D03*
Y173221D02*
D03*
Y170072D02*
D03*
Y166922D02*
D03*
Y163772D02*
D03*
Y160623D02*
D03*
Y157473D02*
D03*
Y154324D02*
D03*
Y151174D02*
D03*
Y148024D02*
D03*
Y144875D02*
D03*
Y141725D02*
D03*
X196898Y141233D02*
D03*
Y144383D02*
D03*
Y147532D02*
D03*
Y150682D02*
D03*
Y153832D02*
D03*
Y156981D02*
D03*
Y160131D02*
D03*
Y163280D02*
D03*
Y166430D02*
D03*
Y169580D02*
D03*
Y172729D02*
D03*
Y175879D02*
D03*
D32*
X159103Y180800D02*
D03*
X162253D02*
D03*
X165402D02*
D03*
X168552D02*
D03*
X171702D02*
D03*
X174851D02*
D03*
X178001D02*
D03*
X181150D02*
D03*
X184300D02*
D03*
X187450D02*
D03*
X190599D02*
D03*
X193749D02*
D03*
Y136312D02*
D03*
X190599D02*
D03*
X187450D02*
D03*
X184300D02*
D03*
X181150D02*
D03*
X178001D02*
D03*
X174851D02*
D03*
X171702D02*
D03*
X168552D02*
D03*
X165402D02*
D03*
X162253D02*
D03*
X159103D02*
D03*
D33*
X355221Y91164D02*
D03*
Y86636D02*
D03*
D34*
X345379Y88900D02*
D03*
D35*
X316900Y118124D02*
D03*
Y121076D02*
D03*
X311300Y91376D02*
D03*
Y88424D02*
D03*
X348600Y150976D02*
D03*
Y148024D02*
D03*
X286800Y85524D02*
D03*
Y88476D02*
D03*
D36*
X350041Y139700D02*
D03*
X355159D02*
D03*
X67984Y203700D02*
D03*
X73102D02*
D03*
X254041Y21900D02*
D03*
X259159D02*
D03*
X349841Y119400D02*
D03*
X354959D02*
D03*
X279659Y85900D02*
D03*
X274541D02*
D03*
X186641Y72900D02*
D03*
X191759D02*
D03*
X341341Y157900D02*
D03*
X346459D02*
D03*
X341759Y151400D02*
D03*
X336641D02*
D03*
D37*
X243800Y32559D02*
D03*
Y27441D02*
D03*
X324200Y151959D02*
D03*
Y146841D02*
D03*
X191100Y204935D02*
D03*
Y199817D02*
D03*
X368700Y134559D02*
D03*
Y129441D02*
D03*
X140300Y200459D02*
D03*
Y195341D02*
D03*
X148200Y200359D02*
D03*
Y195241D02*
D03*
X212700Y141459D02*
D03*
Y136341D02*
D03*
X369600Y179841D02*
D03*
Y184959D02*
D03*
D38*
X329900Y170272D02*
D03*
X334900D02*
D03*
X339900D02*
D03*
X344900D02*
D03*
X329900Y191728D02*
D03*
X334900D02*
D03*
X339900D02*
D03*
X344900D02*
D03*
X356100Y148272D02*
D03*
X361100D02*
D03*
X366100D02*
D03*
X371100D02*
D03*
X356100Y169728D02*
D03*
X361100D02*
D03*
X366100D02*
D03*
X371100D02*
D03*
D39*
X174154Y56259D02*
D03*
Y52322D02*
D03*
Y48385D02*
D03*
Y44448D02*
D03*
Y40511D02*
D03*
Y36574D02*
D03*
Y32637D02*
D03*
Y28700D02*
D03*
Y24763D02*
D03*
Y20826D02*
D03*
Y16889D02*
D03*
Y12952D02*
D03*
X208800D02*
D03*
Y16889D02*
D03*
Y20826D02*
D03*
Y24763D02*
D03*
Y28700D02*
D03*
Y32637D02*
D03*
Y36574D02*
D03*
Y40511D02*
D03*
Y44448D02*
D03*
Y48385D02*
D03*
Y52322D02*
D03*
Y56259D02*
D03*
D40*
X174154Y8424D02*
D03*
X208800D02*
D03*
D41*
X199351Y57834D02*
D03*
X195414D02*
D03*
X191477D02*
D03*
X187540D02*
D03*
X183603D02*
D03*
D42*
X356800Y128438D02*
D03*
Y134562D02*
D03*
X289600Y158538D02*
D03*
Y164662D02*
D03*
X295800Y164562D02*
D03*
Y158438D02*
D03*
X287600Y203262D02*
D03*
Y197138D02*
D03*
X280700Y197238D02*
D03*
Y203362D02*
D03*
X311400Y132638D02*
D03*
Y138762D02*
D03*
X311200Y117938D02*
D03*
Y124062D02*
D03*
D43*
X212300Y148200D02*
D03*
X206700D02*
D03*
X186800Y79200D02*
D03*
X192400D02*
D03*
D44*
X49300Y111050D02*
D03*
Y105150D02*
D03*
X156000Y200650D02*
D03*
Y194750D02*
D03*
X294900Y180950D02*
D03*
Y175050D02*
D03*
X140200Y172750D02*
D03*
Y178650D02*
D03*
X132100Y178550D02*
D03*
Y172650D02*
D03*
D45*
X320262Y73300D02*
D03*
X314138D02*
D03*
D46*
X186550Y67900D02*
D03*
X192450D02*
D03*
X208650Y161200D02*
D03*
X214550D02*
D03*
X208650Y155400D02*
D03*
X214550D02*
D03*
X184750Y193300D02*
D03*
X190650D02*
D03*
X185250Y212200D02*
D03*
X191150D02*
D03*
D47*
X377400Y110821D02*
D03*
X381140Y100979D02*
D03*
X373660D02*
D03*
D48*
X259500Y8212D02*
D03*
Y12188D02*
D03*
D49*
X134747Y118091D02*
D03*
X136716D02*
D03*
X138684D02*
D03*
X140653D02*
D03*
Y124509D02*
D03*
X138684D02*
D03*
X136716D02*
D03*
X134747D02*
D03*
D50*
X140909Y120316D02*
D03*
Y122284D02*
D03*
X134491D02*
D03*
Y120316D02*
D03*
D93*
X65979Y145060D02*
X75821D01*
X64798D02*
X65979D01*
X62303Y147075D02*
X63072Y146305D01*
X63553D01*
X64798Y145060D01*
X53127Y148386D02*
X57621D01*
X52934Y148194D02*
X53127Y148386D01*
X58121Y147886D02*
X61700D01*
X51517Y147969D02*
X51741Y148194D01*
X52934D01*
X61700Y147886D02*
X62303Y147284D01*
Y147075D02*
Y147284D01*
X57621Y148386D02*
X58121Y147886D01*
X65979Y152540D02*
X75821D01*
X64798D02*
X65979D01*
X63553Y151295D02*
X64798Y152540D01*
X63072Y151295D02*
X63553D01*
X62303Y150316D02*
Y150525D01*
X63072Y151295D01*
X52934Y150407D02*
X53127Y150214D01*
X58378D01*
X51517Y150631D02*
X51741Y150407D01*
X52934D01*
X61700Y149714D02*
X62303Y150316D01*
X58878Y149714D02*
X61700D01*
X58378Y150214D02*
X58878Y149714D01*
X161783Y135842D02*
X162253Y136312D01*
X161783Y134482D02*
Y135842D01*
X161592Y134292D02*
X161783Y134482D01*
X161592Y131382D02*
Y134292D01*
X158186Y127976D02*
X161592Y131382D01*
X158186Y107001D02*
Y127976D01*
X145857Y94672D02*
X158186Y107001D01*
X159103Y136312D02*
X159573Y135842D01*
Y134482D02*
Y135842D01*
Y134482D02*
X159764Y134292D01*
Y132139D02*
Y134292D01*
X156358Y128733D02*
X159764Y132139D01*
X156358Y107758D02*
Y128733D01*
X145100Y96500D02*
X156358Y107758D01*
X101171Y94672D02*
X145857D01*
X101928Y96500D02*
X145100D01*
X83400Y112443D02*
X101171Y94672D01*
X83400Y112443D02*
Y145437D01*
X85228Y113200D02*
X101928Y96500D01*
X80951Y147886D02*
X83400Y145437D01*
X80100Y147886D02*
X80951D01*
X79497Y147284D02*
X80100Y147886D01*
X79497Y147075D02*
Y147284D01*
X78728Y146305D02*
X79497Y147075D01*
X78247Y146305D02*
X78728D01*
X77002Y145060D02*
X78247Y146305D01*
X75821Y145060D02*
X77002D01*
X85228Y113200D02*
Y146194D01*
X81708Y149714D02*
X85228Y146194D01*
X80100Y149714D02*
X81708D01*
X79497Y150316D02*
X80100Y149714D01*
X79497Y150316D02*
Y150525D01*
X78728Y151295D02*
X79497Y150525D01*
X78247Y151295D02*
X78728D01*
X77002Y152540D02*
X78247Y151295D01*
X75821Y152540D02*
X77002D01*
X70900Y147600D02*
X71055D01*
X71588Y148133D02*
X75154D01*
X71055Y147600D02*
X71588Y148133D01*
X75154D02*
X75821Y148800D01*
X196898Y156981D02*
X197143Y156736D01*
X207314D01*
X208650Y155400D01*
X196898Y160131D02*
X207581D01*
X208650Y161200D01*
D94*
X191100Y199700D02*
X191217Y199817D01*
X190939Y199700D02*
X191100D01*
X286700Y213500D02*
X298100Y224900D01*
X263446Y213500D02*
X286700D01*
X249763Y199817D02*
X263446Y213500D01*
X298100Y224900D02*
Y240896D01*
X190650Y193300D02*
X190875Y193525D01*
X190615Y193265D02*
X190650Y193300D01*
X190875Y199636D02*
X190939Y199700D01*
X191217Y199817D02*
X249763D01*
X190875Y193525D02*
Y199636D01*
X191000Y216150D02*
Y224811D01*
Y213200D02*
Y216150D01*
Y212350D02*
Y213200D01*
X190615Y180816D02*
Y193265D01*
X191000Y212350D02*
X191150Y212200D01*
X191125Y212175D02*
X191150Y212200D01*
X191125Y204960D02*
Y212175D01*
X191100Y204935D02*
X191125Y204960D01*
X190599Y180800D02*
X190615Y180816D01*
D95*
X359781Y139519D02*
X359800Y139500D01*
X355159Y139700D02*
X355340Y139519D01*
X307343Y163857D02*
X309131Y162069D01*
X302500Y163857D02*
X307343D01*
X309131Y162069D02*
X314300D01*
X362181Y190138D02*
Y192281D01*
X362200Y192300D01*
X356100Y184057D02*
X362181Y190138D01*
X376100Y192300D02*
X376119Y192281D01*
Y184741D02*
Y192281D01*
Y184741D02*
X376300Y184561D01*
X369000Y192300D02*
X369019Y192281D01*
Y185390D02*
Y192281D01*
Y185390D02*
X369450Y184959D01*
X369600D01*
X280600Y190900D02*
X280619Y190919D01*
Y197157D01*
X280700Y197238D01*
X294100Y191500D02*
X294119Y191519D01*
Y197362D01*
X294200Y197442D01*
X289600Y152000D02*
Y158538D01*
X324200Y206200D02*
X324219Y206219D01*
X329762D01*
X329800Y206258D01*
X49450Y105000D02*
X55400D01*
X49300Y105150D02*
X49450Y105000D01*
D96*
X322200Y191900D02*
X322240Y191860D01*
D97*
X100883Y247300D02*
X122000D01*
X98295Y249838D02*
Y250036D01*
X99400Y247300D02*
X100833D01*
X98295Y248405D02*
X99400Y247300D01*
X100833D02*
X100883D01*
X98295Y248405D02*
Y250036D01*
X99448Y251189D01*
X183716D01*
X191000D01*
D98*
X283169Y128600D02*
D03*
X104232D02*
D03*
D99*
X49704D02*
D03*
X337696D02*
D03*
D100*
X377800Y129800D02*
D03*
D101*
X11728Y139128D02*
D03*
Y117672D02*
D03*
D102*
X23657Y137947D02*
D03*
Y118853D02*
D03*
D103*
X7000Y97600D02*
D03*
Y77600D02*
D03*
Y87600D02*
D03*
Y178700D02*
D03*
Y168700D02*
D03*
Y188700D02*
D03*
D104*
Y67600D02*
D03*
Y158700D02*
D03*
D105*
X65900Y241900D02*
D03*
X318600Y16000D02*
D03*
X65900D02*
D03*
X318600Y241900D02*
D03*
D106*
X360000Y200000D02*
D03*
Y80000D02*
D03*
Y60000D02*
D03*
X340000Y80000D02*
D03*
Y60000D02*
D03*
X320000Y220000D02*
D03*
Y200000D02*
D03*
Y80000D02*
D03*
Y60000D02*
D03*
Y40000D02*
D03*
X300000Y200000D02*
D03*
Y180000D02*
D03*
Y80000D02*
D03*
Y60000D02*
D03*
Y40000D02*
D03*
Y20000D02*
D03*
X280000Y100000D02*
D03*
Y60000D02*
D03*
Y40000D02*
D03*
X260000Y200000D02*
D03*
Y100000D02*
D03*
Y80000D02*
D03*
Y60000D02*
D03*
Y40000D02*
D03*
X240000Y160000D02*
D03*
Y120000D02*
D03*
Y100000D02*
D03*
Y80000D02*
D03*
Y60000D02*
D03*
X220000Y80000D02*
D03*
Y60000D02*
D03*
Y40000D02*
D03*
X200000Y80000D02*
D03*
Y40000D02*
D03*
Y20000D02*
D03*
X180000Y200000D02*
D03*
Y140000D02*
D03*
Y80000D02*
D03*
Y60000D02*
D03*
Y40000D02*
D03*
Y20000D02*
D03*
X160000Y200000D02*
D03*
Y160000D02*
D03*
Y140000D02*
D03*
Y100000D02*
D03*
Y40000D02*
D03*
X140000Y140000D02*
D03*
Y100000D02*
D03*
Y80000D02*
D03*
Y60000D02*
D03*
Y20000D02*
D03*
X120000Y200000D02*
D03*
Y140000D02*
D03*
Y80000D02*
D03*
Y60000D02*
D03*
Y40000D02*
D03*
Y20000D02*
D03*
X100000Y160000D02*
D03*
Y80000D02*
D03*
Y60000D02*
D03*
Y40000D02*
D03*
Y20000D02*
D03*
X80000Y240000D02*
D03*
Y220000D02*
D03*
Y160000D02*
D03*
Y140000D02*
D03*
Y120000D02*
D03*
Y100000D02*
D03*
Y80000D02*
D03*
Y60000D02*
D03*
Y40000D02*
D03*
Y20000D02*
D03*
X60000Y220000D02*
D03*
Y200000D02*
D03*
Y160000D02*
D03*
Y140000D02*
D03*
Y100000D02*
D03*
Y80000D02*
D03*
Y60000D02*
D03*
Y40000D02*
D03*
X40000Y200000D02*
D03*
Y160000D02*
D03*
Y100000D02*
D03*
Y80000D02*
D03*
Y60000D02*
D03*
X20000Y200000D02*
D03*
Y160000D02*
D03*
Y100000D02*
D03*
Y80000D02*
D03*
Y60000D02*
D03*
D107*
X297565Y245787D02*
D03*
X293307Y240872D02*
D03*
X293381Y238273D02*
D03*
X294409Y235885D02*
D03*
Y233285D02*
D03*
Y230685D02*
D03*
Y228085D02*
D03*
X293596Y225615D02*
D03*
X291757Y223777D02*
D03*
X289919Y221938D02*
D03*
X288080Y220100D02*
D03*
X283873Y217191D02*
D03*
X281273D02*
D03*
X278673D02*
D03*
X276073D02*
D03*
X273472D02*
D03*
X270872D02*
D03*
X268272D02*
D03*
X265672D02*
D03*
X263073Y217148D02*
D03*
X260736Y216009D02*
D03*
X258897Y214171D02*
D03*
X257059Y212333D02*
D03*
X255220Y210494D02*
D03*
X253382Y208656D02*
D03*
X251543Y206817D02*
D03*
X249705Y204979D02*
D03*
X247561Y203508D02*
D03*
X244961D02*
D03*
X242361D02*
D03*
X239761D02*
D03*
X237161D02*
D03*
X234561D02*
D03*
X231961D02*
D03*
X229361D02*
D03*
X226761D02*
D03*
X224161D02*
D03*
X221561D02*
D03*
X218961D02*
D03*
X216361D02*
D03*
X213761D02*
D03*
X211161D02*
D03*
X208561D02*
D03*
X205961D02*
D03*
X203361D02*
D03*
X200761D02*
D03*
X198161D02*
D03*
X186633Y198409D02*
D03*
X186924Y185642D02*
D03*
X194306Y185928D02*
D03*
X195305Y190928D02*
D03*
X195374Y193527D02*
D03*
X195321Y196126D02*
D03*
X197921D02*
D03*
X200521D02*
D03*
X203121D02*
D03*
X205721D02*
D03*
X208321D02*
D03*
X210921D02*
D03*
X213521D02*
D03*
X216121D02*
D03*
X218721D02*
D03*
X221321D02*
D03*
X223921D02*
D03*
X226521D02*
D03*
X229121D02*
D03*
X231721D02*
D03*
X234321D02*
D03*
X236921D02*
D03*
X239521D02*
D03*
X242121D02*
D03*
X244721D02*
D03*
X247321D02*
D03*
X249921Y196134D02*
D03*
X252310Y197159D02*
D03*
X254156Y198991D02*
D03*
X255994Y200829D02*
D03*
X257833Y202668D02*
D03*
X259671Y204506D02*
D03*
X261510Y206345D02*
D03*
X263348Y208183D02*
D03*
X265377Y209809D02*
D03*
X267977D02*
D03*
X270577D02*
D03*
X273177D02*
D03*
X275777D02*
D03*
X278377D02*
D03*
X280977D02*
D03*
X283577D02*
D03*
X286177D02*
D03*
X288704Y210420D02*
D03*
X290609Y212190D02*
D03*
X292448Y214028D02*
D03*
X294286Y215866D02*
D03*
X296125Y217705D02*
D03*
X297963Y219543D02*
D03*
X299801Y221382D02*
D03*
X301457Y223387D02*
D03*
X301791Y225965D02*
D03*
Y228566D02*
D03*
Y231166D02*
D03*
Y233766D02*
D03*
Y236366D02*
D03*
X302879Y238727D02*
D03*
X187309Y217219D02*
D03*
X186743Y206955D02*
D03*
X186603Y204359D02*
D03*
X187346Y201867D02*
D03*
X195597Y204295D02*
D03*
X195482Y206893D02*
D03*
X195721Y209482D02*
D03*
X195874Y212077D02*
D03*
X195792Y214676D02*
D03*
X194691Y217032D02*
D03*
X70900Y150200D02*
D03*
Y147600D02*
D03*
X270300Y77400D02*
D03*
X33600Y128200D02*
D03*
Y125600D02*
D03*
X238500Y25400D02*
D03*
X224800Y24200D02*
D03*
X362800Y124100D02*
D03*
X356700Y124200D02*
D03*
X218500Y100500D02*
D03*
X213027Y100778D02*
D03*
X362300Y100700D02*
D03*
X378900Y94400D02*
D03*
X192300Y164100D02*
D03*
X147600Y170000D02*
D03*
X177500Y73100D02*
D03*
X330500Y142300D02*
D03*
X359800Y139500D02*
D03*
X324100Y142300D02*
D03*
X140400D02*
D03*
X144700Y111100D02*
D03*
X314300Y162069D02*
D03*
X302400Y151900D02*
D03*
X185900Y115100D02*
D03*
X205900Y127300D02*
D03*
X206300Y173512D02*
D03*
X150200Y173200D02*
D03*
Y176700D02*
D03*
X206300Y168900D02*
D03*
X362200Y192300D02*
D03*
X376100D02*
D03*
X369000D02*
D03*
X301700Y202800D02*
D03*
X294100Y191500D02*
D03*
X280600Y190900D02*
D03*
X289600Y152000D02*
D03*
X212500Y132400D02*
D03*
X324200Y206200D02*
D03*
X125800Y116700D02*
D03*
X120900Y122400D02*
D03*
X138633Y126505D02*
D03*
X143918Y27312D02*
D03*
X206300Y178124D02*
D03*
X294000Y169100D02*
D03*
X308400Y170100D02*
D03*
Y175400D02*
D03*
X322200Y191900D02*
D03*
X55400Y105000D02*
D03*
X136000Y157400D02*
D03*
X135300Y195200D02*
D03*
X159900Y188600D02*
D03*
X148200Y206300D02*
D03*
X140200D02*
D03*
X188000Y47200D02*
D03*
X307400Y193400D02*
D03*
X371300Y155400D02*
D03*
X304700Y79100D02*
D03*
X156100Y206300D02*
D03*
X167900Y188600D02*
D03*
X163800D02*
D03*
X327500Y162400D02*
D03*
X224500Y157100D02*
D03*
X66900Y169400D02*
D03*
X150200Y160500D02*
D03*
Y157100D02*
D03*
X106900Y203900D02*
D03*
X150200Y163600D02*
D03*
Y167000D02*
D03*
X145500D02*
D03*
X143500Y130800D02*
D03*
X314900Y61300D02*
D03*
X361000Y179200D02*
D03*
X324100Y200900D02*
D03*
X80500Y199600D02*
D03*
X160300Y127100D02*
D03*
X146800Y40500D02*
D03*
X249000Y29800D02*
D03*
X228600Y29500D02*
D03*
D108*
X286400Y100700D02*
D03*
X163800Y59800D02*
D03*
M02*
