G04*
G04 #@! TF.GenerationSoftware,Altium Limited,Altium Designer,19.1.9 (167)*
G04*
G04 Layer_Physical_Order=4*
G04 Layer_Color=16711680*
%FSLAX25Y25*%
%MOIN*%
G70*
G01*
G75*
%ADD11C,0.01000*%
%ADD12C,0.00394*%
%ADD15C,0.00787*%
%ADD16C,0.00500*%
%ADD17C,0.00800*%
%ADD18C,0.00600*%
%ADD19C,0.00050*%
%ADD20C,0.00100*%
%ADD21C,0.00591*%
%ADD22C,0.00197*%
%ADD23C,0.00400*%
%ADD51R,0.03800X0.03700*%
%ADD98C,0.01028*%
%ADD100C,0.01500*%
%ADD103C,0.25000*%
%ADD104O,0.10000X0.20000*%
%ADD105R,0.08000X0.08000*%
%ADD106O,0.06693X0.04724*%
%ADD107O,0.05512X0.03937*%
%ADD108C,0.05906*%
%ADD109R,0.05906X0.05906*%
%ADD110C,0.12000*%
%ADD111C,0.01800*%
%ADD112C,0.01600*%
%ADD113C,0.03200*%
%ADD124R,0.06890X0.01575*%
%ADD125R,0.09843X0.05610*%
%ADD126R,0.05748X0.07874*%
G36*
X321802Y254659D02*
X323667Y254159D01*
X325451Y253420D01*
X327123Y252455D01*
X328655Y251280D01*
X330020Y249915D01*
X331195Y248383D01*
X332161Y246711D01*
X332899Y244927D01*
X333399Y243062D01*
X333651Y241148D01*
X333651Y240182D01*
Y234277D01*
X333654Y234264D01*
X333651Y234252D01*
X333685Y232900D01*
X333693Y232863D01*
X333689Y232825D01*
X333954Y230133D01*
X333969Y230085D01*
Y230034D01*
X334497Y227382D01*
X334516Y227335D01*
X334521Y227285D01*
X335306Y224697D01*
X335330Y224652D01*
X335340Y224602D01*
X336375Y222104D01*
X336403Y222062D01*
X336418Y222013D01*
X337692Y219628D01*
X337724Y219589D01*
X337744Y219542D01*
X339246Y217294D01*
X339282Y217258D01*
X339306Y217213D01*
X341022Y215123D01*
X341061Y215091D01*
X341089Y215049D01*
X343001Y213136D01*
X343043Y213108D01*
X343075Y213069D01*
X345166Y211353D01*
X345211Y211329D01*
X345246Y211294D01*
X347495Y209791D01*
X347542Y209772D01*
X347581Y209740D01*
X349966Y208465D01*
X350014Y208450D01*
X350057Y208422D01*
X352555Y207387D01*
X352605Y207377D01*
X352649Y207353D01*
X355238Y206568D01*
X355288Y206563D01*
X355334Y206544D01*
X357987Y206016D01*
X358038D01*
X358086Y206002D01*
X360777Y205736D01*
X360815Y205740D01*
X360853Y205732D01*
X362205Y205699D01*
X362217Y205701D01*
X362230Y205698D01*
X371069D01*
X372983Y205446D01*
X374848Y204947D01*
X376632Y204208D01*
X378304Y203242D01*
X379836Y202067D01*
X381201Y200702D01*
X382376Y199170D01*
X383342Y197498D01*
X384081Y195714D01*
X384580Y193849D01*
X384832Y191935D01*
Y190970D01*
Y64986D01*
Y64020D01*
X384580Y62106D01*
X384081Y60241D01*
X383342Y58457D01*
X382376Y56785D01*
X381201Y55254D01*
X379836Y53888D01*
X378304Y52713D01*
X376632Y51748D01*
X374848Y51009D01*
X372983Y50509D01*
X371069Y50257D01*
X370104Y50257D01*
X362230D01*
X362217Y50255D01*
X362205Y50257D01*
X360852Y50224D01*
X360815Y50215D01*
X360777Y50219D01*
X358086Y49954D01*
X358038Y49939D01*
X357987D01*
X355334Y49412D01*
X355288Y49392D01*
X355238Y49387D01*
X352649Y48602D01*
X352605Y48578D01*
X352555Y48568D01*
X350057Y47534D01*
X350014Y47506D01*
X349966Y47491D01*
X347581Y46216D01*
X347542Y46184D01*
X347495Y46164D01*
X345246Y44662D01*
X345211Y44626D01*
X345166Y44602D01*
X343075Y42887D01*
X343043Y42847D01*
X343001Y42819D01*
X341089Y40907D01*
X341061Y40865D01*
X341022Y40833D01*
X339306Y38742D01*
X339282Y38698D01*
X339246Y38662D01*
X337744Y36413D01*
X337724Y36366D01*
X337692Y36327D01*
X336418Y33942D01*
X336403Y33894D01*
X336375Y33852D01*
X335340Y31353D01*
X335330Y31304D01*
X335306Y31259D01*
X334521Y28671D01*
X334516Y28620D01*
X334497Y28574D01*
X333969Y25921D01*
Y25871D01*
X333954Y25822D01*
X333689Y23131D01*
X333693Y23093D01*
X333685Y23056D01*
X333651Y21703D01*
X333654Y21691D01*
X333651Y21678D01*
Y14808D01*
X333399Y12893D01*
X332899Y11029D01*
X332161Y9245D01*
X331195Y7573D01*
X330020Y6041D01*
X328655Y4676D01*
X327123Y3500D01*
X325451Y2535D01*
X323667Y1796D01*
X321802Y1297D01*
X319888Y1044D01*
X205416D01*
Y17700D01*
X205354Y18012D01*
X205177Y18277D01*
X204912Y18454D01*
X204600Y18516D01*
X178800D01*
X178488Y18454D01*
X178223Y18277D01*
X178046Y18012D01*
X177984Y17700D01*
Y1044D01*
X65989D01*
X64075Y1297D01*
X62210Y1796D01*
X60426Y2535D01*
X58754Y3500D01*
X57222Y4676D01*
X55857Y6041D01*
X54681Y7573D01*
X53716Y9245D01*
X52977Y11029D01*
X52478Y12893D01*
X52226Y14808D01*
X52226Y15773D01*
Y21679D01*
X52223Y21691D01*
X52225Y21704D01*
X52192Y23056D01*
X52184Y23093D01*
X52188Y23131D01*
X51923Y25822D01*
X51908Y25871D01*
Y25921D01*
X51380Y28574D01*
X51361Y28620D01*
X51356Y28671D01*
X50571Y31259D01*
X50547Y31304D01*
X50537Y31353D01*
X49502Y33852D01*
X49474Y33894D01*
X49459Y33942D01*
X48184Y36327D01*
X48152Y36366D01*
X48133Y36413D01*
X46630Y38662D01*
X46595Y38698D01*
X46571Y38742D01*
X44855Y40833D01*
X44816Y40865D01*
X44788Y40907D01*
X42875Y42819D01*
X42834Y42847D01*
X42801Y42887D01*
X40711Y44602D01*
X40666Y44626D01*
X40630Y44662D01*
X38382Y46164D01*
X38335Y46184D01*
X38296Y46216D01*
X35911Y47491D01*
X35862Y47506D01*
X35820Y47534D01*
X33322Y48568D01*
X33272Y48578D01*
X33227Y48602D01*
X30639Y49387D01*
X30589Y49392D01*
X30542Y49412D01*
X27890Y49939D01*
X27839D01*
X27791Y49954D01*
X25099Y50219D01*
X25061Y50215D01*
X25024Y50224D01*
X23672Y50257D01*
X23660Y50255D01*
X23647Y50257D01*
X15773Y50257D01*
X14808Y50257D01*
X12893Y50509D01*
X11029Y51009D01*
X9245Y51748D01*
X7573Y52713D01*
X6041Y53888D01*
X4676Y55254D01*
X3500Y56785D01*
X2535Y58457D01*
X1796Y60241D01*
X1297Y62106D01*
X1044Y64020D01*
X1044Y64986D01*
Y83567D01*
X2045Y83981D01*
X3963Y82063D01*
X4393Y81775D01*
X4648Y81725D01*
X4699Y81631D01*
X4872Y80943D01*
X4862Y80690D01*
X4324Y80277D01*
X3722Y79493D01*
X3344Y78580D01*
X3215Y77600D01*
X3344Y76620D01*
X3722Y75707D01*
X4324Y74923D01*
X5107Y74322D01*
X6020Y73944D01*
X7000Y73815D01*
X7980Y73944D01*
X8893Y74322D01*
X9676Y74923D01*
X10278Y75707D01*
X10656Y76620D01*
X10785Y77600D01*
X10656Y78580D01*
X10278Y79493D01*
X9676Y80277D01*
X9158Y80674D01*
X9489Y81674D01*
X103400D01*
X103907Y81775D01*
X104337Y82063D01*
X126737Y104463D01*
X127025Y104893D01*
X127126Y105400D01*
Y115804D01*
X127307Y116076D01*
X127431Y116700D01*
X127307Y117324D01*
X127126Y117596D01*
Y146434D01*
X136574Y155883D01*
X136624Y155893D01*
X137153Y156246D01*
X137507Y156776D01*
X137631Y157400D01*
X138497Y158174D01*
X140257D01*
X144392Y154039D01*
X144827Y153748D01*
X145339Y153646D01*
X222386D01*
X222899Y153748D01*
X223333Y154039D01*
X224274Y154980D01*
X225274Y154566D01*
Y136049D01*
X176563Y87337D01*
X176275Y86907D01*
X176174Y86400D01*
Y73996D01*
X175993Y73724D01*
X175869Y73100D01*
X175993Y72476D01*
X176347Y71947D01*
X176876Y71593D01*
X177500Y71469D01*
X178124Y71593D01*
X178654Y71947D01*
X179007Y72476D01*
X179131Y73100D01*
X179007Y73724D01*
X178825Y73996D01*
Y85851D01*
X227537Y134563D01*
X227825Y134993D01*
X227925Y135500D01*
Y157970D01*
X227825Y158477D01*
X227537Y158907D01*
X223983Y162462D01*
X224365Y163386D01*
X225941D01*
X285431Y103896D01*
X285157Y102756D01*
X284670Y102430D01*
X284139Y101636D01*
X283953Y100700D01*
X284139Y99764D01*
X284670Y98970D01*
X285464Y98439D01*
X286400Y98253D01*
X287336Y98439D01*
X288130Y98970D01*
X288456Y99457D01*
X289596Y99730D01*
X296264Y93063D01*
X296694Y92775D01*
X297201Y92674D01*
X378063D01*
X378446Y91751D01*
X364221Y77526D01*
X308149D01*
X306271Y79404D01*
X306207Y79724D01*
X305854Y80253D01*
X305324Y80607D01*
X304700Y80731D01*
X304076Y80607D01*
X303547Y80253D01*
X303193Y79724D01*
X303069Y79100D01*
X303193Y78476D01*
X303547Y77947D01*
X304076Y77593D01*
X304397Y77529D01*
X306663Y75263D01*
X307093Y74975D01*
X307600Y74875D01*
X364770D01*
X365277Y74975D01*
X365707Y75263D01*
X382637Y92193D01*
X382925Y92623D01*
X383026Y93130D01*
Y111170D01*
X382925Y111677D01*
X382637Y112107D01*
X355280Y139465D01*
X355261Y139452D01*
X355223Y139423D01*
X355185Y139392D01*
X355183Y139390D01*
X355181Y139388D01*
X355176Y139383D01*
X355169Y139377D01*
X355152Y139359D01*
X355130Y139337D01*
X355109Y139312D01*
X355085Y139283D01*
X355065Y139253D01*
X355047Y139223D01*
X354947D01*
Y139798D01*
X354487Y140258D01*
X354477Y140243D01*
X354452Y140213D01*
Y140211D01*
X354448Y140209D01*
X354439Y140198D01*
X354422Y140182D01*
X354399Y140158D01*
X354372Y140131D01*
X354337Y140098D01*
X354295Y140061D01*
X354250Y140023D01*
X354248Y140022D01*
X354240Y140016D01*
X354229Y140007D01*
X354217Y139996D01*
X354200Y139981D01*
X354180Y139965D01*
X354160Y139947D01*
X354137Y139927D01*
X354091Y139883D01*
X354046Y139839D01*
X354024Y139818D01*
X354004Y139796D01*
X353986Y139776D01*
X353971Y139756D01*
Y139754D01*
X353967Y139752D01*
X353964Y139747D01*
X353960Y139739D01*
X353947Y139719D01*
X353933Y139696D01*
X353920Y139667D01*
X353907Y139636D01*
X353900Y139601D01*
X353896Y139568D01*
Y139567D01*
Y139565D01*
X353898Y139554D01*
X353900Y139535D01*
X353906Y139515D01*
X353913Y139490D01*
X353926Y139465D01*
X353942Y139439D01*
X353964Y139414D01*
X353967Y139410D01*
X353977Y139403D01*
X353989Y139394D01*
X354009Y139381D01*
X354035Y139370D01*
X354064Y139359D01*
X354099Y139352D01*
X354137Y139350D01*
X354148D01*
X354155Y139352D01*
X354177Y139354D01*
X354202Y139359D01*
X354229Y139366D01*
X354260Y139379D01*
X354290Y139395D01*
X354317Y139417D01*
X354321Y139421D01*
X354328Y139430D01*
X354339Y139444D01*
X354350Y139466D01*
X354362Y139492D01*
X354373Y139525D01*
X354381Y139561D01*
X354384Y139603D01*
X354543Y139586D01*
Y139585D01*
X354541Y139579D01*
Y139570D01*
X354539Y139557D01*
X354535Y139543D01*
X354532Y139526D01*
X354526Y139506D01*
X354521Y139486D01*
X354506Y139443D01*
X354484Y139399D01*
X354472Y139377D01*
X354455Y139355D01*
X354439Y139335D01*
X354421Y139317D01*
X354419Y139315D01*
X354415Y139313D01*
X354410Y139308D01*
X354401Y139303D01*
X354390Y139295D01*
X354377Y139288D01*
X354362Y139279D01*
X354344Y139270D01*
X354324Y139261D01*
X354302Y139252D01*
X354279Y139244D01*
X354253Y139237D01*
X354226Y139232D01*
X354197Y139226D01*
X354166Y139224D01*
X354133Y139223D01*
X354115D01*
X354102Y139224D01*
X354088Y139226D01*
X354069Y139228D01*
X354049Y139232D01*
X354029Y139235D01*
X353982Y139248D01*
X353935Y139266D01*
X353911Y139277D01*
X353887Y139290D01*
X353866Y139306D01*
X353846Y139324D01*
X353844Y139326D01*
X353840Y139328D01*
X353836Y139335D01*
X353829Y139343D01*
X353820Y139352D01*
X353811Y139365D01*
X353802Y139377D01*
X353791Y139394D01*
X353773Y139428D01*
X353754Y139472D01*
X353747Y139494D01*
X353744Y139519D01*
X353740Y139545D01*
X353738Y139572D01*
Y139576D01*
Y139585D01*
X353740Y139599D01*
X353742Y139619D01*
X353745Y139641D01*
X353753Y139667D01*
X353760Y139694D01*
X353771Y139721D01*
X353773Y139725D01*
X353776Y139734D01*
X353784Y139749D01*
X353795Y139769D01*
X353809Y139790D01*
X353827Y139818D01*
X353849Y139845D01*
X353875Y139876D01*
X353878Y139880D01*
X353887Y139890D01*
X353896Y139900D01*
X353906Y139909D01*
X353917Y139920D01*
X353931Y139934D01*
X353946Y139949D01*
X353964Y139965D01*
X353982Y139983D01*
X354004Y140003D01*
X354028Y140023D01*
X354053Y140047D01*
X354082Y140071D01*
X354111Y140096D01*
X354113Y140098D01*
X354117Y140102D01*
X354124Y140107D01*
X354133Y140114D01*
X354144Y140125D01*
X354157Y140136D01*
X354186Y140160D01*
X354217Y140187D01*
X354246Y140214D01*
X354271Y140238D01*
X354282Y140247D01*
X354291Y140256D01*
X354293Y140258D01*
X354299Y140263D01*
X354306Y140271D01*
X354315Y140282D01*
X354324Y140295D01*
X354335Y140307D01*
X354357Y140338D01*
X353736D01*
Y140487D01*
X354257D01*
X326907Y167837D01*
X326477Y168125D01*
X325970Y168226D01*
X310183D01*
X310099Y168321D01*
X309740Y169226D01*
X309907Y169476D01*
X310031Y170100D01*
X309907Y170724D01*
X309554Y171254D01*
X309024Y171607D01*
X308400Y171731D01*
X307776Y171607D01*
X307246Y171254D01*
X306893Y170724D01*
X306769Y170100D01*
X306893Y169476D01*
X307060Y169226D01*
X306701Y168321D01*
X306617Y168226D01*
X296451D01*
X295631Y169100D01*
X295507Y169724D01*
X295153Y170254D01*
X294624Y170607D01*
X294303Y170671D01*
X275437Y189537D01*
X275007Y189825D01*
X274500Y189926D01*
X168796D01*
X168524Y190107D01*
X167900Y190231D01*
X167276Y190107D01*
X166746Y189753D01*
X166393Y189224D01*
X166375Y189135D01*
X166360Y189058D01*
X165340D01*
X165325Y189135D01*
X165307Y189224D01*
X164953Y189753D01*
X164424Y190107D01*
X164103Y190171D01*
X149929Y204345D01*
X149480Y204970D01*
X149707Y205676D01*
X149831Y206300D01*
X149707Y206924D01*
X149354Y207453D01*
X148824Y207807D01*
X148200Y207931D01*
X147576Y207807D01*
X147046Y207453D01*
X146693Y206924D01*
X146569Y206300D01*
X146583Y206225D01*
X145882Y205225D01*
X142517D01*
X141816Y206225D01*
X141831Y206300D01*
X141707Y206924D01*
X141353Y207453D01*
X140824Y207807D01*
X140200Y207931D01*
X139576Y207807D01*
X139047Y207453D01*
X138693Y206924D01*
X138569Y206300D01*
X138584Y206225D01*
X137882Y205225D01*
X107796D01*
X107524Y205407D01*
X106900Y205531D01*
X106276Y205407D01*
X105746Y205053D01*
X105393Y204524D01*
X105269Y203900D01*
X105393Y203276D01*
X105746Y202747D01*
X106276Y202393D01*
X106900Y202269D01*
X107524Y202393D01*
X107796Y202574D01*
X147951D01*
X153000Y197526D01*
X152586Y196526D01*
X136196D01*
X135924Y196707D01*
X135300Y196831D01*
X134676Y196707D01*
X134146Y196353D01*
X133793Y195824D01*
X133669Y195200D01*
X133793Y194576D01*
X134146Y194046D01*
X134676Y193693D01*
X135300Y193569D01*
X135924Y193693D01*
X136196Y193875D01*
X139828D01*
Y194350D01*
X139830Y194365D01*
Y194381D01*
X139832Y194420D01*
X139837Y194460D01*
X139842Y194503D01*
X139852Y194543D01*
X139857Y194563D01*
X139863Y194580D01*
Y194581D01*
X139864Y194583D01*
X139870Y194594D01*
X139877Y194611D01*
X139890Y194631D01*
X139906Y194652D01*
X139928Y194676D01*
X139953Y194698D01*
X139983Y194720D01*
X139985D01*
X139986Y194722D01*
X139997Y194729D01*
X140015Y194736D01*
X140039Y194747D01*
X140066Y194756D01*
X140099Y194765D01*
X140134Y194771D01*
X140172Y194773D01*
X140174D01*
X140177D01*
X140185D01*
X140194Y194771D01*
X140207D01*
X140219Y194769D01*
X140250Y194762D01*
X140287Y194751D01*
X140325Y194736D01*
X140363Y194714D01*
X140381Y194700D01*
X140399Y194685D01*
X140401Y194683D01*
X140403Y194682D01*
X140409Y194676D01*
X140414Y194669D01*
X140421Y194660D01*
X140429Y194649D01*
X140438Y194634D01*
X140449Y194620D01*
X140458Y194602D01*
X140467Y194581D01*
X140478Y194560D01*
X140487Y194536D01*
X140494Y194509D01*
X140503Y194481D01*
X140509Y194450D01*
X140514Y194418D01*
X140516Y194421D01*
X140520Y194429D01*
X140527Y194439D01*
X140534Y194454D01*
X140554Y194487D01*
X140567Y194503D01*
X140578Y194518D01*
X140581Y194521D01*
X140591Y194530D01*
X140605Y194545D01*
X140623Y194563D01*
X140649Y194583D01*
X140676Y194607D01*
X140709Y194631D01*
X140745Y194656D01*
X141087Y194873D01*
Y194665D01*
X140825Y194500D01*
X140823D01*
X140820Y194496D01*
X140814Y194492D01*
X140807Y194487D01*
X140787Y194474D01*
X140762Y194458D01*
X140734Y194438D01*
X140705Y194418D01*
X140678Y194398D01*
X140652Y194379D01*
X140651Y194378D01*
X140643Y194372D01*
X140632Y194363D01*
X140620Y194350D01*
X140592Y194323D01*
X140580Y194308D01*
X140569Y194294D01*
X140567Y194292D01*
X140565Y194289D01*
X140561Y194281D01*
X140556Y194270D01*
X140550Y194259D01*
X140545Y194247D01*
X140536Y194218D01*
Y194216D01*
X140534Y194212D01*
Y194205D01*
X140532Y194196D01*
X140531Y194183D01*
Y194168D01*
X140529Y194148D01*
Y193934D01*
X141087D01*
Y193875D01*
X147728D01*
Y194250D01*
X147730Y194265D01*
Y194281D01*
X147732Y194319D01*
X147737Y194360D01*
X147742Y194403D01*
X147752Y194443D01*
X147757Y194463D01*
X147763Y194480D01*
Y194482D01*
X147764Y194483D01*
X147770Y194494D01*
X147777Y194511D01*
X147790Y194531D01*
X147806Y194553D01*
X147828Y194576D01*
X147854Y194598D01*
X147883Y194620D01*
X147885D01*
X147886Y194622D01*
X147897Y194629D01*
X147915Y194636D01*
X147939Y194647D01*
X147966Y194656D01*
X147999Y194665D01*
X148034Y194671D01*
X148072Y194673D01*
X148074D01*
X148077D01*
X148085D01*
X148094Y194671D01*
X148107D01*
X148119Y194669D01*
X148150Y194662D01*
X148187Y194651D01*
X148225Y194636D01*
X148263Y194614D01*
X148281Y194600D01*
X148299Y194585D01*
X148301Y194583D01*
X148303Y194582D01*
X148309Y194576D01*
X148314Y194569D01*
X148321Y194560D01*
X148329Y194549D01*
X148338Y194534D01*
X148349Y194520D01*
X148358Y194501D01*
X148367Y194482D01*
X148378Y194460D01*
X148387Y194436D01*
X148394Y194409D01*
X148403Y194381D01*
X148409Y194351D01*
X148414Y194318D01*
X148416Y194321D01*
X148420Y194329D01*
X148427Y194340D01*
X148434Y194354D01*
X148454Y194387D01*
X148467Y194403D01*
X148478Y194418D01*
X148481Y194421D01*
X148491Y194430D01*
X148505Y194445D01*
X148523Y194463D01*
X148549Y194483D01*
X148576Y194507D01*
X148609Y194531D01*
X148645Y194556D01*
X148987Y194773D01*
Y194565D01*
X148725Y194400D01*
X148723D01*
X148720Y194396D01*
X148714Y194392D01*
X148707Y194387D01*
X148687Y194374D01*
X148662Y194358D01*
X148634Y194338D01*
X148605Y194318D01*
X148578Y194298D01*
X148552Y194280D01*
X148551Y194278D01*
X148543Y194272D01*
X148532Y194263D01*
X148520Y194250D01*
X148492Y194223D01*
X148480Y194209D01*
X148469Y194194D01*
X148467Y194192D01*
X148465Y194188D01*
X148461Y194181D01*
X148456Y194170D01*
X148451Y194159D01*
X148445Y194147D01*
X148436Y194117D01*
Y194116D01*
X148434Y194112D01*
Y194105D01*
X148432Y194096D01*
X148431Y194083D01*
Y194068D01*
X148429Y194048D01*
Y193875D01*
X152651D01*
X158354Y188172D01*
X158393Y187976D01*
X158747Y187446D01*
X159276Y187093D01*
X159900Y186969D01*
X160524Y187093D01*
X161054Y187446D01*
X161298Y187813D01*
X161319Y187824D01*
X161850Y187907D01*
X162396Y187821D01*
X162646Y187446D01*
X163176Y187093D01*
X163800Y186969D01*
X164424Y187093D01*
X164953Y187446D01*
X165307Y187976D01*
X165325Y188065D01*
X165340Y188142D01*
X166360D01*
X166375Y188065D01*
X166393Y187976D01*
X166746Y187446D01*
X167276Y187093D01*
X167900Y186969D01*
X168524Y187093D01*
X168796Y187275D01*
X273951D01*
X277376Y183849D01*
X276993Y182925D01*
X203900D01*
X203393Y182825D01*
X202963Y182537D01*
X198665Y178240D01*
X151369D01*
X150912Y178149D01*
X150824Y178207D01*
X150200Y178331D01*
X149576Y178207D01*
X149047Y177854D01*
X148693Y177324D01*
X148569Y176700D01*
X148693Y176076D01*
X149047Y175547D01*
X149049Y175545D01*
Y174355D01*
X149047Y174354D01*
X148693Y173824D01*
X148569Y173200D01*
X148693Y172576D01*
X148909Y172253D01*
X148279Y171566D01*
X148201Y171512D01*
X147600Y171631D01*
X146976Y171507D01*
X146447Y171153D01*
X146093Y170624D01*
X145969Y170000D01*
X146060Y169539D01*
X145674Y168913D01*
X145401Y168612D01*
X144876Y168507D01*
X144346Y168154D01*
X144231Y167981D01*
X143210Y167757D01*
X143006Y167791D01*
X121160Y189637D01*
X120730Y189925D01*
X120223Y190025D01*
X10513D01*
X10278Y190593D01*
X9676Y191376D01*
X8893Y191978D01*
X7980Y192356D01*
X7000Y192485D01*
X6020Y192356D01*
X5107Y191978D01*
X4324Y191376D01*
X3722Y190593D01*
X3344Y189680D01*
X3215Y188700D01*
X3344Y187720D01*
X3722Y186807D01*
X4324Y186023D01*
X5107Y185422D01*
X6020Y185044D01*
X7000Y184915D01*
X7980Y185044D01*
X8893Y185422D01*
X9676Y186023D01*
X10278Y186807D01*
X10513Y187374D01*
X94007D01*
X94014Y187411D01*
X94024Y187458D01*
X94035Y187502D01*
X94054Y187553D01*
X94072Y187600D01*
X94097Y187651D01*
X94126Y187702D01*
X94159Y187753D01*
X94199Y187800D01*
X94243Y187844D01*
X94246Y187847D01*
X94254Y187855D01*
X94268Y187866D01*
X94290Y187880D01*
X94316Y187898D01*
X94345Y187917D01*
X94381Y187938D01*
X94425Y187960D01*
X94472Y187982D01*
X94523Y188004D01*
X94581Y188022D01*
X94643Y188040D01*
X94712Y188055D01*
X94785Y188066D01*
X94862Y188073D01*
X94945Y188077D01*
X94949D01*
X94964D01*
X94989D01*
X95025Y188073D01*
Y187374D01*
X95630D01*
X95622Y187407D01*
X95608Y187458D01*
X95586Y187505D01*
X95557Y187553D01*
X95553Y187556D01*
X95539Y187574D01*
X95517Y187596D01*
X95488Y187622D01*
X95448Y187651D01*
X95397Y187684D01*
X95338Y187716D01*
X95269Y187745D01*
X95309Y188066D01*
X95313D01*
X95320Y188062D01*
X95335Y188058D01*
X95357Y188051D01*
X95378Y188040D01*
X95408Y188029D01*
X95469Y188000D01*
X95539Y187964D01*
X95611Y187913D01*
X95681Y187855D01*
X95746Y187782D01*
Y187778D01*
X95753Y187771D01*
X95761Y187760D01*
X95772Y187745D01*
X95783Y187724D01*
X95793Y187702D01*
X95808Y187673D01*
X95823Y187640D01*
X95837Y187603D01*
X95852Y187567D01*
X95873Y187476D01*
X95892Y187374D01*
X119674D01*
X126099Y180949D01*
X125716Y180025D01*
X73851D01*
Y180002D01*
X73847Y179977D01*
X73844Y179944D01*
X73836Y179908D01*
X73829Y179868D01*
X73822Y179820D01*
X73789Y179722D01*
X73771Y179671D01*
X73745Y179620D01*
X73720Y179569D01*
X73684Y179518D01*
X73647Y179471D01*
X73603Y179424D01*
X73600Y179420D01*
X73593Y179413D01*
X73578Y179402D01*
X73560Y179387D01*
X73534Y179369D01*
X73501Y179347D01*
X73465Y179325D01*
X73425Y179304D01*
X73381Y179282D01*
X73327Y179260D01*
X73272Y179238D01*
X73210Y179220D01*
X73145Y179205D01*
X73076Y179194D01*
X73003Y179187D01*
X72923Y179183D01*
X72919D01*
X72908D01*
X72890D01*
X72865D01*
X72835Y179187D01*
X72799Y179191D01*
X72763D01*
X72723Y179198D01*
X72632Y179209D01*
X72540Y179231D01*
X72449Y179256D01*
X72366Y179293D01*
X72362D01*
X72359Y179296D01*
X72348Y179304D01*
X72333Y179311D01*
X72297Y179336D01*
X72253Y179369D01*
X72202Y179413D01*
X72151Y179467D01*
X72100Y179529D01*
X72053Y179602D01*
Y179606D01*
X72049Y179609D01*
X72042Y179620D01*
X72035Y179638D01*
X72027Y179657D01*
X72020Y179678D01*
X71998Y179733D01*
X71980Y179795D01*
X71962Y179871D01*
X71947Y179951D01*
X71944Y180025D01*
X10513D01*
X10278Y180593D01*
X9676Y181377D01*
X8893Y181978D01*
X7980Y182356D01*
X7000Y182485D01*
X6020Y182356D01*
X5107Y181978D01*
X4324Y181377D01*
X3722Y180593D01*
X3344Y179680D01*
X3215Y178700D01*
X3344Y177720D01*
X3722Y176807D01*
X4324Y176023D01*
X5107Y175422D01*
X6020Y175044D01*
X7000Y174915D01*
X7980Y175044D01*
X8893Y175422D01*
X9676Y176023D01*
X10278Y176807D01*
X10513Y177374D01*
X72302D01*
X72297Y177378D01*
X72253Y177411D01*
X72202Y177454D01*
X72151Y177509D01*
X72100Y177571D01*
X72053Y177644D01*
Y177647D01*
X72049Y177651D01*
X72042Y177662D01*
X72035Y177680D01*
X72027Y177698D01*
X72020Y177720D01*
X71998Y177775D01*
X71980Y177837D01*
X71962Y177913D01*
X71947Y177993D01*
X71944Y178080D01*
Y178117D01*
X71947Y178146D01*
X71951Y178179D01*
X71958Y178215D01*
X71965Y178259D01*
X71973Y178303D01*
X72002Y178401D01*
X72024Y178455D01*
X72045Y178506D01*
X72075Y178557D01*
X72107Y178608D01*
X72144Y178656D01*
X72187Y178703D01*
X72191Y178707D01*
X72198Y178714D01*
X72213Y178725D01*
X72235Y178739D01*
X72260Y178758D01*
X72289Y178776D01*
X72326Y178798D01*
X72369Y178819D01*
X72417Y178841D01*
X72471Y178863D01*
X72530Y178881D01*
X72592Y178900D01*
X72661Y178914D01*
X72733Y178925D01*
X72813Y178932D01*
X72897Y178936D01*
X72904D01*
X72919D01*
X72945Y178932D01*
X72981D01*
X73021Y178929D01*
X73072Y178921D01*
X73123Y178914D01*
X73181Y178900D01*
X73239Y178885D01*
X73301Y178867D01*
X73367Y178845D01*
X73429Y178816D01*
X73487Y178787D01*
X73545Y178747D01*
X73600Y178707D01*
X73647Y178656D01*
X73651Y178652D01*
X73654Y178645D01*
X73665Y178630D01*
X73680Y178612D01*
X73694Y178590D01*
X73713Y178561D01*
X73731Y178532D01*
X73749Y178496D01*
X73767Y178455D01*
X73785Y178412D01*
X73818Y178313D01*
X73844Y178201D01*
X73847Y178142D01*
X73851Y178080D01*
Y178044D01*
X73847Y178019D01*
X73844Y177986D01*
X73836Y177950D01*
X73829Y177909D01*
X73822Y177862D01*
X73789Y177764D01*
X73771Y177713D01*
X73745Y177662D01*
X73720Y177611D01*
X73684Y177560D01*
X73647Y177513D01*
X73603Y177465D01*
X73600Y177462D01*
X73593Y177454D01*
X73578Y177444D01*
X73560Y177429D01*
X73534Y177411D01*
X73501Y177389D01*
X73478Y177374D01*
X127128D01*
X132778Y171725D01*
X132363Y170726D01*
X67796D01*
X67524Y170907D01*
X66900Y171031D01*
X66276Y170907D01*
X65746Y170554D01*
X65393Y170024D01*
X65269Y169400D01*
X65393Y168776D01*
X65746Y168246D01*
X66276Y167893D01*
X66900Y167769D01*
X67524Y167893D01*
X67796Y168075D01*
X132942D01*
X139239Y161778D01*
X138856Y160854D01*
X113814D01*
X113301Y160752D01*
X112867Y160461D01*
X101345Y148940D01*
X71775D01*
X71524Y149107D01*
X70900Y149231D01*
X70276Y149107D01*
X69747Y148753D01*
X69393Y148224D01*
X69269Y147600D01*
X69393Y146976D01*
X69560Y146725D01*
Y133493D01*
X55395Y119328D01*
X55274Y119353D01*
X55019Y119764D01*
X54833Y120467D01*
X55274Y121293D01*
X55617Y122424D01*
X55733Y123600D01*
Y128100D01*
X49704D01*
X43675D01*
Y123600D01*
X43791Y122424D01*
X44134Y121293D01*
X44575Y120467D01*
X44389Y119764D01*
X44134Y119353D01*
X44012Y119328D01*
X39111Y124229D01*
X38677Y124520D01*
X38164Y124622D01*
X35982D01*
X35231Y125600D01*
X35107Y126224D01*
X34754Y126753D01*
Y127047D01*
X35107Y127576D01*
X35231Y128200D01*
X35107Y128824D01*
X34754Y129353D01*
X34224Y129707D01*
X33600Y129831D01*
X32976Y129707D01*
X32447Y129353D01*
X32431Y129331D01*
X32325Y129310D01*
X32050Y129125D01*
X31262D01*
X31082Y129245D01*
X30575Y129346D01*
X27395D01*
X27095Y129406D01*
Y131931D01*
Y135106D01*
X27095Y135106D01*
X27284Y135568D01*
X27346Y135880D01*
Y143754D01*
X27284Y144067D01*
X27107Y144331D01*
X26843Y144508D01*
X26531Y144570D01*
X22164D01*
X21326Y145334D01*
Y147643D01*
X21564Y147882D01*
X22325Y148297D01*
X23000Y148150D01*
X23617Y148150D01*
X25400D01*
Y151000D01*
Y153850D01*
X23617D01*
X23000Y153850D01*
X22083Y153650D01*
X17300D01*
Y148350D01*
X18675D01*
Y145883D01*
X17483Y144692D01*
X17402Y144570D01*
X17042D01*
X16730Y144508D01*
X16466Y144331D01*
X16289Y144067D01*
X16227Y143754D01*
Y142503D01*
X8972D01*
X8951Y142499D01*
X8930Y142502D01*
X8776Y142494D01*
X8755Y142489D01*
X8733Y142491D01*
X8583Y142475D01*
X8528Y142458D01*
X8471Y142455D01*
X8401Y142438D01*
X8381Y142428D01*
X8360Y142426D01*
X8288Y142404D01*
X8288Y142404D01*
X8147Y142361D01*
X8086Y142329D01*
X8020Y142311D01*
X7871Y142236D01*
X7846Y142216D01*
X7816Y142206D01*
X7678Y142123D01*
X7647Y142095D01*
X7608Y142076D01*
X7482Y141982D01*
X7463Y141960D01*
X7438Y141946D01*
X7319Y141843D01*
X7284Y141798D01*
X7238Y141762D01*
X7132Y141640D01*
X7118Y141616D01*
X7097Y141597D01*
X6999Y141467D01*
X6973Y141415D01*
X6936Y141371D01*
X6857Y141229D01*
X6850Y141208D01*
X6837Y141190D01*
X6766Y141044D01*
X6751Y140986D01*
X6722Y140934D01*
X6671Y140772D01*
X6665Y140725D01*
X6647Y140681D01*
X6624Y140559D01*
X6624Y140535D01*
X6616Y140513D01*
X6596Y140367D01*
X6599Y140334D01*
X6590Y140302D01*
X6582Y140157D01*
X6586Y140135D01*
X6581Y140113D01*
Y138144D01*
X6585Y138125D01*
X6582Y138106D01*
X6590Y137937D01*
X6601Y137893D01*
X6599Y137849D01*
X6624Y137685D01*
X6639Y137645D01*
X6642Y137602D01*
X6683Y137446D01*
X6703Y137407D01*
X6710Y137363D01*
X6769Y137209D01*
X6796Y137167D01*
X6810Y137120D01*
X6877Y136994D01*
X6887Y136982D01*
X6892Y136967D01*
X6963Y136845D01*
X6996Y136808D01*
X7017Y136763D01*
X6824Y136133D01*
X6529Y135794D01*
X5022D01*
Y128584D01*
X5022D01*
Y128216D01*
X5022D01*
Y121005D01*
X6529D01*
X6824Y120667D01*
X7017Y120037D01*
X6996Y119992D01*
X6963Y119955D01*
X6892Y119833D01*
X6887Y119818D01*
X6877Y119806D01*
X6810Y119680D01*
X6796Y119633D01*
X6769Y119590D01*
X6710Y119437D01*
X6703Y119393D01*
X6683Y119354D01*
X6642Y119198D01*
X6639Y119155D01*
X6624Y119115D01*
X6599Y118951D01*
X6601Y118907D01*
X6590Y118863D01*
X6582Y118694D01*
X6585Y118675D01*
X6581Y118656D01*
Y116687D01*
X6585Y116665D01*
X6582Y116643D01*
X6590Y116498D01*
X6599Y116466D01*
X6596Y116432D01*
X6616Y116287D01*
X6624Y116265D01*
X6624Y116241D01*
X6647Y116119D01*
X6665Y116075D01*
X6671Y116027D01*
X6722Y115866D01*
X6751Y115814D01*
X6766Y115756D01*
X6837Y115610D01*
X6850Y115592D01*
X6857Y115571D01*
X6936Y115429D01*
X6973Y115385D01*
X6999Y115333D01*
X7097Y115203D01*
X7118Y115184D01*
X7132Y115160D01*
X7238Y115038D01*
X7284Y115002D01*
X7319Y114957D01*
X7437Y114855D01*
X7463Y114840D01*
X7482Y114818D01*
X7608Y114724D01*
X7647Y114706D01*
X7678Y114677D01*
X7816Y114594D01*
X7846Y114584D01*
X7871Y114564D01*
X8020Y114489D01*
X8086Y114471D01*
X8147Y114439D01*
X8288Y114396D01*
X8360Y114374D01*
X8381Y114372D01*
X8401Y114362D01*
X8471Y114345D01*
X8528Y114342D01*
X8583Y114325D01*
X8733Y114309D01*
X8755Y114311D01*
X8776Y114306D01*
X8930Y114298D01*
X8951Y114301D01*
X8972Y114297D01*
X16227D01*
Y113046D01*
X16289Y112733D01*
X16466Y112469D01*
X16730Y112292D01*
X17042Y112230D01*
X19798D01*
X20111Y112292D01*
X20290Y112412D01*
X20470Y112292D01*
X20783Y112230D01*
X26531D01*
X26843Y112292D01*
X27107Y112469D01*
X27284Y112734D01*
X27346Y113046D01*
Y120920D01*
X27342Y120942D01*
X27802Y121737D01*
X28012Y121942D01*
X37609D01*
X43212Y116339D01*
X43647Y116048D01*
X44160Y115946D01*
X55248D01*
X55761Y116048D01*
X56195Y116339D01*
X71847Y131991D01*
X72138Y132425D01*
X72240Y132938D01*
Y146260D01*
X101900D01*
X102413Y146362D01*
X102847Y146653D01*
X114369Y158174D01*
X133503D01*
X133704Y158003D01*
X133846Y156904D01*
X124863Y147921D01*
X124575Y147491D01*
X124475Y146984D01*
Y117596D01*
X124293Y117324D01*
X124169Y116700D01*
X124293Y116076D01*
X124475Y115804D01*
Y105949D01*
X123225Y104700D01*
X122225Y105114D01*
Y121504D01*
X122407Y121776D01*
X122531Y122400D01*
X122407Y123024D01*
X122054Y123554D01*
X121524Y123907D01*
X120900Y124031D01*
X120276Y123907D01*
X119746Y123554D01*
X119393Y123024D01*
X119269Y122400D01*
X119393Y121776D01*
X119574Y121504D01*
Y104749D01*
X101751Y86926D01*
X11377D01*
X10785Y87600D01*
X10656Y88580D01*
X10278Y89493D01*
X9676Y90276D01*
X8893Y90878D01*
X7980Y91256D01*
X7000Y91385D01*
X6020Y91256D01*
X5107Y90878D01*
X4725Y90585D01*
X3726Y91078D01*
Y92451D01*
X5453Y94179D01*
X6020Y93944D01*
X7000Y93815D01*
X7980Y93944D01*
X8893Y94322D01*
X9676Y94924D01*
X10278Y95707D01*
X10656Y96620D01*
X10785Y97600D01*
X10656Y98580D01*
X10278Y99493D01*
X9676Y100277D01*
X8893Y100878D01*
X7980Y101256D01*
X7000Y101385D01*
X6020Y101256D01*
X5107Y100878D01*
X4324Y100277D01*
X3722Y99493D01*
X3344Y98580D01*
X3215Y97600D01*
X3344Y96620D01*
X3579Y96053D01*
X2045Y94519D01*
X1044Y94933D01*
Y190970D01*
X1044Y191935D01*
X1297Y193849D01*
X1796Y195714D01*
X2535Y197498D01*
X3500Y199170D01*
X4676Y200702D01*
X6041Y202067D01*
X7573Y203242D01*
X9245Y204208D01*
X11029Y204947D01*
X12893Y205446D01*
X14808Y205698D01*
X15773Y205698D01*
X23647Y205698D01*
X23660Y205701D01*
X23672Y205699D01*
X25024Y205732D01*
X25061Y205740D01*
X25099Y205736D01*
X27791Y206002D01*
X27839Y206016D01*
X27890D01*
X30542Y206544D01*
X30589Y206563D01*
X30639Y206568D01*
X33227Y207353D01*
X33272Y207377D01*
X33322Y207387D01*
X35820Y208422D01*
X35862Y208450D01*
X35911Y208465D01*
X38296Y209740D01*
X38335Y209772D01*
X38382Y209791D01*
X40630Y211294D01*
X40666Y211329D01*
X40711Y211353D01*
X42801Y213069D01*
X42833Y213108D01*
X42875Y213136D01*
X44788Y215049D01*
X44816Y215091D01*
X44855Y215123D01*
X46571Y217213D01*
X46595Y217258D01*
X46630Y217294D01*
X48133Y219542D01*
X48152Y219589D01*
X48184Y219628D01*
X49459Y222013D01*
X49474Y222062D01*
X49502Y222104D01*
X50537Y224602D01*
X50547Y224652D01*
X50571Y224697D01*
X51356Y227285D01*
X51361Y227335D01*
X51380Y227382D01*
X51908Y230034D01*
Y230085D01*
X51923Y230133D01*
X52188Y232825D01*
X52184Y232863D01*
X52192Y232900D01*
X52225Y234252D01*
X52223Y234264D01*
X52226Y234277D01*
X52226Y240182D01*
X52226Y241148D01*
X52478Y243062D01*
X52977Y244927D01*
X53716Y246711D01*
X54682Y248383D01*
X55857Y249914D01*
X57222Y251280D01*
X58754Y252455D01*
X60426Y253420D01*
X62210Y254159D01*
X64075Y254659D01*
X65989Y254911D01*
X66954D01*
X86684D01*
X86684Y219200D01*
X86746Y218888D01*
X86923Y218623D01*
X87188Y218446D01*
X87500Y218384D01*
X286300Y218384D01*
X286612Y218446D01*
X286877Y218623D01*
X287054Y218888D01*
X287116Y219200D01*
X287116Y254911D01*
X318923D01*
X319888D01*
X321802Y254659D01*
D02*
G37*
G36*
X148656Y195697D02*
X148669Y195695D01*
X148685Y195694D01*
X148704Y195690D01*
X148723Y195685D01*
X148765Y195672D01*
X148789Y195663D01*
X148811Y195650D01*
X148835Y195637D01*
X148856Y195623D01*
X148878Y195604D01*
X148900Y195584D01*
X148902Y195583D01*
X148906Y195579D01*
X148911Y195573D01*
X148916Y195564D01*
X148925Y195552D01*
X148935Y195539D01*
X148944Y195522D01*
X148955Y195504D01*
X148966Y195484D01*
X148975Y195461D01*
X148984Y195435D01*
X148993Y195410D01*
X148998Y195381D01*
X149004Y195350D01*
X149007Y195319D01*
X149009Y195284D01*
Y195266D01*
X149007Y195253D01*
X149006Y195237D01*
X149004Y195219D01*
X149000Y195199D01*
X148995Y195177D01*
X148982Y195128D01*
X148973Y195102D01*
X148964Y195079D01*
X148951Y195053D01*
X148936Y195027D01*
X148920Y195004D01*
X148900Y194982D01*
X148898Y194980D01*
X148895Y194976D01*
X148889Y194971D01*
X148880Y194964D01*
X148869Y194957D01*
X148856Y194946D01*
X148842Y194937D01*
X148824Y194926D01*
X148805Y194915D01*
X148784Y194906D01*
X148738Y194887D01*
X148711Y194880D01*
X148684Y194875D01*
X148654Y194871D01*
X148625Y194869D01*
X148623D01*
X148620D01*
X148612D01*
X148605Y194871D01*
X148594D01*
X148582Y194873D01*
X148552Y194876D01*
X148520Y194884D01*
X148487Y194895D01*
X148452Y194911D01*
X148420Y194931D01*
X148418D01*
X148416Y194935D01*
X148407Y194942D01*
X148392Y194957D01*
X148374Y194976D01*
X148356Y195002D01*
X148336Y195033D01*
X148319Y195068D01*
X148307Y195109D01*
Y195108D01*
X148305Y195106D01*
X148303Y195100D01*
X148299Y195093D01*
X148292Y195077D01*
X148281Y195055D01*
X148267Y195031D01*
X148249Y195008D01*
X148229Y194986D01*
X148207Y194966D01*
X148203Y194964D01*
X148196Y194958D01*
X148181Y194951D01*
X148163Y194944D01*
X148139Y194935D01*
X148112Y194927D01*
X148081Y194922D01*
X148048Y194920D01*
X148047D01*
X148043D01*
X148036D01*
X148025Y194922D01*
X148014Y194924D01*
X147999Y194926D01*
X147968Y194933D01*
X147932Y194944D01*
X147894Y194962D01*
X147874Y194973D01*
X147854Y194986D01*
X147835Y195002D01*
X147817Y195018D01*
X147815Y195020D01*
X147813Y195024D01*
X147808Y195029D01*
X147803Y195037D01*
X147795Y195046D01*
X147788Y195058D01*
X147779Y195073D01*
X147770Y195088D01*
X147761Y195106D01*
X147752Y195126D01*
X147744Y195148D01*
X147737Y195171D01*
X147726Y195222D01*
X147724Y195251D01*
X147722Y195281D01*
Y195297D01*
X147724Y195308D01*
X147726Y195322D01*
X147728Y195339D01*
X147730Y195357D01*
X147735Y195375D01*
X147746Y195419D01*
X147763Y195463D01*
X147774Y195484D01*
X147786Y195506D01*
X147803Y195526D01*
X147819Y195546D01*
X147821Y195548D01*
X147823Y195550D01*
X147828Y195555D01*
X147835Y195563D01*
X147846Y195570D01*
X147857Y195579D01*
X147885Y195597D01*
X147919Y195615D01*
X147959Y195632D01*
X148005Y195644D01*
X148028Y195646D01*
X148054Y195648D01*
X148056D01*
X148057D01*
X148068D01*
X148085Y195646D01*
X148105Y195643D01*
X148130Y195637D01*
X148156Y195628D01*
X148181Y195617D01*
X148207Y195601D01*
X148210Y195599D01*
X148217Y195592D01*
X148229Y195581D01*
X148243Y195566D01*
X148259Y195546D01*
X148276Y195522D01*
X148292Y195495D01*
X148307Y195463D01*
Y195464D01*
X148309Y195468D01*
X148310Y195473D01*
X148314Y195481D01*
X148323Y195502D01*
X148336Y195528D01*
X148354Y195555D01*
X148374Y195584D01*
X148399Y195612D01*
X148429Y195637D01*
X148431D01*
X148432Y195639D01*
X148443Y195646D01*
X148461Y195657D01*
X148485Y195668D01*
X148514Y195679D01*
X148549Y195690D01*
X148587Y195697D01*
X148629Y195699D01*
X148631D01*
X148636D01*
X148645D01*
X148656Y195697D01*
D02*
G37*
G36*
X139968Y195795D02*
X139972Y195792D01*
X139979Y195784D01*
X139990Y195777D01*
X140003Y195766D01*
X140017Y195752D01*
X140035Y195737D01*
X140057Y195721D01*
X140079Y195704D01*
X140105Y195684D01*
X140134Y195664D01*
X140163Y195644D01*
X140196Y195623D01*
X140230Y195601D01*
X140268Y195579D01*
X140307Y195557D01*
X140308Y195555D01*
X140316Y195552D01*
X140327Y195546D01*
X140343Y195537D01*
X140363Y195528D01*
X140385Y195517D01*
X140410Y195504D01*
X140439Y195492D01*
X140472Y195477D01*
X140505Y195461D01*
X140541Y195446D01*
X140580Y195431D01*
X140658Y195402D01*
X140742Y195375D01*
X140743D01*
X140749Y195373D01*
X140758Y195371D01*
X140769Y195368D01*
X140784Y195364D01*
X140802Y195361D01*
X140822Y195355D01*
X140843Y195351D01*
X140869Y195346D01*
X140896Y195340D01*
X140954Y195331D01*
X141018Y195322D01*
X141087Y195317D01*
Y195158D01*
X141086D01*
X141080D01*
X141073D01*
X141062Y195160D01*
X141047D01*
X141029Y195162D01*
X141009Y195164D01*
X140987Y195166D01*
X140962Y195169D01*
X140936Y195173D01*
X140905Y195178D01*
X140875Y195184D01*
X140842Y195189D01*
X140805Y195197D01*
X140731Y195215D01*
X140729D01*
X140722Y195217D01*
X140711Y195220D01*
X140694Y195226D01*
X140676Y195231D01*
X140654Y195238D01*
X140629Y195246D01*
X140602Y195257D01*
X140570Y195268D01*
X140540Y195279D01*
X140470Y195306D01*
X140398Y195339D01*
X140325Y195375D01*
X140323Y195377D01*
X140316Y195380D01*
X140307Y195386D01*
X140292Y195393D01*
X140276Y195402D01*
X140256Y195415D01*
X140234Y195428D01*
X140210Y195442D01*
X140157Y195477D01*
X140103Y195513D01*
X140046Y195555D01*
X139994Y195599D01*
Y194982D01*
X139844D01*
Y195797D01*
X139966D01*
X139968Y195795D01*
D02*
G37*
G36*
X95378Y189846D02*
X95419Y189839D01*
X95462Y189828D01*
X95509Y189809D01*
X95564Y189788D01*
X95615Y189758D01*
X95622Y189755D01*
X95637Y189740D01*
X95662Y189722D01*
X95692Y189693D01*
X95724Y189653D01*
X95761Y189609D01*
X95793Y189558D01*
X95826Y189496D01*
Y189493D01*
X95830Y189489D01*
X95837Y189467D01*
X95848Y189431D01*
X95863Y189383D01*
X95877Y189325D01*
X95888Y189260D01*
X95895Y189191D01*
X95899Y189111D01*
Y189078D01*
X95895Y189052D01*
Y189023D01*
X95892Y188987D01*
X95888Y188950D01*
X95881Y188910D01*
X95863Y188823D01*
X95837Y188732D01*
X95801Y188645D01*
X95779Y188604D01*
X95753Y188568D01*
X95750Y188565D01*
X95746Y188561D01*
X95724Y188539D01*
X95692Y188506D01*
X95640Y188470D01*
X95579Y188430D01*
X95506Y188390D01*
X95415Y188357D01*
X95313Y188331D01*
X95266Y188637D01*
X95269D01*
X95273D01*
X95295Y188645D01*
X95331Y188652D01*
X95371Y188666D01*
X95415Y188685D01*
X95462Y188707D01*
X95509Y188739D01*
X95549Y188779D01*
X95553Y188787D01*
X95564Y188801D01*
X95579Y188830D01*
X95597Y188867D01*
X95615Y188914D01*
X95630Y188969D01*
X95640Y189034D01*
X95644Y189111D01*
Y189147D01*
X95640Y189183D01*
X95633Y189231D01*
X95622Y189282D01*
X95608Y189336D01*
X95590Y189383D01*
X95560Y189427D01*
X95557Y189431D01*
X95546Y189445D01*
X95528Y189460D01*
X95502Y189482D01*
X95473Y189500D01*
X95437Y189518D01*
X95400Y189529D01*
X95357Y189533D01*
X95353D01*
X95338D01*
X95320Y189529D01*
X95295Y189522D01*
X95269Y189511D01*
X95244Y189493D01*
X95215Y189471D01*
X95193Y189438D01*
X95189Y189435D01*
X95186Y189424D01*
X95175Y189405D01*
X95164Y189376D01*
X95149Y189332D01*
X95138Y189307D01*
X95131Y189278D01*
X95120Y189245D01*
X95109Y189209D01*
X95098Y189169D01*
X95087Y189121D01*
Y189118D01*
X95084Y189107D01*
X95080Y189089D01*
X95073Y189067D01*
X95065Y189038D01*
X95055Y189005D01*
X95036Y188936D01*
X95011Y188856D01*
X94989Y188779D01*
X94964Y188707D01*
X94949Y188674D01*
X94938Y188648D01*
X94934Y188641D01*
X94927Y188626D01*
X94912Y188604D01*
X94894Y188575D01*
X94869Y188543D01*
X94840Y188510D01*
X94807Y188477D01*
X94767Y188448D01*
X94763Y188444D01*
X94749Y188437D01*
X94723Y188426D01*
X94694Y188415D01*
X94658Y188404D01*
X94614Y188393D01*
X94570Y188386D01*
X94519Y188382D01*
X94512D01*
X94498D01*
X94476Y188386D01*
X94443Y188390D01*
X94410Y188397D01*
X94370Y188404D01*
X94334Y188419D01*
X94294Y188437D01*
X94290Y188441D01*
X94275Y188448D01*
X94257Y188459D01*
X94232Y188477D01*
X94206Y188499D01*
X94174Y188524D01*
X94144Y188554D01*
X94119Y188590D01*
X94115Y188594D01*
X94112Y188604D01*
X94101Y188619D01*
X94090Y188641D01*
X94075Y188670D01*
X94061Y188703D01*
X94046Y188743D01*
X94032Y188787D01*
X94028Y188794D01*
X94024Y188808D01*
X94017Y188834D01*
X94010Y188867D01*
X94002Y188907D01*
X93999Y188950D01*
X93992Y189001D01*
Y189089D01*
X93995Y189129D01*
X93999Y189183D01*
X94006Y189242D01*
X94021Y189303D01*
X94035Y189369D01*
X94057Y189431D01*
Y189435D01*
X94061Y189438D01*
X94068Y189456D01*
X94083Y189485D01*
X94101Y189522D01*
X94126Y189562D01*
X94155Y189602D01*
X94188Y189638D01*
X94225Y189671D01*
X94228Y189675D01*
X94243Y189682D01*
X94268Y189697D01*
X94297Y189715D01*
X94341Y189733D01*
X94388Y189751D01*
X94443Y189766D01*
X94505Y189780D01*
X94545Y189478D01*
X94538D01*
X94523Y189474D01*
X94498Y189467D01*
X94465Y189456D01*
X94432Y189438D01*
X94396Y189416D01*
X94359Y189391D01*
X94327Y189354D01*
X94323Y189351D01*
X94316Y189336D01*
X94301Y189314D01*
X94287Y189282D01*
X94272Y189245D01*
X94257Y189198D01*
X94250Y189140D01*
X94246Y189078D01*
Y189041D01*
X94250Y189005D01*
X94254Y188958D01*
X94265Y188910D01*
X94275Y188859D01*
X94294Y188812D01*
X94319Y188772D01*
X94323Y188768D01*
X94330Y188757D01*
X94345Y188743D01*
X94367Y188728D01*
X94388Y188710D01*
X94418Y188696D01*
X94450Y188685D01*
X94483Y188681D01*
X94487D01*
X94494D01*
X94505Y188685D01*
X94519D01*
X94556Y188696D01*
X94592Y188717D01*
X94596Y188721D01*
X94599Y188725D01*
X94610Y188732D01*
X94621Y188747D01*
X94632Y188761D01*
X94647Y188783D01*
X94658Y188808D01*
X94672Y188838D01*
Y188841D01*
X94676Y188848D01*
X94680Y188863D01*
X94691Y188889D01*
X94701Y188925D01*
X94712Y188972D01*
X94723Y189001D01*
X94731Y189034D01*
X94741Y189070D01*
X94752Y189111D01*
Y189114D01*
X94756Y189125D01*
X94760Y189143D01*
X94767Y189165D01*
X94774Y189191D01*
X94782Y189223D01*
X94803Y189293D01*
X94825Y189369D01*
X94851Y189445D01*
X94876Y189515D01*
X94887Y189544D01*
X94898Y189569D01*
X94902Y189576D01*
X94909Y189591D01*
X94920Y189613D01*
X94938Y189646D01*
X94960Y189678D01*
X94989Y189711D01*
X95022Y189744D01*
X95058Y189773D01*
X95062Y189777D01*
X95076Y189784D01*
X95098Y189798D01*
X95131Y189813D01*
X95171Y189824D01*
X95215Y189839D01*
X95266Y189846D01*
X95324Y189849D01*
X95331D01*
X95349D01*
X95378Y189846D01*
D02*
G37*
G36*
X202190Y172865D02*
X201263Y171937D01*
X200975Y171507D01*
X200874Y171000D01*
Y167202D01*
X200975Y166694D01*
X201263Y166264D01*
X205879Y161648D01*
X206309Y161361D01*
X206816Y161260D01*
X221435D01*
X223282Y159413D01*
X223346Y158254D01*
X222993Y157724D01*
X222934Y157429D01*
X221831Y156326D01*
X152697D01*
X151831Y157100D01*
X151707Y157724D01*
X151354Y158254D01*
Y159346D01*
X151707Y159876D01*
X151831Y160500D01*
X151707Y161124D01*
X151354Y161653D01*
Y162446D01*
X151707Y162976D01*
X151831Y163600D01*
X151707Y164224D01*
X151354Y164753D01*
Y165847D01*
X151707Y166376D01*
X151831Y167000D01*
X151707Y167624D01*
X151354Y168154D01*
X150824Y168507D01*
X150200Y168631D01*
X149753Y168543D01*
X149312Y168969D01*
X149092Y169353D01*
X149107Y169376D01*
X149231Y170000D01*
X149107Y170624D01*
X148891Y170948D01*
X149521Y171634D01*
X149599Y171688D01*
X150200Y171569D01*
X150824Y171693D01*
X151354Y172046D01*
X151707Y172576D01*
X151771Y172897D01*
X152663Y173789D01*
X201808D01*
X202190Y172865D01*
D02*
G37*
G36*
X19798Y136569D02*
X8885D01*
X8798Y136573D01*
X8716Y136589D01*
X8637Y136605D01*
X8570Y136620D01*
X8503Y136640D01*
X8377Y136687D01*
X8235Y136750D01*
X8098Y136837D01*
X7980Y136920D01*
X7869Y137022D01*
X7765Y137126D01*
X7668Y137254D01*
X7598Y137376D01*
X7531Y137502D01*
X7472Y137656D01*
X7430Y137811D01*
X7405Y137975D01*
X7397Y138144D01*
Y140113D01*
X7405Y140258D01*
X7424Y140404D01*
X7448Y140526D01*
X7499Y140687D01*
X7570Y140833D01*
X7649Y140975D01*
X7747Y141105D01*
X7853Y141227D01*
X7972Y141329D01*
X8098Y141424D01*
X8235Y141506D01*
X8385Y141581D01*
X8527Y141624D01*
X8598Y141646D01*
X8669Y141664D01*
X8818Y141680D01*
X8972Y141687D01*
X17042D01*
Y143754D01*
X19798D01*
Y136569D01*
D02*
G37*
G36*
X291547Y164163D02*
X291977Y163875D01*
X292485Y163775D01*
X312313D01*
X312847Y162775D01*
X312793Y162693D01*
X312669Y162069D01*
X312793Y161444D01*
X313146Y160915D01*
X313676Y160562D01*
X314300Y160437D01*
X314924Y160562D01*
X315454Y160915D01*
X315807Y161444D01*
X315931Y162069D01*
X315807Y162693D01*
X315753Y162775D01*
X316287Y163775D01*
X324251D01*
X325929Y162097D01*
X325993Y161776D01*
X326346Y161247D01*
X326876Y160893D01*
X327500Y160769D01*
X328124Y160893D01*
X328654Y161247D01*
X329813Y161182D01*
X380375Y110621D01*
Y96542D01*
X379824Y96131D01*
X379375Y95937D01*
X378900Y96031D01*
X378276Y95907D01*
X377747Y95553D01*
X377594Y95325D01*
X297750D01*
X277681Y115395D01*
X278247Y116243D01*
X279046Y115912D01*
X281082Y115423D01*
X283169Y115259D01*
X285256Y115423D01*
X287291Y115912D01*
X289225Y116713D01*
X291010Y117807D01*
X292602Y119166D01*
X293962Y120758D01*
X295056Y122543D01*
X295857Y124477D01*
X296345Y126513D01*
X296510Y128600D01*
X296345Y130687D01*
X295857Y132723D01*
X295056Y134657D01*
X293962Y136442D01*
X292602Y138034D01*
X291010Y139393D01*
X289225Y140487D01*
X287291Y141288D01*
X285256Y141777D01*
X283169Y141941D01*
X281082Y141777D01*
X279046Y141288D01*
X277112Y140487D01*
X275327Y139393D01*
X273735Y138034D01*
X272375Y136442D01*
X271282Y134657D01*
X270480Y132723D01*
X269992Y130687D01*
X269827Y128600D01*
X269992Y126513D01*
X270480Y124477D01*
X270811Y123679D01*
X269963Y123112D01*
X227427Y165648D01*
X226997Y165936D01*
X226490Y166037D01*
X207785D01*
X207297Y166525D01*
X207267Y166841D01*
X207586Y167651D01*
X207711Y167675D01*
X208140Y167963D01*
X218652Y178474D01*
X277236D01*
X291547Y164163D01*
D02*
G37*
G36*
X19798Y113046D02*
X17042D01*
Y115113D01*
X8972D01*
X8818Y115120D01*
X8669Y115136D01*
X8598Y115154D01*
X8527Y115176D01*
X8385Y115219D01*
X8235Y115294D01*
X8098Y115376D01*
X7972Y115471D01*
X7853Y115573D01*
X7747Y115695D01*
X7649Y115825D01*
X7570Y115967D01*
X7499Y116113D01*
X7448Y116274D01*
X7424Y116396D01*
X7405Y116542D01*
X7397Y116687D01*
Y118656D01*
X7405Y118825D01*
X7430Y118989D01*
X7472Y119144D01*
X7531Y119298D01*
X7598Y119424D01*
X7668Y119546D01*
X7765Y119674D01*
X7869Y119778D01*
X7980Y119880D01*
X8098Y119963D01*
X8235Y120050D01*
X8377Y120113D01*
X8503Y120160D01*
X8570Y120179D01*
X8637Y120195D01*
X8716Y120211D01*
X8798Y120227D01*
X8885Y120231D01*
X19798D01*
Y113046D01*
D02*
G37*
%LPC*%
G36*
X318600Y248733D02*
X317267Y248602D01*
X315985Y248213D01*
X314804Y247581D01*
X313768Y246732D01*
X312919Y245696D01*
X312287Y244515D01*
X311898Y243233D01*
X311767Y241900D01*
X311898Y240567D01*
X312287Y239285D01*
X312919Y238104D01*
X313768Y237068D01*
X314804Y236219D01*
X315985Y235587D01*
X317267Y235198D01*
X318600Y235067D01*
X319933Y235198D01*
X321215Y235587D01*
X322396Y236219D01*
X323432Y237068D01*
X324281Y238104D01*
X324913Y239285D01*
X325302Y240567D01*
X325433Y241900D01*
X325302Y243233D01*
X324913Y244515D01*
X324281Y245696D01*
X323432Y246732D01*
X322396Y247581D01*
X321215Y248213D01*
X319933Y248602D01*
X318600Y248733D01*
D02*
G37*
G36*
X65900D02*
X64567Y248602D01*
X63285Y248213D01*
X62104Y247581D01*
X61068Y246732D01*
X60219Y245696D01*
X59587Y244515D01*
X59198Y243233D01*
X59067Y241900D01*
X59198Y240567D01*
X59587Y239285D01*
X60219Y238104D01*
X61068Y237068D01*
X62104Y236219D01*
X63285Y235587D01*
X64567Y235198D01*
X65900Y235067D01*
X67233Y235198D01*
X68515Y235587D01*
X69696Y236219D01*
X70732Y237068D01*
X71581Y238104D01*
X72213Y239285D01*
X72602Y240567D01*
X72733Y241900D01*
X72602Y243233D01*
X72213Y244515D01*
X71581Y245696D01*
X70732Y246732D01*
X69696Y247581D01*
X68515Y248213D01*
X67233Y248602D01*
X65900Y248733D01*
D02*
G37*
G36*
X156100Y207931D02*
X155476Y207807D01*
X154946Y207453D01*
X154593Y206924D01*
X154469Y206300D01*
X154593Y205676D01*
X154946Y205147D01*
X155476Y204793D01*
X156100Y204669D01*
X156724Y204793D01*
X157254Y205147D01*
X157607Y205676D01*
X157731Y206300D01*
X157607Y206924D01*
X157254Y207453D01*
X156724Y207807D01*
X156100Y207931D01*
D02*
G37*
G36*
X324200Y207831D02*
X323576Y207707D01*
X323046Y207353D01*
X322693Y206824D01*
X322569Y206200D01*
X322693Y205576D01*
X323046Y205047D01*
X323264Y204901D01*
X324742Y203423D01*
X324249Y202502D01*
X324100Y202531D01*
X323476Y202407D01*
X322947Y202053D01*
X322593Y201524D01*
X322469Y200900D01*
X322593Y200276D01*
X322947Y199747D01*
X323476Y199393D01*
X324100Y199269D01*
X324724Y199393D01*
X325254Y199747D01*
X325607Y200276D01*
X325731Y200900D01*
X325702Y201049D01*
X326623Y201542D01*
X327920Y200245D01*
Y194955D01*
X326445Y193480D01*
X322456D01*
X322200Y193531D01*
X321576Y193407D01*
X321046Y193053D01*
X320693Y192524D01*
X320569Y191900D01*
X320693Y191276D01*
X321046Y190746D01*
X321576Y190393D01*
X322200Y190269D01*
X322456Y190320D01*
X327100D01*
X327705Y190440D01*
X328218Y190782D01*
X330617Y193183D01*
X330960Y193695D01*
X331080Y194300D01*
Y200900D01*
X330960Y201505D01*
X330617Y202017D01*
X325499Y207136D01*
X325354Y207353D01*
X324824Y207707D01*
X324200Y207831D01*
D02*
G37*
G36*
X301700Y204431D02*
X301076Y204307D01*
X300547Y203954D01*
X300193Y203424D01*
X300069Y202800D01*
X300193Y202176D01*
X300547Y201646D01*
X301076Y201293D01*
X301700Y201169D01*
X302324Y201293D01*
X302853Y201646D01*
X303207Y202176D01*
X303331Y202800D01*
X303207Y203424D01*
X302853Y203954D01*
X302324Y204307D01*
X301700Y204431D01*
D02*
G37*
G36*
X80500Y201231D02*
X79876Y201107D01*
X79347Y200753D01*
X78993Y200224D01*
X78869Y199600D01*
X78993Y198976D01*
X79347Y198447D01*
X79876Y198093D01*
X80500Y197969D01*
X81124Y198093D01*
X81653Y198447D01*
X82007Y198976D01*
X82131Y199600D01*
X82007Y200224D01*
X81653Y200753D01*
X81124Y201107D01*
X80500Y201231D01*
D02*
G37*
G36*
X140174Y194602D02*
X140172D01*
X140170D01*
X140159Y194600D01*
X140143Y194598D01*
X140121Y194594D01*
X140099Y194585D01*
X140074Y194574D01*
X140050Y194558D01*
X140026Y194536D01*
X140024Y194532D01*
X140017Y194523D01*
X140008Y194509D01*
X139997Y194485D01*
X139986Y194458D01*
X139977Y194421D01*
X139970Y194379D01*
X139968Y194330D01*
Y193934D01*
X140385D01*
Y194308D01*
X140383Y194330D01*
X140381Y194356D01*
X140379Y194385D01*
X140376Y194414D01*
X140370Y194443D01*
X140363Y194469D01*
X140361Y194472D01*
X140358Y194480D01*
X140352Y194491D01*
X140345Y194505D01*
X140334Y194521D01*
X140321Y194538D01*
X140305Y194554D01*
X140287Y194567D01*
X140285Y194569D01*
X140278Y194572D01*
X140267Y194578D01*
X140252Y194585D01*
X140236Y194591D01*
X140217Y194596D01*
X140196Y194600D01*
X140174Y194602D01*
D02*
G37*
G36*
X148074Y194501D02*
X148072D01*
X148070D01*
X148059Y194500D01*
X148043Y194498D01*
X148021Y194494D01*
X147999Y194485D01*
X147974Y194474D01*
X147950Y194458D01*
X147926Y194436D01*
X147924Y194432D01*
X147917Y194423D01*
X147908Y194409D01*
X147897Y194385D01*
X147886Y194358D01*
X147877Y194321D01*
X147870Y194280D01*
X147868Y194230D01*
Y193875D01*
X148285D01*
Y194209D01*
X148283Y194230D01*
X148281Y194256D01*
X148279Y194285D01*
X148276Y194314D01*
X148270Y194343D01*
X148263Y194369D01*
X148261Y194372D01*
X148258Y194380D01*
X148252Y194390D01*
X148245Y194405D01*
X148234Y194421D01*
X148221Y194438D01*
X148205Y194454D01*
X148187Y194467D01*
X148185Y194469D01*
X148178Y194472D01*
X148167Y194478D01*
X148152Y194485D01*
X148136Y194491D01*
X148117Y194496D01*
X148096Y194500D01*
X148074Y194501D01*
D02*
G37*
G36*
X307400Y195031D02*
X306776Y194907D01*
X306246Y194553D01*
X305893Y194024D01*
X305769Y193400D01*
X305893Y192776D01*
X306246Y192246D01*
X306776Y191893D01*
X307400Y191769D01*
X308024Y191893D01*
X308554Y192246D01*
X308907Y192776D01*
X309031Y193400D01*
X308907Y194024D01*
X308554Y194553D01*
X308024Y194907D01*
X307400Y195031D01*
D02*
G37*
G36*
X376100Y193931D02*
X375476Y193807D01*
X374946Y193454D01*
X374593Y192924D01*
X374469Y192300D01*
X374593Y191676D01*
X374946Y191147D01*
X375476Y190793D01*
X376100Y190669D01*
X376724Y190793D01*
X377254Y191147D01*
X377607Y191676D01*
X377731Y192300D01*
X377607Y192924D01*
X377254Y193454D01*
X376724Y193807D01*
X376100Y193931D01*
D02*
G37*
G36*
X369000D02*
X368376Y193807D01*
X367846Y193454D01*
X367493Y192924D01*
X367369Y192300D01*
X367493Y191676D01*
X367846Y191147D01*
X368376Y190793D01*
X369000Y190669D01*
X369624Y190793D01*
X370153Y191147D01*
X370507Y191676D01*
X370631Y192300D01*
X370507Y192924D01*
X370153Y193454D01*
X369624Y193807D01*
X369000Y193931D01*
D02*
G37*
G36*
X362200D02*
X361576Y193807D01*
X361047Y193454D01*
X360693Y192924D01*
X360569Y192300D01*
X360693Y191676D01*
X361047Y191147D01*
X361576Y190793D01*
X362200Y190669D01*
X362824Y190793D01*
X363353Y191147D01*
X363707Y191676D01*
X363831Y192300D01*
X363707Y192924D01*
X363353Y193454D01*
X362824Y193807D01*
X362200Y193931D01*
D02*
G37*
G36*
X294100Y193131D02*
X293476Y193007D01*
X292947Y192654D01*
X292593Y192124D01*
X292469Y191500D01*
X292593Y190876D01*
X292947Y190347D01*
X293476Y189993D01*
X294100Y189869D01*
X294724Y189993D01*
X295253Y190347D01*
X295607Y190876D01*
X295731Y191500D01*
X295607Y192124D01*
X295253Y192654D01*
X294724Y193007D01*
X294100Y193131D01*
D02*
G37*
G36*
X280600Y192531D02*
X279976Y192407D01*
X279447Y192053D01*
X279093Y191524D01*
X278969Y190900D01*
X279093Y190276D01*
X279447Y189746D01*
X279976Y189393D01*
X280600Y189269D01*
X281224Y189393D01*
X281753Y189746D01*
X282107Y190276D01*
X282231Y190900D01*
X282107Y191524D01*
X281753Y192053D01*
X281224Y192407D01*
X280600Y192531D01*
D02*
G37*
G36*
X94771Y187749D02*
X94767D01*
X94760D01*
X94749Y187745D01*
X94734D01*
X94691Y187738D01*
X94643Y187727D01*
X94585Y187709D01*
X94530Y187691D01*
X94476Y187662D01*
X94428Y187629D01*
X94425D01*
X94421Y187622D01*
X94399Y187603D01*
X94370Y187571D01*
X94337Y187527D01*
X94305Y187472D01*
X94275Y187407D01*
X94266Y187374D01*
X94771D01*
Y187749D01*
D02*
G37*
G36*
X73595Y180025D02*
X72198D01*
Y180017D01*
X72202Y179999D01*
X72209Y179959D01*
X72220Y179904D01*
X72242Y179846D01*
X72271Y179780D01*
X72315Y179718D01*
X72344Y179686D01*
X72373Y179657D01*
X72377Y179653D01*
X72380Y179649D01*
X72391Y179642D01*
X72406Y179631D01*
X72424Y179620D01*
X72446Y179606D01*
X72475Y179591D01*
X72504Y179577D01*
X72540Y179562D01*
X72581Y179551D01*
X72624Y179536D01*
X72672Y179526D01*
X72726Y179515D01*
X72781Y179507D01*
X72843Y179500D01*
X72908D01*
X72912D01*
X72923D01*
X72941D01*
X72963Y179504D01*
X72992D01*
X73025Y179507D01*
X73101Y179518D01*
X73181Y179536D01*
X73269Y179566D01*
X73349Y179606D01*
X73389Y179628D01*
X73421Y179657D01*
X73425D01*
X73429Y179664D01*
X73450Y179686D01*
X73476Y179718D01*
X73509Y179762D01*
X73541Y179817D01*
X73571Y179882D01*
X73589Y179955D01*
X73593Y179995D01*
X73595Y180025D01*
D02*
G37*
G36*
X361000Y180831D02*
X360376Y180707D01*
X359846Y180353D01*
X359493Y179824D01*
X359369Y179200D01*
X359493Y178576D01*
X359846Y178047D01*
X360376Y177693D01*
X361000Y177569D01*
X361624Y177693D01*
X362154Y178047D01*
X362507Y178576D01*
X362631Y179200D01*
X362507Y179824D01*
X362154Y180353D01*
X361624Y180707D01*
X361000Y180831D01*
D02*
G37*
G36*
X72897Y178619D02*
X72894D01*
X72883D01*
X72865D01*
X72839Y178616D01*
X72810D01*
X72777Y178612D01*
X72701Y178601D01*
X72613Y178583D01*
X72526Y178554D01*
X72442Y178517D01*
X72406Y178492D01*
X72369Y178466D01*
Y178463D01*
X72362Y178459D01*
X72344Y178437D01*
X72315Y178404D01*
X72286Y178361D01*
X72253Y178306D01*
X72224Y178241D01*
X72206Y178164D01*
X72202Y178124D01*
X72198Y178080D01*
Y178059D01*
X72202Y178041D01*
X72209Y178000D01*
X72220Y177946D01*
X72242Y177888D01*
X72271Y177822D01*
X72315Y177760D01*
X72344Y177727D01*
X72373Y177698D01*
X72377Y177695D01*
X72380Y177691D01*
X72391Y177684D01*
X72406Y177673D01*
X72424Y177662D01*
X72446Y177647D01*
X72475Y177633D01*
X72504Y177618D01*
X72540Y177604D01*
X72581Y177593D01*
X72624Y177578D01*
X72672Y177567D01*
X72726Y177556D01*
X72781Y177549D01*
X72843Y177542D01*
X72908D01*
X72912D01*
X72923D01*
X72941D01*
X72963Y177545D01*
X72992D01*
X73025Y177549D01*
X73101Y177560D01*
X73181Y177578D01*
X73269Y177607D01*
X73349Y177647D01*
X73389Y177669D01*
X73421Y177698D01*
X73425D01*
X73429Y177706D01*
X73450Y177727D01*
X73476Y177760D01*
X73509Y177804D01*
X73541Y177858D01*
X73571Y177924D01*
X73589Y177997D01*
X73593Y178037D01*
X73596Y178080D01*
Y178102D01*
X73593Y178121D01*
X73589Y178161D01*
X73574Y178215D01*
X73552Y178277D01*
X73523Y178343D01*
X73480Y178404D01*
X73450Y178437D01*
X73421Y178466D01*
X73418D01*
X73414Y178474D01*
X73403Y178481D01*
X73389Y178492D01*
X73370Y178503D01*
X73349Y178514D01*
X73320Y178528D01*
X73290Y178543D01*
X73254Y178557D01*
X73218Y178572D01*
X73174Y178583D01*
X73127Y178594D01*
X73076Y178605D01*
X73021Y178612D01*
X72959Y178616D01*
X72897Y178619D01*
D02*
G37*
G36*
X308400Y177031D02*
X307776Y176907D01*
X307246Y176553D01*
X306893Y176024D01*
X306769Y175400D01*
X306893Y174776D01*
X307246Y174247D01*
X307776Y173893D01*
X308400Y173769D01*
X309024Y173893D01*
X309554Y174247D01*
X309907Y174776D01*
X310031Y175400D01*
X309907Y176024D01*
X309554Y176553D01*
X309024Y176907D01*
X308400Y177031D01*
D02*
G37*
G36*
X7000Y172485D02*
X6020Y172356D01*
X5107Y171978D01*
X4324Y171377D01*
X3722Y170593D01*
X3344Y169680D01*
X3215Y168700D01*
X3344Y167720D01*
X3722Y166807D01*
X4324Y166024D01*
X5107Y165422D01*
X6020Y165044D01*
X7000Y164915D01*
X7980Y165044D01*
X8893Y165422D01*
X9676Y166024D01*
X10278Y166807D01*
X10656Y167720D01*
X10785Y168700D01*
X10656Y169680D01*
X10278Y170593D01*
X9676Y171377D01*
X8893Y171978D01*
X7980Y172356D01*
X7000Y172485D01*
D02*
G37*
G36*
X371300Y157031D02*
X370676Y156907D01*
X370146Y156553D01*
X369793Y156024D01*
X369669Y155400D01*
X369793Y154776D01*
X370146Y154246D01*
X370676Y153893D01*
X371300Y153769D01*
X371924Y153893D01*
X372453Y154246D01*
X372807Y154776D01*
X372931Y155400D01*
X372807Y156024D01*
X372453Y156553D01*
X371924Y156907D01*
X371300Y157031D01*
D02*
G37*
G36*
X26400Y153850D02*
Y151500D01*
X28800D01*
Y153850D01*
X26400D01*
D02*
G37*
G36*
X28800Y150500D02*
X26400D01*
Y148150D01*
X28800D01*
Y150500D01*
D02*
G37*
G36*
X355101Y139643D02*
Y139503D01*
X355103Y139505D01*
X355112Y139512D01*
X355123Y139523D01*
X355141Y139535D01*
X355161Y139552D01*
X355180Y139565D01*
X355101Y139643D01*
D02*
G37*
G36*
X359800Y141131D02*
X359176Y141007D01*
X358646Y140654D01*
X358293Y140124D01*
X358169Y139500D01*
X358293Y138876D01*
X358646Y138347D01*
X359176Y137993D01*
X359800Y137869D01*
X360424Y137993D01*
X360953Y138347D01*
X361307Y138876D01*
X361431Y139500D01*
X361307Y140124D01*
X360953Y140654D01*
X360424Y141007D01*
X359800Y141131D01*
D02*
G37*
G36*
X212500Y134031D02*
X211876Y133907D01*
X211347Y133554D01*
X210993Y133024D01*
X210869Y132400D01*
X210993Y131776D01*
X211347Y131246D01*
X211876Y130893D01*
X212500Y130769D01*
X213124Y130893D01*
X213653Y131246D01*
X214007Y131776D01*
X214131Y132400D01*
X214007Y133024D01*
X213653Y133554D01*
X213124Y133907D01*
X212500Y134031D01*
D02*
G37*
G36*
X143500Y132431D02*
X142876Y132307D01*
X142347Y131954D01*
X141993Y131424D01*
X141869Y130800D01*
X141993Y130176D01*
X142347Y129647D01*
X142876Y129293D01*
X143500Y129169D01*
X144124Y129293D01*
X144653Y129647D01*
X145007Y130176D01*
X145131Y130800D01*
X145007Y131424D01*
X144653Y131954D01*
X144124Y132307D01*
X143500Y132431D01*
D02*
G37*
G36*
X50204Y139580D02*
Y129100D01*
X55733D01*
Y133600D01*
X55617Y134776D01*
X55274Y135907D01*
X54717Y136950D01*
X53967Y137863D01*
X53053Y138613D01*
X52011Y139170D01*
X50880Y139513D01*
X50204Y139580D01*
D02*
G37*
G36*
X49204D02*
X48528Y139513D01*
X47397Y139170D01*
X46354Y138613D01*
X45441Y137863D01*
X44691Y136950D01*
X44134Y135907D01*
X43791Y134776D01*
X43675Y133600D01*
Y129100D01*
X49204D01*
Y139580D01*
D02*
G37*
G36*
X205900Y128931D02*
X205276Y128807D01*
X204747Y128454D01*
X204393Y127924D01*
X204269Y127300D01*
X204393Y126676D01*
X204747Y126146D01*
X205276Y125793D01*
X205900Y125669D01*
X206524Y125793D01*
X207053Y126146D01*
X207407Y126676D01*
X207531Y127300D01*
X207407Y127924D01*
X207053Y128454D01*
X206524Y128807D01*
X205900Y128931D01*
D02*
G37*
G36*
X160300Y128731D02*
X159676Y128607D01*
X159146Y128253D01*
X158793Y127724D01*
X158669Y127100D01*
X158793Y126476D01*
X159146Y125946D01*
X159676Y125593D01*
X160300Y125469D01*
X160924Y125593D01*
X161453Y125946D01*
X161807Y126476D01*
X161931Y127100D01*
X161807Y127724D01*
X161453Y128253D01*
X160924Y128607D01*
X160300Y128731D01*
D02*
G37*
G36*
X382600Y134600D02*
X373000D01*
Y125000D01*
X382600D01*
Y134600D01*
D02*
G37*
G36*
X104232Y141941D02*
X102145Y141777D01*
X100109Y141288D01*
X98175Y140487D01*
X96390Y139393D01*
X94798Y138034D01*
X93438Y136442D01*
X92344Y134657D01*
X91543Y132723D01*
X91055Y130687D01*
X90890Y128600D01*
X91055Y126513D01*
X91543Y124477D01*
X92344Y122543D01*
X93438Y120758D01*
X94798Y119166D01*
X96390Y117807D01*
X98175Y116713D01*
X100109Y115912D01*
X102145Y115423D01*
X104232Y115259D01*
X106318Y115423D01*
X108354Y115912D01*
X110288Y116713D01*
X112073Y117807D01*
X113665Y119166D01*
X115025Y120758D01*
X116119Y122543D01*
X116920Y124477D01*
X117408Y126513D01*
X117573Y128600D01*
X117408Y130687D01*
X116920Y132723D01*
X116119Y134657D01*
X115025Y136442D01*
X113665Y138034D01*
X112073Y139393D01*
X110288Y140487D01*
X108354Y141288D01*
X106318Y141777D01*
X104232Y141941D01*
D02*
G37*
G36*
X185900Y116731D02*
X185276Y116607D01*
X184747Y116253D01*
X184393Y115724D01*
X184269Y115100D01*
X184393Y114476D01*
X184747Y113946D01*
X185276Y113593D01*
X185900Y113469D01*
X186524Y113593D01*
X187054Y113946D01*
X187407Y114476D01*
X187531Y115100D01*
X187407Y115724D01*
X187054Y116253D01*
X186524Y116607D01*
X185900Y116731D01*
D02*
G37*
G36*
X144700Y112731D02*
X144076Y112607D01*
X143546Y112253D01*
X143193Y111724D01*
X143069Y111100D01*
X143193Y110476D01*
X143546Y109947D01*
X144076Y109593D01*
X144700Y109469D01*
X145324Y109593D01*
X145853Y109947D01*
X146207Y110476D01*
X146331Y111100D01*
X146207Y111724D01*
X145853Y112253D01*
X145324Y112607D01*
X144700Y112731D01*
D02*
G37*
G36*
X55400Y106631D02*
X54776Y106507D01*
X54246Y106154D01*
X53893Y105624D01*
X53769Y105000D01*
X53893Y104376D01*
X54246Y103847D01*
X54776Y103493D01*
X55400Y103369D01*
X56024Y103493D01*
X56554Y103847D01*
X56907Y104376D01*
X57031Y105000D01*
X56907Y105624D01*
X56554Y106154D01*
X56024Y106507D01*
X55400Y106631D01*
D02*
G37*
G36*
X213027Y102409D02*
X212403Y102285D01*
X211873Y101931D01*
X211520Y101402D01*
X211396Y100778D01*
X211520Y100154D01*
X211873Y99624D01*
X212403Y99271D01*
X213027Y99146D01*
X213651Y99271D01*
X213923Y99452D01*
X217276D01*
X217347Y99347D01*
X217876Y98993D01*
X218500Y98869D01*
X219124Y98993D01*
X219654Y99347D01*
X220007Y99876D01*
X220131Y100500D01*
X220007Y101124D01*
X219654Y101654D01*
X219124Y102007D01*
X218500Y102131D01*
X218290Y102090D01*
X218222Y102103D01*
X213923D01*
X213651Y102285D01*
X213027Y102409D01*
D02*
G37*
G36*
X10753Y71353D02*
X7322D01*
X7984Y71171D01*
Y71004D01*
X7009Y70736D01*
X7007D01*
X7004Y70734D01*
X6998Y70732D01*
X6989Y70731D01*
X6969Y70725D01*
X6944Y70719D01*
X6919Y70712D01*
X6895Y70705D01*
X6874Y70699D01*
X6865Y70697D01*
X6859Y70695D01*
X6861D01*
X6863Y70693D01*
X6874Y70692D01*
X6891Y70688D01*
X6911Y70682D01*
X6933Y70677D01*
X6959Y70669D01*
X6985Y70664D01*
X7009Y70657D01*
X7984Y70386D01*
Y70209D01*
X6704Y69874D01*
Y70050D01*
X7544Y70240D01*
X7546D01*
X7549Y70242D01*
X7557Y70244D01*
X7566Y70246D01*
X7579Y70248D01*
X7592Y70251D01*
X7609Y70255D01*
X7627Y70259D01*
X7666Y70268D01*
X7711Y70277D01*
X7758Y70287D01*
X7807Y70296D01*
X7805D01*
X7797Y70298D01*
X7788Y70301D01*
X7773Y70303D01*
X7758Y70307D01*
X7740Y70312D01*
X7699Y70322D01*
X7659Y70333D01*
X7638Y70336D01*
X7620Y70342D01*
X7603Y70346D01*
X7588Y70349D01*
X7577Y70353D01*
X7570Y70355D01*
X6704Y70597D01*
Y70803D01*
X7353Y70984D01*
X7355D01*
X7365Y70988D01*
X7378Y70991D01*
X7394Y70995D01*
X7416Y71001D01*
X7440Y71008D01*
X7468Y71015D01*
X7500Y71023D01*
X7535Y71032D01*
X7570Y71039D01*
X7646Y71056D01*
X7725Y71073D01*
X7807Y71086D01*
X7805D01*
X7801Y71087D01*
X7794D01*
X7784Y71091D01*
X7773Y71093D01*
X7760Y71097D01*
X7744Y71099D01*
X7725Y71104D01*
X7685Y71113D01*
X7637Y71125D01*
X7585Y71136D01*
X7527Y71150D01*
X6704Y71350D01*
Y71353D01*
X3247D01*
Y63847D01*
X10753D01*
Y71353D01*
D02*
G37*
G36*
X314900Y62931D02*
X314276Y62807D01*
X313747Y62454D01*
X313393Y61924D01*
X313269Y61300D01*
X313393Y60676D01*
X313747Y60146D01*
X314276Y59793D01*
X314900Y59669D01*
X315524Y59793D01*
X316054Y60146D01*
X316407Y60676D01*
X316531Y61300D01*
X316407Y61924D01*
X316054Y62454D01*
X315524Y62807D01*
X314900Y62931D01*
D02*
G37*
G36*
X188000Y48831D02*
X187376Y48707D01*
X186846Y48353D01*
X186493Y47824D01*
X186369Y47200D01*
X186493Y46576D01*
X186846Y46047D01*
X187376Y45693D01*
X188000Y45569D01*
X188624Y45693D01*
X188896Y45875D01*
X231051D01*
X247429Y29496D01*
X247493Y29176D01*
X247847Y28646D01*
X248376Y28293D01*
X249000Y28169D01*
X249624Y28293D01*
X250153Y28646D01*
X250507Y29176D01*
X250631Y29800D01*
X250507Y30424D01*
X250153Y30953D01*
X249624Y31307D01*
X249304Y31371D01*
X232537Y48137D01*
X232107Y48425D01*
X231600Y48526D01*
X188896D01*
X188624Y48707D01*
X188000Y48831D01*
D02*
G37*
G36*
X270300Y79031D02*
X269676Y78907D01*
X269146Y78553D01*
X268793Y78024D01*
X268729Y77703D01*
X256451Y65425D01*
X155300D01*
X154793Y65325D01*
X154363Y65037D01*
X145863Y56537D01*
X145575Y56107D01*
X145475Y55600D01*
Y41396D01*
X145293Y41124D01*
X145169Y40500D01*
X145293Y39876D01*
X145647Y39347D01*
X146176Y38993D01*
X146800Y38869D01*
X147424Y38993D01*
X147953Y39347D01*
X148307Y39876D01*
X148431Y40500D01*
X148307Y41124D01*
X148126Y41396D01*
Y55051D01*
X155849Y62774D01*
X162132D01*
X162435Y61774D01*
X162070Y61530D01*
X161539Y60736D01*
X161353Y59800D01*
X161539Y58864D01*
X162070Y58070D01*
X162864Y57539D01*
X163800Y57353D01*
X164278Y57448D01*
X193163Y28563D01*
X193593Y28275D01*
X194100Y28174D01*
X227704D01*
X227976Y27993D01*
X228600Y27869D01*
X229224Y27993D01*
X229753Y28346D01*
X230107Y28876D01*
X230231Y29500D01*
X230107Y30124D01*
X229753Y30654D01*
X229224Y31007D01*
X228600Y31131D01*
X227976Y31007D01*
X227704Y30825D01*
X194649D01*
X166152Y59323D01*
X166247Y59800D01*
X166061Y60736D01*
X165530Y61530D01*
X165165Y61774D01*
X165468Y62774D01*
X257000D01*
X257507Y62875D01*
X257937Y63163D01*
X270603Y75829D01*
X270924Y75893D01*
X271453Y76247D01*
X271807Y76776D01*
X271931Y77400D01*
X271807Y78024D01*
X271453Y78553D01*
X270924Y78907D01*
X270300Y79031D01*
D02*
G37*
G36*
X143918Y28944D02*
X143293Y28820D01*
X142764Y28466D01*
X142411Y27937D01*
X142286Y27312D01*
X142411Y26688D01*
X142764Y26159D01*
X143293Y25805D01*
X143918Y25681D01*
X144542Y25805D01*
X145071Y26159D01*
X145425Y26688D01*
X145549Y27312D01*
X145425Y27937D01*
X145071Y28466D01*
X144542Y28820D01*
X143918Y28944D01*
D02*
G37*
G36*
X238500Y27031D02*
X237876Y26907D01*
X237347Y26553D01*
X237284Y26460D01*
X237100Y26337D01*
X236289Y25526D01*
X225696D01*
X225424Y25707D01*
X224800Y25831D01*
X224176Y25707D01*
X223646Y25354D01*
X223293Y24824D01*
X223169Y24200D01*
X223293Y23576D01*
X223646Y23046D01*
X224176Y22693D01*
X224800Y22569D01*
X225424Y22693D01*
X225696Y22874D01*
X236838D01*
X237345Y22975D01*
X237775Y23263D01*
X238317Y23805D01*
X238500Y23769D01*
X239124Y23893D01*
X239653Y24247D01*
X240007Y24776D01*
X240131Y25400D01*
X240007Y26024D01*
X239653Y26553D01*
X239124Y26907D01*
X238500Y27031D01*
D02*
G37*
G36*
X318600Y22833D02*
X317267Y22702D01*
X315985Y22313D01*
X314804Y21681D01*
X313768Y20832D01*
X312919Y19796D01*
X312287Y18615D01*
X311898Y17333D01*
X311767Y16000D01*
X311898Y14667D01*
X312287Y13385D01*
X312919Y12204D01*
X313768Y11168D01*
X314804Y10319D01*
X315985Y9687D01*
X317267Y9298D01*
X318600Y9167D01*
X319933Y9298D01*
X321215Y9687D01*
X322396Y10319D01*
X323432Y11168D01*
X324281Y12204D01*
X324913Y13385D01*
X325302Y14667D01*
X325433Y16000D01*
X325302Y17333D01*
X324913Y18615D01*
X324281Y19796D01*
X323432Y20832D01*
X322396Y21681D01*
X321215Y22313D01*
X319933Y22702D01*
X318600Y22833D01*
D02*
G37*
G36*
X65900D02*
X64567Y22702D01*
X63285Y22313D01*
X62104Y21681D01*
X61068Y20832D01*
X60219Y19796D01*
X59587Y18615D01*
X59198Y17333D01*
X59067Y16000D01*
X59198Y14667D01*
X59587Y13385D01*
X60219Y12204D01*
X61068Y11168D01*
X62104Y10319D01*
X63285Y9687D01*
X64567Y9298D01*
X65900Y9167D01*
X67233Y9298D01*
X68515Y9687D01*
X69696Y10319D01*
X70732Y11168D01*
X71581Y12204D01*
X72213Y13385D01*
X72602Y14667D01*
X72733Y16000D01*
X72602Y17333D01*
X72213Y18615D01*
X71581Y19796D01*
X70732Y20832D01*
X69696Y21681D01*
X68515Y22313D01*
X67233Y22702D01*
X65900Y22833D01*
D02*
G37*
%LPD*%
G36*
X7662Y69756D02*
X7688Y69752D01*
X7718Y69744D01*
X7749Y69735D01*
X7783Y69720D01*
X7818Y69700D01*
X7820D01*
X7822Y69698D01*
X7833Y69689D01*
X7849Y69676D01*
X7868Y69657D01*
X7890Y69633D01*
X7914Y69604D01*
X7936Y69570D01*
X7957Y69532D01*
Y69530D01*
X7958Y69526D01*
X7960Y69521D01*
X7964Y69513D01*
X7968Y69502D01*
X7973Y69489D01*
X7981Y69459D01*
X7990Y69424D01*
X7999Y69382D01*
X8005Y69336D01*
X8006Y69286D01*
Y69256D01*
X8005Y69241D01*
Y69225D01*
X8003Y69206D01*
X8001Y69184D01*
X7993Y69138D01*
X7986Y69090D01*
X7973Y69041D01*
X7957Y68995D01*
Y68993D01*
X7955Y68990D01*
X7951Y68984D01*
X7947Y68977D01*
X7936Y68954D01*
X7920Y68929D01*
X7897Y68899D01*
X7871Y68867D01*
X7840Y68838D01*
X7805Y68810D01*
X7803D01*
X7799Y68806D01*
X7794Y68805D01*
X7786Y68799D01*
X7777Y68795D01*
X7766Y68790D01*
X7738Y68777D01*
X7703Y68764D01*
X7664Y68753D01*
X7620Y68745D01*
X7574Y68742D01*
X7559Y68901D01*
X7561D01*
X7562D01*
X7568Y68903D01*
X7575D01*
X7592Y68906D01*
X7616Y68912D01*
X7640Y68919D01*
X7668Y68927D01*
X7694Y68940D01*
X7718Y68953D01*
X7720Y68954D01*
X7727Y68960D01*
X7740Y68969D01*
X7753Y68984D01*
X7770Y69003D01*
X7786Y69023D01*
X7803Y69051D01*
X7818Y69080D01*
Y69082D01*
X7820Y69084D01*
X7822Y69090D01*
X7823Y69095D01*
X7829Y69114D01*
X7836Y69138D01*
X7844Y69167D01*
X7849Y69200D01*
X7853Y69238D01*
X7855Y69278D01*
Y69295D01*
X7853Y69313D01*
X7851Y69336D01*
X7847Y69362D01*
X7844Y69391D01*
X7836Y69421D01*
X7827Y69448D01*
X7825Y69452D01*
X7822Y69461D01*
X7814Y69474D01*
X7807Y69491D01*
X7794Y69508D01*
X7781Y69526D01*
X7766Y69545D01*
X7747Y69559D01*
X7746Y69561D01*
X7738Y69565D01*
X7729Y69570D01*
X7714Y69578D01*
X7699Y69585D01*
X7681Y69591D01*
X7660Y69595D01*
X7638Y69596D01*
X7637D01*
X7627D01*
X7616Y69595D01*
X7601Y69593D01*
X7587Y69587D01*
X7568Y69582D01*
X7549Y69572D01*
X7533Y69559D01*
X7531Y69558D01*
X7525Y69552D01*
X7518Y69545D01*
X7507Y69532D01*
X7496Y69517D01*
X7483Y69497D01*
X7470Y69472D01*
X7459Y69445D01*
X7457Y69443D01*
X7455Y69434D01*
X7450Y69419D01*
X7448Y69410D01*
X7444Y69397D01*
X7439Y69384D01*
X7435Y69367D01*
X7429Y69349D01*
X7424Y69326D01*
X7418Y69304D01*
X7411Y69278D01*
X7403Y69249D01*
X7396Y69217D01*
Y69215D01*
X7394Y69210D01*
X7392Y69200D01*
X7389Y69189D01*
X7385Y69175D01*
X7381Y69158D01*
X7370Y69121D01*
X7357Y69080D01*
X7344Y69038D01*
X7331Y69001D01*
X7324Y68984D01*
X7316Y68969D01*
Y68967D01*
X7315Y68966D01*
X7307Y68954D01*
X7298Y68938D01*
X7283Y68919D01*
X7266Y68897D01*
X7246Y68875D01*
X7222Y68853D01*
X7196Y68834D01*
X7192Y68832D01*
X7183Y68827D01*
X7168Y68819D01*
X7150Y68812D01*
X7126Y68805D01*
X7098Y68797D01*
X7068Y68792D01*
X7037Y68790D01*
X7035D01*
X7033D01*
X7028D01*
X7020D01*
X7002Y68793D01*
X6978Y68797D01*
X6950Y68803D01*
X6919Y68812D01*
X6887Y68825D01*
X6856Y68844D01*
X6854D01*
X6852Y68845D01*
X6841Y68855D01*
X6826Y68867D01*
X6808Y68884D01*
X6787Y68906D01*
X6765Y68934D01*
X6745Y68967D01*
X6726Y69004D01*
Y69006D01*
X6724Y69010D01*
X6723Y69016D01*
X6719Y69023D01*
X6715Y69032D01*
X6712Y69045D01*
X6704Y69073D01*
X6697Y69108D01*
X6689Y69149D01*
X6684Y69191D01*
X6682Y69239D01*
Y69263D01*
X6684Y69276D01*
Y69289D01*
X6687Y69324D01*
X6693Y69363D01*
X6702Y69404D01*
X6713Y69448D01*
X6728Y69489D01*
Y69491D01*
X6730Y69495D01*
X6734Y69500D01*
X6737Y69508D01*
X6747Y69526D01*
X6763Y69550D01*
X6782Y69578D01*
X6806Y69606D01*
X6833Y69632D01*
X6865Y69656D01*
X6867D01*
X6869Y69657D01*
X6874Y69661D01*
X6880Y69665D01*
X6898Y69674D01*
X6922Y69685D01*
X6952Y69698D01*
X6987Y69707D01*
X7024Y69717D01*
X7065Y69720D01*
X7078Y69558D01*
X7076D01*
X7072D01*
X7067Y69556D01*
X7057Y69554D01*
X7037Y69548D01*
X7009Y69541D01*
X6980Y69530D01*
X6950Y69513D01*
X6922Y69493D01*
X6897Y69467D01*
X6895Y69463D01*
X6887Y69454D01*
X6876Y69436D01*
X6865Y69411D01*
X6854Y69380D01*
X6843Y69343D01*
X6835Y69297D01*
X6833Y69245D01*
Y69219D01*
X6835Y69208D01*
X6837Y69193D01*
X6841Y69160D01*
X6848Y69123D01*
X6858Y69086D01*
X6872Y69051D01*
X6882Y69036D01*
X6891Y69021D01*
X6893Y69017D01*
X6900Y69010D01*
X6913Y68999D01*
X6928Y68988D01*
X6948Y68975D01*
X6970Y68964D01*
X6996Y68956D01*
X7026Y68953D01*
X7030D01*
X7037D01*
X7050Y68954D01*
X7065Y68958D01*
X7083Y68964D01*
X7102Y68973D01*
X7120Y68984D01*
X7139Y69001D01*
X7141Y69003D01*
X7146Y69012D01*
X7152Y69019D01*
X7156Y69027D01*
X7161Y69038D01*
X7168Y69051D01*
X7174Y69067D01*
X7181Y69086D01*
X7189Y69106D01*
X7198Y69130D01*
X7205Y69156D01*
X7215Y69186D01*
X7222Y69219D01*
X7231Y69256D01*
Y69258D01*
X7233Y69265D01*
X7235Y69276D01*
X7239Y69289D01*
X7242Y69306D01*
X7248Y69326D01*
X7254Y69347D01*
X7259Y69369D01*
X7272Y69417D01*
X7285Y69463D01*
X7292Y69485D01*
X7300Y69506D01*
X7305Y69524D01*
X7313Y69539D01*
Y69541D01*
X7315Y69545D01*
X7318Y69550D01*
X7322Y69558D01*
X7333Y69578D01*
X7348Y69602D01*
X7368Y69630D01*
X7390Y69657D01*
X7416Y69683D01*
X7444Y69706D01*
X7448Y69707D01*
X7457Y69715D01*
X7474Y69722D01*
X7496Y69733D01*
X7522Y69743D01*
X7553Y69752D01*
X7588Y69757D01*
X7625Y69759D01*
X7627D01*
X7629D01*
X7635D01*
X7642D01*
X7662Y69756D01*
D02*
G37*
%LPC*%
G36*
X148052Y195490D02*
X148050D01*
X148048D01*
X148037D01*
X148021Y195486D01*
X148001Y195483D01*
X147979Y195475D01*
X147956Y195464D01*
X147932Y195450D01*
X147908Y195430D01*
X147906Y195428D01*
X147899Y195419D01*
X147890Y195406D01*
X147879Y195390D01*
X147868Y195368D01*
X147859Y195344D01*
X147852Y195315D01*
X147850Y195284D01*
Y195270D01*
X147854Y195253D01*
X147857Y195231D01*
X147864Y195208D01*
X147874Y195182D01*
X147888Y195159D01*
X147908Y195135D01*
X147910Y195133D01*
X147917Y195126D01*
X147930Y195117D01*
X147946Y195108D01*
X147966Y195097D01*
X147990Y195088D01*
X148015Y195080D01*
X148045Y195079D01*
X148047D01*
X148048D01*
X148059Y195080D01*
X148076Y195082D01*
X148096Y195086D01*
X148119Y195093D01*
X148143Y195102D01*
X148168Y195117D01*
X148190Y195135D01*
X148192Y195137D01*
X148199Y195146D01*
X148208Y195159D01*
X148217Y195175D01*
X148229Y195197D01*
X148238Y195222D01*
X148245Y195251D01*
X148247Y195284D01*
Y195288D01*
X148245Y195299D01*
X148243Y195315D01*
X148239Y195337D01*
X148232Y195361D01*
X148223Y195384D01*
X148208Y195410D01*
X148190Y195431D01*
X148188Y195433D01*
X148179Y195441D01*
X148168Y195450D01*
X148152Y195461D01*
X148132Y195472D01*
X148108Y195481D01*
X148081Y195488D01*
X148052Y195490D01*
D02*
G37*
G36*
X148631Y195541D02*
X148629D01*
X148625D01*
X148620D01*
X148612Y195539D01*
X148592Y195537D01*
X148565Y195532D01*
X148538Y195522D01*
X148507Y195510D01*
X148476Y195492D01*
X148447Y195466D01*
X148443Y195463D01*
X148436Y195453D01*
X148423Y195437D01*
X148409Y195415D01*
X148396Y195388D01*
X148383Y195355D01*
X148376Y195319D01*
X148372Y195279D01*
Y195268D01*
X148374Y195261D01*
X148376Y195240D01*
X148381Y195215D01*
X148390Y195186D01*
X148403Y195157D01*
X148421Y195126D01*
X148445Y195098D01*
X148449Y195095D01*
X148458Y195088D01*
X148474Y195077D01*
X148494Y195064D01*
X148521Y195049D01*
X148552Y195038D01*
X148587Y195031D01*
X148625Y195027D01*
X148629D01*
X148636D01*
X148649Y195029D01*
X148665Y195031D01*
X148685Y195035D01*
X148707Y195040D01*
X148729Y195047D01*
X148753Y195057D01*
X148754Y195058D01*
X148764Y195062D01*
X148775Y195069D01*
X148787Y195080D01*
X148804Y195093D01*
X148820Y195109D01*
X148835Y195128D01*
X148849Y195149D01*
X148851Y195153D01*
X148854Y195160D01*
X148860Y195173D01*
X148865Y195189D01*
X148871Y195210D01*
X148876Y195233D01*
X148880Y195259D01*
X148882Y195284D01*
Y195295D01*
X148880Y195302D01*
X148878Y195324D01*
X148873Y195350D01*
X148864Y195379D01*
X148853Y195410D01*
X148835Y195439D01*
X148811Y195468D01*
X148807Y195472D01*
X148798Y195479D01*
X148782Y195492D01*
X148762Y195504D01*
X148736Y195517D01*
X148705Y195530D01*
X148669Y195537D01*
X148631Y195541D01*
D02*
G37*
G36*
X289600Y153631D02*
X288976Y153507D01*
X288446Y153154D01*
X288093Y152624D01*
X287969Y152000D01*
X288093Y151376D01*
X288446Y150847D01*
X288976Y150493D01*
X289600Y150369D01*
X290224Y150493D01*
X290754Y150847D01*
X291107Y151376D01*
X291231Y152000D01*
X291107Y152624D01*
X290754Y153154D01*
X290224Y153507D01*
X289600Y153631D01*
D02*
G37*
G36*
X302400Y153531D02*
X301776Y153407D01*
X301247Y153053D01*
X300893Y152524D01*
X300769Y151900D01*
X300893Y151276D01*
X301247Y150747D01*
X301776Y150393D01*
X302400Y150269D01*
X303024Y150393D01*
X303554Y150747D01*
X303907Y151276D01*
X304031Y151900D01*
X303907Y152524D01*
X303554Y153053D01*
X303024Y153407D01*
X302400Y153531D01*
D02*
G37*
G36*
X330500Y143931D02*
X329876Y143807D01*
X329346Y143454D01*
X328993Y142924D01*
X328869Y142300D01*
X328993Y141676D01*
X329346Y141147D01*
X329876Y140793D01*
X330500Y140669D01*
X331124Y140793D01*
X331653Y141147D01*
X332007Y141676D01*
X332131Y142300D01*
X332007Y142924D01*
X331653Y143454D01*
X331124Y143807D01*
X330500Y143931D01*
D02*
G37*
G36*
X324100D02*
X323476Y143807D01*
X322947Y143454D01*
X322593Y142924D01*
X322469Y142300D01*
X322593Y141676D01*
X322947Y141147D01*
X323476Y140793D01*
X324100Y140669D01*
X324724Y140793D01*
X325254Y141147D01*
X325607Y141676D01*
X325731Y142300D01*
X325607Y142924D01*
X325254Y143454D01*
X324724Y143807D01*
X324100Y143931D01*
D02*
G37*
G36*
X356700Y125831D02*
X356076Y125707D01*
X355546Y125354D01*
X355193Y124824D01*
X355069Y124200D01*
X355193Y123576D01*
X355546Y123047D01*
X356076Y122693D01*
X356700Y122569D01*
X357324Y122693D01*
X357854Y123047D01*
X358207Y123576D01*
X358331Y124200D01*
X358207Y124824D01*
X357854Y125354D01*
X357324Y125707D01*
X356700Y125831D01*
D02*
G37*
G36*
X362800Y125731D02*
X362176Y125607D01*
X361647Y125253D01*
X361293Y124724D01*
X361169Y124100D01*
X361293Y123476D01*
X361647Y122947D01*
X362176Y122593D01*
X362800Y122469D01*
X363424Y122593D01*
X363953Y122947D01*
X364307Y123476D01*
X364431Y124100D01*
X364307Y124724D01*
X363953Y125253D01*
X363424Y125607D01*
X362800Y125731D01*
D02*
G37*
G36*
X337696Y139428D02*
X336559Y139316D01*
X335466Y138984D01*
X334458Y138446D01*
X333575Y137721D01*
X332850Y136838D01*
X332312Y135830D01*
X331980Y134737D01*
X331868Y133600D01*
Y123600D01*
X331980Y122463D01*
X332312Y121370D01*
X332850Y120362D01*
X333575Y119479D01*
X334458Y118754D01*
X335466Y118216D01*
X336559Y117884D01*
X337696Y117772D01*
X338833Y117884D01*
X339926Y118216D01*
X340934Y118754D01*
X341817Y119479D01*
X342542Y120362D01*
X343080Y121370D01*
X343412Y122463D01*
X343524Y123600D01*
Y133600D01*
X343412Y134737D01*
X343080Y135830D01*
X342542Y136838D01*
X341817Y137721D01*
X340934Y138446D01*
X339926Y138984D01*
X338833Y139316D01*
X337696Y139428D01*
D02*
G37*
G36*
X362300Y102331D02*
X361676Y102207D01*
X361146Y101854D01*
X360793Y101324D01*
X360669Y100700D01*
X360793Y100076D01*
X361146Y99546D01*
X361676Y99193D01*
X362300Y99069D01*
X362924Y99193D01*
X363454Y99546D01*
X363807Y100076D01*
X363931Y100700D01*
X363807Y101324D01*
X363454Y101854D01*
X362924Y102207D01*
X362300Y102331D01*
D02*
G37*
%LPD*%
D11*
X257000Y64100D02*
X270300Y77400D01*
X155300Y64100D02*
X257000D01*
X32547Y126000D02*
X32833Y125715D01*
X30050Y126000D02*
X32547D01*
X26932Y126128D02*
X27024Y126221D01*
X29830D01*
X23137Y126128D02*
X26932D01*
X29830Y126221D02*
X30050Y126000D01*
X22850Y125841D02*
X23137Y126128D01*
X32547Y127800D02*
X32833Y128085D01*
X30796Y127800D02*
X32547D01*
X23137Y128113D02*
X26932D01*
X27024Y128021D02*
X30575D01*
X22850Y128400D02*
X23137Y128113D01*
X26932D02*
X27024Y128021D01*
X30575D02*
X30796Y127800D01*
X236838Y24200D02*
X238038Y25400D01*
X238500D01*
X224800Y24200D02*
X236838D01*
X213027Y100778D02*
X218222D01*
X218500Y100500D01*
X274500Y188600D02*
X294000Y169100D01*
X167900Y188600D02*
X274500D01*
X150677Y176223D02*
X151369Y176914D01*
X364770Y76200D02*
X381700Y93130D01*
X307600Y76200D02*
X364770D01*
X304700Y79100D02*
X307600Y76200D01*
X177500Y86400D02*
X226600Y135500D01*
X177500Y73100D02*
Y86400D01*
X146800Y55600D02*
X155300Y64100D01*
X202200Y171000D02*
X204597Y173397D01*
X206185D01*
X206300Y173512D01*
X208631Y172874D02*
Y175900D01*
X207170Y171412D02*
X208631Y172874D01*
X205559Y171412D02*
X207170D01*
X204000Y169853D02*
X205559Y171412D01*
X204000Y167947D02*
Y169853D01*
Y167947D02*
X207236Y164711D01*
X226490D01*
X206407Y178124D02*
X208631Y175900D01*
X226490Y164711D02*
X297201Y94000D01*
X152114Y175114D02*
X204649D01*
X206252Y173512D01*
X206300D01*
X207203Y168900D02*
X218103Y179800D01*
X206300Y168900D02*
X207203D01*
X277785Y179800D02*
X292485Y165100D01*
X324800D02*
X327500Y162400D01*
X292485Y165100D02*
X324800D01*
X218103Y179800D02*
X277785D01*
X325970Y166900D02*
X381700Y111170D01*
X293230Y166900D02*
X325970D01*
X290771Y169359D02*
X293230Y166900D01*
X150200Y176700D02*
X150677Y176223D01*
X226600Y135500D02*
Y157970D01*
X148500Y203900D02*
X163800Y188600D01*
X106900Y203900D02*
X148500D01*
X125800Y105400D02*
Y116700D01*
X103400Y83000D02*
X125800Y105400D01*
Y146984D02*
X136000Y157184D01*
X125800Y116700D02*
Y146984D01*
X120900Y104200D02*
Y122400D01*
X102300Y85600D02*
X120900Y104200D01*
X4900Y83000D02*
X103400D01*
X2400Y85500D02*
X4900Y83000D01*
X2400Y85500D02*
Y93000D01*
X7000Y97600D01*
X9273Y85600D02*
X102300D01*
X146800Y40500D02*
Y55600D01*
X18420Y140879D02*
X18500Y140800D01*
X18420Y140879D02*
Y143754D01*
X20000Y145334D01*
Y151000D01*
X10743Y138144D02*
X11728Y139128D01*
X10743Y132189D02*
Y138144D01*
Y124611D02*
Y132189D01*
X22476Y117672D02*
X23657Y118853D01*
X11728Y117672D02*
X22476D01*
X10743Y124611D02*
X11728Y123626D01*
Y117672D02*
Y123626D01*
X23137Y136937D02*
X24100Y137900D01*
X22504Y139100D02*
X22900D01*
X19401D02*
X22504D01*
X22900D02*
X24100Y137900D01*
X22850Y133518D02*
X23137Y133806D01*
Y136937D01*
X22504Y139100D02*
X23657Y137947D01*
X297201Y94000D02*
X379600D01*
X151369Y176914D02*
X199214D01*
X203900Y181600D01*
X278716D01*
X290771Y169545D01*
X150200Y173200D02*
X152114Y175114D01*
X145791Y157100D02*
X150200D01*
X146019Y160500D02*
X150200D01*
X144719Y161800D02*
X146019Y160500D01*
X7273Y87600D02*
X9273Y85600D01*
X136000Y157184D02*
Y157400D01*
X381700Y93130D02*
Y111170D01*
X7000Y87600D02*
X7273D01*
X153200Y195200D02*
X159900Y188500D01*
X135300Y195200D02*
X153200D01*
X202200Y167202D02*
Y171000D01*
Y167202D02*
X206816Y162586D01*
X290771Y169359D02*
Y169545D01*
X221984Y162586D02*
X226600Y157970D01*
X206816Y162586D02*
X221984D01*
X120223Y188700D02*
X145323Y163600D01*
X144578Y161800D02*
X144719D01*
X133491Y169400D02*
X145791Y157100D01*
X66900Y169400D02*
X133491D01*
X127678Y178700D02*
X144578Y161800D01*
X8400Y188700D02*
X120223D01*
X145323Y163600D02*
X150300D01*
X8400Y178700D02*
X127678D01*
X145600Y167000D02*
X150200D01*
X145500Y167100D02*
X145600Y167000D01*
X194100Y29500D02*
X228600D01*
X163800Y59800D02*
X194100Y29500D01*
X231600Y47200D02*
X249000Y29800D01*
X188000Y47200D02*
X231600D01*
X161504Y139658D02*
G03*
X161504Y139658I-2008J0D01*
G01*
X172788Y139757D02*
X182627D01*
X184595Y141725D01*
Y145660D01*
X182627Y147628D01*
X172788D01*
X184595Y151564D02*
Y155500D01*
Y153532D01*
X172788D01*
X174756Y151564D01*
X210375Y4291D02*
Y59409D01*
X172580Y4291D02*
X210375D01*
X172580D02*
Y59409D01*
X210375D01*
D12*
X5035Y105664D02*
Y152514D01*
X336039Y175500D02*
X338006D01*
X338400Y175894D01*
Y176681D01*
X338006Y177074D01*
X336039D01*
X336432Y177861D02*
X336039Y178255D01*
Y179042D01*
X336432Y179436D01*
X336826D01*
X337219Y179042D01*
Y178649D01*
Y179042D01*
X337613Y179436D01*
X338006D01*
X338400Y179042D01*
Y178255D01*
X338006Y177861D01*
X362239Y153500D02*
X364206D01*
X364600Y153894D01*
Y154681D01*
X364206Y155074D01*
X362239D01*
X364600Y157436D02*
Y155861D01*
X363026Y157436D01*
X362632D01*
X362239Y157042D01*
Y156255D01*
X362632Y155861D01*
X333069Y176669D02*
G03*
X333069Y176669I-1969J0D01*
G01*
X359269Y154669D02*
G03*
X359269Y154669I-1969J0D01*
G01*
X316328Y91453D02*
Y98146D01*
X319872Y91453D02*
Y98146D01*
X316328Y91453D02*
X319872D01*
X316328Y98146D02*
X319872D01*
X331572Y200254D02*
Y206946D01*
X328028Y200254D02*
Y206946D01*
X331572D01*
X328028Y200254D02*
X331572D01*
X301354Y189472D02*
X308047D01*
X301354Y185928D02*
X308047D01*
X301354D02*
Y189472D01*
X308047Y185928D02*
Y189472D01*
X67703Y154556D02*
X74097D01*
Y143044D02*
Y154556D01*
X67703Y143044D02*
X74097D01*
X67703D02*
Y154556D01*
Y150816D02*
X71443Y154556D01*
X299410Y63791D02*
X303150Y67532D01*
Y63791D02*
Y75209D01*
X296850D02*
X303150D01*
X296850Y63791D02*
Y75209D01*
Y63791D02*
X303150D01*
X299710Y92891D02*
X303450Y96631D01*
Y92891D02*
Y104309D01*
X297150D02*
X303450D01*
X297150Y92891D02*
Y104309D01*
Y92891D02*
X303450D01*
X316039Y181165D02*
X320961D01*
X316039D02*
Y189235D01*
X320961D01*
Y181165D02*
Y189235D01*
X318402Y181165D02*
X320961Y183724D01*
X232265Y14439D02*
Y19361D01*
X240335D01*
Y14439D02*
Y19361D01*
X232265Y14439D02*
X240335D01*
X232265Y16998D02*
X234824Y14439D01*
X187063Y224220D02*
Y251780D01*
X194937D01*
Y224220D02*
Y251780D01*
X187063Y224220D02*
X194937D01*
X187063Y226583D02*
X189425Y224220D01*
X349254Y141570D02*
X355946D01*
X349254Y137830D02*
X355946D01*
X349254D02*
Y141570D01*
X355946Y137830D02*
Y141570D01*
X67196Y205570D02*
X73889D01*
X67196Y201830D02*
X73889D01*
X67196D02*
Y205570D01*
X73889Y201830D02*
Y205570D01*
X253254Y23770D02*
X259946D01*
X253254Y20030D02*
X259946D01*
X253254D02*
Y23770D01*
X259946Y20030D02*
Y23770D01*
X245670Y26654D02*
Y33346D01*
X241930Y26654D02*
Y33346D01*
X245670D01*
X241930Y26654D02*
X245670D01*
X326070Y146054D02*
Y152746D01*
X322330Y146054D02*
Y152746D01*
X326070D01*
X322330Y146054D02*
X326070D01*
X349054Y121270D02*
X355747D01*
X349054Y117530D02*
X355747D01*
X349054D02*
Y121270D01*
X355747Y117530D02*
Y121270D01*
X273753Y84030D02*
X280447D01*
X273753Y87770D02*
X280447D01*
Y84030D02*
Y87770D01*
X273753Y84030D02*
Y87770D01*
X185854Y74770D02*
X192546D01*
X185854Y71030D02*
X192546D01*
X185854D02*
Y74770D01*
X192546Y71030D02*
Y74770D01*
X340553Y159770D02*
X347247D01*
X340553Y156030D02*
X347247D01*
X340553D02*
Y159770D01*
X347247Y156030D02*
Y159770D01*
X192970Y199030D02*
Y205723D01*
X189230Y199030D02*
Y205723D01*
X192970D01*
X189230Y199030D02*
X192970D01*
X370570Y128654D02*
Y135346D01*
X366830Y128654D02*
Y135346D01*
X370570D01*
X366830Y128654D02*
X370570D01*
X142170Y194553D02*
Y201247D01*
X138430Y194553D02*
Y201247D01*
X142170D01*
X138430Y194553D02*
X142170D01*
X150070Y194454D02*
Y201147D01*
X146330Y194454D02*
Y201147D01*
X150070D01*
X146330Y194454D02*
X150070D01*
X214570Y135554D02*
Y142246D01*
X210830Y135554D02*
Y142246D01*
X214570D01*
X210830Y135554D02*
X214570D01*
X367730Y179053D02*
Y185747D01*
X371470Y179053D02*
Y185747D01*
X367730Y179053D02*
X371470D01*
X367730Y185747D02*
X371470D01*
X335854Y149530D02*
X342547D01*
X335854Y153270D02*
X342547D01*
Y149530D02*
Y153270D01*
X335854Y149530D02*
Y153270D01*
X327557Y173126D02*
X347242D01*
X327557Y188874D02*
X347242D01*
X327557Y173126D02*
Y188874D01*
X347242Y173126D02*
Y188874D01*
X353758Y151126D02*
X373443D01*
X353758Y166874D02*
X373443D01*
X353758Y151126D02*
Y166874D01*
X373443Y151126D02*
Y166874D01*
X22751Y112573D02*
Y144227D01*
X625Y112573D02*
X22751D01*
X625D02*
Y144227D01*
X22751D01*
X225646Y12228D02*
Y15772D01*
X218953Y12228D02*
Y15772D01*
Y12228D02*
X225646D01*
X218953Y15772D02*
X225646D01*
Y18228D02*
Y21772D01*
X218953Y18228D02*
Y21772D01*
Y18228D02*
X225646D01*
X218953Y21772D02*
X225646D01*
X251628Y14547D02*
X255172D01*
X251628Y7853D02*
X255172D01*
Y14547D01*
X251628Y7853D02*
Y14547D01*
X232228Y33147D02*
X235772D01*
X232228Y26454D02*
X235772D01*
Y33147D01*
X232228Y26454D02*
Y33147D01*
X273946Y20428D02*
Y23972D01*
X267253Y20428D02*
Y23972D01*
Y20428D02*
X273946D01*
X267253Y23972D02*
X273946D01*
X162847Y22028D02*
Y25572D01*
X156154Y22028D02*
Y25572D01*
Y22028D02*
X162847D01*
X156154Y25572D02*
X162847D01*
Y29828D02*
Y33372D01*
X156154Y29828D02*
Y33372D01*
Y29828D02*
X162847D01*
X156154Y33372D02*
X162847D01*
X158254Y52028D02*
Y55572D01*
X164946Y52028D02*
Y55572D01*
X158254D02*
X164946D01*
X158254Y52028D02*
X164946D01*
X329028Y152347D02*
X332572D01*
X329028Y145653D02*
X332572D01*
Y152347D01*
X329028Y145653D02*
Y152347D01*
X374528Y178753D02*
X378072D01*
X374528Y185447D02*
X378072D01*
X374528Y178753D02*
Y185447D01*
X378072Y178753D02*
Y185447D01*
X169328Y200847D02*
X172872D01*
X169328Y194153D02*
X172872D01*
Y200847D01*
X169328Y194153D02*
Y200847D01*
X199328Y121054D02*
X202872D01*
X199328Y127746D02*
X202872D01*
X199328Y121054D02*
Y127746D01*
X202872Y121054D02*
Y127746D01*
X180028Y121353D02*
X183572D01*
X180028Y128047D02*
X183572D01*
X180028Y121353D02*
Y128047D01*
X183572Y121353D02*
Y128047D01*
X162928Y121353D02*
X166472D01*
X162928Y128047D02*
X166472D01*
X162928Y121353D02*
Y128047D01*
X166472Y121353D02*
Y128047D01*
X140472Y105553D02*
Y112247D01*
X136928Y105553D02*
Y112247D01*
X140472D01*
X136928Y105553D02*
X140472D01*
X361221Y134912D02*
X364764D01*
X361221Y128219D02*
X364764D01*
Y134912D01*
X361221Y128219D02*
Y134912D01*
X300728Y164547D02*
X304272D01*
X300728Y157853D02*
X304272D01*
Y164547D01*
X300728Y157853D02*
Y164547D01*
X292428Y203447D02*
X295972D01*
X292428Y196754D02*
X295972D01*
Y203447D01*
X292428Y196754D02*
Y203447D01*
X312628Y176146D02*
X316172D01*
X312628Y169454D02*
X316172D01*
Y176146D01*
X312628Y169454D02*
Y176146D01*
X354328Y184747D02*
X357872D01*
X354328Y178053D02*
X357872D01*
Y184747D01*
X354328Y178053D02*
Y184747D01*
X280654Y96672D02*
X287347D01*
X280654Y93128D02*
X287347D01*
X280654D02*
Y96672D01*
X287347Y93128D02*
Y96672D01*
X292928Y50954D02*
Y57647D01*
X296472Y50954D02*
Y57647D01*
X292928Y50954D02*
X296472D01*
X292928Y57647D02*
X296472D01*
X93496Y205972D02*
X100189D01*
X93496Y202428D02*
X100189D01*
X93496D02*
Y205972D01*
X100189Y202428D02*
Y205972D01*
X369572Y100154D02*
Y106846D01*
X366028Y100154D02*
Y106846D01*
X369572D01*
X366028Y100154D02*
X369572D01*
X371691Y106491D02*
X375431Y102750D01*
X371691D02*
X383109D01*
Y109050D01*
X371691D02*
X383109D01*
X371691Y102750D02*
Y109050D01*
X258417Y8133D02*
X260583D01*
X258417Y12267D02*
X260583D01*
X258417Y8133D02*
Y12267D01*
X260583Y8133D02*
Y12267D01*
X314154Y64128D02*
X320847D01*
X314154Y67672D02*
X320847D01*
Y64128D02*
Y67672D01*
X314154Y64128D02*
Y67672D01*
X138528Y136646D02*
X142072D01*
X138528Y129954D02*
X142072D01*
Y136646D01*
X138528Y129954D02*
Y136646D01*
X197272Y121054D02*
Y127746D01*
X193728Y121054D02*
Y127746D01*
X197272D01*
X193728Y121054D02*
X197272D01*
X191572D02*
Y127746D01*
X188028Y121054D02*
Y127746D01*
X191572D01*
X188028Y121054D02*
X191572D01*
X177572Y121353D02*
Y128047D01*
X174028Y121353D02*
Y128047D01*
X177572D01*
X174028Y121353D02*
X177572D01*
X172022D02*
Y128047D01*
X168478Y121353D02*
Y128047D01*
X172022D01*
X168478Y121353D02*
X172022D01*
X165872Y194254D02*
Y200946D01*
X162328Y194254D02*
Y200946D01*
X165872D01*
X162328Y194254D02*
X165872D01*
X316328Y94800D02*
X319872D01*
X318100Y93028D02*
Y96572D01*
X328028Y203600D02*
X331572D01*
X329800Y201828D02*
Y205372D01*
X304700Y185928D02*
Y189472D01*
X302928Y187700D02*
X306472D01*
X56391Y143296D02*
Y155304D01*
X41332Y143296D02*
X56391D01*
X41332D02*
Y155304D01*
X56391D01*
X339670Y80042D02*
X362898D01*
Y97758D01*
X339670D02*
X362898D01*
X339670Y80042D02*
Y97758D01*
X314341Y115072D02*
Y123242D01*
X319459D01*
Y115072D02*
Y123242D01*
X314341Y115072D02*
X319459D01*
X313859Y86258D02*
Y94428D01*
X308741Y86258D02*
X313859D01*
X308741D02*
Y94428D01*
X313859D01*
X351159Y145858D02*
Y154028D01*
X346041Y145858D02*
X351159D01*
X346041D02*
Y154028D01*
X351159D01*
X284241Y82472D02*
Y90642D01*
X289359D01*
Y82472D02*
Y90642D01*
X284241Y82472D02*
X289359D01*
X352600Y137830D02*
Y141570D01*
X350730Y139700D02*
X354470D01*
X70543Y201830D02*
Y205570D01*
X68673Y203700D02*
X72413D01*
X256600Y20030D02*
Y23770D01*
X254730Y21900D02*
X258470D01*
X241930Y30000D02*
X245670D01*
X243800Y28130D02*
Y31870D01*
X322330Y149400D02*
X326070D01*
X324200Y147530D02*
Y151270D01*
X352400Y117530D02*
Y121270D01*
X350530Y119400D02*
X354270D01*
X277100Y84030D02*
Y87770D01*
X275230Y85900D02*
X278970D01*
X189200Y71030D02*
Y74770D01*
X187330Y72900D02*
X191070D01*
X343900Y156030D02*
Y159770D01*
X342030Y157900D02*
X345770D01*
X189230Y202376D02*
X192970D01*
X191100Y200506D02*
Y204246D01*
X366830Y132000D02*
X370570D01*
X368700Y130130D02*
Y133870D01*
X138430Y197900D02*
X142170D01*
X140300Y196030D02*
Y199770D01*
X146330Y197800D02*
X150070D01*
X148200Y195930D02*
Y199670D01*
X210830Y138900D02*
X214570D01*
X212700Y137030D02*
Y140770D01*
X367730Y182400D02*
X371470D01*
X369600Y180530D02*
Y184270D01*
X339200Y149530D02*
Y153270D01*
X337330Y151400D02*
X341070D01*
X337400Y179032D02*
Y182968D01*
X335432Y181000D02*
X339369D01*
X363600Y157032D02*
Y160968D01*
X361631Y159000D02*
X365568D01*
X15232Y128400D02*
X19169D01*
X17200Y126432D02*
Y130368D01*
X220528Y14000D02*
X224072D01*
X222300Y12228D02*
Y15772D01*
X220528Y20000D02*
X224072D01*
X222300Y18228D02*
Y21772D01*
X253400Y9428D02*
Y12972D01*
X251628Y11200D02*
X255172D01*
X234000Y28028D02*
Y31572D01*
X232228Y29800D02*
X235772D01*
X268828Y22200D02*
X272372D01*
X270600Y20428D02*
Y23972D01*
X157728Y23800D02*
X161272D01*
X159500Y22028D02*
Y25572D01*
X157728Y31600D02*
X161272D01*
X159500Y29828D02*
Y33372D01*
X159828Y53800D02*
X163372D01*
X161600Y52028D02*
Y55572D01*
X330800Y147228D02*
Y150772D01*
X329028Y149000D02*
X332572D01*
X376300Y180328D02*
Y183872D01*
X374528Y182100D02*
X378072D01*
X171100Y195728D02*
Y199272D01*
X169328Y197500D02*
X172872D01*
X201100Y122628D02*
Y126172D01*
X199328Y124400D02*
X202872D01*
X181800Y122928D02*
Y126472D01*
X180028Y124700D02*
X183572D01*
X164700Y122928D02*
Y126472D01*
X162928Y124700D02*
X166472D01*
X136928Y108900D02*
X140472D01*
X138700Y107128D02*
Y110672D01*
X362993Y129794D02*
Y133337D01*
X361221Y131565D02*
X364764D01*
X302500Y159428D02*
Y162972D01*
X300728Y161200D02*
X304272D01*
X294200Y198328D02*
Y201872D01*
X292428Y200100D02*
X295972D01*
X314400Y171028D02*
Y174572D01*
X312628Y172800D02*
X316172D01*
X356100Y179628D02*
Y183172D01*
X354328Y181400D02*
X357872D01*
X284000Y93128D02*
Y96672D01*
X282228Y94900D02*
X285772D01*
X292928Y54300D02*
X296472D01*
X294700Y52528D02*
Y56072D01*
X11000Y62600D02*
Y102206D01*
X2984D02*
X11000D01*
X2984Y62600D02*
Y102206D01*
Y62600D02*
X11000D01*
X7000Y76600D02*
Y78600D01*
X6000Y77600D02*
X8000D01*
X6000Y168700D02*
X8000D01*
X7000Y167700D02*
Y169700D01*
X2984Y153700D02*
X11000D01*
X2984D02*
Y193306D01*
X11000D01*
Y153700D02*
Y193306D01*
X96842Y202428D02*
Y205972D01*
X95071Y204200D02*
X98614D01*
X366028Y103500D02*
X369572D01*
X367800Y101728D02*
Y105272D01*
X259500Y9117D02*
Y11283D01*
X258417Y10200D02*
X260583D01*
X317500Y64128D02*
Y67672D01*
X315728Y65900D02*
X319272D01*
X129747Y112048D02*
Y129253D01*
X145653D01*
Y112048D02*
Y129253D01*
X129747Y112048D02*
X145653D01*
X140300Y131528D02*
Y135072D01*
X138528Y133300D02*
X142072D01*
X193728Y124400D02*
X197272D01*
X195500Y122628D02*
Y126172D01*
X188028Y124400D02*
X191572D01*
X189800Y122628D02*
Y126172D01*
X174028Y124700D02*
X177572D01*
X175800Y122928D02*
Y126472D01*
X168478Y124700D02*
X172022D01*
X170250Y122928D02*
Y126472D01*
X162328Y197600D02*
X165872D01*
X164100Y195828D02*
Y199372D01*
X71242Y181131D02*
Y185069D01*
X69274Y183100D02*
X73211D01*
X96600Y182032D02*
Y185968D01*
X94631Y184000D02*
X98568D01*
X348466Y137338D02*
X356734D01*
X348466D02*
Y142062D01*
X356734D01*
Y137338D02*
Y142062D01*
X66409Y201338D02*
X74676D01*
X66409D02*
Y206062D01*
X74676D01*
Y201338D02*
Y206062D01*
X252466Y19538D02*
X260734D01*
X252466D02*
Y24262D01*
X260734D01*
Y19538D02*
Y24262D01*
X241438Y25866D02*
Y34134D01*
X246162D01*
Y25866D02*
Y34134D01*
X241438Y25866D02*
X246162D01*
X321838Y145266D02*
Y153534D01*
X326562D01*
Y145266D02*
Y153534D01*
X321838Y145266D02*
X326562D01*
X348266Y117038D02*
X356534D01*
X348266D02*
Y121762D01*
X356534D01*
Y117038D02*
Y121762D01*
X272966Y88262D02*
X281234D01*
Y83538D02*
Y88262D01*
X272966Y83538D02*
X281234D01*
X272966D02*
Y88262D01*
X185066Y70538D02*
X193334D01*
X185066D02*
Y75262D01*
X193334D01*
Y70538D02*
Y75262D01*
X339766Y155538D02*
X348034D01*
X339766D02*
Y160262D01*
X348034D01*
Y155538D02*
Y160262D01*
X188738Y198242D02*
Y206510D01*
X193462D01*
Y198242D02*
Y206510D01*
X188738Y198242D02*
X193462D01*
X366338Y127866D02*
Y136134D01*
X371062D01*
Y127866D02*
Y136134D01*
X366338Y127866D02*
X371062D01*
X137938Y193766D02*
Y202034D01*
X142662D01*
Y193766D02*
Y202034D01*
X137938Y193766D02*
X142662D01*
X145838Y193666D02*
Y201934D01*
X150562D01*
Y193666D02*
Y201934D01*
X145838Y193666D02*
X150562D01*
X210338Y134766D02*
Y143034D01*
X215062D01*
Y134766D02*
Y143034D01*
X210338Y134766D02*
X215062D01*
X371962Y178266D02*
Y186534D01*
X367238Y178266D02*
X371962D01*
X367238D02*
Y186534D01*
X371962D01*
X335066Y153762D02*
X343334D01*
Y149038D02*
Y153762D01*
X335066Y149038D02*
X343334D01*
X335066D02*
Y153762D01*
D15*
X77935Y172470D02*
Y193730D01*
X64550Y172470D02*
X77935D01*
X64550D02*
Y193730D01*
X77935D01*
X89907Y173370D02*
Y194630D01*
X103293D01*
Y173370D02*
Y194630D01*
X89907Y173370D02*
X103293D01*
X77542Y174832D02*
Y191368D01*
X64943Y174832D02*
X77542D01*
X64943D02*
Y191368D01*
X77542D01*
X90301Y175732D02*
Y192268D01*
X102899D01*
Y175732D02*
Y192268D01*
X90301Y175732D02*
X102899D01*
X51569Y147332D02*
Y151268D01*
X47631Y147332D02*
X51569D01*
X47631D02*
Y151268D01*
X51569D01*
X344788Y83979D02*
X355812D01*
Y93821D01*
X344788D02*
X355812D01*
X344788Y83979D02*
Y93821D01*
X315719Y117631D02*
Y121569D01*
X318081D01*
Y117631D02*
Y121569D01*
X315719Y117631D02*
X318081D01*
X312481Y87932D02*
Y91869D01*
X310119Y87932D02*
X312481D01*
X310119D02*
Y91869D01*
X312481D01*
X349781Y147531D02*
Y151469D01*
X347419Y147531D02*
X349781D01*
X347419D02*
Y151469D01*
X349781D01*
X285619Y85031D02*
Y88968D01*
X287981D01*
Y85031D02*
Y88968D01*
X285619Y85031D02*
X287981D01*
X133763Y117363D02*
Y125237D01*
X141637D01*
Y117363D02*
Y125237D01*
X133763Y117363D02*
X141637D01*
X77935Y172470D02*
Y193730D01*
X64550Y172470D02*
X77935D01*
X64550D02*
Y193730D01*
X77935D01*
X89907Y173370D02*
Y194630D01*
X103293D01*
Y173370D02*
Y194630D01*
X89907Y173370D02*
X103293D01*
X2984Y62600D02*
X10996D01*
Y102206D01*
X2984D02*
X10996D01*
X2984Y62600D02*
Y102206D01*
Y153700D02*
Y193306D01*
X10996D01*
Y153700D02*
Y193306D01*
X2984Y153700D02*
X10996D01*
D16*
X292982Y252018D02*
X303218D01*
Y241782D02*
Y252018D01*
X292982Y241782D02*
X303218D01*
X292982D02*
Y252018D01*
X273682Y5782D02*
X283918D01*
X273682D02*
Y16018D01*
X283918D01*
Y5782D02*
Y16018D01*
X206153Y146428D02*
Y149972D01*
X212846Y146428D02*
Y149972D01*
X206153D02*
X212846D01*
X206153Y146428D02*
X212846D01*
X186253Y77428D02*
X192947D01*
X186253Y80972D02*
X192947D01*
Y77428D02*
Y80972D01*
X186253Y77428D02*
Y80972D01*
X292982Y252018D02*
X303218D01*
Y241782D02*
Y252018D01*
X292982Y241782D02*
X303218D01*
X292982D02*
Y252018D01*
X273682Y5782D02*
X283918D01*
X273682D02*
Y16018D01*
X283918D01*
Y5782D02*
Y16018D01*
X354142Y125988D02*
Y137110D01*
X359359D01*
Y125988D02*
Y137110D01*
X354142Y125988D02*
X359359D01*
X286943Y156088D02*
Y167210D01*
X292159D01*
Y156088D02*
Y167210D01*
X286943Y156088D02*
X292159D01*
X298458Y155890D02*
Y167012D01*
X293241Y155890D02*
X298458D01*
X293241D02*
Y167012D01*
X298458D01*
X290258Y194590D02*
Y205712D01*
X285041Y194590D02*
X290258D01*
X285041D02*
Y205712D01*
X290258D01*
X278043Y194788D02*
Y205910D01*
X283259D01*
Y194788D02*
Y205910D01*
X278043Y194788D02*
X283259D01*
X311590Y70643D02*
X322712D01*
X311590D02*
Y75859D01*
X322712D01*
Y70643D02*
Y75859D01*
X308841Y141212D02*
X314057D01*
X308841Y130090D02*
Y141212D01*
Y130090D02*
X314057D01*
Y141212D01*
X308641Y126512D02*
X313858D01*
X308641Y115390D02*
Y126512D01*
Y115390D02*
X313858D01*
Y126512D01*
X350688Y55608D02*
Y201592D01*
X36712Y55608D02*
X350688D01*
X36712D02*
Y201592D01*
X350688D01*
D17*
X152804Y132965D02*
X200048D01*
Y184146D01*
X152804D02*
X200048D01*
X152804Y132965D02*
Y184146D01*
D18*
X19500Y149150D02*
X26400D01*
Y152850D01*
X19500D02*
X26400D01*
X19500Y149150D02*
Y152850D01*
X17100Y153850D02*
X28800D01*
Y148150D02*
Y153850D01*
X17100Y148150D02*
X28800D01*
X17100D02*
Y153850D01*
X355225Y128350D02*
Y134650D01*
X358375D01*
Y128350D02*
Y134650D01*
X355225Y128350D02*
X358375D01*
X359375Y125950D02*
Y137050D01*
X354225D02*
X359375D01*
X354225Y125950D02*
Y137050D01*
Y125950D02*
X359375D01*
X288025Y158450D02*
Y164750D01*
X291175D01*
Y158450D02*
Y164750D01*
X288025Y158450D02*
X291175D01*
X292175Y156050D02*
Y167150D01*
X287025D02*
X292175D01*
X287025Y156050D02*
Y167150D01*
Y156050D02*
X292175D01*
X297375Y158350D02*
Y164650D01*
X294225Y158350D02*
X297375D01*
X294225D02*
Y164650D01*
X297375D01*
X293225Y155950D02*
Y167050D01*
Y155950D02*
X298375D01*
Y167050D01*
X293225D02*
X298375D01*
X289175Y197050D02*
Y203350D01*
X286025Y197050D02*
X289175D01*
X286025D02*
Y203350D01*
X289175D01*
X285025Y194650D02*
Y205750D01*
Y194650D02*
X290175D01*
Y205750D01*
X285025D02*
X290175D01*
X279125Y197150D02*
Y203450D01*
X282275D01*
Y197150D02*
Y203450D01*
X279125Y197150D02*
X282275D01*
X283275Y194750D02*
Y205850D01*
X278125D02*
X283275D01*
X278125Y194750D02*
Y205850D01*
Y194750D02*
X283275D01*
X47450Y104650D02*
Y111550D01*
X51150D01*
Y104650D02*
Y111550D01*
X47450Y104650D02*
X51150D01*
X52150Y102250D02*
Y113950D01*
X46450D02*
X52150D01*
X46450Y102250D02*
Y113950D01*
Y102250D02*
X52150D01*
X314050Y71725D02*
X320350D01*
X314050D02*
Y74875D01*
X320350D01*
Y71725D02*
Y74875D01*
X311650Y75875D02*
X322750D01*
X311650Y70725D02*
Y75875D01*
Y70725D02*
X322750D01*
Y75875D01*
X154150Y194250D02*
Y201150D01*
X157850D01*
Y194250D02*
Y201150D01*
X154150Y194250D02*
X157850D01*
X158850Y191850D02*
Y203550D01*
X153150D02*
X158850D01*
X153150Y191850D02*
Y203550D01*
Y191850D02*
X158850D01*
X293050Y174550D02*
Y181450D01*
X296750D01*
Y174550D02*
Y181450D01*
X293050Y174550D02*
X296750D01*
X297750Y172150D02*
Y183850D01*
X292050D02*
X297750D01*
X292050Y172150D02*
Y183850D01*
Y172150D02*
X297750D01*
X137350Y169850D02*
X143050D01*
X137350D02*
Y181550D01*
X143050D01*
Y169850D02*
Y181550D01*
X138350Y172250D02*
X142050D01*
Y179150D01*
X138350D02*
X142050D01*
X138350Y172250D02*
Y179150D01*
X129250Y181450D02*
X134950D01*
Y169750D02*
Y181450D01*
X129250Y169750D02*
X134950D01*
X129250D02*
Y181450D01*
X130250Y179050D02*
X133950D01*
X130250Y172150D02*
Y179050D01*
Y172150D02*
X133950D01*
Y179050D01*
X186050Y66050D02*
X192950D01*
X186050D02*
Y69750D01*
X192950D01*
Y66050D02*
Y69750D01*
X183650Y70750D02*
X195350D01*
X183650Y65050D02*
Y70750D01*
Y65050D02*
X195350D01*
Y70750D01*
X308825Y141250D02*
X313975D01*
Y130150D02*
Y141250D01*
X308825Y130150D02*
X313975D01*
X308825D02*
Y141250D01*
X309825Y138850D02*
X312975D01*
X309825Y132550D02*
Y138850D01*
Y132550D02*
X312975D01*
Y138850D01*
X308625Y126550D02*
X313775D01*
Y115450D02*
Y126550D01*
X308625Y115450D02*
X313775D01*
X308625D02*
Y126550D01*
X309625Y124150D02*
X312775D01*
X309625Y117850D02*
Y124150D01*
Y117850D02*
X312775D01*
Y124150D01*
X208150Y159350D02*
X215050D01*
X208150D02*
Y163050D01*
X215050D01*
Y159350D02*
Y163050D01*
X205750Y164050D02*
X217450D01*
X205750Y158350D02*
Y164050D01*
Y158350D02*
X217450D01*
Y164050D01*
X208150Y153550D02*
X215050D01*
X208150D02*
Y157250D01*
X215050D01*
Y153550D02*
Y157250D01*
X205750Y158250D02*
X217450D01*
X205750Y152550D02*
Y158250D01*
Y152550D02*
X217450D01*
Y158250D01*
X184250Y191450D02*
X191150D01*
X184250D02*
Y195150D01*
X191150D01*
Y191450D02*
Y195150D01*
X181850Y196150D02*
X193550D01*
X181850Y190450D02*
Y196150D01*
Y190450D02*
X193550D01*
Y196150D01*
X184750Y210350D02*
X191650D01*
X184750D02*
Y214050D01*
X191650D01*
Y210350D02*
Y214050D01*
X182350Y215050D02*
X194050D01*
X182350Y209350D02*
Y215050D01*
Y209350D02*
X194050D01*
Y215050D01*
D19*
X295301Y127978D02*
G03*
X295301Y127978I-11811J0D01*
G01*
X114198D02*
G03*
X114198Y127978I-11811J0D01*
G01*
X334671Y240182D02*
G03*
X318923Y255930I-15748J0D01*
G01*
X66954D02*
G03*
X51206Y240182I0J-15748D01*
G01*
X23647Y206718D02*
G03*
X51206Y234277I0J27559D01*
G01*
X15773Y206718D02*
G03*
X25Y190970I-0J-15748D01*
G01*
Y64986D02*
G03*
X15773Y49238I15748J0D01*
G01*
X51206Y21679D02*
G03*
X23647Y49238I-27559J-0D01*
G01*
X51206Y15773D02*
G03*
X66954Y25I15748J-0D01*
G01*
X318923D02*
G03*
X334671Y15773I-0J15748D01*
G01*
X362230Y49238D02*
G03*
X334671Y21678I0J-27559D01*
G01*
X370104Y49238D02*
G03*
X385852Y64986I0J15748D01*
G01*
Y190970D02*
G03*
X370104Y206718I-15748J-0D01*
G01*
X334600Y234200D02*
G03*
X362159Y206641I27559J0D01*
G01*
X295301Y127978D02*
G03*
X295301Y127978I-11811J0D01*
G01*
X114198D02*
G03*
X114198Y127978I-11811J0D01*
G01*
X370027Y206641D02*
X370104Y206718D01*
X362159Y206641D02*
X370027D01*
X66954Y255930D02*
X318923D01*
X51206Y234277D02*
Y240182D01*
X15773Y206718D02*
X23647D01*
X25Y64986D02*
Y190970D01*
X15773Y49238D02*
X23647D01*
X51206Y15773D02*
Y21679D01*
X66954Y25D02*
X318923D01*
X334671Y15773D02*
Y21678D01*
X362230Y49238D02*
X370104D01*
X385852Y64986D02*
Y190970D01*
X213930Y153300D02*
X221804D01*
X334671Y234277D02*
Y240182D01*
D20*
X355225Y128350D02*
X358375D01*
X355225D02*
Y134650D01*
X358375D01*
Y128350D02*
Y134650D01*
X355225Y133075D02*
Y134650D01*
X358375D01*
Y133075D02*
Y134650D01*
X355225Y133075D02*
X358375D01*
Y128350D02*
Y129925D01*
X355225Y128350D02*
X358375D01*
X355225D02*
Y129925D01*
X358375D01*
X288025Y158450D02*
X291175D01*
X288025D02*
Y164750D01*
X291175D01*
Y158450D02*
Y164750D01*
X288025Y163175D02*
Y164750D01*
X291175D01*
Y163175D02*
Y164750D01*
X288025Y163175D02*
X291175D01*
Y158450D02*
Y160025D01*
X288025Y158450D02*
X291175D01*
X288025D02*
Y160025D01*
X291175D01*
X294225Y164650D02*
X297375D01*
Y158350D02*
Y164650D01*
X294225Y158350D02*
X297375D01*
X294225D02*
Y164650D01*
X297375Y158350D02*
Y159925D01*
X294225Y158350D02*
X297375D01*
X294225D02*
Y159925D01*
X297375D01*
X294225Y163075D02*
Y164650D01*
X297375D01*
Y163075D02*
Y164650D01*
X294225Y163075D02*
X297375D01*
X286025Y203350D02*
X289175D01*
Y197050D02*
Y203350D01*
X286025Y197050D02*
X289175D01*
X286025D02*
Y203350D01*
X289175Y197050D02*
Y198625D01*
X286025Y197050D02*
X289175D01*
X286025D02*
Y198625D01*
X289175D01*
X286025Y201775D02*
Y203350D01*
X289175D01*
Y201775D02*
Y203350D01*
X286025Y201775D02*
X289175D01*
X279125Y197150D02*
X282275D01*
X279125D02*
Y203450D01*
X282275D01*
Y197150D02*
Y203450D01*
X279125Y201875D02*
Y203450D01*
X282275D01*
Y201875D02*
Y203450D01*
X279125Y201875D02*
X282275D01*
Y197150D02*
Y198725D01*
X279125Y197150D02*
X282275D01*
X279125D02*
Y198725D01*
X282275D01*
X197596Y148100D02*
X202596D01*
X198596Y145600D02*
Y150600D01*
Y148100D02*
X201596Y150600D01*
X198596Y148100D02*
X201596Y150100D01*
X198596Y148100D02*
X201596Y149600D01*
X198596Y148100D02*
X201596Y149100D01*
X198596Y148100D02*
X201596Y148600D01*
X198596Y148100D02*
X201596Y145600D01*
X198596Y148100D02*
X201596Y146100D01*
X198596Y148100D02*
X201596Y146600D01*
X198596Y148100D02*
X201596Y147100D01*
X198596Y148100D02*
X201596Y147600D01*
Y145600D02*
Y150600D01*
X19500Y149150D02*
Y152850D01*
Y149150D02*
X26400D01*
Y152850D01*
X19500D02*
X26400D01*
X24000Y149150D02*
X26400D01*
Y152850D01*
X24000D02*
X26400D01*
X24000Y149150D02*
Y152850D01*
X19500D02*
X21900D01*
X19500Y149150D02*
Y152850D01*
Y149150D02*
X21900D01*
Y152850D01*
X47450Y104650D02*
X51150D01*
X47450D02*
Y111550D01*
X51150D01*
Y104650D02*
Y111550D01*
X47450Y109150D02*
Y111550D01*
X51150D01*
Y109150D02*
Y111550D01*
X47450Y109150D02*
X51150D01*
Y104650D02*
Y107050D01*
X47450Y104650D02*
X51150D01*
X47450D02*
Y107050D01*
X51150D01*
X320350Y71725D02*
Y74875D01*
X314050Y71725D02*
X320350D01*
X314050D02*
Y74875D01*
X320350D01*
X314050Y71725D02*
X315625D01*
X314050D02*
Y74875D01*
X315625D01*
Y71725D02*
Y74875D01*
X318775D02*
X320350D01*
Y71725D02*
Y74875D01*
X318775Y71725D02*
X320350D01*
X318775D02*
Y74875D01*
X154150Y194250D02*
X157850D01*
X154150D02*
Y201150D01*
X157850D01*
Y194250D02*
Y201150D01*
X154150Y198750D02*
Y201150D01*
X157850D01*
Y198750D02*
Y201150D01*
X154150Y198750D02*
X157850D01*
Y194250D02*
Y196650D01*
X154150Y194250D02*
X157850D01*
X154150D02*
Y196650D01*
X157850D01*
X293050Y174550D02*
X296750D01*
X293050D02*
Y181450D01*
X296750D01*
Y174550D02*
Y181450D01*
X293050Y179050D02*
Y181450D01*
X296750D01*
Y179050D02*
Y181450D01*
X293050Y179050D02*
X296750D01*
Y174550D02*
Y176950D01*
X293050Y174550D02*
X296750D01*
X293050D02*
Y176950D01*
X296750D01*
X138350Y174650D02*
X142050D01*
X138350Y172250D02*
Y174650D01*
Y172250D02*
X142050D01*
Y174650D01*
X138350Y176750D02*
X142050D01*
Y179150D01*
X138350D02*
X142050D01*
X138350Y176750D02*
Y179150D01*
X142050Y172250D02*
Y179150D01*
X138350D02*
X142050D01*
X138350Y172250D02*
Y179150D01*
Y172250D02*
X142050D01*
X130250Y176650D02*
X133950D01*
Y179050D01*
X130250D02*
X133950D01*
X130250Y176650D02*
Y179050D01*
Y174550D02*
X133950D01*
X130250Y172150D02*
Y174550D01*
Y172150D02*
X133950D01*
Y174550D01*
X130250Y172150D02*
Y179050D01*
Y172150D02*
X133950D01*
Y179050D01*
X130250D02*
X133950D01*
X192950Y66050D02*
Y69750D01*
X186050Y66050D02*
X192950D01*
X186050D02*
Y69750D01*
X192950D01*
X186050Y66050D02*
X188450D01*
X186050D02*
Y69750D01*
X188450D01*
Y66050D02*
Y69750D01*
X190550D02*
X192950D01*
Y66050D02*
Y69750D01*
X190550Y66050D02*
X192950D01*
X190550D02*
Y69750D01*
X181696Y76600D02*
Y81600D01*
X178696Y79100D02*
X181696Y78600D01*
X178696Y79100D02*
X181696Y78100D01*
X178696Y79100D02*
X181696Y77600D01*
X178696Y79100D02*
X181696Y77100D01*
X178696Y79100D02*
X181696Y76600D01*
X178696Y79100D02*
X181696Y79600D01*
X178696Y79100D02*
X181696Y80100D01*
X178696Y79100D02*
X181696Y80600D01*
X178696Y79100D02*
X181696Y81100D01*
X178696Y79100D02*
X181696Y81600D01*
X178696Y76600D02*
Y81600D01*
X177696Y79100D02*
X182696D01*
X309825Y137275D02*
X312975D01*
Y138850D01*
X309825D02*
X312975D01*
X309825Y137275D02*
Y138850D01*
Y134125D02*
X312975D01*
X309825Y132550D02*
Y134125D01*
Y132550D02*
X312975D01*
Y134125D01*
X309825Y132550D02*
Y138850D01*
Y132550D02*
X312975D01*
Y138850D01*
X309825D02*
X312975D01*
X309625Y122575D02*
X312775D01*
Y124150D01*
X309625D02*
X312775D01*
X309625Y122575D02*
Y124150D01*
Y119425D02*
X312775D01*
X309625Y117850D02*
Y119425D01*
Y117850D02*
X312775D01*
Y119425D01*
X309625Y117850D02*
Y124150D01*
Y117850D02*
X312775D01*
Y124150D01*
X309625D02*
X312775D01*
X215050Y159350D02*
Y163050D01*
X208150Y159350D02*
X215050D01*
X208150D02*
Y163050D01*
X215050D01*
X208150Y159350D02*
X210550D01*
X208150D02*
Y163050D01*
X210550D01*
Y159350D02*
Y163050D01*
X212650D02*
X215050D01*
Y159350D02*
Y163050D01*
X212650Y159350D02*
X215050D01*
X212650D02*
Y163050D01*
X215050Y153550D02*
Y157250D01*
X208150Y153550D02*
X215050D01*
X208150D02*
Y157250D01*
X215050D01*
X208150Y153550D02*
X210550D01*
X208150D02*
Y157250D01*
X210550D01*
Y153550D02*
Y157250D01*
X212650D02*
X215050D01*
Y153550D02*
Y157250D01*
X212650Y153550D02*
X215050D01*
X212650D02*
Y157250D01*
X191150Y191450D02*
Y195150D01*
X184250Y191450D02*
X191150D01*
X184250D02*
Y195150D01*
X191150D01*
X184250Y191450D02*
X186650D01*
X184250D02*
Y195150D01*
X186650D01*
Y191450D02*
Y195150D01*
X188750D02*
X191150D01*
Y191450D02*
Y195150D01*
X188750Y191450D02*
X191150D01*
X188750D02*
Y195150D01*
X191650Y210350D02*
Y214050D01*
X184750Y210350D02*
X191650D01*
X184750D02*
Y214050D01*
X191650D01*
X184750Y210350D02*
X187150D01*
X184750D02*
Y214050D01*
X187150D01*
Y210350D02*
Y214050D01*
X189250D02*
X191650D01*
Y210350D02*
Y214050D01*
X189250Y210350D02*
X191650D01*
X189250D02*
Y214050D01*
D21*
X6058Y145821D02*
X9010D01*
Y147297D01*
X8518Y147789D01*
X7534D01*
X7042Y147297D01*
Y145821D01*
X8518Y150741D02*
X9010Y150249D01*
Y149265D01*
X8518Y148773D01*
X6550D01*
X6058Y149265D01*
Y150249D01*
X6550Y150741D01*
X9010Y151725D02*
X6058D01*
Y153201D01*
X6550Y153693D01*
X7042D01*
X7534Y153201D01*
Y151725D01*
Y153201D01*
X8026Y153693D01*
X8518D01*
X9010Y153201D01*
Y151725D01*
Y159596D02*
Y157629D01*
X6058D01*
Y159596D01*
X7534Y157629D02*
Y158612D01*
X9010Y162548D02*
X6058D01*
Y161072D01*
X6550Y160580D01*
X7534D01*
X8026Y161072D01*
Y162548D01*
X5074Y164516D02*
Y165008D01*
X5566Y165500D01*
X8026D01*
Y164024D01*
X7534Y163532D01*
X6550D01*
X6058Y164024D01*
Y165500D01*
Y167960D02*
Y166976D01*
X6550Y166484D01*
X7534D01*
X8026Y166976D01*
Y167960D01*
X7534Y168452D01*
X7042D01*
Y166484D01*
D22*
X313966Y88107D02*
Y101493D01*
X322234Y88107D02*
Y101493D01*
X313966Y88107D02*
X322234D01*
X313966Y101493D02*
X322234D01*
X333934Y196907D02*
Y210293D01*
X325666Y196907D02*
Y210293D01*
X333934D01*
X325666Y196907D02*
X333934D01*
X298007Y191834D02*
X311393D01*
X298007Y183566D02*
X311393D01*
X298007D02*
Y191834D01*
X311393Y183566D02*
Y191834D01*
X62632Y155788D02*
X79168D01*
Y141812D02*
Y155788D01*
X62632Y141812D02*
X79168D01*
X62632D02*
Y155788D01*
X308268Y62512D02*
Y76488D01*
X291732D02*
X308268D01*
X291732Y62512D02*
Y76488D01*
Y62512D02*
X308268D01*
X308568Y91612D02*
Y105588D01*
X292032D02*
X308568D01*
X292032Y91612D02*
Y105588D01*
Y91612D02*
X308568D01*
X311709Y179787D02*
X325291D01*
X311709D02*
Y190613D01*
X325291D01*
Y179787D02*
Y190613D01*
X231083Y10109D02*
Y23691D01*
X241516D01*
Y10109D02*
Y23691D01*
X231083Y10109D02*
X241516D01*
X184898Y220677D02*
Y255323D01*
X197102D01*
Y220677D02*
Y255323D01*
X184898Y220677D02*
X197102D01*
X351672Y54624D02*
Y202576D01*
X35728Y54624D02*
X351672D01*
X35728D02*
Y202576D01*
X351672D01*
X348466Y142062D02*
X356734D01*
X348466Y137338D02*
X356734D01*
X348466D02*
Y142062D01*
X356734Y137338D02*
Y142062D01*
X66409Y206062D02*
X74676D01*
X66409Y201338D02*
X74676D01*
X66409D02*
Y206062D01*
X74676Y201338D02*
Y206062D01*
X252466Y24262D02*
X260734D01*
X252466Y19538D02*
X260734D01*
X252466D02*
Y24262D01*
X260734Y19538D02*
Y24262D01*
X246162Y25866D02*
Y34134D01*
X241438Y25866D02*
Y34134D01*
X246162D01*
X241438Y25866D02*
X246162D01*
X326562Y145266D02*
Y153534D01*
X321838Y145266D02*
Y153534D01*
X326562D01*
X321838Y145266D02*
X326562D01*
X348266Y121762D02*
X356534D01*
X348266Y117038D02*
X356534D01*
X348266D02*
Y121762D01*
X356534Y117038D02*
Y121762D01*
X272966Y83538D02*
X281234D01*
X272966Y88262D02*
X281234D01*
Y83538D02*
Y88262D01*
X272966Y83538D02*
Y88262D01*
X185066Y75262D02*
X193334D01*
X185066Y70538D02*
X193334D01*
X185066D02*
Y75262D01*
X193334Y70538D02*
Y75262D01*
X339766Y160262D02*
X348034D01*
X339766Y155538D02*
X348034D01*
X339766D02*
Y160262D01*
X348034Y155538D02*
Y160262D01*
X193462Y198242D02*
Y206510D01*
X188738Y198242D02*
Y206510D01*
X193462D01*
X188738Y198242D02*
X193462D01*
X371062Y127866D02*
Y136134D01*
X366338Y127866D02*
Y136134D01*
X371062D01*
X366338Y127866D02*
X371062D01*
X142662Y193766D02*
Y202034D01*
X137938Y193766D02*
Y202034D01*
X142662D01*
X137938Y193766D02*
X142662D01*
X150562Y193666D02*
Y201934D01*
X145838Y193666D02*
Y201934D01*
X150562D01*
X145838Y193666D02*
X150562D01*
X215062Y134766D02*
Y143034D01*
X210338Y134766D02*
Y143034D01*
X215062D01*
X210338Y134766D02*
X215062D01*
X367238Y178266D02*
Y186534D01*
X371962Y178266D02*
Y186534D01*
X367238Y178266D02*
X371962D01*
X367238Y186534D02*
X371962D01*
X335066Y149038D02*
X343334D01*
X335066Y153762D02*
X343334D01*
Y149038D02*
Y153762D01*
X335066Y149038D02*
Y153762D01*
X326573Y166433D02*
X348227D01*
X326573Y195567D02*
X348227D01*
X326573Y166433D02*
Y195567D01*
X348227Y166433D02*
Y195567D01*
X352773Y144433D02*
X374427D01*
X352773Y173567D02*
X374427D01*
X352773Y144433D02*
Y173567D01*
X374427Y144433D02*
Y173567D01*
X231Y112180D02*
X26924D01*
Y144621D01*
X231D02*
X26924D01*
X231Y112180D02*
Y144621D01*
X228993Y9866D02*
Y18134D01*
X215607Y9866D02*
Y18134D01*
Y9866D02*
X228993D01*
X215607Y18134D02*
X228993D01*
Y15866D02*
Y24134D01*
X215607Y15866D02*
Y24134D01*
Y15866D02*
X228993D01*
X215607Y24134D02*
X228993D01*
X249266Y17893D02*
X257534D01*
X249266Y4507D02*
X257534D01*
Y17893D01*
X249266Y4507D02*
Y17893D01*
X229866Y36493D02*
X238134D01*
X229866Y23107D02*
X238134D01*
Y36493D01*
X229866Y23107D02*
Y36493D01*
X277293Y18066D02*
Y26334D01*
X263907Y18066D02*
Y26334D01*
Y18066D02*
X277293D01*
X263907Y26334D02*
X277293D01*
X166193Y19666D02*
Y27934D01*
X152807Y19666D02*
Y27934D01*
Y19666D02*
X166193D01*
X152807Y27934D02*
X166193D01*
Y27466D02*
Y35734D01*
X152807Y27466D02*
Y35734D01*
Y27466D02*
X166193D01*
X152807Y35734D02*
X166193D01*
X154907Y49666D02*
Y57934D01*
X168293Y49666D02*
Y57934D01*
X154907D02*
X168293D01*
X154907Y49666D02*
X168293D01*
X326666Y155693D02*
X334934D01*
X326666Y142307D02*
X334934D01*
Y155693D01*
X326666Y142307D02*
Y155693D01*
X372166Y175407D02*
X380434D01*
X372166Y188793D02*
X380434D01*
X372166Y175407D02*
Y188793D01*
X380434Y175407D02*
Y188793D01*
X166966Y204193D02*
X175234D01*
X166966Y190807D02*
X175234D01*
Y204193D01*
X166966Y190807D02*
Y204193D01*
X196966Y117707D02*
X205234D01*
X196966Y131093D02*
X205234D01*
X196966Y117707D02*
Y131093D01*
X205234Y117707D02*
Y131093D01*
X177666Y118007D02*
X185934D01*
X177666Y131393D02*
X185934D01*
X177666Y118007D02*
Y131393D01*
X185934Y118007D02*
Y131393D01*
X160566Y118007D02*
X168834D01*
X160566Y131393D02*
X168834D01*
X160566Y118007D02*
Y131393D01*
X168834Y118007D02*
Y131393D01*
X142834Y102207D02*
Y115593D01*
X134566Y102207D02*
Y115593D01*
X142834D01*
X134566Y102207D02*
X142834D01*
X358859Y138258D02*
X367127D01*
X358859Y124873D02*
X367127D01*
Y138258D01*
X358859Y124873D02*
Y138258D01*
X298366Y167893D02*
X306634D01*
X298366Y154507D02*
X306634D01*
Y167893D01*
X298366Y154507D02*
Y167893D01*
X290066Y206793D02*
X298334D01*
X290066Y193407D02*
X298334D01*
Y206793D01*
X290066Y193407D02*
Y206793D01*
X310266Y179493D02*
X318534D01*
X310266Y166107D02*
X318534D01*
Y179493D01*
X310266Y166107D02*
Y179493D01*
X351966Y188093D02*
X360234D01*
X351966Y174707D02*
X360234D01*
Y188093D01*
X351966Y174707D02*
Y188093D01*
X277307Y99034D02*
X290693D01*
X277307Y90766D02*
X290693D01*
X277307D02*
Y99034D01*
X290693Y90766D02*
Y99034D01*
X290566Y47607D02*
Y60993D01*
X298834Y47607D02*
Y60993D01*
X290566Y47607D02*
X298834D01*
X290566Y60993D02*
X298834D01*
X90150Y208334D02*
X103535D01*
X90150Y200066D02*
X103535D01*
X90150D02*
Y208334D01*
X103535Y200066D02*
Y208334D01*
X371934Y96807D02*
Y110193D01*
X363666Y96807D02*
Y110193D01*
X371934D01*
X363666Y96807D02*
X371934D01*
X370707Y97731D02*
X384093D01*
Y114069D01*
X370707D02*
X384093D01*
X370707Y97731D02*
Y114069D01*
X257138Y6066D02*
X261862D01*
X257138Y14334D02*
X261862D01*
X257138Y6066D02*
Y14334D01*
X261862Y6066D02*
Y14334D01*
X310807Y61766D02*
X324193D01*
X310807Y70034D02*
X324193D01*
Y61766D02*
Y70034D01*
X310807Y61766D02*
Y70034D01*
X136166Y139993D02*
X144434D01*
X136166Y126607D02*
X144434D01*
Y139993D01*
X136166Y126607D02*
Y139993D01*
X199634Y117707D02*
Y131093D01*
X191366Y117707D02*
Y131093D01*
X199634D01*
X191366Y117707D02*
X199634D01*
X193934D02*
Y131093D01*
X185666Y117707D02*
Y131093D01*
X193934D01*
X185666Y117707D02*
X193934D01*
X179934Y118007D02*
Y131393D01*
X171666Y118007D02*
Y131393D01*
X179934D01*
X171666Y118007D02*
X179934D01*
X174384D02*
Y131393D01*
X166116Y118007D02*
Y131393D01*
X174384D01*
X166116Y118007D02*
X174384D01*
X168234Y190907D02*
Y204293D01*
X159966Y190907D02*
Y204293D01*
X168234D01*
X159966Y190907D02*
X168234D01*
D23*
X203500Y145200D02*
Y151200D01*
Y145200D02*
X215500D01*
X203500Y151200D02*
X215500D01*
Y145200D02*
Y151200D01*
X195600Y76200D02*
Y82200D01*
X183600D02*
X195600D01*
X183600Y76200D02*
X195600D01*
X183600D02*
Y82200D01*
D51*
X25900Y151000D02*
D03*
X20000D02*
D03*
D98*
X38164Y123282D02*
X44160Y117286D01*
X22850Y123282D02*
X38164D01*
X22850D02*
X23898Y122234D01*
X70900Y132938D02*
Y147600D01*
X101900D01*
X222386Y154986D02*
X224500Y157100D01*
X145339Y154986D02*
X222386D01*
X113814Y159514D02*
X140811D01*
X101900Y147600D02*
X113814Y159514D01*
X140811D02*
X145339Y154986D01*
X55248Y117286D02*
X70900Y132938D01*
X44160Y117286D02*
X55248D01*
D100*
X322200Y191900D02*
X327100D01*
X329500Y194300D01*
Y200900D01*
X324200Y206200D02*
X329500Y200900D01*
D103*
X283169Y128600D02*
D03*
X104232D02*
D03*
D104*
X49704D02*
D03*
X337696D02*
D03*
D105*
X377800Y129800D02*
D03*
D106*
X11728Y139128D02*
D03*
Y117672D02*
D03*
D107*
X23657Y137947D02*
D03*
Y118853D02*
D03*
D108*
X7000Y97600D02*
D03*
Y77600D02*
D03*
Y87600D02*
D03*
Y178700D02*
D03*
Y168700D02*
D03*
Y188700D02*
D03*
D109*
Y67600D02*
D03*
Y158700D02*
D03*
D110*
X65900Y241900D02*
D03*
X318600Y16000D02*
D03*
X65900D02*
D03*
X318600Y241900D02*
D03*
D111*
X360000Y200000D02*
D03*
Y80000D02*
D03*
Y60000D02*
D03*
X340000Y80000D02*
D03*
Y60000D02*
D03*
X320000Y220000D02*
D03*
Y200000D02*
D03*
Y80000D02*
D03*
Y60000D02*
D03*
Y40000D02*
D03*
X300000Y200000D02*
D03*
Y180000D02*
D03*
Y80000D02*
D03*
Y60000D02*
D03*
Y40000D02*
D03*
Y20000D02*
D03*
X280000Y100000D02*
D03*
Y60000D02*
D03*
Y40000D02*
D03*
X260000Y200000D02*
D03*
Y100000D02*
D03*
Y80000D02*
D03*
Y60000D02*
D03*
Y40000D02*
D03*
X240000Y160000D02*
D03*
Y120000D02*
D03*
Y100000D02*
D03*
Y80000D02*
D03*
Y60000D02*
D03*
X220000Y80000D02*
D03*
Y60000D02*
D03*
Y40000D02*
D03*
X200000Y80000D02*
D03*
Y40000D02*
D03*
Y20000D02*
D03*
X180000Y200000D02*
D03*
Y140000D02*
D03*
Y80000D02*
D03*
Y60000D02*
D03*
Y40000D02*
D03*
Y20000D02*
D03*
X160000Y200000D02*
D03*
Y160000D02*
D03*
Y140000D02*
D03*
Y100000D02*
D03*
Y40000D02*
D03*
X140000Y140000D02*
D03*
Y100000D02*
D03*
Y80000D02*
D03*
Y60000D02*
D03*
Y20000D02*
D03*
X120000Y200000D02*
D03*
Y140000D02*
D03*
Y80000D02*
D03*
Y60000D02*
D03*
Y40000D02*
D03*
Y20000D02*
D03*
X100000Y160000D02*
D03*
Y80000D02*
D03*
Y60000D02*
D03*
Y40000D02*
D03*
Y20000D02*
D03*
X80000Y240000D02*
D03*
Y220000D02*
D03*
Y160000D02*
D03*
Y140000D02*
D03*
Y120000D02*
D03*
Y100000D02*
D03*
Y80000D02*
D03*
Y60000D02*
D03*
Y40000D02*
D03*
Y20000D02*
D03*
X60000Y220000D02*
D03*
Y200000D02*
D03*
Y160000D02*
D03*
Y140000D02*
D03*
Y100000D02*
D03*
Y80000D02*
D03*
Y60000D02*
D03*
Y40000D02*
D03*
X40000Y200000D02*
D03*
Y160000D02*
D03*
Y100000D02*
D03*
Y80000D02*
D03*
Y60000D02*
D03*
X20000Y200000D02*
D03*
Y160000D02*
D03*
Y100000D02*
D03*
Y80000D02*
D03*
Y60000D02*
D03*
D112*
X297565Y245787D02*
D03*
X293307Y240872D02*
D03*
X293381Y238273D02*
D03*
X294409Y235885D02*
D03*
Y233285D02*
D03*
Y230685D02*
D03*
Y228085D02*
D03*
X293596Y225615D02*
D03*
X291757Y223777D02*
D03*
X289919Y221938D02*
D03*
X288080Y220100D02*
D03*
X283873Y217191D02*
D03*
X281273D02*
D03*
X278673D02*
D03*
X276073D02*
D03*
X273472D02*
D03*
X270872D02*
D03*
X268272D02*
D03*
X265672D02*
D03*
X263073Y217148D02*
D03*
X260736Y216009D02*
D03*
X258897Y214171D02*
D03*
X257059Y212333D02*
D03*
X255220Y210494D02*
D03*
X253382Y208656D02*
D03*
X251543Y206817D02*
D03*
X249705Y204979D02*
D03*
X247561Y203508D02*
D03*
X244961D02*
D03*
X242361D02*
D03*
X239761D02*
D03*
X237161D02*
D03*
X234561D02*
D03*
X231961D02*
D03*
X229361D02*
D03*
X226761D02*
D03*
X224161D02*
D03*
X221561D02*
D03*
X218961D02*
D03*
X216361D02*
D03*
X213761D02*
D03*
X211161D02*
D03*
X208561D02*
D03*
X205961D02*
D03*
X203361D02*
D03*
X200761D02*
D03*
X198161D02*
D03*
X186633Y198409D02*
D03*
X186924Y185642D02*
D03*
X194306Y185928D02*
D03*
X195305Y190928D02*
D03*
X195374Y193527D02*
D03*
X195321Y196126D02*
D03*
X197921D02*
D03*
X200521D02*
D03*
X203121D02*
D03*
X205721D02*
D03*
X208321D02*
D03*
X210921D02*
D03*
X213521D02*
D03*
X216121D02*
D03*
X218721D02*
D03*
X221321D02*
D03*
X223921D02*
D03*
X226521D02*
D03*
X229121D02*
D03*
X231721D02*
D03*
X234321D02*
D03*
X236921D02*
D03*
X239521D02*
D03*
X242121D02*
D03*
X244721D02*
D03*
X247321D02*
D03*
X249921Y196134D02*
D03*
X252310Y197159D02*
D03*
X254156Y198991D02*
D03*
X255994Y200829D02*
D03*
X257833Y202668D02*
D03*
X259671Y204506D02*
D03*
X261510Y206345D02*
D03*
X263348Y208183D02*
D03*
X265377Y209809D02*
D03*
X267977D02*
D03*
X270577D02*
D03*
X273177D02*
D03*
X275777D02*
D03*
X278377D02*
D03*
X280977D02*
D03*
X283577D02*
D03*
X286177D02*
D03*
X288704Y210420D02*
D03*
X290609Y212190D02*
D03*
X292448Y214028D02*
D03*
X294286Y215866D02*
D03*
X296125Y217705D02*
D03*
X297963Y219543D02*
D03*
X299801Y221382D02*
D03*
X301457Y223387D02*
D03*
X301791Y225965D02*
D03*
Y228566D02*
D03*
Y231166D02*
D03*
Y233766D02*
D03*
Y236366D02*
D03*
X302879Y238727D02*
D03*
X187309Y217219D02*
D03*
X186743Y206955D02*
D03*
X186603Y204359D02*
D03*
X187346Y201867D02*
D03*
X195597Y204295D02*
D03*
X195482Y206893D02*
D03*
X195721Y209482D02*
D03*
X195874Y212077D02*
D03*
X195792Y214676D02*
D03*
X194691Y217032D02*
D03*
X70900Y150200D02*
D03*
Y147600D02*
D03*
X270300Y77400D02*
D03*
X33600Y128200D02*
D03*
Y125600D02*
D03*
X238500Y25400D02*
D03*
X224800Y24200D02*
D03*
X362800Y124100D02*
D03*
X356700Y124200D02*
D03*
X218500Y100500D02*
D03*
X213027Y100778D02*
D03*
X362300Y100700D02*
D03*
X378900Y94400D02*
D03*
X192300Y164100D02*
D03*
X147600Y170000D02*
D03*
X177500Y73100D02*
D03*
X330500Y142300D02*
D03*
X359800Y139500D02*
D03*
X324100Y142300D02*
D03*
X140400D02*
D03*
X144700Y111100D02*
D03*
X314300Y162069D02*
D03*
X302400Y151900D02*
D03*
X185900Y115100D02*
D03*
X205900Y127300D02*
D03*
X206300Y173512D02*
D03*
X150200Y173200D02*
D03*
Y176700D02*
D03*
X206300Y168900D02*
D03*
X362200Y192300D02*
D03*
X376100D02*
D03*
X369000D02*
D03*
X301700Y202800D02*
D03*
X294100Y191500D02*
D03*
X280600Y190900D02*
D03*
X289600Y152000D02*
D03*
X212500Y132400D02*
D03*
X324200Y206200D02*
D03*
X125800Y116700D02*
D03*
X120900Y122400D02*
D03*
X138633Y126505D02*
D03*
X143918Y27312D02*
D03*
X206300Y178124D02*
D03*
X294000Y169100D02*
D03*
X308400Y170100D02*
D03*
Y175400D02*
D03*
X322200Y191900D02*
D03*
X55400Y105000D02*
D03*
X136000Y157400D02*
D03*
X135300Y195200D02*
D03*
X159900Y188600D02*
D03*
X148200Y206300D02*
D03*
X140200D02*
D03*
X188000Y47200D02*
D03*
X307400Y193400D02*
D03*
X371300Y155400D02*
D03*
X304700Y79100D02*
D03*
X156100Y206300D02*
D03*
X167900Y188600D02*
D03*
X163800D02*
D03*
X327500Y162400D02*
D03*
X224500Y157100D02*
D03*
X66900Y169400D02*
D03*
X150200Y160500D02*
D03*
Y157100D02*
D03*
X106900Y203900D02*
D03*
X150200Y163600D02*
D03*
Y167000D02*
D03*
X145500D02*
D03*
X143500Y130800D02*
D03*
X314900Y61300D02*
D03*
X361000Y179200D02*
D03*
X324100Y200900D02*
D03*
X80500Y199600D02*
D03*
X160300Y127100D02*
D03*
X146800Y40500D02*
D03*
X249000Y29800D02*
D03*
X228600Y29500D02*
D03*
D113*
X286400Y100700D02*
D03*
X163800Y59800D02*
D03*
D124*
X22850Y128400D02*
D03*
Y125841D02*
D03*
Y123282D02*
D03*
Y130959D02*
D03*
Y133518D02*
D03*
D125*
X10743Y124611D02*
D03*
Y132189D02*
D03*
D126*
X23657Y139817D02*
D03*
X23656Y116983D02*
D03*
M02*
