M48
;Layer_Color=9474304
;FILE_FORMAT=2:5
INCH,LZ
;TYPE=PLATED
T1F00S00C0.01200
T2F00S00C0.01600
T5F00S00C0.03937
T6F00S00C0.05000
T8F00S00C0.12000
T9F00S00C0.16000
;TYPE=NON_PLATED
T10F00S00C0.16000
%
T01
X002Y006
X004
X006
X008
X01
X012
X014
Y008
Y01
X01447Y01111
X01435Y01308
X0138633Y0126505
X014Y014
X01404Y01423
X012Y014
X01209Y01224
X01258Y01167
X012Y008
X01
X008
Y01
Y012
Y014
X00709Y01476
Y01502
X006Y014
X00336Y01282
Y01256
X004Y01
X006
X00554Y0105
X006Y008
X004
X002
Y01
X006Y004
X008
X01
X012
Y002
X014
X0143918Y0027312
X01468Y00405
X01Y002
X008
X018
X02
Y004
X0188Y00472
X018Y004
Y006
X01775Y00731
X018Y008
X02
X022
X024
X026
X02703Y00774
X028Y006
X03
Y008
X03047Y00791
X03Y004
Y002
X028Y004
X026
Y006
X024
X022
Y004
X02286Y00295
X02248Y00242
X02385Y00254
X0249Y00298
X024Y01
X026
X028
X024Y012
X02125Y01324
X02059Y01273
X01859Y01151
X018Y014
X016
X01603Y01271
X016Y01
X0213027Y0100778
X02185Y01005
X016Y004
X02896Y0152
X03024Y01519
X03241Y01423
X03305
X03598Y01395
X03628Y01241
X03567Y01242
X03623Y01007
X03789Y00944
X036Y008
Y006
X034
Y008
X032
Y006
X03149Y00613
X032Y004
X03713Y01554
X0361Y01792
X03622Y01923
X0369
X03761
X036Y02
X03241Y02009
X032Y02
X03222Y01919
X03242Y02062
X032Y022
X03143Y0162069
X03275Y01624
X03084Y01701
Y01754
X03Y018
X0294Y01691
X02941Y01915
X02806Y01909
X0280977Y0209809
X0278377
X0275777
X0273177
X0270577
X0267977
X0265377
X0263348Y0208183
X026151Y0206345
X0259671Y0204506
X0257833Y0202668
X0255994Y0200829
X0254156Y0198991
X025231Y0197159
X0249921Y0196134
X0247321Y0196126
X0244721
X0242121
X0239521
X0236921
X0234321
X0231721
X0229121
X0226521
X0223921
X0221321
X0218721
X0216121
X0213521
X0210921
X0208321
X0205721
X0203121
X0200521
X0197921
X0195321
X0195374Y0193527
X0195305Y0190928
X0194306Y0185928
X0186924Y0185642
X0186633Y0198409
X0187346Y0201867
X0186603Y0204359
X0186743Y0206955
X0195482Y0206893
X0195597Y0204295
X0198161Y0203508
X0200761
X0203361
X0205961
X0208561
X0211161
X0213761
X0216361
X0218961
X0221561
X0224161
X0226761
X0229361
X0231961
X0234561
X0237161
X0239761
X0242361
X0244961
X0247561
X0249705Y0204979
X0251543Y0206817
X0253382Y0208656
X025522Y0210494
X0257059Y0212333
X0258897Y0214171
X0260736Y0216009
X0263073Y0217148
X0265672Y0217191
X0268272
X0270872
X0273472
X0276073
X0278673
X0281273
X0283873
X028808Y02201
X0289919Y0221938
X0291757Y0223777
X0293596Y0225615
X0294409Y0228085
Y0230685
Y0233285
Y0235885
X0293381Y0238273
X0293307Y0240872
X0297565Y0245787
X0302879Y0238727
X0301791Y0236366
Y0233766
Y0231166
Y0228566
Y0225965
X0301457Y0223387
X0299801Y0221382
X0297963Y0219543
X0296125Y0217705
X0294286Y0215866
X0292448Y0214028
X0290609Y021219
X0288704Y021042
X0286177Y0209809
X0283577
X03017Y02028
X03Y02
X03074Y01934
X026Y02
X024Y016
X02245Y01571
X02063Y01689
Y0173512
Y0178124
X01923Y01641
X016Y016
X01599Y01886
X01638
X01679
X016Y02
X018
X0187309Y0217219
X0194691Y0217032
X0195792Y0214676
X0195874Y0212077
X0195721Y0209482
X01561Y02063
X01482
X01402
X01353Y01952
X012Y02
X01069Y02039
X00805Y01996
X008Y022
Y024
X006Y022
Y02
X004
X002
Y016
X004
X006
X00669Y01694
X008Y016
X01
X0136Y01574
X01502Y01571
Y01605
Y01636
Y0167
X01455
X01476Y017
X01502Y01732
Y01767
T02
X01638Y00598
X02864Y01007
T05
X0007Y00676
Y00776
Y00876
Y00976
Y01587
Y01687
Y01787
Y01887
T06
X03778Y01298
T08
X00659Y0016
X03186
Y02419
X00659
T09
X0283169Y01286
T10
X0104232Y01286
M30
