G04*
G04 #@! TF.GenerationSoftware,Altium Limited,Altium Designer,19.1.9 (167)*
G04*
G04 Layer_Color=0*
%FSLAX25Y25*%
%MOIN*%
G70*
G01*
G75*
%ADD12C,0.00394*%
%ADD16C,0.00500*%
%ADD18C,0.00600*%
D12*
X71242Y181131D02*
Y185069D01*
X69274Y183100D02*
X73211D01*
X96600Y182032D02*
Y185968D01*
X94631Y184000D02*
X98568D01*
D16*
X354142Y125988D02*
Y137110D01*
X359359D01*
Y125988D02*
Y137110D01*
X354142Y125988D02*
X359359D01*
X286943Y156088D02*
Y167210D01*
X292159D01*
Y156088D02*
Y167210D01*
X286943Y156088D02*
X292159D01*
X298458Y155890D02*
Y167012D01*
X293241Y155890D02*
X298458D01*
X293241D02*
Y167012D01*
X298458D01*
X290258Y194590D02*
Y205712D01*
X285041Y194590D02*
X290258D01*
X285041D02*
Y205712D01*
X290258D01*
X278043Y194788D02*
Y205910D01*
X283259D01*
Y194788D02*
Y205910D01*
X278043Y194788D02*
X283259D01*
X311590Y70643D02*
X322712D01*
X311590D02*
Y75859D01*
X322712D01*
Y70643D02*
Y75859D01*
X308841Y141212D02*
X314057D01*
X308841Y130090D02*
Y141212D01*
Y130090D02*
X314057D01*
Y141212D01*
X308641Y126512D02*
X313858D01*
X308641Y115390D02*
Y126512D01*
Y115390D02*
X313858D01*
Y126512D01*
D18*
X355225Y128350D02*
Y134650D01*
X358375D01*
Y128350D02*
Y134650D01*
X355225Y128350D02*
X358375D01*
X359375Y125950D02*
Y137050D01*
X354225D02*
X359375D01*
X354225Y125950D02*
Y137050D01*
Y125950D02*
X359375D01*
X288025Y158450D02*
Y164750D01*
X291175D01*
Y158450D02*
Y164750D01*
X288025Y158450D02*
X291175D01*
X292175Y156050D02*
Y167150D01*
X287025D02*
X292175D01*
X287025Y156050D02*
Y167150D01*
Y156050D02*
X292175D01*
X297375Y158350D02*
Y164650D01*
X294225Y158350D02*
X297375D01*
X294225D02*
Y164650D01*
X297375D01*
X293225Y155950D02*
Y167050D01*
Y155950D02*
X298375D01*
Y167050D01*
X293225D02*
X298375D01*
X289175Y197050D02*
Y203350D01*
X286025Y197050D02*
X289175D01*
X286025D02*
Y203350D01*
X289175D01*
X285025Y194650D02*
Y205750D01*
Y194650D02*
X290175D01*
Y205750D01*
X285025D02*
X290175D01*
X279125Y197150D02*
Y203450D01*
X282275D01*
Y197150D02*
Y203450D01*
X279125Y197150D02*
X282275D01*
X283275Y194750D02*
Y205850D01*
X278125D02*
X283275D01*
X278125Y194750D02*
Y205850D01*
Y194750D02*
X283275D01*
X47450Y104650D02*
Y111550D01*
X51150D01*
Y104650D02*
Y111550D01*
X47450Y104650D02*
X51150D01*
X52150Y102250D02*
Y113950D01*
X46450D02*
X52150D01*
X46450Y102250D02*
Y113950D01*
Y102250D02*
X52150D01*
X314050Y71725D02*
X320350D01*
X314050D02*
Y74875D01*
X320350D01*
Y71725D02*
Y74875D01*
X311650Y75875D02*
X322750D01*
X311650Y70725D02*
Y75875D01*
Y70725D02*
X322750D01*
Y75875D01*
X154150Y194250D02*
Y201150D01*
X157850D01*
Y194250D02*
Y201150D01*
X154150Y194250D02*
X157850D01*
X158850Y191850D02*
Y203550D01*
X153150D02*
X158850D01*
X153150Y191850D02*
Y203550D01*
Y191850D02*
X158850D01*
X293050Y174550D02*
Y181450D01*
X296750D01*
Y174550D02*
Y181450D01*
X293050Y174550D02*
X296750D01*
X297750Y172150D02*
Y183850D01*
X292050D02*
X297750D01*
X292050Y172150D02*
Y183850D01*
Y172150D02*
X297750D01*
X137350Y169850D02*
X143050D01*
X137350D02*
Y181550D01*
X143050D01*
Y169850D02*
Y181550D01*
X138350Y172250D02*
X142050D01*
Y179150D01*
X138350D02*
X142050D01*
X138350Y172250D02*
Y179150D01*
X129250Y181450D02*
X134950D01*
Y169750D02*
Y181450D01*
X129250Y169750D02*
X134950D01*
X129250D02*
Y181450D01*
X130250Y179050D02*
X133950D01*
X130250Y172150D02*
Y179050D01*
Y172150D02*
X133950D01*
Y179050D01*
X186050Y66050D02*
X192950D01*
X186050D02*
Y69750D01*
X192950D01*
Y66050D02*
Y69750D01*
X183650Y70750D02*
X195350D01*
X183650Y65050D02*
Y70750D01*
Y65050D02*
X195350D01*
Y70750D01*
X308825Y141250D02*
X313975D01*
Y130150D02*
Y141250D01*
X308825Y130150D02*
X313975D01*
X308825D02*
Y141250D01*
X309825Y138850D02*
X312975D01*
X309825Y132550D02*
Y138850D01*
Y132550D02*
X312975D01*
Y138850D01*
X308625Y126550D02*
X313775D01*
Y115450D02*
Y126550D01*
X308625Y115450D02*
X313775D01*
X308625D02*
Y126550D01*
X309625Y124150D02*
X312775D01*
X309625Y117850D02*
Y124150D01*
Y117850D02*
X312775D01*
Y124150D01*
X208150Y159350D02*
X215050D01*
X208150D02*
Y163050D01*
X215050D01*
Y159350D02*
Y163050D01*
X205750Y164050D02*
X217450D01*
X205750Y158350D02*
Y164050D01*
Y158350D02*
X217450D01*
Y164050D01*
X208150Y153550D02*
X215050D01*
X208150D02*
Y157250D01*
X215050D01*
Y153550D02*
Y157250D01*
X205750Y158250D02*
X217450D01*
X205750Y152550D02*
Y158250D01*
Y152550D02*
X217450D01*
Y158250D01*
X184250Y191450D02*
X191150D01*
X184250D02*
Y195150D01*
X191150D01*
Y191450D02*
Y195150D01*
X181850Y196150D02*
X193550D01*
X181850Y190450D02*
Y196150D01*
Y190450D02*
X193550D01*
Y196150D01*
X184750Y210350D02*
X191650D01*
X184750D02*
Y214050D01*
X191650D01*
Y210350D02*
Y214050D01*
X182350Y215050D02*
X194050D01*
X182350Y209350D02*
Y215050D01*
Y209350D02*
X194050D01*
Y215050D01*
M02*
