G04*
G04 #@! TF.GenerationSoftware,Altium Limited,Altium Designer,21.6.1 (37)*
G04*
G04 Layer_Color=2752767*
%FSLAX44Y44*%
%MOMM*%
G71*
G04*
G04 #@! TF.SameCoordinates,1A0BCF72-60D2-4BA0-9B7A-98A30DA12748*
G04*
G04*
G04 #@! TF.FilePolarity,Positive*
G04*
G01*
G75*
%ADD154C,0.0508*%
%ADD155C,0.0677*%
D154*
X27756Y296854D02*
Y300918D01*
X31820D01*
Y296854D01*
X27756D01*
Y351354D02*
Y355418D01*
X31820D01*
Y351354D01*
X27756D01*
X719248Y324612D02*
X717216Y328676D01*
X721280D01*
X719248Y324612D01*
X126248D02*
X127264Y325628D01*
X128280D01*
X127264Y326644D01*
X128280Y327660D01*
X127264D01*
X126248Y328676D01*
X125232Y327660D01*
X124216D01*
X125232Y326644D01*
X124216Y325628D01*
X125232D01*
X126248Y324612D01*
X857748D02*
X858764Y325628D01*
X859780D01*
X858764Y326644D01*
X859780Y327660D01*
X858764D01*
X857748Y328676D01*
X856732Y327660D01*
X855716D01*
X856732Y326644D01*
X855716Y325628D01*
X856732D01*
X857748Y324612D01*
X264748D02*
X262716Y328676D01*
X266780D01*
X264748Y324612D01*
X957580Y327660D02*
X958596Y329692D01*
X957580Y331724D01*
X959612Y330708D01*
X961644Y331724D01*
X960628Y329692D01*
X961644Y327660D01*
X959612Y328676D01*
X957580Y327660D01*
X19050Y468884D02*
Y467868D01*
X21082D01*
Y468884D01*
X22098D01*
Y470916D01*
X21082D01*
Y471932D01*
X19050D01*
Y470916D01*
X18034D01*
Y468884D01*
X19050D01*
Y392684D02*
Y391668D01*
X21082D01*
Y392684D01*
X22098D01*
Y394716D01*
X21082D01*
Y395732D01*
X19050D01*
Y394716D01*
X18034D01*
Y392684D01*
X19050D01*
Y418084D02*
Y417068D01*
X21082D01*
Y418084D01*
X22098D01*
Y420116D01*
X21082D01*
Y421132D01*
X19050D01*
Y420116D01*
X18034D01*
Y418084D01*
X19050D01*
Y443484D02*
Y442468D01*
X21082D01*
Y443484D01*
X22098D01*
Y445516D01*
X21082D01*
Y446532D01*
X19050D01*
Y445516D01*
X18034D01*
Y443484D01*
X19050D01*
Y228092D02*
Y227076D01*
X21082D01*
Y228092D01*
X22098D01*
Y230124D01*
X21082D01*
Y231140D01*
X19050D01*
Y230124D01*
X18034D01*
Y228092D01*
X19050D01*
Y202692D02*
Y201676D01*
X21082D01*
Y202692D01*
X22098D01*
Y204724D01*
X21082D01*
Y205740D01*
X19050D01*
Y204724D01*
X18034D01*
Y202692D01*
X19050D01*
Y177292D02*
Y176276D01*
X21082D01*
Y177292D01*
X22098D01*
Y179324D01*
X21082D01*
Y180340D01*
X19050D01*
Y179324D01*
X18034D01*
Y177292D01*
X19050D01*
Y253492D02*
Y252476D01*
X21082D01*
Y253492D01*
X22098D01*
Y255524D01*
X21082D01*
Y256540D01*
X19050D01*
Y255524D01*
X18034D01*
Y253492D01*
X19050D01*
X165354Y612394D02*
X166370D01*
X167386Y613410D01*
X168402Y612394D01*
X169418D01*
Y613410D01*
X168402Y614426D01*
X169418Y615442D01*
Y616458D01*
X168402D01*
X167386Y615442D01*
X166370Y616458D01*
X165354D01*
Y615442D01*
X166370Y614426D01*
X165354Y613410D01*
Y612394D01*
X807212Y38608D02*
X808228D01*
X809244Y39624D01*
X810260Y38608D01*
X811276D01*
Y39624D01*
X810260Y40640D01*
X811276Y41656D01*
Y42672D01*
X810260D01*
X809244Y41656D01*
X808228Y42672D01*
X807212D01*
Y41656D01*
X808228Y40640D01*
X807212Y39624D01*
Y38608D01*
X165354D02*
X166370D01*
X167386Y39624D01*
X168402Y38608D01*
X169418D01*
Y39624D01*
X168402Y40640D01*
X169418Y41656D01*
Y42672D01*
X168402D01*
X167386Y41656D01*
X166370Y42672D01*
X165354D01*
Y41656D01*
X166370Y40640D01*
X165354Y39624D01*
Y38608D01*
X807212Y612394D02*
X808228D01*
X809244Y613410D01*
X810260Y612394D01*
X811276D01*
Y613410D01*
X810260Y614426D01*
X811276Y615442D01*
Y616458D01*
X810260D01*
X809244Y615442D01*
X808228Y616458D01*
X807212D01*
Y615442D01*
X808228Y614426D01*
X807212Y613410D01*
Y612394D01*
X174498Y172720D02*
X176530Y174752D01*
X178562Y172720D01*
X176530Y170688D01*
X174498Y172720D01*
X308864Y186690D02*
X310896Y188722D01*
X312928Y186690D01*
X310896Y184658D01*
X308864Y186690D01*
X84498Y183642D02*
X86530Y185674D01*
X88562Y183642D01*
X86530Y181610D01*
X84498Y183642D01*
X285750Y189738D02*
X287782Y191770D01*
X289814Y189738D01*
X287782Y187706D01*
X285750Y189738D01*
X150368Y152400D02*
X152400Y154432D01*
X154432Y152400D01*
X152400Y150368D01*
X150368Y152400D01*
X201168Y254000D02*
X203200Y256032D01*
X205232Y254000D01*
X203200Y251968D01*
X201168Y254000D01*
X48768D02*
X50800Y256032D01*
X52832Y254000D01*
X50800Y251968D01*
X48768Y254000D01*
X937768Y508000D02*
X939800Y510032D01*
X941832Y508000D01*
X939800Y505968D01*
X937768Y508000D01*
Y406400D02*
X939800Y408432D01*
X941832Y406400D01*
X939800Y404368D01*
X937768Y406400D01*
Y304800D02*
X939800Y306832D01*
X941832Y304800D01*
X939800Y302768D01*
X937768Y304800D01*
Y203200D02*
X939800Y205232D01*
X941832Y203200D01*
X939800Y201168D01*
X937768Y203200D01*
X912368Y152400D02*
X914400Y154432D01*
X916432Y152400D01*
X914400Y150368D01*
X912368Y152400D01*
X886968Y508000D02*
X889000Y510032D01*
X891032Y508000D01*
X889000Y505968D01*
X886968Y508000D01*
X861568Y254000D02*
X863600Y256032D01*
X865632Y254000D01*
X863600Y251968D01*
X861568Y254000D01*
X886968Y203200D02*
X889000Y205232D01*
X891032Y203200D01*
X889000Y201168D01*
X886968Y203200D01*
X861568Y152400D02*
X863600Y154432D01*
X865632Y152400D01*
X863600Y150368D01*
X861568Y152400D01*
X836168Y609600D02*
X838200Y611632D01*
X840232Y609600D01*
X838200Y607568D01*
X836168Y609600D01*
X810768Y558800D02*
X812800Y560832D01*
X814832Y558800D01*
X812800Y556768D01*
X810768Y558800D01*
X836168Y406400D02*
X838200Y408432D01*
X840232Y406400D01*
X838200Y404368D01*
X836168Y406400D01*
X810768Y355600D02*
X812800Y357632D01*
X814832Y355600D01*
X812800Y353568D01*
X810768Y355600D01*
X836168Y304800D02*
X838200Y306832D01*
X840232Y304800D01*
X838200Y302768D01*
X836168Y304800D01*
Y101600D02*
X838200Y103632D01*
X840232Y101600D01*
X838200Y99568D01*
X836168Y101600D01*
X785368Y609600D02*
X787400Y611632D01*
X789432Y609600D01*
X787400Y607568D01*
X785368Y609600D01*
Y508000D02*
X787400Y510032D01*
X789432Y508000D01*
X787400Y505968D01*
X785368Y508000D01*
X759968Y457200D02*
X762000Y459232D01*
X764032Y457200D01*
X762000Y455168D01*
X759968Y457200D01*
Y355600D02*
X762000Y357632D01*
X764032Y355600D01*
X762000Y353568D01*
X759968Y355600D01*
X785368Y304800D02*
X787400Y306832D01*
X789432Y304800D01*
X787400Y302768D01*
X785368Y304800D01*
X759968Y254000D02*
X762000Y256032D01*
X764032Y254000D01*
X762000Y251968D01*
X759968Y254000D01*
X785368Y203200D02*
X787400Y205232D01*
X789432Y203200D01*
X787400Y201168D01*
X785368Y203200D01*
X759968Y152400D02*
X762000Y154432D01*
X764032Y152400D01*
X762000Y150368D01*
X759968Y152400D01*
X785368Y101600D02*
X787400Y103632D01*
X789432Y101600D01*
X787400Y99568D01*
X785368Y101600D01*
X759968Y50800D02*
X762000Y52832D01*
X764032Y50800D01*
X762000Y48768D01*
X759968Y50800D01*
X734568Y609600D02*
X736600Y611632D01*
X738632Y609600D01*
X736600Y607568D01*
X734568Y609600D01*
X709168Y254000D02*
X711200Y256032D01*
X713232Y254000D01*
X711200Y251968D01*
X709168Y254000D01*
X734568Y203200D02*
X736600Y205232D01*
X738632Y203200D01*
X736600Y201168D01*
X734568Y203200D01*
Y101600D02*
X736600Y103632D01*
X738632Y101600D01*
X736600Y99568D01*
X734568Y101600D01*
X709168Y50800D02*
X711200Y52832D01*
X713232Y50800D01*
X711200Y48768D01*
X709168Y50800D01*
X683768Y508000D02*
X685800Y510032D01*
X687832Y508000D01*
X685800Y505968D01*
X683768Y508000D01*
X658368Y457200D02*
X660400Y459232D01*
X662432Y457200D01*
X660400Y455168D01*
X658368Y457200D01*
X683768Y406400D02*
X685800Y408432D01*
X687832Y406400D01*
X685800Y404368D01*
X683768Y406400D01*
X658368Y355600D02*
X660400Y357632D01*
X662432Y355600D01*
X660400Y353568D01*
X658368Y355600D01*
Y254000D02*
X660400Y256032D01*
X662432Y254000D01*
X660400Y251968D01*
X658368Y254000D01*
Y152400D02*
X660400Y154432D01*
X662432Y152400D01*
X660400Y150368D01*
X658368Y152400D01*
X683768Y101600D02*
X685800Y103632D01*
X687832Y101600D01*
X685800Y99568D01*
X683768Y101600D01*
X607568Y457200D02*
X609600Y459232D01*
X611632Y457200D01*
X609600Y455168D01*
X607568Y457200D01*
X632968Y406400D02*
X635000Y408432D01*
X637032Y406400D01*
X635000Y404368D01*
X632968Y406400D01*
X607568Y355600D02*
X609600Y357632D01*
X611632Y355600D01*
X609600Y353568D01*
X607568Y355600D01*
Y254000D02*
X609600Y256032D01*
X611632Y254000D01*
X609600Y251968D01*
X607568Y254000D01*
Y152400D02*
X609600Y154432D01*
X611632Y152400D01*
X609600Y150368D01*
X607568Y152400D01*
X632968Y101600D02*
X635000Y103632D01*
X637032Y101600D01*
X635000Y99568D01*
X632968Y101600D01*
X607568Y50800D02*
X609600Y52832D01*
X611632Y50800D01*
X609600Y48768D01*
X607568Y50800D01*
X556768Y457200D02*
X558800Y459232D01*
X560832Y457200D01*
X558800Y455168D01*
X556768Y457200D01*
X582168Y406400D02*
X584200Y408432D01*
X586232Y406400D01*
X584200Y404368D01*
X582168Y406400D01*
Y304800D02*
X584200Y306832D01*
X586232Y304800D01*
X584200Y302768D01*
X582168Y304800D01*
X556768Y152400D02*
X558800Y154432D01*
X560832Y152400D01*
X558800Y150368D01*
X556768Y152400D01*
X582168Y101600D02*
X584200Y103632D01*
X586232Y101600D01*
X584200Y99568D01*
X582168Y101600D01*
X505968Y457200D02*
X508000Y459232D01*
X510032Y457200D01*
X508000Y455168D01*
X505968Y457200D01*
X531368Y304800D02*
X533400Y306832D01*
X535432Y304800D01*
X533400Y302768D01*
X531368Y304800D01*
X505968Y254000D02*
X508000Y256032D01*
X510032Y254000D01*
X508000Y251968D01*
X505968Y254000D01*
X531368Y203200D02*
X533400Y205232D01*
X535432Y203200D01*
X533400Y201168D01*
X531368Y203200D01*
X505968Y152400D02*
X508000Y154432D01*
X510032Y152400D01*
X508000Y150368D01*
X505968Y152400D01*
X455168Y355600D02*
X457200Y357632D01*
X459232Y355600D01*
X457200Y353568D01*
X455168Y355600D01*
Y254000D02*
X457200Y256032D01*
X459232Y254000D01*
X457200Y251968D01*
X455168Y254000D01*
Y152400D02*
X457200Y154432D01*
X459232Y152400D01*
X457200Y150368D01*
X455168Y152400D01*
X480568Y101600D02*
X482600Y103632D01*
X484632Y101600D01*
X482600Y99568D01*
X480568Y101600D01*
X404368Y355600D02*
X406400Y357632D01*
X408432Y355600D01*
X406400Y353568D01*
X404368Y355600D01*
Y254000D02*
X406400Y256032D01*
X408432Y254000D01*
X406400Y251968D01*
X404368Y254000D01*
Y152400D02*
X406400Y154432D01*
X408432Y152400D01*
X406400Y150368D01*
X404368Y152400D01*
X353568Y355600D02*
X355600Y357632D01*
X357632Y355600D01*
X355600Y353568D01*
X353568Y355600D01*
Y254000D02*
X355600Y256032D01*
X357632Y254000D01*
X355600Y251968D01*
X353568Y254000D01*
X378968Y203200D02*
X381000Y205232D01*
X383032Y203200D01*
X381000Y201168D01*
X378968Y203200D01*
X353568Y152400D02*
X355600Y154432D01*
X357632Y152400D01*
X355600Y150368D01*
X353568Y152400D01*
X378968Y101600D02*
X381000Y103632D01*
X383032Y101600D01*
X381000Y99568D01*
X378968Y101600D01*
X353568Y50800D02*
X355600Y52832D01*
X357632Y50800D01*
X355600Y48768D01*
X353568Y50800D01*
X328168Y508000D02*
X330200Y510032D01*
X332232Y508000D01*
X330200Y505968D01*
X328168Y508000D01*
X302768Y457200D02*
X304800Y459232D01*
X306832Y457200D01*
X304800Y455168D01*
X302768Y457200D01*
Y355600D02*
X304800Y357632D01*
X306832Y355600D01*
X304800Y353568D01*
X302768Y355600D01*
X328168Y304800D02*
X330200Y306832D01*
X332232Y304800D01*
X330200Y302768D01*
X328168Y304800D01*
X302768Y254000D02*
X304800Y256032D01*
X306832Y254000D01*
X304800Y251968D01*
X302768Y254000D01*
Y152400D02*
X304800Y154432D01*
X306832Y152400D01*
X304800Y150368D01*
X302768Y152400D01*
X328168Y101600D02*
X330200Y103632D01*
X332232Y101600D01*
X330200Y99568D01*
X328168Y101600D01*
X302768Y50800D02*
X304800Y52832D01*
X306832Y50800D01*
X304800Y48768D01*
X302768Y50800D01*
X277368Y508000D02*
X279400Y510032D01*
X281432Y508000D01*
X279400Y505968D01*
X277368Y508000D01*
Y406400D02*
X279400Y408432D01*
X281432Y406400D01*
X279400Y404368D01*
X277368Y406400D01*
X251968Y152400D02*
X254000Y154432D01*
X256032Y152400D01*
X254000Y150368D01*
X251968Y152400D01*
X277368Y101600D02*
X279400Y103632D01*
X281432Y101600D01*
X279400Y99568D01*
X277368Y101600D01*
X251968Y50800D02*
X254000Y52832D01*
X256032Y50800D01*
X254000Y48768D01*
X251968Y50800D01*
X201168Y558800D02*
X203200Y560832D01*
X205232Y558800D01*
X203200Y556768D01*
X201168Y558800D01*
X226568Y508000D02*
X228600Y510032D01*
X230632Y508000D01*
X228600Y505968D01*
X226568Y508000D01*
X201168Y457200D02*
X203200Y459232D01*
X205232Y457200D01*
X203200Y455168D01*
X201168Y457200D01*
X226568Y406400D02*
X228600Y408432D01*
X230632Y406400D01*
X228600Y404368D01*
X226568Y406400D01*
X201168Y355600D02*
X203200Y357632D01*
X205232Y355600D01*
X203200Y353568D01*
X201168Y355600D01*
X226568Y304800D02*
X228600Y306832D01*
X230632Y304800D01*
X228600Y302768D01*
X226568Y304800D01*
Y101600D02*
X228600Y103632D01*
X230632Y101600D01*
X228600Y99568D01*
X226568Y101600D01*
X201168Y50800D02*
X203200Y52832D01*
X205232Y50800D01*
X203200Y48768D01*
X201168Y50800D01*
X150368Y558800D02*
X152400Y560832D01*
X154432Y558800D01*
X152400Y556768D01*
X150368Y558800D01*
X175768Y508000D02*
X177800Y510032D01*
X179832Y508000D01*
X177800Y505968D01*
X175768Y508000D01*
X150368Y457200D02*
X152400Y459232D01*
X154432Y457200D01*
X152400Y455168D01*
X150368Y457200D01*
X175768Y406400D02*
X177800Y408432D01*
X179832Y406400D01*
X177800Y404368D01*
X175768Y406400D01*
X150368Y355600D02*
X152400Y357632D01*
X154432Y355600D01*
X152400Y353568D01*
X150368Y355600D01*
X175768Y304800D02*
X177800Y306832D01*
X179832Y304800D01*
X177800Y302768D01*
X175768Y304800D01*
Y203200D02*
X177800Y205232D01*
X179832Y203200D01*
X177800Y201168D01*
X175768Y203200D01*
Y101600D02*
X177800Y103632D01*
X179832Y101600D01*
X177800Y99568D01*
X175768Y101600D01*
X124968Y508000D02*
X127000Y510032D01*
X129032Y508000D01*
X127000Y505968D01*
X124968Y508000D01*
X99568Y457200D02*
X101600Y459232D01*
X103632Y457200D01*
X101600Y455168D01*
X99568Y457200D01*
X124968Y406400D02*
X127000Y408432D01*
X129032Y406400D01*
X127000Y404368D01*
X124968Y406400D01*
Y203200D02*
X127000Y205232D01*
X129032Y203200D01*
X127000Y201168D01*
X124968Y203200D01*
X99568Y152400D02*
X101600Y154432D01*
X103632Y152400D01*
X101600Y150368D01*
X99568Y152400D01*
X124968Y101600D02*
X127000Y103632D01*
X129032Y101600D01*
X127000Y99568D01*
X124968Y101600D01*
X74168Y508000D02*
X76200Y510032D01*
X78232Y508000D01*
X76200Y505968D01*
X74168Y508000D01*
X48768Y457200D02*
X50800Y459232D01*
X52832Y457200D01*
X50800Y455168D01*
X48768Y457200D01*
X74168Y406400D02*
X76200Y408432D01*
X78232Y406400D01*
X76200Y404368D01*
X74168Y406400D01*
Y304800D02*
X76200Y306832D01*
X78232Y304800D01*
X76200Y302768D01*
X74168Y304800D01*
X48768Y152400D02*
X50800Y154432D01*
X52832Y152400D01*
X50800Y150368D01*
X48768Y152400D01*
X696303Y244945D02*
X698335Y246977D01*
X700367Y244945D01*
X698335Y242913D01*
X696303Y244945D01*
X410464Y93472D02*
Y97536D01*
X414528D01*
Y93472D01*
X410464D01*
X411480Y94488D02*
Y96520D01*
X413512D01*
Y94488D01*
X411480D01*
X296962Y285206D02*
X298994Y287238D01*
X301026Y285206D01*
X298994Y283174D01*
X296962Y285206D01*
X156210Y262890D02*
X158242Y264922D01*
X160274Y262890D01*
X158242Y260858D01*
X156210Y262890D01*
X308610Y202438D02*
X310642Y204470D01*
X312674Y202438D01*
X310642Y200406D01*
X308610Y202438D01*
X225552Y185420D02*
X227584Y187452D01*
X229616Y185420D01*
X227584Y183388D01*
X225552Y185420D01*
X225806Y198374D02*
X227838Y200406D01*
X229870Y198374D01*
X227838Y196342D01*
X225806Y198374D01*
X150114Y378714D02*
X152146Y380746D01*
X154178Y378714D01*
X152146Y376682D01*
X150114Y378714D01*
X176784Y368142D02*
X178816Y370174D01*
X180848Y368142D01*
X178816Y366110D01*
X176784Y368142D01*
X353738Y282194D02*
X355770Y284226D01*
X357802Y282194D01*
X355770Y280162D01*
X353738Y282194D01*
X405130Y322834D02*
X407162Y324866D01*
X409194Y322834D01*
X407162Y320802D01*
X405130Y322834D01*
X333208Y299934D02*
X335240Y301966D01*
X337272Y299934D01*
X335240Y297902D01*
X333208Y299934D01*
X343408Y384940D02*
X345440Y386972D01*
X347472Y384940D01*
X345440Y382908D01*
X343408Y384940D01*
X367480Y425030D02*
X369512Y427062D01*
X371544Y425030D01*
X369512Y422998D01*
X367480Y425030D01*
X379476Y407670D02*
X381508Y409702D01*
X383540Y407670D01*
X381508Y405638D01*
X379476Y407670D01*
X352044Y382778D02*
X354076Y384810D01*
X356108Y382778D01*
X354076Y380746D01*
X352044Y382778D01*
X379476Y424180D02*
X381508Y426212D01*
X383540Y424180D01*
X381508Y422148D01*
X379476Y424180D01*
X376089Y431891D02*
X378121Y433923D01*
X380153Y431891D01*
X378121Y429859D01*
X376089Y431891D01*
X333756Y337058D02*
X335788Y339090D01*
X337820Y337058D01*
X335788Y335026D01*
X333756Y337058D01*
X454914Y405892D02*
X456946Y407924D01*
X458978Y405892D01*
X456946Y403860D01*
X454914Y405892D01*
X470154Y292354D02*
X472186Y294386D01*
X474218Y292354D01*
X472186Y290322D01*
X470154Y292354D01*
X486664Y405384D02*
X488696Y407416D01*
X490728Y405384D01*
X488696Y403352D01*
X486664Y405384D01*
X508762Y333502D02*
X510794Y335534D01*
X512826Y333502D01*
X510794Y331470D01*
X508762Y333502D01*
X522478Y271526D02*
X524510Y273558D01*
X526542Y271526D01*
X524510Y269494D01*
X522478Y271526D01*
X536194Y283718D02*
X538226Y285750D01*
X540258Y283718D01*
X538226Y281686D01*
X536194Y283718D01*
X540474Y333545D02*
X542506Y335577D01*
X544538Y333545D01*
X542506Y331513D01*
X540474Y333545D01*
X472440Y120904D02*
X474472Y122936D01*
X476504Y120904D01*
X474472Y118872D01*
X472440Y120904D01*
X167894Y430276D02*
X169926Y432308D01*
X171958Y430276D01*
X169926Y428244D01*
X167894Y430276D01*
X174498Y179578D02*
X176530Y181610D01*
X178562Y179578D01*
X176530Y177546D01*
X174498Y179578D01*
X83312Y319024D02*
X85344Y321056D01*
X87376Y319024D01*
X85344Y316992D01*
X83312Y319024D01*
Y325628D02*
X85344Y327660D01*
X87376Y325628D01*
X85344Y323596D01*
X83312Y325628D01*
X850138Y359664D02*
X852170Y361696D01*
X854202Y359664D01*
X852170Y357632D01*
X850138Y359664D01*
X589280Y61214D02*
X591312Y63246D01*
X593344Y61214D01*
X591312Y59182D01*
X589280Y61214D01*
X563626Y74422D02*
X565658Y76454D01*
X567690Y74422D01*
X565658Y72390D01*
X563626Y74422D01*
X785368Y211074D02*
X787400Y213106D01*
X789432Y211074D01*
X787400Y209042D01*
X785368Y211074D01*
X362458Y332232D02*
X364490Y334264D01*
X366522Y332232D01*
X364490Y330200D01*
X362458Y332232D01*
X955802Y235712D02*
X957834Y237744D01*
X959866Y235712D01*
X957834Y233680D01*
X955802Y235712D01*
X805180Y151638D02*
X807212Y153670D01*
X809244Y151638D01*
X807212Y149606D01*
X805180Y151638D01*
X783336Y250190D02*
X785368Y252222D01*
X787400Y250190D01*
X785368Y248158D01*
X783336Y250190D01*
X326390Y153924D02*
X328422Y155956D01*
X330454Y153924D01*
X328422Y151892D01*
X326390Y153924D01*
X276098Y154178D02*
X278130Y156210D01*
X280162Y154178D01*
X278130Y152146D01*
X276098Y154178D01*
X379476Y399633D02*
X381508Y401665D01*
X383540Y399633D01*
X381508Y397602D01*
X379476Y399633D01*
X453644Y443738D02*
X455676Y445770D01*
X457708Y443738D01*
X455676Y441706D01*
X453644Y443738D01*
X403860D02*
X405892Y445770D01*
X407924Y443738D01*
X405892Y441706D01*
X403860Y443738D01*
X473733Y551737D02*
X475765Y553769D01*
X477797Y551737D01*
X475765Y549705D01*
X473733Y551737D01*
X472296Y525665D02*
X474328Y527697D01*
X476360Y525665D01*
X474328Y523633D01*
X472296Y525665D01*
X494493Y525508D02*
X496525Y527540D01*
X498557Y525508D01*
X496525Y523476D01*
X494493Y525508D01*
X495100Y532084D02*
X497132Y534116D01*
X499164Y532084D01*
X497132Y530052D01*
X495100Y532084D01*
X495488Y538677D02*
X497520Y540709D01*
X499552Y538677D01*
X497520Y536645D01*
X495488Y538677D01*
X495279Y545277D02*
X497311Y547309D01*
X499343Y545277D01*
X497311Y543246D01*
X495279Y545277D01*
X492483Y551260D02*
X494515Y553292D01*
X496547Y551260D01*
X494515Y549228D01*
X492483Y551260D01*
X742969Y611814D02*
X745001Y613846D01*
X747033Y611814D01*
X745001Y609782D01*
X742969Y611814D01*
X743155Y605213D02*
X745187Y607245D01*
X747219Y605213D01*
X745187Y603181D01*
X743155Y605213D01*
X745767Y599147D02*
X747799Y601180D01*
X749831Y599147D01*
X747799Y597116D01*
X745767Y599147D01*
Y592543D02*
X747799Y594576D01*
X749831Y592543D01*
X747799Y590512D01*
X745767Y592543D01*
Y585939D02*
X747799Y587971D01*
X749831Y585939D01*
X747799Y583908D01*
X745767Y585939D01*
Y579336D02*
X747799Y581367D01*
X749831Y579336D01*
X747799Y577304D01*
X745767Y579336D01*
X743701Y573063D02*
X745733Y575095D01*
X747765Y573063D01*
X745733Y571031D01*
X743701Y573063D01*
X739032Y568393D02*
X741064Y570425D01*
X743095Y568393D01*
X741064Y566361D01*
X739032Y568393D01*
X734362Y563724D02*
X736394Y565756D01*
X738426Y563724D01*
X736394Y561692D01*
X734362Y563724D01*
X729692Y559054D02*
X731724Y561086D01*
X733756Y559054D01*
X731724Y557022D01*
X729692Y559054D01*
X719004Y551665D02*
X721036Y553697D01*
X723068Y551665D01*
X721036Y549633D01*
X719004Y551665D01*
X712400D02*
X714432Y553697D01*
X716464Y551665D01*
X714432Y549633D01*
X712400Y551665D01*
X705796D02*
X707828Y553697D01*
X709860Y551665D01*
X707828Y549633D01*
X705796Y551665D01*
X699192D02*
X701224Y553697D01*
X703256Y551665D01*
X701224Y549633D01*
X699192Y551665D01*
X692588D02*
X694620Y553697D01*
X696652Y551665D01*
X694620Y549633D01*
X692588Y551665D01*
X685984D02*
X688016Y553697D01*
X690048Y551665D01*
X688016Y549633D01*
X685984Y551665D01*
X679380D02*
X681412Y553697D01*
X683444Y551665D01*
X681412Y549633D01*
X679380Y551665D01*
X672776D02*
X674808Y553697D01*
X676840Y551665D01*
X674808Y549633D01*
X672776Y551665D01*
X666173Y551557D02*
X668205Y553588D01*
X670237Y551557D01*
X668205Y549524D01*
X666173Y551557D01*
X660236Y548664D02*
X662268Y550696D01*
X664300Y548664D01*
X662268Y546632D01*
X660236Y548664D01*
X655566Y543994D02*
X657598Y546026D01*
X659631Y543994D01*
X657598Y541962D01*
X655566Y543994D01*
X650897Y539325D02*
X652929Y541357D01*
X654961Y539325D01*
X652929Y537293D01*
X650897Y539325D01*
X646227Y534655D02*
X648259Y536687D01*
X650291Y534655D01*
X648259Y532623D01*
X646227Y534655D01*
X641557Y529985D02*
X643589Y532017D01*
X645621Y529985D01*
X643589Y527953D01*
X641557Y529985D01*
X636888Y525316D02*
X638919Y527347D01*
X640952Y525316D01*
X638919Y523284D01*
X636888Y525316D01*
X632218Y520646D02*
X634250Y522678D01*
X636282Y520646D01*
X634250Y518614D01*
X632218Y520646D01*
X626772Y516910D02*
X628804Y518942D01*
X630836Y516910D01*
X628804Y514878D01*
X626772Y516910D01*
X620168D02*
X622200Y518942D01*
X624232Y516910D01*
X622200Y514878D01*
X620168Y516910D01*
X613564D02*
X615596Y518942D01*
X617628Y516910D01*
X615596Y514878D01*
X613564Y516910D01*
X606960D02*
X608992Y518942D01*
X611024Y516910D01*
X608992Y514878D01*
X606960Y516910D01*
X600356D02*
X602388Y518942D01*
X604420Y516910D01*
X602388Y514878D01*
X600356Y516910D01*
X593752D02*
X595784Y518942D01*
X597816Y516910D01*
X595784Y514878D01*
X593752Y516910D01*
X587148D02*
X589180Y518942D01*
X591212Y516910D01*
X589180Y514878D01*
X587148Y516910D01*
X580544D02*
X582576Y518942D01*
X584608Y516910D01*
X582576Y514878D01*
X580544Y516910D01*
X573940D02*
X575972Y518942D01*
X578004Y516910D01*
X575972Y514878D01*
X573940Y516910D01*
X567336D02*
X569368Y518942D01*
X571400Y516910D01*
X569368Y514878D01*
X567336Y516910D01*
X560732D02*
X562764Y518942D01*
X564796Y516910D01*
X562764Y514878D01*
X560732Y516910D01*
X554128D02*
X556160Y518942D01*
X558192Y516910D01*
X556160Y514878D01*
X554128Y516910D01*
X547524D02*
X549556Y518942D01*
X551588Y516910D01*
X549556Y514878D01*
X547524Y516910D01*
X540920D02*
X542952Y518942D01*
X544984Y516910D01*
X542952Y514878D01*
X540920Y516910D01*
X534316D02*
X536348Y518942D01*
X538380Y516910D01*
X536348Y514878D01*
X534316Y516910D01*
X527712D02*
X529744Y518942D01*
X531776Y516910D01*
X529744Y514878D01*
X527712Y516910D01*
X521108D02*
X523140Y518942D01*
X525172Y516910D01*
X523140Y514878D01*
X521108Y516910D01*
X514504D02*
X516536Y518942D01*
X518568Y516910D01*
X516536Y514878D01*
X514504Y516910D01*
X507900D02*
X509932Y518942D01*
X511964Y516910D01*
X509932Y514878D01*
X507900Y516910D01*
X501296D02*
X503328Y518942D01*
X505360Y516910D01*
X503328Y514878D01*
X501296Y516910D01*
X494692D02*
X496724Y518942D01*
X498756Y516910D01*
X496724Y514878D01*
X494692Y516910D01*
X475055Y516387D02*
X477086Y518419D01*
X479118Y516387D01*
X477086Y514355D01*
X475055Y516387D01*
X471942Y510562D02*
X473974Y512594D01*
X476006Y510562D01*
X473974Y508530D01*
X471942Y510562D01*
X472015Y503958D02*
X474047Y505990D01*
X476079Y503958D01*
X474047Y501926D01*
X472015Y503958D01*
X472755Y471531D02*
X474787Y473563D01*
X476819Y471531D01*
X474787Y469499D01*
X472755Y471531D01*
X491505Y472256D02*
X493537Y474288D01*
X495569Y472256D01*
X493537Y470224D01*
X491505Y472256D01*
X494044Y484957D02*
X496076Y486989D01*
X498108Y484957D01*
X496076Y482925D01*
X494044Y484957D01*
X494218Y491558D02*
X496250Y493590D01*
X498282Y491558D01*
X496250Y489526D01*
X494218Y491558D01*
X494083Y498161D02*
X496115Y500193D01*
X498147Y498161D01*
X496115Y496129D01*
X494083Y498161D01*
X500687D02*
X502719Y500193D01*
X504751Y498161D01*
X502719Y496129D01*
X500687Y498161D01*
X507291D02*
X509323Y500193D01*
X511355Y498161D01*
X509323Y496129D01*
X507291Y498161D01*
X513895D02*
X515927Y500193D01*
X517959Y498161D01*
X515927Y496129D01*
X513895Y498161D01*
X520499D02*
X522531Y500193D01*
X524563Y498161D01*
X522531Y496129D01*
X520499Y498161D01*
X527103D02*
X529135Y500193D01*
X531167Y498161D01*
X529135Y496129D01*
X527103Y498161D01*
X533707D02*
X535739Y500193D01*
X537771Y498161D01*
X535739Y496129D01*
X533707Y498161D01*
X540311D02*
X542343Y500193D01*
X544375Y498161D01*
X542343Y496129D01*
X540311Y498161D01*
X546915D02*
X548947Y500193D01*
X550979Y498161D01*
X548947Y496129D01*
X546915Y498161D01*
X553519D02*
X555551Y500193D01*
X557583Y498161D01*
X555551Y496129D01*
X553519Y498161D01*
X560123D02*
X562155Y500193D01*
X564187Y498161D01*
X562155Y496129D01*
X560123Y498161D01*
X566727D02*
X568759Y500193D01*
X570791Y498161D01*
X568759Y496129D01*
X566727Y498161D01*
X573331D02*
X575363Y500193D01*
X577395Y498161D01*
X575363Y496129D01*
X573331Y498161D01*
X579935D02*
X581967Y500193D01*
X583999Y498161D01*
X581967Y496129D01*
X579935Y498161D01*
X586539D02*
X588571Y500193D01*
X590603Y498161D01*
X588571Y496129D01*
X586539Y498161D01*
X593143D02*
X595175Y500193D01*
X597207Y498161D01*
X595175Y496129D01*
X593143Y498161D01*
X599747D02*
X601779Y500193D01*
X603811Y498161D01*
X601779Y496129D01*
X599747Y498161D01*
X606351D02*
X608383Y500193D01*
X610415Y498161D01*
X608383Y496129D01*
X606351Y498161D01*
X612955D02*
X614987Y500193D01*
X617019Y498161D01*
X614987Y496129D01*
X612955Y498161D01*
X619559D02*
X621591Y500193D01*
X623623Y498161D01*
X621591Y496129D01*
X619559Y498161D01*
X626163D02*
X628195Y500193D01*
X630227Y498161D01*
X628195Y496129D01*
X626163Y498161D01*
X632767Y498181D02*
X634799Y500213D01*
X636831Y498181D01*
X634799Y496149D01*
X632767Y498181D01*
X638835Y500785D02*
X640867Y502817D01*
X642899Y500785D01*
X640867Y498753D01*
X638835Y500785D01*
X643524Y505436D02*
X645556Y507468D01*
X647588Y505436D01*
X645556Y503404D01*
X643524Y505436D01*
X648193Y510106D02*
X650225Y512138D01*
X652257Y510106D01*
X650225Y508074D01*
X648193Y510106D01*
X652863Y514776D02*
X654895Y516808D01*
X656927Y514776D01*
X654895Y512744D01*
X652863Y514776D01*
X657533Y519445D02*
X659565Y521477D01*
X661597Y519445D01*
X659565Y517413D01*
X657533Y519445D01*
X662203Y524115D02*
X664235Y526147D01*
X666267Y524115D01*
X664235Y522083D01*
X662203Y524115D01*
X666872Y528785D02*
X668904Y530817D01*
X670936Y528785D01*
X668904Y526753D01*
X666872Y528785D01*
X672025Y532915D02*
X674057Y534947D01*
X676089Y532915D01*
X674057Y530883D01*
X672025Y532915D01*
X678629D02*
X680661Y534947D01*
X682693Y532915D01*
X680661Y530883D01*
X678629Y532915D01*
X685233D02*
X687265Y534947D01*
X689297Y532915D01*
X687265Y530883D01*
X685233Y532915D01*
X691837D02*
X693869Y534947D01*
X695901Y532915D01*
X693869Y530883D01*
X691837Y532915D01*
X698441D02*
X700473Y534947D01*
X702505Y532915D01*
X700473Y530883D01*
X698441Y532915D01*
X705045D02*
X707077Y534947D01*
X709109Y532915D01*
X707077Y530883D01*
X705045Y532915D01*
X711649D02*
X713681Y534947D01*
X715713Y532915D01*
X713681Y530883D01*
X711649Y532915D01*
X718253D02*
X720285Y534947D01*
X722317Y532915D01*
X720285Y530883D01*
X718253Y532915D01*
X724857D02*
X726889Y534947D01*
X728921Y532915D01*
X726889Y530883D01*
X724857Y532915D01*
X731276Y534467D02*
X733308Y536499D01*
X735340Y534467D01*
X733308Y532435D01*
X731276Y534467D01*
X736115Y538961D02*
X738147Y540993D01*
X740179Y538961D01*
X738147Y536930D01*
X736115Y538961D01*
X740785Y543631D02*
X742817Y545663D01*
X744849Y543631D01*
X742817Y541599D01*
X740785Y543631D01*
X745455Y548301D02*
X747487Y550333D01*
X749519Y548301D01*
X747487Y546269D01*
X745455Y548301D01*
X750124Y552971D02*
X752156Y555003D01*
X754188Y552971D01*
X752156Y550939D01*
X750124Y552971D01*
X754794Y557640D02*
X756826Y559672D01*
X758858Y557640D01*
X756826Y555608D01*
X754794Y557640D01*
X759464Y562310D02*
X761496Y564342D01*
X763528Y562310D01*
X761496Y560278D01*
X759464Y562310D01*
X763668Y567403D02*
X765700Y569435D01*
X767732Y567403D01*
X765700Y565371D01*
X763668Y567403D01*
X764517Y573952D02*
X766549Y575984D01*
X768581Y573952D01*
X766549Y571920D01*
X764517Y573952D01*
Y580556D02*
X766549Y582588D01*
X768581Y580556D01*
X766549Y578524D01*
X764517Y580556D01*
Y587160D02*
X766549Y589192D01*
X768581Y587160D01*
X766549Y585128D01*
X764517Y587160D01*
Y593764D02*
X766549Y595796D01*
X768581Y593764D01*
X766549Y591732D01*
X764517Y593764D01*
Y600368D02*
X766549Y602400D01*
X768581Y600368D01*
X766549Y598336D01*
X764517Y600368D01*
X767281Y606366D02*
X769313Y608398D01*
X771345Y606366D01*
X769313Y604334D01*
X767281Y606366D01*
X772668Y493014D02*
X774700Y495046D01*
X776732Y493014D01*
X774700Y490982D01*
X772668Y493014D01*
X888746Y427990D02*
X890778Y430022D01*
X892810Y427990D01*
X890778Y425958D01*
X888746Y427990D01*
X889000Y446278D02*
X891032Y448310D01*
X893064Y446278D01*
X891032Y444246D01*
X889000Y446278D01*
X848868Y509016D02*
X850900Y511048D01*
X852932Y509016D01*
X850900Y506984D01*
X848868Y509016D01*
X833374Y458216D02*
X835406Y460248D01*
X837438Y458216D01*
X835406Y456184D01*
X833374Y458216D01*
X520954Y445516D02*
X522986Y447548D01*
X525018Y445516D01*
X522986Y443484D01*
X520954Y445516D01*
X521558Y432431D02*
X523590Y434463D01*
X525622Y432431D01*
X523590Y430399D01*
X521558Y432431D01*
X560070Y60960D02*
X562102Y62992D01*
X564134Y60960D01*
X562102Y58928D01*
X560070Y60960D01*
X919480Y315214D02*
X921512Y317246D01*
X923544Y315214D01*
X921512Y313182D01*
X919480Y315214D01*
X903986Y315468D02*
X906018Y317500D01*
X908050Y315468D01*
X906018Y313436D01*
X903986Y315468D01*
X918210Y255778D02*
X920242Y257810D01*
X922274Y255778D01*
X920242Y253746D01*
X918210Y255778D01*
X444754Y185166D02*
X446786Y187198D01*
X448818Y185166D01*
X446786Y183134D01*
X444754Y185166D01*
X911860Y354330D02*
X913892Y356362D01*
X915924Y354330D01*
X913892Y352298D01*
X911860Y354330D01*
X833882Y359664D02*
X835914Y361696D01*
X837946Y359664D01*
X835914Y357632D01*
X833882Y359664D01*
X796290Y411654D02*
X798322Y413686D01*
X800354Y411654D01*
X798322Y409622D01*
X796290Y411654D01*
X766064Y385826D02*
X768096Y387858D01*
X770128Y385826D01*
X768096Y383794D01*
X766064Y385826D01*
X379476Y439928D02*
X381508Y441960D01*
X383540Y439928D01*
X381508Y437896D01*
X379476Y439928D01*
Y448818D02*
X381508Y450850D01*
X383540Y448818D01*
X381508Y446786D01*
X379476Y448818D01*
X917956Y488442D02*
X919988Y490474D01*
X922020Y488442D01*
X919988Y486410D01*
X917956Y488442D01*
X764286Y515112D02*
X766318Y517144D01*
X768350Y515112D01*
X766318Y513080D01*
X764286Y515112D01*
X744982Y486410D02*
X747014Y488442D01*
X749046Y486410D01*
X747014Y484378D01*
X744982Y486410D01*
X710692Y484886D02*
X712724Y486918D01*
X714756Y484886D01*
X712724Y482854D01*
X710692Y484886D01*
X733552Y386080D02*
X735584Y388112D01*
X737616Y386080D01*
X735584Y384048D01*
X733552Y386080D01*
X821436Y523748D02*
X823468Y525780D01*
X825500Y523748D01*
X823468Y521716D01*
X821436Y523748D01*
X350096Y321322D02*
X352128Y323354D01*
X354160Y321322D01*
X352128Y319290D01*
X350096Y321322D01*
X725424Y253746D02*
Y257810D01*
X729488D01*
Y253746D01*
X725424D01*
X726440Y254762D02*
Y256794D01*
X728472D01*
Y254762D01*
X726440D01*
X744728Y429514D02*
X746760Y431546D01*
X748792Y429514D01*
X746760Y427482D01*
X744728Y429514D01*
X781304Y432054D02*
X783336Y434086D01*
X785368Y432054D01*
X783336Y430022D01*
X781304Y432054D01*
Y445516D02*
X783336Y447548D01*
X785368Y445516D01*
X783336Y443484D01*
X781304Y445516D01*
X816356Y487426D02*
X818388Y489458D01*
X820420Y487426D01*
X818388Y485394D01*
X816356Y487426D01*
X341630Y495808D02*
X343662Y497840D01*
X345694Y495808D01*
X343662Y493776D01*
X341630Y495808D01*
X404114Y479044D02*
X406146Y481076D01*
X408178Y479044D01*
X406146Y477012D01*
X404114Y479044D01*
X374396Y524002D02*
X376428Y526034D01*
X378460Y524002D01*
X376428Y521970D01*
X374396Y524002D01*
X354076D02*
X356108Y526034D01*
X358140Y524002D01*
X356108Y521970D01*
X354076Y524002D01*
X941070Y394716D02*
X943102Y396748D01*
X945134Y394716D01*
X943102Y392684D01*
X941070Y394716D01*
X394462Y524002D02*
X396494Y526034D01*
X398526Y524002D01*
X396494Y521970D01*
X394462Y524002D01*
X424434Y479044D02*
X426466Y481076D01*
X428498Y479044D01*
X426466Y477012D01*
X424434Y479044D01*
X414020D02*
X416052Y481076D01*
X418084Y479044D01*
X416052Y477012D01*
X414020Y479044D01*
X829818Y412496D02*
X831850Y414528D01*
X833882Y412496D01*
X831850Y410464D01*
X829818Y412496D01*
X269494Y517906D02*
X271526Y519938D01*
X273558Y517906D01*
X271526Y515874D01*
X269494Y517906D01*
X379476Y415544D02*
X381508Y417576D01*
X383540Y415544D01*
X381508Y413512D01*
X379476Y415544D01*
X914908Y455168D02*
X916940Y457200D01*
X918972Y455168D01*
X916940Y453136D01*
X914908Y455168D01*
X821182Y510286D02*
X823214Y512318D01*
X825246Y510286D01*
X823214Y508254D01*
X821182Y510286D01*
X202438Y506984D02*
X204470Y509016D01*
X206502Y506984D01*
X204470Y504952D01*
X202438Y506984D01*
X621538Y75184D02*
X623570Y77216D01*
X625602Y75184D01*
X623570Y73152D01*
X621538Y75184D01*
D155*
X62120Y301886D02*
G03*
X62120Y301886I-2032J0D01*
G01*
Y350386D02*
G03*
X62120Y350386I-2032J0D01*
G01*
M02*
