%TF.GenerationSoftware,Altium Limited,Altium Designer,19.1.9 (167)*%
G04 Layer_Physical_Order=1*
G04 Layer_Color=255*
%FSLAX26Y26*%
%MOIN*%
%TF.FileFunction,Copper,L1,Top,Signal*%
%TF.Part,Single*%
G01*
G75*
%TA.AperFunction,SMDPad,CuDef*%
%ADD10R,0.041339X0.041339*%
%ADD11R,0.041339X0.041339*%
%ADD12R,0.025591X0.041339*%
%ADD13R,0.047244X0.023622*%
%ADD14R,0.041339X0.015748*%
%ADD15R,0.015748X0.041339*%
%ADD16R,0.023622X0.070866*%
%ADD17R,0.041340X0.086610*%
%ADD18R,0.039370X0.041340*%
%ADD19R,0.086614X0.047244*%
%ADD20R,0.018701X0.014764*%
G04:AMPARAMS|DCode=21|XSize=59.055mil|YSize=59.055mil|CornerRadius=2.953mil|HoleSize=0mil|Usage=FLASHONLY|Rotation=180.000|XOffset=0mil|YOffset=0mil|HoleType=Round|Shape=RoundedRectangle|*
%AMROUNDEDRECTD21*
21,1,0.059055,0.053150,0,0,180.0*
21,1,0.053150,0.059055,0,0,180.0*
1,1,0.005906,-0.026575,0.026575*
1,1,0.005906,0.026575,0.026575*
1,1,0.005906,0.026575,-0.026575*
1,1,0.005906,-0.026575,-0.026575*
%
%ADD21ROUNDEDRECTD21*%
G04:AMPARAMS|DCode=22|XSize=19.685mil|YSize=31.496mil|CornerRadius=3.937mil|HoleSize=0mil|Usage=FLASHONLY|Rotation=270.000|XOffset=0mil|YOffset=0mil|HoleType=Round|Shape=RoundedRectangle|*
%AMROUNDEDRECTD22*
21,1,0.019685,0.023622,0,0,270.0*
21,1,0.011811,0.031496,0,0,270.0*
1,1,0.007874,-0.011811,-0.005906*
1,1,0.007874,-0.011811,0.005906*
1,1,0.007874,0.011811,0.005906*
1,1,0.007874,0.011811,-0.005906*
%
%ADD22ROUNDEDRECTD22*%
G04:AMPARAMS|DCode=23|XSize=19.685mil|YSize=31.496mil|CornerRadius=3.937mil|HoleSize=0mil|Usage=FLASHONLY|Rotation=180.000|XOffset=0mil|YOffset=0mil|HoleType=Round|Shape=RoundedRectangle|*
%AMROUNDEDRECTD23*
21,1,0.019685,0.023622,0,0,180.0*
21,1,0.011811,0.031496,0,0,180.0*
1,1,0.007874,-0.005906,0.011811*
1,1,0.007874,0.005906,0.011811*
1,1,0.007874,0.005906,-0.011811*
1,1,0.007874,-0.005906,-0.011811*
%
%ADD23ROUNDEDRECTD23*%
%ADD24R,0.035433X0.025591*%
%ADD25R,0.035433X0.039370*%
%ADD26R,0.027559X0.019685*%
%ADD27R,0.023622X0.033465*%
%ADD28R,0.033465X0.023622*%
G04:AMPARAMS|DCode=29|XSize=23.622mil|YSize=57.087mil|CornerRadius=2.008mil|HoleSize=0mil|Usage=FLASHONLY|Rotation=180.000|XOffset=0mil|YOffset=0mil|HoleType=Round|Shape=RoundedRectangle|*
%AMROUNDEDRECTD29*
21,1,0.023622,0.053071,0,0,180.0*
21,1,0.019606,0.057087,0,0,180.0*
1,1,0.004016,-0.009803,0.026535*
1,1,0.004016,0.009803,0.026535*
1,1,0.004016,0.009803,-0.026535*
1,1,0.004016,-0.009803,-0.026535*
%
%ADD29ROUNDEDRECTD29*%
%ADD30R,0.059055X0.027559*%
%ADD31R,0.059055X0.039370*%
%ADD32R,0.027559X0.059055*%
%ADD33R,0.031496X0.029748*%
%ADD34R,0.040000X0.035000*%
%ADD35R,0.037000X0.038000*%
%ADD36R,0.029748X0.031496*%
%ADD37R,0.038000X0.037000*%
%ADD38R,0.023622X0.045276*%
%ADD39R,0.028346X0.027165*%
%ADD40R,0.011024X0.016142*%
%ADD41R,0.016142X0.011024*%
%TA.AperFunction,Conductor*%
%ADD42C,0.010280*%
%ADD43C,0.010000*%
%ADD44C,0.017000*%
%ADD45C,0.015000*%
%ADD46C,0.017340*%
%TA.AperFunction,NonConductor*%
%ADD47C,0.019685*%
%TA.AperFunction,ComponentPad*%
%ADD48C,0.250000*%
%ADD49O,0.100000X0.200000*%
%ADD50R,0.080000X0.080000*%
%ADD51O,0.066929X0.047244*%
%ADD52O,0.055118X0.039370*%
%ADD53C,0.059055*%
%ADD54R,0.059055X0.059055*%
%TA.AperFunction,ViaPad*%
%ADD55C,0.120000*%
%ADD56C,0.018000*%
%ADD57C,0.016000*%
%ADD58C,0.032000*%
G36*
X3217025Y2541579D02*
X3235030Y2536755D01*
X3252249Y2529622D01*
X3268391Y2520303D01*
X3283178Y2508956D01*
X3296358Y2495776D01*
X3307704Y2480989D01*
X3317024Y2464848D01*
X3324157Y2447627D01*
X3328981Y2429624D01*
X3331414Y2411144D01*
X3331413Y2401825D01*
Y2342770D01*
X3331451Y2342582D01*
X3331418Y2342394D01*
X3331750Y2328872D01*
X3331875Y2328316D01*
X3331819Y2327748D01*
X3334470Y2300833D01*
X3334690Y2300107D01*
Y2299349D01*
X3339966Y2272823D01*
X3340257Y2272122D01*
X3340331Y2271367D01*
X3348182Y2245487D01*
X3348539Y2244818D01*
X3348688Y2244073D01*
X3359037Y2219087D01*
X3359459Y2218456D01*
X3359679Y2217730D01*
X3372428Y2193879D01*
X3372909Y2193292D01*
X3373199Y2192591D01*
X3388225Y2170104D01*
X3388761Y2169568D01*
X3389119Y2168898D01*
X3406276Y2147992D01*
X3406863Y2147511D01*
X3407284Y2146880D01*
X3426408Y2127756D01*
X3427039Y2127335D01*
X3427520Y2126749D01*
X3448426Y2109591D01*
X3449095Y2109234D01*
X3449632Y2108697D01*
X3472119Y2093672D01*
X3472820Y2093381D01*
X3473406Y2092900D01*
X3497258Y2080151D01*
X3497984Y2079931D01*
X3498615Y2079510D01*
X3523601Y2069160D01*
X3524345Y2069012D01*
X3525014Y2068654D01*
X3550895Y2060803D01*
X3551650Y2060729D01*
X3552351Y2060439D01*
X3578876Y2055162D01*
X3579635D01*
X3580361Y2054942D01*
X3607276Y2052291D01*
X3607843Y2052347D01*
X3608399Y2052222D01*
X3621922Y2051890D01*
X3622110Y2051923D01*
X3622297Y2051886D01*
X3710356D01*
X3728837Y2049453D01*
X3746840Y2044629D01*
X3764060Y2037496D01*
X3780202Y2028177D01*
X3794989Y2016830D01*
X3808169Y2003650D01*
X3819515Y1988863D01*
X3828835Y1972721D01*
X3835967Y1955502D01*
X3840792Y1937498D01*
X3843224Y1919018D01*
Y1909699D01*
Y649856D01*
Y640537D01*
X3840792Y622058D01*
X3835967Y604053D01*
X3828835Y586834D01*
X3819515Y570692D01*
X3808169Y555905D01*
X3794989Y542725D01*
X3780202Y531378D01*
X3764060Y522059D01*
X3746840Y514926D01*
X3728837Y510102D01*
X3710357Y507669D01*
X3701038Y507669D01*
X3622297D01*
X3622110Y507632D01*
X3621922Y507665D01*
X3608399Y507333D01*
X3607843Y507208D01*
X3607276Y507264D01*
X3580361Y504613D01*
X3579635Y504393D01*
X3578876D01*
X3552351Y499116D01*
X3551650Y498826D01*
X3550895Y498752D01*
X3525014Y490901D01*
X3524345Y490543D01*
X3523601Y490395D01*
X3498615Y480046D01*
X3497984Y479624D01*
X3497258Y479404D01*
X3473406Y466655D01*
X3472820Y466174D01*
X3472119Y465883D01*
X3449632Y450858D01*
X3449095Y450321D01*
X3448426Y449964D01*
X3427520Y432806D01*
X3427039Y432220D01*
X3426408Y431798D01*
X3407284Y412675D01*
X3406863Y412044D01*
X3406276Y411563D01*
X3389119Y390656D01*
X3388761Y389988D01*
X3388225Y389451D01*
X3373199Y366964D01*
X3372909Y366263D01*
X3372428Y365676D01*
X3359679Y341825D01*
X3359459Y341099D01*
X3359037Y340468D01*
X3348688Y315481D01*
X3348539Y314737D01*
X3348182Y314068D01*
X3340331Y288188D01*
X3340257Y287433D01*
X3339966Y286732D01*
X3334690Y260207D01*
Y259448D01*
X3334470Y258722D01*
X3331819Y231807D01*
X3331875Y231239D01*
X3331750Y230683D01*
X3331418Y217161D01*
X3331451Y216972D01*
X3331413Y216785D01*
Y148411D01*
X3328980Y129931D01*
X3324157Y111928D01*
X3317023Y94707D01*
X3307704Y78566D01*
X3296357Y63779D01*
X3283178Y50599D01*
X3268391Y39252D01*
X3252249Y29933D01*
X3235029Y22800D01*
X3217025Y17976D01*
X3198546Y15543D01*
X2054157D01*
Y54559D01*
X2083000D01*
Y84244D01*
X2088000D01*
Y89244D01*
X2127528D01*
Y105740D01*
Y124520D01*
X2088000D01*
Y134520D01*
X2127528D01*
Y137662D01*
X2136766Y141489D01*
X2147628Y130627D01*
X2151928Y127754D01*
X2157000Y126745D01*
X2167756D01*
Y111331D01*
X2278244D01*
Y124972D01*
X2288244Y126011D01*
X2293628Y120627D01*
X2297928Y117754D01*
X2303000Y116745D01*
X2321535D01*
Y102929D01*
X2345126D01*
Y100929D01*
X2358000D01*
Y131598D01*
X2368000D01*
Y100929D01*
X2380874D01*
Y102929D01*
X2404465D01*
Y118344D01*
X2505331D01*
Y56756D01*
X2562669D01*
Y68863D01*
X2572827D01*
Y60535D01*
X2617173D01*
Y79985D01*
X2619631Y81627D01*
X2648002Y109998D01*
X2650875Y114298D01*
X2651884Y119371D01*
Y129139D01*
X2678530Y155785D01*
X2699260D01*
Y114000D01*
X2729930D01*
X2760600D01*
Y140370D01*
X2815400D01*
Y114000D01*
X2841070D01*
Y162305D01*
X2815685D01*
Y197710D01*
X2763244D01*
Y217000D01*
X2732575D01*
Y222000D01*
X2727575D01*
Y252669D01*
X2701905D01*
Y250669D01*
X2650756D01*
Y232255D01*
X2611402D01*
Y243732D01*
X2592031D01*
X2588204Y252971D01*
X2875884Y540651D01*
X2916331D01*
Y521425D01*
X2977669D01*
Y547095D01*
X2975669D01*
Y598244D01*
X2964042D01*
Y637787D01*
X2982409D01*
Y677409D01*
X2919165D01*
Y637787D01*
X2937533D01*
Y598244D01*
X2918331D01*
Y567160D01*
X2870394D01*
X2865321Y566151D01*
X2861021Y563278D01*
X2541476Y243732D01*
X2520599D01*
Y213013D01*
X2493573Y185987D01*
X2404465D01*
Y208816D01*
X2431142D01*
X2436215Y209825D01*
X2440515Y212698D01*
X2446372Y218556D01*
X2449246Y222856D01*
X2450255Y227929D01*
Y254598D01*
X2462732D01*
Y264478D01*
X2469732D01*
X2474805Y265487D01*
X2479105Y268360D01*
X2493035Y282290D01*
X2496243Y282928D01*
X2501535Y286465D01*
X2505072Y291757D01*
X2506314Y298000D01*
X2505072Y304243D01*
X2501535Y309535D01*
X2496243Y313072D01*
X2490000Y314313D01*
X2483757Y313072D01*
X2478465Y309535D01*
X2477899Y308690D01*
X2474732Y307731D01*
X2464732Y315152D01*
Y320591D01*
X2438000D01*
X2411268D01*
Y303779D01*
X2412203D01*
X2413268Y294220D01*
X2413268Y293779D01*
Y254598D01*
X2423745D01*
Y235326D01*
X2402877D01*
X2402151Y236143D01*
X2398447Y245326D01*
X2400072Y247757D01*
X2401314Y254000D01*
X2400072Y260243D01*
X2396535Y265535D01*
X2391243Y269072D01*
X2385000Y270313D01*
X2378757Y269072D01*
X2378669Y269013D01*
X2368669Y274358D01*
Y293906D01*
X2370669D01*
Y319575D01*
X2309331D01*
Y306882D01*
X2299331Y303849D01*
X2297535Y306535D01*
X2292243Y310072D01*
X2286000Y311313D01*
X2279757Y310072D01*
X2274465Y306535D01*
X2270928Y301243D01*
X2269686Y295000D01*
X2270928Y288757D01*
X2274465Y283465D01*
X2279757Y279928D01*
X2284992Y278887D01*
X2289109Y274769D01*
X2293409Y271896D01*
X2298482Y270887D01*
X2311331D01*
Y242756D01*
X2315946D01*
X2321535Y235071D01*
Y177732D01*
X2327860D01*
X2327937Y177623D01*
X2328038Y177118D01*
X2330911Y172818D01*
X2332359Y171370D01*
X2333342Y169980D01*
X2329319Y160268D01*
X2321535D01*
Y143255D01*
X2308490D01*
X2302372Y149373D01*
X2298072Y152246D01*
X2293000Y153255D01*
X2278244D01*
Y168669D01*
X2278244D01*
Y171331D01*
X2278244D01*
Y228669D01*
X2270363D01*
X2268265Y230708D01*
X2263651Y238669D01*
X2264314Y242000D01*
X2263072Y248243D01*
X2259535Y253535D01*
X2254243Y257072D01*
X2248000Y258313D01*
X2241757Y257072D01*
X2236465Y253535D01*
X2232928Y248243D01*
X2231686Y242000D01*
X2232349Y238669D01*
X2227735Y230708D01*
X2225637Y228669D01*
X2167756D01*
Y221515D01*
X2136560D01*
X2127528Y223851D01*
Y242630D01*
X2048472D01*
Y223850D01*
X2050472D01*
Y194463D01*
X2046000Y185157D01*
X1788000D01*
X1781155Y193006D01*
X1781071Y193198D01*
Y203260D01*
X1702016D01*
Y184480D01*
Y173890D01*
X1741543D01*
Y163890D01*
X1702016D01*
Y145110D01*
Y134520D01*
X1741543D01*
Y124520D01*
X1702016D01*
Y105740D01*
Y89244D01*
X1741543D01*
Y84244D01*
X1746543D01*
Y54559D01*
X1779843D01*
Y15543D01*
X1506838D01*
X629708Y21201D01*
X623739Y22800D01*
X606519Y29933D01*
X590377Y39252D01*
X575590Y50599D01*
X562410Y63779D01*
X551064Y78566D01*
X541744Y94707D01*
X534611Y111927D01*
X529788Y129931D01*
X527355Y148411D01*
X527355Y157730D01*
Y216786D01*
X527317Y216973D01*
X527350Y217161D01*
X527018Y230683D01*
X526893Y231240D01*
X526949Y231807D01*
X524298Y258722D01*
X524078Y259448D01*
Y260207D01*
X518802Y286732D01*
X518511Y287433D01*
X518437Y288188D01*
X510586Y314068D01*
X510228Y314738D01*
X510080Y315482D01*
X499731Y340468D01*
X499309Y341099D01*
X499089Y341825D01*
X486340Y365676D01*
X485859Y366263D01*
X485568Y366964D01*
X470543Y389451D01*
X470007Y389987D01*
X469649Y390657D01*
X452492Y411563D01*
X451905Y412044D01*
X451484Y412675D01*
X432360Y431799D01*
X431729Y432220D01*
X431248Y432806D01*
X410342Y449964D01*
X409673Y450321D01*
X409136Y450858D01*
X386649Y465883D01*
X385948Y466174D01*
X385362Y466655D01*
X361510Y479404D01*
X360784Y479624D01*
X360153Y480046D01*
X335167Y490395D01*
X334423Y490543D01*
X333754Y490901D01*
X307873Y498752D01*
X307118Y498826D01*
X306417Y499116D01*
X279892Y504393D01*
X279133D01*
X278407Y504613D01*
X251492Y507264D01*
X250925Y507208D01*
X250368Y507333D01*
X236846Y507665D01*
X236658Y507632D01*
X236470Y507669D01*
X157731Y507669D01*
X148411Y507669D01*
X129931Y510102D01*
X111928Y514926D01*
X94707Y522059D01*
X78566Y531378D01*
X63779Y542725D01*
X50599Y555905D01*
X39253Y570692D01*
X29933Y586834D01*
X22800Y604053D01*
X17976Y622057D01*
X15543Y640537D01*
X15543Y649856D01*
Y1909699D01*
X15543Y1919018D01*
X17976Y1937498D01*
X22800Y1955502D01*
X29933Y1972721D01*
X39252Y1988863D01*
X50599Y2003650D01*
X63779Y2016830D01*
X78566Y2028177D01*
X94707Y2037496D01*
X111927Y2044629D01*
X129931Y2049453D01*
X148411Y2051886D01*
X157730Y2051886D01*
X236470Y2051886D01*
X236658Y2051923D01*
X236846Y2051890D01*
X250368Y2052222D01*
X250925Y2052347D01*
X251492Y2052291D01*
X278407Y2054942D01*
X279133Y2055162D01*
X279892D01*
X306417Y2060439D01*
X307118Y2060729D01*
X307873Y2060803D01*
X333754Y2068654D01*
X334423Y2069012D01*
X335167Y2069160D01*
X360153Y2079510D01*
X360784Y2079931D01*
X361510Y2080151D01*
X385362Y2092900D01*
X385948Y2093381D01*
X386649Y2093672D01*
X409136Y2108697D01*
X409673Y2109234D01*
X410342Y2109591D01*
X431248Y2126749D01*
X431729Y2127335D01*
X432360Y2127757D01*
X451484Y2146880D01*
X451905Y2147511D01*
X452492Y2147992D01*
X469649Y2168899D01*
X470007Y2169568D01*
X470543Y2170104D01*
X485568Y2192591D01*
X485859Y2193292D01*
X486340Y2193879D01*
X499089Y2217730D01*
X499309Y2218456D01*
X499731Y2219087D01*
X510080Y2244073D01*
X510228Y2244818D01*
X510586Y2245487D01*
X518437Y2271367D01*
X518511Y2272122D01*
X518802Y2272823D01*
X524078Y2299349D01*
Y2300107D01*
X524298Y2300833D01*
X526949Y2327748D01*
X526893Y2328316D01*
X527018Y2328872D01*
X527350Y2342394D01*
X527317Y2342582D01*
X527355Y2342770D01*
X527355Y2401825D01*
X527355Y2411144D01*
X529788Y2429624D01*
X534611Y2447627D01*
X541744Y2464848D01*
X551064Y2480989D01*
X562410Y2495776D01*
X575590Y2508956D01*
X590377Y2520302D01*
X606519Y2529622D01*
X623739Y2536755D01*
X641742Y2541579D01*
X660222Y2544012D01*
X669542D01*
X866843D01*
X866843Y2192000D01*
X867464Y2188879D01*
X869232Y2186232D01*
X871879Y2184464D01*
X875000Y2183843D01*
X1893177Y2183843D01*
Y2158010D01*
X1883177Y2150135D01*
X1881500Y2150500D01*
X1875328Y2150500D01*
X1857500D01*
Y2122000D01*
Y2093500D01*
X1875328D01*
X1881500Y2093500D01*
X1884427Y2094138D01*
X1894427Y2086859D01*
Y2069164D01*
X1886268D01*
Y2029542D01*
X1935732D01*
Y2069164D01*
X1928073D01*
Y2095500D01*
X1938500D01*
Y2148500D01*
X1926823D01*
Y2183843D01*
X2863000Y2183843D01*
X2866121Y2184464D01*
X2868768Y2186233D01*
X2870536Y2188879D01*
X2871157Y2192000D01*
X2871157Y2544012D01*
X3189227D01*
X3198546D01*
X3217025Y2541579D01*
D02*
G37*
%LPC*%
G36*
X3069740Y2522305D02*
X3044070D01*
Y2474000D01*
X3069740D01*
Y2522305D01*
D02*
G37*
G36*
X2953600D02*
X2927930D01*
Y2474000D01*
X2953600D01*
Y2522305D01*
D02*
G37*
G36*
X3034070D02*
X3008400D01*
Y2474000D01*
X3034070D01*
Y2522305D01*
D02*
G37*
G36*
X2917930D02*
X2892260D01*
Y2474000D01*
X2917930D01*
Y2522305D01*
D02*
G37*
G36*
X3069740Y2464000D02*
X3044070D01*
Y2415695D01*
X3069740D01*
Y2464000D01*
D02*
G37*
G36*
X2917930D02*
X2892260D01*
Y2415695D01*
X2917930D01*
Y2464000D01*
D02*
G37*
G36*
X3186000Y2487329D02*
X3172670Y2486016D01*
X3159852Y2482128D01*
X3148038Y2475814D01*
X3137684Y2467316D01*
X3129186Y2456962D01*
X3122872Y2445148D01*
X3118984Y2432330D01*
X3117671Y2419000D01*
X3118984Y2405670D01*
X3122872Y2392852D01*
X3129186Y2381038D01*
X3137684Y2370684D01*
X3148038Y2362186D01*
X3159852Y2355872D01*
X3172670Y2351984D01*
X3186000Y2350671D01*
X3199330Y2351984D01*
X3212148Y2355872D01*
X3223962Y2362186D01*
X3234316Y2370684D01*
X3242814Y2381038D01*
X3249128Y2392852D01*
X3253016Y2405670D01*
X3254329Y2419000D01*
X3253016Y2432330D01*
X3249128Y2445148D01*
X3242814Y2456962D01*
X3234316Y2467316D01*
X3223962Y2475814D01*
X3212148Y2482128D01*
X3199330Y2486016D01*
X3186000Y2487329D01*
D02*
G37*
G36*
X659000D02*
X645670Y2486016D01*
X632852Y2482128D01*
X621038Y2475814D01*
X610684Y2467316D01*
X602187Y2456962D01*
X595872Y2445148D01*
X591984Y2432330D01*
X590671Y2419000D01*
X591984Y2405670D01*
X595872Y2392852D01*
X602187Y2381038D01*
X610684Y2370684D01*
X621038Y2362186D01*
X632852Y2355872D01*
X645670Y2351984D01*
X659000Y2350671D01*
X672330Y2351984D01*
X685148Y2355872D01*
X696962Y2362186D01*
X707316Y2370684D01*
X715813Y2381038D01*
X722128Y2392852D01*
X726016Y2405670D01*
X727329Y2419000D01*
X726016Y2432330D01*
X722128Y2445148D01*
X715813Y2456962D01*
X707316Y2467316D01*
X696962Y2475814D01*
X685148Y2482128D01*
X672330Y2486016D01*
X659000Y2487329D01*
D02*
G37*
G36*
X2953600Y2464000D02*
X2927930D01*
Y2415695D01*
X2953315D01*
Y2380290D01*
X2964177D01*
Y2255968D01*
X2860032Y2151823D01*
X2634456D01*
X2634456Y2151823D01*
X2628018Y2150543D01*
X2622560Y2146896D01*
X2622560Y2146896D01*
X2490659Y2014995D01*
X1935732D01*
Y2017982D01*
X1886268D01*
Y1978360D01*
X1891927D01*
Y1966404D01*
X1881927Y1960317D01*
X1876500Y1961500D01*
X1870328Y1961500D01*
X1852500D01*
Y1933000D01*
Y1904500D01*
X1870328D01*
X1876500Y1904500D01*
X1879326Y1905116D01*
X1889326Y1897789D01*
Y1841721D01*
X1880401Y1834021D01*
X1879496D01*
Y1808000D01*
Y1781979D01*
X1880401D01*
X1885839Y1783061D01*
X1890449Y1786141D01*
X1895429Y1784945D01*
X1900087Y1784018D01*
X1911898D01*
X1916555Y1784945D01*
X1921535Y1786141D01*
X1926145Y1783061D01*
X1931583Y1781979D01*
X1932488D01*
Y1808000D01*
Y1834021D01*
X1931583D01*
X1922973Y1841931D01*
Y1906500D01*
X1933500D01*
Y1959500D01*
X1925573D01*
Y1978360D01*
X1935732D01*
Y1981348D01*
X2497627D01*
X2504065Y1982629D01*
X2509523Y1986275D01*
X2641424Y2118177D01*
X2867000D01*
X2873438Y2119457D01*
X2878896Y2123104D01*
X2992896Y2237104D01*
X2992896Y2237104D01*
X2996543Y2242562D01*
X2997823Y2249000D01*
Y2380290D01*
X3008685D01*
Y2415695D01*
X3034070D01*
Y2464000D01*
X3008400D01*
Y2437630D01*
X2953600D01*
Y2464000D01*
D02*
G37*
G36*
X1847500Y2150500D02*
X1823500D01*
Y2127000D01*
X1847500D01*
Y2150500D01*
D02*
G37*
G36*
Y2117000D02*
X1823500D01*
Y2093500D01*
X1847500D01*
Y2117000D01*
D02*
G37*
G36*
X3326000Y2151255D02*
X3186160D01*
X3181087Y2150246D01*
X3176787Y2147372D01*
X3103913Y2074499D01*
X2905496D01*
X2900424Y2073490D01*
X2896124Y2070617D01*
X2881003Y2055496D01*
X2852252D01*
Y2046377D01*
X2830748D01*
Y2056496D01*
X2783252D01*
Y2010748D01*
X2830748D01*
Y2019867D01*
X2852252D01*
Y2009748D01*
X2881775D01*
X2885695Y2000685D01*
X2880452Y1994252D01*
X2852252D01*
Y1948504D01*
X2899748D01*
Y1971129D01*
X2903331Y1973833D01*
X2913331Y1968853D01*
Y1945756D01*
X2925388D01*
Y1918525D01*
X2924686Y1915000D01*
X2925928Y1908757D01*
X2929465Y1903465D01*
X2934757Y1899928D01*
X2939678Y1898949D01*
X2942271Y1894541D01*
X2943947Y1889077D01*
X2886628Y1831757D01*
X2883754Y1827457D01*
X2882745Y1822385D01*
Y1669496D01*
X2872252D01*
Y1623748D01*
X2919748D01*
Y1632867D01*
X2934252D01*
Y1622748D01*
X2981748D01*
Y1668496D01*
X2953119D01*
X2950086Y1678496D01*
X2951535Y1679465D01*
X2955072Y1684757D01*
X2956314Y1691000D01*
X2955072Y1697243D01*
X2953255Y1699962D01*
Y1723500D01*
X2975500D01*
Y1772500D01*
X2975500Y1780000D01*
X2975500Y1787500D01*
Y1805755D01*
X2993490Y1823745D01*
X3043000D01*
X3048072Y1824754D01*
X3052372Y1827628D01*
X3073076Y1848331D01*
X3102244D01*
Y1863745D01*
X3118929D01*
Y1861717D01*
X3176268D01*
Y1893465D01*
X3118929D01*
Y1890255D01*
X3102244D01*
Y1905669D01*
X3083254D01*
X3077704Y1915669D01*
X3079665Y1918813D01*
X3080243Y1918928D01*
X3085535Y1922465D01*
X3089072Y1927757D01*
X3090314Y1934000D01*
X3089072Y1940243D01*
X3085535Y1945535D01*
X3080243Y1949072D01*
X3074000Y1950313D01*
X3067757Y1949072D01*
X3062465Y1945535D01*
X3060094Y1941987D01*
X3026722Y1908616D01*
X3024753Y1905669D01*
X3011095D01*
X3007268Y1914908D01*
X3195106Y2102745D01*
X3303885D01*
X3304888Y2101244D01*
X3299543Y2091244D01*
X3269331D01*
Y2077995D01*
X3243601D01*
X3242000Y2078314D01*
X3235757Y2077072D01*
X3230465Y2073535D01*
X3226928Y2068243D01*
X3225686Y2062000D01*
X3226928Y2055757D01*
X3230465Y2050465D01*
X3235757Y2046928D01*
X3242000Y2045687D01*
X3245525Y2046388D01*
X3269331D01*
Y2022255D01*
X3249962D01*
X3247243Y2024072D01*
X3241000Y2025313D01*
X3234757Y2024072D01*
X3229465Y2020535D01*
X3225928Y2015243D01*
X3224686Y2009000D01*
X3225928Y2002757D01*
X3229465Y1997465D01*
X3234757Y1993928D01*
X3241000Y1992687D01*
X3247243Y1993928D01*
X3249962Y1995745D01*
X3269331D01*
Y1980756D01*
X3285745D01*
Y1953336D01*
X3285292Y1953246D01*
X3281982Y1951034D01*
X3279770Y1947724D01*
X3278993Y1943819D01*
Y1890748D01*
X3279770Y1886843D01*
X3281982Y1883533D01*
X3285292Y1881321D01*
X3289197Y1880544D01*
X3292522D01*
X3296850Y1870852D01*
X3292471Y1865255D01*
X3251071D01*
Y1893465D01*
X3235656D01*
Y1908430D01*
X3238104Y1912094D01*
X3239398Y1918598D01*
X3238104Y1925103D01*
X3234420Y1930617D01*
X3234018Y1931018D01*
X3228504Y1934703D01*
X3222000Y1935997D01*
X3215496Y1934703D01*
X3209982Y1931018D01*
X3206297Y1925504D01*
X3205003Y1919000D01*
X3206297Y1912496D01*
X3209147Y1908231D01*
Y1893465D01*
X3193732D01*
Y1861717D01*
Y1836126D01*
Y1810535D01*
X3209147D01*
Y1753598D01*
X3210156Y1748526D01*
X3213029Y1744226D01*
X3257628Y1699628D01*
X3261928Y1696754D01*
X3267000Y1695745D01*
X3278993D01*
Y1676181D01*
X3279770Y1672276D01*
X3281982Y1668966D01*
X3285292Y1666754D01*
X3289197Y1665977D01*
X3308803D01*
X3312708Y1666754D01*
X3316018Y1668966D01*
X3318230Y1672276D01*
X3319007Y1676181D01*
X3328993D01*
X3329770Y1672276D01*
X3331982Y1668966D01*
X3335292Y1666754D01*
X3335745Y1666664D01*
Y1653255D01*
X3291527D01*
X3286454Y1652246D01*
X3282154Y1649372D01*
X3272622Y1639841D01*
X3268757Y1639072D01*
X3263465Y1635535D01*
X3259928Y1630243D01*
X3258686Y1624000D01*
X3259928Y1617757D01*
X3263465Y1612465D01*
X3266772Y1610255D01*
X3265006Y1600255D01*
X3257858D01*
X3252786Y1599246D01*
X3248485Y1596372D01*
X3232628Y1580515D01*
X3229754Y1576215D01*
X3228745Y1571142D01*
Y1539401D01*
X3217268D01*
Y1499780D01*
X3266732D01*
Y1506336D01*
X3279331D01*
Y1487906D01*
Y1434756D01*
X3281605D01*
X3283184Y1433710D01*
X3289036Y1424756D01*
X3288686Y1423000D01*
X3289928Y1416757D01*
X3293465Y1411465D01*
X3298757Y1407928D01*
X3305000Y1406687D01*
X3311243Y1407928D01*
X3316535Y1411465D01*
X3320072Y1416757D01*
X3321314Y1423000D01*
X3320964Y1424756D01*
X3326816Y1433710D01*
X3328395Y1434756D01*
X3336669D01*
Y1489097D01*
X3346599Y1489268D01*
Y1489268D01*
X3386220D01*
Y1538732D01*
X3346599D01*
Y1538732D01*
X3336669Y1538903D01*
Y1545244D01*
X3279331D01*
Y1532845D01*
X3266732D01*
Y1539401D01*
X3255255D01*
Y1565652D01*
X3263348Y1573745D01*
X3393599D01*
Y1554268D01*
X3433220D01*
Y1603732D01*
X3393599D01*
Y1600255D01*
X3284994D01*
X3283228Y1610255D01*
X3286535Y1612465D01*
X3290072Y1617757D01*
X3290579Y1620307D01*
X3297017Y1626745D01*
X3605142D01*
X3610215Y1627754D01*
X3614515Y1630628D01*
X3620372Y1636485D01*
X3623246Y1640785D01*
X3624255Y1645858D01*
Y1661230D01*
X3624708Y1661321D01*
X3628018Y1663533D01*
X3630230Y1666843D01*
X3631007Y1670748D01*
X3640993D01*
X3641770Y1666843D01*
X3643982Y1663533D01*
X3647292Y1661321D01*
X3651197Y1660544D01*
X3670803D01*
X3674708Y1661321D01*
X3678018Y1663533D01*
X3680230Y1666843D01*
X3681007Y1670748D01*
X3690993D01*
X3691770Y1666843D01*
X3693982Y1663533D01*
X3697292Y1661321D01*
X3701197Y1660544D01*
X3720803D01*
X3724708Y1661321D01*
X3728018Y1663533D01*
X3730230Y1666843D01*
X3731007Y1670748D01*
Y1723819D01*
X3730230Y1727724D01*
X3728018Y1731034D01*
X3724708Y1733246D01*
X3720987Y1733986D01*
Y1785155D01*
X3734331D01*
Y1765756D01*
X3749745D01*
Y1661490D01*
X3718510Y1630255D01*
X3641000D01*
X3635928Y1629246D01*
X3631628Y1626372D01*
X3597510Y1592255D01*
X3484402D01*
Y1603732D01*
X3444780D01*
Y1554268D01*
X3484402D01*
Y1565745D01*
X3603000D01*
X3608072Y1566754D01*
X3612372Y1569628D01*
X3646490Y1603745D01*
X3724000D01*
X3729072Y1604754D01*
X3733372Y1607628D01*
X3772372Y1646628D01*
X3775246Y1650928D01*
X3776255Y1656000D01*
Y1765756D01*
X3791669D01*
Y1818906D01*
Y1876244D01*
X3776995D01*
Y1921399D01*
X3777314Y1923000D01*
X3776072Y1929243D01*
X3772535Y1934535D01*
X3767243Y1938072D01*
X3761000Y1939313D01*
X3754757Y1938072D01*
X3749465Y1934535D01*
X3745928Y1929243D01*
X3744686Y1923000D01*
X3745388Y1919475D01*
Y1876244D01*
X3734331D01*
Y1811664D01*
X3720732D01*
Y1818220D01*
X3671268D01*
Y1778599D01*
X3694478D01*
Y1731366D01*
X3693982Y1731034D01*
X3691770Y1727724D01*
X3690993Y1723819D01*
X3681007D01*
X3680230Y1727724D01*
X3678018Y1731034D01*
X3674708Y1733246D01*
X3670803Y1734023D01*
X3651197D01*
X3647292Y1733246D01*
X3643982Y1731034D01*
X3641770Y1727724D01*
X3640993Y1723819D01*
X3631007D01*
X3630230Y1727724D01*
X3628018Y1731034D01*
X3624708Y1733246D01*
X3620803Y1734023D01*
X3601197D01*
X3597292Y1733246D01*
X3593982Y1731034D01*
X3591770Y1727724D01*
X3590993Y1723819D01*
X3581007D01*
X3580230Y1727724D01*
X3578018Y1731034D01*
X3574708Y1733246D01*
X3574255Y1733336D01*
Y1758756D01*
X3589669D01*
Y1778745D01*
X3601038D01*
X3603757Y1776928D01*
X3610000Y1775687D01*
X3616243Y1776928D01*
X3621535Y1780465D01*
X3625072Y1785757D01*
X3626314Y1792000D01*
X3625072Y1798243D01*
X3621535Y1803535D01*
X3616243Y1807072D01*
X3610000Y1808313D01*
X3603757Y1807072D01*
X3601038Y1805255D01*
X3589669D01*
Y1846894D01*
X3632984Y1890209D01*
X3636409Y1895336D01*
X3637612Y1901383D01*
Y1919475D01*
X3638314Y1923000D01*
X3637072Y1929243D01*
X3633535Y1934535D01*
X3628243Y1938072D01*
X3622000Y1939313D01*
X3615757Y1938072D01*
X3610465Y1934535D01*
X3606928Y1929243D01*
X3605686Y1923000D01*
X3606005Y1921399D01*
Y1907930D01*
X3567320Y1869244D01*
X3532331D01*
Y1841113D01*
X3518858D01*
X3513786Y1840104D01*
X3509486Y1837231D01*
X3439628Y1767372D01*
X3436754Y1763072D01*
X3435745Y1758000D01*
Y1738769D01*
X3435292Y1738679D01*
X3431982Y1736467D01*
X3429770Y1733157D01*
X3428993Y1729252D01*
X3419007D01*
X3418230Y1733157D01*
X3416018Y1736467D01*
X3412708Y1738679D01*
X3412255Y1738769D01*
Y1803054D01*
X3483184Y1873983D01*
X3486057Y1878283D01*
X3487066Y1883355D01*
Y1990189D01*
X3486057Y1995261D01*
X3483184Y1999562D01*
X3335372Y2147372D01*
X3331072Y2150246D01*
X3326000Y2151255D01*
D02*
G37*
G36*
X936850Y2072669D02*
X911181D01*
Y2047000D01*
X936850D01*
Y2072669D01*
D02*
G37*
G36*
X752827Y2063732D02*
X736016D01*
Y2042000D01*
X752827D01*
Y2063732D01*
D02*
G37*
G36*
X972520Y2072669D02*
X946850D01*
Y2042000D01*
Y2011331D01*
X972520D01*
Y2013331D01*
X995068D01*
Y1950362D01*
X987528D01*
Y1893024D01*
X995068D01*
Y1786976D01*
X987528D01*
Y1729638D01*
X1029118D01*
Y1786976D01*
X1021577D01*
Y1893024D01*
X1029118D01*
Y1950362D01*
X1021577D01*
Y2013331D01*
X1023669D01*
Y2025745D01*
X1060038D01*
X1062757Y2023928D01*
X1069000Y2022687D01*
X1075243Y2023928D01*
X1080535Y2027465D01*
X1084072Y2032757D01*
X1085313Y2039000D01*
X1084072Y2045243D01*
X1080535Y2050535D01*
X1075243Y2054072D01*
X1069000Y2055314D01*
X1062757Y2054072D01*
X1060038Y2052255D01*
X1023669D01*
Y2070669D01*
X972520D01*
Y2072669D01*
D02*
G37*
G36*
X936850Y2037000D02*
X911181D01*
Y2011331D01*
X936850D01*
Y2037000D01*
D02*
G37*
G36*
X752827Y2032000D02*
X736016D01*
Y2010268D01*
X752827D01*
Y2032000D01*
D02*
G37*
G36*
X726016Y2063732D02*
X709205D01*
Y2062797D01*
X699646Y2061732D01*
X699205Y2061732D01*
X660024D01*
Y2012268D01*
X661714D01*
Y1941362D01*
X649307D01*
Y1884024D01*
X656848D01*
Y1777976D01*
X649307D01*
Y1720638D01*
X656297D01*
Y1703787D01*
X653928Y1700243D01*
X652687Y1694000D01*
X653928Y1687757D01*
X657465Y1682465D01*
X662757Y1678928D01*
X669000Y1677687D01*
X675243Y1678928D01*
X680535Y1682465D01*
X684072Y1687757D01*
X685313Y1694000D01*
X684072Y1700243D01*
X682806Y1702137D01*
Y1720638D01*
X690898D01*
Y1777976D01*
X683357D01*
Y1884024D01*
X690898D01*
Y1941362D01*
X688223D01*
Y2012268D01*
X699205D01*
X699646Y2012268D01*
X709205Y2011203D01*
Y2010268D01*
X726016D01*
Y2037000D01*
Y2063732D01*
D02*
G37*
G36*
X1636000Y2033244D02*
X1610331D01*
Y2007575D01*
X1636000D01*
Y2033244D01*
D02*
G37*
G36*
X1741669Y2032244D02*
X1716000D01*
Y2006575D01*
X1741669D01*
Y2032244D01*
D02*
G37*
G36*
X1402000Y2079314D02*
X1395757Y2078072D01*
X1390465Y2074535D01*
X1386928Y2069243D01*
X1385687Y2063000D01*
X1386928Y2056757D01*
X1388745Y2054038D01*
Y2024401D01*
X1378268D01*
Y1984780D01*
X1427732D01*
Y2024401D01*
X1415255D01*
Y2054038D01*
X1417072Y2056757D01*
X1418313Y2063000D01*
X1417072Y2069243D01*
X1413535Y2074535D01*
X1408243Y2078072D01*
X1402000Y2079314D01*
D02*
G37*
G36*
X1482000D02*
X1475757Y2078072D01*
X1470465Y2074535D01*
X1466928Y2069243D01*
X1465687Y2063000D01*
X1466928Y2056757D01*
X1468745Y2054038D01*
Y2023401D01*
X1457268D01*
Y1983780D01*
X1506732D01*
Y2023401D01*
X1495255D01*
Y2054038D01*
X1497072Y2056757D01*
X1498313Y2063000D01*
X1497072Y2069243D01*
X1493535Y2074535D01*
X1488243Y2078072D01*
X1482000Y2079314D01*
D02*
G37*
G36*
X805000Y2012313D02*
X798757Y2011072D01*
X793465Y2007535D01*
X789928Y2002243D01*
X789290Y1999035D01*
X747990Y1957735D01*
X745116Y1953435D01*
X744107Y1948362D01*
Y1941362D01*
X733953D01*
Y1884024D01*
X741493D01*
Y1777976D01*
X733953D01*
Y1720638D01*
X775543D01*
Y1777976D01*
X768003D01*
Y1884024D01*
X775543D01*
Y1941362D01*
X775543D01*
X778063Y1950318D01*
X808035Y1980290D01*
X811243Y1980928D01*
X816535Y1984465D01*
X820072Y1989757D01*
X821313Y1996000D01*
X820072Y2002243D01*
X816535Y2007535D01*
X811243Y2011072D01*
X805000Y2012313D01*
D02*
G37*
G36*
X1842500Y1961500D02*
X1818500D01*
Y1938000D01*
X1842500D01*
Y1961500D01*
D02*
G37*
G36*
X946472Y1952362D02*
X928677D01*
Y1926693D01*
X946472D01*
Y1952362D01*
D02*
G37*
G36*
X918677D02*
X900882D01*
Y1926693D01*
X918677D01*
Y1952362D01*
D02*
G37*
G36*
X1842500Y1928000D02*
X1818500D01*
Y1904500D01*
X1842500D01*
Y1928000D01*
D02*
G37*
G36*
X2830748Y1995252D02*
X2783252D01*
Y1949504D01*
X2790388D01*
Y1912525D01*
X2789686Y1909000D01*
X2790928Y1902757D01*
X2794465Y1897465D01*
X2799757Y1893928D01*
X2806000Y1892687D01*
X2812243Y1893928D01*
X2817535Y1897465D01*
X2821072Y1902757D01*
X2822314Y1909000D01*
X2821995Y1910601D01*
Y1949504D01*
X2830748D01*
Y1995252D01*
D02*
G37*
G36*
X1561000Y2079314D02*
X1554757Y2078072D01*
X1549465Y2074535D01*
X1545928Y2069243D01*
X1544687Y2063000D01*
X1545928Y2056757D01*
X1547745Y2054038D01*
Y2033500D01*
X1533500D01*
Y1984500D01*
X1533500Y1977000D01*
X1533500Y1969500D01*
Y1920500D01*
X1586500D01*
Y1936170D01*
X1612331D01*
Y1920756D01*
X1669669D01*
Y1937139D01*
X1682331D01*
Y1919756D01*
X1703761D01*
Y1896075D01*
X1694506Y1892572D01*
X1693761Y1892708D01*
X1690535Y1897535D01*
X1685243Y1901072D01*
X1679000Y1902313D01*
X1672757Y1901072D01*
X1667465Y1897535D01*
X1663928Y1892243D01*
X1663089Y1891927D01*
X1653072Y1892243D01*
X1649535Y1897535D01*
X1644243Y1901072D01*
X1638000Y1902313D01*
X1631757Y1901072D01*
X1626465Y1897535D01*
X1623960Y1893788D01*
X1618500Y1892935D01*
X1613040Y1893788D01*
X1610535Y1897535D01*
X1605243Y1901072D01*
X1599000Y1902313D01*
X1592757Y1901072D01*
X1587465Y1897535D01*
X1583928Y1892243D01*
X1582687Y1886000D01*
X1583928Y1879757D01*
X1587465Y1874465D01*
X1590670Y1872323D01*
X1586768Y1862903D01*
X1585000Y1863255D01*
X1459065D01*
X1455238Y1872494D01*
X1491372Y1908628D01*
X1494246Y1912928D01*
X1495255Y1918000D01*
Y1932598D01*
X1506732D01*
Y1972220D01*
X1457268D01*
Y1932598D01*
X1466592D01*
X1467853Y1922598D01*
X1404628Y1859372D01*
X1392628Y1847372D01*
X1389754Y1843072D01*
X1388745Y1838000D01*
Y1813500D01*
X1375500D01*
Y1764500D01*
X1375500Y1757000D01*
X1375500Y1749500D01*
Y1700500D01*
X1375500D01*
X1378796Y1692542D01*
X1350628Y1664372D01*
X1347754Y1660072D01*
X1346745Y1655000D01*
Y1591987D01*
X1346097Y1591335D01*
X1336097Y1595461D01*
Y1699500D01*
X1347500D01*
Y1748500D01*
X1347500Y1756000D01*
X1347500Y1763500D01*
Y1812500D01*
X1334255D01*
Y1837510D01*
X1412372Y1915628D01*
X1415246Y1919928D01*
X1416255Y1925000D01*
Y1933598D01*
X1427732D01*
Y1973220D01*
X1378268D01*
Y1965959D01*
X1360908D01*
X1359243Y1967072D01*
X1353000Y1968313D01*
X1346757Y1967072D01*
X1341465Y1963535D01*
X1337928Y1958243D01*
X1336687Y1952000D01*
X1337928Y1945757D01*
X1341465Y1940465D01*
X1346757Y1936928D01*
X1353000Y1935687D01*
X1359243Y1936928D01*
X1363017Y1939450D01*
X1378268D01*
Y1933598D01*
X1378711D01*
X1382853Y1923598D01*
X1311628Y1852372D01*
X1308754Y1848072D01*
X1307745Y1843000D01*
Y1812500D01*
X1294500D01*
Y1763500D01*
X1294500Y1756000D01*
X1294500Y1748500D01*
Y1699500D01*
X1309588D01*
Y1300333D01*
X1246510Y1237255D01*
X1217962D01*
X1215243Y1239072D01*
X1209000Y1240313D01*
X1202757Y1239072D01*
X1197465Y1235535D01*
X1193928Y1230243D01*
X1192687Y1224000D01*
X1193928Y1217757D01*
X1197465Y1212465D01*
X1202757Y1208928D01*
X1209000Y1207687D01*
X1215243Y1208928D01*
X1217962Y1210745D01*
X1252000D01*
X1257072Y1211754D01*
X1261372Y1214628D01*
X1300349Y1253604D01*
X1309588Y1249777D01*
Y1211532D01*
X1310597Y1206459D01*
X1313470Y1202159D01*
X1321671Y1193958D01*
X1325971Y1191085D01*
X1328843Y1190514D01*
Y1189646D01*
X1331961D01*
Y1185913D01*
X1347472D01*
Y1175913D01*
X1331961D01*
Y1173097D01*
X1273101D01*
X1273072Y1173243D01*
X1269535Y1178535D01*
X1264243Y1182072D01*
X1258000Y1183313D01*
X1251757Y1182072D01*
X1246465Y1178535D01*
X1242928Y1173243D01*
X1241687Y1167000D01*
X1242928Y1160757D01*
X1246465Y1155465D01*
X1251757Y1151928D01*
X1256992Y1150887D01*
X1257409Y1150470D01*
X1261709Y1147597D01*
X1266781Y1146588D01*
X1349301D01*
X1358331Y1144244D01*
X1358331Y1139900D01*
Y1093094D01*
X1356331D01*
Y1067425D01*
X1387000D01*
X1417669D01*
Y1093094D01*
X1425743Y1097745D01*
X1438038D01*
X1440757Y1095928D01*
X1447000Y1094687D01*
X1453243Y1095928D01*
X1458535Y1099465D01*
X1462072Y1104757D01*
X1463313Y1111000D01*
X1462072Y1117243D01*
X1458535Y1122535D01*
X1453243Y1126072D01*
X1447000Y1127313D01*
X1440757Y1126072D01*
X1438038Y1124255D01*
X1415669D01*
Y1144244D01*
X1400097D01*
Y1162843D01*
X1401528D01*
Y1180913D01*
X1406528D01*
Y1185913D01*
X1422039D01*
Y1189646D01*
X1425157D01*
Y1190384D01*
X1428681Y1191085D01*
X1432982Y1193958D01*
X1486372Y1247349D01*
X1489246Y1251649D01*
X1490255Y1256722D01*
Y1426454D01*
X1500255Y1427439D01*
X1500754Y1424928D01*
X1503628Y1420628D01*
X1516375Y1407880D01*
X1520676Y1405006D01*
X1525748Y1403997D01*
X1538278D01*
X1539118Y1402741D01*
X1543067Y1400102D01*
X1547724Y1399176D01*
X1571346D01*
X1576004Y1400102D01*
X1579953Y1402741D01*
X1582591Y1406689D01*
X1583517Y1411347D01*
Y1423158D01*
X1582591Y1427815D01*
X1580461Y1433000D01*
X1582591Y1438185D01*
X1583517Y1442843D01*
Y1454654D01*
X1582591Y1459311D01*
X1579953Y1463260D01*
Y1465733D01*
X1582591Y1469681D01*
X1583517Y1474339D01*
Y1486150D01*
X1582591Y1490807D01*
X1580461Y1495992D01*
X1582591Y1501177D01*
X1583517Y1505835D01*
Y1517646D01*
X1582591Y1522303D01*
X1581394Y1527283D01*
X1584475Y1531893D01*
X1585556Y1537331D01*
Y1538236D01*
X1559535D01*
Y1548236D01*
X1585556D01*
Y1549142D01*
X1584475Y1554580D01*
X1581394Y1559190D01*
X1582591Y1564169D01*
X1583517Y1568827D01*
Y1580638D01*
X1582591Y1585295D01*
X1580461Y1590480D01*
X1582591Y1595665D01*
X1583517Y1600323D01*
Y1612134D01*
X1582591Y1616792D01*
X1579953Y1620740D01*
Y1623213D01*
X1582591Y1627161D01*
X1583517Y1631819D01*
Y1643630D01*
X1582591Y1648288D01*
X1579953Y1652236D01*
Y1654709D01*
X1582591Y1658658D01*
X1583517Y1663315D01*
Y1675126D01*
X1582591Y1679784D01*
X1580461Y1684969D01*
X1582591Y1690154D01*
X1583517Y1694811D01*
Y1706622D01*
X1582591Y1711280D01*
X1579953Y1715228D01*
Y1717701D01*
X1582591Y1721650D01*
X1583517Y1726307D01*
Y1738118D01*
X1582591Y1742776D01*
X1580461Y1747961D01*
X1582591Y1753146D01*
X1583517Y1757803D01*
Y1769614D01*
X1582591Y1774272D01*
X1582549Y1774335D01*
X1583420Y1777610D01*
X1587905Y1784018D01*
X1596937D01*
X1601595Y1784945D01*
X1606780Y1787075D01*
X1611965Y1784945D01*
X1616622Y1784018D01*
X1628433D01*
X1633091Y1784945D01*
X1637039Y1787583D01*
X1639512D01*
X1643460Y1784945D01*
X1648118Y1784018D01*
X1659929D01*
X1664587Y1784945D01*
X1669772Y1787075D01*
X1674957Y1784945D01*
X1679614Y1784018D01*
X1691425D01*
X1696083Y1784945D01*
X1700031Y1787583D01*
X1702504D01*
X1706453Y1784945D01*
X1711110Y1784018D01*
X1722921D01*
X1727579Y1784945D01*
X1731527Y1787583D01*
X1734000D01*
X1737949Y1784945D01*
X1742606Y1784018D01*
X1754417D01*
X1759075Y1784945D01*
X1764260Y1787075D01*
X1769445Y1784945D01*
X1774102Y1784018D01*
X1785913D01*
X1790571Y1784945D01*
X1794519Y1787583D01*
X1796992D01*
X1800941Y1784945D01*
X1805598Y1784018D01*
X1817409D01*
X1822067Y1784945D01*
X1826015Y1787583D01*
X1828488D01*
X1832437Y1784945D01*
X1837094Y1784018D01*
X1848906D01*
X1853563Y1784945D01*
X1858543Y1786141D01*
X1863153Y1783061D01*
X1868591Y1781979D01*
X1869496D01*
Y1808000D01*
Y1834021D01*
X1868591D01*
X1863153Y1832939D01*
X1858543Y1829859D01*
X1853563Y1831055D01*
X1848906Y1831982D01*
X1837094D01*
X1832437Y1831055D01*
X1828488Y1828417D01*
X1826015D01*
X1822067Y1831055D01*
X1817409Y1831982D01*
X1805598D01*
X1800941Y1831055D01*
X1796992Y1828417D01*
X1794519D01*
X1790571Y1831055D01*
X1785913Y1831982D01*
X1774102D01*
X1769445Y1831055D01*
X1764260Y1828925D01*
X1759075Y1831055D01*
X1754417Y1831982D01*
X1742606D01*
X1740271Y1831517D01*
X1732914Y1835577D01*
X1730270Y1837952D01*
Y1919756D01*
X1739669D01*
Y1970906D01*
X1741669D01*
Y1996575D01*
X1711000D01*
Y2001575D01*
X1706000D01*
Y2032244D01*
X1680331D01*
Y2032244D01*
X1671669Y2033244D01*
Y2033244D01*
X1670745Y2033244D01*
X1646000D01*
Y2002575D01*
X1641000D01*
Y1997575D01*
X1610331D01*
Y1971906D01*
X1610331D01*
X1608461Y1962680D01*
X1593571D01*
X1586500Y1969751D01*
X1586500Y1977000D01*
X1586500Y1984500D01*
Y2033500D01*
X1574255D01*
Y2054038D01*
X1576072Y2056757D01*
X1577313Y2063000D01*
X1576072Y2069243D01*
X1572535Y2074535D01*
X1567243Y2078072D01*
X1561000Y2079314D01*
D02*
G37*
G36*
X946472Y1916693D02*
X928677D01*
Y1891024D01*
X946472D01*
Y1916693D01*
D02*
G37*
G36*
X918677D02*
X900882D01*
Y1891024D01*
X918677D01*
Y1916693D01*
D02*
G37*
G36*
X70000Y1924851D02*
X60203Y1923562D01*
X51074Y1919780D01*
X43235Y1913765D01*
X37220Y1905926D01*
X33438Y1896797D01*
X32149Y1887000D01*
X33438Y1877203D01*
X37220Y1868074D01*
X43235Y1860235D01*
X51074Y1854220D01*
X60203Y1850438D01*
X70000Y1849149D01*
X79797Y1850438D01*
X88926Y1854220D01*
X96765Y1860235D01*
X102780Y1868074D01*
X106561Y1877203D01*
X107851Y1887000D01*
X106561Y1896797D01*
X102780Y1905926D01*
X96765Y1913765D01*
X88926Y1919780D01*
X79797Y1923562D01*
X70000Y1924851D01*
D02*
G37*
G36*
X3690000Y1939313D02*
X3683757Y1938072D01*
X3678465Y1934535D01*
X3674928Y1929243D01*
X3673686Y1923000D01*
X3674388Y1919475D01*
Y1869402D01*
X3671268D01*
Y1829780D01*
X3720732D01*
Y1869402D01*
X3705995D01*
Y1921399D01*
X3706314Y1923000D01*
X3705072Y1929243D01*
X3701535Y1934535D01*
X3696243Y1938072D01*
X3690000Y1939313D01*
D02*
G37*
G36*
X1943394Y1834021D02*
X1942488D01*
Y1813000D01*
X1957604D01*
Y1819811D01*
X1956522Y1825249D01*
X1953442Y1829859D01*
X1948832Y1832939D01*
X1943394Y1834021D01*
D02*
G37*
G36*
X3176268Y1842283D02*
X3118929D01*
Y1810535D01*
X3131470D01*
Y1783244D01*
X3115331D01*
Y1767255D01*
X3092962D01*
X3090243Y1769072D01*
X3084000Y1770313D01*
X3077757Y1769072D01*
X3072465Y1765535D01*
X3068928Y1760243D01*
X3067686Y1754000D01*
X3068928Y1747757D01*
X3072465Y1742465D01*
X3077757Y1738928D01*
X3084000Y1737687D01*
X3090243Y1738928D01*
X3092962Y1740745D01*
X3115331D01*
Y1714255D01*
X3092962D01*
X3090243Y1716072D01*
X3084000Y1717313D01*
X3077757Y1716072D01*
X3072465Y1712535D01*
X3068928Y1707243D01*
X3067686Y1701000D01*
X3068928Y1694757D01*
X3072465Y1689465D01*
X3077757Y1685928D01*
X3084000Y1684687D01*
X3090243Y1685928D01*
X3092962Y1687745D01*
X3115331D01*
Y1672756D01*
X3172669D01*
Y1725906D01*
Y1783244D01*
X3157979D01*
Y1810535D01*
X3176268D01*
Y1842283D01*
D02*
G37*
G36*
X1957604Y1803000D02*
X1942488D01*
Y1779586D01*
X1946014Y1777809D01*
X1948024Y1773359D01*
X1945929Y1769351D01*
X1945002Y1764694D01*
X1945002Y1764693D01*
X1945002Y1764610D01*
Y1752882D01*
X1945929Y1748224D01*
X1948567Y1744276D01*
Y1741803D01*
X1945929Y1737854D01*
X1945002Y1733197D01*
Y1721386D01*
X1945929Y1716728D01*
X1948567Y1712780D01*
Y1710307D01*
X1945929Y1706358D01*
X1945002Y1701701D01*
Y1689890D01*
X1945929Y1685232D01*
X1948567Y1681284D01*
Y1678811D01*
X1945929Y1674862D01*
X1945002Y1670205D01*
Y1658394D01*
X1945929Y1653736D01*
X1948567Y1649788D01*
Y1647315D01*
X1945929Y1643366D01*
X1945002Y1638709D01*
Y1626898D01*
X1945929Y1622240D01*
X1948567Y1618292D01*
Y1615819D01*
X1945929Y1611870D01*
X1945002Y1607213D01*
Y1595402D01*
X1945929Y1590744D01*
X1948567Y1586796D01*
Y1584323D01*
X1945929Y1580374D01*
X1945002Y1575717D01*
Y1563906D01*
X1945929Y1559248D01*
X1948567Y1555300D01*
Y1552826D01*
X1945929Y1548878D01*
X1945002Y1544220D01*
Y1532409D01*
X1945929Y1527752D01*
X1948567Y1523803D01*
Y1521330D01*
X1945929Y1517382D01*
X1945002Y1512724D01*
Y1500913D01*
X1945929Y1496256D01*
X1948567Y1492307D01*
Y1489834D01*
X1945929Y1485886D01*
X1945002Y1481228D01*
Y1469417D01*
X1945929Y1464760D01*
X1948567Y1460811D01*
Y1458338D01*
X1945929Y1454390D01*
X1945002Y1449732D01*
Y1437921D01*
X1945929Y1433264D01*
X1948567Y1429315D01*
Y1426842D01*
X1945929Y1422894D01*
X1945002Y1418236D01*
Y1406425D01*
X1945929Y1401768D01*
X1948567Y1397819D01*
X1952516Y1395181D01*
X1957173Y1394254D01*
X1980795D01*
X1985453Y1395181D01*
X1989401Y1397819D01*
X1992040Y1401768D01*
X1992966Y1406425D01*
Y1418236D01*
X1992040Y1422894D01*
X1989401Y1426842D01*
Y1429315D01*
X1992040Y1433264D01*
X1992966Y1437921D01*
Y1449732D01*
X1992040Y1454390D01*
X1989401Y1458338D01*
Y1460811D01*
X1992040Y1464760D01*
X1992966Y1469417D01*
Y1481228D01*
X1992040Y1485886D01*
X1989401Y1489834D01*
Y1492307D01*
X1992040Y1496256D01*
X1992966Y1500913D01*
Y1512724D01*
X1992501Y1515060D01*
X1996561Y1522416D01*
X1998936Y1525060D01*
X2012695D01*
X2039000Y1498755D01*
Y1456500D01*
X2117745D01*
Y1434401D01*
X2102268D01*
Y1394780D01*
X2143052D01*
X2146388Y1389000D01*
X2143052Y1383220D01*
X2102268D01*
Y1343598D01*
X2111745D01*
Y1332962D01*
X2109928Y1330243D01*
X2108686Y1324000D01*
X2109928Y1317757D01*
X2113465Y1312465D01*
X2118757Y1308928D01*
X2125000Y1307687D01*
X2131243Y1308928D01*
X2136535Y1312465D01*
X2140072Y1317757D01*
X2141314Y1324000D01*
X2140072Y1330243D01*
X2138255Y1332962D01*
Y1336527D01*
X2142730Y1341003D01*
X2153790Y1339891D01*
X2156245Y1335468D01*
Y1042033D01*
X1819322D01*
X1814250Y1041024D01*
X1809950Y1038151D01*
X1561054Y789255D01*
X105129D01*
X102780Y794926D01*
X96765Y802765D01*
X88926Y808780D01*
X79797Y812562D01*
X70000Y813851D01*
X60203Y812562D01*
X51074Y808780D01*
X43235Y802765D01*
X37220Y794926D01*
X33438Y785797D01*
X32149Y776000D01*
X33438Y766203D01*
X37220Y757074D01*
X43235Y749235D01*
X51074Y743220D01*
X60203Y739438D01*
X70000Y738149D01*
X79797Y739438D01*
X88926Y743220D01*
X96765Y749235D01*
X102780Y757074D01*
X105129Y762745D01*
X124935D01*
X128762Y753506D01*
X88782Y713528D01*
X32472D01*
Y638472D01*
X107528D01*
Y694783D01*
X157490Y744745D01*
X1574000D01*
X1579072Y745754D01*
X1583372Y748628D01*
X1829268Y994523D01*
X2121307D01*
X2124026Y992706D01*
X2130269Y991465D01*
X2136512Y992706D01*
X2139745Y994867D01*
X2147056Y992403D01*
X2149745Y990437D01*
Y856490D01*
X2036100Y742845D01*
X2033227Y738545D01*
X2032218Y733472D01*
Y543426D01*
X2033227Y538354D01*
X2036100Y534054D01*
X2047526Y522628D01*
X2050472Y520659D01*
Y501441D01*
Y462071D01*
Y428890D01*
X2048472D01*
Y410110D01*
X2127528D01*
Y428890D01*
X2125528D01*
Y462071D01*
Y501441D01*
Y540811D01*
Y584370D01*
X2100713D01*
X2076727Y608356D01*
Y719982D01*
X2194372Y837628D01*
X2197246Y841928D01*
X2198255Y847000D01*
Y996038D01*
X2200072Y998757D01*
X2201314Y1005000D01*
X2200755Y1007810D01*
Y1570500D01*
X2199746Y1575572D01*
X2196872Y1579873D01*
X2174294Y1602450D01*
X2174990Y1608122D01*
X2185510Y1611745D01*
X2229290Y1567965D01*
X2229928Y1564757D01*
X2233465Y1559465D01*
X2238757Y1555928D01*
X2241965Y1555290D01*
X2687511Y1109744D01*
X2691811Y1106871D01*
X2696884Y1105862D01*
X2787405D01*
X2854305Y1038962D01*
X2851568Y1027557D01*
X2846697Y1024303D01*
X2841392Y1016364D01*
X2839530Y1007000D01*
X2841392Y997636D01*
X2846697Y989697D01*
X2844679Y981922D01*
X2842566Y979669D01*
X2818425D01*
Y949000D01*
Y918331D01*
X2844095D01*
Y920331D01*
X2854745D01*
Y902606D01*
X2846220D01*
Y868491D01*
X2816401D01*
Y883732D01*
X2776780D01*
Y838157D01*
X2776779Y834268D01*
X2780716Y825899D01*
X2780717Y824268D01*
Y789354D01*
X2802528D01*
Y784354D01*
D01*
Y789354D01*
X2824339D01*
X2824339Y829787D01*
X2820842Y831981D01*
X2823719Y841981D01*
X2846220D01*
Y837394D01*
X2889780D01*
Y866921D01*
Y902606D01*
X2881255D01*
Y920331D01*
X2895244D01*
Y935344D01*
X2922165D01*
Y928787D01*
X2985409D01*
Y938984D01*
X2994648Y942810D01*
X3002336Y935123D01*
Y931403D01*
X3003345Y926330D01*
X3006218Y922030D01*
X3053385Y874864D01*
X3057685Y871990D01*
X3062757Y870981D01*
X3091220D01*
Y866394D01*
X3134780D01*
Y895921D01*
Y931606D01*
X3126255D01*
Y952510D01*
X3135065Y961320D01*
X3148461D01*
X3150331Y952094D01*
X3150331D01*
Y926425D01*
X3211669D01*
Y952095D01*
X3209669D01*
Y984499D01*
X3224802Y999631D01*
X3227675Y1003932D01*
X3228684Y1009004D01*
Y1177807D01*
X3227675Y1182880D01*
X3224802Y1187180D01*
X3224309Y1187509D01*
X3227342Y1197509D01*
X3331961D01*
X3333299Y1197775D01*
X3335750Y1194789D01*
X3344582Y1187542D01*
X3354658Y1182156D01*
X3365591Y1178839D01*
X3376961Y1177719D01*
X3388331Y1178839D01*
X3399264Y1182156D01*
X3409340Y1187542D01*
X3418171Y1194789D01*
X3425419Y1203621D01*
X3430805Y1213697D01*
X3434121Y1224630D01*
X3434745Y1230965D01*
X3444745Y1230474D01*
Y916685D01*
X3428071D01*
Y861315D01*
X3479504D01*
Y916685D01*
X3471255D01*
Y1162855D01*
X3478599Y1169268D01*
X3518220D01*
Y1218732D01*
X3512664D01*
Y1372268D01*
X3520220D01*
Y1395445D01*
X3521780Y1396486D01*
X3531780Y1391141D01*
Y1372268D01*
X3535814D01*
X3544252Y1368496D01*
Y1322748D01*
X3591748D01*
Y1322748D01*
X3601258Y1321566D01*
Y1308434D01*
X3591748Y1307252D01*
X3591258Y1307252D01*
X3544252D01*
Y1261504D01*
X3553745D01*
Y1250962D01*
X3551928Y1248243D01*
X3550686Y1242000D01*
X3551928Y1235757D01*
X3555465Y1230465D01*
X3558057Y1228732D01*
X3555024Y1218732D01*
X3529780D01*
Y1169268D01*
X3557783D01*
X3569675Y1157376D01*
Y932433D01*
X3526496D01*
Y890843D01*
X3526496Y890843D01*
Y887157D01*
X3526496D01*
X3526496Y880842D01*
Y845567D01*
X3577929D01*
Y860593D01*
X3592302Y874966D01*
X3595175Y879266D01*
X3596184Y884339D01*
Y1162866D01*
X3595175Y1167938D01*
X3592302Y1172239D01*
X3569402Y1195139D01*
Y1215968D01*
X3569402Y1218384D01*
X3571552Y1223168D01*
X3573440Y1227060D01*
X3578535Y1230465D01*
X3582072Y1235757D01*
X3583314Y1242000D01*
X3582072Y1248243D01*
X3580255Y1250962D01*
Y1261504D01*
X3591258D01*
X3591712Y1261504D01*
X3601258Y1260411D01*
X3601295Y1260411D01*
X3614745D01*
Y1249962D01*
X3612928Y1247243D01*
X3611686Y1241000D01*
X3612928Y1234757D01*
X3616465Y1229465D01*
X3621757Y1225928D01*
X3628000Y1224687D01*
X3634243Y1225928D01*
X3639535Y1229465D01*
X3643072Y1234757D01*
X3644314Y1241000D01*
X3643072Y1247243D01*
X3641255Y1249962D01*
Y1260411D01*
X3658597D01*
Y1266119D01*
X3662268Y1274598D01*
X3668597Y1274598D01*
X3711732D01*
Y1284155D01*
X3730000D01*
Y1250000D01*
X3826000D01*
Y1346000D01*
X3730000D01*
Y1310664D01*
X3711732D01*
Y1314220D01*
X3671370D01*
X3668031Y1320000D01*
X3671370Y1325780D01*
X3711732D01*
Y1365401D01*
X3662268D01*
X3658597Y1370899D01*
Y1370899D01*
X3635408D01*
X3631581Y1380138D01*
X3670372Y1418929D01*
X3673246Y1423229D01*
X3674255Y1428302D01*
Y1446664D01*
X3674708Y1446754D01*
X3678018Y1448966D01*
X3680230Y1452276D01*
X3681007Y1456181D01*
X3690993D01*
X3691770Y1452276D01*
X3693982Y1448966D01*
X3697292Y1446754D01*
X3701197Y1445977D01*
X3720803D01*
X3724708Y1446754D01*
X3728018Y1448966D01*
X3730230Y1452276D01*
X3731007Y1456181D01*
Y1509252D01*
X3730230Y1513157D01*
X3728018Y1516467D01*
X3725255Y1518314D01*
Y1543541D01*
X3728072Y1547757D01*
X3729314Y1554000D01*
X3728072Y1560243D01*
X3724535Y1565535D01*
X3719243Y1569072D01*
X3713000Y1570313D01*
X3706757Y1569072D01*
X3701465Y1565535D01*
X3697928Y1560243D01*
X3696686Y1554000D01*
X3697928Y1547757D01*
X3698745Y1546534D01*
Y1518968D01*
X3697292Y1518679D01*
X3693982Y1516467D01*
X3691770Y1513157D01*
X3690993Y1509252D01*
X3681007D01*
X3680230Y1513157D01*
X3678018Y1516467D01*
X3674708Y1518679D01*
X3670803Y1519456D01*
X3651197D01*
X3647292Y1518679D01*
X3643982Y1516467D01*
X3641770Y1513157D01*
X3640993Y1509252D01*
X3631007D01*
X3630230Y1513157D01*
X3628018Y1516467D01*
X3624708Y1518679D01*
X3620803Y1519456D01*
X3601197D01*
X3597292Y1518679D01*
X3593982Y1516467D01*
X3591770Y1513157D01*
X3590993Y1509252D01*
X3581007D01*
X3580230Y1513157D01*
X3578018Y1516467D01*
X3574708Y1518679D01*
X3570803Y1519456D01*
X3551197D01*
X3547292Y1518679D01*
X3543982Y1516467D01*
X3541770Y1513157D01*
X3540993Y1509252D01*
Y1493491D01*
X3507780D01*
Y1527606D01*
X3464221D01*
Y1527606D01*
X3455584Y1530899D01*
X3452072Y1533246D01*
X3447000Y1534255D01*
X3437401D01*
Y1538732D01*
X3397780D01*
Y1489268D01*
X3404336D01*
Y1466409D01*
X3405345Y1461337D01*
X3408218Y1457037D01*
X3444745Y1420510D01*
Y1341526D01*
X3434745Y1341035D01*
X3434121Y1347370D01*
X3430805Y1358303D01*
X3425419Y1368379D01*
X3418171Y1377211D01*
X3409340Y1384458D01*
X3399264Y1389844D01*
X3388331Y1393161D01*
X3376961Y1394281D01*
X3365591Y1393161D01*
X3354658Y1389844D01*
X3344582Y1384458D01*
X3335750Y1377211D01*
X3328502Y1368379D01*
X3323116Y1358303D01*
X3319800Y1347370D01*
X3318680Y1336000D01*
Y1236000D01*
X3318875Y1234019D01*
X3309812Y1224018D01*
X3190780D01*
Y1228606D01*
X3147220D01*
Y1191062D01*
X3135748D01*
Y1202252D01*
X3088252D01*
Y1156504D01*
X3135748D01*
Y1164552D01*
X3147220D01*
Y1163394D01*
X3190780D01*
Y1164552D01*
X3202174D01*
Y1014494D01*
X3190924Y1003244D01*
X3152331D01*
Y987830D01*
X3138916D01*
X3093971Y1032774D01*
X3089671Y1035647D01*
X3084598Y1036656D01*
X3083835D01*
Y1043213D01*
X3020591D01*
Y1007811D01*
X3018591D01*
Y991000D01*
X3052213D01*
Y981000D01*
X3018591D01*
Y970500D01*
X3008591Y966358D01*
X2982576Y992372D01*
X2980753Y993591D01*
X2983680Y1003591D01*
X2985409D01*
Y1043213D01*
X2922165D01*
Y1021657D01*
X2912927Y1017831D01*
X2802268Y1128489D01*
X2797968Y1131362D01*
X2792896Y1132371D01*
X2702374D01*
X2394000Y1440745D01*
X2398142Y1450745D01*
X2970014D01*
X3090252Y1330507D01*
Y1303504D01*
X3098745D01*
Y1263496D01*
X3088252D01*
Y1217748D01*
X3135748D01*
Y1263496D01*
X3125255D01*
Y1303504D01*
X3137748D01*
Y1349252D01*
X3113548D01*
X3110918Y1352748D01*
X3115907Y1362748D01*
X3139748D01*
Y1382622D01*
X3114000D01*
X3087188D01*
X3079013Y1379236D01*
X2984876Y1473372D01*
X2980576Y1476246D01*
X2975504Y1477255D01*
X2389490D01*
X2191872Y1674872D01*
X2187572Y1677746D01*
X2182500Y1678755D01*
X2086509D01*
X2079265Y1688755D01*
X2079314Y1689000D01*
X2078072Y1695243D01*
X2074535Y1700535D01*
X2069243Y1704072D01*
X2064008Y1705113D01*
X2062686Y1706435D01*
X2062894Y1716684D01*
X2063706Y1718706D01*
X2064008Y1719008D01*
X2069243Y1720050D01*
X2074535Y1723586D01*
X2078072Y1728879D01*
X2079314Y1735121D01*
X2078072Y1741364D01*
X2074535Y1746657D01*
X2069243Y1750193D01*
X2063000Y1751435D01*
X2056757Y1750193D01*
X2051050Y1758407D01*
X2058473Y1765830D01*
X2063000Y1764929D01*
X2069243Y1766171D01*
X2074535Y1769707D01*
X2078072Y1775000D01*
X2079314Y1781243D01*
X2078072Y1787486D01*
X2074535Y1792778D01*
X2069243Y1796314D01*
X2063000Y1797556D01*
X2056757Y1796314D01*
X2053570Y1794185D01*
X2050069Y1793489D01*
X2045769Y1790615D01*
X2027196Y1772042D01*
X1990241D01*
X1989401Y1773299D01*
X1985453Y1775937D01*
X1980795Y1776864D01*
X1965639D01*
X1956428Y1778741D01*
X1955389Y1784138D01*
X1956668Y1791484D01*
X1957604Y1796189D01*
Y1803000D01*
D02*
G37*
G36*
X946472Y1788976D02*
X928677D01*
Y1763307D01*
X946472D01*
Y1788976D01*
D02*
G37*
G36*
X918677D02*
X900882D01*
Y1763307D01*
X918677D01*
Y1788976D01*
D02*
G37*
G36*
X70000Y1824851D02*
X60203Y1823562D01*
X51074Y1819780D01*
X43235Y1813765D01*
X37220Y1805926D01*
X33438Y1796797D01*
X32149Y1787000D01*
X33438Y1777203D01*
X37220Y1768074D01*
X43235Y1760235D01*
X51074Y1754220D01*
X60203Y1750438D01*
X70000Y1749149D01*
X79797Y1750438D01*
X88926Y1754220D01*
X96765Y1760235D01*
X102780Y1768074D01*
X106561Y1777203D01*
X107851Y1787000D01*
X106561Y1796797D01*
X102780Y1805926D01*
X96765Y1813765D01*
X88926Y1819780D01*
X79797Y1823562D01*
X70000Y1824851D01*
D02*
G37*
G36*
X946472Y1753307D02*
X928677D01*
Y1727638D01*
X946472D01*
Y1753307D01*
D02*
G37*
G36*
X918677D02*
X900882D01*
Y1727638D01*
X918677D01*
Y1753307D01*
D02*
G37*
G36*
X1889260Y1723766D02*
X1867685D01*
Y1688985D01*
X1902466D01*
Y1710559D01*
X1901461Y1715613D01*
X1898598Y1719898D01*
X1894314Y1722760D01*
X1889260Y1723766D01*
D02*
G37*
G36*
X1790834D02*
X1769260D01*
Y1688985D01*
X1804041D01*
Y1710559D01*
X1803036Y1715613D01*
X1800173Y1719898D01*
X1795888Y1722760D01*
X1790834Y1723766D01*
D02*
G37*
G36*
X1692409D02*
X1670835D01*
Y1688985D01*
X1705616D01*
Y1710559D01*
X1704611Y1715613D01*
X1701748Y1719898D01*
X1697463Y1722760D01*
X1692409Y1723766D01*
D02*
G37*
G36*
X1857685D02*
X1836110D01*
X1831056Y1722760D01*
X1826772Y1719898D01*
X1823909Y1715613D01*
X1822904Y1710559D01*
Y1688985D01*
X1857685D01*
Y1723766D01*
D02*
G37*
G36*
X1759260D02*
X1737685D01*
X1732631Y1722760D01*
X1728347Y1719898D01*
X1725484Y1715613D01*
X1724478Y1710559D01*
Y1688985D01*
X1759260D01*
Y1723766D01*
D02*
G37*
G36*
X1660835D02*
X1639260D01*
X1634206Y1722760D01*
X1629921Y1719898D01*
X1627059Y1715613D01*
X1626053Y1710559D01*
Y1688985D01*
X1660835D01*
Y1723766D01*
D02*
G37*
G36*
X70000Y1724851D02*
X60203Y1723562D01*
X51074Y1719780D01*
X43235Y1713765D01*
X37220Y1705926D01*
X33438Y1696797D01*
X32149Y1687000D01*
X33438Y1677203D01*
X37220Y1668074D01*
X43235Y1660235D01*
X51074Y1654220D01*
X60203Y1650438D01*
X70000Y1649149D01*
X79797Y1650438D01*
X88926Y1654220D01*
X96765Y1660235D01*
X102780Y1668074D01*
X106561Y1677203D01*
X107851Y1687000D01*
X106561Y1696797D01*
X102780Y1705926D01*
X96765Y1713765D01*
X88926Y1719780D01*
X79797Y1723562D01*
X70000Y1724851D01*
D02*
G37*
G36*
X1902466Y1678985D02*
X1867685D01*
Y1644203D01*
X1889260D01*
X1894314Y1645208D01*
X1898598Y1648071D01*
X1901461Y1652356D01*
X1902466Y1657410D01*
Y1678985D01*
D02*
G37*
G36*
X1857685D02*
X1822904D01*
Y1657410D01*
X1823909Y1652356D01*
X1826772Y1648071D01*
X1831056Y1645208D01*
X1836110Y1644203D01*
X1857685D01*
Y1678985D01*
D02*
G37*
G36*
X1804041D02*
X1769260D01*
Y1644203D01*
X1790834D01*
X1795888Y1645208D01*
X1800173Y1648071D01*
X1803036Y1652356D01*
X1804041Y1657410D01*
Y1678985D01*
D02*
G37*
G36*
X1759260D02*
X1724478D01*
Y1657410D01*
X1725484Y1652356D01*
X1728347Y1648071D01*
X1732631Y1645208D01*
X1737685Y1644203D01*
X1759260D01*
Y1678985D01*
D02*
G37*
G36*
X1705616D02*
X1670835D01*
Y1644203D01*
X1692409D01*
X1697463Y1645208D01*
X1701748Y1648071D01*
X1704611Y1652356D01*
X1705616Y1657410D01*
Y1678985D01*
D02*
G37*
G36*
X1660835D02*
X1626053D01*
Y1657410D01*
X1627059Y1652356D01*
X1629921Y1648071D01*
X1634206Y1645208D01*
X1639260Y1644203D01*
X1660835D01*
Y1678985D01*
D02*
G37*
G36*
X3053669Y1667244D02*
X2996331D01*
Y1609906D01*
Y1597633D01*
X2981748D01*
Y1607252D01*
X2934252D01*
Y1561504D01*
X2981748D01*
Y1571123D01*
X2996331D01*
Y1556756D01*
X3010745D01*
Y1527962D01*
X3008928Y1525243D01*
X3007686Y1519000D01*
X3008928Y1512757D01*
X3012465Y1507465D01*
X3017757Y1503928D01*
X3024000Y1502687D01*
X3030243Y1503928D01*
X3035535Y1507465D01*
X3039072Y1512757D01*
X3040314Y1519000D01*
X3039072Y1525243D01*
X3037255Y1527962D01*
Y1556756D01*
X3053669D01*
Y1609906D01*
Y1622771D01*
X3066879D01*
X3080139Y1609512D01*
X3085266Y1606086D01*
X3091314Y1604883D01*
X3140437D01*
X3143000Y1604373D01*
X3149243Y1605615D01*
X3154535Y1609151D01*
X3158072Y1614444D01*
X3159314Y1620687D01*
X3158072Y1626929D01*
X3154535Y1632222D01*
X3149243Y1635758D01*
X3143000Y1637000D01*
X3140437Y1636490D01*
X3097860D01*
X3084600Y1649750D01*
X3079473Y1653176D01*
X3073425Y1654379D01*
X3053669D01*
Y1667244D01*
D02*
G37*
G36*
X1692409Y1625340D02*
X1670835D01*
Y1590559D01*
X1705616D01*
Y1612134D01*
X1704611Y1617188D01*
X1701748Y1621472D01*
X1697463Y1624335D01*
X1692409Y1625340D01*
D02*
G37*
G36*
X1889260D02*
X1867685D01*
Y1590559D01*
X1902466D01*
Y1612134D01*
X1901461Y1617188D01*
X1898598Y1621472D01*
X1894314Y1624335D01*
X1889260Y1625340D01*
D02*
G37*
G36*
X1790834D02*
X1769260D01*
Y1590559D01*
X1804041D01*
Y1612134D01*
X1803036Y1617188D01*
X1800173Y1621472D01*
X1795888Y1624335D01*
X1790834Y1625340D01*
D02*
G37*
G36*
X1857685D02*
X1836110D01*
X1831056Y1624335D01*
X1826772Y1621472D01*
X1823909Y1617188D01*
X1822904Y1612134D01*
Y1590559D01*
X1857685D01*
Y1625340D01*
D02*
G37*
G36*
X1660835D02*
X1639260D01*
X1634206Y1624335D01*
X1629921Y1621472D01*
X1627059Y1617188D01*
X1626053Y1612134D01*
Y1590559D01*
X1660835D01*
Y1625340D01*
D02*
G37*
G36*
X1759260D02*
X1737685D01*
X1732631Y1624335D01*
X1728347Y1621472D01*
X1725484Y1617188D01*
X1724478Y1612134D01*
Y1590559D01*
X1759260D01*
Y1625340D01*
D02*
G37*
G36*
X1902466Y1580559D02*
X1867685D01*
Y1545778D01*
X1889260D01*
X1894314Y1546783D01*
X1898598Y1549646D01*
X1901461Y1553930D01*
X1902466Y1558984D01*
Y1580559D01*
D02*
G37*
G36*
X1857685D02*
X1822904D01*
Y1558984D01*
X1823909Y1553930D01*
X1826772Y1549646D01*
X1831056Y1546783D01*
X1836110Y1545778D01*
X1857685D01*
Y1580559D01*
D02*
G37*
G36*
X1804041D02*
X1769260D01*
Y1545778D01*
X1790834D01*
X1795888Y1546783D01*
X1800173Y1549646D01*
X1803036Y1553930D01*
X1804041Y1558984D01*
Y1580559D01*
D02*
G37*
G36*
X1759260D02*
X1724478D01*
Y1558984D01*
X1725484Y1553930D01*
X1728347Y1549646D01*
X1732631Y1546783D01*
X1737685Y1545778D01*
X1759260D01*
Y1580559D01*
D02*
G37*
G36*
X1705616D02*
X1670835D01*
Y1545778D01*
X1692409D01*
X1697463Y1546783D01*
X1701748Y1549646D01*
X1704611Y1553930D01*
X1705616Y1558984D01*
Y1580559D01*
D02*
G37*
G36*
X1660835D02*
X1626053D01*
Y1558984D01*
X1627059Y1553930D01*
X1629921Y1549646D01*
X1634206Y1546783D01*
X1639260Y1545778D01*
X1660835D01*
Y1580559D01*
D02*
G37*
G36*
X789835Y1545213D02*
X726591D01*
Y1538799D01*
X691409D01*
Y1545213D01*
X628165D01*
Y1525840D01*
X625596Y1525328D01*
X621249Y1522424D01*
X613552Y1514727D01*
X610753Y1510537D01*
X594335D01*
X593259Y1511613D01*
X588912Y1514517D01*
X583785Y1515537D01*
X535822D01*
X534467Y1516443D01*
X532524Y1516829D01*
Y1521689D01*
X504138D01*
X497823Y1521689D01*
X487823Y1521689D01*
X459437D01*
Y1516456D01*
X458002Y1516171D01*
X456631Y1515255D01*
X444981D01*
X439909Y1514246D01*
X435609Y1511372D01*
X389787Y1465551D01*
X386914Y1461251D01*
X385905Y1456179D01*
Y1320951D01*
X357298Y1292345D01*
X347535Y1293535D01*
X342243Y1297072D01*
X336000Y1298313D01*
X329757Y1297072D01*
X324465Y1293535D01*
X320928Y1288243D01*
X319687Y1282000D01*
X320928Y1275757D01*
X324465Y1270465D01*
Y1267535D01*
X320928Y1262243D01*
X319687Y1256000D01*
X320928Y1249757D01*
X324465Y1244465D01*
X329757Y1240928D01*
X336000Y1239687D01*
X342243Y1240928D01*
X347535Y1244465D01*
X347687Y1244691D01*
X348747Y1244902D01*
X351506Y1246745D01*
X369154D01*
X374227Y1247754D01*
X378527Y1250628D01*
X426532Y1298633D01*
X426749Y1298957D01*
X436749Y1295924D01*
Y1291000D01*
X492039D01*
Y1395798D01*
X485277Y1395132D01*
X473967Y1391701D01*
X463544Y1386130D01*
X454408Y1378632D01*
X446910Y1369495D01*
X441338Y1359072D01*
X440414Y1356026D01*
X430414Y1357510D01*
Y1443233D01*
X450039Y1462857D01*
X459437Y1464311D01*
Y1464311D01*
X487823D01*
X494138Y1464311D01*
X504138Y1464311D01*
X532524D01*
Y1469171D01*
X534467Y1469557D01*
X535822Y1470463D01*
X570664D01*
X571740Y1469387D01*
X576087Y1466483D01*
X581214Y1465463D01*
X610753D01*
X613552Y1461273D01*
X621249Y1453576D01*
X625596Y1450672D01*
X628165Y1450160D01*
Y1430787D01*
X691409D01*
Y1437201D01*
X726591D01*
Y1430787D01*
X789835D01*
Y1450160D01*
X792404Y1450672D01*
X796751Y1453576D01*
X799229Y1456054D01*
X812604Y1456822D01*
X820603Y1448823D01*
Y1124428D01*
X821622Y1119301D01*
X824527Y1114955D01*
X1002235Y937247D01*
X1006581Y934343D01*
X1011708Y933323D01*
X1458572D01*
X1463699Y934343D01*
X1468045Y937247D01*
X1591333Y1060535D01*
X1594238Y1064882D01*
X1595257Y1070008D01*
Y1246031D01*
X1603000Y1254687D01*
X1608251Y1255731D01*
X1612863Y1252205D01*
X1616331Y1248637D01*
Y1225425D01*
X1647000D01*
Y1220425D01*
X1652000D01*
Y1189756D01*
X1697500D01*
Y1220425D01*
X1707500D01*
Y1189756D01*
X1753000D01*
Y1220425D01*
X1763000D01*
Y1189756D01*
X1813000D01*
Y1220425D01*
X1823000D01*
Y1189756D01*
X1845745D01*
Y1159962D01*
X1843928Y1157243D01*
X1842687Y1151000D01*
X1843928Y1144757D01*
X1847465Y1139465D01*
X1852757Y1135928D01*
X1859000Y1134687D01*
X1865243Y1135928D01*
X1870535Y1139465D01*
X1874072Y1144757D01*
X1875313Y1151000D01*
X1874072Y1157243D01*
X1872255Y1159962D01*
Y1186756D01*
X1893000D01*
Y1217425D01*
X1903000D01*
Y1186756D01*
X1950000D01*
Y1217425D01*
X1960000D01*
Y1186756D01*
X2006000D01*
Y1217425D01*
X2011000D01*
Y1222425D01*
X2041669D01*
Y1248094D01*
X2041669D01*
X2043089Y1255099D01*
X2052757Y1257928D01*
X2059000Y1256687D01*
X2065243Y1257928D01*
X2070535Y1261465D01*
X2074072Y1266757D01*
X2075314Y1273000D01*
X2074072Y1279243D01*
X2070535Y1284535D01*
X2065243Y1288072D01*
X2059000Y1289313D01*
X2052757Y1288072D01*
X2049669Y1286008D01*
X2045927Y1287050D01*
X2039669Y1293068D01*
Y1299244D01*
X1908007D01*
X1907246Y1303072D01*
X1904372Y1307372D01*
X1891372Y1320372D01*
X1887072Y1323246D01*
X1882000Y1324255D01*
X1798782D01*
X1793025Y1329797D01*
X1793538Y1339640D01*
X1795961Y1341259D01*
X1800941Y1340063D01*
X1805598Y1339136D01*
X1817409D01*
X1822067Y1340063D01*
X1826015Y1342701D01*
X1828488D01*
X1832437Y1340063D01*
X1837094Y1339136D01*
X1848906D01*
X1853563Y1340063D01*
X1857512Y1342701D01*
X1859985D01*
X1863933Y1340063D01*
X1868591Y1339136D01*
X1880401D01*
X1885059Y1340063D01*
X1889007Y1342701D01*
X1891481D01*
X1895429Y1340063D01*
X1900087Y1339136D01*
X1911898D01*
X1916555Y1340063D01*
X1920504Y1342701D01*
X1922977D01*
X1926925Y1340063D01*
X1931583Y1339136D01*
X1943394D01*
X1948051Y1340063D01*
X1952000Y1342701D01*
X1954638Y1346650D01*
X1955564Y1351307D01*
Y1374929D01*
X1954638Y1379587D01*
X1952000Y1383535D01*
X1948051Y1386174D01*
X1943394Y1387100D01*
X1931583D01*
X1926925Y1386174D01*
X1922977Y1383535D01*
X1920504D01*
X1916555Y1386174D01*
X1911898Y1387100D01*
X1900087D01*
X1895429Y1386174D01*
X1891481Y1383535D01*
X1889007D01*
X1885059Y1386174D01*
X1880401Y1387100D01*
X1868591D01*
X1863933Y1386174D01*
X1859985Y1383535D01*
X1857512D01*
X1853563Y1386174D01*
X1848906Y1387100D01*
X1837094D01*
X1832437Y1386174D01*
X1828488Y1383535D01*
X1826015D01*
X1822067Y1386174D01*
X1817409Y1387100D01*
X1805598D01*
X1800941Y1386174D01*
X1795961Y1384977D01*
X1791351Y1388057D01*
X1785913Y1389139D01*
X1785008D01*
Y1363118D01*
X1775008D01*
Y1389139D01*
X1774102D01*
X1768664Y1388057D01*
X1764054Y1384977D01*
X1759075Y1386174D01*
X1754417Y1387100D01*
X1742606D01*
X1737949Y1386174D01*
X1734000Y1383535D01*
X1731527D01*
X1727579Y1386174D01*
X1722921Y1387100D01*
X1711110D01*
X1706453Y1386174D01*
X1702504Y1383535D01*
X1700031D01*
X1696083Y1386174D01*
X1691425Y1387100D01*
X1679614D01*
X1674957Y1386174D01*
X1669977Y1384977D01*
X1665367Y1388057D01*
X1659929Y1389139D01*
X1659024D01*
Y1363118D01*
X1649024D01*
Y1389139D01*
X1648118D01*
X1642680Y1388057D01*
X1638070Y1384977D01*
X1633091Y1386174D01*
X1628433Y1387100D01*
X1616622D01*
X1611964Y1386174D01*
X1608016Y1383535D01*
X1605543D01*
X1601595Y1386174D01*
X1596937Y1387100D01*
X1585126D01*
X1580468Y1386174D01*
X1576520Y1383535D01*
X1573882Y1379587D01*
X1572955Y1374929D01*
Y1351307D01*
X1573882Y1346650D01*
X1576520Y1342701D01*
X1580468Y1340063D01*
X1583515Y1339457D01*
X1584242Y1338368D01*
Y1326937D01*
X1554107Y1296801D01*
X1551203Y1292455D01*
X1550183Y1287328D01*
Y1083130D01*
X1445451Y978397D01*
X1024829D01*
X865677Y1137549D01*
Y1461944D01*
X864657Y1467071D01*
X861753Y1471418D01*
X826557Y1506613D01*
X822211Y1509517D01*
X817084Y1510537D01*
X807247D01*
X804448Y1514727D01*
X796751Y1522424D01*
X792404Y1525328D01*
X789835Y1525840D01*
Y1545213D01*
D02*
G37*
G36*
X2919748Y1608252D02*
X2872252D01*
Y1562504D01*
X2880196D01*
Y1522563D01*
X2879686Y1520000D01*
X2880928Y1513757D01*
X2884465Y1508465D01*
X2889757Y1504928D01*
X2896000Y1503687D01*
X2902243Y1504928D01*
X2907535Y1508465D01*
X2911072Y1513757D01*
X2912314Y1520000D01*
X2911804Y1522563D01*
Y1562504D01*
X2919748D01*
Y1608252D01*
D02*
G37*
G36*
X1692409Y1526915D02*
X1670835D01*
Y1492134D01*
X1705616D01*
Y1513709D01*
X1704611Y1518763D01*
X1701748Y1523047D01*
X1697463Y1525910D01*
X1692409Y1526915D01*
D02*
G37*
G36*
X1889260D02*
X1867685D01*
Y1492134D01*
X1902466D01*
Y1513709D01*
X1901461Y1518763D01*
X1898598Y1523047D01*
X1894314Y1525910D01*
X1889260Y1526915D01*
D02*
G37*
G36*
X1790834D02*
X1769260D01*
Y1492134D01*
X1804041D01*
Y1513709D01*
X1803036Y1518763D01*
X1800173Y1523047D01*
X1795888Y1525910D01*
X1790834Y1526915D01*
D02*
G37*
G36*
X1857685D02*
X1836110D01*
X1831056Y1525910D01*
X1826772Y1523047D01*
X1823909Y1518763D01*
X1822904Y1513709D01*
Y1492134D01*
X1857685D01*
Y1526915D01*
D02*
G37*
G36*
X1660835D02*
X1639260D01*
X1634206Y1525910D01*
X1629921Y1523047D01*
X1627059Y1518763D01*
X1626053Y1513709D01*
Y1492134D01*
X1660835D01*
Y1526915D01*
D02*
G37*
G36*
X1759260D02*
X1737685D01*
X1732631Y1525910D01*
X1728347Y1523047D01*
X1725484Y1518763D01*
X1724478Y1513709D01*
Y1492134D01*
X1759260D01*
Y1526915D01*
D02*
G37*
G36*
X1902466Y1482134D02*
X1867685D01*
Y1447353D01*
X1889260D01*
X1894314Y1448358D01*
X1898598Y1451221D01*
X1901461Y1455505D01*
X1902466Y1460559D01*
Y1482134D01*
D02*
G37*
G36*
X1857685D02*
X1822904D01*
Y1460559D01*
X1823909Y1455505D01*
X1826772Y1451221D01*
X1831056Y1448358D01*
X1836110Y1447353D01*
X1857685D01*
Y1482134D01*
D02*
G37*
G36*
X1804041D02*
X1769260D01*
Y1447353D01*
X1790834D01*
X1795888Y1448358D01*
X1800173Y1451221D01*
X1803036Y1455505D01*
X1804041Y1460559D01*
Y1482134D01*
D02*
G37*
G36*
X1759260D02*
X1724478D01*
Y1460559D01*
X1725484Y1455505D01*
X1728347Y1451221D01*
X1732631Y1448358D01*
X1737685Y1447353D01*
X1759260D01*
Y1482134D01*
D02*
G37*
G36*
X1705616D02*
X1670835D01*
Y1447353D01*
X1692409D01*
X1697463Y1448358D01*
X1701748Y1451221D01*
X1704611Y1455505D01*
X1705616Y1460559D01*
Y1482134D01*
D02*
G37*
G36*
X1660835D02*
X1626053D01*
Y1460559D01*
X1627059Y1455505D01*
X1629921Y1451221D01*
X1634206Y1448358D01*
X1639260Y1447353D01*
X1660835D01*
Y1482134D01*
D02*
G37*
G36*
X3266732Y1488220D02*
X3217268D01*
Y1448598D01*
X3227745D01*
Y1431962D01*
X3225928Y1429243D01*
X3224686Y1423000D01*
X3225928Y1416757D01*
X3229465Y1411465D01*
X3234757Y1407928D01*
X3241000Y1406687D01*
X3247243Y1407928D01*
X3252535Y1411465D01*
X3256072Y1416757D01*
X3257314Y1423000D01*
X3256072Y1429243D01*
X3254255Y1431962D01*
Y1448598D01*
X3266732D01*
Y1488220D01*
D02*
G37*
G36*
X3139748Y1412496D02*
X3119000D01*
Y1392622D01*
X3139748D01*
Y1412496D01*
D02*
G37*
G36*
X3109000D02*
X3088252D01*
Y1392622D01*
X3109000D01*
Y1412496D01*
D02*
G37*
G36*
X127118Y1423178D02*
X107433D01*
X99178Y1422092D01*
X91486Y1418905D01*
X84880Y1413837D01*
X79811Y1407231D01*
X76625Y1399539D01*
X75538Y1391284D01*
X76625Y1383028D01*
X79811Y1375336D01*
X84880Y1368730D01*
X91486Y1363662D01*
X99178Y1360475D01*
X107433Y1359389D01*
X127118D01*
X135373Y1360475D01*
X143066Y1363662D01*
X149671Y1368730D01*
X154740Y1375336D01*
X157926Y1383028D01*
X159013Y1391284D01*
X157926Y1399539D01*
X154740Y1407231D01*
X149671Y1413837D01*
X143066Y1418905D01*
X135373Y1422092D01*
X127118Y1423178D01*
D02*
G37*
G36*
X244441Y1407396D02*
X228693D01*
X221466Y1406445D01*
X214731Y1403655D01*
X208948Y1399218D01*
X204510Y1393434D01*
X201721Y1386700D01*
X200769Y1379472D01*
X201721Y1372245D01*
X204510Y1365510D01*
X208948Y1359727D01*
X214731Y1355290D01*
X221466Y1352500D01*
X228693Y1351549D01*
X244441D01*
X251668Y1352500D01*
X258403Y1355290D01*
X264186Y1359727D01*
X268624Y1365510D01*
X271413Y1372245D01*
X272365Y1379472D01*
X271413Y1386700D01*
X268624Y1393434D01*
X264186Y1399218D01*
X258403Y1403655D01*
X251668Y1406445D01*
X244441Y1407396D01*
D02*
G37*
G36*
X502039Y1395798D02*
Y1291000D01*
X557330D01*
Y1336000D01*
X556171Y1347762D01*
X552740Y1359072D01*
X547169Y1369495D01*
X539671Y1378632D01*
X530535Y1386130D01*
X520111Y1391701D01*
X508801Y1395132D01*
X502039Y1395798D01*
D02*
G37*
G36*
X1642000Y1215425D02*
X1616331D01*
Y1189756D01*
X1642000D01*
Y1215425D01*
D02*
G37*
G36*
X2041669Y1212425D02*
X2016000D01*
Y1186756D01*
X2041669D01*
Y1212425D01*
D02*
G37*
G36*
X557330Y1281000D02*
X502039D01*
Y1176202D01*
X508801Y1176868D01*
X520111Y1180299D01*
X530535Y1185870D01*
X539671Y1193368D01*
X547169Y1202505D01*
X552740Y1212928D01*
X556171Y1224238D01*
X557330Y1236000D01*
Y1281000D01*
D02*
G37*
G36*
X492039D02*
X436749D01*
Y1236000D01*
X437908Y1224238D01*
X441338Y1212928D01*
X446910Y1202505D01*
X454408Y1193368D01*
X463544Y1185870D01*
X473967Y1180299D01*
X485277Y1176868D01*
X492039Y1176202D01*
Y1281000D01*
D02*
G37*
G36*
X1422039Y1175913D02*
X1411528D01*
Y1162843D01*
X1422039D01*
Y1175913D01*
D02*
G37*
G36*
X244441Y1216451D02*
X228693D01*
X221466Y1215500D01*
X214731Y1212710D01*
X208948Y1208273D01*
X204510Y1202490D01*
X201721Y1195755D01*
X200769Y1188528D01*
X201721Y1181300D01*
X204510Y1174566D01*
X208948Y1168782D01*
X214731Y1164345D01*
X221466Y1161555D01*
X228693Y1160604D01*
X244441D01*
X251668Y1161555D01*
X258403Y1164345D01*
X264186Y1168782D01*
X268624Y1174566D01*
X271413Y1181300D01*
X272365Y1188528D01*
X271413Y1195755D01*
X268624Y1202490D01*
X264186Y1208273D01*
X258403Y1212710D01*
X251668Y1215500D01*
X244441Y1216451D01*
D02*
G37*
G36*
X2831685Y1419411D02*
X2810815Y1417769D01*
X2790459Y1412882D01*
X2771117Y1404870D01*
X2753268Y1393932D01*
X2737349Y1380336D01*
X2723753Y1364417D01*
X2712815Y1346568D01*
X2704803Y1327226D01*
X2699916Y1306870D01*
X2698274Y1286000D01*
X2699916Y1265130D01*
X2704803Y1244774D01*
X2712815Y1225432D01*
X2723753Y1207583D01*
X2737349Y1191664D01*
X2753268Y1178068D01*
X2771117Y1167130D01*
X2790459Y1159118D01*
X2810815Y1154231D01*
X2831685Y1152589D01*
X2852555Y1154231D01*
X2872911Y1159118D01*
X2892253Y1167130D01*
X2910102Y1178068D01*
X2926021Y1191664D01*
X2939617Y1207583D01*
X2950555Y1225432D01*
X2958567Y1244774D01*
X2963454Y1265130D01*
X2965096Y1286000D01*
X2963454Y1306870D01*
X2958567Y1327226D01*
X2950555Y1346568D01*
X2939617Y1364417D01*
X2926021Y1380336D01*
X2910102Y1393932D01*
X2892253Y1404870D01*
X2872911Y1412882D01*
X2852555Y1417769D01*
X2831685Y1419411D01*
D02*
G37*
G36*
X1042315D02*
X1021445Y1417769D01*
X1001089Y1412882D01*
X981747Y1404870D01*
X963898Y1393932D01*
X947979Y1380336D01*
X934383Y1364417D01*
X923445Y1346568D01*
X915433Y1327226D01*
X910546Y1306870D01*
X908904Y1286000D01*
X910546Y1265130D01*
X915433Y1244774D01*
X923445Y1225432D01*
X934383Y1207583D01*
X947979Y1191664D01*
X963898Y1178068D01*
X981747Y1167130D01*
X1001089Y1159118D01*
X1021445Y1154231D01*
X1042315Y1152589D01*
X1063185Y1154231D01*
X1083541Y1159118D01*
X1102882Y1167130D01*
X1120732Y1178068D01*
X1136651Y1191664D01*
X1150247Y1207583D01*
X1161185Y1225432D01*
X1169197Y1244774D01*
X1174084Y1265130D01*
X1175726Y1286000D01*
X1174084Y1306870D01*
X1169197Y1327226D01*
X1161185Y1346568D01*
X1150247Y1364417D01*
X1136651Y1380336D01*
X1120732Y1393932D01*
X1102882Y1404870D01*
X1083541Y1412882D01*
X1063185Y1417769D01*
X1042315Y1419411D01*
D02*
G37*
G36*
X127118Y1208611D02*
X107433D01*
X99178Y1207525D01*
X91486Y1204338D01*
X84880Y1199270D01*
X79811Y1192664D01*
X76625Y1184972D01*
X75538Y1176716D01*
X76625Y1168461D01*
X79811Y1160769D01*
X84880Y1154163D01*
X91486Y1149095D01*
X99178Y1145908D01*
X107433Y1144822D01*
X127118D01*
X135373Y1145908D01*
X143066Y1149095D01*
X149671Y1154163D01*
X154740Y1160769D01*
X157926Y1168461D01*
X159013Y1176716D01*
X157926Y1184972D01*
X154740Y1192664D01*
X149671Y1199270D01*
X143066Y1204338D01*
X135373Y1207525D01*
X127118Y1208611D01*
D02*
G37*
G36*
X521500Y1139500D02*
X498000D01*
Y1115500D01*
X521500D01*
Y1139500D01*
D02*
G37*
G36*
X488000D02*
X464500D01*
Y1115500D01*
X488000D01*
Y1139500D01*
D02*
G37*
G36*
X3795811Y1140850D02*
X3779000D01*
Y1113213D01*
X3795811D01*
Y1140850D01*
D02*
G37*
G36*
X3769000D02*
X3752189D01*
Y1113213D01*
X3769000D01*
Y1140850D01*
D02*
G37*
G36*
X3795811Y1103213D02*
X3779000D01*
Y1075575D01*
X3795811D01*
Y1103213D01*
D02*
G37*
G36*
X3769000D02*
X3752189D01*
Y1075575D01*
X3769000D01*
Y1103213D01*
D02*
G37*
G36*
X3708669Y1092244D02*
X3683000D01*
Y1066575D01*
X3708669D01*
Y1092244D01*
D02*
G37*
G36*
X3673000D02*
X3647331D01*
Y1066575D01*
X3673000D01*
Y1092244D01*
D02*
G37*
G36*
X521500Y1105500D02*
X493000D01*
X464500D01*
Y1087672D01*
X464500Y1081500D01*
X466500Y1072329D01*
Y1024500D01*
X519500D01*
Y1034196D01*
X551437D01*
X554000Y1033687D01*
X560243Y1034928D01*
X565535Y1038465D01*
X569072Y1043757D01*
X570313Y1050000D01*
X569072Y1056243D01*
X565535Y1061535D01*
X560243Y1065072D01*
X554000Y1066313D01*
X551437Y1065804D01*
X526216D01*
X520258Y1075804D01*
X521500Y1081500D01*
X521500Y1087672D01*
Y1105500D01*
D02*
G37*
G36*
X1417669Y1057425D02*
X1392000D01*
Y1031756D01*
X1417669D01*
Y1057425D01*
D02*
G37*
G36*
X1382000D02*
X1356331D01*
Y1031756D01*
X1382000D01*
Y1057425D01*
D02*
G37*
G36*
X3678000Y1061575D02*
D01*
Y1056575D01*
X3647331D01*
Y1030906D01*
X3649331D01*
Y1020255D01*
X3631962D01*
X3629243Y1022072D01*
X3623000Y1023313D01*
X3616757Y1022072D01*
X3611465Y1018535D01*
X3607928Y1013243D01*
X3606686Y1007000D01*
X3607928Y1000757D01*
X3611465Y995465D01*
X3616757Y991928D01*
X3623000Y990687D01*
X3629243Y991928D01*
X3631962Y993745D01*
X3649331D01*
Y979756D01*
X3706669D01*
Y992533D01*
X3716787D01*
Y979150D01*
X3756409D01*
Y1003557D01*
X3756853Y1005787D01*
X3756409Y1008018D01*
Y1040425D01*
X3716787D01*
X3708669Y1044969D01*
Y1056575D01*
X3678000D01*
Y1061575D01*
D02*
G37*
G36*
X2808425Y979669D02*
X2782756D01*
Y954000D01*
X2808425D01*
Y979669D01*
D02*
G37*
G36*
X70000Y1013851D02*
X60203Y1012562D01*
X51074Y1008780D01*
X43235Y1002765D01*
X37220Y994926D01*
X33438Y985797D01*
X32149Y976000D01*
X33438Y966203D01*
X37220Y957074D01*
X43235Y949235D01*
X51074Y943220D01*
X60203Y939438D01*
X70000Y938149D01*
X79797Y939438D01*
X88926Y943220D01*
X96765Y949235D01*
X102780Y957074D01*
X106561Y966203D01*
X107851Y976000D01*
X106561Y985797D01*
X102780Y994926D01*
X96765Y1002765D01*
X88926Y1008780D01*
X79797Y1012562D01*
X70000Y1013851D01*
D02*
G37*
G36*
X3831213Y1040425D02*
X3791591D01*
Y979150D01*
X3791590D01*
X3795405Y969150D01*
X3785965Y959710D01*
X3782757Y959072D01*
X3777465Y955535D01*
X3773928Y950243D01*
X3772686Y944000D01*
X3773928Y937757D01*
X3777465Y932465D01*
X3782757Y928928D01*
X3789000Y927687D01*
X3795243Y928928D01*
X3800535Y932465D01*
X3804072Y937757D01*
X3804710Y940965D01*
X3824898Y961154D01*
X3827772Y965454D01*
X3828781Y970526D01*
Y979150D01*
X3831213D01*
Y1004064D01*
X3831647Y1004715D01*
X3832656Y1009787D01*
X3831647Y1014860D01*
X3831213Y1015510D01*
Y1040425D01*
D02*
G37*
G36*
X2808425Y944000D02*
X2782756D01*
Y918331D01*
X2808425D01*
Y944000D01*
D02*
G37*
G36*
X3211669Y916425D02*
X3186000D01*
Y890756D01*
X3211669D01*
Y916425D01*
D02*
G37*
G36*
X3176000D02*
X3150331D01*
Y890756D01*
X3176000D01*
Y916425D01*
D02*
G37*
G36*
X70000Y913851D02*
X60203Y912562D01*
X51074Y908780D01*
X43235Y902765D01*
X37220Y894926D01*
X33438Y885797D01*
X32149Y876000D01*
X33438Y866203D01*
X37220Y857074D01*
X43235Y849235D01*
X51074Y843220D01*
X60203Y839438D01*
X70000Y838149D01*
X79797Y839438D01*
X88926Y843220D01*
X96765Y849235D01*
X102780Y857074D01*
X106561Y866203D01*
X107851Y876000D01*
X106561Y885797D01*
X102780Y894926D01*
X96765Y902765D01*
X88926Y908780D01*
X79797Y912562D01*
X70000Y913851D01*
D02*
G37*
G36*
X1863000Y819500D02*
X1838000D01*
Y797000D01*
X1863000D01*
Y819500D01*
D02*
G37*
G36*
Y787000D02*
X1838000D01*
Y764500D01*
X1863000D01*
Y787000D01*
D02*
G37*
G36*
X2765220Y883732D02*
X2725598D01*
Y834268D01*
X2725598Y834268D01*
X2723661Y827787D01*
X2723661D01*
X2723661Y825070D01*
Y813406D01*
X2699965Y789710D01*
X2696757Y789072D01*
X2691465Y785535D01*
X2687928Y780243D01*
X2686686Y774000D01*
X2687928Y767757D01*
X2691465Y762465D01*
X2696757Y758928D01*
X2703000Y757687D01*
X2709243Y758928D01*
X2713661Y761881D01*
X2717880Y760873D01*
X2723661Y758123D01*
Y740921D01*
X2763283D01*
Y827787D01*
X2763284Y827787D01*
X2765221Y834268D01*
X2765221D01*
X2765220Y836985D01*
Y883732D01*
D02*
G37*
G36*
X2824339Y779354D02*
X2807528D01*
Y738921D01*
X2824339D01*
Y779354D01*
D02*
G37*
G36*
X2797528D02*
X2780717D01*
Y738921D01*
X2797528D01*
Y779354D01*
D02*
G37*
G36*
X3227496Y758748D02*
X3207622D01*
Y738000D01*
X3227496D01*
Y758748D01*
D02*
G37*
G36*
X3197622D02*
X3177748D01*
Y738000D01*
X3197622D01*
Y758748D01*
D02*
G37*
G36*
X1898000Y819500D02*
X1873000D01*
Y792000D01*
Y764500D01*
X1898000D01*
Y766500D01*
X1910367D01*
Y753732D01*
X1897780D01*
Y720987D01*
X1887780Y713591D01*
X1886220Y714068D01*
Y753732D01*
X1846599D01*
Y744255D01*
X1783962D01*
X1781243Y746072D01*
X1775000Y747313D01*
X1768757Y746072D01*
X1763465Y742535D01*
X1759928Y737243D01*
X1758687Y731000D01*
X1759928Y724757D01*
X1763465Y719465D01*
X1768757Y715928D01*
X1775000Y714687D01*
X1781243Y715928D01*
X1783962Y717745D01*
X1846599D01*
Y705500D01*
X1838500D01*
Y652500D01*
X1887500D01*
X1892500Y652500D01*
X1901517Y650127D01*
Y615866D01*
X1859811D01*
Y617866D01*
X1841032D01*
Y578339D01*
Y538811D01*
X1859811D01*
X1867060Y532170D01*
Y481434D01*
X1864928Y478243D01*
X1863687Y472000D01*
X1864928Y465757D01*
X1868465Y460465D01*
X1873757Y456928D01*
X1880000Y455687D01*
X1886243Y456928D01*
X1891535Y460465D01*
X1895072Y465757D01*
X1896313Y472000D01*
X1895072Y478243D01*
X1893570Y480491D01*
Y540811D01*
X1969732D01*
Y538811D01*
X1988512D01*
Y578339D01*
Y617866D01*
X1969732D01*
Y615866D01*
X1928026D01*
Y652500D01*
X1951500D01*
Y705500D01*
X1937402D01*
Y753732D01*
X1936877D01*
Y766500D01*
X1952000D01*
Y817500D01*
X1898000D01*
Y819500D01*
D02*
G37*
G36*
X2982409Y752213D02*
X2919165D01*
Y712591D01*
X2982409D01*
Y752213D01*
D02*
G37*
G36*
X3047000Y807313D02*
X3040757Y806072D01*
X3035465Y802535D01*
X3031928Y797243D01*
X3030686Y791000D01*
X3031928Y784757D01*
X3033745Y782038D01*
Y752213D01*
X3017591D01*
Y716811D01*
X3015591D01*
Y700000D01*
X3049213D01*
X3082835D01*
Y716811D01*
X3091867Y719147D01*
X3118504D01*
Y709252D01*
X3164252D01*
Y756748D01*
X3118504D01*
Y745656D01*
X3080835D01*
Y752213D01*
X3060255D01*
Y782038D01*
X3062072Y784757D01*
X3063314Y791000D01*
X3062072Y797243D01*
X3058535Y802535D01*
X3053243Y806072D01*
X3047000Y807313D01*
D02*
G37*
G36*
X3227496Y728000D02*
X3207622D01*
Y707252D01*
X3227496D01*
Y728000D01*
D02*
G37*
G36*
X3197622D02*
X3177748D01*
Y707252D01*
X3197622D01*
Y728000D01*
D02*
G37*
G36*
X3232244Y689669D02*
X3206575D01*
Y664000D01*
X3232244D01*
Y689669D01*
D02*
G37*
G36*
Y654000D02*
X3206575D01*
Y628331D01*
X3232244D01*
Y654000D01*
D02*
G37*
G36*
X3082835Y690000D02*
X3049213D01*
X3015591D01*
Y673189D01*
X3017591D01*
Y637787D01*
X3080835D01*
Y644344D01*
X3119756D01*
Y630331D01*
X3131640D01*
X3134655Y620331D01*
X3133928Y619243D01*
X3132686Y613000D01*
X3133928Y606757D01*
X3137465Y601465D01*
X3142757Y597928D01*
X3149000Y596687D01*
X3155243Y597928D01*
X3160535Y601465D01*
X3164072Y606757D01*
X3165314Y613000D01*
X3164072Y619243D01*
X3164992Y620795D01*
X3170906Y628331D01*
X3170906Y628331D01*
X3196575D01*
Y659000D01*
Y689669D01*
X3170905D01*
Y687669D01*
X3119756D01*
Y670853D01*
X3091867D01*
X3082835Y673189D01*
Y690000D01*
D02*
G37*
G36*
X2017291Y617866D02*
X1998512D01*
Y583339D01*
X2017291D01*
Y617866D01*
D02*
G37*
G36*
X1831032D02*
X1812252D01*
Y583339D01*
X1831032D01*
Y617866D01*
D02*
G37*
G36*
X1584425Y568669D02*
X1558756D01*
Y543000D01*
X1584425D01*
Y568669D01*
D02*
G37*
G36*
X2017291Y573339D02*
X1998512D01*
Y538811D01*
X2017291D01*
Y573339D01*
D02*
G37*
G36*
X1831032D02*
X1812252D01*
Y538811D01*
X1831032D01*
Y573339D01*
D02*
G37*
G36*
X1584425Y533000D02*
X1558756D01*
Y507331D01*
X1584425D01*
Y533000D01*
D02*
G37*
G36*
X2977669Y511425D02*
X2952000D01*
Y485756D01*
X2977669D01*
Y511425D01*
D02*
G37*
G36*
X2942000D02*
X2916331D01*
Y485756D01*
X2942000D01*
Y511425D01*
D02*
G37*
G36*
X1638000Y622470D02*
X1628636Y620607D01*
X1620697Y615303D01*
X1617992Y611255D01*
X1519000D01*
X1513928Y610246D01*
X1509628Y607372D01*
X1400628Y498373D01*
X1397754Y494072D01*
X1396745Y489000D01*
Y302302D01*
X1397754Y297229D01*
X1400628Y292929D01*
X1423467Y270090D01*
X1424105Y266882D01*
X1427641Y261590D01*
X1432934Y258054D01*
X1436141Y257416D01*
X1445514Y248043D01*
X1445514Y248043D01*
X1524929Y168627D01*
X1529229Y165754D01*
X1534302Y164745D01*
X1570698D01*
X1575771Y165754D01*
X1580071Y168627D01*
X1620774Y209331D01*
X1650244D01*
Y234375D01*
X1692983D01*
X1702016Y232039D01*
Y213260D01*
X1781071D01*
Y232039D01*
X1779071D01*
Y265221D01*
Y304591D01*
Y343961D01*
Y381331D01*
X1781071D01*
Y400110D01*
X1702016D01*
Y381331D01*
X1704016D01*
Y343961D01*
Y308643D01*
X1694234Y304503D01*
X1694016Y304501D01*
X1688845Y309672D01*
X1684545Y312545D01*
X1679473Y313554D01*
X1650244D01*
Y344669D01*
X1630438D01*
X1622113Y348840D01*
X1621104Y353913D01*
X1618231Y358213D01*
X1562071Y414373D01*
X1557771Y417246D01*
X1552698Y418255D01*
X1476962D01*
X1474243Y420072D01*
X1468000Y421313D01*
X1461757Y420072D01*
X1456465Y416535D01*
X1452928Y411243D01*
X1451687Y405000D01*
X1452928Y398757D01*
X1456465Y393465D01*
X1461757Y389928D01*
X1468000Y388687D01*
X1474243Y389928D01*
X1476962Y391745D01*
X1547208D01*
X1583045Y355908D01*
X1579218Y346669D01*
X1573425D01*
Y316000D01*
Y285331D01*
X1599094D01*
Y287331D01*
X1641915D01*
X1643354Y287045D01*
X1673982D01*
X1683399Y277627D01*
X1687699Y274754D01*
X1692772Y273745D01*
X1704016D01*
Y260885D01*
X1650244D01*
Y266669D01*
X1599094D01*
Y268669D01*
X1573425D01*
Y238000D01*
X1568425D01*
Y233000D01*
X1537756D01*
Y207433D01*
X1530613Y200434D01*
X1464259Y266788D01*
X1464259Y266788D01*
X1454886Y276161D01*
X1454248Y279368D01*
X1450712Y284661D01*
X1445419Y288197D01*
X1442212Y288835D01*
X1423255Y307792D01*
Y483510D01*
X1524490Y584745D01*
X1617992D01*
X1620697Y580697D01*
X1620320Y568922D01*
X1620094Y568669D01*
X1594425D01*
Y538000D01*
Y507331D01*
X1620094D01*
Y509331D01*
X1671244D01*
Y541446D01*
X1704016D01*
Y501441D01*
Y468260D01*
X1702016D01*
Y449480D01*
X1781071D01*
Y468260D01*
X1779071D01*
Y501441D01*
Y540811D01*
Y584370D01*
X1704016D01*
Y567956D01*
X1666965D01*
Y582290D01*
X1665956Y587363D01*
X1663082Y591663D01*
X1661520Y593225D01*
X1662470Y598000D01*
X1660608Y607364D01*
X1655303Y615303D01*
X1647364Y620607D01*
X1638000Y622470D01*
D02*
G37*
G36*
X1781071Y439480D02*
X1702016D01*
Y420701D01*
Y410110D01*
X1781071D01*
Y420701D01*
Y439480D01*
D02*
G37*
G36*
X2127528Y400110D02*
X2048472D01*
Y381331D01*
Y370740D01*
X2127528D01*
Y381331D01*
Y400110D01*
D02*
G37*
G36*
X2464732Y347401D02*
X2443000D01*
Y330591D01*
X2464732D01*
Y347401D01*
D02*
G37*
G36*
X2433000D02*
X2411268D01*
Y330591D01*
X2433000D01*
Y347401D01*
D02*
G37*
G36*
X2370669Y355244D02*
X2345000D01*
Y329575D01*
X2370669D01*
Y355244D01*
D02*
G37*
G36*
X2335000D02*
X2309331D01*
Y329575D01*
X2335000D01*
Y355244D01*
D02*
G37*
G36*
X1563425Y346669D02*
X1537756D01*
Y321000D01*
X1563425D01*
Y346669D01*
D02*
G37*
G36*
X2127528Y360740D02*
X2048472D01*
Y341961D01*
X2050472D01*
Y310779D01*
X2048472D01*
Y292000D01*
X2127528D01*
Y310779D01*
X2125528D01*
Y341961D01*
X2127528D01*
Y360740D01*
D02*
G37*
G36*
X1563425Y311000D02*
X1537756D01*
Y285331D01*
X1563425D01*
Y311000D01*
D02*
G37*
G36*
X2127528Y282000D02*
X2048472D01*
Y263221D01*
Y252630D01*
X2127528D01*
Y263221D01*
Y282000D01*
D02*
G37*
G36*
X1563425Y268669D02*
X1537756D01*
Y243000D01*
X1563425D01*
Y268669D01*
D02*
G37*
G36*
X2763244Y252669D02*
X2737575D01*
Y227000D01*
X2763244D01*
Y252669D01*
D02*
G37*
G36*
X2876740Y162305D02*
X2851070D01*
Y114000D01*
X2876740D01*
Y162305D01*
D02*
G37*
G36*
X3186000Y228329D02*
X3172670Y227016D01*
X3159852Y223128D01*
X3148038Y216814D01*
X3137684Y208316D01*
X3129186Y197962D01*
X3122872Y186148D01*
X3118984Y173330D01*
X3117671Y160000D01*
X3118984Y146670D01*
X3122872Y133852D01*
X3129186Y122038D01*
X3137684Y111684D01*
X3148038Y103186D01*
X3159852Y96872D01*
X3172670Y92984D01*
X3186000Y91671D01*
X3199330Y92984D01*
X3212148Y96872D01*
X3223962Y103186D01*
X3234316Y111684D01*
X3242814Y122038D01*
X3249128Y133852D01*
X3253016Y146670D01*
X3254329Y160000D01*
X3253016Y173330D01*
X3249128Y186148D01*
X3242814Y197962D01*
X3234316Y208316D01*
X3223962Y216814D01*
X3212148Y223128D01*
X3199330Y227016D01*
X3186000Y228329D01*
D02*
G37*
G36*
X659000D02*
X645670Y227016D01*
X632852Y223128D01*
X621038Y216814D01*
X610684Y208316D01*
X602187Y197962D01*
X595872Y186148D01*
X591984Y173330D01*
X590671Y160000D01*
X591984Y146670D01*
X595872Y133852D01*
X602187Y122038D01*
X610684Y111684D01*
X621038Y103186D01*
X632852Y96872D01*
X645670Y92984D01*
X659000Y91671D01*
X672330Y92984D01*
X685148Y96872D01*
X696962Y103186D01*
X707316Y111684D01*
X715813Y122038D01*
X722128Y133852D01*
X726016Y146670D01*
X727329Y160000D01*
X726016Y173330D01*
X722128Y186148D01*
X715813Y197962D01*
X707316Y208316D01*
X696962Y216814D01*
X685148Y223128D01*
X672330Y227016D01*
X659000Y228329D01*
D02*
G37*
G36*
X2876740Y104000D02*
X2851070D01*
Y55695D01*
X2876740D01*
Y104000D01*
D02*
G37*
G36*
X2841070D02*
X2815400D01*
Y55695D01*
X2841070D01*
Y104000D01*
D02*
G37*
G36*
X2760600D02*
X2734930D01*
Y55695D01*
X2760600D01*
Y104000D01*
D02*
G37*
G36*
X2724930D02*
X2699260D01*
Y55695D01*
X2724930D01*
Y104000D01*
D02*
G37*
G36*
X2127528Y79244D02*
X2093000D01*
Y54559D01*
X2127528D01*
Y79244D01*
D02*
G37*
G36*
X1736543D02*
X1702016D01*
Y54559D01*
X1736543D01*
Y79244D01*
D02*
G37*
%LPD*%
G36*
X3093621Y2038751D02*
X2966923Y1912053D01*
X2961459Y1913729D01*
X2957050Y1916322D01*
X2956995Y1916601D01*
Y1945756D01*
X2970669D01*
Y1998906D01*
Y2014745D01*
X3008038D01*
X3010757Y2012928D01*
X3017000Y2011687D01*
X3023243Y2012928D01*
X3028535Y2016465D01*
X3032072Y2021757D01*
X3033314Y2028000D01*
X3032072Y2034243D01*
X3029568Y2037989D01*
X3031320Y2043937D01*
X3033883Y2047989D01*
X3089794D01*
X3093621Y2038751D01*
D02*
G37*
G36*
X1573515Y1832938D02*
X1575403Y1826745D01*
X1573882Y1824469D01*
X1572955Y1819811D01*
Y1796189D01*
X1573882Y1791531D01*
X1573924Y1791468D01*
X1573052Y1788193D01*
X1568568Y1781785D01*
X1547724D01*
X1543067Y1780859D01*
X1540445Y1779107D01*
X1512680D01*
X1508243Y1782072D01*
X1502000Y1783313D01*
X1495757Y1782072D01*
X1490465Y1778535D01*
X1486928Y1773243D01*
X1485687Y1767000D01*
X1486928Y1760757D01*
X1490465Y1755465D01*
X1490494Y1755445D01*
Y1743555D01*
X1490465Y1743535D01*
X1486928Y1738243D01*
X1485687Y1732000D01*
X1486928Y1725757D01*
X1488361Y1723613D01*
X1487067Y1720324D01*
X1482787Y1715664D01*
X1482010Y1715118D01*
X1476000Y1716313D01*
X1469757Y1715072D01*
X1464465Y1711535D01*
X1460928Y1706243D01*
X1459687Y1700000D01*
X1460602Y1695395D01*
X1456738Y1689131D01*
X1454007Y1686116D01*
X1448757Y1685072D01*
X1443465Y1681535D01*
X1439928Y1676243D01*
X1438687Y1670000D01*
X1439928Y1663757D01*
X1443465Y1658465D01*
X1443745Y1658277D01*
Y1342414D01*
X1437132Y1338653D01*
X1433669Y1341603D01*
Y1354575D01*
X1372331D01*
Y1328906D01*
X1374331D01*
Y1302192D01*
X1373373Y1302002D01*
X1369073Y1299128D01*
X1346097Y1276153D01*
X1336097Y1280295D01*
Y1294842D01*
Y1564344D01*
X1337804Y1565004D01*
X1346097Y1566008D01*
X1348465Y1562465D01*
X1353757Y1558928D01*
X1360000Y1557687D01*
X1366243Y1558928D01*
X1371535Y1562465D01*
X1375072Y1567757D01*
X1376313Y1574000D01*
X1375072Y1580243D01*
X1373255Y1582962D01*
Y1649510D01*
X1413372Y1689628D01*
X1416246Y1693928D01*
X1417255Y1699000D01*
Y1700500D01*
X1428500D01*
Y1749500D01*
X1428500Y1757000D01*
X1428500Y1764500D01*
Y1813500D01*
X1415255D01*
Y1832510D01*
X1419490Y1836745D01*
X1570984D01*
X1573515Y1832938D01*
D02*
G37*
%LPC*%
G36*
X1433669Y1390244D02*
X1408000D01*
Y1364575D01*
X1433669D01*
Y1390244D01*
D02*
G37*
G36*
X1398000D02*
X1372331D01*
Y1364575D01*
X1398000D01*
Y1390244D01*
D02*
G37*
%LPD*%
D10*
X3181000Y921425D02*
D03*
Y974575D02*
D03*
X3298000Y2062575D02*
D03*
Y2009425D02*
D03*
X2534000Y138575D02*
D03*
Y85425D02*
D03*
X2340000Y324575D02*
D03*
Y271425D02*
D03*
X3308000Y1516575D02*
D03*
Y1463425D02*
D03*
X3763000Y1794425D02*
D03*
Y1847575D02*
D03*
X1711000Y2001575D02*
D03*
Y1948425D02*
D03*
X2011000Y1217425D02*
D03*
Y1270575D02*
D03*
X1818000Y1220425D02*
D03*
Y1273575D02*
D03*
X1647000Y1220425D02*
D03*
Y1273575D02*
D03*
X1387000Y1115575D02*
D03*
Y1062425D02*
D03*
X3629928Y1342230D02*
D03*
Y1289080D02*
D03*
X3025000Y1638575D02*
D03*
Y1585425D02*
D03*
X2942000Y2027575D02*
D03*
Y1974425D02*
D03*
X3144000Y1754575D02*
D03*
Y1701425D02*
D03*
X3561000Y1840575D02*
D03*
Y1787425D02*
D03*
X2947000Y516425D02*
D03*
Y569575D02*
D03*
X3678000Y1061575D02*
D03*
Y1008425D02*
D03*
X1403000Y1359575D02*
D03*
Y1306425D02*
D03*
X1955000Y1270575D02*
D03*
Y1217425D02*
D03*
X1898000Y1270575D02*
D03*
Y1217425D02*
D03*
X1758000Y1273575D02*
D03*
Y1220425D02*
D03*
X1702500Y1273575D02*
D03*
Y1220425D02*
D03*
X1641000Y2002575D02*
D03*
Y1949425D02*
D03*
D11*
X3020425Y1877000D02*
D03*
X3073575D02*
D03*
X2249575Y140000D02*
D03*
X2196425D02*
D03*
X2249575Y200000D02*
D03*
X2196425D02*
D03*
X2732575Y222000D02*
D03*
X2679425D02*
D03*
X1621575Y238000D02*
D03*
X1568425D02*
D03*
X1621575Y316000D02*
D03*
X1568425D02*
D03*
X1589425Y538000D02*
D03*
X1642575D02*
D03*
X2813425Y949000D02*
D03*
X2866575D02*
D03*
X941850Y2042000D02*
D03*
X995000D02*
D03*
X3201575Y659000D02*
D03*
X3148425D02*
D03*
D12*
X754748Y1912693D02*
D03*
Y1749307D02*
D03*
X670102Y1912693D02*
D03*
Y1749307D02*
D03*
X923677Y1758307D02*
D03*
Y1921693D02*
D03*
X1008323Y1758307D02*
D03*
Y1921693D02*
D03*
D13*
X659787Y1525402D02*
D03*
Y1488000D02*
D03*
Y1450598D02*
D03*
X758213D02*
D03*
Y1488000D02*
D03*
Y1525402D02*
D03*
X2950787Y657598D02*
D03*
Y732402D02*
D03*
X3049213D02*
D03*
Y695000D02*
D03*
Y657598D02*
D03*
X2953787Y948598D02*
D03*
Y1023402D02*
D03*
X3052213D02*
D03*
Y986000D02*
D03*
Y948598D02*
D03*
D14*
X3222402Y1826409D02*
D03*
Y1852000D02*
D03*
Y1877591D02*
D03*
X3147598D02*
D03*
Y1826409D02*
D03*
D15*
X2337409Y131598D02*
D03*
X2363000D02*
D03*
X2388591D02*
D03*
Y206402D02*
D03*
X2363000D02*
D03*
X2337409D02*
D03*
D16*
X2802528Y784354D02*
D03*
X2743472D02*
D03*
D17*
X2922930Y2469000D02*
D03*
X3039070D02*
D03*
X2846070Y109000D02*
D03*
X2729930D02*
D03*
D18*
X2981000Y2408960D02*
D03*
X2788000Y169040D02*
D03*
D19*
X1910000Y2248110D02*
D03*
Y2511890D02*
D03*
D20*
X476787Y1506307D02*
D03*
Y1479693D02*
D03*
X515173D02*
D03*
Y1506307D02*
D03*
D21*
X1862685Y1683984D02*
D03*
Y1585559D02*
D03*
Y1487134D02*
D03*
X1764260Y1683984D02*
D03*
Y1585559D02*
D03*
Y1487134D02*
D03*
X1665835Y1683984D02*
D03*
Y1585559D02*
D03*
Y1487134D02*
D03*
D22*
X1559535Y1763709D02*
D03*
Y1732213D02*
D03*
Y1700717D02*
D03*
Y1669221D02*
D03*
Y1637725D02*
D03*
Y1606228D02*
D03*
Y1574732D02*
D03*
Y1543236D02*
D03*
Y1511740D02*
D03*
Y1480244D02*
D03*
Y1448748D02*
D03*
Y1417252D02*
D03*
X1968984Y1412331D02*
D03*
Y1443827D02*
D03*
Y1475323D02*
D03*
Y1506819D02*
D03*
Y1538315D02*
D03*
Y1569811D02*
D03*
Y1601307D02*
D03*
Y1632803D02*
D03*
Y1664299D02*
D03*
Y1695795D02*
D03*
Y1727291D02*
D03*
Y1758787D02*
D03*
D23*
X1591032Y1808000D02*
D03*
X1622527D02*
D03*
X1654024D02*
D03*
X1685520D02*
D03*
X1717016D02*
D03*
X1748512D02*
D03*
X1780008D02*
D03*
X1811504D02*
D03*
X1843000D02*
D03*
X1874496D02*
D03*
X1905992D02*
D03*
X1937488D02*
D03*
Y1363118D02*
D03*
X1905992D02*
D03*
X1874496D02*
D03*
X1843000D02*
D03*
X1811504D02*
D03*
X1780008D02*
D03*
X1748512D02*
D03*
X1717016D02*
D03*
X1685520D02*
D03*
X1654024D02*
D03*
X1622527D02*
D03*
X1591032D02*
D03*
D24*
X3552213Y911638D02*
D03*
Y866362D02*
D03*
D25*
X3453787Y889000D02*
D03*
D26*
X3169000Y1181236D02*
D03*
Y1210764D02*
D03*
X3113000Y913764D02*
D03*
Y884236D02*
D03*
X3486000Y1509764D02*
D03*
Y1480236D02*
D03*
X2868000Y855236D02*
D03*
Y884764D02*
D03*
D27*
X3500410Y1397000D02*
D03*
X3551591D02*
D03*
X679835Y2037000D02*
D03*
X731016D02*
D03*
X2540410Y219000D02*
D03*
X2591591D02*
D03*
X3498410Y1194000D02*
D03*
X3549591D02*
D03*
X2796590Y859000D02*
D03*
X2745409D02*
D03*
X1866409Y729000D02*
D03*
X1917591D02*
D03*
X3413410Y1579000D02*
D03*
X3464591D02*
D03*
X3417590Y1514000D02*
D03*
X3366409D02*
D03*
D28*
X2438000Y325591D02*
D03*
Y274409D02*
D03*
X3242000Y1519591D02*
D03*
Y1468409D02*
D03*
X1911000Y2049352D02*
D03*
Y1998171D02*
D03*
X3687000Y1345591D02*
D03*
Y1294409D02*
D03*
X1403000Y2004591D02*
D03*
Y1953409D02*
D03*
X1482000Y2003591D02*
D03*
Y1952409D02*
D03*
X2127000Y1414591D02*
D03*
Y1363409D02*
D03*
X3696000Y1798409D02*
D03*
Y1849591D02*
D03*
D29*
X3299000Y1702716D02*
D03*
X3349000D02*
D03*
X3399000D02*
D03*
X3449000D02*
D03*
X3299000Y1917283D02*
D03*
X3349000D02*
D03*
X3399000D02*
D03*
X3449000D02*
D03*
X3561000Y1482716D02*
D03*
X3611000D02*
D03*
X3661000D02*
D03*
X3711000D02*
D03*
X3561000Y1697283D02*
D03*
X3611000D02*
D03*
X3661000D02*
D03*
X3711000D02*
D03*
D30*
X1741543Y562591D02*
D03*
Y523221D02*
D03*
Y483850D02*
D03*
Y444480D02*
D03*
Y405110D02*
D03*
Y365740D02*
D03*
Y326370D02*
D03*
Y287000D02*
D03*
Y247630D02*
D03*
Y208260D02*
D03*
Y168890D02*
D03*
Y129520D02*
D03*
X2088000D02*
D03*
Y168890D02*
D03*
Y208260D02*
D03*
Y247630D02*
D03*
Y287000D02*
D03*
Y326370D02*
D03*
Y365740D02*
D03*
Y405110D02*
D03*
Y444480D02*
D03*
Y483850D02*
D03*
Y523221D02*
D03*
Y562591D02*
D03*
D31*
X1741543Y84244D02*
D03*
X2088000D02*
D03*
D32*
X1993512Y578339D02*
D03*
X1954142D02*
D03*
X1914772D02*
D03*
X1875402D02*
D03*
X1836032D02*
D03*
D33*
X3568000Y1284378D02*
D03*
Y1345622D02*
D03*
X2896000Y1585378D02*
D03*
Y1646622D02*
D03*
X2958000Y1645622D02*
D03*
Y1584378D02*
D03*
X2876000Y2032622D02*
D03*
Y1971378D02*
D03*
X2807000Y1972378D02*
D03*
Y2033622D02*
D03*
X3114000Y1326378D02*
D03*
Y1387622D02*
D03*
X3112000Y1179378D02*
D03*
Y1240622D02*
D03*
D34*
X2123000Y1482000D02*
D03*
X2067000D02*
D03*
X1868000Y792000D02*
D03*
X1924000D02*
D03*
D35*
X493000Y1110500D02*
D03*
Y1051500D02*
D03*
X1560000Y2006500D02*
D03*
Y1947500D02*
D03*
X2949000Y1809500D02*
D03*
Y1750500D02*
D03*
X1402000Y1727500D02*
D03*
Y1786500D02*
D03*
X1321000Y1785500D02*
D03*
Y1726500D02*
D03*
D36*
X3202622Y733000D02*
D03*
X3141378D02*
D03*
D37*
X1865500Y679000D02*
D03*
X1924500D02*
D03*
X2086500Y1612000D02*
D03*
X2145500D02*
D03*
X2086500Y1554000D02*
D03*
X2145500D02*
D03*
X1847500Y1933000D02*
D03*
X1906500D02*
D03*
X1852500Y2122000D02*
D03*
X1911500D02*
D03*
D38*
X3774000Y1108213D02*
D03*
X3811402Y1009787D02*
D03*
X3736598D02*
D03*
D39*
X2595000Y82118D02*
D03*
Y121882D02*
D03*
D40*
X1347472Y1180913D02*
D03*
X1367158D02*
D03*
X1386842D02*
D03*
X1406528D02*
D03*
Y1245087D02*
D03*
X1386842D02*
D03*
X1367158D02*
D03*
X1347472D02*
D03*
D41*
X1409087Y1203158D02*
D03*
Y1222842D02*
D03*
X1344913D02*
D03*
Y1203158D02*
D03*
D42*
X659787Y1450598D02*
X758213D01*
X647976D02*
X659787D01*
X623025Y1470746D02*
X630723Y1463049D01*
X635526D01*
X647976Y1450598D01*
X531265Y1483860D02*
X576214D01*
X529340Y1481935D02*
X531265Y1483860D01*
X581214Y1478860D02*
X617004D01*
X515173Y1479693D02*
X517415Y1481935D01*
X529340D01*
X617004Y1478860D02*
X623025Y1472838D01*
Y1470746D02*
Y1472838D01*
X576214Y1483860D02*
X581214Y1478860D01*
X659787Y1525402D02*
X758213D01*
X647976D02*
X659787D01*
X635526Y1512951D02*
X647976Y1525402D01*
X630723Y1512951D02*
X635526D01*
X623025Y1503162D02*
Y1505254D01*
X630723Y1512951D01*
X529340Y1504065D02*
X531265Y1502140D01*
X583785D01*
X515173Y1506307D02*
X517415Y1504065D01*
X529340D01*
X617004Y1497140D02*
X623025Y1503162D01*
X588785Y1497140D02*
X617004D01*
X583785Y1502140D02*
X588785Y1497140D01*
X1617825Y1358416D02*
X1622527Y1363118D01*
X1617825Y1344821D02*
Y1358416D01*
X1615919Y1342915D02*
X1617825Y1344821D01*
X1615919Y1313816D02*
Y1342915D01*
X1581860Y1279756D02*
X1615919Y1313816D01*
X1581860Y1070008D02*
Y1279756D01*
X1458572Y946720D02*
X1581860Y1070008D01*
X1591032Y1363118D02*
X1595734Y1358416D01*
Y1344821D02*
Y1358416D01*
Y1344821D02*
X1597640Y1342915D01*
Y1321387D02*
Y1342915D01*
X1563580Y1287328D02*
X1597640Y1321387D01*
X1563580Y1077580D02*
Y1287328D01*
X1451000Y965000D02*
X1563580Y1077580D01*
X1011708Y946720D02*
X1458572D01*
X1019280Y965000D02*
X1451000D01*
X834000Y1124428D02*
X1011708Y946720D01*
X834000Y1124428D02*
Y1454372D01*
X852280Y1132000D02*
X1019280Y965000D01*
X809512Y1478860D02*
X834000Y1454372D01*
X800996Y1478860D02*
X809512D01*
X794975Y1472838D02*
X800996Y1478860D01*
X794975Y1470746D02*
Y1472838D01*
X787277Y1463049D02*
X794975Y1470746D01*
X782474Y1463049D02*
X787277D01*
X770024Y1450598D02*
X782474Y1463049D01*
X758213Y1450598D02*
X770024D01*
X852280Y1132000D02*
Y1461944D01*
X817084Y1497140D02*
X852280Y1461944D01*
X800996Y1497140D02*
X817084D01*
X794975Y1503162D02*
X800996Y1497140D01*
X794975Y1503162D02*
Y1505254D01*
X787277Y1512951D02*
X794975Y1505254D01*
X782474Y1512951D02*
X787277D01*
X770024Y1525402D02*
X782474Y1512951D01*
X758213Y1525402D02*
X770024D01*
X709000Y1476000D02*
X710548D01*
X715877Y1481329D02*
X751542D01*
X710548Y1476000D02*
X715877Y1481329D01*
X751542D02*
X758213Y1488000D01*
X1968984Y1569811D02*
X1971435Y1567360D01*
X2073140D01*
X2086500Y1554000D01*
X1968984Y1601307D02*
X2075807D01*
X2086500Y1612000D01*
D43*
X707852Y1500852D02*
X709000Y1502000D01*
X689056Y1500852D02*
X707852D01*
X2182500Y1665500D02*
X2384000Y1464000D01*
X3106189Y1334189D02*
X3114000Y1326378D01*
X2384000Y1464000D02*
X2975504D01*
X3105315Y1334189D01*
X3106189D01*
X2703000Y774000D02*
X2745705Y816705D01*
Y858705D01*
X2745409Y859000D02*
X2745705Y858705D01*
X474406Y1482075D02*
X476787Y1479693D01*
X463074Y1482075D02*
X474406D01*
X461149Y1484000D02*
X463074Y1482075D01*
X452437Y1484000D02*
X461149D01*
X417160Y1448723D02*
X452437Y1484000D01*
X417160Y1308005D02*
Y1448723D01*
X369154Y1260000D02*
X417160Y1308005D01*
X346527Y1260000D02*
X369154D01*
X343675Y1257148D02*
X346527Y1260000D01*
X337148Y1257148D02*
X343675D01*
X336000Y1256000D02*
X337148Y1257148D01*
X474406Y1503925D02*
X476787Y1506307D01*
X463074Y1503925D02*
X474406D01*
X461149Y1502000D02*
X463074Y1503925D01*
X444981Y1502000D02*
X461149D01*
X399160Y1456179D02*
X444981Y1502000D01*
X399160Y1315461D02*
Y1456179D01*
X361699Y1278000D02*
X399160Y1315461D01*
X346527Y1278000D02*
X361699D01*
X343675Y1280852D02*
X346527Y1278000D01*
X337148Y1280852D02*
X343675D01*
X336000Y1282000D02*
X337148Y1280852D01*
X3458000Y889000D02*
Y1426000D01*
X3564295Y865705D02*
X3582929Y884339D01*
X3551795Y1194000D02*
X3582929Y1162866D01*
Y884339D02*
Y1162866D01*
X1608858Y331701D02*
X1624559Y316000D01*
X2534000Y85425D02*
X2537307Y82118D01*
X2595000D01*
X2638629Y119371D02*
Y134629D01*
X2610259Y91000D02*
X2638629Y119371D01*
X2604472Y91000D02*
X2610259D01*
X2595591Y82118D02*
X2604472Y91000D01*
X2595000Y82118D02*
X2595591D01*
X2638629Y134629D02*
X2673040Y169040D01*
X2788000D01*
X2527024Y131598D02*
X2534000Y138575D01*
X2388591Y131598D02*
X2527024D01*
X2365874Y234874D02*
X2385000Y254000D01*
X2365874Y209276D02*
Y234874D01*
X2363000Y206402D02*
X2365874Y209276D01*
X2248000Y204575D02*
X2252575Y200000D01*
X2248000Y204575D02*
Y242000D01*
X2391465Y222071D02*
X2431142D01*
X2388591Y219197D02*
X2391465Y222071D01*
X2388591Y206402D02*
Y219197D01*
X2189165Y208260D02*
X2197425Y200000D01*
X2088000Y208260D02*
X2189165D01*
X2196425Y140000D02*
X2198394D01*
X2157000D02*
X2196425D01*
X2126000Y171000D02*
X2157000Y140000D01*
X2093228Y171000D02*
X2126000D01*
X3020425Y1877000D02*
X3036095Y1892669D01*
X3072780Y1932852D02*
X3073928Y1934000D01*
X3069704Y1932852D02*
X3072780D01*
X3036095Y1899243D02*
X3069704Y1932852D01*
X3036095Y1892669D02*
Y1899243D01*
X3567000Y1242000D02*
Y1283378D01*
X3568000Y1284378D01*
X3628000Y1241000D02*
Y1279378D01*
X3636000Y1287378D01*
Y1302409D01*
X3623000Y1346591D02*
X3680000D01*
X3564000Y1343575D02*
X3619984D01*
X3623000Y1346591D01*
X3635000Y1303409D02*
X3636000Y1302409D01*
X3573047Y1352622D02*
X3593811Y1373386D01*
X3606085D01*
X3141606Y1701000D02*
X3144000Y1703394D01*
X3606085Y1373386D02*
X3661000Y1428302D01*
Y1482716D01*
X1637653Y539000D02*
X1638000Y539346D01*
X2063472Y602866D02*
X2103748Y562591D01*
X2063472Y725472D02*
X2185000Y847000D01*
X2063472Y602866D02*
Y725472D01*
X2163000Y851000D02*
Y1028778D01*
X2045472Y733472D02*
X2163000Y851000D01*
X2045472Y543426D02*
Y733472D01*
X2169500Y1035278D02*
Y1529000D01*
X2163000Y1028778D02*
X2169500Y1035278D01*
X1819322Y1028778D02*
X2163000D01*
X1566544Y776000D02*
X1819322Y1028778D01*
X2185000Y847000D02*
Y1005000D01*
X2187500Y1007500D02*
Y1570500D01*
X2185000Y1005000D02*
X2187500Y1007500D01*
X1574000Y758000D02*
X1823778Y1007778D01*
X152000Y758000D02*
X1574000D01*
X70000Y676000D02*
X152000Y758000D01*
X70000Y776000D02*
X1566544D01*
X1823778Y1007778D02*
X2130269D01*
X2146000Y1612000D02*
X2187500Y1570500D01*
X2145500Y1553000D02*
X2169500Y1529000D01*
X3679575Y1007000D02*
X3682000Y1009425D01*
X3623000Y1007000D02*
X3679575D01*
X3298000Y2011394D02*
X3299000Y2010394D01*
X3295606Y2009000D02*
X3298000Y2011394D01*
X3299000Y1917283D02*
Y2010394D01*
X3144724Y1753331D02*
Y1823535D01*
X3561000Y1787425D02*
Y1789394D01*
Y1697283D02*
Y1787425D01*
X3142606Y1754000D02*
X3144000Y1752606D01*
X2862000Y960425D02*
X2870000Y952425D01*
X3147024Y657598D02*
X3149000Y655622D01*
X1717016Y1312559D02*
X1758000Y1271575D01*
X1647000Y1271559D02*
X1695984D01*
X3815526Y1005912D02*
X3819402Y1009787D01*
X3815526Y970526D02*
Y1005912D01*
X3789000Y944000D02*
X3815526Y970526D01*
X3113571Y1177807D02*
X3215429D01*
X3113000Y958000D02*
X3129575Y974575D01*
X3113000Y913764D02*
Y958000D01*
X3052213Y1023402D02*
X3084598D01*
X3071606Y1877000D02*
X3151000D01*
X2940000Y1810500D02*
X2961500D01*
X3043000Y1837000D02*
X3071606Y1865606D01*
X2988000Y1837000D02*
X3043000D01*
X2961500Y1810500D02*
X2988000Y1837000D01*
X3071606Y1865606D02*
Y1877000D01*
X3049213Y732402D02*
X3145811D01*
X1477000Y1256722D02*
Y1699000D01*
X1476000Y1700000D02*
X1477000Y1699000D01*
X1501246Y1700358D02*
X1501604Y1700717D01*
X1501246Y1700358D02*
X1559177D01*
X1476358D02*
X1501246D01*
X1476000Y1700000D02*
X1476358Y1700358D01*
X1559177D02*
X1559535Y1700717D01*
X1775000Y731000D02*
X1864409D01*
X1866409Y729000D01*
Y679909D02*
Y729000D01*
X1865500Y679000D02*
X1866409Y679909D01*
X1653710Y554701D02*
X1733654D01*
X1653354D02*
X1653710D01*
Y582290D01*
Y554345D02*
Y554701D01*
X1653354D02*
X1653710Y554345D01*
X1624559Y231861D02*
Y238000D01*
X1638000Y598000D02*
X1653710Y582290D01*
X1439176Y273125D02*
X1454886Y257416D01*
X1570698Y178000D02*
X1624559Y231861D01*
X1914772Y669272D02*
X1924500Y679000D01*
X1914772Y578339D02*
Y669272D01*
X3305000Y1423000D02*
Y1462394D01*
X3308000Y1465394D01*
X3241000Y1423000D02*
Y1467409D01*
X3242000Y1468409D01*
X3553399Y1395191D02*
X3597809D01*
X3611000Y1465984D02*
Y1482716D01*
X3578969Y1433953D02*
X3611000Y1465984D01*
X3532441Y1433953D02*
X3578969D01*
X3500410Y1401921D02*
X3532441Y1433953D01*
X3500410Y1397000D02*
Y1401921D01*
X3499410Y1396000D02*
X3500410Y1397000D01*
X3499410Y1195000D02*
Y1396000D01*
X3498410Y1194000D02*
X3499410Y1195000D01*
X3242000Y1571142D02*
X3257858Y1587000D01*
X3406599D01*
X3413410Y1580189D01*
Y1579000D02*
Y1580189D01*
X3242000Y1519591D02*
Y1571142D01*
Y1519591D02*
X3303016D01*
X3308000Y1514606D01*
X3308606Y1514000D01*
X3366409D01*
X3417590Y1466409D02*
Y1514000D01*
Y1466409D02*
X3458000Y1426000D01*
X3427590Y1521000D02*
X3447000D01*
X3426590Y1522000D02*
X3427590Y1521000D01*
X3447000D02*
X3457220Y1510780D01*
X3484984D01*
X3486000Y1509764D01*
X2026500Y1647500D02*
X2168500D01*
X2011803Y1632803D02*
X2026500Y1647500D01*
X1968984Y1632803D02*
X2011803D01*
X2168500Y1647500D02*
X2244893Y1571107D01*
X1391575Y1111000D02*
X1447000D01*
X1387000Y1115575D02*
X1391575Y1111000D01*
X1970185Y1665500D02*
X2182500D01*
X2055141Y1781243D02*
X2064072D01*
X2876874Y2032622D02*
X2905496Y2061244D01*
X3109404D02*
X3186160Y2138000D01*
X2905496Y2061244D02*
X3109404D01*
X3186160Y2138000D02*
X3326000D01*
X3024000Y1519000D02*
Y1584425D01*
X1840243Y1257906D02*
X1859000Y1239149D01*
Y1151000D02*
Y1239149D01*
X1758000Y1273575D02*
X1818000D01*
X1833669Y1257906D02*
X1840243D01*
X1818000Y1273575D02*
X1833669Y1257906D01*
X1895000Y1273575D02*
X1898000Y1270575D01*
X1955000D01*
X2011000D01*
X2046669D02*
X2047947Y1271852D01*
X2057852D01*
X2059000Y1273000D01*
X2011000Y1270575D02*
X2046669D01*
X1895000Y1273575D02*
Y1298000D01*
X1882000Y1311000D02*
X1895000Y1298000D01*
X1788151Y1311000D02*
X1882000D01*
X1753354Y1345796D02*
X1788151Y1311000D01*
X1753354Y1345796D02*
Y1358276D01*
X1748512Y1363118D02*
X1753354Y1358276D01*
X2059000Y1273000D02*
X2059669D01*
X1758000Y1271575D02*
X1758984Y1272559D01*
X1717016Y1312559D02*
Y1363118D01*
X2061376Y1735121D02*
X2063000D01*
X2053546Y1727291D02*
X2061376Y1735121D01*
X1968984Y1727291D02*
X2053546D01*
X1502000Y1732000D02*
X1502106Y1732106D01*
X1559429D01*
X1559535Y1732213D01*
X1502000Y1767000D02*
X1503148Y1765852D01*
X2050524Y1699852D02*
X2061376Y1689000D01*
X1973041Y1699852D02*
X2050524D01*
X2061376Y1689000D02*
X2063000D01*
X2032686Y1758787D02*
X2055141Y1781243D01*
X1968984Y1758787D02*
X2032686D01*
X3561000Y1838606D02*
Y1840575D01*
X3700921Y1798409D02*
X3760984D01*
X3707732Y1700551D02*
X3711000Y1697283D01*
X3707732Y1700551D02*
Y1791599D01*
X3700921Y1798409D02*
X3707732Y1791599D01*
X3696000Y1798409D02*
X3700921D01*
X3760984D02*
X3763000Y1796394D01*
X3724000Y1617000D02*
X3763000Y1656000D01*
Y1796394D01*
X3641000Y1617000D02*
X3724000D01*
X3603000Y1579000D02*
X3641000Y1617000D01*
X3464591Y1579000D02*
X3603000D01*
X3347000Y1640000D02*
X3605142D01*
X3291527D02*
X3347000D01*
X3349000Y1642000D01*
Y1702716D01*
X3611000Y1645858D02*
Y1697283D01*
X3661000D01*
X3605142Y1640000D02*
X3611000Y1645858D01*
X3275527Y1624000D02*
X3291527Y1640000D01*
X3275000Y1624000D02*
X3275527D01*
X3023953Y1584378D02*
X3024000Y1584425D01*
X3025000Y1585425D01*
X2926331Y2011906D02*
X2942000Y2027575D01*
X2917401Y2011906D02*
X2926331D01*
X2876874Y1971378D02*
X2917401Y2011906D01*
X2876000Y1971378D02*
X2876874D01*
X2876000Y2032622D02*
X2876874D01*
X2875500Y2033122D02*
X2876000Y2032622D01*
X2807500Y2033122D02*
X2875500D01*
X2807000Y2033622D02*
X2807500Y2033122D01*
X2942425Y2028000D02*
X3017000D01*
X2942000Y2027575D02*
X2942425Y2028000D01*
X2896000Y1646622D02*
Y1822385D01*
X2958000Y1584378D02*
X3023953D01*
X2957500Y1646122D02*
X2958000Y1645622D01*
X2896500Y1646122D02*
X2957500D01*
X2896000Y1646622D02*
X2896500Y1646122D01*
X2127000Y1414591D02*
X2131000Y1418591D01*
Y1484000D01*
X1968984Y1538315D02*
X2018185D01*
X2072500Y1484000D01*
X2075000D01*
X2125000Y1324000D02*
Y1361409D01*
X2127000Y1363409D01*
X2122079D02*
X2127000D01*
X3399000Y1917283D02*
Y2034000D01*
X3317000Y2116000D02*
X3399000Y2034000D01*
X3189615Y2116000D02*
X3317000D01*
X2896000Y1822385D02*
X3189615Y2116000D01*
X3473811Y1883355D02*
Y1990189D01*
X3326000Y2138000D02*
X3473811Y1990189D01*
X3518858Y1827858D02*
X3550252D01*
X3449000Y1758000D02*
X3518858Y1827858D01*
X3449000Y1702716D02*
Y1758000D01*
X1404000Y1699000D02*
Y1734500D01*
X1366646Y1180402D02*
X1367158Y1180913D01*
X1258000Y1167000D02*
X1259624D01*
X1366646Y1168119D02*
Y1180402D01*
X1266781Y1159842D02*
X1358369D01*
X1322842Y1294842D02*
Y1735342D01*
Y1211532D02*
Y1294842D01*
X1252000Y1224000D02*
X1322842Y1294842D01*
X1209000Y1224000D02*
X1252000D01*
X1347646Y1258956D02*
X1378445Y1289756D01*
X1347646Y1245260D02*
Y1258956D01*
X1378445Y1289756D02*
X1386331D01*
X1403000Y1306425D01*
X1410000Y302302D02*
X1439176Y273125D01*
X1410000Y302302D02*
Y489000D01*
X1454886Y257415D02*
Y257416D01*
Y257415D02*
X1534302Y178000D01*
X1570698D01*
X1519000Y598000D02*
X1638000D01*
X1410000Y489000D02*
X1519000Y598000D01*
X2947000Y569575D02*
X2950787Y573362D01*
X2931331Y553905D02*
X2947000Y569575D01*
X2540410Y219000D02*
Y223921D01*
Y214079D02*
Y219000D01*
X1741543Y247630D02*
X1746142D01*
X1637283D02*
X1741543D01*
X1385000Y1266376D02*
X1386331Y1265046D01*
Y1245598D02*
Y1265046D01*
Y1245598D02*
X1386842Y1245087D01*
X1367158D02*
X1386842D01*
X688794Y1500591D02*
X689056Y1500852D01*
X684189Y1500591D02*
X688794D01*
X671598Y1488000D02*
X684189Y1500591D01*
X659787Y1488000D02*
X671598D01*
X2245107Y1570893D02*
X2696884Y1119116D01*
X2792896D02*
X2929012Y983000D01*
X2696884Y1119116D02*
X2792896D01*
X1386669Y1181087D02*
Y1194783D01*
X1358783Y1222669D02*
X1386669Y1194783D01*
X1513000Y1430000D02*
X1525748Y1417252D01*
X1513000Y1430000D02*
Y1493000D01*
X1525748Y1417252D02*
X1559535D01*
X1513000Y1493000D02*
X1528787Y1508787D01*
X1556582D02*
X1559535Y1511740D01*
X1423609Y1203331D02*
X1477000Y1256722D01*
X1528787Y1508787D02*
X1556582D01*
X1741543Y287000D02*
X1745772D01*
X1692772D02*
X1741543D01*
X2929012Y983000D02*
X2973204D01*
X2864000Y962425D02*
Y1007000D01*
X2862000Y960425D02*
X2864000Y962425D01*
X2973204Y983000D02*
X3015590Y940613D01*
X3399000Y1808544D02*
X3473811Y1883355D01*
X3399000Y1702716D02*
Y1808544D01*
X3349000Y1702716D02*
Y1800551D01*
X1457000Y1262177D02*
Y1666835D01*
X1417838Y1223016D02*
X1457000Y1262177D01*
X1455000Y1668835D02*
X1457000Y1666835D01*
X1455000Y1668835D02*
Y1671000D01*
X2940000Y1691000D02*
Y1751500D01*
X3144724Y1823535D02*
X3147598Y1826409D01*
X3144000Y1752606D02*
X3144724Y1753331D01*
X3084000Y1701000D02*
X3141606D01*
X1406528Y1245087D02*
Y1247646D01*
X1407842Y1248961D01*
Y1301583D01*
X3087000Y1754000D02*
X3142606D01*
X3222402Y1877591D02*
Y1918598D01*
X3267000Y1709000D02*
X3292716D01*
X3299000Y1702716D01*
X3222402Y1753598D02*
X3267000Y1709000D01*
X3222402Y1753598D02*
Y1826409D01*
Y1852000D02*
X3300449D01*
X3349000Y1900551D01*
Y1917283D01*
X1403000Y1306425D02*
X1407842Y1301583D01*
X1745772Y287000D02*
X1746772Y286000D01*
X1468000Y405000D02*
X1552698D01*
X1746142Y247630D02*
X1746772Y247000D01*
X3331961Y1210764D02*
X3376961Y1255764D01*
X2286000Y295000D02*
X2287624D01*
X1360000Y1578000D02*
Y1655000D01*
X1404000Y1699000D01*
X1353000Y1952000D02*
X1353705Y1952705D01*
X1402295D01*
X1403000Y1953409D01*
X1599000Y1885000D02*
X1622527Y1861473D01*
Y1808000D02*
Y1861473D01*
X1585000Y1850000D02*
X1591032Y1843968D01*
Y1808000D02*
Y1843968D01*
X1414000Y1850000D02*
X1585000D01*
X1414000D02*
X1482000Y1918000D01*
X1402000Y1838000D02*
X1414000Y1850000D01*
X1402000Y1786500D02*
Y1838000D01*
X1482000Y1918000D02*
Y1952409D01*
X1321000Y1785500D02*
Y1843000D01*
X1403000Y1925000D01*
Y1953409D01*
X1402000Y2005591D02*
X1403000Y2004591D01*
X1402000Y2005591D02*
Y2062000D01*
X1482000Y2003591D02*
Y2063000D01*
X1560000Y2006500D02*
X1561000Y2007500D01*
Y2062000D01*
X1691000Y1280575D02*
Y1313000D01*
X1685520Y1318480D02*
Y1363118D01*
Y1318480D02*
X1691000Y1313000D01*
Y1280575D02*
X1698000Y1273575D01*
X2079220Y532000D02*
X2088000Y523221D01*
X2045472Y543426D02*
X2056899Y532000D01*
X3693000Y1297409D02*
X3793409D01*
X2056899Y532000D02*
X2079220D01*
X1627653Y238000D02*
X1637283Y247630D01*
X1679473Y300299D02*
X1692772Y287000D01*
X1643354Y300299D02*
X1679473D01*
X1733654Y554701D02*
X1741543Y562591D01*
X1880315Y555685D02*
X1880630Y556000D01*
X1880315Y472315D02*
Y555685D01*
X1880000Y472000D02*
X1880315Y472315D01*
X1559535Y1448748D02*
Y1480244D01*
X3073928Y1934000D02*
X3074000D01*
X3550252Y1827858D02*
X3561000Y1838606D01*
X3712000Y1553000D02*
X3713000Y1554000D01*
X3712000Y1483716D02*
Y1553000D01*
X3711000Y1482716D02*
X3712000Y1483716D01*
X1654024Y1808000D02*
Y1869497D01*
X1503148Y1765852D02*
X1557392D01*
X1559535Y1763709D01*
X3047000Y734614D02*
Y791000D01*
Y734614D02*
X3049213Y732402D01*
X1711000Y1950394D02*
X1717016Y1944378D01*
Y1808000D02*
Y1944378D01*
X1679000Y1884376D02*
Y1886000D01*
Y1884376D02*
X1685520Y1877857D01*
Y1808000D02*
Y1877857D01*
X1638000Y1885520D02*
Y1886000D01*
Y1885520D02*
X1654024Y1869497D01*
X1968984Y1695795D02*
X1973041Y1699852D01*
X3376961Y1255764D02*
Y1286000D01*
X3169000Y1210764D02*
X3331961D01*
X3181000Y974575D02*
X3215429Y1009004D01*
Y1177807D01*
X1409087Y1203158D02*
X1409260Y1203331D01*
X1423609D01*
X1322842Y1735342D02*
X1323000Y1735500D01*
X1347472Y1245087D02*
X1347646Y1245260D01*
X1346193Y1243807D02*
X1347472Y1245087D01*
X1346193Y1224122D02*
Y1243807D01*
X1344913Y1222842D02*
X1346193Y1224122D01*
X669000Y1694000D02*
X669551Y1694551D01*
Y1748756D01*
X670102Y1749307D01*
X1505000Y1605000D02*
X1505614Y1605614D01*
X1503862Y1636862D02*
X1558673D01*
X1559535Y1637725D01*
X1505614Y1605614D02*
X1558921D01*
X1503000Y1636000D02*
X1503862Y1636862D01*
X1504000Y1571000D02*
X1505148Y1572148D01*
X1558921Y1605614D02*
X1559535Y1606228D01*
X1505148Y1572148D02*
X1556951D01*
X998000Y2039000D02*
X1008323Y2028677D01*
X998000Y2039000D02*
X1069000D01*
X995000Y2042000D02*
X998000Y2039000D01*
X1658866Y1812842D02*
Y1825866D01*
X1654024Y1808000D02*
X1658866Y1812842D01*
X1556951Y1572148D02*
X1559535Y1574732D01*
X1259624Y1167000D02*
X1266781Y1159842D01*
X1358369D02*
X1366646Y1168119D01*
X1502110Y1670110D02*
X1558646D01*
X1502000Y1670000D02*
X1502110Y1670110D01*
X1501604Y1700717D02*
X1559535D01*
X1558646Y1670110D02*
X1559535Y1669221D01*
X1404575Y1308000D02*
X1435000D01*
X1403000Y1306425D02*
X1404575Y1308000D01*
X1409260Y1223016D02*
X1417838D01*
X1409087Y1222842D02*
X1409260Y1223016D01*
X1386669Y1181087D02*
X1386842Y1180913D01*
X1345087Y1222669D02*
X1358783D01*
X1344913Y1222842D02*
X1345087Y1222669D01*
X1344740Y1203331D02*
X1344913Y1203158D01*
X1331044Y1203331D02*
X1344740D01*
X1322842Y1211532D02*
X1331044Y1203331D01*
X1386842Y1115732D02*
X1387000Y1115575D01*
X1386842Y1115732D02*
Y1180913D01*
X1603000Y1271000D02*
X1603280Y1271280D01*
X1646720D01*
X1647000Y1271559D01*
X3062757Y884236D02*
X3113000D01*
X3015590Y931403D02*
X3062757Y884236D01*
X3015590Y931403D02*
Y940613D01*
X1968984Y1664299D02*
X1970185Y1665500D01*
X2340283Y182190D02*
Y203528D01*
X2337409Y206402D02*
X2340283Y203528D01*
Y182190D02*
X2349741Y172732D01*
X2499063D02*
X2540410Y214079D01*
X2349741Y172732D02*
X2499063D01*
X2540410Y223921D02*
X2870394Y553905D01*
X2931331D01*
X3149000Y613000D02*
Y655622D01*
X2866575Y949000D02*
X2870000Y952425D01*
X3112000Y1324378D02*
X3114000Y1326378D01*
X3112000Y1240622D02*
Y1324378D01*
Y1179378D02*
X3113571Y1177807D01*
X3563606Y1792000D02*
X3610000D01*
X3561000Y1789394D02*
X3563606Y1792000D01*
X3241000Y2009000D02*
X3295606D01*
X757362Y1915307D02*
Y1948362D01*
X754748Y1912693D02*
X757362Y1915307D01*
Y1948362D02*
X805000Y1996000D01*
X2145500Y1612000D02*
X2146000D01*
X1008323Y1758307D02*
Y1921693D01*
Y2028677D01*
X754748Y1749307D02*
Y1912693D01*
X670102Y1749307D02*
Y1912693D01*
X674969Y1917559D01*
Y2032134D01*
X679835Y2037000D01*
X3682000Y1009425D02*
X3685638Y1005787D01*
X3743598D01*
X3349000Y1800551D02*
X3449000Y1900551D01*
Y1917283D01*
X3711000Y1680551D02*
Y1697283D01*
X3486000Y1480236D02*
X3558520D01*
X3561000Y1482716D01*
X2337409Y270803D02*
X2340000Y273394D01*
X2337409Y206402D02*
Y270803D01*
X1608858Y331701D02*
Y348840D01*
X1552698Y405000D02*
X1608858Y348840D01*
X1624559Y316000D02*
X1627653D01*
X2441323Y277732D02*
X2469732D01*
X2438000Y274409D02*
X2441323Y277732D01*
X2469732D02*
X2490000Y298000D01*
X2431142Y222071D02*
X2437000Y227929D01*
Y273409D01*
X2438000Y274409D01*
X2298482Y284142D02*
X2329252D01*
X2340000Y273394D01*
X2287624Y295000D02*
X2298482Y284142D01*
X1624559Y238000D02*
X1627653D01*
Y316000D02*
X1643354Y300299D01*
X2950787Y573362D02*
Y657598D01*
X3049213D02*
X3147024D01*
X3145811Y732402D02*
X3146410Y733000D01*
X2796590Y859000D02*
X2800354Y855236D01*
X2868000D01*
X2866976Y948598D02*
X2868000Y947575D01*
X2866575Y949000D02*
X2866976Y948598D01*
X2868000Y884764D02*
Y947575D01*
X2866976Y948598D02*
X2953787D01*
X3084598Y1023402D02*
X3129575Y978425D01*
Y974575D02*
Y978425D01*
X3052213Y921787D02*
X3060236Y913764D01*
X3052213Y921787D02*
Y948598D01*
X3060236Y913764D02*
X3113000D01*
X3129575Y974575D02*
X3181000D01*
X2678394Y219000D02*
X2681394Y222000D01*
X2591591Y219000D02*
X2678394D01*
X2591591D02*
X2593295Y217295D01*
Y123587D02*
Y217295D01*
Y123587D02*
X2595000Y121882D01*
X2303000Y130000D02*
X2335811D01*
X2337409Y131598D01*
X2293000Y140000D02*
X2303000Y130000D01*
X2247606Y140000D02*
X2293000D01*
X1920000Y781000D02*
X1923622Y777378D01*
Y720000D02*
Y777378D01*
X1695984Y1271559D02*
X1698000Y1273575D01*
X1560000Y1947500D02*
X1561925Y1949425D01*
X1641000D01*
X1641968Y1950394D01*
X1711000D01*
D44*
X1911000Y1997000D02*
X1912171Y1998171D01*
X1909390Y1997000D02*
X1911000D01*
X2867000Y2135000D02*
X2981000Y2249000D01*
X2634456Y2135000D02*
X2867000D01*
X2497627Y1998171D02*
X2634456Y2135000D01*
X2981000Y2249000D02*
Y2408960D01*
X1906500Y1933000D02*
X1908750Y1935250D01*
X1906150Y1932650D02*
X1906500Y1933000D01*
X1908750Y1996360D02*
X1909390Y1997000D01*
X1912171Y1998171D02*
X2497627D01*
X1908750Y1935250D02*
Y1996360D01*
X1910000Y2161500D02*
Y2248110D01*
Y2132000D02*
Y2161500D01*
Y2123500D02*
Y2132000D01*
X1906150Y1808158D02*
Y1932650D01*
X1910000Y2123500D02*
X1911500Y2122000D01*
X1911250Y2121750D02*
X1911500Y2122000D01*
X1911250Y2049602D02*
Y2121750D01*
X1911000Y2049352D02*
X1911250Y2049602D01*
X1905992Y1808000D02*
X1906150Y1808158D01*
D45*
X3597809Y1395191D02*
X3598000Y1395000D01*
X3551591Y1397000D02*
X3553399Y1395191D01*
X3073425Y1638575D02*
X3091314Y1620687D01*
X3025000Y1638575D02*
X3073425D01*
X3091314Y1620687D02*
X3143000D01*
X3621809Y1901383D02*
Y1922809D01*
X3622000Y1923000D01*
X3561000Y1840575D02*
X3621809Y1901383D01*
X3761000Y1923000D02*
X3761191Y1922809D01*
Y1847415D02*
Y1922809D01*
Y1847415D02*
X3763000Y1845606D01*
X3690000Y1923000D02*
X3690191Y1922809D01*
Y1853902D02*
Y1922809D01*
Y1853902D02*
X3694502Y1849591D01*
X3696000D01*
X2806000Y1909000D02*
X2806191Y1909191D01*
Y1971569D01*
X2807000Y1972378D01*
X2941000Y1915000D02*
X2941191Y1915191D01*
Y1973617D01*
X2942000Y1974425D01*
X2896000Y1520000D02*
Y1585378D01*
X3242000Y2062000D02*
X3242191Y2062191D01*
X3297617D01*
X3298000Y2062575D01*
X494500Y1050000D02*
X554000D01*
X493000Y1051500D02*
X494500Y1050000D01*
D46*
X3222000Y1919000D02*
X3222402Y1918598D01*
D47*
X1008833Y2473000D02*
X1220000D01*
X982949Y2498384D02*
Y2500358D01*
X994000Y2473000D02*
X1008333D01*
X982949Y2484051D02*
X994000Y2473000D01*
X1008333D02*
X1008833D01*
X982949Y2484051D02*
Y2500358D01*
X994480Y2511890D01*
X1837165D01*
X1910000D01*
D48*
X2831685Y1286000D02*
D03*
X1042315D02*
D03*
D49*
X497039D02*
D03*
X3376961D02*
D03*
D50*
X3778000Y1298000D02*
D03*
D51*
X117276Y1391284D02*
D03*
Y1176716D02*
D03*
D52*
X236567Y1379472D02*
D03*
Y1188528D02*
D03*
D53*
X70000Y976000D02*
D03*
Y776000D02*
D03*
Y876000D02*
D03*
Y1787000D02*
D03*
Y1687000D02*
D03*
Y1887000D02*
D03*
D54*
Y676000D02*
D03*
Y1587000D02*
D03*
D55*
X659000Y2419000D02*
D03*
X3186000Y160000D02*
D03*
X659000D02*
D03*
X3186000Y2419000D02*
D03*
D56*
X3600000Y2000000D02*
D03*
Y800000D02*
D03*
Y600000D02*
D03*
X3400000Y800000D02*
D03*
Y600000D02*
D03*
X3200000Y2200000D02*
D03*
Y2000000D02*
D03*
Y800000D02*
D03*
Y600000D02*
D03*
Y400000D02*
D03*
X3000000Y2000000D02*
D03*
Y1800000D02*
D03*
Y800000D02*
D03*
Y600000D02*
D03*
Y400000D02*
D03*
Y200000D02*
D03*
X2800000Y1000000D02*
D03*
Y600000D02*
D03*
Y400000D02*
D03*
X2600000Y2000000D02*
D03*
Y1000000D02*
D03*
Y800000D02*
D03*
Y600000D02*
D03*
Y400000D02*
D03*
X2400000Y1600000D02*
D03*
Y1200000D02*
D03*
Y1000000D02*
D03*
Y800000D02*
D03*
Y600000D02*
D03*
X2200000Y800000D02*
D03*
Y600000D02*
D03*
Y400000D02*
D03*
X2000000Y800000D02*
D03*
Y400000D02*
D03*
Y200000D02*
D03*
X1800000Y2000000D02*
D03*
Y1400000D02*
D03*
Y800000D02*
D03*
Y600000D02*
D03*
Y400000D02*
D03*
Y200000D02*
D03*
X1600000Y2000000D02*
D03*
Y1600000D02*
D03*
Y1400000D02*
D03*
Y1000000D02*
D03*
Y400000D02*
D03*
X1400000Y1400000D02*
D03*
Y1000000D02*
D03*
Y800000D02*
D03*
Y600000D02*
D03*
Y200000D02*
D03*
X1200000Y2000000D02*
D03*
Y1400000D02*
D03*
Y800000D02*
D03*
Y600000D02*
D03*
Y400000D02*
D03*
Y200000D02*
D03*
X1000000Y1600000D02*
D03*
Y800000D02*
D03*
Y600000D02*
D03*
Y400000D02*
D03*
Y200000D02*
D03*
X800000Y2400000D02*
D03*
Y2200000D02*
D03*
Y1600000D02*
D03*
Y1400000D02*
D03*
Y1200000D02*
D03*
Y1000000D02*
D03*
Y800000D02*
D03*
Y600000D02*
D03*
Y400000D02*
D03*
Y200000D02*
D03*
X600000Y2200000D02*
D03*
Y2000000D02*
D03*
Y1600000D02*
D03*
Y1400000D02*
D03*
Y1000000D02*
D03*
Y800000D02*
D03*
Y600000D02*
D03*
Y400000D02*
D03*
X400000Y2000000D02*
D03*
Y1600000D02*
D03*
Y1000000D02*
D03*
Y800000D02*
D03*
Y600000D02*
D03*
X200000Y2000000D02*
D03*
Y1600000D02*
D03*
Y1000000D02*
D03*
Y800000D02*
D03*
Y600000D02*
D03*
D57*
X2975650Y2457872D02*
D03*
X2933073Y2408717D02*
D03*
X2933806Y2382727D02*
D03*
X2944092Y2358849D02*
D03*
Y2332849D02*
D03*
Y2306849D02*
D03*
Y2280849D02*
D03*
X2935958Y2256154D02*
D03*
X2917573Y2237769D02*
D03*
X2899188Y2219384D02*
D03*
X2880803Y2200999D02*
D03*
X2838725Y2171908D02*
D03*
X2812725D02*
D03*
X2786725D02*
D03*
X2760725D02*
D03*
X2734725D02*
D03*
X2708725D02*
D03*
X2682725D02*
D03*
X2656725D02*
D03*
X2630729Y2171482D02*
D03*
X2607355Y2160095D02*
D03*
X2588970Y2141710D02*
D03*
X2570586Y2123326D02*
D03*
X2552201Y2104941D02*
D03*
X2533816Y2086556D02*
D03*
X2515431Y2068171D02*
D03*
X2497046Y2049787D02*
D03*
X2475606Y2035080D02*
D03*
X2449606D02*
D03*
X2423606D02*
D03*
X2397606D02*
D03*
X2371606D02*
D03*
X2345606D02*
D03*
X2319606D02*
D03*
X2293606D02*
D03*
X2267606D02*
D03*
X2241606D02*
D03*
X2215606D02*
D03*
X2189606D02*
D03*
X2163606D02*
D03*
X2137606D02*
D03*
X2111606D02*
D03*
X2085606D02*
D03*
X2059606D02*
D03*
X2033606D02*
D03*
X2007606D02*
D03*
X1981606D02*
D03*
X1866325Y1984088D02*
D03*
X1869242Y1856420D02*
D03*
X1943058Y1859276D02*
D03*
X1953054Y1909278D02*
D03*
X1953742Y1935269D02*
D03*
X1953207Y1961263D02*
D03*
X1979207D02*
D03*
X2005207D02*
D03*
X2031207D02*
D03*
X2057207D02*
D03*
X2083207D02*
D03*
X2109207D02*
D03*
X2135207D02*
D03*
X2161207D02*
D03*
X2187207D02*
D03*
X2213207D02*
D03*
X2239207D02*
D03*
X2265207D02*
D03*
X2291207D02*
D03*
X2317207D02*
D03*
X2343207D02*
D03*
X2369207D02*
D03*
X2395207D02*
D03*
X2421207D02*
D03*
X2447207D02*
D03*
X2473207D02*
D03*
X2499207Y1961341D02*
D03*
X2523101Y1971594D02*
D03*
X2541558Y1989906D02*
D03*
X2559943Y2008291D02*
D03*
X2578327Y2026676D02*
D03*
X2596712Y2045061D02*
D03*
X2615097Y2063445D02*
D03*
X2633482Y2081830D02*
D03*
X2653769Y2098092D02*
D03*
X2679769D02*
D03*
X2705769D02*
D03*
X2731769D02*
D03*
X2757769D02*
D03*
X2783769D02*
D03*
X2809769D02*
D03*
X2835769D02*
D03*
X2861769D02*
D03*
X2887040Y2104202D02*
D03*
X2906091Y2121896D02*
D03*
X2924476Y2140280D02*
D03*
X2942861Y2158665D02*
D03*
X2961246Y2177050D02*
D03*
X2979630Y2195434D02*
D03*
X2998015Y2213819D02*
D03*
X3014566Y2233871D02*
D03*
X3017908Y2259655D02*
D03*
Y2285655D02*
D03*
Y2311655D02*
D03*
Y2337655D02*
D03*
Y2363655D02*
D03*
X3028792Y2387267D02*
D03*
X1873092Y2172193D02*
D03*
X1867433Y2069547D02*
D03*
X1866026Y2043585D02*
D03*
X1873456Y2018669D02*
D03*
X1955974Y2042955D02*
D03*
X1954822Y2068930D02*
D03*
X1957211Y2094820D02*
D03*
X1958742Y2120775D02*
D03*
X1957917Y2146762D02*
D03*
X1946908Y2170316D02*
D03*
X709000Y1502000D02*
D03*
Y1476000D02*
D03*
X2703000Y774000D02*
D03*
X336000Y1282000D02*
D03*
Y1256000D02*
D03*
X2385000Y254000D02*
D03*
X2248000Y242000D02*
D03*
X3628000Y1241000D02*
D03*
X3567000Y1242000D02*
D03*
X2185000Y1005000D02*
D03*
X2130269Y1007778D02*
D03*
X3623000Y1007000D02*
D03*
X3789000Y944000D02*
D03*
X1923000Y1641000D02*
D03*
X1476000Y1700000D02*
D03*
X1775000Y731000D02*
D03*
X3305000Y1423000D02*
D03*
X3598000Y1395000D02*
D03*
X3241000Y1423000D02*
D03*
X1404000D02*
D03*
X1447000Y1111000D02*
D03*
X3143000Y1620687D02*
D03*
X3024000Y1519000D02*
D03*
X1859000Y1151000D02*
D03*
X2059000Y1273000D02*
D03*
X2063000Y1735121D02*
D03*
X1502000Y1732000D02*
D03*
Y1767000D02*
D03*
X2063000Y1689000D02*
D03*
X3622000Y1923000D02*
D03*
X3761000D02*
D03*
X3690000D02*
D03*
X3017000Y2028000D02*
D03*
X2941000Y1915000D02*
D03*
X2806000Y1909000D02*
D03*
X2896000Y1520000D02*
D03*
X2125000Y1324000D02*
D03*
X3242000Y2062000D02*
D03*
X1258000Y1167000D02*
D03*
X1209000Y1224000D02*
D03*
X1386331Y1265046D02*
D03*
X1439176Y273125D02*
D03*
X2063000Y1781243D02*
D03*
X2940000Y1691000D02*
D03*
X3084000Y1701000D02*
D03*
Y1754000D02*
D03*
X3222000Y1919000D02*
D03*
X554000Y1050000D02*
D03*
X1360000Y1574000D02*
D03*
X1353000Y1952000D02*
D03*
X1599000Y1886000D02*
D03*
X1482000Y2063000D02*
D03*
X1402000D02*
D03*
X1880000Y472000D02*
D03*
X3074000Y1934000D02*
D03*
X3713000Y1554000D02*
D03*
X3047000Y791000D02*
D03*
X1561000Y2063000D02*
D03*
X1679000Y1886000D02*
D03*
X1638000D02*
D03*
X3275000Y1624000D02*
D03*
X2245000Y1571000D02*
D03*
X669000Y1694000D02*
D03*
X1502000Y1605000D02*
D03*
Y1571000D02*
D03*
X1069000Y2039000D02*
D03*
X1502000Y1636000D02*
D03*
Y1670000D02*
D03*
X1455000D02*
D03*
X1435000Y1308000D02*
D03*
X3149000Y613000D02*
D03*
X3610000Y1792000D02*
D03*
X3241000Y2009000D02*
D03*
X805000Y1996000D02*
D03*
X1603000Y1271000D02*
D03*
X1468000Y405000D02*
D03*
X2490000Y298000D02*
D03*
X2286000Y295000D02*
D03*
D58*
X2864000Y1007000D02*
D03*
X1638000Y598000D02*
D03*
%TF.MD5,63b6187e020144af1b2bb459b74c75f1*%
M02*
