G04*
G04 #@! TF.GenerationSoftware,Altium Limited,Altium Designer,19.1.9 (167)*
G04*
G04 Layer_Color=2752767*
%FSLAX25Y25*%
%MOIN*%
G70*
G01*
G75*
%ADD16C,0.00500*%
%ADD131C,0.00200*%
%ADD132C,0.00267*%
%ADD133C,0.00133*%
D16*
X354142Y125988D02*
Y137110D01*
X359359D01*
Y125988D02*
Y137110D01*
X354142Y125988D02*
X359359D01*
X286943Y156088D02*
Y167210D01*
X292159D01*
Y156088D02*
Y167210D01*
X286943Y156088D02*
X292159D01*
X298458Y155890D02*
Y167012D01*
X293241Y155890D02*
X298458D01*
X293241D02*
Y167012D01*
X298458D01*
X290258Y194590D02*
Y205712D01*
X285041Y194590D02*
X290258D01*
X285041D02*
Y205712D01*
X290258D01*
X278043Y194788D02*
Y205910D01*
X283259D01*
Y194788D02*
Y205910D01*
X278043Y194788D02*
X283259D01*
X311590Y70643D02*
X322712D01*
X311590D02*
Y75859D01*
X322712D01*
Y70643D02*
Y75859D01*
X308841Y141212D02*
X314057D01*
X308841Y130090D02*
Y141212D01*
Y130090D02*
X314057D01*
Y141212D01*
X308641Y126512D02*
X313858D01*
X308641Y115390D02*
Y126512D01*
Y115390D02*
X313858D01*
Y126512D01*
D131*
X282368Y127800D02*
Y129400D01*
X283968D01*
Y127800D01*
X282368D01*
X104232D02*
X103431Y129400D01*
X105032D01*
X104232Y127800D01*
X377800Y129000D02*
X378200Y129400D01*
X378600D01*
X378200Y129800D01*
X378600Y130200D01*
X378200D01*
X377800Y130600D01*
X377400Y130200D01*
X377000D01*
X377400Y129800D01*
X377000Y129400D01*
X377400D01*
X377800Y129000D01*
X10928Y138328D02*
X11328Y139128D01*
X10928Y139928D01*
X11728Y139528D01*
X12528Y139928D01*
X12128Y139128D01*
X12528Y138328D01*
X11728Y138728D01*
X10928Y138328D01*
X23257Y137547D02*
Y137147D01*
X24057D01*
Y137547D01*
X24457D01*
Y138347D01*
X24057D01*
Y138747D01*
X23257D01*
Y138347D01*
X22857D01*
Y137547D01*
X23257D01*
Y118453D02*
Y118053D01*
X24057D01*
Y118453D01*
X24457D01*
Y119253D01*
X24057D01*
Y119653D01*
X23257D01*
Y119253D01*
X22857D01*
Y118453D01*
X23257D01*
X10928Y116872D02*
X11328Y117672D01*
X10928Y118472D01*
X11728Y118072D01*
X12528Y118472D01*
X12128Y117672D01*
X12528Y116872D01*
X11728Y117272D01*
X10928Y116872D01*
X6200Y96800D02*
X6600D01*
X7000Y97200D01*
X7400Y96800D01*
X7800D01*
Y97200D01*
X7400Y97600D01*
X7800Y98000D01*
Y98400D01*
X7400D01*
X7000Y98000D01*
X6600Y98400D01*
X6200D01*
Y98000D01*
X6600Y97600D01*
X6200Y97200D01*
Y96800D01*
Y66800D02*
X6600D01*
X7000Y67200D01*
X7400Y66800D01*
X7800D01*
Y67200D01*
X7400Y67600D01*
X7800Y68000D01*
Y68400D01*
X7400D01*
X7000Y68000D01*
X6600Y68400D01*
X6200D01*
Y68000D01*
X6600Y67600D01*
X6200Y67200D01*
Y66800D01*
Y76800D02*
X6600D01*
X7000Y77200D01*
X7400Y76800D01*
X7800D01*
Y77200D01*
X7400Y77600D01*
X7800Y78000D01*
Y78400D01*
X7400D01*
X7000Y78000D01*
X6600Y78400D01*
X6200D01*
Y78000D01*
X6600Y77600D01*
X6200Y77200D01*
Y76800D01*
Y86800D02*
X6600D01*
X7000Y87200D01*
X7400Y86800D01*
X7800D01*
Y87200D01*
X7400Y87600D01*
X7800Y88000D01*
Y88400D01*
X7400D01*
X7000Y88000D01*
X6600Y88400D01*
X6200D01*
Y88000D01*
X6600Y87600D01*
X6200Y87200D01*
Y86800D01*
Y177900D02*
X6600D01*
X7000Y178300D01*
X7400Y177900D01*
X7800D01*
Y178300D01*
X7400Y178700D01*
X7800Y179100D01*
Y179500D01*
X7400D01*
X7000Y179100D01*
X6600Y179500D01*
X6200D01*
Y179100D01*
X6600Y178700D01*
X6200Y178300D01*
Y177900D01*
Y167900D02*
X6600D01*
X7000Y168300D01*
X7400Y167900D01*
X7800D01*
Y168300D01*
X7400Y168700D01*
X7800Y169100D01*
Y169500D01*
X7400D01*
X7000Y169100D01*
X6600Y169500D01*
X6200D01*
Y169100D01*
X6600Y168700D01*
X6200Y168300D01*
Y167900D01*
Y157900D02*
X6600D01*
X7000Y158300D01*
X7400Y157900D01*
X7800D01*
Y158300D01*
X7400Y158700D01*
X7800Y159100D01*
Y159500D01*
X7400D01*
X7000Y159100D01*
X6600Y159500D01*
X6200D01*
Y159100D01*
X6600Y158700D01*
X6200Y158300D01*
Y157900D01*
Y187900D02*
X6600D01*
X7000Y188300D01*
X7400Y187900D01*
X7800D01*
Y188300D01*
X7400Y188700D01*
X7800Y189100D01*
Y189500D01*
X7400D01*
X7000Y189100D01*
X6600Y189500D01*
X6200D01*
Y189100D01*
X6600Y188700D01*
X6200Y188300D01*
Y187900D01*
X65100Y241900D02*
X65900Y242700D01*
X66700Y241900D01*
X65900Y241100D01*
X65100Y241900D01*
X317800Y16000D02*
X318600Y16800D01*
X319400Y16000D01*
X318600Y15200D01*
X317800Y16000D01*
X65100D02*
X65900Y16800D01*
X66700Y16000D01*
X65900Y15200D01*
X65100Y16000D01*
X317800Y241900D02*
X318600Y242700D01*
X319400Y241900D01*
X318600Y241100D01*
X317800Y241900D01*
X359200Y199200D02*
Y200800D01*
X360800D01*
Y199200D01*
X359200D01*
X359600Y199600D02*
Y200400D01*
X360400D01*
Y199600D01*
X359600D01*
X359200Y79200D02*
Y80800D01*
X360800D01*
Y79200D01*
X359200D01*
X359600Y79600D02*
Y80400D01*
X360400D01*
Y79600D01*
X359600D01*
X359200Y59200D02*
Y60800D01*
X360800D01*
Y59200D01*
X359200D01*
X359600Y59600D02*
Y60400D01*
X360400D01*
Y59600D01*
X359600D01*
X339200Y79200D02*
Y80800D01*
X340800D01*
Y79200D01*
X339200D01*
X339600Y79600D02*
Y80400D01*
X340400D01*
Y79600D01*
X339600D01*
X339200Y59200D02*
Y60800D01*
X340800D01*
Y59200D01*
X339200D01*
X339600Y59600D02*
Y60400D01*
X340400D01*
Y59600D01*
X339600D01*
X319200Y219200D02*
Y220800D01*
X320800D01*
Y219200D01*
X319200D01*
X319600Y219600D02*
Y220400D01*
X320400D01*
Y219600D01*
X319600D01*
X319200Y199200D02*
Y200800D01*
X320800D01*
Y199200D01*
X319200D01*
X319600Y199600D02*
Y200400D01*
X320400D01*
Y199600D01*
X319600D01*
X319200Y79200D02*
Y80800D01*
X320800D01*
Y79200D01*
X319200D01*
X319600Y79600D02*
Y80400D01*
X320400D01*
Y79600D01*
X319600D01*
X319200Y59200D02*
Y60800D01*
X320800D01*
Y59200D01*
X319200D01*
X319600Y59600D02*
Y60400D01*
X320400D01*
Y59600D01*
X319600D01*
X319200Y39200D02*
Y40800D01*
X320800D01*
Y39200D01*
X319200D01*
X319600Y39600D02*
Y40400D01*
X320400D01*
Y39600D01*
X319600D01*
X299200Y199200D02*
Y200800D01*
X300800D01*
Y199200D01*
X299200D01*
X299600Y199600D02*
Y200400D01*
X300400D01*
Y199600D01*
X299600D01*
X299200Y179200D02*
Y180800D01*
X300800D01*
Y179200D01*
X299200D01*
X299600Y179600D02*
Y180400D01*
X300400D01*
Y179600D01*
X299600D01*
X299200Y79200D02*
Y80800D01*
X300800D01*
Y79200D01*
X299200D01*
X299600Y79600D02*
Y80400D01*
X300400D01*
Y79600D01*
X299600D01*
X299200Y59200D02*
Y60800D01*
X300800D01*
Y59200D01*
X299200D01*
X299600Y59600D02*
Y60400D01*
X300400D01*
Y59600D01*
X299600D01*
X299200Y39200D02*
Y40800D01*
X300800D01*
Y39200D01*
X299200D01*
X299600Y39600D02*
Y40400D01*
X300400D01*
Y39600D01*
X299600D01*
X299200Y19200D02*
Y20800D01*
X300800D01*
Y19200D01*
X299200D01*
X299600Y19600D02*
Y20400D01*
X300400D01*
Y19600D01*
X299600D01*
X279200Y99200D02*
Y100800D01*
X280800D01*
Y99200D01*
X279200D01*
X279600Y99600D02*
Y100400D01*
X280400D01*
Y99600D01*
X279600D01*
X279200Y59200D02*
Y60800D01*
X280800D01*
Y59200D01*
X279200D01*
X279600Y59600D02*
Y60400D01*
X280400D01*
Y59600D01*
X279600D01*
X279200Y39200D02*
Y40800D01*
X280800D01*
Y39200D01*
X279200D01*
X279600Y39600D02*
Y40400D01*
X280400D01*
Y39600D01*
X279600D01*
X259200Y199200D02*
Y200800D01*
X260800D01*
Y199200D01*
X259200D01*
X259600Y199600D02*
Y200400D01*
X260400D01*
Y199600D01*
X259600D01*
X259200Y99200D02*
Y100800D01*
X260800D01*
Y99200D01*
X259200D01*
X259600Y99600D02*
Y100400D01*
X260400D01*
Y99600D01*
X259600D01*
X259200Y79200D02*
Y80800D01*
X260800D01*
Y79200D01*
X259200D01*
X259600Y79600D02*
Y80400D01*
X260400D01*
Y79600D01*
X259600D01*
X259200Y59200D02*
Y60800D01*
X260800D01*
Y59200D01*
X259200D01*
X259600Y59600D02*
Y60400D01*
X260400D01*
Y59600D01*
X259600D01*
X259200Y39200D02*
Y40800D01*
X260800D01*
Y39200D01*
X259200D01*
X259600Y39600D02*
Y40400D01*
X260400D01*
Y39600D01*
X259600D01*
X239200Y159200D02*
Y160800D01*
X240800D01*
Y159200D01*
X239200D01*
X239600Y159600D02*
Y160400D01*
X240400D01*
Y159600D01*
X239600D01*
X239200Y119200D02*
Y120800D01*
X240800D01*
Y119200D01*
X239200D01*
X239600Y119600D02*
Y120400D01*
X240400D01*
Y119600D01*
X239600D01*
X239200Y99200D02*
Y100800D01*
X240800D01*
Y99200D01*
X239200D01*
X239600Y99600D02*
Y100400D01*
X240400D01*
Y99600D01*
X239600D01*
X239200Y79200D02*
Y80800D01*
X240800D01*
Y79200D01*
X239200D01*
X239600Y79600D02*
Y80400D01*
X240400D01*
Y79600D01*
X239600D01*
X239200Y59200D02*
Y60800D01*
X240800D01*
Y59200D01*
X239200D01*
X239600Y59600D02*
Y60400D01*
X240400D01*
Y59600D01*
X239600D01*
X219200Y79200D02*
Y80800D01*
X220800D01*
Y79200D01*
X219200D01*
X219600Y79600D02*
Y80400D01*
X220400D01*
Y79600D01*
X219600D01*
X219200Y59200D02*
Y60800D01*
X220800D01*
Y59200D01*
X219200D01*
X219600Y59600D02*
Y60400D01*
X220400D01*
Y59600D01*
X219600D01*
X219200Y39200D02*
Y40800D01*
X220800D01*
Y39200D01*
X219200D01*
X219600Y39600D02*
Y40400D01*
X220400D01*
Y39600D01*
X219600D01*
X199200Y79200D02*
Y80800D01*
X200800D01*
Y79200D01*
X199200D01*
X199600Y79600D02*
Y80400D01*
X200400D01*
Y79600D01*
X199600D01*
X199200Y39200D02*
Y40800D01*
X200800D01*
Y39200D01*
X199200D01*
X199600Y39600D02*
Y40400D01*
X200400D01*
Y39600D01*
X199600D01*
X199200Y19200D02*
Y20800D01*
X200800D01*
Y19200D01*
X199200D01*
X199600Y19600D02*
Y20400D01*
X200400D01*
Y19600D01*
X199600D01*
X179200Y199200D02*
Y200800D01*
X180800D01*
Y199200D01*
X179200D01*
X179600Y199600D02*
Y200400D01*
X180400D01*
Y199600D01*
X179600D01*
X179200Y139200D02*
Y140800D01*
X180800D01*
Y139200D01*
X179200D01*
X179600Y139600D02*
Y140400D01*
X180400D01*
Y139600D01*
X179600D01*
X179200Y79200D02*
Y80800D01*
X180800D01*
Y79200D01*
X179200D01*
X179600Y79600D02*
Y80400D01*
X180400D01*
Y79600D01*
X179600D01*
X179200Y59200D02*
Y60800D01*
X180800D01*
Y59200D01*
X179200D01*
X179600Y59600D02*
Y60400D01*
X180400D01*
Y59600D01*
X179600D01*
X179200Y39200D02*
Y40800D01*
X180800D01*
Y39200D01*
X179200D01*
X179600Y39600D02*
Y40400D01*
X180400D01*
Y39600D01*
X179600D01*
X179200Y19200D02*
Y20800D01*
X180800D01*
Y19200D01*
X179200D01*
X179600Y19600D02*
Y20400D01*
X180400D01*
Y19600D01*
X179600D01*
X159200Y199200D02*
Y200800D01*
X160800D01*
Y199200D01*
X159200D01*
X159600Y199600D02*
Y200400D01*
X160400D01*
Y199600D01*
X159600D01*
X159200Y159200D02*
Y160800D01*
X160800D01*
Y159200D01*
X159200D01*
X159600Y159600D02*
Y160400D01*
X160400D01*
Y159600D01*
X159600D01*
X159200Y139200D02*
Y140800D01*
X160800D01*
Y139200D01*
X159200D01*
X159600Y139600D02*
Y140400D01*
X160400D01*
Y139600D01*
X159600D01*
X159200Y99200D02*
Y100800D01*
X160800D01*
Y99200D01*
X159200D01*
X159600Y99600D02*
Y100400D01*
X160400D01*
Y99600D01*
X159600D01*
X159200Y39200D02*
Y40800D01*
X160800D01*
Y39200D01*
X159200D01*
X159600Y39600D02*
Y40400D01*
X160400D01*
Y39600D01*
X159600D01*
X139200Y139200D02*
Y140800D01*
X140800D01*
Y139200D01*
X139200D01*
X139600Y139600D02*
Y140400D01*
X140400D01*
Y139600D01*
X139600D01*
X139200Y99200D02*
Y100800D01*
X140800D01*
Y99200D01*
X139200D01*
X139600Y99600D02*
Y100400D01*
X140400D01*
Y99600D01*
X139600D01*
X139200Y79200D02*
Y80800D01*
X140800D01*
Y79200D01*
X139200D01*
X139600Y79600D02*
Y80400D01*
X140400D01*
Y79600D01*
X139600D01*
X139200Y59200D02*
Y60800D01*
X140800D01*
Y59200D01*
X139200D01*
X139600Y59600D02*
Y60400D01*
X140400D01*
Y59600D01*
X139600D01*
X139200Y19200D02*
Y20800D01*
X140800D01*
Y19200D01*
X139200D01*
X139600Y19600D02*
Y20400D01*
X140400D01*
Y19600D01*
X139600D01*
X119200Y199200D02*
Y200800D01*
X120800D01*
Y199200D01*
X119200D01*
X119600Y199600D02*
Y200400D01*
X120400D01*
Y199600D01*
X119600D01*
X119200Y139200D02*
Y140800D01*
X120800D01*
Y139200D01*
X119200D01*
X119600Y139600D02*
Y140400D01*
X120400D01*
Y139600D01*
X119600D01*
X119200Y79200D02*
Y80800D01*
X120800D01*
Y79200D01*
X119200D01*
X119600Y79600D02*
Y80400D01*
X120400D01*
Y79600D01*
X119600D01*
X119200Y59200D02*
Y60800D01*
X120800D01*
Y59200D01*
X119200D01*
X119600Y59600D02*
Y60400D01*
X120400D01*
Y59600D01*
X119600D01*
X119200Y39200D02*
Y40800D01*
X120800D01*
Y39200D01*
X119200D01*
X119600Y39600D02*
Y40400D01*
X120400D01*
Y39600D01*
X119600D01*
X119200Y19200D02*
Y20800D01*
X120800D01*
Y19200D01*
X119200D01*
X119600Y19600D02*
Y20400D01*
X120400D01*
Y19600D01*
X119600D01*
X99200Y159200D02*
Y160800D01*
X100800D01*
Y159200D01*
X99200D01*
X99600Y159600D02*
Y160400D01*
X100400D01*
Y159600D01*
X99600D01*
X99200Y79200D02*
Y80800D01*
X100800D01*
Y79200D01*
X99200D01*
X99600Y79600D02*
Y80400D01*
X100400D01*
Y79600D01*
X99600D01*
X99200Y59200D02*
Y60800D01*
X100800D01*
Y59200D01*
X99200D01*
X99600Y59600D02*
Y60400D01*
X100400D01*
Y59600D01*
X99600D01*
X99200Y39200D02*
Y40800D01*
X100800D01*
Y39200D01*
X99200D01*
X99600Y39600D02*
Y40400D01*
X100400D01*
Y39600D01*
X99600D01*
X99200Y19200D02*
Y20800D01*
X100800D01*
Y19200D01*
X99200D01*
X99600Y19600D02*
Y20400D01*
X100400D01*
Y19600D01*
X99600D01*
X79200Y239200D02*
Y240800D01*
X80800D01*
Y239200D01*
X79200D01*
X79600Y239600D02*
Y240400D01*
X80400D01*
Y239600D01*
X79600D01*
X79200Y219200D02*
Y220800D01*
X80800D01*
Y219200D01*
X79200D01*
X79600Y219600D02*
Y220400D01*
X80400D01*
Y219600D01*
X79600D01*
X79200Y159200D02*
Y160800D01*
X80800D01*
Y159200D01*
X79200D01*
X79600Y159600D02*
Y160400D01*
X80400D01*
Y159600D01*
X79600D01*
X79200Y139200D02*
Y140800D01*
X80800D01*
Y139200D01*
X79200D01*
X79600Y139600D02*
Y140400D01*
X80400D01*
Y139600D01*
X79600D01*
X79200Y119200D02*
Y120800D01*
X80800D01*
Y119200D01*
X79200D01*
X79600Y119600D02*
Y120400D01*
X80400D01*
Y119600D01*
X79600D01*
X79200Y99200D02*
Y100800D01*
X80800D01*
Y99200D01*
X79200D01*
X79600Y99600D02*
Y100400D01*
X80400D01*
Y99600D01*
X79600D01*
X79200Y79200D02*
Y80800D01*
X80800D01*
Y79200D01*
X79200D01*
X79600Y79600D02*
Y80400D01*
X80400D01*
Y79600D01*
X79600D01*
X79200Y59200D02*
Y60800D01*
X80800D01*
Y59200D01*
X79200D01*
X79600Y59600D02*
Y60400D01*
X80400D01*
Y59600D01*
X79600D01*
X79200Y39200D02*
Y40800D01*
X80800D01*
Y39200D01*
X79200D01*
X79600Y39600D02*
Y40400D01*
X80400D01*
Y39600D01*
X79600D01*
X79200Y19200D02*
Y20800D01*
X80800D01*
Y19200D01*
X79200D01*
X79600Y19600D02*
Y20400D01*
X80400D01*
Y19600D01*
X79600D01*
X59200Y219200D02*
Y220800D01*
X60800D01*
Y219200D01*
X59200D01*
X59600Y219600D02*
Y220400D01*
X60400D01*
Y219600D01*
X59600D01*
X59200Y199200D02*
Y200800D01*
X60800D01*
Y199200D01*
X59200D01*
X59600Y199600D02*
Y200400D01*
X60400D01*
Y199600D01*
X59600D01*
X59200Y159200D02*
Y160800D01*
X60800D01*
Y159200D01*
X59200D01*
X59600Y159600D02*
Y160400D01*
X60400D01*
Y159600D01*
X59600D01*
X59200Y139200D02*
Y140800D01*
X60800D01*
Y139200D01*
X59200D01*
X59600Y139600D02*
Y140400D01*
X60400D01*
Y139600D01*
X59600D01*
X59200Y99200D02*
Y100800D01*
X60800D01*
Y99200D01*
X59200D01*
X59600Y99600D02*
Y100400D01*
X60400D01*
Y99600D01*
X59600D01*
X59200Y79200D02*
Y80800D01*
X60800D01*
Y79200D01*
X59200D01*
X59600Y79600D02*
Y80400D01*
X60400D01*
Y79600D01*
X59600D01*
X59200Y59200D02*
Y60800D01*
X60800D01*
Y59200D01*
X59200D01*
X59600Y59600D02*
Y60400D01*
X60400D01*
Y59600D01*
X59600D01*
X59200Y39200D02*
Y40800D01*
X60800D01*
Y39200D01*
X59200D01*
X59600Y39600D02*
Y40400D01*
X60400D01*
Y39600D01*
X59600D01*
X39200Y199200D02*
Y200800D01*
X40800D01*
Y199200D01*
X39200D01*
X39600Y199600D02*
Y200400D01*
X40400D01*
Y199600D01*
X39600D01*
X39200Y159200D02*
Y160800D01*
X40800D01*
Y159200D01*
X39200D01*
X39600Y159600D02*
Y160400D01*
X40400D01*
Y159600D01*
X39600D01*
X39200Y99200D02*
Y100800D01*
X40800D01*
Y99200D01*
X39200D01*
X39600Y99600D02*
Y100400D01*
X40400D01*
Y99600D01*
X39600D01*
X39200Y79200D02*
Y80800D01*
X40800D01*
Y79200D01*
X39200D01*
X39600Y79600D02*
Y80400D01*
X40400D01*
Y79600D01*
X39600D01*
X39200Y59200D02*
Y60800D01*
X40800D01*
Y59200D01*
X39200D01*
X39600Y59600D02*
Y60400D01*
X40400D01*
Y59600D01*
X39600D01*
X19200Y199200D02*
Y200800D01*
X20800D01*
Y199200D01*
X19200D01*
X19600Y199600D02*
Y200400D01*
X20400D01*
Y199600D01*
X19600D01*
X19200Y159200D02*
Y160800D01*
X20800D01*
Y159200D01*
X19200D01*
X19600Y159600D02*
Y160400D01*
X20400D01*
Y159600D01*
X19600D01*
X19200Y99200D02*
Y100800D01*
X20800D01*
Y99200D01*
X19200D01*
X19600Y99600D02*
Y100400D01*
X20400D01*
Y99600D01*
X19600D01*
X19200Y79200D02*
Y80800D01*
X20800D01*
Y79200D01*
X19200D01*
X19600Y79600D02*
Y80400D01*
X20400D01*
Y79600D01*
X19600D01*
X19200Y59200D02*
Y60800D01*
X20800D01*
Y59200D01*
X19200D01*
X19600Y59600D02*
Y60400D01*
X20400D01*
Y59600D01*
X19600D01*
X296765Y244987D02*
Y246587D01*
X298365D01*
Y244987D01*
X296765D01*
X297165Y245387D02*
Y246187D01*
X297965D01*
Y245387D01*
X297165D01*
X292507Y240072D02*
Y241672D01*
X294107D01*
Y240072D01*
X292507D01*
X292907Y240472D02*
Y241272D01*
X293707D01*
Y240472D01*
X292907D01*
X292581Y237473D02*
Y239073D01*
X294181D01*
Y237473D01*
X292581D01*
X292981Y237873D02*
Y238673D01*
X293781D01*
Y237873D01*
X292981D01*
X293609Y235085D02*
Y236685D01*
X295209D01*
Y235085D01*
X293609D01*
X294009Y235485D02*
Y236285D01*
X294809D01*
Y235485D01*
X294009D01*
X293609Y232485D02*
Y234085D01*
X295209D01*
Y232485D01*
X293609D01*
X294009Y232885D02*
Y233685D01*
X294809D01*
Y232885D01*
X294009D01*
X293609Y229885D02*
Y231485D01*
X295209D01*
Y229885D01*
X293609D01*
X294009Y230285D02*
Y231085D01*
X294809D01*
Y230285D01*
X294009D01*
X293609Y227285D02*
Y228885D01*
X295209D01*
Y227285D01*
X293609D01*
X294009Y227685D02*
Y228485D01*
X294809D01*
Y227685D01*
X294009D01*
X292796Y224815D02*
Y226415D01*
X294396D01*
Y224815D01*
X292796D01*
X293196Y225215D02*
Y226015D01*
X293996D01*
Y225215D01*
X293196D01*
X290957Y222977D02*
Y224577D01*
X292557D01*
Y222977D01*
X290957D01*
X291357Y223377D02*
Y224177D01*
X292157D01*
Y223377D01*
X291357D01*
X289119Y221138D02*
Y222738D01*
X290719D01*
Y221138D01*
X289119D01*
X289519Y221538D02*
Y222338D01*
X290319D01*
Y221538D01*
X289519D01*
X287280Y219300D02*
Y220900D01*
X288880D01*
Y219300D01*
X287280D01*
X287680Y219700D02*
Y220500D01*
X288480D01*
Y219700D01*
X287680D01*
X283072Y216391D02*
Y217991D01*
X284672D01*
Y216391D01*
X283072D01*
X283472Y216791D02*
Y217591D01*
X284273D01*
Y216791D01*
X283472D01*
X280472Y216391D02*
Y217991D01*
X282072D01*
Y216391D01*
X280472D01*
X280873Y216791D02*
Y217591D01*
X281673D01*
Y216791D01*
X280873D01*
X277872Y216391D02*
Y217991D01*
X279472D01*
Y216391D01*
X277872D01*
X278273Y216791D02*
Y217591D01*
X279072D01*
Y216791D01*
X278273D01*
X275272Y216391D02*
Y217991D01*
X276872D01*
Y216391D01*
X275272D01*
X275673Y216791D02*
Y217591D01*
X276472D01*
Y216791D01*
X275673D01*
X272673Y216391D02*
Y217991D01*
X274272D01*
Y216391D01*
X272673D01*
X273073Y216791D02*
Y217591D01*
X273872D01*
Y216791D01*
X273073D01*
X270073Y216391D02*
Y217991D01*
X271673D01*
Y216391D01*
X270073D01*
X270473Y216791D02*
Y217591D01*
X271272D01*
Y216791D01*
X270473D01*
X267473Y216391D02*
Y217991D01*
X269073D01*
Y216391D01*
X267473D01*
X267873Y216791D02*
Y217591D01*
X268672D01*
Y216791D01*
X267873D01*
X264873Y216391D02*
Y217991D01*
X266473D01*
Y216391D01*
X264873D01*
X265272Y216791D02*
Y217591D01*
X266073D01*
Y216791D01*
X265272D01*
X262273Y216348D02*
Y217948D01*
X263873D01*
Y216348D01*
X262273D01*
X262673Y216748D02*
Y217548D01*
X263473D01*
Y216748D01*
X262673D01*
X259935Y215210D02*
Y216810D01*
X261536D01*
Y215210D01*
X259935D01*
X260335Y215610D02*
Y216409D01*
X261136D01*
Y215610D01*
X260335D01*
X258097Y213371D02*
Y214971D01*
X259697D01*
Y213371D01*
X258097D01*
X258497Y213771D02*
Y214571D01*
X259297D01*
Y213771D01*
X258497D01*
X256259Y211533D02*
Y213133D01*
X257859D01*
Y211533D01*
X256259D01*
X256659Y211933D02*
Y212733D01*
X257459D01*
Y211933D01*
X256659D01*
X254420Y209694D02*
Y211294D01*
X256020D01*
Y209694D01*
X254420D01*
X254820Y210094D02*
Y210894D01*
X255620D01*
Y210094D01*
X254820D01*
X252582Y207856D02*
Y209456D01*
X254182D01*
Y207856D01*
X252582D01*
X252982Y208256D02*
Y209056D01*
X253782D01*
Y208256D01*
X252982D01*
X250743Y206017D02*
Y207617D01*
X252343D01*
Y206017D01*
X250743D01*
X251143Y206417D02*
Y207217D01*
X251943D01*
Y206417D01*
X251143D01*
X248905Y204179D02*
Y205779D01*
X250505D01*
Y204179D01*
X248905D01*
X249305Y204579D02*
Y205379D01*
X250105D01*
Y204579D01*
X249305D01*
X246761Y202708D02*
Y204308D01*
X248361D01*
Y202708D01*
X246761D01*
X247161Y203108D02*
Y203908D01*
X247961D01*
Y203108D01*
X247161D01*
X244161Y202708D02*
Y204308D01*
X245761D01*
Y202708D01*
X244161D01*
X244561Y203108D02*
Y203908D01*
X245361D01*
Y203108D01*
X244561D01*
X241561Y202708D02*
Y204308D01*
X243161D01*
Y202708D01*
X241561D01*
X241961Y203108D02*
Y203908D01*
X242761D01*
Y203108D01*
X241961D01*
X238961Y202708D02*
Y204308D01*
X240561D01*
Y202708D01*
X238961D01*
X239361Y203108D02*
Y203908D01*
X240161D01*
Y203108D01*
X239361D01*
X236361Y202708D02*
Y204308D01*
X237961D01*
Y202708D01*
X236361D01*
X236761Y203108D02*
Y203908D01*
X237561D01*
Y203108D01*
X236761D01*
X233761Y202708D02*
Y204308D01*
X235361D01*
Y202708D01*
X233761D01*
X234161Y203108D02*
Y203908D01*
X234961D01*
Y203108D01*
X234161D01*
X231161Y202708D02*
Y204308D01*
X232761D01*
Y202708D01*
X231161D01*
X231561Y203108D02*
Y203908D01*
X232361D01*
Y203108D01*
X231561D01*
X228561Y202708D02*
Y204308D01*
X230161D01*
Y202708D01*
X228561D01*
X228961Y203108D02*
Y203908D01*
X229761D01*
Y203108D01*
X228961D01*
X225961Y202708D02*
Y204308D01*
X227561D01*
Y202708D01*
X225961D01*
X226361Y203108D02*
Y203908D01*
X227161D01*
Y203108D01*
X226361D01*
X223361Y202708D02*
Y204308D01*
X224961D01*
Y202708D01*
X223361D01*
X223761Y203108D02*
Y203908D01*
X224561D01*
Y203108D01*
X223761D01*
X220761Y202708D02*
Y204308D01*
X222361D01*
Y202708D01*
X220761D01*
X221161Y203108D02*
Y203908D01*
X221961D01*
Y203108D01*
X221161D01*
X218161Y202708D02*
Y204308D01*
X219761D01*
Y202708D01*
X218161D01*
X218561Y203108D02*
Y203908D01*
X219361D01*
Y203108D01*
X218561D01*
X215561Y202708D02*
Y204308D01*
X217161D01*
Y202708D01*
X215561D01*
X215961Y203108D02*
Y203908D01*
X216761D01*
Y203108D01*
X215961D01*
X212961Y202708D02*
Y204308D01*
X214561D01*
Y202708D01*
X212961D01*
X213361Y203108D02*
Y203908D01*
X214161D01*
Y203108D01*
X213361D01*
X210361Y202708D02*
Y204308D01*
X211961D01*
Y202708D01*
X210361D01*
X210761Y203108D02*
Y203908D01*
X211561D01*
Y203108D01*
X210761D01*
X207761Y202708D02*
Y204308D01*
X209361D01*
Y202708D01*
X207761D01*
X208161Y203108D02*
Y203908D01*
X208961D01*
Y203108D01*
X208161D01*
X205161Y202708D02*
Y204308D01*
X206761D01*
Y202708D01*
X205161D01*
X205561Y203108D02*
Y203908D01*
X206361D01*
Y203108D01*
X205561D01*
X202561Y202708D02*
Y204308D01*
X204161D01*
Y202708D01*
X202561D01*
X202961Y203108D02*
Y203908D01*
X203761D01*
Y203108D01*
X202961D01*
X199961Y202708D02*
Y204308D01*
X201561D01*
Y202708D01*
X199961D01*
X200361Y203108D02*
Y203908D01*
X201161D01*
Y203108D01*
X200361D01*
X197361Y202708D02*
Y204308D01*
X198961D01*
Y202708D01*
X197361D01*
X197761Y203108D02*
Y203908D01*
X198561D01*
Y203108D01*
X197761D01*
X185833Y197609D02*
Y199209D01*
X187433D01*
Y197609D01*
X185833D01*
X186232Y198009D02*
Y198809D01*
X187032D01*
Y198009D01*
X186232D01*
X186124Y184842D02*
Y186442D01*
X187724D01*
Y184842D01*
X186124D01*
X186524Y185242D02*
Y186042D01*
X187324D01*
Y185242D01*
X186524D01*
X193506Y185128D02*
Y186728D01*
X195106D01*
Y185128D01*
X193506D01*
X193906Y185528D02*
Y186328D01*
X194706D01*
Y185528D01*
X193906D01*
X194505Y190128D02*
Y191728D01*
X196105D01*
Y190128D01*
X194505D01*
X194905Y190528D02*
Y191328D01*
X195705D01*
Y190528D01*
X194905D01*
X194574Y192727D02*
Y194327D01*
X196174D01*
Y192727D01*
X194574D01*
X194974Y193127D02*
Y193927D01*
X195774D01*
Y193127D01*
X194974D01*
X194521Y195326D02*
Y196926D01*
X196121D01*
Y195326D01*
X194521D01*
X194921Y195726D02*
Y196526D01*
X195721D01*
Y195726D01*
X194921D01*
X197121Y195326D02*
Y196926D01*
X198721D01*
Y195326D01*
X197121D01*
X197521Y195726D02*
Y196526D01*
X198321D01*
Y195726D01*
X197521D01*
X199721Y195326D02*
Y196926D01*
X201321D01*
Y195326D01*
X199721D01*
X200121Y195726D02*
Y196526D01*
X200921D01*
Y195726D01*
X200121D01*
X202321Y195326D02*
Y196926D01*
X203921D01*
Y195326D01*
X202321D01*
X202721Y195726D02*
Y196526D01*
X203521D01*
Y195726D01*
X202721D01*
X204921Y195326D02*
Y196926D01*
X206521D01*
Y195326D01*
X204921D01*
X205321Y195726D02*
Y196526D01*
X206121D01*
Y195726D01*
X205321D01*
X207521Y195326D02*
Y196926D01*
X209121D01*
Y195326D01*
X207521D01*
X207921Y195726D02*
Y196526D01*
X208721D01*
Y195726D01*
X207921D01*
X210121Y195326D02*
Y196926D01*
X211721D01*
Y195326D01*
X210121D01*
X210521Y195726D02*
Y196526D01*
X211321D01*
Y195726D01*
X210521D01*
X212721Y195326D02*
Y196926D01*
X214321D01*
Y195326D01*
X212721D01*
X213121Y195726D02*
Y196526D01*
X213921D01*
Y195726D01*
X213121D01*
X215321Y195326D02*
Y196926D01*
X216921D01*
Y195326D01*
X215321D01*
X215721Y195726D02*
Y196526D01*
X216521D01*
Y195726D01*
X215721D01*
X217921Y195326D02*
Y196926D01*
X219521D01*
Y195326D01*
X217921D01*
X218321Y195726D02*
Y196526D01*
X219121D01*
Y195726D01*
X218321D01*
X220521Y195326D02*
Y196926D01*
X222121D01*
Y195326D01*
X220521D01*
X220921Y195726D02*
Y196526D01*
X221721D01*
Y195726D01*
X220921D01*
X223121Y195326D02*
Y196926D01*
X224721D01*
Y195326D01*
X223121D01*
X223521Y195726D02*
Y196526D01*
X224321D01*
Y195726D01*
X223521D01*
X225721Y195326D02*
Y196926D01*
X227321D01*
Y195326D01*
X225721D01*
X226121Y195726D02*
Y196526D01*
X226921D01*
Y195726D01*
X226121D01*
X228321Y195326D02*
Y196926D01*
X229921D01*
Y195326D01*
X228321D01*
X228721Y195726D02*
Y196526D01*
X229521D01*
Y195726D01*
X228721D01*
X230921Y195326D02*
Y196926D01*
X232521D01*
Y195326D01*
X230921D01*
X231321Y195726D02*
Y196526D01*
X232121D01*
Y195726D01*
X231321D01*
X233521Y195326D02*
Y196926D01*
X235121D01*
Y195326D01*
X233521D01*
X233921Y195726D02*
Y196526D01*
X234721D01*
Y195726D01*
X233921D01*
X236121Y195326D02*
Y196926D01*
X237721D01*
Y195326D01*
X236121D01*
X236521Y195726D02*
Y196526D01*
X237321D01*
Y195726D01*
X236521D01*
X238721Y195326D02*
Y196926D01*
X240321D01*
Y195326D01*
X238721D01*
X239121Y195726D02*
Y196526D01*
X239921D01*
Y195726D01*
X239121D01*
X241321Y195326D02*
Y196926D01*
X242921D01*
Y195326D01*
X241321D01*
X241721Y195726D02*
Y196526D01*
X242521D01*
Y195726D01*
X241721D01*
X243921Y195326D02*
Y196926D01*
X245521D01*
Y195326D01*
X243921D01*
X244321Y195726D02*
Y196526D01*
X245121D01*
Y195726D01*
X244321D01*
X246521Y195326D02*
Y196926D01*
X248121D01*
Y195326D01*
X246521D01*
X246921Y195726D02*
Y196526D01*
X247721D01*
Y195726D01*
X246921D01*
X249121Y195334D02*
Y196934D01*
X250721D01*
Y195334D01*
X249121D01*
X249521Y195734D02*
Y196534D01*
X250321D01*
Y195734D01*
X249521D01*
X251510Y196359D02*
Y197959D01*
X253110D01*
Y196359D01*
X251510D01*
X251910Y196759D02*
Y197559D01*
X252710D01*
Y196759D01*
X251910D01*
X253356Y198191D02*
Y199791D01*
X254956D01*
Y198191D01*
X253356D01*
X253756Y198591D02*
Y199391D01*
X254556D01*
Y198591D01*
X253756D01*
X255194Y200029D02*
Y201629D01*
X256794D01*
Y200029D01*
X255194D01*
X255594Y200429D02*
Y201229D01*
X256394D01*
Y200429D01*
X255594D01*
X257033Y201868D02*
Y203468D01*
X258633D01*
Y201868D01*
X257033D01*
X257433Y202268D02*
Y203068D01*
X258233D01*
Y202268D01*
X257433D01*
X258871Y203706D02*
Y205306D01*
X260471D01*
Y203706D01*
X258871D01*
X259271Y204106D02*
Y204906D01*
X260071D01*
Y204106D01*
X259271D01*
X260710Y205544D02*
Y207144D01*
X262310D01*
Y205544D01*
X260710D01*
X261110Y205944D02*
Y206745D01*
X261910D01*
Y205944D01*
X261110D01*
X262548Y207383D02*
Y208983D01*
X264148D01*
Y207383D01*
X262548D01*
X262948Y207783D02*
Y208583D01*
X263748D01*
Y207783D01*
X262948D01*
X264577Y209009D02*
Y210609D01*
X266177D01*
Y209009D01*
X264577D01*
X264977Y209409D02*
Y210209D01*
X265777D01*
Y209409D01*
X264977D01*
X267177Y209009D02*
Y210609D01*
X268777D01*
Y209009D01*
X267177D01*
X267577Y209409D02*
Y210209D01*
X268377D01*
Y209409D01*
X267577D01*
X269777Y209009D02*
Y210609D01*
X271377D01*
Y209009D01*
X269777D01*
X270177Y209409D02*
Y210209D01*
X270977D01*
Y209409D01*
X270177D01*
X272377Y209009D02*
Y210609D01*
X273977D01*
Y209009D01*
X272377D01*
X272777Y209409D02*
Y210209D01*
X273577D01*
Y209409D01*
X272777D01*
X274977Y209009D02*
Y210609D01*
X276577D01*
Y209009D01*
X274977D01*
X275377Y209409D02*
Y210209D01*
X276177D01*
Y209409D01*
X275377D01*
X277577Y209009D02*
Y210609D01*
X279177D01*
Y209009D01*
X277577D01*
X277977Y209409D02*
Y210209D01*
X278777D01*
Y209409D01*
X277977D01*
X280177Y209009D02*
Y210609D01*
X281777D01*
Y209009D01*
X280177D01*
X280577Y209409D02*
Y210209D01*
X281377D01*
Y209409D01*
X280577D01*
X282777Y209009D02*
Y210609D01*
X284377D01*
Y209009D01*
X282777D01*
X283177Y209409D02*
Y210209D01*
X283977D01*
Y209409D01*
X283177D01*
X285377Y209009D02*
Y210609D01*
X286977D01*
Y209009D01*
X285377D01*
X285777Y209409D02*
Y210209D01*
X286577D01*
Y209409D01*
X285777D01*
X287904Y209620D02*
Y211220D01*
X289504D01*
Y209620D01*
X287904D01*
X288304Y210020D02*
Y210820D01*
X289104D01*
Y210020D01*
X288304D01*
X289809Y211390D02*
Y212990D01*
X291409D01*
Y211390D01*
X289809D01*
X290209Y211790D02*
Y212590D01*
X291009D01*
Y211790D01*
X290209D01*
X291648Y213228D02*
Y214828D01*
X293248D01*
Y213228D01*
X291648D01*
X292048Y213628D02*
Y214428D01*
X292848D01*
Y213628D01*
X292048D01*
X293486Y215067D02*
Y216667D01*
X295086D01*
Y215067D01*
X293486D01*
X293886Y215466D02*
Y216266D01*
X294686D01*
Y215466D01*
X293886D01*
X295325Y216905D02*
Y218505D01*
X296925D01*
Y216905D01*
X295325D01*
X295725Y217305D02*
Y218105D01*
X296525D01*
Y217305D01*
X295725D01*
X297163Y218743D02*
Y220343D01*
X298763D01*
Y218743D01*
X297163D01*
X297563Y219143D02*
Y219943D01*
X298363D01*
Y219143D01*
X297563D01*
X299002Y220582D02*
Y222182D01*
X300602D01*
Y220582D01*
X299002D01*
X299401Y220982D02*
Y221782D01*
X300202D01*
Y220982D01*
X299401D01*
X300657Y222587D02*
Y224187D01*
X302257D01*
Y222587D01*
X300657D01*
X301057Y222987D02*
Y223787D01*
X301857D01*
Y222987D01*
X301057D01*
X300991Y225166D02*
Y226765D01*
X302591D01*
Y225166D01*
X300991D01*
X301391Y225566D02*
Y226365D01*
X302191D01*
Y225566D01*
X301391D01*
X300991Y227765D02*
Y229365D01*
X302591D01*
Y227765D01*
X300991D01*
X301391Y228166D02*
Y228965D01*
X302191D01*
Y228166D01*
X301391D01*
X300991Y230365D02*
Y231965D01*
X302591D01*
Y230365D01*
X300991D01*
X301391Y230766D02*
Y231565D01*
X302191D01*
Y230766D01*
X301391D01*
X300991Y232965D02*
Y234565D01*
X302591D01*
Y232965D01*
X300991D01*
X301391Y233366D02*
Y234166D01*
X302191D01*
Y233366D01*
X301391D01*
X300991Y235565D02*
Y237165D01*
X302591D01*
Y235565D01*
X300991D01*
X301391Y235965D02*
Y236766D01*
X302191D01*
Y235965D01*
X301391D01*
X302079Y237927D02*
Y239527D01*
X303679D01*
Y237927D01*
X302079D01*
X302479Y238327D02*
Y239127D01*
X303279D01*
Y238327D01*
X302479D01*
X186509Y216419D02*
Y218019D01*
X188109D01*
Y216419D01*
X186509D01*
X186909Y216819D02*
Y217619D01*
X187709D01*
Y216819D01*
X186909D01*
X185943Y206155D02*
Y207755D01*
X187543D01*
Y206155D01*
X185943D01*
X186343Y206555D02*
Y207355D01*
X187143D01*
Y206555D01*
X186343D01*
X185803Y203558D02*
Y205158D01*
X187403D01*
Y203558D01*
X185803D01*
X186203Y203959D02*
Y204759D01*
X187003D01*
Y203959D01*
X186203D01*
X186546Y201067D02*
Y202667D01*
X188146D01*
Y201067D01*
X186546D01*
X186946Y201467D02*
Y202267D01*
X187746D01*
Y201467D01*
X186946D01*
X194797Y203496D02*
Y205096D01*
X196397D01*
Y203496D01*
X194797D01*
X195197Y203895D02*
Y204696D01*
X195997D01*
Y203895D01*
X195197D01*
X194682Y206093D02*
Y207693D01*
X196282D01*
Y206093D01*
X194682D01*
X195082Y206493D02*
Y207293D01*
X195882D01*
Y206493D01*
X195082D01*
X194921Y208682D02*
Y210282D01*
X196521D01*
Y208682D01*
X194921D01*
X195321Y209082D02*
Y209882D01*
X196121D01*
Y209082D01*
X195321D01*
X195074Y211278D02*
Y212877D01*
X196674D01*
Y211278D01*
X195074D01*
X195474Y211678D02*
Y212477D01*
X196274D01*
Y211678D01*
X195474D01*
X194992Y213876D02*
Y215476D01*
X196592D01*
Y213876D01*
X194992D01*
X195392Y214276D02*
Y215076D01*
X196192D01*
Y214276D01*
X195392D01*
X193891Y216232D02*
Y217832D01*
X195491D01*
Y216232D01*
X193891D01*
X194291Y216632D02*
Y217432D01*
X195091D01*
Y216632D01*
X194291D01*
X70100Y149400D02*
Y151000D01*
X71700D01*
Y149400D01*
X70100D01*
X70500Y149800D02*
Y150600D01*
X71300D01*
Y149800D01*
X70500D01*
X70100Y146800D02*
Y148400D01*
X71700D01*
Y146800D01*
X70100D01*
X70500Y147200D02*
Y148000D01*
X71300D01*
Y147200D01*
X70500D01*
X269500Y76600D02*
Y78200D01*
X271100D01*
Y76600D01*
X269500D01*
X269900Y77000D02*
Y77800D01*
X270700D01*
Y77000D01*
X269900D01*
X32800Y127400D02*
Y129000D01*
X34400D01*
Y127400D01*
X32800D01*
X33200Y127800D02*
Y128600D01*
X34000D01*
Y127800D01*
X33200D01*
X32800Y124800D02*
Y126400D01*
X34400D01*
Y124800D01*
X32800D01*
X33200Y125200D02*
Y126000D01*
X34000D01*
Y125200D01*
X33200D01*
X237700Y24600D02*
Y26200D01*
X239300D01*
Y24600D01*
X237700D01*
X238100Y25000D02*
Y25800D01*
X238900D01*
Y25000D01*
X238100D01*
X224000Y23400D02*
Y25000D01*
X225600D01*
Y23400D01*
X224000D01*
X224400Y23800D02*
Y24600D01*
X225200D01*
Y23800D01*
X224400D01*
X362000Y123300D02*
Y124900D01*
X363600D01*
Y123300D01*
X362000D01*
X362400Y123700D02*
Y124500D01*
X363200D01*
Y123700D01*
X362400D01*
X355900Y123400D02*
Y125000D01*
X357500D01*
Y123400D01*
X355900D01*
X356300Y123800D02*
Y124600D01*
X357100D01*
Y123800D01*
X356300D01*
X217700Y99700D02*
Y101300D01*
X219300D01*
Y99700D01*
X217700D01*
X218100Y100100D02*
Y100900D01*
X218900D01*
Y100100D01*
X218100D01*
X212227Y99978D02*
Y101578D01*
X213827D01*
Y99978D01*
X212227D01*
X212627Y100378D02*
Y101178D01*
X213427D01*
Y100378D01*
X212627D01*
X361500Y99900D02*
Y101500D01*
X363100D01*
Y99900D01*
X361500D01*
X361900Y100300D02*
Y101100D01*
X362700D01*
Y100300D01*
X361900D01*
X378100Y93600D02*
Y95200D01*
X379700D01*
Y93600D01*
X378100D01*
X378500Y94000D02*
Y94800D01*
X379300D01*
Y94000D01*
X378500D01*
X191500Y163300D02*
Y164900D01*
X193100D01*
Y163300D01*
X191500D01*
X191900Y163700D02*
Y164500D01*
X192700D01*
Y163700D01*
X191900D01*
X146800Y169200D02*
Y170800D01*
X148400D01*
Y169200D01*
X146800D01*
X147200Y169600D02*
Y170400D01*
X148000D01*
Y169600D01*
X147200D01*
X176700Y72300D02*
Y73900D01*
X178300D01*
Y72300D01*
X176700D01*
X177100Y72700D02*
Y73500D01*
X177900D01*
Y72700D01*
X177100D01*
X329700Y141500D02*
Y143100D01*
X331300D01*
Y141500D01*
X329700D01*
X330100Y141900D02*
Y142700D01*
X330900D01*
Y141900D01*
X330100D01*
X359000Y138700D02*
Y140300D01*
X360600D01*
Y138700D01*
X359000D01*
X359400Y139100D02*
Y139900D01*
X360200D01*
Y139100D01*
X359400D01*
X323300Y141500D02*
Y143100D01*
X324900D01*
Y141500D01*
X323300D01*
X323700Y141900D02*
Y142700D01*
X324500D01*
Y141900D01*
X323700D01*
X139600Y141500D02*
Y143100D01*
X141200D01*
Y141500D01*
X139600D01*
X140000Y141900D02*
Y142700D01*
X140800D01*
Y141900D01*
X140000D01*
X143900Y110300D02*
Y111900D01*
X145500D01*
Y110300D01*
X143900D01*
X144300Y110700D02*
Y111500D01*
X145100D01*
Y110700D01*
X144300D01*
X313500Y161269D02*
Y162869D01*
X315100D01*
Y161269D01*
X313500D01*
X313900Y161669D02*
Y162469D01*
X314700D01*
Y161669D01*
X313900D01*
X301600Y151100D02*
Y152700D01*
X303200D01*
Y151100D01*
X301600D01*
X302000Y151500D02*
Y152300D01*
X302800D01*
Y151500D01*
X302000D01*
X185100Y114300D02*
Y115900D01*
X186700D01*
Y114300D01*
X185100D01*
X185500Y114700D02*
Y115500D01*
X186300D01*
Y114700D01*
X185500D01*
X205100Y126500D02*
Y128100D01*
X206700D01*
Y126500D01*
X205100D01*
X205500Y126900D02*
Y127700D01*
X206300D01*
Y126900D01*
X205500D01*
Y172712D02*
Y174312D01*
X207100D01*
Y172712D01*
X205500D01*
X205900Y173112D02*
Y173912D01*
X206700D01*
Y173112D01*
X205900D01*
X149400Y172400D02*
Y174000D01*
X151000D01*
Y172400D01*
X149400D01*
X149800Y172800D02*
Y173600D01*
X150600D01*
Y172800D01*
X149800D01*
X149400Y175900D02*
Y177500D01*
X151000D01*
Y175900D01*
X149400D01*
X149800Y176300D02*
Y177100D01*
X150600D01*
Y176300D01*
X149800D01*
X205500Y168100D02*
Y169700D01*
X207100D01*
Y168100D01*
X205500D01*
X205900Y168500D02*
Y169300D01*
X206700D01*
Y168500D01*
X205900D01*
X361400Y191500D02*
Y193100D01*
X363000D01*
Y191500D01*
X361400D01*
X361800Y191900D02*
Y192700D01*
X362600D01*
Y191900D01*
X361800D01*
X375300Y191500D02*
Y193100D01*
X376900D01*
Y191500D01*
X375300D01*
X375700Y191900D02*
Y192700D01*
X376500D01*
Y191900D01*
X375700D01*
X368200Y191500D02*
Y193100D01*
X369800D01*
Y191500D01*
X368200D01*
X368600Y191900D02*
Y192700D01*
X369400D01*
Y191900D01*
X368600D01*
X300900Y202000D02*
Y203600D01*
X302500D01*
Y202000D01*
X300900D01*
X301300Y202400D02*
Y203200D01*
X302100D01*
Y202400D01*
X301300D01*
X293300Y190700D02*
Y192300D01*
X294900D01*
Y190700D01*
X293300D01*
X293700Y191100D02*
Y191900D01*
X294500D01*
Y191100D01*
X293700D01*
X279800Y190100D02*
Y191700D01*
X281400D01*
Y190100D01*
X279800D01*
X280200Y190500D02*
Y191300D01*
X281000D01*
Y190500D01*
X280200D01*
X288800Y151200D02*
Y152800D01*
X290400D01*
Y151200D01*
X288800D01*
X289200Y151600D02*
Y152400D01*
X290000D01*
Y151600D01*
X289200D01*
X211700Y131600D02*
Y133200D01*
X213300D01*
Y131600D01*
X211700D01*
X212100Y132000D02*
Y132800D01*
X212900D01*
Y132000D01*
X212100D01*
X323400Y205400D02*
Y207000D01*
X325000D01*
Y205400D01*
X323400D01*
X323800Y205800D02*
Y206600D01*
X324600D01*
Y205800D01*
X323800D01*
X125000Y115900D02*
Y117500D01*
X126600D01*
Y115900D01*
X125000D01*
X125400Y116300D02*
Y117100D01*
X126200D01*
Y116300D01*
X125400D01*
X120100Y121600D02*
Y123200D01*
X121700D01*
Y121600D01*
X120100D01*
X120500Y122000D02*
Y122800D01*
X121300D01*
Y122000D01*
X120500D01*
X137833Y125705D02*
Y127305D01*
X139433D01*
Y125705D01*
X137833D01*
X138233Y126105D02*
Y126905D01*
X139033D01*
Y126105D01*
X138233D01*
X143118Y26513D02*
Y28113D01*
X144718D01*
Y26513D01*
X143118D01*
X143518Y26913D02*
Y27713D01*
X144318D01*
Y26913D01*
X143518D01*
X205500Y177324D02*
Y178924D01*
X207100D01*
Y177324D01*
X205500D01*
X205900Y177724D02*
Y178524D01*
X206700D01*
Y177724D01*
X205900D01*
X293200Y168300D02*
Y169900D01*
X294800D01*
Y168300D01*
X293200D01*
X293600Y168700D02*
Y169500D01*
X294400D01*
Y168700D01*
X293600D01*
X307600Y169300D02*
Y170900D01*
X309200D01*
Y169300D01*
X307600D01*
X308000Y169700D02*
Y170500D01*
X308800D01*
Y169700D01*
X308000D01*
X307600Y174600D02*
Y176200D01*
X309200D01*
Y174600D01*
X307600D01*
X308000Y175000D02*
Y175800D01*
X308800D01*
Y175000D01*
X308000D01*
X321400Y191100D02*
Y192700D01*
X323000D01*
Y191100D01*
X321400D01*
X321800Y191500D02*
Y192300D01*
X322600D01*
Y191500D01*
X321800D01*
X54600Y104200D02*
Y105800D01*
X56200D01*
Y104200D01*
X54600D01*
X55000Y104600D02*
Y105400D01*
X55800D01*
Y104600D01*
X55000D01*
X135200Y156600D02*
Y158200D01*
X136800D01*
Y156600D01*
X135200D01*
X135600Y157000D02*
Y157800D01*
X136400D01*
Y157000D01*
X135600D01*
X134500Y194400D02*
Y196000D01*
X136100D01*
Y194400D01*
X134500D01*
X134900Y194800D02*
Y195600D01*
X135700D01*
Y194800D01*
X134900D01*
X159100Y187800D02*
Y189400D01*
X160700D01*
Y187800D01*
X159100D01*
X159500Y188200D02*
Y189000D01*
X160300D01*
Y188200D01*
X159500D01*
X147400Y205500D02*
Y207100D01*
X149000D01*
Y205500D01*
X147400D01*
X147800Y205900D02*
Y206700D01*
X148600D01*
Y205900D01*
X147800D01*
X139400Y205500D02*
Y207100D01*
X141000D01*
Y205500D01*
X139400D01*
X139800Y205900D02*
Y206700D01*
X140600D01*
Y205900D01*
X139800D01*
X187200Y46400D02*
Y48000D01*
X188800D01*
Y46400D01*
X187200D01*
X187600Y46800D02*
Y47600D01*
X188400D01*
Y46800D01*
X187600D01*
X306600Y192600D02*
Y194200D01*
X308200D01*
Y192600D01*
X306600D01*
X307000Y193000D02*
Y193800D01*
X307800D01*
Y193000D01*
X307000D01*
X370500Y154600D02*
Y156200D01*
X372100D01*
Y154600D01*
X370500D01*
X370900Y155000D02*
Y155800D01*
X371700D01*
Y155000D01*
X370900D01*
X303900Y78300D02*
Y79900D01*
X305500D01*
Y78300D01*
X303900D01*
X304300Y78700D02*
Y79500D01*
X305100D01*
Y78700D01*
X304300D01*
X155300Y205500D02*
Y207100D01*
X156900D01*
Y205500D01*
X155300D01*
X155700Y205900D02*
Y206700D01*
X156500D01*
Y205900D01*
X155700D01*
X167100Y187800D02*
Y189400D01*
X168700D01*
Y187800D01*
X167100D01*
X167500Y188200D02*
Y189000D01*
X168300D01*
Y188200D01*
X167500D01*
X163000Y187800D02*
Y189400D01*
X164600D01*
Y187800D01*
X163000D01*
X163400Y188200D02*
Y189000D01*
X164200D01*
Y188200D01*
X163400D01*
X326700Y161600D02*
Y163200D01*
X328300D01*
Y161600D01*
X326700D01*
X327100Y162000D02*
Y162800D01*
X327900D01*
Y162000D01*
X327100D01*
X223700Y156300D02*
Y157900D01*
X225300D01*
Y156300D01*
X223700D01*
X224100Y156700D02*
Y157500D01*
X224900D01*
Y156700D01*
X224100D01*
X66100Y168600D02*
Y170200D01*
X67700D01*
Y168600D01*
X66100D01*
X66500Y169000D02*
Y169800D01*
X67300D01*
Y169000D01*
X66500D01*
X149400Y159700D02*
Y161300D01*
X151000D01*
Y159700D01*
X149400D01*
X149800Y160100D02*
Y160900D01*
X150600D01*
Y160100D01*
X149800D01*
X149400Y156300D02*
Y157900D01*
X151000D01*
Y156300D01*
X149400D01*
X149800Y156700D02*
Y157500D01*
X150600D01*
Y156700D01*
X149800D01*
X106100Y203100D02*
Y204700D01*
X107700D01*
Y203100D01*
X106100D01*
X106500Y203500D02*
Y204300D01*
X107300D01*
Y203500D01*
X106500D01*
X149400Y162800D02*
Y164400D01*
X151000D01*
Y162800D01*
X149400D01*
X149800Y163200D02*
Y164000D01*
X150600D01*
Y163200D01*
X149800D01*
X149400Y166200D02*
Y167800D01*
X151000D01*
Y166200D01*
X149400D01*
X149800Y166600D02*
Y167400D01*
X150600D01*
Y166600D01*
X149800D01*
X144700Y166200D02*
Y167800D01*
X146300D01*
Y166200D01*
X144700D01*
X145100Y166600D02*
Y167400D01*
X145900D01*
Y166600D01*
X145100D01*
X142700Y130000D02*
Y131600D01*
X144300D01*
Y130000D01*
X142700D01*
X143100Y130400D02*
Y131200D01*
X143900D01*
Y130400D01*
X143100D01*
X314100Y60500D02*
Y62100D01*
X315700D01*
Y60500D01*
X314100D01*
X314500Y60900D02*
Y61700D01*
X315300D01*
Y60900D01*
X314500D01*
X360200Y178400D02*
Y180000D01*
X361800D01*
Y178400D01*
X360200D01*
X360600Y178800D02*
Y179600D01*
X361400D01*
Y178800D01*
X360600D01*
X323300Y200100D02*
Y201700D01*
X324900D01*
Y200100D01*
X323300D01*
X323700Y200500D02*
Y201300D01*
X324500D01*
Y200500D01*
X323700D01*
X79700Y198800D02*
Y200400D01*
X81300D01*
Y198800D01*
X79700D01*
X80100Y199200D02*
Y200000D01*
X80900D01*
Y199200D01*
X80100D01*
X159500Y126300D02*
Y127900D01*
X161100D01*
Y126300D01*
X159500D01*
X159900Y126700D02*
Y127500D01*
X160700D01*
Y126700D01*
X159900D01*
X146000Y39700D02*
Y41300D01*
X147600D01*
Y39700D01*
X146000D01*
X146400Y40100D02*
Y40900D01*
X147200D01*
Y40100D01*
X146400D01*
X248200Y29000D02*
Y30600D01*
X249800D01*
Y29000D01*
X248200D01*
X248600Y29400D02*
Y30200D01*
X249400D01*
Y29400D01*
X248600D01*
X227800Y28700D02*
Y30300D01*
X229400D01*
Y28700D01*
X227800D01*
X228200Y29100D02*
Y29900D01*
X229000D01*
Y29100D01*
X228200D01*
D132*
X50504Y128600D02*
G03*
X50504Y128600I-800J0D01*
G01*
X338496D02*
G03*
X338496Y128600I-800J0D01*
G01*
X287200Y100700D02*
G03*
X287200Y100700I-800J0D01*
G01*
X164600Y59800D02*
G03*
X164600Y59800I-800J0D01*
G01*
D133*
X286800Y100700D02*
G03*
X286800Y100700I-400J0D01*
G01*
X164200Y59800D02*
G03*
X164200Y59800I-400J0D01*
G01*
M02*
