G04*
G04 #@! TF.GenerationSoftware,Altium Limited,Altium Designer,21.6.4 (81)*
G04*
G04 Layer_Physical_Order=2*
G04 Layer_Color=32768*
%FSLAX25Y25*%
%MOIN*%
G70*
G04*
G04 #@! TF.SameCoordinates,D92126B2-5F21-4161-9152-1B55B43E0DBD*
G04*
G04*
G04 #@! TF.FilePolarity,Negative*
G04*
G01*
G75*
%ADD18C,0.00800*%
%ADD116C,0.04000*%
%ADD117C,0.06000*%
%ADD118C,0.20000*%
%ADD119R,0.09000X0.16402*%
%ADD120C,0.09000*%
%ADD121O,0.08724X0.06756*%
%ADD122O,0.08134X0.06559*%
%ADD123C,0.07937*%
%ADD124C,0.16000*%
%ADD125C,0.05200*%
%ADD126C,0.05600*%
D18*
X263700Y184775D02*
Y188600D01*
X273100Y198000D01*
X392900D01*
X255800Y176875D02*
X263700Y184775D01*
X255800Y113500D02*
Y134625D01*
X254800Y112500D02*
X255800Y113500D01*
X47000Y112500D02*
X254800D01*
X42500Y108000D02*
X47000Y112500D01*
X42500Y91500D02*
Y108000D01*
Y91500D02*
X254600D01*
Y1600D02*
Y91500D01*
Y1600D02*
X256200Y0D01*
X394200D01*
Y196700D01*
X392900Y198000D02*
X394200Y196700D01*
X255800Y134625D02*
Y176875D01*
D116*
X51206Y21679D02*
G03*
X23647Y49238I-27559J-0D01*
G01*
X51206Y15773D02*
G03*
X66954Y25I15748J-0D01*
G01*
X318923D02*
G03*
X334671Y15773I-0J15748D01*
G01*
X362230Y49238D02*
G03*
X334671Y21678I0J-27559D01*
G01*
X370104Y49238D02*
G03*
X385852Y64986I0J15748D01*
G01*
Y190970D02*
G03*
X370104Y206718I-15748J-0D01*
G01*
X334671Y234277D02*
G03*
X362230Y206718I27559J0D01*
G01*
X334671Y240182D02*
G03*
X318923Y255930I-15748J0D01*
G01*
X66954Y255930D02*
G03*
X51206Y240182I0J-15748D01*
G01*
X23647Y206718D02*
G03*
X51206Y234277I0J27559D01*
G01*
X15773Y206718D02*
G03*
X25Y190970I-0J-15748D01*
G01*
Y64986D02*
G03*
X15773Y49238I15748J0D01*
G01*
X25Y64986D02*
X25D01*
Y190970D01*
X25D02*
X25D01*
X15773Y206718D02*
X23647D01*
X51206Y234277D02*
Y240182D01*
X66954Y255930D02*
X318923D01*
X318923Y255930D01*
X334671Y240182D02*
X334671Y240182D01*
X334671Y234277D02*
Y240182D01*
X362230Y206718D02*
X370104D01*
X385852Y190970D02*
X385852D01*
X385852Y64986D02*
Y190970D01*
Y64986D02*
X385852D01*
X362230Y49238D02*
X370104D01*
X334671Y15773D02*
Y21678D01*
X66954Y25D02*
X318923D01*
X51206Y15773D02*
Y21679D01*
X15773Y49238D02*
X23647D01*
D117*
X87800Y29200D02*
D03*
X81200D02*
D03*
D118*
X283169Y128600D02*
D03*
X104232D02*
D03*
D119*
X49704D02*
D03*
X337696D02*
D03*
D120*
X377800Y129800D02*
D03*
D121*
X11728Y139128D02*
D03*
Y117672D02*
D03*
D122*
X23657Y137947D02*
D03*
Y118853D02*
D03*
D123*
X7000Y97600D02*
D03*
Y67600D02*
D03*
Y77600D02*
D03*
Y87600D02*
D03*
Y178700D02*
D03*
Y168700D02*
D03*
Y188700D02*
D03*
D124*
X65900Y241900D02*
D03*
X318600Y16000D02*
D03*
X65900D02*
D03*
X318600Y241900D02*
D03*
D125*
X67393Y78792D02*
D03*
X101250Y64250D02*
D03*
X211900Y111700D02*
D03*
X206500Y106900D02*
D03*
X370000Y200000D02*
D03*
Y80000D02*
D03*
X360000Y60000D02*
D03*
X350000Y200000D02*
D03*
X340000Y140000D02*
D03*
Y100000D02*
D03*
X350000Y80000D02*
D03*
X340000Y60000D02*
D03*
X320000Y180000D02*
D03*
Y140000D02*
D03*
X330000Y120000D02*
D03*
Y80000D02*
D03*
X320000Y60000D02*
D03*
X330000Y40000D02*
D03*
X310000Y200000D02*
D03*
X300000Y180000D02*
D03*
Y140000D02*
D03*
X310000Y120000D02*
D03*
Y80000D02*
D03*
X300000Y60000D02*
D03*
X310000Y40000D02*
D03*
X300000Y20000D02*
D03*
X280000Y180000D02*
D03*
Y60000D02*
D03*
X290000Y40000D02*
D03*
X260000Y180000D02*
D03*
X270000Y160000D02*
D03*
X260000Y140000D02*
D03*
X270000Y120000D02*
D03*
X260000Y100000D02*
D03*
Y60000D02*
D03*
X160000Y100000D02*
D03*
X140000D02*
D03*
X120000D02*
D03*
X224069Y155656D02*
D03*
X150200Y157336D02*
D03*
X136000Y157164D02*
D03*
X91000Y75700D02*
D03*
X92600Y55600D02*
D03*
X106600Y76100D02*
D03*
X33600Y128200D02*
D03*
Y125600D02*
D03*
X124892Y115503D02*
D03*
X213581Y131319D02*
D03*
X300000Y99200D02*
D03*
X201100Y131300D02*
D03*
X185900Y115100D02*
D03*
X119600Y74100D02*
D03*
X121924Y122400D02*
D03*
X213027Y100778D02*
D03*
X219400Y100900D02*
D03*
X317414Y45500D02*
D03*
X347098Y142004D02*
D03*
X350700Y168500D02*
D03*
X350800Y175700D02*
D03*
X328900Y180400D02*
D03*
X205900Y175400D02*
D03*
X206138Y170248D02*
D03*
X70900Y147600D02*
D03*
X270300Y77400D02*
D03*
X238500Y25400D02*
D03*
X224800Y24200D02*
D03*
X362300Y100700D02*
D03*
X378900Y94400D02*
D03*
X147600Y170000D02*
D03*
X177500Y73100D02*
D03*
X144700Y111100D02*
D03*
X302400Y151900D02*
D03*
X150200Y173200D02*
D03*
Y176700D02*
D03*
X301700Y202800D02*
D03*
X324200Y206200D02*
D03*
X143918Y27312D02*
D03*
X294000Y169100D02*
D03*
X308400Y175400D02*
D03*
X135300Y195200D02*
D03*
X159900Y188600D02*
D03*
X148200Y206300D02*
D03*
X140200D02*
D03*
X188000Y47200D02*
D03*
X304700Y79100D02*
D03*
X156100Y206300D02*
D03*
X167900Y188600D02*
D03*
X163800D02*
D03*
X327500Y162400D02*
D03*
X66900Y169400D02*
D03*
X150200Y160500D02*
D03*
X106900Y203900D02*
D03*
X150200Y163600D02*
D03*
Y167000D02*
D03*
X145500D02*
D03*
X143500Y130800D02*
D03*
X314900Y61300D02*
D03*
X361000Y179200D02*
D03*
X324100Y200900D02*
D03*
X80500Y199600D02*
D03*
X160300Y127100D02*
D03*
X146800Y40500D02*
D03*
X249000Y29800D02*
D03*
X228600Y29500D02*
D03*
D126*
X286400Y100700D02*
D03*
X163800Y59800D02*
D03*
M02*
