%TF.GenerationSoftware,Altium Limited,Altium Designer,19.1.9 (167)*%
G04 Layer_Color=32896*
%FSLAX26Y26*%
%MOIN*%
%TF.FileFunction,Legend,Bot*%
%TF.Part,Single*%
G01*
G75*
%TA.AperFunction,NonConductor*%
%ADD73C,0.009842*%
%ADD74C,0.005000*%
%ADD75C,0.007874*%
%ADD76C,0.010000*%
D73*
X289520Y1232819D02*
G03*
X289520Y1232819I-4921J0D01*
G01*
D74*
X3506882Y556079D02*
Y2015921D01*
X367118Y556079D02*
X3506882D01*
X367118D02*
Y2015921D01*
X3506882D01*
X480307Y2112772D02*
X559047D01*
X3354323Y2073402D02*
Y2112772D01*
Y2152142D01*
Y2112772D02*
X3393693D01*
X3314953D02*
X3354323D01*
D75*
X6252Y1125732D02*
X154677D01*
X6252D02*
X90221D01*
X6252D02*
Y1442268D01*
X154677D01*
D76*
X267671Y1591994D02*
X281000D01*
Y1581997D01*
X274336D01*
X281000D01*
Y1572000D01*
X261007Y1591994D02*
Y1572000D01*
X251010D01*
X247678Y1575332D01*
Y1578665D01*
X251010Y1581997D01*
X261007D01*
X251010D01*
X247678Y1585329D01*
Y1588661D01*
X251010Y1591994D01*
X261007D01*
X231016Y1572000D02*
Y1591994D01*
X241013Y1581997D01*
X227684D01*
X221324Y1060223D02*
Y1053558D01*
Y1056890D01*
X204663D01*
X201331Y1053558D01*
Y1050226D01*
X204663Y1046894D01*
X201331Y1066887D02*
Y1073552D01*
Y1070219D01*
X221324D01*
X217992Y1066887D01*
%TF.MD5,cac1ef104d0fd0bc13c2a359a6d183fe*%
M02*
