G04*
G04 #@! TF.GenerationSoftware,Altium Limited,Altium Designer,21.6.1 (37)*
G04*
G04 Layer_Color=8421504*
%FSLAX44Y44*%
%MOMM*%
G71*
G04*
G04 #@! TF.SameCoordinates,8A31D3E6-7417-4931-9B95-E7CF89301AF7*
G04*
G04*
G04 #@! TF.FilePolarity,Positive*
G04*
G01*
G75*
%ADD19R,0.8000X0.7556*%
%ADD20R,1.4986X0.9906*%
%ADD21R,0.7556X0.8000*%
%ADD22R,0.2000X0.5500*%
%ADD23R,0.6500X0.2500*%
%ADD24R,0.2000X0.9400*%
%ADD25R,1.0500X1.0500*%
%ADD26R,1.4700X1.0400*%
%ADD27R,0.6000X0.8500*%
%ADD28R,0.4100X0.2800*%
%ADD29R,0.2800X0.4100*%
%ADD30R,1.0160X0.8890*%
%ADD31R,0.9398X0.9652*%
%ADD32R,0.9652X0.9398*%
%ADD33R,1.0500X1.0500*%
%ADD34R,1.4750X0.4500*%
%ADD35R,0.6500X1.0500*%
%ADD36R,1.2000X0.6000*%
%ADD37R,1.0500X0.4000*%
%ADD38R,0.4000X1.0500*%
%ADD39R,1.0500X2.1999*%
%ADD40R,1.0000X1.0500*%
%ADD41R,2.1999X1.0500*%
%ADD42R,1.0500X1.0000*%
%ADD43R,0.4750X0.3750*%
G04:AMPARAMS|DCode=44|XSize=1.5mm|YSize=1.5mm|CornerRadius=0.075mm|HoleSize=0mm|Usage=FLASHONLY|Rotation=180.000|XOffset=0mm|YOffset=0mm|HoleType=Round|Shape=RoundedRectangle|*
%AMROUNDEDRECTD44*
21,1,1.5000,1.3500,0,0,180.0*
21,1,1.3500,1.5000,0,0,180.0*
1,1,0.1500,-0.6750,0.6750*
1,1,0.1500,0.6750,0.6750*
1,1,0.1500,0.6750,-0.6750*
1,1,0.1500,-0.6750,-0.6750*
%
%ADD44ROUNDEDRECTD44*%
G04:AMPARAMS|DCode=45|XSize=0.5mm|YSize=0.8mm|CornerRadius=0.1mm|HoleSize=0mm|Usage=FLASHONLY|Rotation=270.000|XOffset=0mm|YOffset=0mm|HoleType=Round|Shape=RoundedRectangle|*
%AMROUNDEDRECTD45*
21,1,0.5000,0.6000,0,0,270.0*
21,1,0.3000,0.8000,0,0,270.0*
1,1,0.2000,-0.3000,-0.1500*
1,1,0.2000,-0.3000,0.1500*
1,1,0.2000,0.3000,0.1500*
1,1,0.2000,0.3000,-0.1500*
%
%ADD45ROUNDEDRECTD45*%
G04:AMPARAMS|DCode=46|XSize=0.5mm|YSize=0.8mm|CornerRadius=0.1mm|HoleSize=0mm|Usage=FLASHONLY|Rotation=180.000|XOffset=0mm|YOffset=0mm|HoleType=Round|Shape=RoundedRectangle|*
%AMROUNDEDRECTD46*
21,1,0.5000,0.6000,0,0,180.0*
21,1,0.3000,0.8000,0,0,180.0*
1,1,0.2000,-0.1500,0.3000*
1,1,0.2000,0.1500,0.3000*
1,1,0.2000,0.1500,-0.3000*
1,1,0.2000,-0.1500,-0.3000*
%
%ADD46ROUNDEDRECTD46*%
%ADD47R,0.9000X0.6500*%
%ADD48R,0.9000X1.0000*%
%ADD49R,0.8500X0.6000*%
G04:AMPARAMS|DCode=50|XSize=0.6mm|YSize=1.45mm|CornerRadius=0.051mm|HoleSize=0mm|Usage=FLASHONLY|Rotation=180.000|XOffset=0mm|YOffset=0mm|HoleType=Round|Shape=RoundedRectangle|*
%AMROUNDEDRECTD50*
21,1,0.6000,1.3480,0,0,180.0*
21,1,0.4980,1.4500,0,0,180.0*
1,1,0.1020,-0.2490,0.6740*
1,1,0.1020,0.2490,0.6740*
1,1,0.1020,0.2490,-0.6740*
1,1,0.1020,-0.2490,-0.6740*
%
%ADD50ROUNDEDRECTD50*%
%ADD51R,1.5000X0.7000*%
%ADD52R,1.5000X1.0000*%
%ADD53R,0.7000X1.5000*%
%ADD54R,0.6000X1.1500*%
%ADD55R,0.7200X0.6900*%
D19*
X968502Y243744D02*
D03*
Y228188D02*
D03*
X376682Y382428D02*
D03*
Y366872D02*
D03*
X774446Y210724D02*
D03*
Y195168D02*
D03*
X365252Y382174D02*
D03*
Y366618D02*
D03*
X906272Y326232D02*
D03*
Y341788D02*
D03*
X730504Y516286D02*
D03*
Y500730D02*
D03*
X712978Y516540D02*
D03*
Y500984D02*
D03*
X751332Y417988D02*
D03*
Y402432D02*
D03*
X735584Y418242D02*
D03*
Y402686D02*
D03*
X235458Y177704D02*
D03*
Y162148D02*
D03*
D20*
X842010Y284988D02*
D03*
Y263144D02*
D03*
D21*
X319374Y203200D02*
D03*
X334930D02*
D03*
X319374Y188722D02*
D03*
X334930D02*
D03*
X319374Y174244D02*
D03*
X334930D02*
D03*
X797910Y186182D02*
D03*
X813466D02*
D03*
X88742Y210058D02*
D03*
X104298D02*
D03*
X89250Y195580D02*
D03*
X104806D02*
D03*
D22*
X160560Y385222D02*
D03*
Y373222D02*
D03*
X164560D02*
D03*
Y385222D02*
D03*
D23*
X162560Y379222D02*
D03*
D24*
X885444Y373930D02*
D03*
Y385530D02*
D03*
D25*
X852932Y369932D02*
D03*
Y383432D02*
D03*
X352298Y331832D02*
D03*
Y345332D02*
D03*
X510540Y323342D02*
D03*
Y309842D02*
D03*
X496570Y309226D02*
D03*
Y322726D02*
D03*
X214376Y228454D02*
D03*
Y241954D02*
D03*
X236220Y227984D02*
D03*
Y214484D02*
D03*
X117094Y195472D02*
D03*
Y181972D02*
D03*
X136906Y209696D02*
D03*
Y196196D02*
D03*
X117856Y223920D02*
D03*
Y210420D02*
D03*
X807974Y234042D02*
D03*
Y247542D02*
D03*
X837692Y523894D02*
D03*
Y510394D02*
D03*
X578866Y81680D02*
D03*
Y68180D02*
D03*
X434594Y508400D02*
D03*
Y494900D02*
D03*
X461772Y309988D02*
D03*
Y323488D02*
D03*
X418338Y309988D02*
D03*
Y323488D02*
D03*
X352298Y283356D02*
D03*
Y269856D02*
D03*
X922002Y340926D02*
D03*
Y327426D02*
D03*
X768350Y416198D02*
D03*
Y402698D02*
D03*
X747268Y515004D02*
D03*
Y501504D02*
D03*
X798576Y445662D02*
D03*
Y432162D02*
D03*
X904494Y467506D02*
D03*
Y454006D02*
D03*
X934212Y269640D02*
D03*
Y256140D02*
D03*
X482092Y322726D02*
D03*
Y309226D02*
D03*
X446532Y323488D02*
D03*
Y309988D02*
D03*
X432435Y323488D02*
D03*
Y309988D02*
D03*
X416814Y508654D02*
D03*
Y495154D02*
D03*
D26*
X92456Y232916D02*
D03*
Y251716D02*
D03*
D27*
X62334Y232664D02*
D03*
X75334D02*
D03*
X889104Y354838D02*
D03*
X902104D02*
D03*
X172678Y517398D02*
D03*
X185678D02*
D03*
X888596Y303276D02*
D03*
X901596D02*
D03*
X470004Y184658D02*
D03*
X483004D02*
D03*
X867006Y401066D02*
D03*
X880006D02*
D03*
D28*
X341608Y305602D02*
D03*
Y310602D02*
D03*
X357908D02*
D03*
Y305602D02*
D03*
D29*
X342258Y316252D02*
D03*
X347258D02*
D03*
X352258D02*
D03*
X357258D02*
D03*
Y299952D02*
D03*
X352258D02*
D03*
X347258D02*
D03*
X342258D02*
D03*
D30*
X484632Y200660D02*
D03*
X470408D02*
D03*
X543814Y377952D02*
D03*
X529590D02*
D03*
D31*
X396240Y494665D02*
D03*
Y509651D02*
D03*
X749046Y444627D02*
D03*
Y459613D02*
D03*
X356108Y438785D02*
D03*
Y453771D02*
D03*
X335534Y453517D02*
D03*
Y438531D02*
D03*
D32*
X485521Y490982D02*
D03*
X470535D02*
D03*
X485521Y538988D02*
D03*
X470535D02*
D03*
X546735Y394716D02*
D03*
X531749D02*
D03*
X546735Y409448D02*
D03*
X531749D02*
D03*
X484759Y171958D02*
D03*
X469773D02*
D03*
X144907Y262382D02*
D03*
X129921D02*
D03*
D33*
X250590Y191262D02*
D03*
X237090D02*
D03*
X767188Y476758D02*
D03*
X780688D02*
D03*
X561486Y30988D02*
D03*
X547986D02*
D03*
X561486Y45466D02*
D03*
X547986D02*
D03*
X614280Y32004D02*
D03*
X627780D02*
D03*
X670452Y67818D02*
D03*
X656952D02*
D03*
X411880Y60452D02*
D03*
X398380D02*
D03*
X411880Y78994D02*
D03*
X398380D02*
D03*
Y133096D02*
D03*
X411880D02*
D03*
X714610Y241046D02*
D03*
X728110D02*
D03*
X714610Y167386D02*
D03*
X728110D02*
D03*
X239230Y517414D02*
D03*
X252730D02*
D03*
X813200Y167386D02*
D03*
X799700D02*
D03*
D34*
X214038Y172524D02*
D03*
Y179024D02*
D03*
Y185524D02*
D03*
Y192024D02*
D03*
Y198524D02*
D03*
Y205024D02*
D03*
Y211524D02*
D03*
X155278D02*
D03*
Y205024D02*
D03*
Y198524D02*
D03*
Y192024D02*
D03*
Y185524D02*
D03*
Y179024D02*
D03*
Y172524D02*
D03*
D35*
X191706Y485824D02*
D03*
Y444324D02*
D03*
X170206Y485824D02*
D03*
Y444324D02*
D03*
X233344Y444070D02*
D03*
Y485570D02*
D03*
X254844Y444070D02*
D03*
Y485570D02*
D03*
D36*
X749500Y167030D02*
D03*
Y186030D02*
D03*
X774500D02*
D03*
Y176530D02*
D03*
Y167030D02*
D03*
X750262Y240944D02*
D03*
Y259944D02*
D03*
X775262D02*
D03*
Y250444D02*
D03*
Y240944D02*
D03*
D37*
X818490Y463908D02*
D03*
Y470408D02*
D03*
Y476908D02*
D03*
X799490D02*
D03*
Y463908D02*
D03*
D38*
X584812Y32918D02*
D03*
X591312D02*
D03*
X597812D02*
D03*
Y51918D02*
D03*
X591312D02*
D03*
X584812D02*
D03*
D39*
X742424Y627126D02*
D03*
X771924D02*
D03*
D40*
X757174Y611876D02*
D03*
D41*
X665226Y45484D02*
D03*
Y15984D02*
D03*
D42*
X649976Y30734D02*
D03*
D43*
X121104Y382602D02*
D03*
Y375842D02*
D03*
X130854D02*
D03*
Y382602D02*
D03*
D44*
X473122Y427732D02*
D03*
Y402732D02*
D03*
Y377732D02*
D03*
X448122Y427732D02*
D03*
Y402732D02*
D03*
Y377732D02*
D03*
X423122Y427732D02*
D03*
Y402732D02*
D03*
Y377732D02*
D03*
D45*
X396122Y447982D02*
D03*
Y439982D02*
D03*
Y431982D02*
D03*
Y423982D02*
D03*
Y415982D02*
D03*
Y407982D02*
D03*
Y399982D02*
D03*
Y391982D02*
D03*
Y383982D02*
D03*
Y375982D02*
D03*
Y367982D02*
D03*
Y359982D02*
D03*
X500122Y358732D02*
D03*
Y366732D02*
D03*
Y374732D02*
D03*
Y382732D02*
D03*
Y390732D02*
D03*
Y398732D02*
D03*
Y406732D02*
D03*
Y414732D02*
D03*
Y422732D02*
D03*
Y430732D02*
D03*
Y438732D02*
D03*
Y446732D02*
D03*
D46*
X404122Y459232D02*
D03*
X412122D02*
D03*
X420122D02*
D03*
X428122D02*
D03*
X436122D02*
D03*
X444122D02*
D03*
X452122D02*
D03*
X460122D02*
D03*
X468122D02*
D03*
X476122D02*
D03*
X484122D02*
D03*
X492122D02*
D03*
Y346232D02*
D03*
X484122D02*
D03*
X476122D02*
D03*
X468122D02*
D03*
X460122D02*
D03*
X452122D02*
D03*
X444122D02*
D03*
X436122D02*
D03*
X428122D02*
D03*
X420122D02*
D03*
X412122D02*
D03*
X404122D02*
D03*
D47*
X902262Y231556D02*
D03*
Y220056D02*
D03*
D48*
X877262Y225806D02*
D03*
D49*
X639572Y80414D02*
D03*
Y67414D02*
D03*
X610362Y82192D02*
D03*
Y69192D02*
D03*
X836168Y384198D02*
D03*
Y371198D02*
D03*
X485394Y520536D02*
D03*
Y507536D02*
D03*
X936498Y341780D02*
D03*
Y328780D02*
D03*
X356362Y509166D02*
D03*
Y496166D02*
D03*
X376428Y508912D02*
D03*
Y495912D02*
D03*
X544255Y357838D02*
D03*
Y344838D02*
D03*
D50*
X837946Y432490D02*
D03*
X850646D02*
D03*
X863346D02*
D03*
X876046D02*
D03*
X837946Y486990D02*
D03*
X850646D02*
D03*
X863346D02*
D03*
X876046D02*
D03*
X904494Y376610D02*
D03*
X917194D02*
D03*
X929894D02*
D03*
X942594D02*
D03*
X904494Y431110D02*
D03*
X917194D02*
D03*
X929894D02*
D03*
X942594D02*
D03*
D51*
X440436Y133270D02*
D03*
Y123270D02*
D03*
Y113270D02*
D03*
Y103270D02*
D03*
Y93270D02*
D03*
Y83270D02*
D03*
Y73270D02*
D03*
Y63270D02*
D03*
Y53270D02*
D03*
Y43270D02*
D03*
Y33270D02*
D03*
Y23270D02*
D03*
X528436D02*
D03*
Y33270D02*
D03*
Y43270D02*
D03*
Y53270D02*
D03*
Y63270D02*
D03*
Y73270D02*
D03*
Y83270D02*
D03*
Y93270D02*
D03*
Y103270D02*
D03*
Y113270D02*
D03*
Y123270D02*
D03*
Y133270D02*
D03*
D52*
X440436Y11770D02*
D03*
X528436D02*
D03*
D53*
X504436Y137270D02*
D03*
X494436D02*
D03*
X484436D02*
D03*
X474436D02*
D03*
X464436D02*
D03*
D54*
X958596Y281486D02*
D03*
X968096Y256486D02*
D03*
X949096D02*
D03*
D55*
X628142Y47782D02*
D03*
Y57882D02*
D03*
M02*
