G04*
G04 #@! TF.GenerationSoftware,Altium Limited,Altium Designer,21.6.1 (37)*
G04*
G04 Layer_Physical_Order=1*
G04 Layer_Color=255*
%FSLAX44Y44*%
%MOMM*%
G71*
G04*
G04 #@! TF.SameCoordinates,1A0BCF72-60D2-4BA0-9B7A-98A30DA12748*
G04*
G04*
G04 #@! TF.FilePolarity,Positive*
G04*
G01*
G75*
%ADD15C,0.2540*%
%ADD20R,0.8000X0.7556*%
%ADD21R,1.4986X0.9906*%
%ADD22R,0.7556X0.8000*%
%ADD23R,0.2000X0.5500*%
%ADD24R,0.6500X0.2500*%
%ADD25R,0.2000X0.9400*%
%ADD26R,1.0500X1.0500*%
%ADD27R,1.4700X1.0400*%
%ADD28R,0.6000X0.8500*%
%ADD29R,0.4100X0.2800*%
%ADD30R,0.2800X0.4100*%
%ADD31R,1.0160X0.8890*%
%ADD32R,0.9398X0.9652*%
%ADD33R,0.9652X0.9398*%
%ADD34R,1.0500X1.0500*%
%ADD35R,1.4750X0.4500*%
%ADD36R,0.6500X1.0500*%
%ADD37R,1.2000X0.6000*%
%ADD38R,1.0500X0.4000*%
%ADD39R,0.4000X1.0500*%
%ADD40R,1.0500X2.1999*%
%ADD41R,1.0000X1.0500*%
%ADD42R,2.1999X1.0500*%
%ADD43R,1.0500X1.0000*%
%ADD44R,2.2000X1.2000*%
%ADD45R,0.4750X0.3750*%
G04:AMPARAMS|DCode=46|XSize=1.5mm|YSize=1.5mm|CornerRadius=0.075mm|HoleSize=0mm|Usage=FLASHONLY|Rotation=180.000|XOffset=0mm|YOffset=0mm|HoleType=Round|Shape=RoundedRectangle|*
%AMROUNDEDRECTD46*
21,1,1.5000,1.3500,0,0,180.0*
21,1,1.3500,1.5000,0,0,180.0*
1,1,0.1500,-0.6750,0.6750*
1,1,0.1500,0.6750,0.6750*
1,1,0.1500,0.6750,-0.6750*
1,1,0.1500,-0.6750,-0.6750*
%
%ADD46ROUNDEDRECTD46*%
G04:AMPARAMS|DCode=47|XSize=0.5mm|YSize=0.8mm|CornerRadius=0.1mm|HoleSize=0mm|Usage=FLASHONLY|Rotation=270.000|XOffset=0mm|YOffset=0mm|HoleType=Round|Shape=RoundedRectangle|*
%AMROUNDEDRECTD47*
21,1,0.5000,0.6000,0,0,270.0*
21,1,0.3000,0.8000,0,0,270.0*
1,1,0.2000,-0.3000,-0.1500*
1,1,0.2000,-0.3000,0.1500*
1,1,0.2000,0.3000,0.1500*
1,1,0.2000,0.3000,-0.1500*
%
%ADD47ROUNDEDRECTD47*%
G04:AMPARAMS|DCode=48|XSize=0.5mm|YSize=0.8mm|CornerRadius=0.1mm|HoleSize=0mm|Usage=FLASHONLY|Rotation=180.000|XOffset=0mm|YOffset=0mm|HoleType=Round|Shape=RoundedRectangle|*
%AMROUNDEDRECTD48*
21,1,0.5000,0.6000,0,0,180.0*
21,1,0.3000,0.8000,0,0,180.0*
1,1,0.2000,-0.1500,0.3000*
1,1,0.2000,0.1500,0.3000*
1,1,0.2000,0.1500,-0.3000*
1,1,0.2000,-0.1500,-0.3000*
%
%ADD48ROUNDEDRECTD48*%
%ADD49R,0.9000X0.6500*%
%ADD50R,0.9000X1.0000*%
%ADD51R,0.8500X0.6000*%
G04:AMPARAMS|DCode=52|XSize=0.6mm|YSize=1.45mm|CornerRadius=0.051mm|HoleSize=0mm|Usage=FLASHONLY|Rotation=180.000|XOffset=0mm|YOffset=0mm|HoleType=Round|Shape=RoundedRectangle|*
%AMROUNDEDRECTD52*
21,1,0.6000,1.3480,0,0,180.0*
21,1,0.4980,1.4500,0,0,180.0*
1,1,0.1020,-0.2490,0.6740*
1,1,0.1020,0.2490,0.6740*
1,1,0.1020,0.2490,-0.6740*
1,1,0.1020,-0.2490,-0.6740*
%
%ADD52ROUNDEDRECTD52*%
%ADD53R,1.5000X0.7000*%
%ADD54R,1.5000X1.0000*%
%ADD55R,0.7000X1.5000*%
%ADD56R,0.6000X1.1500*%
%ADD57R,0.7200X0.6900*%
%ADD106C,0.2152*%
%ADD107C,0.6350*%
%ADD108C,0.5080*%
%ADD109C,0.4100*%
%ADD110C,0.2611*%
%ADD111C,0.4150*%
%ADD112C,0.3810*%
%ADD113C,0.4404*%
%ADD114C,0.5000*%
%ADD115O,1.7000X1.2000*%
%ADD116O,1.4000X1.0000*%
%ADD117C,7.3660*%
%ADD118O,2.5400X5.0800*%
%ADD119R,2.0320X2.0320*%
%ADD120C,1.5000*%
%ADD121R,1.5000X1.5000*%
%ADD122C,3.0480*%
%ADD123C,0.3556*%
%ADD124C,0.4064*%
%ADD125C,0.4572*%
G36*
X817124Y645561D02*
X821697Y644336D01*
X826071Y642524D01*
X830171Y640157D01*
X833927Y637275D01*
X837275Y633927D01*
X840157Y630171D01*
X842524Y626071D01*
X844336Y621697D01*
X845561Y617124D01*
X846179Y612431D01*
X846179Y610064D01*
Y595064D01*
X846189Y595016D01*
X846180Y594968D01*
X846264Y591533D01*
X846296Y591392D01*
X846282Y591248D01*
X846955Y584412D01*
X847011Y584227D01*
Y584035D01*
X848352Y577297D01*
X848425Y577119D01*
X848444Y576927D01*
X850438Y570354D01*
X850529Y570184D01*
X850567Y569995D01*
X853195Y563648D01*
X853303Y563488D01*
X853358Y563303D01*
X856597Y557245D01*
X856719Y557096D01*
X856793Y556918D01*
X860609Y551206D01*
X860745Y551070D01*
X860836Y550900D01*
X865194Y545590D01*
X865343Y545468D01*
X865450Y545308D01*
X870308Y540450D01*
X870468Y540343D01*
X870590Y540194D01*
X875900Y535836D01*
X876070Y535745D01*
X876207Y535609D01*
X881918Y531793D01*
X882096Y531719D01*
X882245Y531597D01*
X888304Y528358D01*
X888488Y528302D01*
X888648Y528195D01*
X894995Y525567D01*
X895184Y525529D01*
X895354Y525438D01*
X901927Y523444D01*
X902119Y523425D01*
X902297Y523351D01*
X909035Y522011D01*
X909227D01*
X909412Y521955D01*
X916248Y521282D01*
X916392Y521296D01*
X916534Y521264D01*
X919968Y521180D01*
X920016Y521188D01*
X920063Y521179D01*
X942431D01*
X947124Y520561D01*
X951697Y519336D01*
X956071Y517524D01*
X960171Y515157D01*
X963927Y512275D01*
X967275Y508927D01*
X970157Y505171D01*
X972524Y501071D01*
X974336Y496698D01*
X975561Y492124D01*
X976179Y487430D01*
Y485064D01*
Y253358D01*
X973639Y251604D01*
X973128Y251798D01*
Y264268D01*
X963064D01*
Y249554D01*
X962470D01*
Y241172D01*
X961856Y240247D01*
X959321Y239301D01*
X957834Y239597D01*
X956347Y239301D01*
X955087Y238459D01*
X954245Y237199D01*
X953949Y235712D01*
X954245Y234225D01*
X955087Y232965D01*
X956347Y232123D01*
X957834Y231827D01*
X959321Y232123D01*
X959362Y232151D01*
X959556D01*
X962470Y229237D01*
Y222378D01*
X973639D01*
X974534Y222378D01*
X976179Y220519D01*
Y165063D01*
Y162696D01*
X975561Y158003D01*
X974336Y153429D01*
X972524Y149056D01*
X970157Y144956D01*
X967275Y141200D01*
X963927Y137852D01*
X960171Y134970D01*
X956071Y132603D01*
X951697Y130791D01*
X947124Y129566D01*
X942431Y128948D01*
X940064Y128948D01*
X920063D01*
X920016Y128939D01*
X919968Y128947D01*
X916533Y128862D01*
X916392Y128831D01*
X916248Y128845D01*
X909412Y128172D01*
X909227Y128116D01*
X909035D01*
X902297Y126776D01*
X902119Y126702D01*
X901927Y126683D01*
X895354Y124689D01*
X895184Y124598D01*
X894995Y124560D01*
X888648Y121932D01*
X888488Y121825D01*
X888304Y121769D01*
X882245Y118530D01*
X882096Y118408D01*
X881918Y118334D01*
X876207Y114518D01*
X876070Y114382D01*
X875900Y114291D01*
X870590Y109933D01*
X870468Y109784D01*
X870308Y109677D01*
X865450Y104819D01*
X865343Y104659D01*
X865194Y104537D01*
X860836Y99227D01*
X860745Y99057D01*
X860609Y98921D01*
X856793Y93209D01*
X856719Y93031D01*
X856597Y92882D01*
X853358Y86824D01*
X853303Y86639D01*
X853195Y86479D01*
X850567Y80132D01*
X850529Y79943D01*
X850438Y79773D01*
X848444Y73200D01*
X848425Y73008D01*
X848352Y72830D01*
X847011Y66093D01*
Y65900D01*
X846955Y65715D01*
X846282Y58879D01*
X846296Y58735D01*
X846264Y58594D01*
X846180Y55159D01*
X846189Y55111D01*
X846179Y55064D01*
Y37696D01*
X845561Y33003D01*
X844336Y28430D01*
X842524Y24056D01*
X840157Y19956D01*
X837275Y16200D01*
X833927Y12852D01*
X830171Y9970D01*
X826071Y7603D01*
X821697Y5791D01*
X817124Y4566D01*
X812431Y3948D01*
X540899D01*
X538476Y4230D01*
Y10500D01*
X528436D01*
Y13040D01*
X538476D01*
Y17230D01*
Y22953D01*
X540704Y23706D01*
Y23706D01*
X568768D01*
Y26326D01*
X580780D01*
Y25636D01*
X586772D01*
Y25128D01*
X590042D01*
Y32918D01*
Y40708D01*
X586772D01*
Y40200D01*
X580780D01*
Y35650D01*
X568768D01*
Y52748D01*
X566764D01*
Y60960D01*
X566409Y62744D01*
X565398Y64256D01*
X563886Y65267D01*
X562102Y65622D01*
X560318Y65267D01*
X558806Y64256D01*
X557795Y62744D01*
X557440Y60960D01*
Y52748D01*
X540704D01*
Y52748D01*
X538476Y53501D01*
Y57230D01*
Y62000D01*
X528436D01*
Y64540D01*
X538476D01*
Y69310D01*
X537968D01*
Y77230D01*
X538476D01*
Y82000D01*
X528436D01*
Y84540D01*
X538476D01*
Y87230D01*
Y92000D01*
X518396D01*
Y87230D01*
Y83352D01*
X449968D01*
Y87230D01*
X450476D01*
Y92000D01*
X430396D01*
Y87230D01*
X430904D01*
Y77738D01*
Y69852D01*
X428364Y68800D01*
X428200Y68964D01*
X427107Y69694D01*
X425819Y69950D01*
X425685D01*
X419162Y76473D01*
Y86276D01*
X415863D01*
Y93228D01*
X416324Y93918D01*
X416640Y95504D01*
X416324Y97090D01*
X415863Y97780D01*
Y125814D01*
X419162D01*
Y129816D01*
X430904D01*
Y117738D01*
Y109310D01*
X430396D01*
Y104540D01*
X450476D01*
Y109310D01*
X449968D01*
Y117738D01*
Y127738D01*
Y138802D01*
X430904D01*
Y136550D01*
X419162D01*
Y140378D01*
X406170D01*
Y140886D01*
X399650D01*
Y133096D01*
Y125306D01*
X406170D01*
Y125814D01*
X409129D01*
Y97780D01*
X408668Y97090D01*
X408352Y95504D01*
X408668Y93918D01*
X409129Y93228D01*
Y86276D01*
X406170D01*
Y86784D01*
X399650D01*
Y78994D01*
Y71204D01*
X406170D01*
Y71204D01*
X407084Y71019D01*
Y70403D01*
X404620Y68242D01*
X399650D01*
Y60452D01*
Y52662D01*
X406170D01*
Y53170D01*
X419162D01*
Y57085D01*
X421885D01*
X426630Y52340D01*
X427723Y51610D01*
X429011Y51354D01*
X429198D01*
X430396Y49310D01*
Y44540D01*
X440436D01*
Y42000D01*
X430396D01*
Y37230D01*
Y34540D01*
X440436D01*
Y32000D01*
X430396D01*
Y27230D01*
Y24540D01*
X440436D01*
Y22000D01*
X430396D01*
Y17230D01*
Y13040D01*
X440436D01*
Y10500D01*
X430396D01*
Y4230D01*
X427973Y3948D01*
X167696D01*
X163003Y4566D01*
X158430Y5791D01*
X154056Y7603D01*
X149956Y9970D01*
X146200Y12852D01*
X142852Y16200D01*
X139970Y19956D01*
X137603Y24056D01*
X135791Y28430D01*
X134566Y33003D01*
X133948Y37696D01*
X133948Y40064D01*
Y55064D01*
X133939Y55111D01*
X133947Y55159D01*
X133863Y58594D01*
X133831Y58735D01*
X133845Y58879D01*
X133172Y65715D01*
X133116Y65900D01*
Y66093D01*
X131776Y72830D01*
X131702Y73008D01*
X131683Y73200D01*
X129689Y79773D01*
X129598Y79943D01*
X129560Y80132D01*
X126932Y86479D01*
X126825Y86639D01*
X126769Y86824D01*
X123530Y92882D01*
X123408Y93031D01*
X123334Y93209D01*
X119518Y98921D01*
X119382Y99057D01*
X119291Y99227D01*
X114933Y104537D01*
X114784Y104659D01*
X114677Y104819D01*
X109819Y109677D01*
X109659Y109784D01*
X109537Y109933D01*
X104227Y114291D01*
X104057Y114382D01*
X103921Y114518D01*
X98209Y118334D01*
X98031Y118408D01*
X97882Y118530D01*
X91824Y121769D01*
X91639Y121825D01*
X91479Y121932D01*
X85132Y124560D01*
X84943Y124598D01*
X84773Y124689D01*
X78200Y126683D01*
X78008Y126702D01*
X77830Y126776D01*
X71093Y128116D01*
X70900D01*
X70715Y128172D01*
X63879Y128845D01*
X63735Y128831D01*
X63594Y128862D01*
X60159Y128947D01*
X60111Y128939D01*
X60064Y128948D01*
X40064Y128948D01*
X37696Y128948D01*
X33003Y129566D01*
X28430Y130791D01*
X24056Y132603D01*
X19956Y134970D01*
X16200Y137852D01*
X12852Y141200D01*
X9970Y144956D01*
X7603Y149056D01*
X5791Y153429D01*
X4566Y158003D01*
X3948Y162696D01*
X3948Y165063D01*
Y485064D01*
X3948Y487431D01*
X4566Y492124D01*
X5791Y496698D01*
X7603Y501071D01*
X9970Y505171D01*
X12852Y508927D01*
X16200Y512275D01*
X19956Y515157D01*
X24056Y517524D01*
X28430Y519336D01*
X33003Y520561D01*
X37696Y521179D01*
X40064Y521179D01*
X60064Y521179D01*
X60111Y521188D01*
X60159Y521180D01*
X63594Y521264D01*
X63735Y521296D01*
X63879Y521282D01*
X70715Y521955D01*
X70900Y522011D01*
X71092D01*
X77830Y523351D01*
X78008Y523425D01*
X78200Y523444D01*
X84773Y525438D01*
X84943Y525529D01*
X85132Y525567D01*
X91479Y528195D01*
X91639Y528302D01*
X91824Y528358D01*
X97882Y531597D01*
X98031Y531719D01*
X98209Y531793D01*
X103921Y535609D01*
X104057Y535745D01*
X104227Y535836D01*
X109537Y540194D01*
X109659Y540343D01*
X109819Y540450D01*
X114677Y545308D01*
X114784Y545468D01*
X114933Y545590D01*
X119291Y550900D01*
X119382Y551070D01*
X119518Y551206D01*
X123334Y556918D01*
X123408Y557096D01*
X123530Y557245D01*
X126769Y563303D01*
X126825Y563488D01*
X126932Y563648D01*
X129560Y569995D01*
X129598Y570184D01*
X129689Y570354D01*
X131683Y576927D01*
X131702Y577119D01*
X131776Y577297D01*
X133116Y584035D01*
Y584227D01*
X133172Y584412D01*
X133845Y591248D01*
X133831Y591392D01*
X133863Y591533D01*
X133947Y594968D01*
X133939Y595016D01*
X133948Y595064D01*
X133948Y610064D01*
X133948Y612430D01*
X134566Y617124D01*
X135791Y621697D01*
X137603Y626071D01*
X139970Y630171D01*
X142852Y633927D01*
X146200Y637275D01*
X149956Y640157D01*
X154056Y642524D01*
X158430Y644336D01*
X163003Y645561D01*
X167696Y646179D01*
X170063D01*
X211796D01*
X211796Y556514D01*
X211954Y555721D01*
X212403Y555049D01*
X213075Y554600D01*
X213868Y554442D01*
X479831Y554442D01*
Y547700D01*
X477901Y546227D01*
X476333Y546227D01*
X471805D01*
Y538988D01*
Y531749D01*
X476333D01*
X477901Y531749D01*
X480149Y531043D01*
Y525568D01*
X479112D01*
Y515504D01*
X482541D01*
X483490Y512963D01*
X483033Y512567D01*
X479112D01*
Y502504D01*
X479112D01*
X479381Y500148D01*
X477685Y498221D01*
X476333Y498221D01*
X471805D01*
Y490982D01*
Y483743D01*
X476313D01*
X477901Y483743D01*
X478853Y481597D01*
Y466852D01*
X477622Y465841D01*
X477392D01*
Y459232D01*
Y452623D01*
X477622D01*
X479003Y452897D01*
X480174Y453680D01*
X481439Y453376D01*
X482622Y453141D01*
X485622D01*
X486805Y453376D01*
X488070Y453680D01*
X489241Y452897D01*
X490622Y452623D01*
X490852D01*
Y459232D01*
Y465841D01*
X490622D01*
X489471Y466786D01*
Y484251D01*
X492379D01*
Y497713D01*
X490131D01*
Y502226D01*
X634397D01*
X634397Y502226D01*
X636429Y502631D01*
X638151Y503782D01*
X671351Y536981D01*
X728218D01*
X728218Y536981D01*
X730250Y537385D01*
X731972Y538536D01*
X760928Y567492D01*
X760928Y567492D01*
X762079Y569214D01*
X762483Y571246D01*
Y604594D01*
X764206D01*
Y613587D01*
X770654D01*
Y625856D01*
X764134D01*
Y619158D01*
X750214D01*
Y625856D01*
X743694D01*
Y613587D01*
X750142D01*
Y604594D01*
X751865D01*
Y573445D01*
X726019Y547599D01*
X669152D01*
X669152Y547599D01*
X667120Y547195D01*
X665398Y546044D01*
X665398Y546044D01*
X632198Y512845D01*
X489687D01*
X488613Y515384D01*
X488729Y515504D01*
X491676D01*
Y525568D01*
X490766D01*
Y532257D01*
X492379D01*
Y545719D01*
X490449D01*
Y554442D01*
X718820Y554442D01*
X719613Y554600D01*
X720285Y555049D01*
X720734Y555721D01*
X720892Y556514D01*
X720892Y646179D01*
X810063D01*
X812431D01*
X817124Y645561D01*
D02*
G37*
%LPC*%
G36*
X779714Y640666D02*
X773194D01*
Y628396D01*
X779714D01*
Y640666D01*
D02*
G37*
G36*
X750214D02*
X743694D01*
Y628396D01*
X750214D01*
Y640666D01*
D02*
G37*
G36*
X770654D02*
X764134D01*
Y628396D01*
X770654D01*
Y640666D01*
D02*
G37*
G36*
X741154D02*
X734634D01*
Y628396D01*
X741154D01*
Y640666D01*
D02*
G37*
G36*
X779714Y625856D02*
X773194D01*
Y613587D01*
X779714D01*
Y625856D01*
D02*
G37*
G36*
X741154D02*
X734634D01*
Y613587D01*
X741154D01*
Y625856D01*
D02*
G37*
G36*
X809244Y631782D02*
X805858Y631448D01*
X802602Y630461D01*
X799602Y628857D01*
X796972Y626698D01*
X794813Y624068D01*
X793210Y621068D01*
X792222Y617812D01*
X791888Y614426D01*
X792222Y611040D01*
X793210Y607784D01*
X794813Y604784D01*
X796972Y602154D01*
X799602Y599995D01*
X802602Y598391D01*
X805858Y597404D01*
X809244Y597070D01*
X812630Y597404D01*
X815886Y598391D01*
X818886Y599995D01*
X821516Y602154D01*
X823675Y604784D01*
X825278Y607784D01*
X826266Y611040D01*
X826600Y614426D01*
X826266Y617812D01*
X825278Y621068D01*
X823675Y624068D01*
X821516Y626698D01*
X818886Y628857D01*
X815886Y630461D01*
X812630Y631448D01*
X809244Y631782D01*
D02*
G37*
G36*
X167386D02*
X164000Y631448D01*
X160744Y630461D01*
X157744Y628857D01*
X155114Y626698D01*
X152955Y624068D01*
X151351Y621068D01*
X150364Y617812D01*
X150030Y614426D01*
X150364Y611040D01*
X151351Y607784D01*
X152955Y604784D01*
X155114Y602154D01*
X157744Y599995D01*
X160744Y598391D01*
X164000Y597404D01*
X167386Y597070D01*
X170772Y597404D01*
X174028Y598391D01*
X177028Y599995D01*
X179658Y602154D01*
X181817Y604784D01*
X183421Y607784D01*
X184408Y611040D01*
X184742Y614426D01*
X184408Y617812D01*
X183421Y621068D01*
X181817Y624068D01*
X179658Y626698D01*
X177028Y628857D01*
X174028Y630461D01*
X170772Y631448D01*
X167386Y631782D01*
D02*
G37*
G36*
X469265Y546227D02*
X463169D01*
Y540258D01*
X469265D01*
Y546227D01*
D02*
G37*
G36*
Y537718D02*
X463169D01*
Y531749D01*
X469265D01*
Y537718D01*
D02*
G37*
G36*
X237960Y525204D02*
X231440D01*
Y518684D01*
X237960D01*
Y525204D01*
D02*
G37*
G36*
X191218Y524188D02*
X186948D01*
Y518668D01*
X191218D01*
Y524188D01*
D02*
G37*
G36*
X247020Y525204D02*
X240500D01*
Y517414D01*
Y509624D01*
X247020D01*
Y510132D01*
X252747D01*
Y492852D01*
X249562D01*
Y478288D01*
X252747D01*
Y451352D01*
X249562D01*
Y436788D01*
X260126D01*
Y451352D01*
X259481D01*
Y478288D01*
X260126D01*
Y492852D01*
X259481D01*
Y510132D01*
X260012D01*
Y514539D01*
X269707D01*
X270039Y514317D01*
X271526Y514021D01*
X273013Y514317D01*
X274273Y515159D01*
X275115Y516419D01*
X275411Y517906D01*
X275115Y519393D01*
X274273Y520653D01*
X273013Y521495D01*
X271526Y521791D01*
X270039Y521495D01*
X269707Y521273D01*
X260012D01*
Y524696D01*
X247020D01*
Y525204D01*
D02*
G37*
G36*
X843396Y546419D02*
X809285D01*
X807996Y546162D01*
X806904Y545433D01*
X788394Y526923D01*
X737996D01*
X736708Y526666D01*
X735615Y525937D01*
X731775Y522096D01*
X724472D01*
Y519780D01*
X719010D01*
Y522350D01*
X706946D01*
Y510730D01*
X719010D01*
Y513046D01*
X724472D01*
Y510476D01*
X731971D01*
X732967Y508174D01*
X731635Y506540D01*
X724472D01*
Y494920D01*
X736536D01*
Y500667D01*
X737446Y501354D01*
X739986Y500089D01*
Y494222D01*
X743048D01*
Y486654D01*
X743000Y486410D01*
X743305Y484874D01*
X744176Y483572D01*
X745478Y482701D01*
X747014Y482396D01*
X747699Y481780D01*
X747782Y478401D01*
X736251Y466870D01*
X735522Y465778D01*
X735265Y464489D01*
Y424052D01*
X729552D01*
Y412432D01*
X741616D01*
Y414748D01*
X745300D01*
Y412178D01*
X757364D01*
Y423798D01*
X749582D01*
X748865Y426338D01*
X749507Y426767D01*
X750349Y428027D01*
X750645Y429514D01*
X750349Y431001D01*
X750127Y431333D01*
Y437769D01*
X755777D01*
Y450215D01*
X755777Y452120D01*
X755777Y454025D01*
Y458662D01*
X760347Y463231D01*
X772922D01*
X774210Y463488D01*
X775303Y464217D01*
X780561Y469476D01*
X787970D01*
Y473391D01*
X792208D01*
Y472876D01*
X806772D01*
Y480940D01*
X792208D01*
Y480125D01*
X787970D01*
Y484040D01*
X774535D01*
Y488088D01*
X775794Y489347D01*
X776187Y489425D01*
X777447Y490267D01*
X778289Y491527D01*
X778585Y493014D01*
X778289Y494501D01*
X777447Y495761D01*
X776187Y496603D01*
X774700Y496899D01*
X773213Y496603D01*
X771953Y495761D01*
X771111Y494501D01*
X771033Y494108D01*
X768787Y491863D01*
X768058Y490770D01*
X767801Y489482D01*
Y484040D01*
X759906D01*
Y469965D01*
X758952D01*
X757664Y469708D01*
X756571Y468979D01*
X754064Y466471D01*
X748693D01*
X747721Y468818D01*
X755021Y476117D01*
X755751Y477209D01*
X756007Y478498D01*
Y484979D01*
X786645Y515617D01*
X791682D01*
X792971Y515874D01*
X794063Y516603D01*
X811557Y534097D01*
X839187D01*
X839442Y533716D01*
X838084Y531176D01*
X830410D01*
Y527811D01*
X823517D01*
X821980Y527505D01*
X820678Y526635D01*
X820630Y526586D01*
X819759Y525284D01*
X819454Y523748D01*
X819759Y522212D01*
X820630Y520910D01*
X821932Y520039D01*
X823468Y519734D01*
X823712Y519782D01*
X830410D01*
Y513653D01*
X825033D01*
X824701Y513875D01*
X823214Y514171D01*
X821727Y513875D01*
X820467Y513033D01*
X819625Y511773D01*
X819329Y510286D01*
X819625Y508799D01*
X820467Y507539D01*
X821727Y506697D01*
X823214Y506401D01*
X824701Y506697D01*
X825033Y506919D01*
X830410D01*
Y503112D01*
X834579D01*
Y496147D01*
X834464Y496124D01*
X833623Y495563D01*
X833062Y494722D01*
X832864Y493730D01*
Y480250D01*
X833062Y479258D01*
X833623Y478417D01*
X834464Y477855D01*
X835456Y477658D01*
X836301D01*
X837400Y475196D01*
X836288Y473775D01*
X825772D01*
Y480940D01*
X821857D01*
Y484741D01*
X822478Y485672D01*
X822807Y487324D01*
X822478Y488976D01*
X821543Y490377D01*
X821441Y490479D01*
X820040Y491414D01*
X818388Y491743D01*
X816736Y491414D01*
X815335Y490479D01*
X814399Y489078D01*
X814071Y487426D01*
X814399Y485774D01*
X815123Y484691D01*
Y480940D01*
X811208D01*
Y472876D01*
Y466376D01*
Y459876D01*
X815123D01*
Y445414D01*
X815380Y444126D01*
X816109Y443033D01*
X827437Y431705D01*
X828530Y430976D01*
X829818Y430719D01*
X832864D01*
Y425750D01*
X833062Y424758D01*
X833623Y423917D01*
X834464Y423355D01*
X835456Y423158D01*
X840436D01*
X841428Y423355D01*
X842269Y423917D01*
X842831Y424758D01*
X843028Y425750D01*
X845564D01*
X845761Y424758D01*
X846323Y423917D01*
X847164Y423355D01*
X847279Y423333D01*
Y419927D01*
X836048D01*
X834759Y419670D01*
X833667Y418941D01*
X830923Y416196D01*
X830363Y416085D01*
X829103Y415243D01*
X828261Y413983D01*
X827965Y412496D01*
X828261Y411009D01*
X829103Y409749D01*
X830363Y408907D01*
X831850Y408611D01*
X833337Y408907D01*
X834597Y409749D01*
X835439Y411009D01*
X835484Y411235D01*
X837442Y413193D01*
X908304D01*
X909592Y413450D01*
X910685Y414179D01*
X918283Y421778D01*
X919684D01*
X920676Y421976D01*
X921517Y422537D01*
X922078Y423378D01*
X922276Y424370D01*
X924812D01*
X925010Y423378D01*
X925571Y422537D01*
X926412Y421976D01*
X927404Y421778D01*
X929159D01*
X930211Y419238D01*
X915406Y404433D01*
X885038D01*
Y407348D01*
X874974D01*
Y394784D01*
X882369D01*
X882412Y392262D01*
X882412Y392244D01*
Y387923D01*
X860214D01*
Y390714D01*
X851986D01*
X851014Y393061D01*
X855954Y398001D01*
X861974D01*
Y394784D01*
X872038D01*
Y407348D01*
X861974D01*
Y404735D01*
X854560D01*
X853271Y404478D01*
X852179Y403749D01*
X841194Y392764D01*
X841137Y392678D01*
X837689Y389230D01*
X829886D01*
Y379166D01*
X842450D01*
Y380831D01*
X845650D01*
Y376150D01*
Y362650D01*
X846528D01*
X846962Y362333D01*
X848374Y360110D01*
X848285Y359664D01*
X848581Y358177D01*
X849423Y356917D01*
X850683Y356075D01*
X851778Y355857D01*
X852147Y355051D01*
X852093Y353330D01*
X851994Y352973D01*
X849524Y351652D01*
X847281Y349812D01*
X845440Y347568D01*
X844072Y345009D01*
X843229Y342232D01*
X842945Y339344D01*
Y313944D01*
X843229Y311056D01*
X844072Y308279D01*
X845440Y305720D01*
X847281Y303477D01*
X849524Y301635D01*
X850393Y301171D01*
Y296753D01*
X845613Y291973D01*
X832485D01*
Y278003D01*
X851535D01*
Y286051D01*
X857542Y292058D01*
X858450Y293416D01*
X858768Y295019D01*
X858768Y295019D01*
Y299241D01*
X860636Y299425D01*
X863413Y300268D01*
X865972Y301635D01*
X868215Y303477D01*
X870057Y305720D01*
X871424Y308279D01*
X872267Y311056D01*
X872425Y312665D01*
X874965Y312540D01*
Y232838D01*
X870730D01*
Y218774D01*
X883794D01*
Y232838D01*
X881699D01*
Y295365D01*
X883564Y296994D01*
X893628D01*
Y309558D01*
X892217D01*
Y348556D01*
X894136D01*
Y354170D01*
X894532Y354434D01*
X897072Y353076D01*
Y348556D01*
X898097D01*
X900240Y347598D01*
Y335978D01*
X912304D01*
Y335978D01*
X914720Y335678D01*
Y332342D01*
X912304Y332042D01*
X912180Y332042D01*
X900240D01*
Y320422D01*
X902651D01*
Y317287D01*
X902429Y316955D01*
X902133Y315468D01*
X902429Y313981D01*
X903271Y312721D01*
X904204Y312098D01*
X904187Y310815D01*
X903781Y309558D01*
X896564D01*
Y296994D01*
X903677D01*
X906697Y293974D01*
Y236838D01*
X895730D01*
Y226274D01*
X895730Y226274D01*
Y225338D01*
X895730D01*
X895730Y223734D01*
Y214774D01*
X908794D01*
Y218591D01*
X912445Y222241D01*
X913174Y223334D01*
X913431Y224622D01*
Y295368D01*
X913174Y296656D01*
X912445Y297749D01*
X906628Y303565D01*
Y309115D01*
X906628Y309558D01*
X907270Y311832D01*
X907505Y311879D01*
X908765Y312721D01*
X909607Y313981D01*
X909903Y315468D01*
X909607Y316955D01*
X909385Y317287D01*
Y320422D01*
X912180D01*
X912295Y320422D01*
X914720Y320144D01*
X914729Y320144D01*
X918145D01*
Y317033D01*
X917923Y316701D01*
X917627Y315214D01*
X917923Y313727D01*
X918765Y312467D01*
X920025Y311625D01*
X921512Y311329D01*
X922999Y311625D01*
X924259Y312467D01*
X925101Y313727D01*
X925397Y315214D01*
X925101Y316701D01*
X924879Y317033D01*
Y320144D01*
X929284D01*
Y321594D01*
X930216Y323748D01*
X931824Y323748D01*
X942780D01*
Y326175D01*
X947420D01*
Y317500D01*
X971804D01*
Y341884D01*
X947420D01*
Y332909D01*
X942780D01*
Y333812D01*
X932528D01*
X931680Y335280D01*
X932528Y336748D01*
X942780D01*
Y346812D01*
X930216D01*
X929284Y348208D01*
Y348208D01*
X923538D01*
X922280Y350748D01*
X922336Y350832D01*
X922593Y352121D01*
Y359031D01*
X930839Y367278D01*
X932384D01*
X933376Y367476D01*
X934217Y368037D01*
X934779Y368878D01*
X934976Y369870D01*
X937512D01*
X937710Y368878D01*
X938271Y368037D01*
X939112Y367476D01*
X940104Y367278D01*
X945084D01*
X946076Y367476D01*
X946917Y368037D01*
X947478Y368878D01*
X947676Y369870D01*
Y383350D01*
X947478Y384342D01*
X946917Y385183D01*
X946215Y385652D01*
Y392517D01*
X946691Y393229D01*
X946987Y394716D01*
X946691Y396203D01*
X945849Y397463D01*
X944589Y398305D01*
X943102Y398601D01*
X941615Y398305D01*
X940355Y397463D01*
X939513Y396203D01*
X939217Y394716D01*
X939481Y393389D01*
Y385818D01*
X939112Y385745D01*
X938271Y385183D01*
X937710Y384342D01*
X937512Y383350D01*
X934976D01*
X934779Y384342D01*
X934217Y385183D01*
X933376Y385745D01*
X932384Y385942D01*
X927404D01*
X926412Y385745D01*
X925571Y385183D01*
X925010Y384342D01*
X924812Y383350D01*
X922276D01*
X922078Y384342D01*
X921517Y385183D01*
X920676Y385745D01*
X919684Y385942D01*
X914704D01*
X913712Y385745D01*
X912871Y385183D01*
X912309Y384342D01*
X912112Y383350D01*
X909576D01*
X909379Y384342D01*
X908817Y385183D01*
X907976Y385745D01*
X906984Y385942D01*
X902004D01*
X901012Y385745D01*
X900171Y385183D01*
X899610Y384342D01*
X899412Y383350D01*
Y379347D01*
X888476D01*
Y382074D01*
X888554Y382192D01*
X888811Y383480D01*
X888554Y384768D01*
X888476Y384886D01*
Y392262D01*
X885081D01*
X885038Y394784D01*
X885038Y394802D01*
Y397699D01*
X916800D01*
X918088Y397956D01*
X919181Y398685D01*
X942273Y421778D01*
X945084D01*
X946076Y421976D01*
X946917Y422537D01*
X947478Y423378D01*
X947676Y424370D01*
Y437850D01*
X947478Y438842D01*
X946917Y439683D01*
X946076Y440244D01*
X945084Y440442D01*
X940104D01*
X939112Y440244D01*
X938271Y439683D01*
X937710Y438842D01*
X937512Y437850D01*
X934976D01*
X934779Y438842D01*
X934217Y439683D01*
X933376Y440244D01*
X932384Y440442D01*
X927404D01*
X926412Y440244D01*
X925571Y439683D01*
X925010Y438842D01*
X924812Y437850D01*
X922276D01*
X922078Y438842D01*
X921517Y439683D01*
X920676Y440244D01*
X919684Y440442D01*
X914704D01*
X913712Y440244D01*
X912871Y439683D01*
X912309Y438842D01*
X912112Y437850D01*
X909576D01*
X909379Y438842D01*
X908817Y439683D01*
X907976Y440244D01*
X907861Y440267D01*
Y446724D01*
X911776D01*
Y451801D01*
X915121D01*
X915453Y451579D01*
X916940Y451283D01*
X918427Y451579D01*
X919687Y452421D01*
X920529Y453681D01*
X920825Y455168D01*
X920529Y456655D01*
X919687Y457915D01*
X918427Y458757D01*
X916940Y459053D01*
X915453Y458757D01*
X915121Y458535D01*
X911776D01*
Y469111D01*
X922778Y480113D01*
X923648Y481415D01*
X923953Y482951D01*
Y488198D01*
X924002Y488442D01*
X923697Y489978D01*
X922826Y491280D01*
X921524Y492151D01*
X919988Y492456D01*
X918452Y492151D01*
X917150Y491280D01*
X917101Y491232D01*
X916231Y489930D01*
X915925Y488393D01*
Y484614D01*
X906099Y474788D01*
X897212D01*
Y467643D01*
X893790D01*
X892502Y467386D01*
X891409Y466657D01*
X873665Y448913D01*
X872936Y447820D01*
X872679Y446532D01*
Y441647D01*
X872564Y441624D01*
X871723Y441063D01*
X871161Y440222D01*
X870964Y439230D01*
X868428D01*
X868231Y440222D01*
X867669Y441063D01*
X866828Y441624D01*
X866713Y441647D01*
Y457976D01*
X884729Y475992D01*
X885458Y477084D01*
X885715Y478372D01*
Y496110D01*
X885458Y497398D01*
X884729Y498491D01*
X871285Y511935D01*
Y518530D01*
X871028Y519818D01*
X870299Y520910D01*
X845776Y545433D01*
X844684Y546162D01*
X843396Y546419D01*
D02*
G37*
G36*
X191218Y516128D02*
X186948D01*
Y510608D01*
X191218D01*
Y516128D01*
D02*
G37*
G36*
X184408Y524188D02*
X180138D01*
Y523950D01*
X177710Y523680D01*
X177598Y523680D01*
X167646D01*
Y511116D01*
X168075D01*
Y493106D01*
X164924D01*
Y478542D01*
X166839D01*
Y451606D01*
X164924D01*
Y437042D01*
X166699D01*
Y432305D01*
X166337Y431763D01*
X166041Y430276D01*
X166337Y428789D01*
X167179Y427529D01*
X168439Y426687D01*
X169926Y426391D01*
X171413Y426687D01*
X172673Y427529D01*
X173515Y428789D01*
X173811Y430276D01*
X173515Y431763D01*
X173433Y431886D01*
Y437042D01*
X175488D01*
Y451606D01*
X173573D01*
Y478542D01*
X175488D01*
Y493106D01*
X174809D01*
Y511116D01*
X177598D01*
X177710Y511116D01*
X180138Y510846D01*
Y510608D01*
X184408D01*
Y517398D01*
Y524188D01*
D02*
G37*
G36*
X415544Y516444D02*
X409024D01*
Y509924D01*
X415544D01*
Y516444D01*
D02*
G37*
G36*
X442384Y516190D02*
X435864D01*
Y509670D01*
X442384D01*
Y516190D01*
D02*
G37*
G36*
X237960Y516144D02*
X231440D01*
Y509624D01*
X237960D01*
Y516144D01*
D02*
G37*
G36*
X356108Y527887D02*
X354621Y527591D01*
X353361Y526749D01*
X352519Y525489D01*
X352223Y524002D01*
X352519Y522515D01*
X352741Y522183D01*
Y514198D01*
X350080D01*
Y504134D01*
X362644D01*
Y514198D01*
X359475D01*
Y522183D01*
X359697Y522515D01*
X359993Y524002D01*
X359697Y525489D01*
X358855Y526749D01*
X357595Y527591D01*
X356108Y527887D01*
D02*
G37*
G36*
X376428D02*
X374941Y527591D01*
X373681Y526749D01*
X372839Y525489D01*
X372543Y524002D01*
X372839Y522515D01*
X373061Y522183D01*
Y513944D01*
X370146D01*
Y503880D01*
X382710D01*
Y513944D01*
X379795D01*
Y522183D01*
X380017Y522515D01*
X380313Y524002D01*
X380017Y525489D01*
X379175Y526749D01*
X377915Y527591D01*
X376428Y527887D01*
D02*
G37*
G36*
X204470Y510869D02*
X202983Y510573D01*
X201723Y509731D01*
X200881Y508471D01*
X200803Y508078D01*
X189989Y497265D01*
X189260Y496172D01*
X189003Y494884D01*
Y493106D01*
X186424D01*
Y478542D01*
X188339D01*
Y451606D01*
X186424D01*
Y437042D01*
X196988D01*
Y451606D01*
X195073D01*
Y478542D01*
X196988D01*
Y493106D01*
X196988D01*
X197628Y495381D01*
X205564Y503317D01*
X205957Y503395D01*
X207217Y504237D01*
X208059Y505497D01*
X208355Y506984D01*
X208059Y508471D01*
X207217Y509731D01*
X205957Y510573D01*
X204470Y510869D01*
D02*
G37*
G36*
X469265Y498221D02*
X463169D01*
Y492252D01*
X469265D01*
Y498221D01*
D02*
G37*
G36*
X239134Y493360D02*
X234614D01*
Y486840D01*
X239134D01*
Y493360D01*
D02*
G37*
G36*
X232074D02*
X227554D01*
Y486840D01*
X232074D01*
Y493360D01*
D02*
G37*
G36*
X469265Y489712D02*
X463169D01*
Y483743D01*
X469265D01*
Y489712D01*
D02*
G37*
G36*
X719010Y506794D02*
X706946D01*
Y495174D01*
X708758D01*
Y485130D01*
X708710Y484886D01*
X709015Y483350D01*
X709886Y482048D01*
X711188Y481177D01*
X712724Y480872D01*
X714260Y481177D01*
X715562Y482048D01*
X715611Y482096D01*
X716481Y483398D01*
X716787Y484935D01*
Y495174D01*
X719010D01*
Y506794D01*
D02*
G37*
G36*
X396494Y527887D02*
X395007Y527591D01*
X393747Y526749D01*
X392905Y525489D01*
X392609Y524002D01*
X392905Y522515D01*
X393127Y522183D01*
Y516509D01*
X389509D01*
Y504063D01*
X389509Y502158D01*
X389509Y500253D01*
Y487807D01*
X402971D01*
Y491787D01*
X409532D01*
Y487872D01*
X424096D01*
Y492033D01*
X427312D01*
Y487618D01*
X432755D01*
Y483008D01*
X430227Y480529D01*
X430055Y480531D01*
X429213Y481791D01*
X427953Y482633D01*
X426466Y482929D01*
X424979Y482633D01*
X423719Y481791D01*
X422877Y480531D01*
X422864Y480464D01*
X422197Y480261D01*
X419641Y480531D01*
X418799Y481791D01*
X417539Y482633D01*
X416052Y482929D01*
X414565Y482633D01*
X413305Y481791D01*
X412581Y480708D01*
X412311Y480489D01*
X410574Y480013D01*
X409735Y480531D01*
X408893Y481791D01*
X407633Y482633D01*
X406146Y482929D01*
X404659Y482633D01*
X403399Y481791D01*
X402557Y480531D01*
X402261Y479044D01*
X402557Y477557D01*
X403399Y476297D01*
X403562Y476189D01*
X403581Y475659D01*
X403403Y475231D01*
X401125Y473267D01*
X370603D01*
X369631Y475613D01*
X378809Y484791D01*
X379538Y485884D01*
X379795Y487172D01*
Y490880D01*
X382710D01*
Y500944D01*
X370146D01*
Y490880D01*
X372514D01*
X372835Y488340D01*
X356775Y472281D01*
X353727Y469233D01*
X352998Y468140D01*
X352741Y466852D01*
Y460629D01*
X349377D01*
Y448183D01*
X349377Y446278D01*
X349377Y444373D01*
Y431927D01*
X349377D01*
X350214Y429906D01*
X343059Y422751D01*
X342330Y421658D01*
X342073Y420370D01*
Y388099D01*
X341695Y387697D01*
X339155Y388704D01*
Y431673D01*
X342265D01*
Y444119D01*
X342265Y446024D01*
X342265Y447929D01*
Y460375D01*
X338901D01*
Y466727D01*
X358743Y486569D01*
X359472Y487662D01*
X359729Y488950D01*
Y491134D01*
X362644D01*
Y501198D01*
X350080D01*
Y499354D01*
X345213D01*
X345149Y499397D01*
X343662Y499693D01*
X342175Y499397D01*
X340915Y498555D01*
X340073Y497295D01*
X339777Y495808D01*
X340073Y494321D01*
X340915Y493061D01*
X342175Y492219D01*
X343662Y491923D01*
X345149Y492219D01*
X345749Y492620D01*
X350080D01*
Y491134D01*
X350193D01*
X351245Y488594D01*
X333153Y470503D01*
X332424Y469410D01*
X332167Y468122D01*
Y460375D01*
X328803D01*
Y447929D01*
X328803Y446024D01*
X328803Y444119D01*
Y431673D01*
X332421D01*
Y338877D01*
X332199Y338545D01*
X331903Y337058D01*
X332199Y335571D01*
X332421Y335239D01*
Y308302D01*
X332678Y307014D01*
X333407Y305922D01*
X333731Y305598D01*
X333787Y304983D01*
X333195Y302542D01*
X332868Y302324D01*
X332859Y302315D01*
X332130Y301222D01*
X331873Y299934D01*
X332130Y298646D01*
X332859Y297553D01*
X333952Y296824D01*
X335240Y296567D01*
X335285Y296576D01*
X336281D01*
X338025Y295537D01*
X338612Y292948D01*
X334237Y288573D01*
X300813D01*
X300481Y288795D01*
X298994Y289091D01*
X297507Y288795D01*
X296247Y287953D01*
X295405Y286693D01*
X295109Y285206D01*
X295405Y283719D01*
X296247Y282459D01*
X297507Y281617D01*
X298994Y281321D01*
X300481Y281617D01*
X300813Y281839D01*
X335632D01*
X336920Y282096D01*
X338012Y282825D01*
X342669Y287482D01*
X345016Y286510D01*
Y277646D01*
X344508D01*
Y271126D01*
X352298D01*
X360088D01*
Y277646D01*
X359580D01*
Y281819D01*
X359655Y282194D01*
X359580Y282569D01*
Y290638D01*
X355625D01*
Y295362D01*
X355988D01*
Y299952D01*
X357258D01*
Y301222D01*
X361198D01*
Y302170D01*
X361990D01*
Y302498D01*
X362612Y302622D01*
X363704Y303351D01*
X376523Y316170D01*
X376871Y316692D01*
X379411Y316087D01*
Y260466D01*
X379447Y260287D01*
Y259721D01*
X362546Y242820D01*
X270057D01*
X200217Y312660D01*
Y370448D01*
X199960Y371736D01*
X199231Y372828D01*
X188170Y383889D01*
X187078Y384618D01*
X185790Y384875D01*
X171600D01*
X170320Y386155D01*
X169228Y386884D01*
X167940Y387141D01*
X167592D01*
Y390004D01*
X157528D01*
Y388589D01*
X151470D01*
X150181Y388332D01*
X149089Y387603D01*
X146361Y384875D01*
X135261D01*
Y386509D01*
X128051D01*
X126447Y386509D01*
X123907Y386509D01*
X116697D01*
Y384630D01*
X113025D01*
X111737Y384374D01*
X110645Y383644D01*
X97982Y370981D01*
X97252Y369889D01*
X96995Y368601D01*
Y335437D01*
X90547Y328989D01*
X88091Y328375D01*
X86831Y329217D01*
X85344Y329513D01*
X83857Y329217D01*
X82597Y328375D01*
X81755Y327115D01*
X81459Y325628D01*
X81755Y324141D01*
X82597Y322881D01*
Y321771D01*
X81755Y320511D01*
X81459Y319024D01*
X81755Y317537D01*
X82597Y316277D01*
X83857Y315435D01*
X85344Y315139D01*
X86831Y315435D01*
X88091Y316277D01*
X88356Y316673D01*
X92826D01*
X94114Y316930D01*
X95206Y317659D01*
X107315Y329768D01*
X108045Y330860D01*
X108301Y332148D01*
Y365312D01*
X114382Y371393D01*
X116697Y371935D01*
Y371935D01*
X123907D01*
X125511Y371935D01*
X128051Y371935D01*
X135261D01*
Y373569D01*
X145345D01*
X148073Y370841D01*
X149165Y370112D01*
X150454Y369855D01*
X157528D01*
Y368440D01*
X167592D01*
Y371303D01*
X167940D01*
X169228Y371560D01*
X170320Y372289D01*
X171600Y373569D01*
X182502D01*
X188911Y367160D01*
Y309372D01*
X189168Y308084D01*
X189897Y306991D01*
X264389Y232500D01*
X265481Y231770D01*
X266769Y231514D01*
X365834D01*
X367122Y231770D01*
X368215Y232500D01*
X389766Y254052D01*
X390496Y255144D01*
X390752Y256432D01*
Y258211D01*
X390824Y258572D01*
Y314816D01*
X401392Y325384D01*
X402346Y324919D01*
X403487Y323887D01*
X403277Y322834D01*
X403573Y321347D01*
X404415Y320087D01*
X405675Y319245D01*
X407162Y318949D01*
X408516Y319219D01*
X408631Y319223D01*
X408947Y318971D01*
X410548Y317500D01*
Y311258D01*
X418338D01*
Y309988D01*
X419608D01*
Y302198D01*
X431165D01*
Y309988D01*
X433705D01*
Y302198D01*
X445262D01*
Y309988D01*
X447802D01*
Y302198D01*
X460502D01*
Y309988D01*
X463042D01*
Y302198D01*
X468819D01*
Y294173D01*
X468597Y293841D01*
X468301Y292354D01*
X468597Y290867D01*
X469439Y289607D01*
X470699Y288765D01*
X472186Y288469D01*
X473673Y288765D01*
X474933Y289607D01*
X475775Y290867D01*
X476071Y292354D01*
X475775Y293841D01*
X475553Y294173D01*
Y301436D01*
X480822D01*
Y309226D01*
X483362D01*
Y301436D01*
X495300D01*
Y309226D01*
X497840D01*
Y301436D01*
X504360D01*
Y302052D01*
X509840D01*
X510812Y299705D01*
X401163Y190057D01*
X340740D01*
X340740Y194331D01*
X341248Y196660D01*
X341248Y197084D01*
Y201930D01*
X328612D01*
Y197084D01*
X328612Y196660D01*
X329120Y194331D01*
X329120Y194120D01*
Y182690D01*
X329120D01*
Y180276D01*
X329120D01*
X329120Y180150D01*
Y168212D01*
X340740D01*
Y175769D01*
X343722Y178751D01*
X404451D01*
X405740Y179008D01*
X406832Y179737D01*
X526045Y298950D01*
X526774Y300042D01*
X527031Y301331D01*
Y353774D01*
X526774Y355062D01*
X526045Y356155D01*
X507285Y374915D01*
X506213Y375630D01*
Y376232D01*
X505978Y377415D01*
X505308Y378418D01*
Y379046D01*
X505978Y380049D01*
X506213Y381232D01*
Y384232D01*
X506095Y384825D01*
X507127Y386694D01*
X507730Y387365D01*
X511225D01*
X522478Y376112D01*
Y371475D01*
X540411D01*
Y362870D01*
X537973D01*
Y352806D01*
X548829D01*
Y349870D01*
X537973D01*
Y339806D01*
X539139D01*
Y335364D01*
X538917Y335032D01*
X538621Y333545D01*
X538917Y332058D01*
X539759Y330798D01*
X541019Y329956D01*
X542506Y329660D01*
X543992Y329956D01*
X545253Y330798D01*
X546095Y332058D01*
X546289Y333037D01*
X548829Y332787D01*
Y261112D01*
Y240154D01*
X516033Y207359D01*
X515253Y206579D01*
X514524Y205486D01*
X514267Y204198D01*
Y148826D01*
Y128402D01*
X514524Y127114D01*
X515253Y126022D01*
X518156Y123119D01*
X518904Y122619D01*
Y117738D01*
Y107738D01*
Y99310D01*
X518396D01*
Y94540D01*
X538476D01*
Y99310D01*
X537968D01*
Y107738D01*
Y117738D01*
Y127738D01*
Y138802D01*
X534481D01*
Y146136D01*
X534224Y147424D01*
X533495Y148517D01*
X526353Y155659D01*
Y201297D01*
X559657Y234601D01*
X560386Y235694D01*
X560643Y236982D01*
Y256286D01*
Y403098D01*
X560386Y404386D01*
X559657Y405479D01*
X556128Y409008D01*
X555036Y409737D01*
X553747Y409994D01*
X553593D01*
Y416179D01*
X539877D01*
Y416179D01*
X538607D01*
Y416179D01*
X524891D01*
Y410135D01*
X507754D01*
X507170Y410765D01*
X506103Y412675D01*
X506213Y413232D01*
Y416232D01*
X505978Y417415D01*
X505308Y418418D01*
Y419046D01*
X505978Y420049D01*
X506213Y421232D01*
Y424232D01*
X505978Y425415D01*
X505545Y426064D01*
X506244Y427651D01*
X506809Y428396D01*
X522922D01*
X524210Y428652D01*
X524247Y428677D01*
X525077Y428842D01*
X526337Y429684D01*
X527179Y430944D01*
X527475Y432431D01*
X527179Y433917D01*
X526337Y435177D01*
X525077Y436020D01*
X523590Y436315D01*
X522104Y436020D01*
X520843Y435177D01*
X520811Y435129D01*
X508186D01*
X506213Y437232D01*
Y440232D01*
X508080Y442400D01*
X508167Y442441D01*
X520730D01*
X521499Y441927D01*
X522986Y441631D01*
X524473Y441927D01*
X525733Y442769D01*
X526575Y444029D01*
X526871Y445516D01*
X526575Y447003D01*
X525733Y448263D01*
X524473Y449105D01*
X522986Y449401D01*
X521848Y449174D01*
X506026D01*
X505978Y449415D01*
X505308Y450418D01*
X504305Y451088D01*
X503122Y451323D01*
X497219D01*
X497060Y451478D01*
X496279Y453420D01*
X496209Y453731D01*
X496957Y454851D01*
X497231Y456232D01*
Y457962D01*
X493392D01*
Y452623D01*
X493622D01*
X493681Y452635D01*
X494680Y450870D01*
X494841Y450275D01*
X494266Y449415D01*
X494031Y448232D01*
Y445232D01*
X494266Y444049D01*
X494936Y443046D01*
Y442418D01*
X494266Y441415D01*
X494031Y440232D01*
Y437232D01*
X494266Y436049D01*
X494936Y435046D01*
Y434418D01*
X494266Y433415D01*
X494031Y432232D01*
Y429232D01*
X494266Y428049D01*
X494936Y427046D01*
Y426418D01*
X494266Y425415D01*
X494031Y424232D01*
Y421232D01*
X494266Y420049D01*
X494936Y419046D01*
Y418418D01*
X494266Y417415D01*
X494031Y416232D01*
Y413232D01*
X494266Y412049D01*
X494936Y411046D01*
Y410418D01*
X494266Y409415D01*
X494031Y408232D01*
Y405232D01*
X494266Y404049D01*
X494936Y403046D01*
Y402418D01*
X494266Y401415D01*
X494031Y400232D01*
Y397232D01*
X494266Y396049D01*
X494936Y395046D01*
Y394418D01*
X494266Y393415D01*
X494031Y392232D01*
Y389232D01*
X494266Y388049D01*
X494936Y387046D01*
Y386418D01*
X494266Y385415D01*
X494031Y384232D01*
Y381232D01*
X494266Y380049D01*
X494936Y379046D01*
Y378418D01*
X494266Y377415D01*
X494031Y376232D01*
Y373232D01*
X494266Y372049D01*
X494936Y371046D01*
Y370418D01*
X494266Y369415D01*
X494031Y368232D01*
Y365232D01*
X494266Y364049D01*
X494807Y362732D01*
X494266Y361415D01*
X494031Y360232D01*
Y357232D01*
X494266Y356049D01*
X494936Y355046D01*
X495939Y354376D01*
X497122Y354141D01*
X503122D01*
X504305Y354376D01*
X505308Y355046D01*
X505601Y355484D01*
X507763Y356083D01*
X508578Y356099D01*
X515725Y348951D01*
Y337551D01*
X514617Y336891D01*
X513185Y336486D01*
X512281Y337091D01*
X510794Y337387D01*
X509307Y337091D01*
X508047Y336249D01*
X507205Y334989D01*
X506909Y333502D01*
X506977Y333164D01*
X505481Y330882D01*
X505089Y330624D01*
X503258D01*
Y330008D01*
X484634D01*
X484440Y330980D01*
X483711Y332073D01*
X480409Y335375D01*
X479316Y336104D01*
X478028Y336361D01*
X450492D01*
X449351Y338135D01*
X450588Y339630D01*
X450622Y339623D01*
X450852D01*
Y346232D01*
Y352841D01*
X450622D01*
X449241Y352567D01*
X448070Y351784D01*
X446805Y352088D01*
X445622Y352323D01*
X442622D01*
X441439Y352088D01*
X440436Y351418D01*
X439808D01*
X438805Y352088D01*
X437622Y352323D01*
X434622D01*
X433439Y352088D01*
X432436Y351418D01*
X431808D01*
X430805Y352088D01*
X429622Y352323D01*
X426622D01*
X425439Y352088D01*
X424174Y351784D01*
X423003Y352567D01*
X421622Y352841D01*
X421392D01*
Y346232D01*
X418852D01*
Y352841D01*
X418622D01*
X417241Y352567D01*
X416070Y351784D01*
X414805Y352088D01*
X413622Y352323D01*
X410622D01*
X409439Y352088D01*
X408436Y351418D01*
X407808D01*
X406805Y352088D01*
X405622Y352323D01*
X402622D01*
X401439Y352088D01*
X400436Y351418D01*
X399766Y350415D01*
X399531Y349232D01*
Y343232D01*
X399766Y342049D01*
X400053Y341619D01*
X380397Y321963D01*
X380049Y321441D01*
X377509Y322046D01*
Y361062D01*
X381773D01*
X381921Y360839D01*
X385159Y357601D01*
X386252Y356872D01*
X387540Y356615D01*
X390723D01*
X390936Y356296D01*
X391939Y355626D01*
X393122Y355391D01*
X399122D01*
X400305Y355626D01*
X401308Y356296D01*
X401978Y357299D01*
X402213Y358482D01*
Y361482D01*
X401978Y362665D01*
X401437Y363982D01*
X401978Y365299D01*
X402213Y366482D01*
Y369482D01*
X401978Y370665D01*
X401308Y371668D01*
Y372296D01*
X401978Y373299D01*
X402213Y374482D01*
Y377482D01*
X401978Y378665D01*
X401437Y379982D01*
X401978Y381299D01*
X402213Y382482D01*
Y385482D01*
X401978Y386665D01*
X401674Y387930D01*
X402457Y389101D01*
X402731Y390482D01*
Y390712D01*
X396122D01*
Y393252D01*
X402731D01*
Y393482D01*
X402457Y394863D01*
X401674Y396034D01*
X401978Y397299D01*
X402213Y398482D01*
Y401482D01*
X401978Y402665D01*
X401437Y403982D01*
X401978Y405299D01*
X402213Y406482D01*
Y409482D01*
X401978Y410665D01*
X401308Y411668D01*
Y412296D01*
X401978Y413299D01*
X402213Y414482D01*
Y417482D01*
X401978Y418665D01*
X401308Y419668D01*
Y420296D01*
X401978Y421299D01*
X402213Y422482D01*
Y425482D01*
X401978Y426665D01*
X401437Y427982D01*
X401978Y429299D01*
X402213Y430482D01*
Y433482D01*
X401978Y434665D01*
X401308Y435668D01*
Y436296D01*
X401978Y437299D01*
X402213Y438482D01*
Y441482D01*
X401978Y442665D01*
X401437Y443982D01*
X401978Y445299D01*
X402213Y446482D01*
Y449482D01*
X401978Y450665D01*
X401967Y450681D01*
X402189Y451513D01*
X403328Y453141D01*
X405622D01*
X406805Y453376D01*
X408122Y453917D01*
X409439Y453376D01*
X410622Y453141D01*
X413622D01*
X414805Y453376D01*
X415808Y454046D01*
X416436D01*
X417439Y453376D01*
X418622Y453141D01*
X421622D01*
X422805Y453376D01*
X424122Y453917D01*
X425439Y453376D01*
X426622Y453141D01*
X429622D01*
X430805Y453376D01*
X431808Y454046D01*
X432436D01*
X433439Y453376D01*
X434622Y453141D01*
X437622D01*
X438805Y453376D01*
X439808Y454046D01*
X440436D01*
X441439Y453376D01*
X442622Y453141D01*
X445622D01*
X446805Y453376D01*
X448122Y453917D01*
X449439Y453376D01*
X450622Y453141D01*
X453622D01*
X454805Y453376D01*
X455808Y454046D01*
X456436D01*
X457439Y453376D01*
X458622Y453141D01*
X461622D01*
X462805Y453376D01*
X463808Y454046D01*
X464436D01*
X465439Y453376D01*
X466622Y453141D01*
X469622D01*
X470805Y453376D01*
X472070Y453680D01*
X473241Y452897D01*
X474622Y452623D01*
X474852D01*
Y459232D01*
Y465841D01*
X474622D01*
X473241Y465567D01*
X472070Y464784D01*
X470805Y465088D01*
X469622Y465323D01*
X466622D01*
X465439Y465088D01*
X464436Y464418D01*
X463808D01*
X462805Y465088D01*
X461622Y465323D01*
X458622D01*
X457439Y465088D01*
X456436Y464418D01*
X455808D01*
X454805Y465088D01*
X453622Y465323D01*
X450622D01*
X449439Y465088D01*
X448122Y464547D01*
X446805Y465088D01*
X445622Y465323D01*
X442622D01*
X442029Y465205D01*
X440160Y466237D01*
X439489Y466840D01*
Y487618D01*
X441876D01*
Y500610D01*
X442384D01*
Y507130D01*
X434594D01*
Y508400D01*
X433324D01*
Y516190D01*
X426804D01*
Y516190D01*
X424604Y516444D01*
Y516444D01*
X424369Y516444D01*
X418084D01*
Y508654D01*
X416814D01*
Y507384D01*
X409024D01*
Y500864D01*
X409024D01*
X408549Y498521D01*
X404767D01*
X402971Y500317D01*
X402971Y502158D01*
X402971Y504063D01*
Y516509D01*
X399861D01*
Y522183D01*
X400083Y522515D01*
X400379Y524002D01*
X400083Y525489D01*
X399241Y526749D01*
X397981Y527591D01*
X396494Y527887D01*
D02*
G37*
G36*
X239134Y484300D02*
X234614D01*
Y477780D01*
X239134D01*
Y484300D01*
D02*
G37*
G36*
X232074D02*
X227554D01*
Y477780D01*
X232074D01*
Y484300D01*
D02*
G37*
G36*
X493622Y465841D02*
X493392D01*
Y460502D01*
X497231D01*
Y462232D01*
X496957Y463613D01*
X496174Y464784D01*
X495003Y465567D01*
X493622Y465841D01*
D02*
G37*
G36*
X20066Y479514D02*
X17578Y479187D01*
X15259Y478226D01*
X13268Y476698D01*
X11740Y474707D01*
X10779Y472388D01*
X10452Y469900D01*
X10779Y467412D01*
X11740Y465093D01*
X13268Y463102D01*
X15259Y461574D01*
X17578Y460613D01*
X20066Y460286D01*
X22554Y460613D01*
X24873Y461574D01*
X26864Y463102D01*
X28392Y465093D01*
X29353Y467412D01*
X29680Y469900D01*
X29353Y472388D01*
X28392Y474707D01*
X26864Y476698D01*
X24873Y478226D01*
X22554Y479187D01*
X20066Y479514D01*
D02*
G37*
G36*
X806772Y467940D02*
X792208D01*
Y459876D01*
X795393D01*
Y452944D01*
X791294D01*
Y448883D01*
X785155D01*
X784823Y449105D01*
X783336Y449401D01*
X781849Y449105D01*
X780589Y448263D01*
X779747Y447003D01*
X779451Y445516D01*
X779747Y444029D01*
X780589Y442769D01*
X781849Y441927D01*
X783336Y441631D01*
X784823Y441927D01*
X785155Y442149D01*
X791294D01*
Y435421D01*
X785155D01*
X784823Y435643D01*
X783336Y435939D01*
X781849Y435643D01*
X780589Y434801D01*
X779747Y433541D01*
X779451Y432054D01*
X779747Y430567D01*
X780589Y429307D01*
X781849Y428465D01*
X783336Y428169D01*
X784823Y428465D01*
X785155Y428687D01*
X791294D01*
Y424880D01*
X805858D01*
Y438380D01*
Y452944D01*
X802127D01*
Y459876D01*
X806772D01*
Y467940D01*
D02*
G37*
G36*
X239134Y451860D02*
X234614D01*
Y445340D01*
X239134D01*
Y451860D01*
D02*
G37*
G36*
X232074D02*
X227554D01*
Y445340D01*
X232074D01*
Y451860D01*
D02*
G37*
G36*
X239134Y442800D02*
X234614D01*
Y436280D01*
X239134D01*
Y442800D01*
D02*
G37*
G36*
X232074D02*
X227554D01*
Y436280D01*
X232074D01*
Y442800D01*
D02*
G37*
G36*
X20066Y454114D02*
X17578Y453787D01*
X15259Y452826D01*
X13268Y451298D01*
X11740Y449307D01*
X10779Y446988D01*
X10452Y444500D01*
X10779Y442012D01*
X11740Y439693D01*
X13268Y437702D01*
X15259Y436174D01*
X17578Y435213D01*
X20066Y434886D01*
X22554Y435213D01*
X24873Y436174D01*
X26864Y437702D01*
X28392Y439693D01*
X29353Y442012D01*
X29680Y444500D01*
X29353Y446988D01*
X28392Y449307D01*
X26864Y451298D01*
X24873Y452826D01*
X22554Y453787D01*
X20066Y454114D01*
D02*
G37*
G36*
X479872Y437836D02*
X474392D01*
Y429002D01*
X483226D01*
Y434482D01*
X482971Y435766D01*
X482244Y436854D01*
X481156Y437581D01*
X479872Y437836D01*
D02*
G37*
G36*
X454872D02*
X449392D01*
Y429002D01*
X458226D01*
Y434482D01*
X457971Y435766D01*
X457244Y436854D01*
X456156Y437581D01*
X454872Y437836D01*
D02*
G37*
G36*
X429872D02*
X424392D01*
Y429002D01*
X433226D01*
Y434482D01*
X432971Y435766D01*
X432244Y436854D01*
X431156Y437581D01*
X429872Y437836D01*
D02*
G37*
G36*
X471852D02*
X466372D01*
X465088Y437581D01*
X464000Y436854D01*
X463273Y435766D01*
X463018Y434482D01*
Y429002D01*
X471852D01*
Y437836D01*
D02*
G37*
G36*
X446852D02*
X441372D01*
X440088Y437581D01*
X439000Y436854D01*
X438273Y435766D01*
X438018Y434482D01*
Y429002D01*
X446852D01*
Y437836D01*
D02*
G37*
G36*
X421852D02*
X416372D01*
X415088Y437581D01*
X414000Y436854D01*
X413273Y435766D01*
X413018Y434482D01*
Y429002D01*
X421852D01*
Y437836D01*
D02*
G37*
G36*
X483226Y426462D02*
X474392D01*
Y417628D01*
X479872D01*
X481156Y417883D01*
X482244Y418610D01*
X482971Y419698D01*
X483226Y420982D01*
Y426462D01*
D02*
G37*
G36*
X471852D02*
X463018D01*
Y420982D01*
X463273Y419698D01*
X464000Y418610D01*
X465088Y417883D01*
X466372Y417628D01*
X471852D01*
Y426462D01*
D02*
G37*
G36*
X458226D02*
X449392D01*
Y417628D01*
X454872D01*
X456156Y417883D01*
X457244Y418610D01*
X457971Y419698D01*
X458226Y420982D01*
Y426462D01*
D02*
G37*
G36*
X446852D02*
X438018D01*
Y420982D01*
X438273Y419698D01*
X439000Y418610D01*
X440088Y417883D01*
X441372Y417628D01*
X446852D01*
Y426462D01*
D02*
G37*
G36*
X433226D02*
X424392D01*
Y417628D01*
X429872D01*
X431156Y417883D01*
X432244Y418610D01*
X432971Y419698D01*
X433226Y420982D01*
Y426462D01*
D02*
G37*
G36*
X421852D02*
X413018D01*
Y420982D01*
X413273Y419698D01*
X414000Y418610D01*
X415088Y417883D01*
X416372Y417628D01*
X421852D01*
Y426462D01*
D02*
G37*
G36*
X20066Y428714D02*
X17578Y428387D01*
X15259Y427426D01*
X13268Y425898D01*
X11740Y423907D01*
X10779Y421588D01*
X10452Y419100D01*
X10779Y416612D01*
X11740Y414293D01*
X13268Y412302D01*
X15259Y410774D01*
X17578Y409813D01*
X20066Y409486D01*
X22554Y409813D01*
X24873Y410774D01*
X26864Y412302D01*
X28392Y414293D01*
X29353Y416612D01*
X29680Y419100D01*
X29353Y421588D01*
X28392Y423907D01*
X26864Y425898D01*
X24873Y427426D01*
X22554Y428387D01*
X20066Y428714D01*
D02*
G37*
G36*
X775632Y423480D02*
X761068D01*
Y408916D01*
Y405799D01*
X757364D01*
Y408242D01*
X745300D01*
Y396622D01*
X757364D01*
Y399065D01*
X761068D01*
Y395416D01*
X764729D01*
Y387645D01*
X764507Y387313D01*
X764211Y385826D01*
X764507Y384339D01*
X765349Y383079D01*
X766609Y382237D01*
X768096Y381941D01*
X769583Y382237D01*
X770843Y383079D01*
X771685Y384339D01*
X771981Y385826D01*
X771685Y387313D01*
X771463Y387645D01*
Y395416D01*
X775632D01*
Y408916D01*
Y412184D01*
X778987D01*
X782355Y408816D01*
X783658Y407946D01*
X785194Y407640D01*
X798322D01*
X799858Y407946D01*
X801160Y408816D01*
X802031Y410118D01*
X802336Y411654D01*
X802031Y413190D01*
X801160Y414493D01*
X799858Y415363D01*
X798322Y415668D01*
X786856D01*
X783488Y419036D01*
X782186Y419907D01*
X780650Y420212D01*
X775632D01*
Y423480D01*
D02*
G37*
G36*
X429872Y412836D02*
X424392D01*
Y404002D01*
X433226D01*
Y409482D01*
X432971Y410766D01*
X432244Y411854D01*
X431156Y412581D01*
X429872Y412836D01*
D02*
G37*
G36*
X479872D02*
X474392D01*
Y404002D01*
X483226D01*
Y409482D01*
X482971Y410766D01*
X482244Y411854D01*
X481156Y412581D01*
X479872Y412836D01*
D02*
G37*
G36*
X454872D02*
X449392D01*
Y404002D01*
X458226D01*
Y409482D01*
X457971Y410766D01*
X457244Y411854D01*
X456156Y412581D01*
X454872Y412836D01*
D02*
G37*
G36*
X471852D02*
X466372D01*
X465088Y412581D01*
X464000Y411854D01*
X463273Y410766D01*
X463018Y409482D01*
Y404002D01*
X471852D01*
Y412836D01*
D02*
G37*
G36*
X421852D02*
X416372D01*
X415088Y412581D01*
X414000Y411854D01*
X413273Y410766D01*
X413018Y409482D01*
Y404002D01*
X421852D01*
Y412836D01*
D02*
G37*
G36*
X446852D02*
X441372D01*
X440088Y412581D01*
X439000Y411854D01*
X438273Y410766D01*
X438018Y409482D01*
Y404002D01*
X446852D01*
Y412836D01*
D02*
G37*
G36*
X30106Y403740D02*
X21336D01*
Y394970D01*
X30106D01*
Y403740D01*
D02*
G37*
G36*
X18796D02*
X10026D01*
Y394970D01*
X18796D01*
Y403740D01*
D02*
G37*
G36*
X483226Y401462D02*
X474392D01*
Y392628D01*
X479872D01*
X481156Y392883D01*
X482244Y393610D01*
X482971Y394698D01*
X483226Y395982D01*
Y401462D01*
D02*
G37*
G36*
X471852D02*
X463018D01*
Y395982D01*
X463273Y394698D01*
X464000Y393610D01*
X465088Y392883D01*
X466372Y392628D01*
X471852D01*
Y401462D01*
D02*
G37*
G36*
X458226D02*
X449392D01*
Y392628D01*
X454872D01*
X456156Y392883D01*
X457244Y393610D01*
X457971Y394698D01*
X458226Y395982D01*
Y401462D01*
D02*
G37*
G36*
X446852D02*
X438018D01*
Y395982D01*
X438273Y394698D01*
X439000Y393610D01*
X440088Y392883D01*
X441372Y392628D01*
X446852D01*
Y401462D01*
D02*
G37*
G36*
X433226D02*
X424392D01*
Y392628D01*
X429872D01*
X431156Y392883D01*
X432244Y393610D01*
X432971Y394698D01*
X433226Y395982D01*
Y401462D01*
D02*
G37*
G36*
X421852D02*
X413018D01*
Y395982D01*
X413273Y394698D01*
X414000Y393610D01*
X415088Y392883D01*
X416372Y392628D01*
X421852D01*
Y401462D01*
D02*
G37*
G36*
X30106Y392430D02*
X21336D01*
Y383660D01*
X30106D01*
Y392430D01*
D02*
G37*
G36*
X18796D02*
X10026D01*
Y383660D01*
X18796D01*
Y392430D01*
D02*
G37*
G36*
X741616Y408496D02*
X729552D01*
Y396876D01*
X731570D01*
Y386080D01*
X731875Y384544D01*
X732746Y383242D01*
X734048Y382371D01*
X735584Y382066D01*
X737120Y382371D01*
X738422Y383242D01*
X739293Y384544D01*
X739598Y386080D01*
Y396876D01*
X741616D01*
Y408496D01*
D02*
G37*
G36*
X429872Y387836D02*
X424392D01*
Y379002D01*
X433226D01*
Y384482D01*
X432971Y385766D01*
X432244Y386854D01*
X431156Y387581D01*
X429872Y387836D01*
D02*
G37*
G36*
X479872D02*
X474392D01*
Y379002D01*
X483226D01*
Y384482D01*
X482971Y385766D01*
X482244Y386854D01*
X481156Y387581D01*
X479872Y387836D01*
D02*
G37*
G36*
X454872D02*
X449392D01*
Y379002D01*
X458226D01*
Y384482D01*
X457971Y385766D01*
X457244Y386854D01*
X456156Y387581D01*
X454872Y387836D01*
D02*
G37*
G36*
X471852D02*
X466372D01*
X465088Y387581D01*
X464000Y386854D01*
X463273Y385766D01*
X463018Y384482D01*
Y379002D01*
X471852D01*
Y387836D01*
D02*
G37*
G36*
X421852D02*
X416372D01*
X415088Y387581D01*
X414000Y386854D01*
X413273Y385766D01*
X413018Y384482D01*
Y379002D01*
X421852D01*
Y387836D01*
D02*
G37*
G36*
X446852D02*
X441372D01*
X440088Y387581D01*
X439000Y386854D01*
X438273Y385766D01*
X438018Y384482D01*
Y379002D01*
X446852D01*
Y387836D01*
D02*
G37*
G36*
X483226Y376462D02*
X474392D01*
Y367628D01*
X479872D01*
X481156Y367883D01*
X482244Y368610D01*
X482971Y369698D01*
X483226Y370982D01*
Y376462D01*
D02*
G37*
G36*
X471852D02*
X463018D01*
Y370982D01*
X463273Y369698D01*
X464000Y368610D01*
X465088Y367883D01*
X466372Y367628D01*
X471852D01*
Y376462D01*
D02*
G37*
G36*
X458226D02*
X449392D01*
Y367628D01*
X454872D01*
X456156Y367883D01*
X457244Y368610D01*
X457971Y369698D01*
X458226Y370982D01*
Y376462D01*
D02*
G37*
G36*
X446852D02*
X438018D01*
Y370982D01*
X438273Y369698D01*
X439000Y368610D01*
X440088Y367883D01*
X441372Y367628D01*
X446852D01*
Y376462D01*
D02*
G37*
G36*
X433226D02*
X424392D01*
Y367628D01*
X429872D01*
X431156Y367883D01*
X432244Y368610D01*
X432971Y369698D01*
X433226Y370982D01*
Y376462D01*
D02*
G37*
G36*
X421852D02*
X413018D01*
Y370982D01*
X413273Y369698D01*
X414000Y368610D01*
X415088Y367883D01*
X416372Y367628D01*
X421852D01*
Y376462D01*
D02*
G37*
G36*
X842450Y376230D02*
X829886D01*
Y366166D01*
X832547D01*
Y361483D01*
X832325Y361151D01*
X832029Y359664D01*
X832325Y358177D01*
X833167Y356917D01*
X834427Y356075D01*
X835914Y355779D01*
X837401Y356075D01*
X838661Y356917D01*
X839503Y358177D01*
X839799Y359664D01*
X839503Y361151D01*
X839281Y361483D01*
Y366166D01*
X842450D01*
Y376230D01*
D02*
G37*
G36*
X32288Y361487D02*
X27288D01*
X25191Y361211D01*
X23237Y360402D01*
X21560Y359114D01*
X20272Y357437D01*
X19463Y355483D01*
X19187Y353386D01*
X19463Y351289D01*
X20272Y349335D01*
X21560Y347658D01*
X23237Y346370D01*
X25191Y345561D01*
X27288Y345285D01*
X32288D01*
X34385Y345561D01*
X36339Y346370D01*
X38017Y347658D01*
X39304Y349335D01*
X40113Y351289D01*
X40389Y353386D01*
X40113Y355483D01*
X39304Y357437D01*
X38017Y359114D01*
X36339Y360402D01*
X34385Y361211D01*
X32288Y361487D01*
D02*
G37*
G36*
X62088Y357479D02*
X58088D01*
X56252Y357237D01*
X54542Y356528D01*
X53073Y355401D01*
X51946Y353932D01*
X51237Y352222D01*
X50995Y350386D01*
X51237Y348550D01*
X51946Y346840D01*
X53073Y345371D01*
X54542Y344244D01*
X56252Y343535D01*
X58088Y343293D01*
X62088D01*
X63924Y343535D01*
X65634Y344244D01*
X67103Y345371D01*
X68230Y346840D01*
X68939Y348550D01*
X69181Y350386D01*
X68939Y352222D01*
X68230Y353932D01*
X67103Y355401D01*
X65634Y356528D01*
X63924Y357237D01*
X62088Y357479D01*
D02*
G37*
G36*
X453622Y352841D02*
X453392D01*
Y346232D01*
Y339623D01*
X453622D01*
X455003Y339897D01*
X456174Y340680D01*
X457439Y340376D01*
X458622Y340141D01*
X461622D01*
X462805Y340376D01*
X463808Y341046D01*
X464436D01*
X465439Y340376D01*
X466622Y340141D01*
X469622D01*
X470805Y340376D01*
X471808Y341046D01*
X472436D01*
X473439Y340376D01*
X474622Y340141D01*
X477622D01*
X478805Y340376D01*
X480122Y340917D01*
X481439Y340376D01*
X482622Y340141D01*
X485622D01*
X486805Y340376D01*
X487808Y341046D01*
X488436D01*
X489439Y340376D01*
X490622Y340141D01*
X493622D01*
X494805Y340376D01*
X495808Y341046D01*
X496478Y342049D01*
X496713Y343232D01*
Y349232D01*
X496478Y350415D01*
X495808Y351418D01*
X494805Y352088D01*
X493622Y352323D01*
X490622D01*
X489439Y352088D01*
X488436Y351418D01*
X487808D01*
X486805Y352088D01*
X485622Y352323D01*
X482622D01*
X481439Y352088D01*
X480436Y351418D01*
X479808D01*
X478805Y352088D01*
X477622Y352323D01*
X474622D01*
X473439Y352088D01*
X472436Y351418D01*
X471808D01*
X470805Y352088D01*
X469622Y352323D01*
X466622D01*
X465439Y352088D01*
X464436Y351418D01*
X463808D01*
X462805Y352088D01*
X461622Y352323D01*
X458622D01*
X457439Y352088D01*
X456174Y351784D01*
X455003Y352567D01*
X453622Y352841D01*
D02*
G37*
G36*
X417068Y308718D02*
X410548D01*
Y302198D01*
X417068D01*
Y308718D01*
D02*
G37*
G36*
X126248Y354147D02*
X123360Y353863D01*
X120583Y353021D01*
X118024Y351652D01*
X115780Y349812D01*
X113940Y347568D01*
X112572Y345009D01*
X111729Y342232D01*
X111445Y339344D01*
Y313944D01*
X111729Y311056D01*
X112572Y308279D01*
X113940Y305720D01*
X114390Y305170D01*
X90344Y281124D01*
X89193Y279402D01*
X88789Y277370D01*
X88789Y277370D01*
Y258948D01*
X83074D01*
Y255083D01*
X68074D01*
X66786Y254826D01*
X65693Y254097D01*
X23995Y212398D01*
X22554Y212995D01*
X20066Y213322D01*
X17578Y212995D01*
X15259Y212034D01*
X13268Y210506D01*
X11740Y208515D01*
X10779Y206196D01*
X10452Y203708D01*
X10779Y201220D01*
X11740Y198901D01*
X13268Y196910D01*
X15259Y195382D01*
X17578Y194421D01*
X20066Y194094D01*
X22554Y194421D01*
X24873Y195382D01*
X26864Y196910D01*
X28392Y198901D01*
X29353Y201220D01*
X29680Y203708D01*
X29353Y206196D01*
X28756Y207637D01*
X54447Y233328D01*
X56794Y232356D01*
Y225874D01*
X61064D01*
Y232664D01*
X63604D01*
Y225874D01*
X67874D01*
Y226112D01*
X70302Y226382D01*
Y226382D01*
X75605D01*
X78295Y223691D01*
Y203390D01*
X78552Y202102D01*
X79281Y201009D01*
X83440Y196851D01*
Y189548D01*
X95060D01*
Y201612D01*
X94856D01*
X94552Y204026D01*
X94552D01*
Y216090D01*
X94552D01*
X94105Y218630D01*
X96523Y221047D01*
X101174D01*
X102462Y221304D01*
X103554Y222033D01*
X105489Y223968D01*
X106218Y225060D01*
X106475Y226348D01*
Y243214D01*
X106218Y244502D01*
X105489Y245595D01*
X101838Y249245D01*
Y258948D01*
X99407D01*
Y275171D01*
X123634Y299398D01*
X126248Y299141D01*
X129136Y299425D01*
X131913Y300268D01*
X134472Y301635D01*
X136715Y303477D01*
X138556Y305720D01*
X139924Y308279D01*
X140767Y311056D01*
X141051Y313944D01*
Y339344D01*
X140767Y342232D01*
X139924Y345009D01*
X138556Y347568D01*
X136715Y349812D01*
X134472Y351652D01*
X131913Y353021D01*
X129136Y353863D01*
X126248Y354147D01*
D02*
G37*
G36*
X361198Y298682D02*
X358528D01*
Y295362D01*
X361198D01*
Y298682D01*
D02*
G37*
G36*
X62088Y308979D02*
X58088D01*
X56252Y308737D01*
X54542Y308028D01*
X53073Y306901D01*
X51946Y305432D01*
X51237Y303722D01*
X50995Y301886D01*
X51237Y300050D01*
X51946Y298340D01*
X53073Y296871D01*
X54542Y295744D01*
X56252Y295035D01*
X58088Y294793D01*
X62088D01*
X63924Y295035D01*
X65634Y295744D01*
X67103Y296871D01*
X68230Y298340D01*
X68939Y300050D01*
X69181Y301886D01*
X68939Y303722D01*
X68230Y305432D01*
X67103Y306901D01*
X65634Y308028D01*
X63924Y308737D01*
X62088Y308979D01*
D02*
G37*
G36*
X32288Y306987D02*
X27288D01*
X25191Y306711D01*
X23237Y305902D01*
X21560Y304615D01*
X20272Y302937D01*
X19463Y300983D01*
X19187Y298886D01*
X19463Y296789D01*
X20272Y294835D01*
X21560Y293158D01*
X23237Y291870D01*
X25191Y291061D01*
X27288Y290785D01*
X32288D01*
X34385Y291061D01*
X36339Y291870D01*
X38017Y293158D01*
X39304Y294835D01*
X40113Y296789D01*
X40389Y298886D01*
X40113Y300983D01*
X39304Y302937D01*
X38017Y304615D01*
X36339Y305902D01*
X34385Y306711D01*
X32288Y306987D01*
D02*
G37*
G36*
X719248Y365626D02*
X713150Y365146D01*
X707202Y363718D01*
X701551Y361377D01*
X696335Y358181D01*
X691683Y354209D01*
X687711Y349557D01*
X684515Y344342D01*
X682174Y338690D01*
X680746Y332742D01*
X680266Y326644D01*
X680746Y320546D01*
X682174Y314598D01*
X684515Y308946D01*
X687711Y303731D01*
X691683Y299079D01*
X696335Y295107D01*
X701551Y291911D01*
X707202Y289570D01*
X713150Y288142D01*
X719248Y287662D01*
X725346Y288142D01*
X731294Y289570D01*
X736945Y291911D01*
X742161Y295107D01*
X746813Y299079D01*
X750785Y303731D01*
X753981Y308946D01*
X756322Y314598D01*
X757750Y320546D01*
X758230Y326644D01*
X757750Y332742D01*
X756322Y338690D01*
X753981Y344342D01*
X750785Y349557D01*
X746813Y354209D01*
X742161Y358181D01*
X736945Y361377D01*
X731294Y363718D01*
X725346Y365146D01*
X719248Y365626D01*
D02*
G37*
G36*
X264748D02*
X258650Y365146D01*
X252702Y363718D01*
X247050Y361377D01*
X241835Y358181D01*
X237183Y354209D01*
X233211Y349557D01*
X230015Y344342D01*
X227674Y338690D01*
X226246Y332742D01*
X225766Y326644D01*
X226246Y320546D01*
X227674Y314598D01*
X230015Y308946D01*
X233211Y303731D01*
X237183Y299079D01*
X241835Y295107D01*
X247050Y291911D01*
X252702Y289570D01*
X258650Y288142D01*
X264748Y287662D01*
X270846Y288142D01*
X276794Y289570D01*
X282446Y291911D01*
X287661Y295107D01*
X292313Y299079D01*
X296285Y303731D01*
X299481Y308946D01*
X301822Y314598D01*
X303250Y320546D01*
X303730Y326644D01*
X303250Y332742D01*
X301822Y338690D01*
X299481Y344342D01*
X296285Y349557D01*
X292313Y354209D01*
X287661Y358181D01*
X282446Y361377D01*
X276794Y363718D01*
X270846Y365146D01*
X264748Y365626D01*
D02*
G37*
G36*
X964136Y289776D02*
X959866D01*
Y282756D01*
X964136D01*
Y289776D01*
D02*
G37*
G36*
X957326D02*
X953056D01*
Y282756D01*
X957326D01*
Y289776D01*
D02*
G37*
G36*
X964136Y280216D02*
X959866D01*
Y273196D01*
X964136D01*
Y280216D01*
D02*
G37*
G36*
X957326D02*
X953056D01*
Y273196D01*
X957326D01*
Y280216D01*
D02*
G37*
G36*
X942002Y277430D02*
X935482D01*
Y270910D01*
X942002D01*
Y277430D01*
D02*
G37*
G36*
X932942D02*
X926422D01*
Y270910D01*
X932942D01*
Y277430D01*
D02*
G37*
G36*
X851535Y270129D02*
X832485D01*
Y267332D01*
X823576D01*
X823576Y267332D01*
X821973Y267013D01*
X820615Y266105D01*
X820615Y266105D01*
X809334Y254824D01*
X800692D01*
Y251556D01*
X798178D01*
X797172Y252229D01*
X796569Y252349D01*
X786593Y262325D01*
X785500Y263054D01*
X784212Y263311D01*
X783294D01*
Y264976D01*
X767230D01*
Y255984D01*
X766722D01*
Y251714D01*
X775262D01*
Y249174D01*
X766722D01*
Y244904D01*
X767230D01*
Y235912D01*
X771248D01*
Y234328D01*
X771553Y232792D01*
X772424Y231489D01*
X774655Y229258D01*
X775958Y228387D01*
X777494Y228082D01*
X790702D01*
X792238Y228387D01*
X793540Y229258D01*
X794411Y230560D01*
X794716Y232096D01*
Y240945D01*
X797299Y243528D01*
X798346D01*
X800184Y241832D01*
Y235312D01*
X815764D01*
Y241832D01*
X815256D01*
Y248902D01*
X825311Y258957D01*
X832485D01*
Y256159D01*
X837822D01*
Y164802D01*
X828846Y155826D01*
X809771D01*
X808801Y157056D01*
X810008Y159596D01*
X811930D01*
Y167386D01*
Y175176D01*
X805410D01*
Y174668D01*
X792418D01*
Y170397D01*
X785334D01*
X783040Y170990D01*
Y175260D01*
X774500D01*
X765960D01*
Y170990D01*
X766468D01*
Y161998D01*
X782532D01*
Y163663D01*
X792418D01*
Y160104D01*
X798687D01*
Y155975D01*
X799006Y154373D01*
X799914Y153014D01*
X804251Y148677D01*
X804251Y148677D01*
X805610Y147769D01*
X807212Y147451D01*
X830580D01*
X832182Y147769D01*
X833541Y148677D01*
X844971Y160107D01*
X845879Y161465D01*
X846198Y163068D01*
Y256159D01*
X851535D01*
Y270129D01*
D02*
G37*
G36*
X128651Y269621D02*
X122555D01*
Y263652D01*
X128651D01*
Y269621D01*
D02*
G37*
G36*
X360088Y268586D02*
X353568D01*
Y262066D01*
X360088D01*
Y268586D01*
D02*
G37*
G36*
X351028D02*
X344508D01*
Y262066D01*
X351028D01*
Y268586D01*
D02*
G37*
G36*
X942002Y268370D02*
X934212D01*
X926422D01*
Y261850D01*
X926930D01*
Y259145D01*
X922061D01*
X921729Y259367D01*
X920242Y259663D01*
X918755Y259367D01*
X917495Y258525D01*
X916653Y257265D01*
X916357Y255778D01*
X916653Y254291D01*
X917495Y253031D01*
X918755Y252189D01*
X920242Y251893D01*
X921729Y252189D01*
X922061Y252411D01*
X926930D01*
Y248858D01*
X941494D01*
Y252103D01*
X944064D01*
Y248704D01*
X954128D01*
Y254904D01*
X954241Y255470D01*
X954128Y256036D01*
Y264268D01*
X944064D01*
X942002Y265422D01*
Y268370D01*
D02*
G37*
G36*
X137287Y269621D02*
X135719Y269621D01*
X131191D01*
Y262382D01*
Y255143D01*
X135719D01*
X137287Y255143D01*
X139616Y255651D01*
X151765D01*
Y259523D01*
X156423D01*
X156755Y259301D01*
X158242Y259005D01*
X159729Y259301D01*
X160989Y260143D01*
X161831Y261403D01*
X162127Y262890D01*
X161831Y264377D01*
X160989Y265637D01*
X159729Y266479D01*
X158242Y266775D01*
X156755Y266479D01*
X156423Y266257D01*
X151765D01*
Y269113D01*
X139616D01*
X137287Y269621D01*
D02*
G37*
G36*
X128651Y261112D02*
X122555D01*
Y255143D01*
X128651D01*
Y261112D01*
D02*
G37*
G36*
X758294Y264976D02*
X742230D01*
Y254912D01*
X758294D01*
Y264976D01*
D02*
G37*
G36*
X20066Y264122D02*
X17578Y263795D01*
X15259Y262834D01*
X13268Y261306D01*
X11740Y259315D01*
X10779Y256996D01*
X10452Y254508D01*
X10779Y252020D01*
X11740Y249701D01*
X13268Y247710D01*
X15259Y246182D01*
X17578Y245221D01*
X20066Y244894D01*
X22554Y245221D01*
X24873Y246182D01*
X26864Y247710D01*
X28392Y249701D01*
X29353Y252020D01*
X29680Y254508D01*
X29353Y256996D01*
X28392Y259315D01*
X26864Y261306D01*
X24873Y262834D01*
X22554Y263795D01*
X20066Y264122D01*
D02*
G37*
G36*
X222166Y249744D02*
X215646D01*
Y243224D01*
X222166D01*
Y249744D01*
D02*
G37*
G36*
X213106D02*
X206586D01*
Y243224D01*
X213106D01*
Y249744D01*
D02*
G37*
G36*
X713340Y248836D02*
X706820D01*
Y242316D01*
X713340D01*
Y248836D01*
D02*
G37*
G36*
X727456Y259922D02*
X725870Y259606D01*
X724526Y258708D01*
X723628Y257364D01*
X723312Y255778D01*
X723442Y255127D01*
Y250944D01*
X722400Y248836D01*
X715880D01*
Y241046D01*
Y233256D01*
X722400D01*
Y233764D01*
X735392D01*
Y236930D01*
X742230D01*
Y235912D01*
X758294D01*
Y245976D01*
X742230D01*
Y244958D01*
X735392D01*
Y248328D01*
X731470D01*
Y255127D01*
X731600Y255778D01*
X731284Y257364D01*
X730386Y258708D01*
X729042Y259606D01*
X727456Y259922D01*
D02*
G37*
G36*
X713340Y239776D02*
X706820D01*
Y233256D01*
X713340D01*
Y239776D01*
D02*
G37*
G36*
X244010Y235774D02*
X237490D01*
Y229254D01*
X244010D01*
Y235774D01*
D02*
G37*
G36*
X234950D02*
X228430D01*
Y229254D01*
X234950D01*
Y235774D01*
D02*
G37*
G36*
X815764Y232772D02*
X809244D01*
Y226252D01*
X815764D01*
Y232772D01*
D02*
G37*
G36*
X806704D02*
X800184D01*
Y226252D01*
X806704D01*
Y232772D01*
D02*
G37*
G36*
X125646Y231710D02*
X119126D01*
Y225190D01*
X125646D01*
Y231710D01*
D02*
G37*
G36*
X116586D02*
X110066D01*
Y225190D01*
X116586D01*
Y231710D01*
D02*
G37*
G36*
X20066Y238722D02*
X17578Y238395D01*
X15259Y237434D01*
X13268Y235906D01*
X11740Y233915D01*
X10779Y231596D01*
X10452Y229108D01*
X10779Y226620D01*
X11740Y224301D01*
X13268Y222310D01*
X15259Y220782D01*
X17578Y219821D01*
X20066Y219494D01*
X22554Y219821D01*
X24873Y220782D01*
X26864Y222310D01*
X28392Y224301D01*
X29353Y226620D01*
X29680Y229108D01*
X29353Y231596D01*
X28392Y233915D01*
X26864Y235906D01*
X24873Y237434D01*
X22554Y238395D01*
X20066Y238722D01*
D02*
G37*
G36*
X165193Y216314D02*
X156548D01*
Y212794D01*
X165193D01*
Y216314D01*
D02*
G37*
G36*
X780478Y216534D02*
X768414D01*
Y204914D01*
X780478D01*
Y207357D01*
X786556D01*
X787400Y207189D01*
X788887Y207485D01*
X790147Y208327D01*
X790989Y209587D01*
X791285Y211074D01*
X790989Y212561D01*
X790147Y213821D01*
X788887Y214663D01*
X787400Y214959D01*
X785913Y214663D01*
X785057Y214091D01*
X780478D01*
Y216534D01*
D02*
G37*
G36*
X341248Y209740D02*
X336200D01*
Y204470D01*
X341248D01*
Y209740D01*
D02*
G37*
G36*
X333660D02*
X328612D01*
Y204470D01*
X333660D01*
Y209740D01*
D02*
G37*
G36*
X469138Y207645D02*
X462788D01*
Y201930D01*
X469138D01*
Y207645D01*
D02*
G37*
G36*
Y199390D02*
X462788D01*
Y193675D01*
X469138D01*
Y199390D01*
D02*
G37*
G36*
X819784Y192722D02*
X814736D01*
Y187452D01*
X819784D01*
Y192722D01*
D02*
G37*
G36*
X812196D02*
X807148D01*
Y187452D01*
X812196D01*
Y192722D01*
D02*
G37*
G36*
X757532Y191062D02*
X741468D01*
Y180998D01*
X757532D01*
Y191062D01*
D02*
G37*
G36*
X478028Y207645D02*
X471678D01*
Y200660D01*
Y193675D01*
X478028D01*
Y194183D01*
X481169D01*
Y190940D01*
X477972D01*
Y182623D01*
X475432Y180744D01*
X475036Y180865D01*
Y190940D01*
X464972D01*
Y188533D01*
X448605D01*
X448273Y188755D01*
X446786Y189051D01*
X445299Y188755D01*
X444039Y187913D01*
X443197Y186653D01*
X442901Y185166D01*
X443197Y183679D01*
X444039Y182419D01*
X445299Y181577D01*
X446786Y181281D01*
X448273Y181577D01*
X448605Y181799D01*
X464972D01*
Y178689D01*
X462915D01*
Y165227D01*
X475361D01*
X478640D01*
X480436Y163431D01*
Y146802D01*
X470476D01*
Y147310D01*
X465706D01*
Y137270D01*
Y127230D01*
X470274D01*
Y120940D01*
X470591Y119347D01*
X471493Y117997D01*
X471529Y117961D01*
X472879Y117059D01*
X474472Y116742D01*
X476065Y117059D01*
X477415Y117961D01*
X478317Y119311D01*
X478634Y120904D01*
X478598Y121085D01*
Y127738D01*
X498396D01*
Y127230D01*
X503166D01*
Y137270D01*
Y147310D01*
X498396D01*
Y146802D01*
X488759D01*
Y165227D01*
X491617D01*
Y178689D01*
X488036D01*
Y190940D01*
X487903D01*
Y194183D01*
X491744D01*
Y207137D01*
X478028D01*
Y207645D01*
D02*
G37*
G36*
X780478Y200978D02*
X768414D01*
Y191062D01*
X766468D01*
Y182070D01*
X765960D01*
Y177800D01*
X774500D01*
X783040D01*
Y182070D01*
X785334Y182663D01*
X792100D01*
Y180150D01*
X803720D01*
Y192214D01*
X792100D01*
Y189397D01*
X782532D01*
Y191062D01*
X780478D01*
Y200978D01*
D02*
G37*
G36*
X819784Y184912D02*
X814736D01*
Y179642D01*
X819784D01*
Y184912D01*
D02*
G37*
G36*
X812196D02*
X807148D01*
Y179642D01*
X812196D01*
Y184912D01*
D02*
G37*
G36*
X124884Y180702D02*
X118364D01*
Y174182D01*
X124884D01*
Y180702D01*
D02*
G37*
G36*
X115824D02*
X109304D01*
Y174182D01*
X115824D01*
Y180702D01*
D02*
G37*
G36*
X125646Y222650D02*
X110066D01*
Y218613D01*
X110066Y216130D01*
X107543Y216090D01*
X98488D01*
Y204026D01*
X98692D01*
X98996Y201612D01*
X98996D01*
Y189548D01*
X109304D01*
Y183242D01*
X124884D01*
Y189762D01*
X124376D01*
Y192829D01*
X129624D01*
Y188914D01*
X144188D01*
X145871Y187071D01*
Y174742D01*
Y168242D01*
X164685D01*
Y169453D01*
X174561D01*
X175043Y169131D01*
X176530Y168835D01*
X178017Y169131D01*
X179277Y169973D01*
X180119Y171233D01*
X180415Y172720D01*
X180119Y174207D01*
X180058Y174298D01*
X179487Y176149D01*
X180058Y178000D01*
X180119Y178091D01*
X180415Y179578D01*
X180119Y181065D01*
X179277Y182325D01*
X178017Y183167D01*
X176530Y183463D01*
X175043Y183167D01*
X173882Y182391D01*
X164685D01*
Y194242D01*
Y206734D01*
X165193D01*
Y210254D01*
X155278D01*
Y211524D01*
X154008D01*
Y216314D01*
X145363D01*
X144188Y216978D01*
Y216978D01*
X129624D01*
Y213063D01*
X125138D01*
Y216130D01*
X125646D01*
Y222650D01*
D02*
G37*
G36*
X29598Y187840D02*
X10534D01*
Y168776D01*
X29598D01*
Y187840D01*
D02*
G37*
G36*
X820990Y175176D02*
X814470D01*
Y168656D01*
X820990D01*
Y175176D01*
D02*
G37*
G36*
X713340D02*
X706820D01*
Y168656D01*
X713340D01*
Y175176D01*
D02*
G37*
G36*
X222166Y240684D02*
X214376D01*
X206586D01*
Y234164D01*
X207094D01*
Y225933D01*
X196408Y215248D01*
X195679Y214155D01*
X195422Y212867D01*
Y160269D01*
X195679Y158981D01*
X196408Y157889D01*
X206628Y147669D01*
X207720Y146940D01*
X209008Y146683D01*
X219744D01*
X221032Y146940D01*
X222124Y147669D01*
X230793Y156338D01*
X241490D01*
Y167958D01*
X229426D01*
Y164494D01*
X218349Y153417D01*
X210403D01*
X202156Y161664D01*
Y168086D01*
X204631Y168242D01*
Y168242D01*
X223445D01*
Y175553D01*
X229426D01*
Y171894D01*
X241490D01*
Y175274D01*
X313564D01*
Y168212D01*
X325184D01*
Y180150D01*
X325184Y180276D01*
X325184D01*
Y182690D01*
X325184D01*
Y194754D01*
X325184D01*
Y197168D01*
X325184D01*
Y209232D01*
X313564D01*
Y208196D01*
X312195Y207071D01*
X311024Y206817D01*
X300977Y216865D01*
X299884Y217594D01*
X298596Y217851D01*
X244485D01*
X244010Y220194D01*
X244010D01*
Y226714D01*
X228430D01*
Y220194D01*
X228938D01*
Y211963D01*
X225985Y209010D01*
X225107Y209112D01*
X223445Y209886D01*
Y215806D01*
X217405D01*
Y221172D01*
X221658D01*
Y234164D01*
X222166D01*
Y240684D01*
D02*
G37*
G36*
X722400Y175176D02*
X715880D01*
Y167386D01*
X714610D01*
Y166116D01*
X706820D01*
Y159596D01*
X713888D01*
X714860Y157249D01*
X687834Y130223D01*
X586309D01*
X584717Y129906D01*
X583367Y129004D01*
X562715Y108353D01*
X561813Y107003D01*
X561496Y105410D01*
Y74422D01*
X561813Y72829D01*
X562715Y71479D01*
X565757Y68438D01*
X567107Y67535D01*
X568700Y67218D01*
X571584D01*
Y60898D01*
X577905D01*
Y57814D01*
X578221Y56222D01*
X579123Y54872D01*
X580780Y53215D01*
Y44636D01*
X601844D01*
Y52323D01*
X601909Y52648D01*
Y54503D01*
X609763Y62357D01*
X610492Y63450D01*
X610634Y64160D01*
X616644D01*
Y66669D01*
X618422D01*
X619710Y66926D01*
X620803Y67655D01*
X624664Y71517D01*
X625057Y71595D01*
X626317Y72437D01*
X627159Y73697D01*
X627455Y75184D01*
X627159Y76671D01*
X626317Y77931D01*
X625057Y78773D01*
X623570Y79069D01*
X622083Y78773D01*
X620823Y77931D01*
X620706Y77755D01*
X619692Y77442D01*
X617152Y79316D01*
Y80922D01*
X610362D01*
X603572D01*
Y76652D01*
X603810D01*
X604080Y74224D01*
X604080Y74112D01*
Y67787D01*
X604015Y67462D01*
Y66132D01*
X597866Y59983D01*
X595326Y61035D01*
Y61214D01*
X595021Y62750D01*
X594150Y64052D01*
X592848Y64923D01*
X591312Y65228D01*
X589776Y64923D01*
X588768Y64249D01*
X587134Y64678D01*
X586185Y65198D01*
X586148Y65382D01*
Y73890D01*
X586656D01*
Y80410D01*
X578866D01*
Y81680D01*
X577596D01*
Y89470D01*
X571076D01*
X569820Y91490D01*
Y103686D01*
X588033Y121900D01*
X676192D01*
X677164Y119553D01*
X643137Y85526D01*
X640522D01*
X640120Y85446D01*
X633290D01*
Y75382D01*
X645854D01*
Y77400D01*
X646453Y77519D01*
X647803Y78422D01*
X692501Y123118D01*
X692501Y123118D01*
X727852Y158470D01*
X728755Y159821D01*
X728811Y160104D01*
X735392D01*
Y163046D01*
X741468D01*
Y161998D01*
X757532D01*
Y172062D01*
X741468D01*
Y171370D01*
X735392D01*
Y174668D01*
X722400D01*
Y175176D01*
D02*
G37*
G36*
X820990Y166116D02*
X814470D01*
Y159596D01*
X820990D01*
Y166116D01*
D02*
G37*
G36*
X510476Y147310D02*
X505706D01*
Y138540D01*
X510476D01*
Y147310D01*
D02*
G37*
G36*
X463166D02*
X458396D01*
Y138540D01*
X463166D01*
Y147310D01*
D02*
G37*
G36*
X397110Y140886D02*
X390590D01*
Y134366D01*
X397110D01*
Y140886D01*
D02*
G37*
G36*
X510476Y136000D02*
X505706D01*
Y127230D01*
X510476D01*
Y136000D01*
D02*
G37*
G36*
X463166D02*
X458396D01*
Y127230D01*
X463166D01*
Y136000D01*
D02*
G37*
G36*
X397110Y131826D02*
X390590D01*
Y125306D01*
X397110D01*
Y131826D01*
D02*
G37*
G36*
X450476Y102000D02*
X430396D01*
Y97230D01*
Y94540D01*
X450476D01*
Y97230D01*
Y102000D01*
D02*
G37*
G36*
X617152Y87732D02*
X611632D01*
Y83462D01*
X617152D01*
Y87732D01*
D02*
G37*
G36*
X609092D02*
X603572D01*
Y83462D01*
X609092D01*
Y87732D01*
D02*
G37*
G36*
X580136Y89470D02*
Y82950D01*
X586656D01*
Y89470D01*
X580136D01*
D02*
G37*
G36*
X397110Y86784D02*
X390590D01*
Y80264D01*
X397110D01*
Y86784D01*
D02*
G37*
G36*
X669182Y75608D02*
X662662D01*
Y75100D01*
X649670D01*
Y71778D01*
X645854D01*
Y72446D01*
X633290D01*
Y68766D01*
X627888Y63364D01*
X622510D01*
Y52400D01*
Y42300D01*
X623799D01*
Y39286D01*
X606998D01*
Y36623D01*
X601844D01*
Y40200D01*
X595852D01*
Y40708D01*
X592582D01*
Y32918D01*
Y25128D01*
X595852D01*
Y25636D01*
X601844D01*
Y28299D01*
X606998D01*
Y24722D01*
X635062D01*
Y27207D01*
X642694D01*
Y23702D01*
X651686D01*
Y17254D01*
X663956D01*
Y23774D01*
X657258D01*
Y37694D01*
X663956D01*
Y44214D01*
X651686D01*
Y37766D01*
X642694D01*
Y35531D01*
X635062D01*
Y39286D01*
X632123D01*
Y42300D01*
X633774D01*
Y52400D01*
Y57478D01*
X638598Y62302D01*
X638622D01*
X639024Y62382D01*
X645854D01*
Y63454D01*
X649670D01*
Y60536D01*
X662662D01*
Y60028D01*
X669182D01*
Y67818D01*
Y75608D01*
D02*
G37*
G36*
X397110Y77724D02*
X390590D01*
Y71204D01*
X397110D01*
Y77724D01*
D02*
G37*
G36*
X678242Y75608D02*
X671722D01*
Y69088D01*
X678242D01*
Y75608D01*
D02*
G37*
G36*
X397110Y68242D02*
X390590D01*
Y61722D01*
X397110D01*
Y68242D01*
D02*
G37*
G36*
X678242Y66548D02*
X671722D01*
Y60028D01*
X678242D01*
Y66548D01*
D02*
G37*
G36*
X397110Y59182D02*
X390590D01*
Y52662D01*
X397110D01*
Y59182D01*
D02*
G37*
G36*
X678765Y53274D02*
X666496D01*
Y46754D01*
X678765D01*
Y53274D01*
D02*
G37*
G36*
X663956D02*
X651686D01*
Y46754D01*
X663956D01*
Y53274D01*
D02*
G37*
G36*
X678765Y44214D02*
X666496D01*
Y37694D01*
X678765D01*
Y44214D01*
D02*
G37*
G36*
X809244Y57996D02*
X805858Y57662D01*
X802602Y56674D01*
X799602Y55071D01*
X796972Y52912D01*
X794813Y50282D01*
X793210Y47282D01*
X792222Y44026D01*
X791888Y40640D01*
X792222Y37254D01*
X793210Y33998D01*
X794813Y30998D01*
X796972Y28368D01*
X799602Y26209D01*
X802602Y24606D01*
X805858Y23618D01*
X809244Y23284D01*
X812630Y23618D01*
X815886Y24606D01*
X818886Y26209D01*
X821516Y28368D01*
X823675Y30998D01*
X825278Y33998D01*
X826266Y37254D01*
X826600Y40640D01*
X826266Y44026D01*
X825278Y47282D01*
X823675Y50282D01*
X821516Y52912D01*
X818886Y55071D01*
X815886Y56674D01*
X812630Y57662D01*
X809244Y57996D01*
D02*
G37*
G36*
X167386D02*
X164000Y57662D01*
X160744Y56674D01*
X157744Y55071D01*
X155114Y52912D01*
X152955Y50282D01*
X151351Y47282D01*
X150364Y44026D01*
X150030Y40640D01*
X150364Y37254D01*
X151351Y33998D01*
X152955Y30998D01*
X155114Y28368D01*
X157744Y26209D01*
X160744Y24606D01*
X164000Y23618D01*
X167386Y23284D01*
X170772Y23618D01*
X174028Y24606D01*
X177028Y26209D01*
X179658Y28368D01*
X181817Y30998D01*
X183421Y33998D01*
X184408Y37254D01*
X184742Y40640D01*
X184408Y44026D01*
X183421Y47282D01*
X181817Y50282D01*
X179658Y52912D01*
X177028Y55071D01*
X174028Y56674D01*
X170772Y57662D01*
X167386Y57996D01*
D02*
G37*
G36*
X678765Y23774D02*
X666496D01*
Y17254D01*
X678765D01*
Y23774D01*
D02*
G37*
G36*
Y14714D02*
X666496D01*
Y8194D01*
X678765D01*
Y14714D01*
D02*
G37*
G36*
X663956D02*
X651686D01*
Y8194D01*
X663956D01*
Y14714D01*
D02*
G37*
%LPD*%
G36*
X859979Y515242D02*
Y496147D01*
X859864Y496124D01*
X859023Y495563D01*
X858462Y494722D01*
X858264Y493730D01*
X855728D01*
X855530Y494722D01*
X854969Y495563D01*
X854128Y496124D01*
X853136Y496322D01*
X848156D01*
X847164Y496124D01*
X846323Y495563D01*
X845761Y494722D01*
X845564Y493730D01*
X843028D01*
X842831Y494722D01*
X842269Y495563D01*
X841428Y496124D01*
X841313Y496147D01*
Y503112D01*
X844974D01*
Y516612D01*
Y526928D01*
X847321Y527900D01*
X859979Y515242D01*
D02*
G37*
G36*
X858462Y479258D02*
X859023Y478417D01*
X859864Y477855D01*
X860856Y477658D01*
X865836D01*
X866828Y477855D01*
X867383Y478227D01*
X869002Y476254D01*
X856393Y463645D01*
X855664Y462552D01*
X855407Y461264D01*
Y448689D01*
X848541Y441822D01*
X848156D01*
X847164Y441624D01*
X846323Y441063D01*
X845761Y440222D01*
X845564Y439230D01*
X843028D01*
X842831Y440222D01*
X842269Y441063D01*
X841428Y441624D01*
X840436Y441822D01*
X835456D01*
X834464Y441624D01*
X833623Y441063D01*
X833062Y440222D01*
X832891Y439366D01*
X832484Y439097D01*
X830324Y438341D01*
X821857Y446809D01*
Y459876D01*
X825772D01*
Y467041D01*
X838314D01*
X839602Y467298D01*
X840695Y468027D01*
X850325Y477658D01*
X853136D01*
X854128Y477855D01*
X854969Y478417D01*
X855530Y479258D01*
X855728Y480250D01*
X858264D01*
X858462Y479258D01*
D02*
G37*
G36*
X895256Y460357D02*
X897212Y459672D01*
Y446724D01*
X901127D01*
Y440267D01*
X901012Y440244D01*
X900171Y439683D01*
X899610Y438842D01*
X899412Y437850D01*
Y424370D01*
X899610Y423378D01*
X900171Y422537D01*
X900277Y422467D01*
X899507Y419927D01*
X854013D01*
Y423333D01*
X854128Y423355D01*
X854969Y423917D01*
X855530Y424758D01*
X855728Y425750D01*
X858264D01*
X858462Y424758D01*
X859023Y423917D01*
X859864Y423355D01*
X860856Y423158D01*
X865836D01*
X866828Y423355D01*
X867669Y423917D01*
X868231Y424758D01*
X868428Y425750D01*
X870964D01*
X871161Y424758D01*
X871723Y423917D01*
X872564Y423355D01*
X873556Y423158D01*
X878536D01*
X879528Y423355D01*
X880369Y423917D01*
X880930Y424758D01*
X881128Y425750D01*
Y439230D01*
X880930Y440222D01*
X880369Y441063D01*
X879528Y441624D01*
X879413Y441647D01*
Y445137D01*
X894672Y460397D01*
X895256Y460357D01*
D02*
G37*
G36*
X399673Y465566D02*
X400152Y463993D01*
X399766Y463415D01*
X399531Y462232D01*
Y456232D01*
X399766Y455049D01*
X399777Y455033D01*
X399555Y454201D01*
X398416Y452573D01*
X393122D01*
X391939Y452338D01*
X391273Y451893D01*
X383764D01*
X382995Y452407D01*
X381508Y452703D01*
X380021Y452407D01*
X378761Y451565D01*
X377919Y450305D01*
X377623Y448818D01*
X377919Y447331D01*
X378761Y446071D01*
X379191Y445784D01*
X379237Y445659D01*
Y443087D01*
X379191Y442962D01*
X378761Y442675D01*
X377919Y441415D01*
X377623Y439928D01*
X377919Y438441D01*
X378099Y438173D01*
X376980Y435549D01*
X376635Y435480D01*
X375374Y434638D01*
X374532Y433378D01*
X374386Y432642D01*
X374047Y432304D01*
X373318Y431211D01*
X373127Y430252D01*
X372105Y429468D01*
X370521Y428714D01*
X369512Y428914D01*
X368026Y428619D01*
X366765Y427777D01*
X365923Y426516D01*
X365646Y425121D01*
X365248Y424526D01*
X365007Y423314D01*
Y387984D01*
X359220D01*
Y376364D01*
X371284D01*
Y376618D01*
X380935D01*
Y372682D01*
X370650D01*
Y372428D01*
X359220D01*
Y360808D01*
X366013D01*
Y343959D01*
X366203Y343004D01*
Y338366D01*
X364490Y336117D01*
X363003Y335821D01*
X362671Y335599D01*
X361529D01*
X360088Y337542D01*
Y344062D01*
X344508D01*
Y337542D01*
X345016D01*
Y327250D01*
X341695Y323929D01*
X339155Y324981D01*
Y335239D01*
X339377Y335571D01*
X339673Y337058D01*
X339377Y338545D01*
X339155Y338877D01*
Y383990D01*
X341695Y384240D01*
X341851Y383454D01*
X342693Y382193D01*
X343953Y381351D01*
X345440Y381056D01*
X346927Y381351D01*
X348187Y382193D01*
X349029Y383454D01*
X349325Y384940D01*
X349029Y386427D01*
X348807Y386759D01*
Y418975D01*
X358997Y429165D01*
X359726Y430258D01*
X359983Y431546D01*
Y431927D01*
X362839D01*
Y444373D01*
X362839Y446278D01*
X362839Y448183D01*
Y460629D01*
X359475D01*
Y465457D01*
X360550Y466533D01*
X399030D01*
X399673Y465566D01*
D02*
G37*
%LPC*%
G36*
X360088Y353122D02*
X353568D01*
Y346602D01*
X360088D01*
Y353122D01*
D02*
G37*
G36*
X351028D02*
X344508D01*
Y346602D01*
X351028D01*
Y353122D01*
D02*
G37*
%LPD*%
G36*
X306652Y201667D02*
X306814Y200852D01*
X307712Y199508D01*
X309056Y198610D01*
X310642Y198294D01*
X311024Y198370D01*
X313564Y197168D01*
Y194754D01*
D01*
X313206Y192362D01*
X311024Y190808D01*
X310896Y190834D01*
X309310Y190518D01*
X307966Y189620D01*
X307068Y188276D01*
X306752Y186690D01*
X307068Y185104D01*
X307440Y184548D01*
X306406Y182104D01*
X306315Y182008D01*
X260313D01*
X258380Y183472D01*
Y189992D01*
X250590D01*
Y191262D01*
X249320D01*
Y199052D01*
X242800D01*
Y198544D01*
X239587D01*
Y207202D01*
X243502D01*
Y211117D01*
X297201D01*
X306652Y201667D01*
D02*
G37*
%LPC*%
G36*
X258380Y199052D02*
X251860D01*
Y192532D01*
X258380D01*
Y199052D01*
D02*
G37*
%LPD*%
D15*
X310896Y186690D02*
X317342D01*
X192278Y309372D02*
X266769Y234881D01*
X363940Y239453D02*
X382813Y258326D01*
X268663Y239453D02*
X363940D01*
X266769Y234881D02*
X365834D01*
X387385Y256432D01*
X192278Y309372D02*
Y368554D01*
X196850Y311266D02*
X268663Y239453D01*
X198789Y160269D02*
Y212867D01*
Y160269D02*
X209008Y150050D01*
X214038Y228116D02*
X214376Y228454D01*
X198789Y212867D02*
X214038Y228116D01*
X209008Y150050D02*
X219744D01*
X20066Y203708D02*
X68074Y251716D01*
X92456D02*
X94606D01*
X68074D02*
X92456D01*
X334422Y186436D02*
X334676Y186690D01*
X342328Y182118D02*
X404451D01*
X402558Y186690D02*
X519092Y303224D01*
X404451Y182118D02*
X523664Y301331D01*
X334676Y174466D02*
X342328Y182118D01*
X334676Y186690D02*
X402558D01*
X412496Y129648D02*
X416031Y133183D01*
X411880Y61210D02*
X412638Y60452D01*
X738632Y464489D02*
X752640Y478498D01*
X738314Y420750D02*
Y421920D01*
X738632Y422238D01*
X735806Y418242D02*
X738314Y420750D01*
X738632Y422238D02*
Y464489D01*
X335632Y285206D02*
X347128Y296702D01*
X298994Y285206D02*
X335632D01*
X411880Y61210D02*
Y78994D01*
X412496Y79610D01*
Y95504D01*
Y129648D01*
X416031Y133183D02*
X440349D01*
X145415Y262890D02*
X158242D01*
X546735Y409448D02*
X549556Y406627D01*
X553747D02*
X557276Y403098D01*
Y256286D02*
Y403098D01*
X549556Y406627D02*
X553747D01*
X356362Y328769D02*
Y331832D01*
Y328769D02*
X357592Y327539D01*
Y317236D02*
Y327539D01*
X357258Y316252D02*
Y316902D01*
X357592Y317236D01*
X352128Y327598D02*
X356362Y331832D01*
X214165Y192151D02*
X236201D01*
X237090Y191262D01*
X231823Y178641D02*
X235458D01*
X316644Y176974D02*
X316866D01*
X319374Y174244D02*
Y174466D01*
X316866Y176974D02*
X319374Y174466D01*
X235458Y178641D02*
X314977D01*
X316644Y176974D01*
X319374Y188722D02*
Y203200D01*
X317342Y186690D02*
X319374Y188722D01*
X236220Y214484D02*
X298596D01*
X214090Y185472D02*
X227532D01*
X214038Y185524D02*
X214090Y185472D01*
X227532D02*
X227584Y185420D01*
X236220Y193656D02*
X236328Y193548D01*
X236220Y193656D02*
Y214484D01*
X298596D02*
X310642Y202438D01*
X214038Y205024D02*
X226760D01*
X236220Y214484D01*
X133447Y381508D02*
X147756D01*
X160560Y383774D02*
Y384952D01*
X133447Y376936D02*
X146740D01*
X160560Y383774D02*
X164560D01*
X146740Y376936D02*
X150454Y373222D01*
X164560Y383774D02*
X167940D01*
X150454Y373222D02*
X160290D01*
X160560Y374670D02*
X164560D01*
X160290Y373222D02*
X160560Y373492D01*
X164560Y374670D02*
X167940D01*
X160560Y373492D02*
Y374670D01*
X151470Y385222D02*
X160290D01*
X160560Y384952D01*
X147756Y381508D02*
X151470Y385222D01*
X185790Y381508D02*
X196850Y370448D01*
X167940Y383774D02*
X170206Y381508D01*
X183896Y376936D02*
X192278Y368554D01*
X170206Y381508D02*
X185790D01*
X167940Y374670D02*
X170206Y376936D01*
X183896D01*
X131459Y381997D02*
X132958D01*
X404122Y340927D02*
Y346232D01*
X382778Y319583D02*
X404122Y340927D01*
X196850Y311266D02*
Y370448D01*
X382778Y260466D02*
Y319583D01*
X382813Y258326D02*
Y260430D01*
X382778Y260466D02*
X382813Y260430D01*
X387385Y258536D02*
X387421Y258572D01*
X387385Y256432D02*
Y258536D01*
X132958Y381997D02*
X133447Y381508D01*
X132958Y376447D02*
X133447Y376936D01*
X131459Y376447D02*
X132958D01*
X130854Y382602D02*
X131459Y381997D01*
X130854Y375842D02*
X131459Y376447D01*
X361324Y305732D02*
X374142Y318550D01*
X369570Y320444D02*
Y343769D01*
X359858Y310732D02*
X369570Y320444D01*
X374142Y318550D02*
Y364364D01*
X358038Y310732D02*
X359858D01*
X354608Y283356D02*
X355770Y282194D01*
X352298Y283356D02*
X354608D01*
X407162Y322834D02*
X407233Y322905D01*
X418267D01*
X352258Y283396D02*
Y299952D01*
X338358Y305732D02*
X341478D01*
X335788Y308302D02*
X338358Y305732D01*
X335788Y308302D02*
Y440563D01*
X335240Y299934D02*
X335249Y299943D01*
X352258Y283396D02*
X352298Y283356D01*
X347128Y296702D02*
Y299822D01*
X345131Y310558D02*
X352214Y303475D01*
X418267Y322905D02*
X418338Y322976D01*
X430780D01*
X358038Y305732D02*
X361324D01*
X345440Y384940D02*
Y420370D01*
X378121Y431891D02*
X378167Y431936D01*
X376428Y397529D02*
Y429923D01*
X382270Y407670D02*
X382426Y407826D01*
X376428Y429923D02*
X378121Y431616D01*
X382426Y407826D02*
X395966D01*
X376428Y397529D02*
X376682Y397275D01*
X378121Y431616D02*
Y431891D01*
X774500Y167030D02*
X800056D01*
X378167Y431936D02*
X396077D01*
X396023Y424081D02*
X396122Y423982D01*
X381607Y424081D02*
X396023D01*
X381508Y424180D02*
X381607Y424081D01*
X396077Y431936D02*
X396122Y431982D01*
X472186Y292354D02*
Y314744D01*
X467422Y319508D02*
X472186Y314744D01*
X510794Y323596D02*
Y333502D01*
X542506Y333545D02*
Y343108D01*
X542497D02*
X542506D01*
X544227Y344838D02*
X544255D01*
X542497Y343108D02*
X544227Y344838D01*
X170066Y430416D02*
Y444184D01*
X169926Y430276D02*
X170066Y430416D01*
X144907Y262382D02*
X145415Y262890D01*
X175701Y179024D02*
X176255Y179578D01*
X176530D01*
X155278Y179024D02*
X175701D01*
X114919Y376692D02*
X122148D01*
X122393Y376447D01*
X104934Y366707D02*
X114919Y376692D01*
X104934Y332148D02*
Y366707D01*
X92826Y320040D02*
X104934Y332148D01*
X86635Y320040D02*
X92826D01*
X85619Y319024D02*
X86635Y320040D01*
X85344Y319024D02*
X85619D01*
X120499Y381997D02*
X121104Y382602D01*
X119999Y381997D02*
X120499D01*
X119265Y381264D02*
X119999Y381997D01*
X100362Y368601D02*
X113025Y381264D01*
X119265D01*
X100362Y334042D02*
Y368601D01*
X90932Y324612D02*
X100362Y334042D01*
X86635Y324612D02*
X90932D01*
X85344Y325628D02*
X85619D01*
X86635Y324612D01*
X75334Y231414D02*
X81662Y225086D01*
Y203390D02*
X89250Y195802D01*
X81662Y203390D02*
Y225086D01*
X915464Y370380D02*
Y374880D01*
X917194Y376610D01*
X895406Y362390D02*
X907474D01*
X915464Y370380D01*
X854560Y401368D02*
X866704D01*
X843575Y390383D02*
X854560Y401368D01*
X866704D02*
X867006Y401066D01*
X837418Y384198D02*
X851666D01*
X836168D02*
X837418D01*
X852932Y384556D02*
X868068D01*
X837418Y384198D02*
X843575Y390355D01*
Y390383D01*
X880006Y401066D02*
X916800D01*
X942594Y426860D01*
Y428985D01*
X868068Y384556D02*
X884368D01*
X885444Y383480D01*
X597812Y51918D02*
X598542Y52648D01*
X607382Y67462D02*
X609112Y69192D01*
X610362D01*
X598542Y52648D02*
Y55898D01*
X607382Y64738D02*
Y67462D01*
X598542Y55898D02*
X607382Y64738D01*
X425819Y66583D02*
X429132Y63270D01*
X411880Y78994D02*
X424291Y66583D01*
X425819D01*
X429132Y63270D02*
X440436D01*
X429011Y54720D02*
X438986D01*
X412638Y60452D02*
X423279D01*
X429011Y54720D01*
X438986D02*
X440436Y53270D01*
X440349Y133183D02*
X440436Y133270D01*
X517634Y148826D02*
Y204198D01*
Y128402D02*
Y148826D01*
Y128402D02*
X520536Y125500D01*
X526206D02*
X528436Y123270D01*
X520536Y125500D02*
X526206D01*
X517634Y204198D02*
X518414Y204978D01*
X531114Y135500D02*
Y146136D01*
X528884Y133270D02*
X531114Y135500D01*
X522986Y154264D02*
X531114Y146136D01*
X528436Y133270D02*
X528884D01*
X786775Y210724D02*
X787125Y211074D01*
X787400D01*
X774446Y210724D02*
X786775D01*
X774446Y195168D02*
X774500Y195114D01*
Y186030D02*
Y195114D01*
Y186030D02*
X797758D01*
X797910Y186182D01*
X365252Y366618D02*
X369380Y362490D01*
X376682Y382428D02*
Y397275D01*
X376650Y366872D02*
X376682D01*
X374142Y364364D02*
X376650Y366872D01*
X357908Y305602D02*
X358038Y305732D01*
X369380Y343959D02*
Y362490D01*
Y343959D02*
X369570Y343769D01*
X357908Y310602D02*
X358038Y310732D01*
X356762Y332232D02*
X364490D01*
X509924Y309226D02*
X510540Y309842D01*
X496570Y309226D02*
X509924D01*
X968096Y244150D02*
Y256486D01*
Y244150D02*
X968502Y243744D01*
X960950Y235518D02*
X968280Y228188D01*
X968502D01*
X958028Y235518D02*
X960950D01*
X957834Y235712D02*
X958028Y235518D01*
X214038Y211524D02*
Y228116D01*
X501622Y374732D02*
X503820Y372534D01*
X500122Y374732D02*
X501622D01*
X503820Y372534D02*
X504904D01*
X519092Y303224D02*
Y350346D01*
X523664Y301331D02*
Y353774D01*
X504904Y372534D02*
X523664Y353774D01*
X503936Y365502D02*
X519092Y350346D01*
X500122Y366732D02*
X501352Y365502D01*
X503936D01*
X101174Y224414D02*
X103108Y226348D01*
X88742Y210058D02*
Y218028D01*
X103108Y226348D02*
Y243214D01*
X88742Y218028D02*
X95128Y224414D01*
X101174D01*
X75334Y231414D02*
Y232664D01*
X94606Y251716D02*
X103108Y243214D01*
X518414Y204978D02*
X552196Y238760D01*
X522986Y154264D02*
Y202692D01*
X557276Y236982D01*
Y256286D01*
X89250Y195580D02*
Y195802D01*
X126248Y309520D02*
Y326644D01*
X775389Y250317D02*
X785241D01*
X775262Y250444D02*
X775389Y250317D01*
X785241D02*
X785368Y250190D01*
X104914Y195472D02*
X117094D01*
X104806Y195580D02*
X104914Y195472D01*
X117818Y196196D02*
X136906D01*
X117094Y195472D02*
X117818Y196196D01*
X139234Y198524D02*
X155278D01*
X136906Y196196D02*
X139234Y198524D01*
X104298Y210058D02*
X104660Y210420D01*
X117856D01*
X118580Y209696D01*
X136906D01*
X141578Y205024D01*
X155278D01*
X341478Y305732D02*
X341608Y305602D01*
X395948Y399808D02*
X396122Y399982D01*
X381508Y399633D02*
X381682Y399808D01*
X395948D01*
X214038Y192024D02*
X214165Y192151D01*
X214038Y198524D02*
X226948D01*
X227052Y198628D01*
X868068Y363832D02*
X878332Y353568D01*
Y225806D02*
Y353568D01*
X444122Y335912D02*
Y346232D01*
Y335912D02*
X447040Y332994D01*
X478028D01*
X552196Y238760D02*
Y261112D01*
Y387604D01*
X497186Y323342D02*
X510540D01*
X496570Y322726D02*
X497186Y323342D01*
X510540D02*
X510794Y323596D01*
X482092Y322726D02*
X496570D01*
X214142Y178920D02*
X231544D01*
X214038Y179024D02*
X214142Y178920D01*
X231544D02*
X231823Y178641D01*
X512619Y390732D02*
X526415Y376936D01*
X527050D01*
X500122Y390732D02*
X512619D01*
X775262Y259944D02*
X784212D01*
X795636Y248520D01*
X342249Y299943D02*
X342258Y299952D01*
X335249Y299943D02*
X342249D01*
X544957Y394716D02*
X545084D01*
X552196Y387604D01*
X155278Y179024D02*
X156226Y178076D01*
X219744Y150050D02*
X232604Y162910D01*
X356616Y431546D02*
Y440563D01*
X758952Y466598D02*
X772922D01*
X752640Y486374D02*
X785250Y518984D01*
X791682D01*
X867918Y510540D02*
Y518530D01*
Y510540D02*
X882348Y496110D01*
Y478372D02*
Y496110D01*
X752640Y478498D02*
Y486374D01*
X791682Y518984D02*
X810162Y537464D01*
X842518D01*
X735584Y418242D02*
X735806D01*
X917194Y425450D02*
Y431110D01*
X908304Y416560D02*
X917194Y425450D01*
X850138Y416560D02*
X908304D01*
X920242Y342034D02*
X934720D01*
X905256Y341268D02*
X919476D01*
X929894Y371094D02*
Y376610D01*
X919226Y360426D02*
X929894Y371094D01*
X919226Y352121D02*
Y360426D01*
X915946Y348840D02*
X919226Y352121D01*
X910688Y348840D02*
X915946D01*
X923544Y326994D02*
Y330812D01*
X921512Y324962D02*
X923544Y326994D01*
X852170Y369670D02*
X852932Y370432D01*
X797968Y432054D02*
X798576Y432662D01*
X771168Y489482D02*
X774700Y493014D01*
X771168Y480738D02*
Y489482D01*
X752221Y459867D02*
X758952Y466598D01*
X746760Y459867D02*
X752221D01*
X746760Y429514D02*
Y444881D01*
X868068Y363832D02*
Y384556D01*
X850646Y432490D02*
Y439166D01*
X858774Y447294D01*
Y461264D01*
X876046Y478536D01*
X863346Y432490D02*
Y459370D01*
X882348Y478372D01*
X876046Y478536D02*
Y486990D01*
X907554Y345706D02*
X910688Y348840D01*
X907554Y343566D02*
Y345706D01*
X889104Y356088D02*
X895406Y362390D01*
X843396Y543052D02*
X867918Y518530D01*
X809285Y543052D02*
X843396D01*
X522694Y445808D02*
X522986Y445516D01*
X501046Y445808D02*
X522694D01*
X500122Y446732D02*
X501046Y445808D01*
X501152Y431762D02*
X522922D01*
X523590Y432431D01*
X905331Y219889D02*
X910064Y224622D01*
X902156Y303276D02*
X910064Y295368D01*
Y224622D02*
Y295368D01*
X562102Y51454D02*
X563264Y50292D01*
X767188Y476758D02*
X771168Y480738D01*
X906018Y315468D02*
Y325978D01*
X906272Y326232D01*
X921512Y315214D02*
Y324962D01*
X919476Y341268D02*
X920242Y342034D01*
X923290Y331066D02*
X923544Y330812D01*
X934612Y255778D02*
X935228Y256394D01*
X920242Y255778D02*
X934612D01*
X837692Y510894D02*
X837946Y510640D01*
X837084Y510286D02*
X837692Y510894D01*
X837946Y486990D02*
Y510640D01*
X798760Y445346D02*
Y463178D01*
X904494Y454006D02*
Y454506D01*
Y431110D02*
Y454006D01*
X798222Y445516D02*
X798576Y445162D01*
X726948Y243948D02*
X728980Y241916D01*
X436122Y333390D02*
X446532Y322980D01*
X780188Y476758D02*
X800354D01*
X772922Y466598D02*
X780188Y473864D01*
Y476758D01*
X446786Y185166D02*
X469496D01*
X470004Y184658D01*
Y172189D02*
Y184658D01*
X469773Y171958D02*
X470004Y172189D01*
X852170Y359664D02*
Y369670D01*
X835914Y359664D02*
Y370944D01*
X836168Y371198D01*
X902563Y354379D02*
X913843D01*
X889104Y354838D02*
Y356088D01*
X888850Y354584D02*
X889104Y354838D01*
X888850Y303530D02*
Y354584D01*
X888596Y303276D02*
X888850Y303530D01*
X851666Y384198D02*
X853086Y382778D01*
X730726Y516286D02*
X737996Y523556D01*
X789789D02*
X809285Y543052D01*
X737996Y523556D02*
X789789D01*
X768096Y385826D02*
Y402444D01*
X446532Y323488D02*
X461772D01*
X465752Y319508D02*
X467422D01*
X461772Y323488D02*
X465752Y319508D01*
X481330Y323488D02*
X482092Y322726D01*
X481330Y323488D02*
Y329692D01*
X478028Y332994D02*
X481330Y329692D01*
X446532Y322980D02*
X446782Y323230D01*
X436122Y333390D02*
Y346232D01*
X381508Y439928D02*
X381535Y439955D01*
X396095D01*
X396122Y439982D01*
X381508Y448818D02*
X381800Y448526D01*
X904494Y467006D02*
Y467506D01*
X836048Y416560D02*
X850138D01*
X850646Y417068D01*
Y432490D01*
X917194Y431110D02*
X929894D01*
X831984Y412496D02*
X836048Y416560D01*
X831850Y412496D02*
X831984D01*
X768084Y402432D02*
X768096Y402444D01*
X768350Y402698D01*
X743288Y511024D02*
X747268Y515004D01*
X741020Y511024D02*
X743288D01*
X730726Y500730D02*
X741020Y511024D01*
X730504Y500730D02*
X730726D01*
X730504Y516286D02*
X730726D01*
X730377Y516413D02*
X730504Y516286D01*
X713105Y516413D02*
X730377D01*
X712978Y516540D02*
X713105Y516413D01*
X747376Y515112D02*
X766318D01*
X747268Y515004D02*
X747376Y515112D01*
X751332Y402432D02*
X768084D01*
X751205Y418115D02*
X751332Y417988D01*
X735711Y418115D02*
X751205D01*
X735584Y418242D02*
X735711Y418115D01*
X863346Y486990D02*
Y516636D01*
X842518Y537464D02*
X863346Y516636D01*
X893790Y464276D02*
X901764D01*
X876046Y446532D02*
X893790Y464276D01*
X876046Y432490D02*
Y446532D01*
X347128Y299822D02*
X347258Y299952D01*
X342302Y319775D02*
X350125Y327598D01*
X342302Y316296D02*
Y319775D01*
X350125Y327598D02*
X352128D01*
X351790Y321660D02*
X352128Y321322D01*
Y316382D02*
Y321322D01*
Y316382D02*
X352258Y316252D01*
X347258D02*
X352258D01*
X352214Y299996D02*
Y303475D01*
X384302Y363220D02*
X387540Y359982D01*
X384302Y363220D02*
Y379222D01*
X387540Y359982D02*
X396122D01*
X384302Y379222D02*
X388312Y383232D01*
X395372D02*
X396122Y383982D01*
X388312Y383232D02*
X395372D01*
X726948Y243948D02*
X727456Y244456D01*
X798760Y463178D02*
X799490Y463908D01*
X798576Y445162D02*
X798760Y445346D01*
X783336Y432054D02*
X797968D01*
X784098Y445516D02*
X798222D01*
X818490Y476908D02*
Y487324D01*
X829818Y434086D02*
X836350D01*
X837946Y432490D01*
X818490Y445414D02*
X829818Y434086D01*
X818490Y445414D02*
Y463908D01*
Y470408D02*
X838314D01*
X850646Y482740D01*
Y486990D01*
X345440Y420370D02*
X356616Y431546D01*
X343662Y495808D02*
X343841Y495987D01*
X356183D01*
X356362Y496166D01*
X406146Y478790D02*
X412122Y472814D01*
Y459232D02*
Y472814D01*
X402590Y469900D02*
X404122Y468368D01*
Y459232D02*
Y468368D01*
X359156Y469900D02*
X402590D01*
X359156D02*
X376428Y487172D01*
X356108Y466852D02*
X359156Y469900D01*
X356108Y453771D02*
Y466852D01*
X376428Y487172D02*
Y495912D01*
X335534Y453517D02*
Y468122D01*
X356362Y488950D01*
Y496166D01*
X356108Y509420D02*
X356362Y509166D01*
X356108Y509420D02*
Y523748D01*
X376428Y508912D02*
Y524002D01*
X396240Y509651D02*
X396494Y509905D01*
Y523748D01*
X429514Y325266D02*
Y333502D01*
X428122Y334894D02*
Y346232D01*
Y334894D02*
X429514Y333502D01*
Y325266D02*
X431292Y323488D01*
X938022Y329542D02*
X963526D01*
X396122Y367982D02*
Y375982D01*
X901764Y464276D02*
X904494Y467006D01*
X942848Y394462D02*
X943102Y394716D01*
X942848Y376864D02*
Y394462D01*
X942594Y376610D02*
X942848Y376864D01*
X420122Y459232D02*
Y474852D01*
X381800Y448526D02*
X395578D01*
X396122Y447982D01*
X434594Y495400D02*
X436122Y493872D01*
Y459232D02*
Y493872D01*
X426466Y478632D02*
Y479044D01*
Y478632D02*
X428122Y476976D01*
Y459232D02*
Y476976D01*
X416052Y478922D02*
Y479044D01*
Y478922D02*
X420122Y474852D01*
X500122Y430732D02*
X501152Y431762D01*
X342258Y316252D02*
X342302Y316296D01*
X341933Y315927D02*
X342258Y316252D01*
X341933Y310927D02*
Y315927D01*
X341608Y310602D02*
X341933Y310927D01*
X170066Y444184D02*
X170206Y444324D01*
X381981Y415763D02*
X395903D01*
X396122Y415982D01*
X381762Y415544D02*
X381981Y415763D01*
X395966Y407826D02*
X396122Y407982D01*
X253492Y517906D02*
X256114Y515284D01*
X253492Y517906D02*
X271526D01*
X252730Y518668D02*
X253492Y517906D01*
X421352Y460462D02*
Y463770D01*
X420122Y459232D02*
X421352Y460462D01*
X356362Y331832D02*
X356762Y332232D01*
X352214Y299996D02*
X352258Y299952D01*
X341652Y310558D02*
X345131D01*
X341608Y310602D02*
X341652Y310558D01*
X728110Y241046D02*
X728980Y241916D01*
X905156Y455168D02*
X916940D01*
X904494Y454506D02*
X905156Y455168D01*
X823214Y510286D02*
X837084D01*
X192370Y486488D02*
Y494884D01*
X191706Y485824D02*
X192370Y486488D01*
Y494884D02*
X204470Y506984D01*
X256114Y446610D02*
Y488110D01*
Y515284D01*
X191706Y444324D02*
Y485824D01*
X170206Y444324D02*
Y485824D01*
X171442Y487060D01*
Y516162D01*
X172678Y517398D01*
X935228Y256394D02*
X936152Y255470D01*
X950874D01*
X885444Y375980D02*
X903864D01*
X904494Y376610D01*
X611206Y70036D02*
X618422D01*
X610362Y69192D02*
X611206Y70036D01*
X618422D02*
X623570Y75184D01*
X728212Y240944D02*
X728472Y240684D01*
X728110Y241046D02*
X728212Y240944D01*
X483616Y197866D02*
X484536Y196946D01*
Y182372D02*
Y196946D01*
X430780Y322976D02*
X431292Y323488D01*
X396240Y494665D02*
X396729Y495154D01*
X416814D01*
X417060Y495400D01*
X434594D01*
D20*
X968502Y243744D02*
D03*
Y228188D02*
D03*
X376682Y382428D02*
D03*
Y366872D02*
D03*
X774446Y210724D02*
D03*
Y195168D02*
D03*
X365252Y382174D02*
D03*
Y366618D02*
D03*
X906272Y326232D02*
D03*
Y341788D02*
D03*
X730504Y516286D02*
D03*
Y500730D02*
D03*
X712978Y516540D02*
D03*
Y500984D02*
D03*
X751332Y417988D02*
D03*
Y402432D02*
D03*
X735584Y418242D02*
D03*
Y402686D02*
D03*
X235458Y177704D02*
D03*
Y162148D02*
D03*
D21*
X842010Y284988D02*
D03*
Y263144D02*
D03*
D22*
X319374Y203200D02*
D03*
X334930D02*
D03*
X319374Y188722D02*
D03*
X334930D02*
D03*
X319374Y174244D02*
D03*
X334930D02*
D03*
X797910Y186182D02*
D03*
X813466D02*
D03*
X88742Y210058D02*
D03*
X104298D02*
D03*
X89250Y195580D02*
D03*
X104806D02*
D03*
D23*
X160560Y385222D02*
D03*
Y373222D02*
D03*
X164560D02*
D03*
Y385222D02*
D03*
D24*
X162560Y379222D02*
D03*
D25*
X885444Y373930D02*
D03*
Y385530D02*
D03*
D26*
X852932Y369932D02*
D03*
Y383432D02*
D03*
X352298Y331832D02*
D03*
Y345332D02*
D03*
X510540Y323342D02*
D03*
Y309842D02*
D03*
X496570Y309226D02*
D03*
Y322726D02*
D03*
X214376Y228454D02*
D03*
Y241954D02*
D03*
X236220Y227984D02*
D03*
Y214484D02*
D03*
X117094Y195472D02*
D03*
Y181972D02*
D03*
X136906Y209696D02*
D03*
Y196196D02*
D03*
X117856Y223920D02*
D03*
Y210420D02*
D03*
X807974Y234042D02*
D03*
Y247542D02*
D03*
X837692Y523894D02*
D03*
Y510394D02*
D03*
X578866Y81680D02*
D03*
Y68180D02*
D03*
X434594Y508400D02*
D03*
Y494900D02*
D03*
X461772Y309988D02*
D03*
Y323488D02*
D03*
X418338Y309988D02*
D03*
Y323488D02*
D03*
X352298Y283356D02*
D03*
Y269856D02*
D03*
X922002Y340926D02*
D03*
Y327426D02*
D03*
X768350Y416198D02*
D03*
Y402698D02*
D03*
X747268Y515004D02*
D03*
Y501504D02*
D03*
X798576Y445662D02*
D03*
Y432162D02*
D03*
X904494Y467506D02*
D03*
Y454006D02*
D03*
X934212Y269640D02*
D03*
Y256140D02*
D03*
X482092Y322726D02*
D03*
Y309226D02*
D03*
X446532Y323488D02*
D03*
Y309988D02*
D03*
X432435Y323488D02*
D03*
Y309988D02*
D03*
X416814Y508654D02*
D03*
Y495154D02*
D03*
D27*
X92456Y232916D02*
D03*
Y251716D02*
D03*
D28*
X62334Y232664D02*
D03*
X75334D02*
D03*
X889104Y354838D02*
D03*
X902104D02*
D03*
X172678Y517398D02*
D03*
X185678D02*
D03*
X888596Y303276D02*
D03*
X901596D02*
D03*
X470004Y184658D02*
D03*
X483004D02*
D03*
X867006Y401066D02*
D03*
X880006D02*
D03*
D29*
X341608Y305602D02*
D03*
Y310602D02*
D03*
X357908D02*
D03*
Y305602D02*
D03*
D30*
X342258Y316252D02*
D03*
X347258D02*
D03*
X352258D02*
D03*
X357258D02*
D03*
Y299952D02*
D03*
X352258D02*
D03*
X347258D02*
D03*
X342258D02*
D03*
D31*
X484632Y200660D02*
D03*
X470408D02*
D03*
X543814Y377952D02*
D03*
X529590D02*
D03*
D32*
X396240Y494665D02*
D03*
Y509651D02*
D03*
X749046Y444627D02*
D03*
Y459613D02*
D03*
X356108Y438785D02*
D03*
Y453771D02*
D03*
X335534Y453517D02*
D03*
Y438531D02*
D03*
D33*
X485521Y490982D02*
D03*
X470535D02*
D03*
X485521Y538988D02*
D03*
X470535D02*
D03*
X546735Y394716D02*
D03*
X531749D02*
D03*
X546735Y409448D02*
D03*
X531749D02*
D03*
X484759Y171958D02*
D03*
X469773D02*
D03*
X144907Y262382D02*
D03*
X129921D02*
D03*
D34*
X250590Y191262D02*
D03*
X237090D02*
D03*
X767188Y476758D02*
D03*
X780688D02*
D03*
X561486Y30988D02*
D03*
X547986D02*
D03*
X561486Y45466D02*
D03*
X547986D02*
D03*
X614280Y32004D02*
D03*
X627780D02*
D03*
X670452Y67818D02*
D03*
X656952D02*
D03*
X411880Y60452D02*
D03*
X398380D02*
D03*
X411880Y78994D02*
D03*
X398380D02*
D03*
Y133096D02*
D03*
X411880D02*
D03*
X714610Y241046D02*
D03*
X728110D02*
D03*
X714610Y167386D02*
D03*
X728110D02*
D03*
X239230Y517414D02*
D03*
X252730D02*
D03*
X813200Y167386D02*
D03*
X799700D02*
D03*
D35*
X214038Y172524D02*
D03*
Y179024D02*
D03*
Y185524D02*
D03*
Y192024D02*
D03*
Y198524D02*
D03*
Y205024D02*
D03*
Y211524D02*
D03*
X155278D02*
D03*
Y205024D02*
D03*
Y198524D02*
D03*
Y192024D02*
D03*
Y185524D02*
D03*
Y179024D02*
D03*
Y172524D02*
D03*
D36*
X191706Y485824D02*
D03*
Y444324D02*
D03*
X170206Y485824D02*
D03*
Y444324D02*
D03*
X233344Y444070D02*
D03*
Y485570D02*
D03*
X254844Y444070D02*
D03*
Y485570D02*
D03*
D37*
X749500Y167030D02*
D03*
Y186030D02*
D03*
X774500D02*
D03*
Y176530D02*
D03*
Y167030D02*
D03*
X750262Y240944D02*
D03*
Y259944D02*
D03*
X775262D02*
D03*
Y250444D02*
D03*
Y240944D02*
D03*
D38*
X818490Y463908D02*
D03*
Y470408D02*
D03*
Y476908D02*
D03*
X799490D02*
D03*
Y463908D02*
D03*
D39*
X584812Y32918D02*
D03*
X591312D02*
D03*
X597812D02*
D03*
Y51918D02*
D03*
X591312D02*
D03*
X584812D02*
D03*
D40*
X742424Y627126D02*
D03*
X771924D02*
D03*
D41*
X757174Y611876D02*
D03*
D42*
X665226Y45484D02*
D03*
Y15984D02*
D03*
D43*
X649976Y30734D02*
D03*
D44*
X485140Y571020D02*
D03*
Y638020D02*
D03*
D45*
X121104Y382602D02*
D03*
Y375842D02*
D03*
X130854D02*
D03*
Y382602D02*
D03*
D46*
X473122Y427732D02*
D03*
Y402732D02*
D03*
Y377732D02*
D03*
X448122Y427732D02*
D03*
Y402732D02*
D03*
Y377732D02*
D03*
X423122Y427732D02*
D03*
Y402732D02*
D03*
Y377732D02*
D03*
D47*
X396122Y447982D02*
D03*
Y439982D02*
D03*
Y431982D02*
D03*
Y423982D02*
D03*
Y415982D02*
D03*
Y407982D02*
D03*
Y399982D02*
D03*
Y391982D02*
D03*
Y383982D02*
D03*
Y375982D02*
D03*
Y367982D02*
D03*
Y359982D02*
D03*
X500122Y358732D02*
D03*
Y366732D02*
D03*
Y374732D02*
D03*
Y382732D02*
D03*
Y390732D02*
D03*
Y398732D02*
D03*
Y406732D02*
D03*
Y414732D02*
D03*
Y422732D02*
D03*
Y430732D02*
D03*
Y438732D02*
D03*
Y446732D02*
D03*
D48*
X404122Y459232D02*
D03*
X412122D02*
D03*
X420122D02*
D03*
X428122D02*
D03*
X436122D02*
D03*
X444122D02*
D03*
X452122D02*
D03*
X460122D02*
D03*
X468122D02*
D03*
X476122D02*
D03*
X484122D02*
D03*
X492122D02*
D03*
Y346232D02*
D03*
X484122D02*
D03*
X476122D02*
D03*
X468122D02*
D03*
X460122D02*
D03*
X452122D02*
D03*
X444122D02*
D03*
X436122D02*
D03*
X428122D02*
D03*
X420122D02*
D03*
X412122D02*
D03*
X404122D02*
D03*
D49*
X902262Y231556D02*
D03*
Y220056D02*
D03*
D50*
X877262Y225806D02*
D03*
D51*
X639572Y80414D02*
D03*
Y67414D02*
D03*
X610362Y82192D02*
D03*
Y69192D02*
D03*
X836168Y384198D02*
D03*
Y371198D02*
D03*
X485394Y520536D02*
D03*
Y507536D02*
D03*
X936498Y341780D02*
D03*
Y328780D02*
D03*
X356362Y509166D02*
D03*
Y496166D02*
D03*
X376428Y508912D02*
D03*
Y495912D02*
D03*
X544255Y357838D02*
D03*
Y344838D02*
D03*
D52*
X837946Y432490D02*
D03*
X850646D02*
D03*
X863346D02*
D03*
X876046D02*
D03*
X837946Y486990D02*
D03*
X850646D02*
D03*
X863346D02*
D03*
X876046D02*
D03*
X904494Y376610D02*
D03*
X917194D02*
D03*
X929894D02*
D03*
X942594D02*
D03*
X904494Y431110D02*
D03*
X917194D02*
D03*
X929894D02*
D03*
X942594D02*
D03*
D53*
X440436Y133270D02*
D03*
Y123270D02*
D03*
Y113270D02*
D03*
Y103270D02*
D03*
Y93270D02*
D03*
Y83270D02*
D03*
Y73270D02*
D03*
Y63270D02*
D03*
Y53270D02*
D03*
Y43270D02*
D03*
Y33270D02*
D03*
Y23270D02*
D03*
X528436D02*
D03*
Y33270D02*
D03*
Y43270D02*
D03*
Y53270D02*
D03*
Y63270D02*
D03*
Y73270D02*
D03*
Y83270D02*
D03*
Y93270D02*
D03*
Y103270D02*
D03*
Y113270D02*
D03*
Y123270D02*
D03*
Y133270D02*
D03*
D54*
X440436Y11770D02*
D03*
X528436D02*
D03*
D55*
X504436Y137270D02*
D03*
X494436D02*
D03*
X484436D02*
D03*
X474436D02*
D03*
X464436D02*
D03*
D56*
X958596Y281486D02*
D03*
X968096Y256486D02*
D03*
X949096D02*
D03*
D57*
X628142Y47782D02*
D03*
Y57882D02*
D03*
D106*
X155376Y172622D02*
X176432D01*
X155278Y172524D02*
X155376Y172622D01*
X176432D02*
X176530Y172720D01*
X152146Y378714D02*
X152526D01*
X153034Y379222D01*
X162560D01*
X368176Y423314D02*
X369512Y424650D01*
X368176Y384590D02*
Y423314D01*
X369512Y424650D02*
Y425030D01*
X366268Y382682D02*
X368176Y384590D01*
D107*
X92456Y251716D02*
X94098Y253358D01*
X75763Y232916D02*
X92456D01*
X75588Y232741D02*
X75763Y232916D01*
X75588Y231902D02*
Y232741D01*
X94098Y253358D02*
Y277370D01*
X126248Y309520D01*
X485394Y507238D02*
X485691Y507536D01*
X484985Y507238D02*
X485394D01*
X728218Y542290D02*
X757174Y571246D01*
X669152Y542290D02*
X728218D01*
X634397Y507536D02*
X669152Y542290D01*
X757174Y571246D02*
Y611876D01*
X484251Y490982D02*
X484823Y491553D01*
X484162Y490893D02*
X484251Y490982D01*
X484823Y507076D02*
X484985Y507238D01*
X485691Y507536D02*
X634397D01*
X484823Y491553D02*
Y507076D01*
X485140Y549021D02*
Y571020D01*
Y541528D02*
Y549021D01*
Y539369D02*
Y541528D01*
X484162Y459272D02*
Y490893D01*
X485140Y539369D02*
X485521Y538988D01*
X485457Y538924D02*
X485521Y538988D01*
X485457Y520599D02*
Y538924D01*
X485394Y520536D02*
X485457Y520599D01*
X484122Y459232D02*
X484162Y459272D01*
D108*
X545760Y32310D02*
X546212Y32762D01*
X529396Y32310D02*
X545760D01*
X528436Y33270D02*
X529396Y32310D01*
X529534Y44368D02*
X544786D01*
X528436Y53270D02*
Y63270D01*
Y11770D02*
Y23270D01*
X561486Y30988D02*
X582882D01*
X546212Y32762D02*
X547986Y30988D01*
X562102Y51454D02*
Y60960D01*
D109*
X528436Y43270D02*
X529534Y44368D01*
X544786D02*
X545790Y43364D01*
X640522Y81364D02*
X644861D01*
X689558Y126061D01*
X724910Y161413D01*
X565658Y105410D02*
X586309Y126061D01*
X688671D02*
X689558D01*
X586309D02*
X688671D01*
X639572Y80414D02*
X640522Y81364D01*
X565658Y74422D02*
Y105410D01*
Y74422D02*
X568700Y71380D01*
X724910Y164186D02*
X728110Y167386D01*
X724910Y161413D02*
Y164186D01*
X728288Y167208D02*
X749322D01*
X749500Y167030D01*
X728110Y167386D02*
X728288Y167208D01*
X474436Y120940D02*
Y137270D01*
Y120940D02*
X474472Y120904D01*
X582066Y57814D02*
X584762Y55118D01*
X568700Y71380D02*
X575666D01*
X578866Y68180D01*
X440436Y33270D02*
Y43270D01*
Y23270D02*
Y33270D01*
Y11770D02*
Y23270D01*
X639774Y67616D02*
X656750D01*
X639572Y67414D02*
X639774Y67616D01*
X656750D02*
X656952Y67818D01*
X628292Y57882D02*
X636874Y66464D01*
X638622D01*
X639572Y67414D01*
X628142Y57882D02*
X628292D01*
X627961Y32185D02*
Y47601D01*
X628142Y47782D01*
X627780Y32004D02*
X627961Y32185D01*
X628415Y31369D02*
X649341D01*
X627780Y32004D02*
X628415Y31369D01*
X649341D02*
X649976Y30734D01*
X597812Y32511D02*
X597862Y32461D01*
X613823D02*
X614280Y32004D01*
X597812Y32511D02*
Y32918D01*
X597862Y32461D02*
X613823D01*
X578866Y68180D02*
X582066Y64980D01*
Y57814D02*
Y64980D01*
X597812Y33754D02*
X597862Y33804D01*
X597812Y32918D02*
Y33754D01*
X484598Y137431D02*
Y171796D01*
X484759Y171958D01*
X484436Y137270D02*
X484598Y137431D01*
D110*
X412122Y340927D02*
Y346232D01*
X387421Y316226D02*
X412122Y340927D01*
X387421Y258572D02*
Y316226D01*
X543814Y358279D02*
X544255Y357838D01*
X543814Y358279D02*
Y377952D01*
X500122Y398732D02*
X500745Y398110D01*
X526577D01*
X529971Y394716D01*
X500122Y406732D02*
X527255D01*
X529971Y409448D01*
D111*
X802875Y155975D02*
Y164211D01*
X800056Y167030D02*
X802875Y164211D01*
Y155975D02*
X807212Y151638D01*
X830580D02*
X842010Y163068D01*
X807212Y151638D02*
X830580D01*
X842010Y163068D02*
Y263144D01*
X823576D02*
X842010D01*
X807974Y247542D02*
X823576Y263144D01*
X844550Y284988D02*
X854581Y295019D01*
X842010Y284988D02*
X844550D01*
X854581Y323477D02*
X857748Y326644D01*
X854581Y295019D02*
Y323477D01*
D112*
X591312Y51918D02*
Y61214D01*
X795636Y247542D02*
X807974D01*
X775262Y234328D02*
Y240944D01*
X790702Y232096D02*
Y242608D01*
X795636Y247542D01*
Y248520D01*
X777494Y232096D02*
X790702D01*
X775262Y234328D02*
X777494Y232096D01*
X913843Y354379D02*
X913892Y354330D01*
X902104Y354838D02*
X902563Y354379D01*
X780650Y416198D02*
X785194Y411654D01*
X768350Y416198D02*
X780650D01*
X785194Y411654D02*
X798322D01*
X919939Y482951D02*
Y488393D01*
X919988Y488442D01*
X904494Y467506D02*
X919939Y482951D01*
X712724Y484886D02*
X712773Y484935D01*
Y500779D01*
X712978Y500984D01*
X747014Y486410D02*
X747063Y486459D01*
Y501299D01*
X747268Y501504D01*
X735584Y386080D02*
Y402686D01*
X823468Y523748D02*
X823517Y523797D01*
X837595D01*
X837692Y523894D01*
X727456Y244456D02*
Y255778D01*
X728212Y240944D02*
X750262D01*
D113*
X818388Y487426D02*
X818490Y487324D01*
D114*
X256243Y628142D02*
X309880D01*
X249669Y634590D02*
Y635091D01*
X252476Y628142D02*
X256117D01*
X249669Y630949D02*
X252476Y628142D01*
X256117D02*
X256243D01*
X249669Y630949D02*
Y635091D01*
X252598Y638020D01*
X466640D01*
X485140D01*
D115*
X29788Y298886D02*
D03*
Y353386D02*
D03*
D116*
X60088Y301886D02*
D03*
Y350386D02*
D03*
D117*
X719248Y326644D02*
D03*
X264748D02*
D03*
D118*
X126248D02*
D03*
X857748D02*
D03*
D119*
X959612Y329692D02*
D03*
D120*
X20066Y469900D02*
D03*
Y419100D02*
D03*
Y444500D02*
D03*
Y229108D02*
D03*
Y203708D02*
D03*
Y254508D02*
D03*
D121*
Y393700D02*
D03*
Y178308D02*
D03*
D122*
X167386Y614426D02*
D03*
X809244Y40640D02*
D03*
X167386D02*
D03*
X809244Y614426D02*
D03*
D123*
X176530Y172720D02*
D03*
X298994Y285206D02*
D03*
X158242Y262890D02*
D03*
X152146Y378714D02*
D03*
X178816Y368142D02*
D03*
X355770Y282194D02*
D03*
X407162Y322834D02*
D03*
X345440Y384940D02*
D03*
X369512Y425030D02*
D03*
X381508Y407670D02*
D03*
X354076Y382778D02*
D03*
X381508Y424180D02*
D03*
X378121Y431891D02*
D03*
X335788Y337058D02*
D03*
X472186Y292354D02*
D03*
X488696Y405384D02*
D03*
X510794Y333502D02*
D03*
X542506Y333545D02*
D03*
X474472Y120904D02*
D03*
X169926Y430276D02*
D03*
X176530Y179578D02*
D03*
X85344Y319024D02*
D03*
Y325628D02*
D03*
X852170Y359664D02*
D03*
X591312Y61214D02*
D03*
X565658Y74422D02*
D03*
X787400Y211074D02*
D03*
X364490Y332232D02*
D03*
X957834Y235712D02*
D03*
X381508Y399633D02*
D03*
X774700Y493014D02*
D03*
X890778Y427990D02*
D03*
X891032Y446278D02*
D03*
X850900Y509016D02*
D03*
X835406Y458216D02*
D03*
X522986Y445516D02*
D03*
X523590Y432431D02*
D03*
X562102Y60960D02*
D03*
X921512Y315214D02*
D03*
X906018Y315468D02*
D03*
X920242Y255778D02*
D03*
X446786Y185166D02*
D03*
X913892Y354330D02*
D03*
X835914Y359664D02*
D03*
X798322Y411654D02*
D03*
X768096Y385826D02*
D03*
X381508Y439928D02*
D03*
Y448818D02*
D03*
X919988Y488442D02*
D03*
X766318Y515112D02*
D03*
X747014Y486410D02*
D03*
X712724Y484886D02*
D03*
X735584Y386080D02*
D03*
X823468Y523748D02*
D03*
X352128Y321322D02*
D03*
X746760Y429514D02*
D03*
X783336Y432054D02*
D03*
Y445516D02*
D03*
X818388Y487426D02*
D03*
X343662Y495808D02*
D03*
X406146Y479044D02*
D03*
X376428Y524002D02*
D03*
X356108D02*
D03*
X943102Y394716D02*
D03*
X396494Y524002D02*
D03*
X426466Y479044D02*
D03*
X416052D02*
D03*
X831850Y412496D02*
D03*
X271526Y517906D02*
D03*
X381508Y415544D02*
D03*
X916940Y455168D02*
D03*
X823214Y510286D02*
D03*
X204470Y506984D02*
D03*
X623570Y75184D02*
D03*
D124*
X310896Y186690D02*
D03*
X86530Y183642D02*
D03*
X287782Y189738D02*
D03*
X698335Y244945D02*
D03*
X412496Y95504D02*
D03*
X310642Y202438D02*
D03*
X227584Y185420D02*
D03*
X227838Y198374D02*
D03*
X335240Y299934D02*
D03*
X456946Y405892D02*
D03*
X524510Y271526D02*
D03*
X538226Y283718D02*
D03*
X807212Y151638D02*
D03*
X785368Y250190D02*
D03*
X328422Y153924D02*
D03*
X278130Y154178D02*
D03*
X455676Y443738D02*
D03*
X405892D02*
D03*
X475765Y551737D02*
D03*
X474328Y525665D02*
D03*
X496525Y525508D02*
D03*
X497132Y532084D02*
D03*
X497520Y538677D02*
D03*
X497311Y545277D02*
D03*
X494515Y551260D02*
D03*
X745001Y611814D02*
D03*
X745187Y605213D02*
D03*
X747799Y599147D02*
D03*
Y592543D02*
D03*
Y585939D02*
D03*
Y579336D02*
D03*
X745733Y573063D02*
D03*
X741064Y568393D02*
D03*
X736394Y563724D02*
D03*
X731724Y559054D02*
D03*
X721036Y551665D02*
D03*
X714432D02*
D03*
X707828D02*
D03*
X701224D02*
D03*
X694620D02*
D03*
X688016D02*
D03*
X681412D02*
D03*
X674808D02*
D03*
X668205Y551557D02*
D03*
X662268Y548664D02*
D03*
X657598Y543994D02*
D03*
X652929Y539325D02*
D03*
X648259Y534655D02*
D03*
X643589Y529985D02*
D03*
X638919Y525316D02*
D03*
X634250Y520646D02*
D03*
X628804Y516910D02*
D03*
X622200D02*
D03*
X615596D02*
D03*
X608992D02*
D03*
X602388D02*
D03*
X595784D02*
D03*
X589180D02*
D03*
X582576D02*
D03*
X575972D02*
D03*
X569368D02*
D03*
X562764D02*
D03*
X556160D02*
D03*
X549556D02*
D03*
X542952D02*
D03*
X536348D02*
D03*
X529744D02*
D03*
X523140D02*
D03*
X516536D02*
D03*
X509932D02*
D03*
X503328D02*
D03*
X496724D02*
D03*
X477086Y516387D02*
D03*
X473974Y510562D02*
D03*
X474047Y503958D02*
D03*
X474787Y471531D02*
D03*
X493537Y472256D02*
D03*
X496076Y484957D02*
D03*
X496250Y491558D02*
D03*
X496115Y498161D02*
D03*
X502719D02*
D03*
X509323D02*
D03*
X515927D02*
D03*
X522531D02*
D03*
X529135D02*
D03*
X535739D02*
D03*
X542343D02*
D03*
X548947D02*
D03*
X555551D02*
D03*
X562155D02*
D03*
X568759D02*
D03*
X575363D02*
D03*
X581967D02*
D03*
X588571D02*
D03*
X595175D02*
D03*
X601779D02*
D03*
X608383D02*
D03*
X614987D02*
D03*
X621591D02*
D03*
X628195D02*
D03*
X634799Y498181D02*
D03*
X640867Y500785D02*
D03*
X645556Y505436D02*
D03*
X650225Y510106D02*
D03*
X654895Y514776D02*
D03*
X659565Y519445D02*
D03*
X664235Y524115D02*
D03*
X668904Y528785D02*
D03*
X674057Y532915D02*
D03*
X680661D02*
D03*
X687265D02*
D03*
X693869D02*
D03*
X700473D02*
D03*
X707077D02*
D03*
X713681D02*
D03*
X720285D02*
D03*
X726889D02*
D03*
X733308Y534467D02*
D03*
X738147Y538961D02*
D03*
X742817Y543631D02*
D03*
X747487Y548301D02*
D03*
X752156Y552971D02*
D03*
X756826Y557640D02*
D03*
X761496Y562310D02*
D03*
X765700Y567403D02*
D03*
X766549Y573952D02*
D03*
Y580556D02*
D03*
Y587160D02*
D03*
Y593764D02*
D03*
Y600368D02*
D03*
X769313Y606366D02*
D03*
X727456Y255778D02*
D03*
D125*
X152400Y152400D02*
D03*
X203200Y254000D02*
D03*
X50800D02*
D03*
X939800Y508000D02*
D03*
Y406400D02*
D03*
Y304800D02*
D03*
Y203200D02*
D03*
X914400Y152400D02*
D03*
X889000Y508000D02*
D03*
X863600Y254000D02*
D03*
X889000Y203200D02*
D03*
X863600Y152400D02*
D03*
X838200Y609600D02*
D03*
X812800Y558800D02*
D03*
X838200Y406400D02*
D03*
X812800Y355600D02*
D03*
X838200Y304800D02*
D03*
Y101600D02*
D03*
X787400Y609600D02*
D03*
Y508000D02*
D03*
X762000Y457200D02*
D03*
Y355600D02*
D03*
X787400Y304800D02*
D03*
X762000Y254000D02*
D03*
X787400Y203200D02*
D03*
X762000Y152400D02*
D03*
X787400Y101600D02*
D03*
X762000Y50800D02*
D03*
X736600Y609600D02*
D03*
X711200Y254000D02*
D03*
X736600Y203200D02*
D03*
Y101600D02*
D03*
X711200Y50800D02*
D03*
X685800Y508000D02*
D03*
X660400Y457200D02*
D03*
X685800Y406400D02*
D03*
X660400Y355600D02*
D03*
Y254000D02*
D03*
Y152400D02*
D03*
X685800Y101600D02*
D03*
X609600Y457200D02*
D03*
X635000Y406400D02*
D03*
X609600Y355600D02*
D03*
Y254000D02*
D03*
Y152400D02*
D03*
X635000Y101600D02*
D03*
X609600Y50800D02*
D03*
X558800Y457200D02*
D03*
X584200Y406400D02*
D03*
Y304800D02*
D03*
X558800Y152400D02*
D03*
X584200Y101600D02*
D03*
X508000Y457200D02*
D03*
X533400Y304800D02*
D03*
X508000Y254000D02*
D03*
X533400Y203200D02*
D03*
X508000Y152400D02*
D03*
X457200Y355600D02*
D03*
Y254000D02*
D03*
Y152400D02*
D03*
X482600Y101600D02*
D03*
X406400Y355600D02*
D03*
Y254000D02*
D03*
Y152400D02*
D03*
X355600Y355600D02*
D03*
Y254000D02*
D03*
X381000Y203200D02*
D03*
X355600Y152400D02*
D03*
X381000Y101600D02*
D03*
X355600Y50800D02*
D03*
X330200Y508000D02*
D03*
X304800Y457200D02*
D03*
Y355600D02*
D03*
X330200Y304800D02*
D03*
X304800Y254000D02*
D03*
Y152400D02*
D03*
X330200Y101600D02*
D03*
X304800Y50800D02*
D03*
X279400Y508000D02*
D03*
Y406400D02*
D03*
X254000Y152400D02*
D03*
X279400Y101600D02*
D03*
X254000Y50800D02*
D03*
X203200Y558800D02*
D03*
X228600Y508000D02*
D03*
X203200Y457200D02*
D03*
X228600Y406400D02*
D03*
X203200Y355600D02*
D03*
X228600Y304800D02*
D03*
Y101600D02*
D03*
X203200Y50800D02*
D03*
X152400Y558800D02*
D03*
X177800Y508000D02*
D03*
X152400Y457200D02*
D03*
X177800Y406400D02*
D03*
X152400Y355600D02*
D03*
X177800Y304800D02*
D03*
Y203200D02*
D03*
Y101600D02*
D03*
X127000Y508000D02*
D03*
X101600Y457200D02*
D03*
X127000Y406400D02*
D03*
Y203200D02*
D03*
X101600Y152400D02*
D03*
X127000Y101600D02*
D03*
X76200Y508000D02*
D03*
X50800Y457200D02*
D03*
X76200Y406400D02*
D03*
Y304800D02*
D03*
X50800Y152400D02*
D03*
M02*
