M48
;Layer_Color=9474304
;FILE_FORMAT=4:4
METRIC,LZ
;TYPE=PLATED
T1F00S00C0.3048
T2F00S00C0.4064
T5F00S00C1.0000
T6F00S00C1.2700
T8F00S00C3.0480
T9F00S00C4.4000
%
T01
X000508Y001524
X001016
X0008653Y00183642
X00127Y002032
X001778
X0017653Y00179578
Y0017272
X001524Y001524
X001778Y001016
X002286
X002794
X003302
X00381
X003556Y001524
X00328422Y00153924
X003048Y001524
X0027813Y00154178
X00254Y001524
X00227584Y0018542
X00227838Y00198374
X00287782Y00189738
X00310896Y0018669
X00310642Y00202438
X003048Y00254
X00298994Y00285206
X003302Y003048
X0033524Y00299934
X00335788Y00337058
X00352128Y00321322
X0036449Y00332232
X003556Y003556
X00354076Y00382778
X0034544Y0038494
X003048Y003556
X002032
X00178816Y00368142
X00152146Y00378714
X001524Y003556
X001778Y003048
X002286
X002032Y00254
X00158242Y0026289
X000508Y00254
X000762Y003048
X00085344Y00319024
Y00325628
X00127Y001016
X002032Y000508
X00254
X003048
X003556
X00381Y002032
X003556Y00254
X0035577Y00282194
X004064Y00254
X004572
X00508
X0052451Y00271526
X00538226Y00283718
X005334Y003048
X00542506Y00333545
X00510794Y00333502
X004572Y003556
X004064
X00407162Y00322834
X00472186Y00292354
X005842Y003048
X006096Y003556
X006604
X00762
X00768096Y00385826
X00735584Y0038608
X007874Y003048
X00785368Y0025019
X00762Y00254
X007112
X00698335Y00244945
X006604Y00254
X006096
Y001524
X006604
X006858Y001016
X007366
X007874
X00762Y001524
X007874Y002032
Y00211074
X007366Y002032
X00762Y000508
X007112
X006096
X00591312Y00061214
X00562102Y0006096
X00565658Y00074422
X005842Y001016
X00635
X0062357Y00075184
X005588Y001524
X00508
X004572
X00446786Y00185166
X004064Y001524
X00474472Y00120904
X004826Y001016
X005334Y002032
X00807212Y00151638
X008636Y001524
X009144
X009398Y002032
X00957834Y00235712
X00920242Y00255778
X008636Y00254
X00889Y002032
X00906018Y00315468
X00921512Y00315214
X009398Y003048
X00913892Y0035433
X0085217Y00359664
X00835914
X008128Y003556
X008382Y003048
X00943102Y00394716
X008382Y001016
Y004064
X0083185Y00412496
X00798322Y00411654
X00835406Y00458216
X00818388Y00487426
X00823214Y00510286
X00823468Y00523748
X008509Y00509016
X00889Y00508
X00919988Y00488442
X0091694Y00455168
X00891032Y00446278
X00890778Y0042799
X009398Y004064
Y00508
X008128Y005588
X008382Y006096
X007874
X00769313Y00606366
X00766549Y00600368
Y00593764
Y0058716
Y00580556
Y00573952
X007657Y00567403
X00761496Y0056231
X00756826Y0055764
X00752156Y00552971
X00747487Y00548301
X00742817Y00543631
X00738147Y00538961
X00733308Y00534467
X00726889Y00532915
X00720285
X00713681
X00707077
X00700473
X00693869
X00687265
X00680661
X00674057
X00668904Y00528785
X00664235Y00524115
X00659565Y00519445
X00654895Y00514776
X00650225Y00510106
X00645556Y00505436
X00640867Y00500785
X00634799Y00498181
X00628195Y00498161
X00621591
X00614987
X00608383
X00601779
X00595175
X00588571
X00581967
X00575363
X00568759
X00562155
X00555551
X00548947
X00542343
X00535739
X00529135
X00522531
X00515927
X00509323
X00502719
X00496115
X0049625Y00491558
X00496076Y00484957
X00493537Y00472256
X00474787Y00471531
X00474047Y00503958
X00473974Y00510562
X00477086Y00516387
X00474328Y00525665
X00496525Y00525508
X00497132Y00532084
X0049752Y00538677
X00497311Y00545277
X00494515Y0055126
X00475765Y00551737
X00496724Y0051691
X00503328
X00509932
X00516536
X0052314
X00529744
X00536348
X00542952
X00549556
X0055616
X00562764
X00569368
X00575972
X00582576
X0058918
X00595784
X00602388
X00608992
X00615596
X006222
X00628804
X0063425Y00520646
X00638919Y00525316
X00643589Y00529985
X00648259Y00534655
X00652929Y00539325
X00657598Y00543994
X00662268Y00548664
X00668205Y00551557
X00674808Y00551665
X00681412
X00688016
X0069462
X00701224
X00707828
X00714432
X00721036
X00731724Y00559054
X00736394Y00563724
X00741064Y00568393
X00745733Y00573063
X00747799Y00579336
Y00585939
Y00592543
Y00599147
X00745187Y00605213
X00745001Y00611814
X007366Y006096
X00766318Y00515112
X007874Y00508
X007747Y00493014
X00747014Y0048641
X00712724Y00484886
X006858Y00508
X006604Y004572
X006096
X005588
X00522986Y00445516
X0052359Y00432431
X00508Y004572
X00455676Y00443738
X00456946Y00405892
X00488696Y00405384
X005842Y004064
X00635
X006858
X0074676Y00429514
X00783336Y00432054
Y00445516
X00762Y004572
X00426466Y00479044
X00416052
X00406146
X00405892Y00443738
X00381508Y00439928
Y00448818
X00378121Y00431891
X00381508Y0042418
Y00415544
Y0040767
Y00399633
X00369512Y0042503
X00343662Y00495808
X003302Y00508
X00356108Y00524002
X00376428
X00396494
X00271526Y00517906
X002794Y00508
X002286
X0020447Y00506984
X001778Y00508
X00127
X000762
X001016Y004572
X001524
X00169926Y00430276
X001778Y004064
X002286
X002794
X003048Y004572
X002032
Y005588
X001524
X00127Y004064
X000762
X000508Y004572
T02
X00412496Y00095504
X00727456Y00255778
T05
X00020066Y00178308
Y00203708
Y00229108
Y00254508
Y003937
Y004191
Y004445
Y004699
T06
X00959612Y00329692
T08
X00167386Y0004064
X00809244
Y00614426
X00167386
T09
X00264748Y00326644
X00719248
M30
