%TF.GenerationSoftware,Altium Limited,Altium Designer,19.1.9 (167)*%
G04 Layer_Color=8388736*
%FSLAX26Y26*%
%MOIN*%
%TF.FileFunction,Soldermask,Top*%
%TF.Part,Single*%
G01*
G75*
%TA.AperFunction,SMDPad,CuDef*%
%ADD12R,0.025591X0.041339*%
%ADD79R,0.046000X0.045000*%
%TA.AperFunction,ComponentPad*%
%ADD81C,0.258000*%
%ADD82O,0.108000X0.208000*%
%ADD83R,0.088000X0.088000*%
%ADD84O,0.074929X0.055244*%
%ADD85O,0.063118X0.047370*%
%ADD86C,0.067055*%
%ADD87R,0.067055X0.067055*%
%TA.AperFunction,ViaPad*%
%ADD88C,0.128000*%
%ADD89C,0.026000*%
%ADD90C,0.024000*%
%ADD91C,0.040000*%
%TA.AperFunction,SMDPad,CuDef*%
%ADD96R,0.049339X0.049339*%
%ADD97R,0.049339X0.049339*%
%ADD98R,0.055244X0.031622*%
%ADD99R,0.049339X0.023748*%
%ADD100R,0.023748X0.049339*%
%ADD101R,0.031622X0.078866*%
%ADD102R,0.049340X0.094610*%
%ADD103R,0.047370X0.049340*%
%ADD104R,0.094614X0.055244*%
%ADD105R,0.026701X0.022764*%
G04:AMPARAMS|DCode=106|XSize=67.055mil|YSize=67.055mil|CornerRadius=6.953mil|HoleSize=0mil|Usage=FLASHONLY|Rotation=180.000|XOffset=0mil|YOffset=0mil|HoleType=Round|Shape=RoundedRectangle|*
%AMROUNDEDRECTD106*
21,1,0.067055,0.053150,0,0,180.0*
21,1,0.053150,0.067055,0,0,180.0*
1,1,0.013906,-0.026575,0.026575*
1,1,0.013906,0.026575,0.026575*
1,1,0.013906,0.026575,-0.026575*
1,1,0.013906,-0.026575,-0.026575*
%
%ADD106ROUNDEDRECTD106*%
G04:AMPARAMS|DCode=107|XSize=27.685mil|YSize=39.496mil|CornerRadius=7.937mil|HoleSize=0mil|Usage=FLASHONLY|Rotation=270.000|XOffset=0mil|YOffset=0mil|HoleType=Round|Shape=RoundedRectangle|*
%AMROUNDEDRECTD107*
21,1,0.027685,0.023622,0,0,270.0*
21,1,0.011811,0.039496,0,0,270.0*
1,1,0.015874,-0.011811,-0.005906*
1,1,0.015874,-0.011811,0.005906*
1,1,0.015874,0.011811,0.005906*
1,1,0.015874,0.011811,-0.005906*
%
%ADD107ROUNDEDRECTD107*%
G04:AMPARAMS|DCode=108|XSize=27.685mil|YSize=39.496mil|CornerRadius=7.937mil|HoleSize=0mil|Usage=FLASHONLY|Rotation=180.000|XOffset=0mil|YOffset=0mil|HoleType=Round|Shape=RoundedRectangle|*
%AMROUNDEDRECTD108*
21,1,0.027685,0.023622,0,0,180.0*
21,1,0.011811,0.039496,0,0,180.0*
1,1,0.015874,-0.005906,0.011811*
1,1,0.015874,0.005906,0.011811*
1,1,0.015874,0.005906,-0.011811*
1,1,0.015874,-0.005906,-0.011811*
%
%ADD108ROUNDEDRECTD108*%
%ADD109R,0.043433X0.033591*%
%ADD110R,0.043433X0.047370*%
%ADD111R,0.035559X0.027685*%
%ADD112R,0.031622X0.041465*%
%ADD113R,0.041465X0.031622*%
G04:AMPARAMS|DCode=114|XSize=31.622mil|YSize=65.087mil|CornerRadius=6.008mil|HoleSize=0mil|Usage=FLASHONLY|Rotation=180.000|XOffset=0mil|YOffset=0mil|HoleType=Round|Shape=RoundedRectangle|*
%AMROUNDEDRECTD114*
21,1,0.031622,0.053071,0,0,180.0*
21,1,0.019606,0.065087,0,0,180.0*
1,1,0.012016,-0.009803,0.026535*
1,1,0.012016,0.009803,0.026535*
1,1,0.012016,0.009803,-0.026535*
1,1,0.012016,-0.009803,-0.026535*
%
%ADD114ROUNDEDRECTD114*%
%ADD115R,0.067055X0.035559*%
%ADD116R,0.067055X0.047370*%
%ADD117R,0.035559X0.067055*%
%ADD118R,0.039496X0.037748*%
%ADD119R,0.048000X0.043000*%
%ADD120R,0.045000X0.046000*%
%ADD121R,0.037748X0.039496*%
%ADD122R,0.031622X0.053276*%
%ADD123R,0.036346X0.035165*%
%ADD124R,0.019024X0.024142*%
%ADD125R,0.024142X0.019024*%
D12*
X754748Y1912693D02*
D03*
Y1749307D02*
D03*
X670102Y1912693D02*
D03*
Y1749307D02*
D03*
X923677Y1758307D02*
D03*
Y1921693D02*
D03*
X1008323Y1758307D02*
D03*
Y1921693D02*
D03*
D79*
X1865500Y679000D02*
D03*
X1924500D02*
D03*
X2086500Y1612000D02*
D03*
X2145500D02*
D03*
X2086500Y1554000D02*
D03*
X2145500D02*
D03*
X1847500Y1933000D02*
D03*
X1906500D02*
D03*
X1852500Y2122000D02*
D03*
X1911500D02*
D03*
D81*
X2831685Y1286000D02*
D03*
X1042315D02*
D03*
D82*
X497039D02*
D03*
X3376961D02*
D03*
D83*
X3778000Y1298000D02*
D03*
D84*
X117276Y1391284D02*
D03*
Y1176716D02*
D03*
D85*
X236567Y1379472D02*
D03*
Y1188528D02*
D03*
D86*
X70000Y976000D02*
D03*
Y776000D02*
D03*
Y876000D02*
D03*
Y1787000D02*
D03*
Y1687000D02*
D03*
Y1887000D02*
D03*
D87*
Y676000D02*
D03*
Y1587000D02*
D03*
D88*
X659000Y2419000D02*
D03*
X3186000Y160000D02*
D03*
X659000D02*
D03*
X3186000Y2419000D02*
D03*
D89*
X3600000Y2000000D02*
D03*
Y800000D02*
D03*
Y600000D02*
D03*
X3400000Y800000D02*
D03*
Y600000D02*
D03*
X3200000Y2200000D02*
D03*
Y2000000D02*
D03*
Y800000D02*
D03*
Y600000D02*
D03*
Y400000D02*
D03*
X3000000Y2000000D02*
D03*
Y1800000D02*
D03*
Y800000D02*
D03*
Y600000D02*
D03*
Y400000D02*
D03*
Y200000D02*
D03*
X2800000Y1000000D02*
D03*
Y600000D02*
D03*
Y400000D02*
D03*
X2600000Y2000000D02*
D03*
Y1000000D02*
D03*
Y800000D02*
D03*
Y600000D02*
D03*
Y400000D02*
D03*
X2400000Y1600000D02*
D03*
Y1200000D02*
D03*
Y1000000D02*
D03*
Y800000D02*
D03*
Y600000D02*
D03*
X2200000Y800000D02*
D03*
Y600000D02*
D03*
Y400000D02*
D03*
X2000000Y800000D02*
D03*
Y400000D02*
D03*
Y200000D02*
D03*
X1800000Y2000000D02*
D03*
Y1400000D02*
D03*
Y800000D02*
D03*
Y600000D02*
D03*
Y400000D02*
D03*
Y200000D02*
D03*
X1600000Y2000000D02*
D03*
Y1600000D02*
D03*
Y1400000D02*
D03*
Y1000000D02*
D03*
Y400000D02*
D03*
X1400000Y1400000D02*
D03*
Y1000000D02*
D03*
Y800000D02*
D03*
Y600000D02*
D03*
Y200000D02*
D03*
X1200000Y2000000D02*
D03*
Y1400000D02*
D03*
Y800000D02*
D03*
Y600000D02*
D03*
Y400000D02*
D03*
Y200000D02*
D03*
X1000000Y1600000D02*
D03*
Y800000D02*
D03*
Y600000D02*
D03*
Y400000D02*
D03*
Y200000D02*
D03*
X800000Y2400000D02*
D03*
Y2200000D02*
D03*
Y1600000D02*
D03*
Y1400000D02*
D03*
Y1200000D02*
D03*
Y1000000D02*
D03*
Y800000D02*
D03*
Y600000D02*
D03*
Y400000D02*
D03*
Y200000D02*
D03*
X600000Y2200000D02*
D03*
Y2000000D02*
D03*
Y1600000D02*
D03*
Y1400000D02*
D03*
Y1000000D02*
D03*
Y800000D02*
D03*
Y600000D02*
D03*
Y400000D02*
D03*
X400000Y2000000D02*
D03*
Y1600000D02*
D03*
Y1000000D02*
D03*
Y800000D02*
D03*
Y600000D02*
D03*
X200000Y2000000D02*
D03*
Y1600000D02*
D03*
Y1000000D02*
D03*
Y800000D02*
D03*
Y600000D02*
D03*
D90*
X2975650Y2457872D02*
D03*
X2933073Y2408717D02*
D03*
X2933806Y2382727D02*
D03*
X2944092Y2358849D02*
D03*
Y2332849D02*
D03*
Y2306849D02*
D03*
Y2280849D02*
D03*
X2935958Y2256154D02*
D03*
X2917573Y2237769D02*
D03*
X2899188Y2219384D02*
D03*
X2880803Y2200999D02*
D03*
X2838725Y2171908D02*
D03*
X2812725D02*
D03*
X2786725D02*
D03*
X2760725D02*
D03*
X2734725D02*
D03*
X2708725D02*
D03*
X2682725D02*
D03*
X2656725D02*
D03*
X2630729Y2171482D02*
D03*
X2607355Y2160095D02*
D03*
X2588970Y2141710D02*
D03*
X2570586Y2123326D02*
D03*
X2552201Y2104941D02*
D03*
X2533816Y2086556D02*
D03*
X2515431Y2068171D02*
D03*
X2497046Y2049787D02*
D03*
X2475606Y2035080D02*
D03*
X2449606D02*
D03*
X2423606D02*
D03*
X2397606D02*
D03*
X2371606D02*
D03*
X2345606D02*
D03*
X2319606D02*
D03*
X2293606D02*
D03*
X2267606D02*
D03*
X2241606D02*
D03*
X2215606D02*
D03*
X2189606D02*
D03*
X2163606D02*
D03*
X2137606D02*
D03*
X2111606D02*
D03*
X2085606D02*
D03*
X2059606D02*
D03*
X2033606D02*
D03*
X2007606D02*
D03*
X1981606D02*
D03*
X1866325Y1984088D02*
D03*
X1869242Y1856420D02*
D03*
X1943058Y1859276D02*
D03*
X1953054Y1909278D02*
D03*
X1953742Y1935269D02*
D03*
X1953207Y1961263D02*
D03*
X1979207D02*
D03*
X2005207D02*
D03*
X2031207D02*
D03*
X2057207D02*
D03*
X2083207D02*
D03*
X2109207D02*
D03*
X2135207D02*
D03*
X2161207D02*
D03*
X2187207D02*
D03*
X2213207D02*
D03*
X2239207D02*
D03*
X2265207D02*
D03*
X2291207D02*
D03*
X2317207D02*
D03*
X2343207D02*
D03*
X2369207D02*
D03*
X2395207D02*
D03*
X2421207D02*
D03*
X2447207D02*
D03*
X2473207D02*
D03*
X2499207Y1961341D02*
D03*
X2523101Y1971594D02*
D03*
X2541558Y1989906D02*
D03*
X2559943Y2008291D02*
D03*
X2578327Y2026676D02*
D03*
X2596712Y2045061D02*
D03*
X2615097Y2063445D02*
D03*
X2633482Y2081830D02*
D03*
X2653769Y2098092D02*
D03*
X2679769D02*
D03*
X2705769D02*
D03*
X2731769D02*
D03*
X2757769D02*
D03*
X2783769D02*
D03*
X2809769D02*
D03*
X2835769D02*
D03*
X2861769D02*
D03*
X2887040Y2104202D02*
D03*
X2906091Y2121896D02*
D03*
X2924476Y2140280D02*
D03*
X2942861Y2158665D02*
D03*
X2961246Y2177050D02*
D03*
X2979630Y2195434D02*
D03*
X2998015Y2213819D02*
D03*
X3014566Y2233871D02*
D03*
X3017908Y2259655D02*
D03*
Y2285655D02*
D03*
Y2311655D02*
D03*
Y2337655D02*
D03*
Y2363655D02*
D03*
X3028792Y2387267D02*
D03*
X1873092Y2172193D02*
D03*
X1867433Y2069547D02*
D03*
X1866026Y2043585D02*
D03*
X1873456Y2018669D02*
D03*
X1955974Y2042955D02*
D03*
X1954822Y2068930D02*
D03*
X1957211Y2094820D02*
D03*
X1958742Y2120775D02*
D03*
X1957917Y2146762D02*
D03*
X1946908Y2170316D02*
D03*
X709000Y1502000D02*
D03*
Y1476000D02*
D03*
X2703000Y774000D02*
D03*
X336000Y1282000D02*
D03*
Y1256000D02*
D03*
X2385000Y254000D02*
D03*
X2248000Y242000D02*
D03*
X3628000Y1241000D02*
D03*
X3567000Y1242000D02*
D03*
X2185000Y1005000D02*
D03*
X2130269Y1007778D02*
D03*
X3623000Y1007000D02*
D03*
X3789000Y944000D02*
D03*
X1923000Y1641000D02*
D03*
X1476000Y1700000D02*
D03*
X1775000Y731000D02*
D03*
X3305000Y1423000D02*
D03*
X3598000Y1395000D02*
D03*
X3241000Y1423000D02*
D03*
X1404000D02*
D03*
X1447000Y1111000D02*
D03*
X3143000Y1620687D02*
D03*
X3024000Y1519000D02*
D03*
X1859000Y1151000D02*
D03*
X2059000Y1273000D02*
D03*
X2063000Y1735121D02*
D03*
X1502000Y1732000D02*
D03*
Y1767000D02*
D03*
X2063000Y1689000D02*
D03*
X3622000Y1923000D02*
D03*
X3761000D02*
D03*
X3690000D02*
D03*
X3017000Y2028000D02*
D03*
X2941000Y1915000D02*
D03*
X2806000Y1909000D02*
D03*
X2896000Y1520000D02*
D03*
X2125000Y1324000D02*
D03*
X3242000Y2062000D02*
D03*
X1258000Y1167000D02*
D03*
X1209000Y1224000D02*
D03*
X1386331Y1265046D02*
D03*
X1439176Y273125D02*
D03*
X2063000Y1781243D02*
D03*
X2940000Y1691000D02*
D03*
X3084000Y1701000D02*
D03*
Y1754000D02*
D03*
X3222000Y1919000D02*
D03*
X554000Y1050000D02*
D03*
X1360000Y1574000D02*
D03*
X1353000Y1952000D02*
D03*
X1599000Y1886000D02*
D03*
X1482000Y2063000D02*
D03*
X1402000D02*
D03*
X1880000Y472000D02*
D03*
X3074000Y1934000D02*
D03*
X3713000Y1554000D02*
D03*
X3047000Y791000D02*
D03*
X1561000Y2063000D02*
D03*
X1679000Y1886000D02*
D03*
X1638000D02*
D03*
X3275000Y1624000D02*
D03*
X2245000Y1571000D02*
D03*
X669000Y1694000D02*
D03*
X1502000Y1605000D02*
D03*
Y1571000D02*
D03*
X1069000Y2039000D02*
D03*
X1502000Y1636000D02*
D03*
Y1670000D02*
D03*
X1455000D02*
D03*
X1435000Y1308000D02*
D03*
X3149000Y613000D02*
D03*
X3610000Y1792000D02*
D03*
X3241000Y2009000D02*
D03*
X805000Y1996000D02*
D03*
X1603000Y1271000D02*
D03*
X1468000Y405000D02*
D03*
X2490000Y298000D02*
D03*
X2286000Y295000D02*
D03*
D91*
X2864000Y1007000D02*
D03*
X1638000Y598000D02*
D03*
D96*
X3181000Y921425D02*
D03*
Y974575D02*
D03*
X3298000Y2062575D02*
D03*
Y2009425D02*
D03*
X2534000Y138575D02*
D03*
Y85425D02*
D03*
X2340000Y324575D02*
D03*
Y271425D02*
D03*
X3308000Y1516575D02*
D03*
Y1463425D02*
D03*
X3763000Y1794425D02*
D03*
Y1847575D02*
D03*
X1711000Y2001575D02*
D03*
Y1948425D02*
D03*
X2011000Y1217425D02*
D03*
Y1270575D02*
D03*
X1818000Y1220425D02*
D03*
Y1273575D02*
D03*
X1647000Y1220425D02*
D03*
Y1273575D02*
D03*
X1387000Y1115575D02*
D03*
Y1062425D02*
D03*
X3629928Y1342230D02*
D03*
Y1289080D02*
D03*
X3025000Y1638575D02*
D03*
Y1585425D02*
D03*
X2942000Y2027575D02*
D03*
Y1974425D02*
D03*
X3144000Y1754575D02*
D03*
Y1701425D02*
D03*
X3561000Y1840575D02*
D03*
Y1787425D02*
D03*
X2947000Y516425D02*
D03*
Y569575D02*
D03*
X3678000Y1061575D02*
D03*
Y1008425D02*
D03*
X1403000Y1359575D02*
D03*
Y1306425D02*
D03*
X1955000Y1270575D02*
D03*
Y1217425D02*
D03*
X1898000Y1270575D02*
D03*
Y1217425D02*
D03*
X1758000Y1273575D02*
D03*
Y1220425D02*
D03*
X1702500Y1273575D02*
D03*
Y1220425D02*
D03*
X1641000Y2002575D02*
D03*
Y1949425D02*
D03*
D97*
X3020425Y1877000D02*
D03*
X3073575D02*
D03*
X2249575Y140000D02*
D03*
X2196425D02*
D03*
X2249575Y200000D02*
D03*
X2196425D02*
D03*
X2732575Y222000D02*
D03*
X2679425D02*
D03*
X1621575Y238000D02*
D03*
X1568425D02*
D03*
X1621575Y316000D02*
D03*
X1568425D02*
D03*
X1589425Y538000D02*
D03*
X1642575D02*
D03*
X2813425Y949000D02*
D03*
X2866575D02*
D03*
X941850Y2042000D02*
D03*
X995000D02*
D03*
X3201575Y659000D02*
D03*
X3148425D02*
D03*
D98*
X659787Y1525402D02*
D03*
Y1488000D02*
D03*
Y1450598D02*
D03*
X758213D02*
D03*
Y1488000D02*
D03*
Y1525402D02*
D03*
X2950787Y657598D02*
D03*
Y732402D02*
D03*
X3049213D02*
D03*
Y695000D02*
D03*
Y657598D02*
D03*
X2953787Y948598D02*
D03*
Y1023402D02*
D03*
X3052213D02*
D03*
Y986000D02*
D03*
Y948598D02*
D03*
D99*
X3222402Y1826409D02*
D03*
Y1852000D02*
D03*
Y1877591D02*
D03*
X3147598D02*
D03*
Y1826409D02*
D03*
D100*
X2337409Y131598D02*
D03*
X2363000D02*
D03*
X2388591D02*
D03*
Y206402D02*
D03*
X2363000D02*
D03*
X2337409D02*
D03*
D101*
X2802528Y784354D02*
D03*
X2743472D02*
D03*
D102*
X2922930Y2469000D02*
D03*
X3039070D02*
D03*
X2846070Y109000D02*
D03*
X2729930D02*
D03*
D103*
X2981000Y2408960D02*
D03*
X2788000Y169040D02*
D03*
D104*
X1910000Y2248110D02*
D03*
Y2511890D02*
D03*
D105*
X476787Y1506307D02*
D03*
Y1479693D02*
D03*
X515173D02*
D03*
Y1506307D02*
D03*
D106*
X1862685Y1683984D02*
D03*
Y1585559D02*
D03*
Y1487134D02*
D03*
X1764260Y1683984D02*
D03*
Y1585559D02*
D03*
Y1487134D02*
D03*
X1665835Y1683984D02*
D03*
Y1585559D02*
D03*
Y1487134D02*
D03*
D107*
X1559535Y1763709D02*
D03*
Y1732213D02*
D03*
Y1700717D02*
D03*
Y1669221D02*
D03*
Y1637725D02*
D03*
Y1606228D02*
D03*
Y1574732D02*
D03*
Y1543236D02*
D03*
Y1511740D02*
D03*
Y1480244D02*
D03*
Y1448748D02*
D03*
Y1417252D02*
D03*
X1968984Y1412331D02*
D03*
Y1443827D02*
D03*
Y1475323D02*
D03*
Y1506819D02*
D03*
Y1538315D02*
D03*
Y1569811D02*
D03*
Y1601307D02*
D03*
Y1632803D02*
D03*
Y1664299D02*
D03*
Y1695795D02*
D03*
Y1727291D02*
D03*
Y1758787D02*
D03*
D108*
X1591032Y1808000D02*
D03*
X1622527D02*
D03*
X1654024D02*
D03*
X1685520D02*
D03*
X1717016D02*
D03*
X1748512D02*
D03*
X1780008D02*
D03*
X1811504D02*
D03*
X1843000D02*
D03*
X1874496D02*
D03*
X1905992D02*
D03*
X1937488D02*
D03*
Y1363118D02*
D03*
X1905992D02*
D03*
X1874496D02*
D03*
X1843000D02*
D03*
X1811504D02*
D03*
X1780008D02*
D03*
X1748512D02*
D03*
X1717016D02*
D03*
X1685520D02*
D03*
X1654024D02*
D03*
X1622527D02*
D03*
X1591032D02*
D03*
D109*
X3552213Y911638D02*
D03*
Y866362D02*
D03*
D110*
X3453787Y889000D02*
D03*
D111*
X3169000Y1181236D02*
D03*
Y1210764D02*
D03*
X3113000Y913764D02*
D03*
Y884236D02*
D03*
X3486000Y1509764D02*
D03*
Y1480236D02*
D03*
X2868000Y855236D02*
D03*
Y884764D02*
D03*
D112*
X3500410Y1397000D02*
D03*
X3551591D02*
D03*
X679835Y2037000D02*
D03*
X731016D02*
D03*
X2540410Y219000D02*
D03*
X2591591D02*
D03*
X3498410Y1194000D02*
D03*
X3549591D02*
D03*
X2796590Y859000D02*
D03*
X2745409D02*
D03*
X1866409Y729000D02*
D03*
X1917591D02*
D03*
X3413410Y1579000D02*
D03*
X3464591D02*
D03*
X3417590Y1514000D02*
D03*
X3366409D02*
D03*
D113*
X2438000Y325591D02*
D03*
Y274409D02*
D03*
X3242000Y1519591D02*
D03*
Y1468409D02*
D03*
X1911000Y2049352D02*
D03*
Y1998171D02*
D03*
X3687000Y1345591D02*
D03*
Y1294409D02*
D03*
X1403000Y2004591D02*
D03*
Y1953409D02*
D03*
X1482000Y2003591D02*
D03*
Y1952409D02*
D03*
X2127000Y1414591D02*
D03*
Y1363409D02*
D03*
X3696000Y1798409D02*
D03*
Y1849591D02*
D03*
D114*
X3299000Y1702716D02*
D03*
X3349000D02*
D03*
X3399000D02*
D03*
X3449000D02*
D03*
X3299000Y1917283D02*
D03*
X3349000D02*
D03*
X3399000D02*
D03*
X3449000D02*
D03*
X3561000Y1482716D02*
D03*
X3611000D02*
D03*
X3661000D02*
D03*
X3711000D02*
D03*
X3561000Y1697283D02*
D03*
X3611000D02*
D03*
X3661000D02*
D03*
X3711000D02*
D03*
D115*
X1741543Y562591D02*
D03*
Y523221D02*
D03*
Y483850D02*
D03*
Y444480D02*
D03*
Y405110D02*
D03*
Y365740D02*
D03*
Y326370D02*
D03*
Y287000D02*
D03*
Y247630D02*
D03*
Y208260D02*
D03*
Y168890D02*
D03*
Y129520D02*
D03*
X2088000D02*
D03*
Y168890D02*
D03*
Y208260D02*
D03*
Y247630D02*
D03*
Y287000D02*
D03*
Y326370D02*
D03*
Y365740D02*
D03*
Y405110D02*
D03*
Y444480D02*
D03*
Y483850D02*
D03*
Y523221D02*
D03*
Y562591D02*
D03*
D116*
X1741543Y84244D02*
D03*
X2088000D02*
D03*
D117*
X1993512Y578339D02*
D03*
X1954142D02*
D03*
X1914772D02*
D03*
X1875402D02*
D03*
X1836032D02*
D03*
D118*
X3568000Y1284378D02*
D03*
Y1345622D02*
D03*
X2896000Y1585378D02*
D03*
Y1646622D02*
D03*
X2958000Y1645622D02*
D03*
Y1584378D02*
D03*
X2876000Y2032622D02*
D03*
Y1971378D02*
D03*
X2807000Y1972378D02*
D03*
Y2033622D02*
D03*
X3114000Y1326378D02*
D03*
Y1387622D02*
D03*
X3112000Y1179378D02*
D03*
Y1240622D02*
D03*
D119*
X2123000Y1482000D02*
D03*
X2067000D02*
D03*
X1868000Y792000D02*
D03*
X1924000D02*
D03*
D120*
X493000Y1110500D02*
D03*
Y1051500D02*
D03*
X1560000Y2006500D02*
D03*
Y1947500D02*
D03*
X2949000Y1809500D02*
D03*
Y1750500D02*
D03*
X1402000Y1727500D02*
D03*
Y1786500D02*
D03*
X1321000Y1785500D02*
D03*
Y1726500D02*
D03*
D121*
X3202622Y733000D02*
D03*
X3141378D02*
D03*
D122*
X3774000Y1108213D02*
D03*
X3811402Y1009787D02*
D03*
X3736598D02*
D03*
D123*
X2595000Y82118D02*
D03*
Y121882D02*
D03*
D124*
X1347472Y1180913D02*
D03*
X1367158D02*
D03*
X1386842D02*
D03*
X1406528D02*
D03*
Y1245087D02*
D03*
X1386842D02*
D03*
X1367158D02*
D03*
X1347472D02*
D03*
D125*
X1409087Y1203158D02*
D03*
Y1222842D02*
D03*
X1344913D02*
D03*
Y1203158D02*
D03*
%TF.MD5,f2396de36dd8b886776fdde8765fce3e*%
M02*
