%TF.GenerationSoftware,Altium Limited,Altium Designer,19.1.9 (167)*%
G04 Layer_Color=0*
%FSLAX26Y26*%
%MOIN*%
%TF.FileFunction,Other,Bottom_Courtyard*%
%TF.Part,Single*%
G01*
G75*
%TA.AperFunction,NonConductor*%
%ADD92C,0.003937*%
%ADD95C,0.006000*%
D92*
X712425Y1811315D02*
Y1850685D01*
X692740Y1831000D02*
X732110D01*
X966000Y1820315D02*
Y1859685D01*
X946315Y1840000D02*
X985685D01*
D95*
X3552252Y1283504D02*
Y1346496D01*
X3583748D01*
Y1283504D02*
Y1346496D01*
X3552252Y1283504D02*
X3583748D01*
X3593748Y1259504D02*
Y1370496D01*
X3542252D02*
X3593748D01*
X3542252Y1259504D02*
Y1370496D01*
Y1259504D02*
X3593748D01*
X2880252Y1584504D02*
Y1647496D01*
X2911748D01*
Y1584504D02*
Y1647496D01*
X2880252Y1584504D02*
X2911748D01*
X2921748Y1560504D02*
Y1671496D01*
X2870252D02*
X2921748D01*
X2870252Y1560504D02*
Y1671496D01*
Y1560504D02*
X2921748D01*
X2973748Y1583504D02*
Y1646496D01*
X2942252Y1583504D02*
X2973748D01*
X2942252D02*
Y1646496D01*
X2973748D01*
X2932252Y1559504D02*
Y1670496D01*
Y1559504D02*
X2983748D01*
Y1670496D01*
X2932252D02*
X2983748D01*
X2891748Y1970504D02*
Y2033496D01*
X2860252Y1970504D02*
X2891748D01*
X2860252D02*
Y2033496D01*
X2891748D01*
X2850252Y1946504D02*
Y2057496D01*
Y1946504D02*
X2901748D01*
Y2057496D01*
X2850252D02*
X2901748D01*
X2791252Y1971504D02*
Y2034496D01*
X2822748D01*
Y1971504D02*
Y2034496D01*
X2791252Y1971504D02*
X2822748D01*
X2832748Y1947504D02*
Y2058496D01*
X2781252D02*
X2832748D01*
X2781252Y1947504D02*
Y2058496D01*
Y1947504D02*
X2832748D01*
X474500Y1046500D02*
Y1115500D01*
X511500D01*
Y1046500D02*
Y1115500D01*
X474500Y1046500D02*
X511500D01*
X521500Y1022500D02*
Y1139500D01*
X464500D02*
X521500D01*
X464500Y1022500D02*
Y1139500D01*
Y1022500D02*
X521500D01*
X3140504Y717252D02*
X3203496D01*
X3140504D02*
Y748748D01*
X3203496D01*
Y717252D02*
Y748748D01*
X3116504Y758748D02*
X3227496D01*
X3116504Y707252D02*
Y758748D01*
Y707252D02*
X3227496D01*
Y758748D01*
X1541500Y1942500D02*
Y2011500D01*
X1578500D01*
Y1942500D02*
Y2011500D01*
X1541500Y1942500D02*
X1578500D01*
X1588500Y1918500D02*
Y2035500D01*
X1531500D02*
X1588500D01*
X1531500Y1918500D02*
Y2035500D01*
Y1918500D02*
X1588500D01*
X2930500Y1745500D02*
Y1814500D01*
X2967500D01*
Y1745500D02*
Y1814500D01*
X2930500Y1745500D02*
X2967500D01*
X2977500Y1721500D02*
Y1838500D01*
X2920500D02*
X2977500D01*
X2920500Y1721500D02*
Y1838500D01*
Y1721500D02*
X2977500D01*
X1373500Y1698500D02*
X1430500D01*
X1373500D02*
Y1815500D01*
X1430500D01*
Y1698500D02*
Y1815500D01*
X1383500Y1722500D02*
X1420500D01*
Y1791500D01*
X1383500D02*
X1420500D01*
X1383500Y1722500D02*
Y1791500D01*
X1292500Y1814500D02*
X1349500D01*
Y1697500D02*
Y1814500D01*
X1292500Y1697500D02*
X1349500D01*
X1292500D02*
Y1814500D01*
X1302500Y1790500D02*
X1339500D01*
X1302500Y1721500D02*
Y1790500D01*
Y1721500D02*
X1339500D01*
Y1790500D01*
X1860500Y660500D02*
X1929500D01*
X1860500D02*
Y697500D01*
X1929500D01*
Y660500D02*
Y697500D01*
X1836500Y707500D02*
X1953500D01*
X1836500Y650500D02*
Y707500D01*
Y650500D02*
X1953500D01*
Y707500D01*
X3088252Y1412496D02*
X3139748D01*
Y1301504D02*
Y1412496D01*
X3088252Y1301504D02*
X3139748D01*
X3088252D02*
Y1412496D01*
X3098252Y1388496D02*
X3129748D01*
X3098252Y1325504D02*
Y1388496D01*
Y1325504D02*
X3129748D01*
Y1388496D01*
X3086252Y1265496D02*
X3137748D01*
Y1154504D02*
Y1265496D01*
X3086252Y1154504D02*
X3137748D01*
X3086252D02*
Y1265496D01*
X3096252Y1241496D02*
X3127748D01*
X3096252Y1178504D02*
Y1241496D01*
Y1178504D02*
X3127748D01*
Y1241496D01*
X2081500Y1593500D02*
X2150500D01*
X2081500D02*
Y1630500D01*
X2150500D01*
Y1593500D02*
Y1630500D01*
X2057500Y1640500D02*
X2174500D01*
X2057500Y1583500D02*
Y1640500D01*
Y1583500D02*
X2174500D01*
Y1640500D01*
X2081500Y1535500D02*
X2150500D01*
X2081500D02*
Y1572500D01*
X2150500D01*
Y1535500D02*
Y1572500D01*
X2057500Y1582500D02*
X2174500D01*
X2057500Y1525500D02*
Y1582500D01*
Y1525500D02*
X2174500D01*
Y1582500D01*
X1842500Y1914500D02*
X1911500D01*
X1842500D02*
Y1951500D01*
X1911500D01*
Y1914500D02*
Y1951500D01*
X1818500Y1961500D02*
X1935500D01*
X1818500Y1904500D02*
Y1961500D01*
Y1904500D02*
X1935500D01*
Y1961500D01*
X1847500Y2103500D02*
X1916500D01*
X1847500D02*
Y2140500D01*
X1916500D01*
Y2103500D02*
Y2140500D01*
X1823500Y2150500D02*
X1940500D01*
X1823500Y2093500D02*
Y2150500D01*
Y2093500D02*
X1940500D01*
Y2150500D01*
%TF.MD5,c59c3ad19751e05ae3c0e97fecd54cbe*%
M02*
