M48
;Layer_Color=9474304
;FILE_FORMAT=2:5
INCH,LZ
;TYPE=PLATED
T1F00S00C0.01200
T2F00S00C0.01600
T3F00S00C0.02000
T6F00S00C0.03937
T7F00S00C0.05000
T9F00S00C0.12000
T10F00S00C0.16000
%
T01
X002Y006
X004
X006
X0067393Y0078792
X00621Y00887
X0054368Y0105
X004Y01
X002
X003Y008
X00336Y01256
Y01282
X006Y014
X00709Y01476
Y01502
X008Y014
X009Y012
X0121924Y01224
X0124892Y0115503
X0131984Y0118084
X0138633Y0126505
X01435Y01308
X014Y014
X01394Y01507
X015Y012
X01447Y01111
X014Y01
X012
X01196Y00741
X01066Y00761
Y00806
X0091Y00757
Y00729
X010125Y006425
X01095Y00607
X01293Y00606
X013Y008
Y004
X01468Y00405
X0143918Y0027312
X014Y002
X012
X01
X008
X009Y004
X00926Y00556
X011Y004
X007
X005
X019
X0188Y00472
X018Y002
X02
X02248Y00242
X02286Y00295
X023Y004
X025
X0249Y00298
X02385Y00254
X024Y006
X026
X028
X03
X03047Y00791
X031Y008
X03Y00992
X031Y012
X03Y014
X03024Y01519
X02896Y0152
X026Y014
X027Y012
X025
X023
X02119Y01117
X02065Y01069
X0213027Y0100778
X02194Y01009
X021Y008
X023
X025
X02703Y00774
X026Y01
X0213581Y0131319
X02011Y01313
X018Y014
X016
X01603Y01271
X016Y01
X017Y008
X01775Y00731
X01859Y01151
X0224069Y0155656
X029Y004
X031
X03Y002
X0317414Y00455
X032Y006
X03149Y00613
X034Y006
X036
X037Y008
X035
X033
X034Y01
X03623Y01007
X03789Y00944
X03628Y01241
X03567Y01242
X03598Y01395
X0347098Y0142004
X034Y014
X03305Y01423
X03241
X032Y014
X033Y012
X03713Y01554
X033Y004
X03275Y01624
X03143Y0162069
X032Y018
X03289Y01804
X03222Y01919
X03241Y02009
X03242Y02062
X0335Y02004
X035Y02
X03622Y01923
X0369
X03761
X037Y02
X0361Y01792
X03508Y01757
X03507Y01685
X032Y022
X033Y024
X031
X0302879Y0238727
X0301791Y0236366
Y0233766
Y0231166
Y0228566
Y0225965
X0301457Y0223387
X0299801Y0221382
X0297963Y0219543
X0296125Y0217705
X0294286Y0215866
X0292448Y0214028
X0290609Y021219
X0288704Y021042
X0286177Y0209809
X0283577
X0280977
X0278377
X0275777
X0273177
X0270577
X0267977
X0265377
X0263348Y0208183
X026151Y0206345
X0259671Y0204506
X0257833Y0202668
X0255994Y0200829
X0254156Y0198991
X025231Y0197159
X0249921Y0196134
X0247321Y0196126
X0244721
X0242121
X0239521
X0236921
X0234321
X0231721
X0229121
X0226521
X0223921
X0221321
X0218721
X0216121
X0213521
X0210921
X0208321
X0205721
X0203121
X0200521
X0197921
X0195321
X0195374Y0193527
X0195305Y0190928
X0194306Y0185928
X0186924Y0185642
X0186633Y0198409
X0186604Y0201009
X0187829Y0203302
X0186743Y0206955
X0195482Y0206893
X0195721Y0209482
X0195874Y0212077
X0195792Y0214676
X0194691Y0217032
X0187309Y0217219
X0195561Y0203508
X0198161
X0200761
X0203361
X0205961
X0208561
X0211161
X0213761
X0216361
X0218961
X0221561
X0224161
X0226761
X0229361
X0231961
X0234561
X0237161
X0239761
X0242361
X0244961
X0247561
X0249705Y0204979
X0251543Y0206817
X0253382Y0208656
X025522Y0210494
X0257059Y0212333
X0258897Y0214171
X0260736Y0216009
X0263073Y0217148
X0265672Y0217191
X0268272
X0270872
X0273472
X0276073
X0278673
X0281273
X0283873
X028808Y02201
X0289919Y0221938
X0291757Y0223777
X0293596Y0225615
X0294409Y0228085
Y0230685
Y0233285
Y0235885
X0293381Y0238273
X0293307Y0240872
X029Y024
X0297565Y0245787
X03017Y02028
X031Y02
X0305Y01941
X02941Y01915
X02806Y01909
X028Y018
X03
X03084Y01754
Y01701
X0294Y01691
X027Y016
X025
X026Y018
X024
X022
X02059Y01754
X0206138Y0170248
X02Y018
X01794Y01747
X01799Y01598
X01924Y01596
X01598Y01747
X01599Y01886
X01638
X01679
X027Y02
X01561Y02063
X01482
X01402
X01353Y01952
X013Y02
X011
X01069Y02039
X009Y02
X00805Y01996
X007Y02
X005
X003
Y016
X005
X007
X00669Y01694
X009Y016
X0136Y0157164
X01502Y0157336
Y01605
Y01636
Y0167
X01455
X01476Y017
X01502Y01732
Y01767
X008Y022
X006
T02
X01638Y00598
X02864Y01007
T03
X00812Y00292
X00878
T06
X0007Y00676
Y00776
Y00876
Y00976
Y01587
Y01687
Y01787
Y01887
T07
X03778Y01298
T09
X00659Y0016
X03186
Y02419
X00659
T10
X0104232Y01286
X0283169
M30
