G04*
G04 #@! TF.GenerationSoftware,Altium Limited,Altium Designer,21.6.1 (37)*
G04*
G04 Layer_Color=32896*
%FSLAX44Y44*%
%MOMM*%
G71*
G04*
G04 #@! TF.SameCoordinates,8A31D3E6-7417-4931-9B95-E7CF89301AF7*
G04*
G04*
G04 #@! TF.FilePolarity,Positive*
G04*
G01*
G75*
%ADD10C,0.2500*%
%ADD11C,0.2000*%
%ADD15C,0.2540*%
%ADD17C,0.1270*%
D10*
X73538Y313136D02*
G03*
X73538Y313136I-1250J0D01*
G01*
D11*
X1588Y366336D02*
X39288D01*
X1588Y285936D02*
Y366336D01*
Y285936D02*
X22916D01*
X1588D02*
X39288D01*
D15*
X624332Y610614D02*
X634489D01*
Y595378D01*
X624332D01*
X634489Y602996D02*
X629410D01*
X619254Y595378D02*
X614175D01*
X616714D01*
Y610614D01*
X619254Y608074D01*
X64348Y404112D02*
X68580D01*
Y400938D01*
X66464D01*
X68580D01*
Y397764D01*
X62232Y404112D02*
Y397764D01*
X59058D01*
X58000Y398822D01*
Y399880D01*
X59058Y400938D01*
X62232D01*
X59058D01*
X58000Y401996D01*
Y403054D01*
X59058Y404112D01*
X62232D01*
X52710Y397764D02*
Y404112D01*
X55884Y400938D01*
X51652D01*
X57486Y270143D02*
Y268027D01*
Y269085D01*
X52196D01*
X51138Y268027D01*
Y266969D01*
X52196Y265911D01*
X51138Y272259D02*
Y274375D01*
Y273317D01*
X57486D01*
X56428Y272259D01*
D17*
X890748Y141244D02*
Y512044D01*
X93248Y141244D02*
X890748D01*
X93248D02*
Y512044D01*
X890748D01*
X121998Y536644D02*
X141998D01*
X851998Y526644D02*
Y536644D01*
Y546644D01*
Y536644D02*
X861998D01*
X841998D02*
X851998D01*
M02*
