G04*
G04 #@! TF.GenerationSoftware,Altium Limited,Altium Designer,21.6.4 (81)*
G04*
G04 Layer_Color=32896*
%FSLAX25Y25*%
%MOIN*%
G70*
G04*
G04 #@! TF.SameCoordinates,D92126B2-5F21-4161-9152-1B55B43E0DBD*
G04*
G04*
G04 #@! TF.FilePolarity,Positive*
G04*
G01*
G75*
%ADD10C,0.00984*%
%ADD11C,0.01000*%
%ADD15C,0.00500*%
%ADD17C,0.00787*%
D10*
X28952Y123282D02*
G03*
X28952Y123282I-492J0D01*
G01*
D11*
X26434Y159699D02*
X28100D01*
Y158450D01*
X27267D01*
X28100D01*
Y157200D01*
X25601Y159699D02*
Y157200D01*
X24351D01*
X23935Y157616D01*
Y158033D01*
X24351Y158450D01*
X25601D01*
X24351D01*
X23935Y158866D01*
Y159283D01*
X24351Y159699D01*
X25601D01*
X21852Y157200D02*
Y159699D01*
X23102Y158450D01*
X21436D01*
X22632Y106356D02*
Y105522D01*
Y105939D01*
X20550D01*
X20133Y105522D01*
Y105106D01*
X20550Y104689D01*
X20133Y107189D02*
Y108022D01*
Y107605D01*
X22632D01*
X22216Y107189D01*
D15*
X350688Y55608D02*
Y201592D01*
X36712Y55608D02*
X350688D01*
X36712D02*
Y201592D01*
X350688D01*
X48031Y211277D02*
X55905D01*
X335432Y207340D02*
Y211277D01*
Y215214D01*
Y211277D02*
X339369D01*
X331495D02*
X335432D01*
D17*
X625Y112573D02*
X15468D01*
X625D02*
X9022D01*
X625D02*
Y144227D01*
X15468D01*
M02*
