G04*
G04 #@! TF.GenerationSoftware,Altium Limited,Altium Designer,21.6.1 (37)*
G04*
G04 Layer_Color=128*
%FSLAX44Y44*%
%MOMM*%
G71*
G04*
G04 #@! TF.SameCoordinates,1A0BCF72-60D2-4BA0-9B7A-98A30DA12748*
G04*
G04*
G04 #@! TF.FilePolarity,Positive*
G04*
G01*
G75*
%ADD33R,0.9652X0.9398*%
%ADD141R,2.5000X1.4250*%
%ADD142R,1.7500X0.4000*%
%ADD144R,1.4600X2.0000*%
G36*
X50288Y287136D02*
X43288D01*
Y292386D01*
X22788D01*
X22398Y292406D01*
X22018Y292446D01*
X21839Y292491D01*
X21658Y292546D01*
X21298Y292656D01*
X20918Y292846D01*
X20568Y293056D01*
X20248Y293296D01*
X19948Y293556D01*
X19678Y293866D01*
X19428Y294196D01*
X19228Y294556D01*
X19048Y294926D01*
X18918Y295336D01*
X18858Y295646D01*
X18808Y296016D01*
X18788Y296386D01*
Y301386D01*
X18808Y301816D01*
X18873Y302231D01*
X18978Y302626D01*
X19128Y303016D01*
X19298Y303336D01*
X19478Y303646D01*
X19723Y303971D01*
X19988Y304236D01*
X20268Y304496D01*
X20568Y304706D01*
X20918Y304926D01*
X21278Y305086D01*
X21598Y305206D01*
X21768Y305256D01*
X21938Y305296D01*
X22138Y305336D01*
X22348Y305376D01*
X22568Y305386D01*
X50288D01*
Y287136D01*
D02*
G37*
G36*
X50288Y346886D02*
X22568D01*
X22348Y346896D01*
X22138Y346936D01*
X21938Y346976D01*
X21768Y347016D01*
X21598Y347066D01*
X21278Y347186D01*
X20918Y347346D01*
X20568Y347566D01*
X20268Y347776D01*
X19988Y348036D01*
X19723Y348301D01*
X19478Y348626D01*
X19298Y348936D01*
X19128Y349256D01*
X18978Y349646D01*
X18873Y350041D01*
X18808Y350456D01*
X18788Y350886D01*
Y355886D01*
X18808Y356256D01*
X18858Y356626D01*
X18918Y356936D01*
X19048Y357346D01*
X19228Y357716D01*
X19428Y358076D01*
X19678Y358406D01*
X19948Y358716D01*
X20248Y358976D01*
X20568Y359216D01*
X20918Y359426D01*
X21298Y359616D01*
X21658Y359726D01*
X21839Y359781D01*
X22018Y359826D01*
X22398Y359866D01*
X22788Y359886D01*
X43288D01*
Y365136D01*
X50288D01*
Y346886D01*
D02*
G37*
D33*
X47879Y382270D02*
D03*
X62865D02*
D03*
D141*
X27288Y335761D02*
D03*
Y316511D02*
D03*
D142*
X58038Y339136D02*
D03*
Y332636D02*
D03*
Y313136D02*
D03*
Y319636D02*
D03*
Y326136D02*
D03*
D144*
X60087Y297136D02*
D03*
X60088Y355136D02*
D03*
M02*
