G04*
G04 #@! TF.GenerationSoftware,Altium Limited,Altium Designer,21.6.1 (37)*
G04*
G04 Layer_Color=128*
%FSLAX44Y44*%
%MOMM*%
G71*
G04*
G04 #@! TF.SameCoordinates,8A31D3E6-7417-4931-9B95-E7CF89301AF7*
G04*
G04*
G04 #@! TF.FilePolarity,Positive*
G04*
G01*
G75*
%ADD155C,0.0508*%
D155*
X581219Y602488D02*
X588839D01*
X585029Y598678D02*
Y606298D01*
X26288Y298886D02*
X33288D01*
X29788Y295386D02*
Y302386D01*
X56838Y301886D02*
X63338D01*
X60088Y298636D02*
Y305136D01*
X56838Y350386D02*
X63338D01*
X60088Y347136D02*
Y353636D01*
X26288Y353386D02*
X33288D01*
X29788Y349886D02*
Y356886D01*
X697248Y326644D02*
X741248D01*
X719248Y304644D02*
Y348644D01*
X119898Y326644D02*
X132598D01*
X126248Y320294D02*
Y332994D01*
X851398Y326644D02*
X864098D01*
X857748Y320294D02*
Y332994D01*
X242748Y326644D02*
X286748D01*
X264748Y304644D02*
Y348644D01*
X953262Y329692D02*
X965962D01*
X959612Y323342D02*
Y336042D01*
X15066Y469900D02*
X25066D01*
X20066Y464900D02*
Y474900D01*
X15066Y393700D02*
X25066D01*
X20066Y388700D02*
Y398700D01*
X15066Y419100D02*
X25066D01*
X20066Y414100D02*
Y424100D01*
X15066Y444500D02*
X25066D01*
X20066Y439500D02*
Y449500D01*
X15066Y229108D02*
X25066D01*
X20066Y224108D02*
Y234108D01*
X15066Y203708D02*
X25066D01*
X20066Y198708D02*
Y208708D01*
X15066Y178308D02*
X25066D01*
X20066Y173308D02*
Y183308D01*
X15066Y254508D02*
X25066D01*
X20066Y249508D02*
Y259508D01*
X152146Y614426D02*
X182626D01*
X167386Y599186D02*
Y629666D01*
X794004Y40640D02*
X824484D01*
X809244Y25400D02*
Y55880D01*
X152146Y40640D02*
X182626D01*
X167386Y25400D02*
Y55880D01*
X794004Y614426D02*
X824484D01*
X809244Y599186D02*
Y629666D01*
X541528Y639572D02*
X544576D01*
X543052Y638048D02*
Y641096D01*
X560832Y639826D02*
X563880D01*
X562356Y638302D02*
Y641350D01*
X541528Y569595D02*
X544576D01*
X543052Y568071D02*
Y571119D01*
X423110Y639445D02*
X426158D01*
X424634Y637921D02*
Y640969D01*
X403479Y639572D02*
X406527D01*
X405003Y638048D02*
Y641096D01*
X383758Y639572D02*
X386806D01*
X385282Y638048D02*
Y641096D01*
X364037Y639572D02*
X367085D01*
X365561Y638048D02*
Y641096D01*
X344315Y639572D02*
X347363D01*
X345839Y638048D02*
Y641096D01*
X324504Y639445D02*
X327551D01*
X326027Y637921D02*
Y640969D01*
X304873Y639572D02*
X307921D01*
X306397Y638048D02*
Y641096D01*
X285569Y569849D02*
X288617D01*
X287093Y568325D02*
Y571373D01*
X304873Y569595D02*
X307921D01*
X306397Y568071D02*
Y571119D01*
X324594Y569595D02*
X327642D01*
X326118Y568071D02*
Y571119D01*
X344315Y569595D02*
X347363D01*
X345839Y568071D02*
Y571119D01*
X364037Y569595D02*
X367085D01*
X365561Y568071D02*
Y571119D01*
X383758Y569595D02*
X386806D01*
X385282Y568071D02*
Y571119D01*
X403479Y569595D02*
X406527D01*
X405003Y568071D02*
Y571119D01*
X423200Y569595D02*
X426248D01*
X424724Y568071D02*
Y571119D01*
X442922Y569595D02*
X445970D01*
X444446Y568071D02*
Y571119D01*
X462643Y569595D02*
X465691D01*
X464167Y568071D02*
Y571119D01*
X482364Y569595D02*
X485412D01*
X483888Y568071D02*
Y571119D01*
X502085Y569595D02*
X505134D01*
X503610Y568071D02*
Y571119D01*
X521807Y569595D02*
X524855D01*
X523331Y568071D02*
Y571119D01*
X442922Y639572D02*
X445970D01*
X444446Y638048D02*
Y641096D01*
X462643Y639572D02*
X465691D01*
X464167Y638048D02*
Y641096D01*
X482364Y639572D02*
X485412D01*
X483888Y638048D02*
Y641096D01*
X502085Y639572D02*
X505134D01*
X503610Y638048D02*
Y641096D01*
X521807Y639572D02*
X524855D01*
X523331Y638048D02*
Y641096D01*
X521810Y418405D02*
X524858D01*
X523334Y416881D02*
Y419929D01*
X521716Y433832D02*
X524764D01*
X523240Y432308D02*
Y435356D01*
X521462Y449401D02*
X524510D01*
X522986Y447877D02*
Y450925D01*
X695998Y244132D02*
X699046D01*
X697522Y242608D02*
Y245656D01*
X175006Y172720D02*
X178054D01*
X176530Y171196D02*
Y174244D01*
X309372Y186690D02*
X312420D01*
X310896Y185166D02*
Y188214D01*
X85006Y183642D02*
X88054D01*
X86530Y182118D02*
Y185166D01*
X286258Y189738D02*
X289306D01*
X287782Y188214D02*
Y191262D01*
X150876Y152400D02*
X153924D01*
X152400Y150876D02*
Y153924D01*
X201676Y254000D02*
X204724D01*
X203200Y252476D02*
Y255524D01*
X49276Y254000D02*
X52324D01*
X50800Y252476D02*
Y255524D01*
X938276Y508000D02*
X941324D01*
X939800Y506476D02*
Y509524D01*
X938276Y406400D02*
X941324D01*
X939800Y404876D02*
Y407924D01*
X938276Y304800D02*
X941324D01*
X939800Y303276D02*
Y306324D01*
X938276Y203200D02*
X941324D01*
X939800Y201676D02*
Y204724D01*
X912876Y152400D02*
X915924D01*
X914400Y150876D02*
Y153924D01*
X887476Y508000D02*
X890524D01*
X889000Y506476D02*
Y509524D01*
X862076Y254000D02*
X865124D01*
X863600Y252476D02*
Y255524D01*
X887476Y203200D02*
X890524D01*
X889000Y201676D02*
Y204724D01*
X862076Y152400D02*
X865124D01*
X863600Y150876D02*
Y153924D01*
X836676Y609600D02*
X839724D01*
X838200Y608076D02*
Y611124D01*
X811276Y558800D02*
X814324D01*
X812800Y557276D02*
Y560324D01*
X836676Y406400D02*
X839724D01*
X838200Y404876D02*
Y407924D01*
X811276Y355600D02*
X814324D01*
X812800Y354076D02*
Y357124D01*
X836676Y304800D02*
X839724D01*
X838200Y303276D02*
Y306324D01*
X836676Y101600D02*
X839724D01*
X838200Y100076D02*
Y103124D01*
X785876Y609600D02*
X788924D01*
X787400Y608076D02*
Y611124D01*
X785876Y508000D02*
X788924D01*
X787400Y506476D02*
Y509524D01*
X760476Y457200D02*
X763524D01*
X762000Y455676D02*
Y458724D01*
X760476Y355600D02*
X763524D01*
X762000Y354076D02*
Y357124D01*
X785876Y304800D02*
X788924D01*
X787400Y303276D02*
Y306324D01*
X760476Y254000D02*
X763524D01*
X762000Y252476D02*
Y255524D01*
X785876Y203200D02*
X788924D01*
X787400Y201676D02*
Y204724D01*
X760476Y152400D02*
X763524D01*
X762000Y150876D02*
Y153924D01*
X785876Y101600D02*
X788924D01*
X787400Y100076D02*
Y103124D01*
X760476Y50800D02*
X763524D01*
X762000Y49276D02*
Y52324D01*
X735076Y609600D02*
X738124D01*
X736600Y608076D02*
Y611124D01*
X709676Y254000D02*
X712724D01*
X711200Y252476D02*
Y255524D01*
X735076Y203200D02*
X738124D01*
X736600Y201676D02*
Y204724D01*
X735076Y101600D02*
X738124D01*
X736600Y100076D02*
Y103124D01*
X709676Y50800D02*
X712724D01*
X711200Y49276D02*
Y52324D01*
X684276Y508000D02*
X687324D01*
X685800Y506476D02*
Y509524D01*
X658876Y457200D02*
X661924D01*
X660400Y455676D02*
Y458724D01*
X684276Y406400D02*
X687324D01*
X685800Y404876D02*
Y407924D01*
X658876Y355600D02*
X661924D01*
X660400Y354076D02*
Y357124D01*
X658876Y254000D02*
X661924D01*
X660400Y252476D02*
Y255524D01*
X658876Y152400D02*
X661924D01*
X660400Y150876D02*
Y153924D01*
X684276Y101600D02*
X687324D01*
X685800Y100076D02*
Y103124D01*
X608076Y457200D02*
X611124D01*
X609600Y455676D02*
Y458724D01*
X633476Y406400D02*
X636524D01*
X635000Y404876D02*
Y407924D01*
X608076Y355600D02*
X611124D01*
X609600Y354076D02*
Y357124D01*
X608076Y254000D02*
X611124D01*
X609600Y252476D02*
Y255524D01*
X608076Y152400D02*
X611124D01*
X609600Y150876D02*
Y153924D01*
X633476Y101600D02*
X636524D01*
X635000Y100076D02*
Y103124D01*
X608076Y50800D02*
X611124D01*
X609600Y49276D02*
Y52324D01*
X557276Y457200D02*
X560324D01*
X558800Y455676D02*
Y458724D01*
X582676Y406400D02*
X585724D01*
X584200Y404876D02*
Y407924D01*
X582676Y304800D02*
X585724D01*
X584200Y303276D02*
Y306324D01*
X557276Y152400D02*
X560324D01*
X558800Y150876D02*
Y153924D01*
X582676Y101600D02*
X585724D01*
X584200Y100076D02*
Y103124D01*
X506476Y457200D02*
X509524D01*
X508000Y455676D02*
Y458724D01*
X531876Y304800D02*
X534924D01*
X533400Y303276D02*
Y306324D01*
X506476Y254000D02*
X509524D01*
X508000Y252476D02*
Y255524D01*
X531876Y203200D02*
X534924D01*
X533400Y201676D02*
Y204724D01*
X506476Y152400D02*
X509524D01*
X508000Y150876D02*
Y153924D01*
X455676Y355600D02*
X458724D01*
X457200Y354076D02*
Y357124D01*
X455676Y254000D02*
X458724D01*
X457200Y252476D02*
Y255524D01*
X455676Y152400D02*
X458724D01*
X457200Y150876D02*
Y153924D01*
X481076Y101600D02*
X484124D01*
X482600Y100076D02*
Y103124D01*
X404876Y355600D02*
X407924D01*
X406400Y354076D02*
Y357124D01*
X404876Y254000D02*
X407924D01*
X406400Y252476D02*
Y255524D01*
X404876Y152400D02*
X407924D01*
X406400Y150876D02*
Y153924D01*
X354076Y355600D02*
X357124D01*
X355600Y354076D02*
Y357124D01*
X354076Y254000D02*
X357124D01*
X355600Y252476D02*
Y255524D01*
X379476Y203200D02*
X382524D01*
X381000Y201676D02*
Y204724D01*
X354076Y152400D02*
X357124D01*
X355600Y150876D02*
Y153924D01*
X379476Y101600D02*
X382524D01*
X381000Y100076D02*
Y103124D01*
X354076Y50800D02*
X357124D01*
X355600Y49276D02*
Y52324D01*
X328676Y508000D02*
X331724D01*
X330200Y506476D02*
Y509524D01*
X303276Y457200D02*
X306324D01*
X304800Y455676D02*
Y458724D01*
X303276Y355600D02*
X306324D01*
X304800Y354076D02*
Y357124D01*
X328676Y304800D02*
X331724D01*
X330200Y303276D02*
Y306324D01*
X303276Y254000D02*
X306324D01*
X304800Y252476D02*
Y255524D01*
X303276Y152400D02*
X306324D01*
X304800Y150876D02*
Y153924D01*
X328676Y101600D02*
X331724D01*
X330200Y100076D02*
Y103124D01*
X303276Y50800D02*
X306324D01*
X304800Y49276D02*
Y52324D01*
X277876Y508000D02*
X280924D01*
X279400Y506476D02*
Y509524D01*
X277876Y406400D02*
X280924D01*
X279400Y404876D02*
Y407924D01*
X252476Y152400D02*
X255524D01*
X254000Y150876D02*
Y153924D01*
X277876Y101600D02*
X280924D01*
X279400Y100076D02*
Y103124D01*
X252476Y50800D02*
X255524D01*
X254000Y49276D02*
Y52324D01*
X201676Y558800D02*
X204724D01*
X203200Y557276D02*
Y560324D01*
X227076Y508000D02*
X230124D01*
X228600Y506476D02*
Y509524D01*
X201676Y457200D02*
X204724D01*
X203200Y455676D02*
Y458724D01*
X227076Y406400D02*
X230124D01*
X228600Y404876D02*
Y407924D01*
X201676Y355600D02*
X204724D01*
X203200Y354076D02*
Y357124D01*
X227076Y304800D02*
X230124D01*
X228600Y303276D02*
Y306324D01*
X227076Y101600D02*
X230124D01*
X228600Y100076D02*
Y103124D01*
X201676Y50800D02*
X204724D01*
X203200Y49276D02*
Y52324D01*
X150876Y558800D02*
X153924D01*
X152400Y557276D02*
Y560324D01*
X176276Y508000D02*
X179324D01*
X177800Y506476D02*
Y509524D01*
X150876Y457200D02*
X153924D01*
X152400Y455676D02*
Y458724D01*
X176276Y406400D02*
X179324D01*
X177800Y404876D02*
Y407924D01*
X150876Y355600D02*
X153924D01*
X152400Y354076D02*
Y357124D01*
X176276Y304800D02*
X179324D01*
X177800Y303276D02*
Y306324D01*
X176276Y203200D02*
X179324D01*
X177800Y201676D02*
Y204724D01*
X176276Y101600D02*
X179324D01*
X177800Y100076D02*
Y103124D01*
X125476Y508000D02*
X128524D01*
X127000Y506476D02*
Y509524D01*
X100076Y457200D02*
X103124D01*
X101600Y455676D02*
Y458724D01*
X125476Y406400D02*
X128524D01*
X127000Y404876D02*
Y407924D01*
X125476Y203200D02*
X128524D01*
X127000Y201676D02*
Y204724D01*
X100076Y152400D02*
X103124D01*
X101600Y150876D02*
Y153924D01*
X125476Y101600D02*
X128524D01*
X127000Y100076D02*
Y103124D01*
X74676Y508000D02*
X77724D01*
X76200Y506476D02*
Y509524D01*
X49276Y457200D02*
X52324D01*
X50800Y455676D02*
Y458724D01*
X74676Y406400D02*
X77724D01*
X76200Y404876D02*
Y407924D01*
X74676Y304800D02*
X77724D01*
X76200Y303276D02*
Y306324D01*
X49276Y152400D02*
X52324D01*
X50800Y150876D02*
Y153924D01*
X410464Y95504D02*
X414528D01*
X412496Y93472D02*
Y97536D01*
X297470Y285206D02*
X300518D01*
X298994Y283682D02*
Y286730D01*
X156718Y262890D02*
X159766D01*
X158242Y261366D02*
Y264414D01*
X309118Y202438D02*
X312166D01*
X310642Y200914D02*
Y203962D01*
X226060Y185420D02*
X229108D01*
X227584Y183896D02*
Y186944D01*
X226314Y198374D02*
X229362D01*
X227838Y196850D02*
Y199898D01*
X150622Y378714D02*
X153670D01*
X152146Y377190D02*
Y380238D01*
X177292Y368142D02*
X180340D01*
X178816Y366618D02*
Y369666D01*
X354246Y282194D02*
X357294D01*
X355770Y280670D02*
Y283718D01*
X405638Y322834D02*
X408686D01*
X407162Y321310D02*
Y324358D01*
X333716Y299934D02*
X336764D01*
X335240Y298410D02*
Y301458D01*
X343916Y384940D02*
X346964D01*
X345440Y383416D02*
Y386464D01*
X367988Y425030D02*
X371036D01*
X369512Y423506D02*
Y426554D01*
X379984Y407670D02*
X383032D01*
X381508Y406146D02*
Y409194D01*
X352552Y382778D02*
X355600D01*
X354076Y381254D02*
Y384302D01*
X379984Y424180D02*
X383032D01*
X381508Y422656D02*
Y425704D01*
X376597Y431891D02*
X379645D01*
X378121Y430367D02*
Y433415D01*
X334264Y337058D02*
X337312D01*
X335788Y335534D02*
Y338582D01*
X455422Y405892D02*
X458470D01*
X456946Y404368D02*
Y407416D01*
X470662Y292354D02*
X473710D01*
X472186Y290830D02*
Y293878D01*
X487172Y405384D02*
X490220D01*
X488696Y403860D02*
Y406908D01*
X509270Y333502D02*
X512318D01*
X510794Y331978D02*
Y335026D01*
X522986Y271526D02*
X526034D01*
X524510Y270002D02*
Y273050D01*
X536702Y283718D02*
X539750D01*
X538226Y282194D02*
Y285242D01*
X540982Y333545D02*
X544030D01*
X542506Y332021D02*
Y335069D01*
X472948Y120904D02*
X475996D01*
X474472Y119380D02*
Y122428D01*
X168402Y430276D02*
X171450D01*
X169926Y428752D02*
Y431800D01*
X175006Y179578D02*
X178054D01*
X176530Y178054D02*
Y181102D01*
X83820Y319024D02*
X86868D01*
X85344Y317500D02*
Y320548D01*
X83820Y325628D02*
X86868D01*
X85344Y324104D02*
Y327152D01*
X850646Y359664D02*
X853694D01*
X852170Y358140D02*
Y361188D01*
X589788Y61214D02*
X592836D01*
X591312Y59690D02*
Y62738D01*
X564134Y74422D02*
X567182D01*
X565658Y72898D02*
Y75946D01*
X785876Y211074D02*
X788924D01*
X787400Y209550D02*
Y212598D01*
X362966Y332232D02*
X366014D01*
X364490Y330708D02*
Y333756D01*
X956310Y235712D02*
X959358D01*
X957834Y234188D02*
Y237236D01*
X805688Y151638D02*
X808736D01*
X807212Y150114D02*
Y153162D01*
X783844Y250190D02*
X786892D01*
X785368Y248666D02*
Y251714D01*
X326898Y153924D02*
X329946D01*
X328422Y152400D02*
Y155448D01*
X276606Y154178D02*
X279654D01*
X278130Y152654D02*
Y155702D01*
X379984Y399633D02*
X383032D01*
X381508Y398110D02*
Y401157D01*
X454152Y443738D02*
X457200D01*
X455676Y442214D02*
Y445262D01*
X404368Y443738D02*
X407416D01*
X405892Y442214D02*
Y445262D01*
X743477Y611814D02*
X746525D01*
X745001Y610290D02*
Y613338D01*
X743663Y605213D02*
X746711D01*
X745187Y603689D02*
Y606737D01*
X746275Y599147D02*
X749323D01*
X747799Y597623D02*
Y600672D01*
X746275Y592543D02*
X749323D01*
X747799Y591020D02*
Y594067D01*
X746275Y585939D02*
X749323D01*
X747799Y584416D02*
Y587463D01*
X746275Y579336D02*
X749323D01*
X747799Y577812D02*
Y580859D01*
X744209Y573063D02*
X747257D01*
X745733Y571539D02*
Y574587D01*
X739539Y568393D02*
X742588D01*
X741064Y566869D02*
Y569917D01*
X734870Y563724D02*
X737918D01*
X736394Y562200D02*
Y565248D01*
X730200Y559054D02*
X733248D01*
X731724Y557530D02*
Y560578D01*
X719512Y551665D02*
X722560D01*
X721036Y550141D02*
Y553189D01*
X712908Y551665D02*
X715956D01*
X714432Y550141D02*
Y553189D01*
X706304Y551665D02*
X709352D01*
X707828Y550141D02*
Y553189D01*
X699700Y551665D02*
X702748D01*
X701224Y550141D02*
Y553189D01*
X693096Y551665D02*
X696144D01*
X694620Y550141D02*
Y553189D01*
X686492Y551665D02*
X689540D01*
X688016Y550141D02*
Y553189D01*
X679888Y551665D02*
X682936D01*
X681412Y550141D02*
Y553189D01*
X673284Y551665D02*
X676332D01*
X674808Y550141D02*
Y553189D01*
X666681Y551557D02*
X669729D01*
X668205Y550033D02*
Y553080D01*
X660744Y548664D02*
X663792D01*
X662268Y547140D02*
Y550188D01*
X656075Y543994D02*
X659122D01*
X657598Y542470D02*
Y545518D01*
X651405Y539325D02*
X654453D01*
X652929Y537801D02*
Y540849D01*
X646735Y534655D02*
X649783D01*
X648259Y533131D02*
Y536179D01*
X642065Y529985D02*
X645113D01*
X643589Y528461D02*
Y531509D01*
X637396Y525316D02*
X640443D01*
X638919Y523792D02*
Y526839D01*
X632726Y520646D02*
X635774D01*
X634250Y519122D02*
Y522170D01*
X627280Y516910D02*
X630328D01*
X628804Y515386D02*
Y518434D01*
X620676Y516910D02*
X623724D01*
X622200Y515386D02*
Y518434D01*
X614072Y516910D02*
X617120D01*
X615596Y515386D02*
Y518434D01*
X607468Y516910D02*
X610516D01*
X608992Y515386D02*
Y518434D01*
X600864Y516910D02*
X603912D01*
X602388Y515386D02*
Y518434D01*
X594260Y516910D02*
X597308D01*
X595784Y515386D02*
Y518434D01*
X587656Y516910D02*
X590704D01*
X589180Y515386D02*
Y518434D01*
X581052Y516910D02*
X584100D01*
X582576Y515386D02*
Y518434D01*
X574448Y516910D02*
X577496D01*
X575972Y515386D02*
Y518434D01*
X567844Y516910D02*
X570892D01*
X569368Y515386D02*
Y518434D01*
X561240Y516910D02*
X564288D01*
X562764Y515386D02*
Y518434D01*
X554636Y516910D02*
X557684D01*
X556160Y515386D02*
Y518434D01*
X548032Y516910D02*
X551080D01*
X549556Y515386D02*
Y518434D01*
X541428Y516910D02*
X544476D01*
X542952Y515386D02*
Y518434D01*
X534824Y516910D02*
X537872D01*
X536348Y515386D02*
Y518434D01*
X528220Y516910D02*
X531268D01*
X529744Y515386D02*
Y518434D01*
X521616Y516910D02*
X524664D01*
X523140Y515386D02*
Y518434D01*
X515012Y516910D02*
X518060D01*
X516536Y515386D02*
Y518434D01*
X508408Y516910D02*
X511456D01*
X509932Y515386D02*
Y518434D01*
X501804Y516910D02*
X504852D01*
X503328Y515386D02*
Y518434D01*
X495200Y516910D02*
X498248D01*
X496724Y515386D02*
Y518434D01*
X475563Y516387D02*
X478610D01*
X477086Y514863D02*
Y517911D01*
X472450Y510562D02*
X475498D01*
X473974Y509038D02*
Y512086D01*
X472523Y503958D02*
X475571D01*
X474047Y502434D02*
Y505482D01*
X473263Y471531D02*
X476311D01*
X474787Y470007D02*
Y473055D01*
X492013Y472256D02*
X495061D01*
X493537Y470732D02*
Y473780D01*
X494552Y484957D02*
X497600D01*
X496076Y483433D02*
Y486481D01*
X494726Y491558D02*
X497774D01*
X496250Y490034D02*
Y493082D01*
X494591Y498161D02*
X497639D01*
X496115Y496637D02*
Y499685D01*
X501195Y498161D02*
X504243D01*
X502719Y496637D02*
Y499685D01*
X507799Y498161D02*
X510847D01*
X509323Y496637D02*
Y499685D01*
X514403Y498161D02*
X517451D01*
X515927Y496637D02*
Y499685D01*
X521007Y498161D02*
X524055D01*
X522531Y496637D02*
Y499685D01*
X527611Y498161D02*
X530659D01*
X529135Y496637D02*
Y499685D01*
X534215Y498161D02*
X537263D01*
X535739Y496637D02*
Y499685D01*
X540819Y498161D02*
X543867D01*
X542343Y496637D02*
Y499685D01*
X547423Y498161D02*
X550471D01*
X548947Y496637D02*
Y499685D01*
X554027Y498161D02*
X557075D01*
X555551Y496637D02*
Y499685D01*
X560631Y498161D02*
X563679D01*
X562155Y496637D02*
Y499685D01*
X567235Y498161D02*
X570283D01*
X568759Y496637D02*
Y499685D01*
X573839Y498161D02*
X576887D01*
X575363Y496637D02*
Y499685D01*
X580443Y498161D02*
X583491D01*
X581967Y496637D02*
Y499685D01*
X587047Y498161D02*
X590095D01*
X588571Y496637D02*
Y499685D01*
X593651Y498161D02*
X596699D01*
X595175Y496637D02*
Y499685D01*
X600255Y498161D02*
X603303D01*
X601779Y496637D02*
Y499685D01*
X606859Y498161D02*
X609907D01*
X608383Y496637D02*
Y499685D01*
X613463Y498161D02*
X616511D01*
X614987Y496637D02*
Y499685D01*
X620067Y498161D02*
X623115D01*
X621591Y496637D02*
Y499685D01*
X626671Y498161D02*
X629719D01*
X628195Y496637D02*
Y499685D01*
X633275Y498181D02*
X636323D01*
X634799Y496657D02*
Y499705D01*
X639343Y500785D02*
X642392D01*
X640867Y499261D02*
Y502309D01*
X644032Y505436D02*
X647080D01*
X645556Y503912D02*
Y506960D01*
X648701Y510106D02*
X651749D01*
X650225Y508582D02*
Y511630D01*
X653371Y514776D02*
X656419D01*
X654895Y513252D02*
Y516300D01*
X658041Y519445D02*
X661089D01*
X659565Y517921D02*
Y520969D01*
X662711Y524115D02*
X665759D01*
X664235Y522591D02*
Y525639D01*
X667380Y528785D02*
X670428D01*
X668904Y527261D02*
Y530309D01*
X672533Y532915D02*
X675581D01*
X674057Y531391D02*
Y534439D01*
X679137Y532915D02*
X682185D01*
X680661Y531391D02*
Y534439D01*
X685741Y532915D02*
X688789D01*
X687265Y531391D02*
Y534439D01*
X692345Y532915D02*
X695393D01*
X693869Y531391D02*
Y534439D01*
X698949Y532915D02*
X701997D01*
X700473Y531391D02*
Y534439D01*
X705553Y532915D02*
X708601D01*
X707077Y531391D02*
Y534439D01*
X712157Y532915D02*
X715205D01*
X713681Y531391D02*
Y534439D01*
X718761Y532915D02*
X721809D01*
X720285Y531391D02*
Y534439D01*
X725365Y532915D02*
X728413D01*
X726889Y531391D02*
Y534439D01*
X731784Y534467D02*
X734832D01*
X733308Y532943D02*
Y535991D01*
X736623Y538961D02*
X739671D01*
X738147Y537438D02*
Y540485D01*
X741293Y543631D02*
X744341D01*
X742817Y542107D02*
Y545155D01*
X745963Y548301D02*
X749011D01*
X747487Y546777D02*
Y549825D01*
X750632Y552971D02*
X753680D01*
X752156Y551447D02*
Y554495D01*
X755302Y557640D02*
X758350D01*
X756826Y556116D02*
Y559164D01*
X759972Y562310D02*
X763020D01*
X761496Y560786D02*
Y563834D01*
X764176Y567403D02*
X767224D01*
X765700Y565879D02*
Y568927D01*
X765025Y573952D02*
X768073D01*
X766549Y572428D02*
Y575476D01*
X765025Y580556D02*
X768073D01*
X766549Y579032D02*
Y582080D01*
X765025Y587160D02*
X768073D01*
X766549Y585636D02*
Y588684D01*
X765025Y593764D02*
X768073D01*
X766549Y592240D02*
Y595288D01*
X765025Y600368D02*
X768073D01*
X766549Y598844D02*
Y601892D01*
X767789Y606366D02*
X770837D01*
X769313Y604842D02*
Y607890D01*
X773176Y493014D02*
X776224D01*
X774700Y491490D02*
Y494538D01*
X889254Y427990D02*
X892302D01*
X890778Y426466D02*
Y429514D01*
X889508Y446278D02*
X892556D01*
X891032Y444754D02*
Y447802D01*
X849376Y509016D02*
X852424D01*
X850900Y507492D02*
Y510540D01*
X833882Y458216D02*
X836930D01*
X835406Y456692D02*
Y459740D01*
X560578Y60960D02*
X563626D01*
X562102Y59436D02*
Y62484D01*
X919988Y315214D02*
X923036D01*
X921512Y313690D02*
Y316738D01*
X904494Y315468D02*
X907542D01*
X906018Y313944D02*
Y316992D01*
X918718Y255778D02*
X921766D01*
X920242Y254254D02*
Y257302D01*
X445262Y185166D02*
X448310D01*
X446786Y183642D02*
Y186690D01*
X912368Y354330D02*
X915416D01*
X913892Y352806D02*
Y355854D01*
X834390Y359664D02*
X837438D01*
X835914Y358140D02*
Y361188D01*
X796798Y411654D02*
X799846D01*
X798322Y410130D02*
Y413178D01*
X766572Y385826D02*
X769620D01*
X768096Y384302D02*
Y387350D01*
X379984Y439928D02*
X383032D01*
X381508Y438404D02*
Y441452D01*
X379984Y448818D02*
X383032D01*
X381508Y447294D02*
Y450342D01*
X918464Y488442D02*
X921512D01*
X919988Y486918D02*
Y489966D01*
X764794Y515112D02*
X767842D01*
X766318Y513588D02*
Y516636D01*
X745490Y486410D02*
X748538D01*
X747014Y484886D02*
Y487934D01*
X711200Y484886D02*
X714248D01*
X712724Y483362D02*
Y486410D01*
X734060Y386080D02*
X737108D01*
X735584Y384556D02*
Y387604D01*
X821944Y523748D02*
X824992D01*
X823468Y522224D02*
Y525272D01*
X350604Y321322D02*
X353652D01*
X352128Y319798D02*
Y322846D01*
X725424Y255778D02*
X729488D01*
X727456Y253746D02*
Y257810D01*
X745236Y429514D02*
X748284D01*
X746760Y427990D02*
Y431038D01*
X781812Y432054D02*
X784860D01*
X783336Y430530D02*
Y433578D01*
X781812Y445516D02*
X784860D01*
X783336Y443992D02*
Y447040D01*
X816864Y487426D02*
X819912D01*
X818388Y485902D02*
Y488950D01*
X342138Y495808D02*
X345186D01*
X343662Y494284D02*
Y497332D01*
X404622Y479044D02*
X407670D01*
X406146Y477520D02*
Y480568D01*
X374904Y524002D02*
X377952D01*
X376428Y522478D02*
Y525526D01*
X354584Y524002D02*
X357632D01*
X356108Y522478D02*
Y525526D01*
X941578Y394716D02*
X944626D01*
X943102Y393192D02*
Y396240D01*
X394970Y524002D02*
X398018D01*
X396494Y522478D02*
Y525526D01*
X424942Y479044D02*
X427990D01*
X426466Y477520D02*
Y480568D01*
X414528Y479044D02*
X417576D01*
X416052Y477520D02*
Y480568D01*
X830326Y412496D02*
X833374D01*
X831850Y410972D02*
Y414020D01*
X270002Y517906D02*
X273050D01*
X271526Y516382D02*
Y519430D01*
X379984Y415544D02*
X383032D01*
X381508Y414020D02*
Y417068D01*
X915416Y455168D02*
X918464D01*
X916940Y453644D02*
Y456692D01*
X821690Y510286D02*
X824738D01*
X823214Y508762D02*
Y511810D01*
X202946Y506984D02*
X205994D01*
X204470Y505460D02*
Y508508D01*
X622046Y75184D02*
X625094D01*
X623570Y73660D02*
Y76708D01*
M02*
