G04*
G04 #@! TF.GenerationSoftware,Altium Limited,Altium Designer,19.1.9 (167)*
G04*
G04 Layer_Color=16711935*
%FSLAX25Y25*%
%MOIN*%
G70*
G01*
G75*
%ADD16C,0.00500*%
%ADD77R,0.04600X0.04500*%
%ADD82C,0.25800*%
%ADD83O,0.10800X0.20800*%
%ADD84R,0.08800X0.08800*%
%ADD85O,0.07493X0.05524*%
%ADD86O,0.06312X0.04737*%
%ADD87C,0.06706*%
%ADD88R,0.06706X0.06706*%
%ADD89C,0.12800*%
%ADD90C,0.02600*%
%ADD91C,0.02400*%
%ADD92C,0.04000*%
%ADD122R,0.07690X0.02375*%
%ADD123R,0.10642X0.06410*%
%ADD124R,0.06548X0.08674*%
G36*
X19851Y120628D02*
X19902Y120618D01*
X19952Y120601D01*
X19999Y120578D01*
X20042Y120549D01*
X20082Y120514D01*
X20117Y120475D01*
X20146Y120431D01*
X20169Y120384D01*
X20186Y120334D01*
X20196Y120283D01*
X20199Y120231D01*
Y113046D01*
X20196Y112993D01*
X20186Y112942D01*
X20169Y112892D01*
X20146Y112845D01*
X20117Y112802D01*
X20082Y112762D01*
X20042Y112728D01*
X19999Y112698D01*
X19952Y112675D01*
X19902Y112659D01*
X19851Y112648D01*
X19798Y112645D01*
X17042D01*
X16990Y112648D01*
X16939Y112659D01*
X16889Y112675D01*
X16842Y112698D01*
X16799Y112728D01*
X16759Y112762D01*
X16725Y112802D01*
X16695Y112845D01*
X16672Y112892D01*
X16655Y112942D01*
X16645Y112993D01*
X16642Y113046D01*
Y114712D01*
X8972D01*
X8961Y114712D01*
X8951Y114712D01*
X8798Y114720D01*
X8787Y114721D01*
X8776Y114722D01*
X8626Y114738D01*
X8625Y114738D01*
X8623Y114738D01*
X8599Y114742D01*
X8575Y114746D01*
X8573Y114747D01*
X8572Y114747D01*
X8501Y114765D01*
X8491Y114768D01*
X8481Y114770D01*
X8410Y114792D01*
X8410Y114792D01*
X8268Y114836D01*
X8261Y114838D01*
X8254Y114840D01*
X8237Y114847D01*
X8219Y114854D01*
X8212Y114858D01*
X8206Y114860D01*
X8056Y114935D01*
X8043Y114943D01*
X8029Y114950D01*
X7891Y115033D01*
X7874Y115044D01*
X7857Y115056D01*
X7731Y115150D01*
X7720Y115159D01*
X7709Y115168D01*
X7591Y115270D01*
X7590Y115272D01*
X7588Y115273D01*
X7571Y115290D01*
X7554Y115307D01*
X7553Y115309D01*
X7551Y115310D01*
X7445Y115432D01*
X7437Y115443D01*
X7428Y115453D01*
X7329Y115583D01*
X7328Y115585D01*
X7327Y115586D01*
X7314Y115607D01*
X7300Y115627D01*
X7299Y115629D01*
X7298Y115630D01*
X7220Y115772D01*
X7215Y115782D01*
X7210Y115792D01*
X7139Y115937D01*
X7138Y115940D01*
X7136Y115943D01*
X7128Y115964D01*
X7119Y115986D01*
X7118Y115989D01*
X7117Y115991D01*
X7066Y116153D01*
X7060Y116175D01*
X7055Y116198D01*
X7031Y116320D01*
X7029Y116331D01*
X7027Y116342D01*
X7007Y116488D01*
X7006Y116504D01*
X7004Y116520D01*
X6997Y116666D01*
X6997Y116677D01*
X6996Y116687D01*
Y118656D01*
X6997Y118665D01*
X6996Y118675D01*
X7004Y118844D01*
X7007Y118866D01*
X7009Y118887D01*
X7034Y119051D01*
X7039Y119071D01*
X7043Y119092D01*
X7084Y119247D01*
X7091Y119267D01*
X7097Y119288D01*
X7157Y119442D01*
X7167Y119464D01*
X7177Y119486D01*
X7244Y119612D01*
X7248Y119618D01*
X7251Y119625D01*
X7322Y119747D01*
X7335Y119767D01*
X7348Y119787D01*
X7445Y119915D01*
X7446Y119916D01*
X7447Y119918D01*
X7463Y119936D01*
X7479Y119955D01*
X7480Y119956D01*
X7481Y119957D01*
X7586Y120061D01*
X7591Y120066D01*
X7597Y120072D01*
X7707Y120174D01*
X7708Y120175D01*
X7709Y120176D01*
X7728Y120192D01*
X7747Y120207D01*
X7749Y120208D01*
X7750Y120209D01*
X7868Y120291D01*
X7876Y120297D01*
X7884Y120302D01*
X8022Y120389D01*
X8024Y120390D01*
X8026Y120391D01*
X8047Y120403D01*
X8068Y120414D01*
X8071Y120415D01*
X8073Y120416D01*
X8214Y120479D01*
X8226Y120483D01*
X8236Y120488D01*
X8362Y120535D01*
X8376Y120539D01*
X8390Y120544D01*
X8457Y120564D01*
X8468Y120566D01*
X8478Y120570D01*
X8545Y120586D01*
X8552Y120587D01*
X8558Y120588D01*
X8637Y120604D01*
X8639Y120604D01*
X8641Y120605D01*
X8723Y120621D01*
X8726Y120621D01*
X8728Y120621D01*
X8752Y120624D01*
X8775Y120627D01*
X8778Y120627D01*
X8780Y120627D01*
X8867Y120631D01*
X8876Y120631D01*
X8885Y120632D01*
X19798D01*
X19851Y120628D01*
D02*
G37*
G36*
X19851Y144152D02*
X19902Y144141D01*
X19952Y144125D01*
X19999Y144102D01*
X20042Y144072D01*
X20082Y144038D01*
X20117Y143998D01*
X20146Y143955D01*
X20169Y143908D01*
X20186Y143858D01*
X20196Y143807D01*
X20199Y143754D01*
Y136569D01*
X20196Y136517D01*
X20186Y136466D01*
X20169Y136416D01*
X20146Y136369D01*
X20117Y136325D01*
X20082Y136286D01*
X20042Y136251D01*
X19999Y136222D01*
X19952Y136199D01*
X19902Y136182D01*
X19851Y136172D01*
X19798Y136168D01*
X8885D01*
X8876Y136169D01*
X8867Y136169D01*
X8780Y136173D01*
X8778Y136173D01*
X8775Y136173D01*
X8752Y136176D01*
X8728Y136179D01*
X8726Y136179D01*
X8723Y136179D01*
X8641Y136195D01*
X8639Y136196D01*
X8637Y136196D01*
X8558Y136212D01*
X8552Y136213D01*
X8545Y136214D01*
X8478Y136230D01*
X8468Y136233D01*
X8457Y136236D01*
X8390Y136256D01*
X8376Y136261D01*
X8362Y136265D01*
X8236Y136312D01*
X8226Y136317D01*
X8214Y136321D01*
X8073Y136384D01*
X8071Y136385D01*
X8068Y136386D01*
X8047Y136397D01*
X8026Y136408D01*
X8024Y136410D01*
X8022Y136411D01*
X7884Y136498D01*
X7876Y136503D01*
X7868Y136509D01*
X7750Y136591D01*
X7749Y136592D01*
X7747Y136593D01*
X7728Y136608D01*
X7709Y136624D01*
X7708Y136625D01*
X7707Y136626D01*
X7597Y136728D01*
X7591Y136734D01*
X7586Y136739D01*
X7481Y136843D01*
X7480Y136844D01*
X7479Y136845D01*
X7463Y136864D01*
X7447Y136882D01*
X7446Y136884D01*
X7445Y136885D01*
X7348Y137013D01*
X7335Y137033D01*
X7322Y137053D01*
X7251Y137175D01*
X7248Y137182D01*
X7244Y137188D01*
X7177Y137314D01*
X7167Y137336D01*
X7157Y137358D01*
X7097Y137512D01*
X7091Y137533D01*
X7084Y137553D01*
X7043Y137708D01*
X7039Y137729D01*
X7034Y137749D01*
X7009Y137913D01*
X7007Y137935D01*
X7004Y137956D01*
X6996Y138126D01*
X6997Y138135D01*
X6996Y138144D01*
Y140113D01*
X6997Y140123D01*
X6997Y140134D01*
X7004Y140280D01*
X7006Y140296D01*
X7007Y140312D01*
X7027Y140458D01*
X7029Y140469D01*
X7031Y140480D01*
X7055Y140602D01*
X7061Y140625D01*
X7066Y140647D01*
X7117Y140808D01*
X7118Y140811D01*
X7119Y140814D01*
X7128Y140836D01*
X7136Y140857D01*
X7138Y140860D01*
X7139Y140863D01*
X7210Y141008D01*
X7215Y141018D01*
X7220Y141028D01*
X7298Y141170D01*
X7299Y141171D01*
X7300Y141173D01*
X7314Y141193D01*
X7327Y141214D01*
X7328Y141215D01*
X7329Y141217D01*
X7428Y141347D01*
X7437Y141357D01*
X7445Y141368D01*
X7551Y141490D01*
X7553Y141491D01*
X7554Y141493D01*
X7571Y141510D01*
X7588Y141527D01*
X7590Y141528D01*
X7591Y141530D01*
X7709Y141632D01*
X7720Y141641D01*
X7731Y141650D01*
X7857Y141744D01*
X7874Y141756D01*
X7891Y141767D01*
X8029Y141850D01*
X8043Y141857D01*
X8056Y141865D01*
X8206Y141940D01*
X8212Y141942D01*
X8219Y141946D01*
X8237Y141953D01*
X8254Y141960D01*
X8261Y141962D01*
X8268Y141964D01*
X8410Y142008D01*
X8410Y142008D01*
X8481Y142030D01*
X8491Y142032D01*
X8501Y142035D01*
X8572Y142053D01*
X8573Y142053D01*
X8575Y142053D01*
X8599Y142058D01*
X8623Y142062D01*
X8625Y142062D01*
X8626Y142062D01*
X8776Y142078D01*
X8787Y142079D01*
X8798Y142080D01*
X8951Y142088D01*
X8961Y142088D01*
X8972Y142088D01*
X16642D01*
Y143754D01*
X16645Y143807D01*
X16655Y143858D01*
X16672Y143908D01*
X16695Y143955D01*
X16725Y143998D01*
X16759Y144038D01*
X16799Y144072D01*
X16842Y144102D01*
X16889Y144125D01*
X16939Y144141D01*
X16990Y144152D01*
X17042Y144155D01*
X19798D01*
X19851Y144152D01*
D02*
G37*
D16*
X354142Y125988D02*
Y137110D01*
X359359D01*
Y125988D02*
Y137110D01*
X354142Y125988D02*
X359359D01*
X286943Y156088D02*
Y167210D01*
X292159D01*
Y156088D02*
Y167210D01*
X286943Y156088D02*
X292159D01*
X298458Y155890D02*
Y167012D01*
X293241Y155890D02*
X298458D01*
X293241D02*
Y167012D01*
X298458D01*
X290258Y194590D02*
Y205712D01*
X285041Y194590D02*
X290258D01*
X285041D02*
Y205712D01*
X290258D01*
X278043Y194788D02*
Y205910D01*
X283259D01*
Y194788D02*
Y205910D01*
X278043Y194788D02*
X283259D01*
X311590Y70643D02*
X322712D01*
X311590D02*
Y75859D01*
X322712D01*
Y70643D02*
Y75859D01*
X308841Y141212D02*
X314057D01*
X308841Y130090D02*
Y141212D01*
Y130090D02*
X314057D01*
Y141212D01*
X308641Y126512D02*
X313858D01*
X308641Y115390D02*
Y126512D01*
Y115390D02*
X313858D01*
Y126512D01*
D77*
X25900Y151000D02*
D03*
X20000D02*
D03*
D82*
X283169Y128600D02*
D03*
X104232D02*
D03*
D83*
X49704D02*
D03*
X337696D02*
D03*
D84*
X377800Y129800D02*
D03*
D85*
X11728Y139128D02*
D03*
Y117672D02*
D03*
D86*
X23657Y137947D02*
D03*
Y118853D02*
D03*
D87*
X7000Y97600D02*
D03*
Y77600D02*
D03*
Y87600D02*
D03*
Y178700D02*
D03*
Y168700D02*
D03*
Y188700D02*
D03*
D88*
Y67600D02*
D03*
Y158700D02*
D03*
D89*
X65900Y241900D02*
D03*
X318600Y16000D02*
D03*
X65900D02*
D03*
X318600Y241900D02*
D03*
D90*
X360000Y200000D02*
D03*
Y80000D02*
D03*
Y60000D02*
D03*
X340000Y80000D02*
D03*
Y60000D02*
D03*
X320000Y220000D02*
D03*
Y200000D02*
D03*
Y80000D02*
D03*
Y60000D02*
D03*
Y40000D02*
D03*
X300000Y200000D02*
D03*
Y180000D02*
D03*
Y80000D02*
D03*
Y60000D02*
D03*
Y40000D02*
D03*
Y20000D02*
D03*
X280000Y100000D02*
D03*
Y60000D02*
D03*
Y40000D02*
D03*
X260000Y200000D02*
D03*
Y100000D02*
D03*
Y80000D02*
D03*
Y60000D02*
D03*
Y40000D02*
D03*
X240000Y160000D02*
D03*
Y120000D02*
D03*
Y100000D02*
D03*
Y80000D02*
D03*
Y60000D02*
D03*
X220000Y80000D02*
D03*
Y60000D02*
D03*
Y40000D02*
D03*
X200000Y80000D02*
D03*
Y40000D02*
D03*
Y20000D02*
D03*
X180000Y200000D02*
D03*
Y140000D02*
D03*
Y80000D02*
D03*
Y60000D02*
D03*
Y40000D02*
D03*
Y20000D02*
D03*
X160000Y200000D02*
D03*
Y160000D02*
D03*
Y140000D02*
D03*
Y100000D02*
D03*
Y40000D02*
D03*
X140000Y140000D02*
D03*
Y100000D02*
D03*
Y80000D02*
D03*
Y60000D02*
D03*
Y20000D02*
D03*
X120000Y200000D02*
D03*
Y140000D02*
D03*
Y80000D02*
D03*
Y60000D02*
D03*
Y40000D02*
D03*
Y20000D02*
D03*
X100000Y160000D02*
D03*
Y80000D02*
D03*
Y60000D02*
D03*
Y40000D02*
D03*
Y20000D02*
D03*
X80000Y240000D02*
D03*
Y220000D02*
D03*
Y160000D02*
D03*
Y140000D02*
D03*
Y120000D02*
D03*
Y100000D02*
D03*
Y80000D02*
D03*
Y60000D02*
D03*
Y40000D02*
D03*
Y20000D02*
D03*
X60000Y220000D02*
D03*
Y200000D02*
D03*
Y160000D02*
D03*
Y140000D02*
D03*
Y100000D02*
D03*
Y80000D02*
D03*
Y60000D02*
D03*
Y40000D02*
D03*
X40000Y200000D02*
D03*
Y160000D02*
D03*
Y100000D02*
D03*
Y80000D02*
D03*
Y60000D02*
D03*
X20000Y200000D02*
D03*
Y160000D02*
D03*
Y100000D02*
D03*
Y80000D02*
D03*
Y60000D02*
D03*
D91*
X297565Y245787D02*
D03*
X293307Y240872D02*
D03*
X293381Y238273D02*
D03*
X294409Y235885D02*
D03*
Y233285D02*
D03*
Y230685D02*
D03*
Y228085D02*
D03*
X293596Y225615D02*
D03*
X291757Y223777D02*
D03*
X289919Y221938D02*
D03*
X288080Y220100D02*
D03*
X283873Y217191D02*
D03*
X281273D02*
D03*
X278673D02*
D03*
X276073D02*
D03*
X273472D02*
D03*
X270872D02*
D03*
X268272D02*
D03*
X265672D02*
D03*
X263073Y217148D02*
D03*
X260736Y216009D02*
D03*
X258897Y214171D02*
D03*
X257059Y212333D02*
D03*
X255220Y210494D02*
D03*
X253382Y208656D02*
D03*
X251543Y206817D02*
D03*
X249705Y204979D02*
D03*
X247561Y203508D02*
D03*
X244961D02*
D03*
X242361D02*
D03*
X239761D02*
D03*
X237161D02*
D03*
X234561D02*
D03*
X231961D02*
D03*
X229361D02*
D03*
X226761D02*
D03*
X224161D02*
D03*
X221561D02*
D03*
X218961D02*
D03*
X216361D02*
D03*
X213761D02*
D03*
X211161D02*
D03*
X208561D02*
D03*
X205961D02*
D03*
X203361D02*
D03*
X200761D02*
D03*
X198161D02*
D03*
X186633Y198409D02*
D03*
X186924Y185642D02*
D03*
X194306Y185928D02*
D03*
X195305Y190928D02*
D03*
X195374Y193527D02*
D03*
X195321Y196126D02*
D03*
X197921D02*
D03*
X200521D02*
D03*
X203121D02*
D03*
X205721D02*
D03*
X208321D02*
D03*
X210921D02*
D03*
X213521D02*
D03*
X216121D02*
D03*
X218721D02*
D03*
X221321D02*
D03*
X223921D02*
D03*
X226521D02*
D03*
X229121D02*
D03*
X231721D02*
D03*
X234321D02*
D03*
X236921D02*
D03*
X239521D02*
D03*
X242121D02*
D03*
X244721D02*
D03*
X247321D02*
D03*
X249921Y196134D02*
D03*
X252310Y197159D02*
D03*
X254156Y198991D02*
D03*
X255994Y200829D02*
D03*
X257833Y202668D02*
D03*
X259671Y204506D02*
D03*
X261510Y206345D02*
D03*
X263348Y208183D02*
D03*
X265377Y209809D02*
D03*
X267977D02*
D03*
X270577D02*
D03*
X273177D02*
D03*
X275777D02*
D03*
X278377D02*
D03*
X280977D02*
D03*
X283577D02*
D03*
X286177D02*
D03*
X288704Y210420D02*
D03*
X290609Y212190D02*
D03*
X292448Y214028D02*
D03*
X294286Y215866D02*
D03*
X296125Y217705D02*
D03*
X297963Y219543D02*
D03*
X299801Y221382D02*
D03*
X301457Y223387D02*
D03*
X301791Y225965D02*
D03*
Y228566D02*
D03*
Y231166D02*
D03*
Y233766D02*
D03*
Y236366D02*
D03*
X302879Y238727D02*
D03*
X187309Y217219D02*
D03*
X186743Y206955D02*
D03*
X186603Y204359D02*
D03*
X187346Y201867D02*
D03*
X195597Y204295D02*
D03*
X195482Y206893D02*
D03*
X195721Y209482D02*
D03*
X195874Y212077D02*
D03*
X195792Y214676D02*
D03*
X194691Y217032D02*
D03*
X70900Y150200D02*
D03*
Y147600D02*
D03*
X270300Y77400D02*
D03*
X33600Y128200D02*
D03*
Y125600D02*
D03*
X238500Y25400D02*
D03*
X224800Y24200D02*
D03*
X362800Y124100D02*
D03*
X356700Y124200D02*
D03*
X218500Y100500D02*
D03*
X213027Y100778D02*
D03*
X362300Y100700D02*
D03*
X378900Y94400D02*
D03*
X192300Y164100D02*
D03*
X147600Y170000D02*
D03*
X177500Y73100D02*
D03*
X330500Y142300D02*
D03*
X359800Y139500D02*
D03*
X324100Y142300D02*
D03*
X140400D02*
D03*
X144700Y111100D02*
D03*
X314300Y162069D02*
D03*
X302400Y151900D02*
D03*
X185900Y115100D02*
D03*
X205900Y127300D02*
D03*
X206300Y173512D02*
D03*
X150200Y173200D02*
D03*
Y176700D02*
D03*
X206300Y168900D02*
D03*
X362200Y192300D02*
D03*
X376100D02*
D03*
X369000D02*
D03*
X301700Y202800D02*
D03*
X294100Y191500D02*
D03*
X280600Y190900D02*
D03*
X289600Y152000D02*
D03*
X212500Y132400D02*
D03*
X324200Y206200D02*
D03*
X125800Y116700D02*
D03*
X120900Y122400D02*
D03*
X138633Y126505D02*
D03*
X143918Y27312D02*
D03*
X206300Y178124D02*
D03*
X294000Y169100D02*
D03*
X308400Y170100D02*
D03*
Y175400D02*
D03*
X322200Y191900D02*
D03*
X55400Y105000D02*
D03*
X136000Y157400D02*
D03*
X135300Y195200D02*
D03*
X159900Y188600D02*
D03*
X148200Y206300D02*
D03*
X140200D02*
D03*
X188000Y47200D02*
D03*
X307400Y193400D02*
D03*
X371300Y155400D02*
D03*
X304700Y79100D02*
D03*
X156100Y206300D02*
D03*
X167900Y188600D02*
D03*
X163800D02*
D03*
X327500Y162400D02*
D03*
X224500Y157100D02*
D03*
X66900Y169400D02*
D03*
X150200Y160500D02*
D03*
Y157100D02*
D03*
X106900Y203900D02*
D03*
X150200Y163600D02*
D03*
Y167000D02*
D03*
X145500D02*
D03*
X143500Y130800D02*
D03*
X314900Y61300D02*
D03*
X361000Y179200D02*
D03*
X324100Y200900D02*
D03*
X80500Y199600D02*
D03*
X160300Y127100D02*
D03*
X146800Y40500D02*
D03*
X249000Y29800D02*
D03*
X228600Y29500D02*
D03*
D92*
X286400Y100700D02*
D03*
X163800Y59800D02*
D03*
D122*
X22850Y128400D02*
D03*
Y125841D02*
D03*
Y123282D02*
D03*
Y130959D02*
D03*
Y133518D02*
D03*
D123*
X10743Y124611D02*
D03*
Y132189D02*
D03*
D124*
X23657Y139817D02*
D03*
X23656Y116983D02*
D03*
M02*
