%TF.GenerationSoftware,Altium Limited,Altium Designer,19.1.9 (167)*%
G04 Layer_Color=32768*
%FSLAX26Y26*%
%MOIN*%
%TF.FileFunction,Other,Mechanical_15*%
%TF.Part,Single*%
G01*
G75*
%TA.AperFunction,NonConductor*%
%ADD75C,0.007874*%
%ADD92C,0.003937*%
%ADD130C,0.001968*%
%ADD131C,0.004000*%
D75*
X779354Y1724701D02*
Y1937299D01*
X645496Y1724701D02*
X779354D01*
X645496D02*
Y1937299D01*
X779354D01*
X899071Y1733701D02*
Y1946299D01*
X1032929D01*
Y1733701D02*
Y1946299D01*
X899071Y1733701D02*
X1032929D01*
D92*
X3163284Y948000D02*
X3198716D01*
X3181000Y930284D02*
Y965716D01*
X3280284Y2036000D02*
X3315716D01*
X3298000Y2018284D02*
Y2053716D01*
X3047000Y1859284D02*
Y1894716D01*
X3029284Y1877000D02*
X3064716D01*
X563913Y1432961D02*
Y1553039D01*
X413323Y1432961D02*
X563913D01*
X413323D02*
Y1553039D01*
X563913D01*
X3396701Y800417D02*
X3628984D01*
Y977583D01*
X3396701D02*
X3628984D01*
X3396701Y800417D02*
Y977583D01*
X3143409Y1150724D02*
Y1232417D01*
X3194591D01*
Y1150724D02*
Y1232417D01*
X3143409Y1150724D02*
X3194591D01*
X3138591Y862583D02*
Y944276D01*
X3087409Y862583D02*
X3138591D01*
X3087409D02*
Y944276D01*
X3138591D01*
X3511591Y1458583D02*
Y1540276D01*
X3460409Y1458583D02*
X3511591D01*
X3460409D02*
Y1540276D01*
X3511591D01*
X2842409Y824724D02*
Y906417D01*
X2893591D01*
Y824724D02*
Y906417D01*
X2842409Y824724D02*
X2893591D01*
X3526000Y1378299D02*
Y1415701D01*
X3507299Y1397000D02*
X3544701D01*
X705425Y2018299D02*
Y2055701D01*
X686725Y2037000D02*
X724126D01*
X2566000Y200299D02*
Y237701D01*
X2547299Y219000D02*
X2584701D01*
X2419299Y300000D02*
X2456701D01*
X2438000Y281299D02*
Y318701D01*
X3223299Y1494000D02*
X3260701D01*
X3242000Y1475299D02*
Y1512701D01*
X3524000Y1175299D02*
Y1212701D01*
X3505299Y1194000D02*
X3542701D01*
X2771000Y840299D02*
Y877701D01*
X2752299Y859000D02*
X2789701D01*
X1892000Y710299D02*
Y747701D01*
X1873299Y729000D02*
X1910701D01*
X3439000Y1560299D02*
Y1597701D01*
X3420299Y1579000D02*
X3457701D01*
X1892299Y2023762D02*
X1929701D01*
X1911000Y2005061D02*
Y2042463D01*
X3668299Y1320000D02*
X3705701D01*
X3687000Y1301299D02*
Y1338701D01*
X1384299Y1979000D02*
X1421701D01*
X1403000Y1960299D02*
Y1997701D01*
X1463299Y1978000D02*
X1500701D01*
X1482000Y1959299D02*
Y1996701D01*
X2108299Y1389000D02*
X2145701D01*
X2127000Y1370299D02*
Y1407701D01*
X3677299Y1824000D02*
X3714701D01*
X3696000Y1805299D02*
Y1842701D01*
X3392000Y1495299D02*
Y1532701D01*
X3373299Y1514000D02*
X3410701D01*
X3374000Y1790315D02*
Y1829685D01*
X3354315Y1810000D02*
X3393685D01*
X3636000Y1570315D02*
Y1609685D01*
X3616315Y1590000D02*
X3655685D01*
X152315Y1284000D02*
X191685D01*
X172000Y1264315D02*
Y1303685D01*
X2205284Y140000D02*
X2240716D01*
X2223000Y122284D02*
Y157716D01*
X2205284Y200000D02*
X2240716D01*
X2223000Y182284D02*
Y217716D01*
X2534000Y94284D02*
Y129716D01*
X2516284Y112000D02*
X2551716D01*
X2340000Y280284D02*
Y315716D01*
X2322284Y298000D02*
X2357716D01*
X2688284Y222000D02*
X2723716D01*
X2706000Y204284D02*
Y239716D01*
X1577284Y238000D02*
X1612716D01*
X1595000Y220284D02*
Y255716D01*
X1577284Y316000D02*
X1612716D01*
X1595000Y298284D02*
Y333716D01*
X1598284Y538000D02*
X1633716D01*
X1616000Y520284D02*
Y555716D01*
X3308000Y1472284D02*
Y1507716D01*
X3290284Y1490000D02*
X3325716D01*
X3763000Y1803284D02*
Y1838716D01*
X3745284Y1821000D02*
X3780716D01*
X1711000Y1957284D02*
Y1992716D01*
X1693284Y1975000D02*
X1728716D01*
X2011000Y1226284D02*
Y1261716D01*
X1993284Y1244000D02*
X2028716D01*
X1818000Y1229284D02*
Y1264716D01*
X1800284Y1247000D02*
X1835716D01*
X1647000Y1229284D02*
Y1264716D01*
X1629284Y1247000D02*
X1664716D01*
X1369284Y1089000D02*
X1404716D01*
X1387000Y1071284D02*
Y1106716D01*
X3629928Y1297939D02*
Y1333372D01*
X3612211Y1315655D02*
X3647644D01*
X3025000Y1594284D02*
Y1629716D01*
X3007284Y1612000D02*
X3042716D01*
X2942000Y1983284D02*
Y2018716D01*
X2924284Y2001000D02*
X2959716D01*
X3144000Y1710284D02*
Y1745716D01*
X3126284Y1728000D02*
X3161716D01*
X3561000Y1796284D02*
Y1831716D01*
X3543284Y1814000D02*
X3578716D01*
X2840000Y931284D02*
Y966716D01*
X2822284Y949000D02*
X2857716D01*
X2929284Y543000D02*
X2964716D01*
X2947000Y525284D02*
Y560716D01*
X110000Y626000D02*
Y1022063D01*
X29843D02*
X110000D01*
X29843Y626000D02*
Y1022063D01*
Y626000D02*
X110000D01*
X70000Y766000D02*
Y786000D01*
X60000Y776000D02*
X80000D01*
X60000Y1687000D02*
X80000D01*
X70000Y1677000D02*
Y1697000D01*
X29843Y1537000D02*
X110000D01*
X29843D02*
Y1933063D01*
X110000D01*
Y1537000D02*
Y1933063D01*
X968425Y2024284D02*
Y2059716D01*
X950709Y2042000D02*
X986142D01*
X3660284Y1035000D02*
X3695716D01*
X3678000Y1017284D02*
Y1052716D01*
X2595000Y91173D02*
Y112827D01*
X2584173Y102000D02*
X2605827D01*
X3175000Y641284D02*
Y676716D01*
X3157284Y659000D02*
X3192716D01*
X1297472Y1120480D02*
Y1292528D01*
X1456528D01*
Y1120480D02*
Y1292528D01*
X1297472Y1120480D02*
X1456528D01*
X1403000Y1315284D02*
Y1350716D01*
X1385284Y1333000D02*
X1420716D01*
X1937284Y1244000D02*
X1972716D01*
X1955000Y1226284D02*
Y1261716D01*
X1880284Y1244000D02*
X1915716D01*
X1898000Y1226284D02*
Y1261716D01*
X1740284Y1247000D02*
X1775716D01*
X1758000Y1229284D02*
Y1264716D01*
X1684784Y1247000D02*
X1720216D01*
X1702500Y1229284D02*
Y1264716D01*
X1623284Y1976000D02*
X1658716D01*
X1641000Y1958284D02*
Y1993716D01*
D130*
X3139661Y881071D02*
Y1014929D01*
X3222339Y881071D02*
Y1014929D01*
X3139661Y881071D02*
X3222339D01*
X3139661Y1014929D02*
X3222339D01*
X3339339Y1969071D02*
Y2102929D01*
X3256661Y1969071D02*
Y2102929D01*
X3339339D01*
X3256661Y1969071D02*
X3339339D01*
X2980071Y1918339D02*
X3113929D01*
X2980071Y1835661D02*
X3113929D01*
X2980071D02*
Y1918339D01*
X3113929Y1835661D02*
Y1918339D01*
X626323Y1557882D02*
X791677D01*
Y1418118D02*
Y1557882D01*
X626323Y1418118D02*
X791677D01*
X626323D02*
Y1557882D01*
X3082677Y625118D02*
Y764882D01*
X2917323D02*
X3082677D01*
X2917323Y625118D02*
Y764882D01*
Y625118D02*
X3082677D01*
X3085677Y916118D02*
Y1055882D01*
X2920323D02*
X3085677D01*
X2920323Y916118D02*
Y1055882D01*
Y916118D02*
X3085677D01*
X3117087Y1797866D02*
X3252913D01*
X3117087D02*
Y1906134D01*
X3252913D01*
Y1797866D02*
Y1906134D01*
X2310835Y101087D02*
Y236913D01*
X2415165D01*
Y101087D02*
Y236913D01*
X2310835Y101087D02*
X2415165D01*
X1848976Y2206772D02*
Y2553228D01*
X1971024D01*
Y2206772D02*
Y2553228D01*
X1848976Y2206772D02*
X1971024D01*
X3516724Y546236D02*
Y2025764D01*
X357276Y546236D02*
X3516724D01*
X357276D02*
Y2025764D01*
X3516724D01*
X3484662Y1420622D02*
X3567339D01*
X3484662Y1373378D02*
X3567339D01*
X3484662D02*
Y1420622D01*
X3567339Y1373378D02*
Y1420622D01*
X664087Y2060622D02*
X746764D01*
X664087Y2013378D02*
X746764D01*
X664087D02*
Y2060622D01*
X746764Y2013378D02*
Y2060622D01*
X2524662Y242622D02*
X2607339D01*
X2524662Y195378D02*
X2607339D01*
X2524662D02*
Y242622D01*
X2607339Y195378D02*
Y242622D01*
X2461622Y258661D02*
Y341339D01*
X2414378Y258661D02*
Y341339D01*
X2461622D01*
X2414378Y258661D02*
X2461622D01*
X3265622Y1452661D02*
Y1535339D01*
X3218378Y1452661D02*
Y1535339D01*
X3265622D01*
X3218378Y1452661D02*
X3265622D01*
X3482662Y1217622D02*
X3565339D01*
X3482662Y1170378D02*
X3565339D01*
X3482662D02*
Y1217622D01*
X3565339Y1170378D02*
Y1217622D01*
X2729661Y835378D02*
X2812338D01*
X2729661Y882622D02*
X2812338D01*
Y835378D02*
Y882622D01*
X2729661Y835378D02*
Y882622D01*
X1850661Y752622D02*
X1933339D01*
X1850661Y705378D02*
X1933339D01*
X1850661D02*
Y752622D01*
X1933339Y705378D02*
Y752622D01*
X3397662Y1602622D02*
X3480339D01*
X3397662Y1555378D02*
X3480339D01*
X3397662D02*
Y1602622D01*
X3480339Y1555378D02*
Y1602622D01*
X1934622Y1982423D02*
Y2065101D01*
X1887378Y1982423D02*
Y2065101D01*
X1934622D01*
X1887378Y1982423D02*
X1934622D01*
X3710622Y1278661D02*
Y1361339D01*
X3663378Y1278661D02*
Y1361339D01*
X3710622D01*
X3663378Y1278661D02*
X3710622D01*
X1426622Y1937661D02*
Y2020339D01*
X1379378Y1937661D02*
Y2020339D01*
X1426622D01*
X1379378Y1937661D02*
X1426622D01*
X1505622Y1936661D02*
Y2019339D01*
X1458378Y1936661D02*
Y2019339D01*
X1505622D01*
X1458378Y1936661D02*
X1505622D01*
X2150622Y1347661D02*
Y1430339D01*
X2103378Y1347661D02*
Y1430339D01*
X2150622D01*
X2103378Y1347661D02*
X2150622D01*
X3672378Y1782661D02*
Y1865339D01*
X3719622Y1782661D02*
Y1865339D01*
X3672378Y1782661D02*
X3719622D01*
X3672378Y1865339D02*
X3719622D01*
X3350661Y1490378D02*
X3433338D01*
X3350661Y1537622D02*
X3433338D01*
Y1490378D02*
Y1537622D01*
X3350661Y1490378D02*
Y1537622D01*
X3265732Y1664331D02*
X3482268D01*
X3265732Y1955669D02*
X3482268D01*
X3265732Y1664331D02*
Y1955669D01*
X3482268Y1664331D02*
Y1955669D01*
X3527732Y1444331D02*
X3744268D01*
X3527732Y1735669D02*
X3744268D01*
X3527732Y1444331D02*
Y1735669D01*
X3744268Y1444331D02*
Y1735669D01*
X2315Y1121795D02*
X269244D01*
Y1446205D01*
X2315D02*
X269244D01*
X2315Y1121795D02*
Y1446205D01*
X2289929Y98661D02*
Y181339D01*
X2156071Y98661D02*
Y181339D01*
Y98661D02*
X2289929D01*
X2156071Y181339D02*
X2289929D01*
Y158661D02*
Y241339D01*
X2156071Y158661D02*
Y241339D01*
Y158661D02*
X2289929D01*
X2156071Y241339D02*
X2289929D01*
X2492661Y178929D02*
X2575339D01*
X2492661Y45071D02*
X2575339D01*
Y178929D01*
X2492661Y45071D02*
Y178929D01*
X2298661Y364929D02*
X2381339D01*
X2298661Y231071D02*
X2381339D01*
Y364929D01*
X2298661Y231071D02*
Y364929D01*
X2772929Y180661D02*
Y263339D01*
X2639071Y180661D02*
Y263339D01*
Y180661D02*
X2772929D01*
X2639071Y263339D02*
X2772929D01*
X1661929Y196661D02*
Y279339D01*
X1528071Y196661D02*
Y279339D01*
Y196661D02*
X1661929D01*
X1528071Y279339D02*
X1661929D01*
Y274661D02*
Y357339D01*
X1528071Y274661D02*
Y357339D01*
Y274661D02*
X1661929D01*
X1528071Y357339D02*
X1661929D01*
X1549071Y496661D02*
Y579339D01*
X1682929Y496661D02*
Y579339D01*
X1549071D02*
X1682929D01*
X1549071Y496661D02*
X1682929D01*
X3266661Y1556929D02*
X3349339D01*
X3266661Y1423071D02*
X3349339D01*
Y1556929D01*
X3266661Y1423071D02*
Y1556929D01*
X3721661Y1754071D02*
X3804339D01*
X3721661Y1887929D02*
X3804339D01*
X3721661Y1754071D02*
Y1887929D01*
X3804339Y1754071D02*
Y1887929D01*
X1669661Y2041929D02*
X1752339D01*
X1669661Y1908071D02*
X1752339D01*
Y2041929D01*
X1669661Y1908071D02*
Y2041929D01*
X1969661Y1177071D02*
X2052339D01*
X1969661Y1310929D02*
X2052339D01*
X1969661Y1177071D02*
Y1310929D01*
X2052339Y1177071D02*
Y1310929D01*
X1776661Y1180071D02*
X1859339D01*
X1776661Y1313929D02*
X1859339D01*
X1776661Y1180071D02*
Y1313929D01*
X1859339Y1180071D02*
Y1313929D01*
X1605661Y1180071D02*
X1688339D01*
X1605661Y1313929D02*
X1688339D01*
X1605661Y1180071D02*
Y1313929D01*
X1688339Y1180071D02*
Y1313929D01*
X1428339Y1022071D02*
Y1155929D01*
X1345661Y1022071D02*
Y1155929D01*
X1428339D01*
X1345661Y1022071D02*
X1428339D01*
X3588589Y1382584D02*
X3671266D01*
X3588589Y1248726D02*
X3671266D01*
Y1382584D01*
X3588589Y1248726D02*
Y1382584D01*
X2983661Y1678929D02*
X3066339D01*
X2983661Y1545071D02*
X3066339D01*
Y1678929D01*
X2983661Y1545071D02*
Y1678929D01*
X2900661Y2067929D02*
X2983339D01*
X2900661Y1934071D02*
X2983339D01*
Y2067929D01*
X2900661Y1934071D02*
Y2067929D01*
X3102661Y1794929D02*
X3185339D01*
X3102661Y1661071D02*
X3185339D01*
Y1794929D01*
X3102661Y1661071D02*
Y1794929D01*
X3519661Y1880929D02*
X3602339D01*
X3519661Y1747071D02*
X3602339D01*
Y1880929D01*
X3519661Y1747071D02*
Y1880929D01*
X2773071Y990339D02*
X2906929D01*
X2773071Y907661D02*
X2906929D01*
X2773071D02*
Y990339D01*
X2906929Y907661D02*
Y990339D01*
X2905661Y476071D02*
Y609929D01*
X2988339Y476071D02*
Y609929D01*
X2905661Y476071D02*
X2988339D01*
X2905661Y609929D02*
X2988339D01*
X901496Y2083339D02*
X1035354D01*
X901496Y2000661D02*
X1035354D01*
X901496D02*
Y2083339D01*
X1035354Y2000661D02*
Y2083339D01*
X3719339Y968071D02*
Y1101929D01*
X3636661Y968071D02*
Y1101929D01*
X3719339D01*
X3636661Y968071D02*
X3719339D01*
X3707071Y977307D02*
X3840929D01*
Y1140693D01*
X3707071D02*
X3840929D01*
X3707071Y977307D02*
Y1140693D01*
X2571378Y60661D02*
X2618622D01*
X2571378Y143339D02*
X2618622D01*
X2571378Y60661D02*
Y143339D01*
X2618622Y60661D02*
Y143339D01*
X3108071Y617661D02*
X3241929D01*
X3108071Y700339D02*
X3241929D01*
Y617661D02*
Y700339D01*
X3108071Y617661D02*
Y700339D01*
X1361661Y1399929D02*
X1444339D01*
X1361661Y1266071D02*
X1444339D01*
Y1399929D01*
X1361661Y1266071D02*
Y1399929D01*
X1996339Y1177071D02*
Y1310929D01*
X1913661Y1177071D02*
Y1310929D01*
X1996339D01*
X1913661Y1177071D02*
X1996339D01*
X1939339D02*
Y1310929D01*
X1856661Y1177071D02*
Y1310929D01*
X1939339D01*
X1856661Y1177071D02*
X1939339D01*
X1799339Y1180071D02*
Y1313929D01*
X1716661Y1180071D02*
Y1313929D01*
X1799339D01*
X1716661Y1180071D02*
X1799339D01*
X1743839D02*
Y1313929D01*
X1661161Y1180071D02*
Y1313929D01*
X1743839D01*
X1661161Y1180071D02*
X1743839D01*
X1682339Y1909071D02*
Y2042929D01*
X1599661Y1909071D02*
Y2042929D01*
X1682339D01*
X1599661Y1909071D02*
X1682339D01*
D131*
X2035000Y1452000D02*
Y1512000D01*
Y1452000D02*
X2155000D01*
X2035000Y1512000D02*
X2155000D01*
Y1452000D02*
Y1512000D01*
X1956000Y762000D02*
Y822000D01*
X1836000D02*
X1956000D01*
X1836000Y762000D02*
X1956000D01*
X1836000D02*
Y822000D01*
%TF.MD5,583059a350a9296adcaf37fb95d8004f*%
M02*
