G04*
G04 #@! TF.GenerationSoftware,Altium Limited,Altium Designer,19.1.9 (167)*
G04*
G04 Layer_Color=8388736*
%FSLAX25Y25*%
%MOIN*%
G70*
G01*
G75*
%ADD11C,0.01000*%
%ADD16C,0.00500*%
%ADD17C,0.00800*%
D11*
X161504Y139658D02*
G03*
X161504Y139658I-2008J0D01*
G01*
X172788Y139757D02*
X182627D01*
X184595Y141725D01*
Y145660D01*
X182627Y147628D01*
X172788D01*
X184595Y151564D02*
Y155500D01*
Y153532D01*
X172788D01*
X174756Y151564D01*
D16*
X354142Y125988D02*
Y137110D01*
X359359D01*
Y125988D02*
Y137110D01*
X354142Y125988D02*
X359359D01*
X286943Y156088D02*
Y167210D01*
X292159D01*
Y156088D02*
Y167210D01*
X286943Y156088D02*
X292159D01*
X298458Y155890D02*
Y167012D01*
X293241Y155890D02*
X298458D01*
X293241D02*
Y167012D01*
X298458D01*
X290258Y194590D02*
Y205712D01*
X285041Y194590D02*
X290258D01*
X285041D02*
Y205712D01*
X290258D01*
X278043Y194788D02*
Y205910D01*
X283259D01*
Y194788D02*
Y205910D01*
X278043Y194788D02*
X283259D01*
X311590Y70643D02*
X322712D01*
X311590D02*
Y75859D01*
X322712D01*
Y70643D02*
Y75859D01*
X308841Y141212D02*
X314057D01*
X308841Y130090D02*
Y141212D01*
Y130090D02*
X314057D01*
Y141212D01*
X308641Y126512D02*
X313858D01*
X308641Y115390D02*
Y126512D01*
Y115390D02*
X313858D01*
Y126512D01*
D17*
X152804Y132965D02*
X200048D01*
Y184146D01*
X152804D02*
X200048D01*
X152804Y132965D02*
Y184146D01*
M02*
