G04*
G04 #@! TF.GenerationSoftware,Altium Limited,Altium Designer,21.6.1 (37)*
G04*
G04 Layer_Color=255*
%FSLAX44Y44*%
%MOMM*%
G71*
G04*
G04 #@! TF.SameCoordinates,8A31D3E6-7417-4931-9B95-E7CF89301AF7*
G04*
G04*
G04 #@! TF.FilePolarity,Positive*
G04*
G01*
G75*
%ADD32R,0.9652X0.9398*%
%ADD115C,1.0160*%
%ADD116O,1.7000X1.2000*%
%ADD117O,1.4000X1.0000*%
%ADD118C,7.3660*%
%ADD119O,2.5400X5.0800*%
%ADD120R,2.0320X2.0320*%
%ADD121C,1.5000*%
%ADD122R,1.5000X1.5000*%
%ADD123C,3.0480*%
%ADD142R,2.5000X1.4250*%
%ADD143R,1.7500X0.4000*%
D32*
X47879Y382270D02*
D03*
X62865D02*
D03*
D115*
X585029Y602488D02*
D03*
D116*
X29788Y298886D02*
D03*
Y353386D02*
D03*
D117*
X60088Y301886D02*
D03*
Y350386D02*
D03*
D118*
X719248Y326644D02*
D03*
X264748D02*
D03*
D119*
X126248D02*
D03*
X857748D02*
D03*
D120*
X959612Y329692D02*
D03*
D121*
X20066Y469900D02*
D03*
Y419100D02*
D03*
Y444500D02*
D03*
Y229108D02*
D03*
Y203708D02*
D03*
Y254508D02*
D03*
D122*
Y393700D02*
D03*
Y178308D02*
D03*
D123*
X167386Y614426D02*
D03*
X809244Y40640D02*
D03*
X167386D02*
D03*
X809244Y614426D02*
D03*
D142*
X27288Y335761D02*
D03*
Y316511D02*
D03*
D143*
X58038Y339136D02*
D03*
Y332636D02*
D03*
Y313136D02*
D03*
Y319636D02*
D03*
Y326136D02*
D03*
M02*
