G04*
G04 #@! TF.GenerationSoftware,Altium Limited,Altium Designer,19.1.9 (167)*
G04*
G04 Layer_Physical_Order=4*
G04 Layer_Color=16711680*
%FSLAX25Y25*%
%MOIN*%
G70*
G01*
G75*
%ADD11C,0.01000*%
%ADD16C,0.00500*%
%ADD46R,0.03800X0.03700*%
%ADD93C,0.01028*%
%ADD95C,0.01500*%
%ADD98C,0.25000*%
%ADD99O,0.10000X0.20000*%
%ADD100R,0.08000X0.08000*%
%ADD101O,0.06693X0.04724*%
%ADD102O,0.05512X0.03937*%
%ADD103C,0.05906*%
%ADD104R,0.05906X0.05906*%
%ADD105C,0.12000*%
%ADD106C,0.01800*%
%ADD107C,0.01600*%
%ADD108C,0.03200*%
%ADD119R,0.06890X0.01575*%
%ADD120R,0.09843X0.05610*%
%ADD121R,0.05748X0.07874*%
G36*
X321802Y254659D02*
X323667Y254159D01*
X325451Y253420D01*
X327123Y252455D01*
X328655Y251280D01*
X330020Y249915D01*
X331195Y248383D01*
X332161Y246711D01*
X332899Y244927D01*
X333399Y243062D01*
X333651Y241148D01*
X333651Y240182D01*
Y234277D01*
X333654Y234264D01*
X333651Y234252D01*
X333685Y232900D01*
X333693Y232863D01*
X333689Y232825D01*
X333954Y230133D01*
X333969Y230085D01*
Y230034D01*
X334497Y227382D01*
X334516Y227335D01*
X334521Y227285D01*
X335306Y224697D01*
X335330Y224652D01*
X335340Y224602D01*
X336375Y222104D01*
X336403Y222062D01*
X336418Y222013D01*
X337692Y219628D01*
X337724Y219589D01*
X337744Y219542D01*
X339246Y217294D01*
X339282Y217258D01*
X339306Y217213D01*
X341022Y215123D01*
X341061Y215091D01*
X341089Y215049D01*
X343001Y213136D01*
X343043Y213108D01*
X343075Y213069D01*
X345166Y211353D01*
X345211Y211329D01*
X345246Y211294D01*
X347495Y209791D01*
X347542Y209772D01*
X347581Y209740D01*
X349966Y208465D01*
X350014Y208450D01*
X350057Y208422D01*
X352555Y207387D01*
X352605Y207377D01*
X352649Y207353D01*
X355238Y206568D01*
X355288Y206563D01*
X355334Y206544D01*
X357987Y206016D01*
X358038D01*
X358086Y206002D01*
X360777Y205736D01*
X360815Y205740D01*
X360853Y205732D01*
X362205Y205699D01*
X362217Y205701D01*
X362230Y205698D01*
X371069D01*
X372983Y205446D01*
X374848Y204947D01*
X376632Y204208D01*
X378304Y203242D01*
X379836Y202067D01*
X381201Y200702D01*
X382376Y199170D01*
X383342Y197498D01*
X384081Y195714D01*
X384580Y193849D01*
X384832Y191935D01*
Y190970D01*
Y64986D01*
Y64020D01*
X384580Y62106D01*
X384081Y60241D01*
X383342Y58457D01*
X382376Y56785D01*
X381201Y55254D01*
X379836Y53888D01*
X378304Y52713D01*
X376632Y51748D01*
X374848Y51009D01*
X372983Y50509D01*
X371069Y50257D01*
X370104Y50257D01*
X362230D01*
X362217Y50255D01*
X362205Y50257D01*
X360852Y50224D01*
X360815Y50215D01*
X360777Y50219D01*
X358086Y49954D01*
X358038Y49939D01*
X357987D01*
X355334Y49412D01*
X355288Y49392D01*
X355238Y49387D01*
X352649Y48602D01*
X352605Y48578D01*
X352555Y48568D01*
X350057Y47534D01*
X350014Y47506D01*
X349966Y47491D01*
X347581Y46216D01*
X347542Y46184D01*
X347495Y46164D01*
X345246Y44662D01*
X345211Y44626D01*
X345166Y44602D01*
X343075Y42887D01*
X343043Y42847D01*
X343001Y42819D01*
X341089Y40907D01*
X341061Y40865D01*
X341022Y40833D01*
X339306Y38742D01*
X339282Y38698D01*
X339246Y38662D01*
X337744Y36413D01*
X337724Y36366D01*
X337692Y36327D01*
X336418Y33942D01*
X336403Y33894D01*
X336375Y33852D01*
X335340Y31353D01*
X335330Y31304D01*
X335306Y31259D01*
X334521Y28671D01*
X334516Y28620D01*
X334497Y28574D01*
X333969Y25921D01*
Y25871D01*
X333954Y25822D01*
X333689Y23131D01*
X333693Y23093D01*
X333685Y23056D01*
X333651Y21703D01*
X333654Y21691D01*
X333651Y21678D01*
Y14808D01*
X333399Y12893D01*
X332899Y11029D01*
X332161Y9245D01*
X331195Y7573D01*
X330020Y6041D01*
X328655Y4676D01*
X327123Y3500D01*
X325451Y2535D01*
X323667Y1796D01*
X321802Y1297D01*
X319888Y1044D01*
X205416D01*
Y17700D01*
X205354Y18012D01*
X205177Y18277D01*
X204912Y18454D01*
X204600Y18516D01*
X178800D01*
X178488Y18454D01*
X178223Y18277D01*
X178046Y18012D01*
X177984Y17700D01*
Y1044D01*
X65989D01*
X64075Y1297D01*
X62210Y1796D01*
X60426Y2535D01*
X58754Y3500D01*
X57222Y4676D01*
X55857Y6041D01*
X54681Y7573D01*
X53716Y9245D01*
X52977Y11029D01*
X52478Y12893D01*
X52226Y14808D01*
X52226Y15773D01*
Y21679D01*
X52223Y21691D01*
X52225Y21704D01*
X52192Y23056D01*
X52184Y23093D01*
X52188Y23131D01*
X51923Y25822D01*
X51908Y25871D01*
Y25921D01*
X51380Y28574D01*
X51361Y28620D01*
X51356Y28671D01*
X50571Y31259D01*
X50547Y31304D01*
X50537Y31353D01*
X49502Y33852D01*
X49474Y33894D01*
X49459Y33942D01*
X48184Y36327D01*
X48152Y36366D01*
X48133Y36413D01*
X46630Y38662D01*
X46595Y38698D01*
X46571Y38742D01*
X44855Y40833D01*
X44816Y40865D01*
X44788Y40907D01*
X42875Y42819D01*
X42834Y42847D01*
X42801Y42887D01*
X40711Y44602D01*
X40666Y44626D01*
X40630Y44662D01*
X38382Y46164D01*
X38335Y46184D01*
X38296Y46216D01*
X35911Y47491D01*
X35862Y47506D01*
X35820Y47534D01*
X33322Y48568D01*
X33272Y48578D01*
X33227Y48602D01*
X30639Y49387D01*
X30589Y49392D01*
X30542Y49412D01*
X27890Y49939D01*
X27839D01*
X27791Y49954D01*
X25099Y50219D01*
X25061Y50215D01*
X25024Y50224D01*
X23672Y50257D01*
X23660Y50255D01*
X23647Y50257D01*
X15773Y50257D01*
X14808Y50257D01*
X12893Y50509D01*
X11029Y51009D01*
X9245Y51748D01*
X7573Y52713D01*
X6041Y53888D01*
X4676Y55254D01*
X3500Y56785D01*
X2535Y58457D01*
X1796Y60241D01*
X1297Y62106D01*
X1044Y64020D01*
X1044Y64986D01*
Y83567D01*
X2045Y83981D01*
X3963Y82063D01*
X4393Y81775D01*
X4648Y81725D01*
X4699Y81631D01*
X4872Y80943D01*
X4862Y80690D01*
X4324Y80277D01*
X3722Y79493D01*
X3344Y78580D01*
X3215Y77600D01*
X3344Y76620D01*
X3722Y75707D01*
X4324Y74923D01*
X5107Y74322D01*
X6020Y73944D01*
X7000Y73815D01*
X7980Y73944D01*
X8893Y74322D01*
X9676Y74923D01*
X10278Y75707D01*
X10656Y76620D01*
X10785Y77600D01*
X10656Y78580D01*
X10278Y79493D01*
X9676Y80277D01*
X9158Y80674D01*
X9489Y81674D01*
X103400D01*
X103907Y81775D01*
X104337Y82063D01*
X126737Y104463D01*
X127025Y104893D01*
X127126Y105400D01*
Y115804D01*
X127307Y116076D01*
X127431Y116700D01*
X127307Y117324D01*
X127126Y117596D01*
Y146434D01*
X136574Y155883D01*
X136624Y155893D01*
X137153Y156246D01*
X137507Y156776D01*
X137631Y157400D01*
X138497Y158174D01*
X140257D01*
X144392Y154039D01*
X144827Y153748D01*
X145339Y153646D01*
X222386D01*
X222899Y153748D01*
X223333Y154039D01*
X224274Y154980D01*
X225274Y154566D01*
Y136049D01*
X176563Y87337D01*
X176275Y86907D01*
X176174Y86400D01*
Y73996D01*
X175993Y73724D01*
X175869Y73100D01*
X175993Y72476D01*
X176347Y71947D01*
X176876Y71593D01*
X177500Y71469D01*
X178124Y71593D01*
X178654Y71947D01*
X179007Y72476D01*
X179131Y73100D01*
X179007Y73724D01*
X178825Y73996D01*
Y85851D01*
X227537Y134563D01*
X227825Y134993D01*
X227925Y135500D01*
Y157970D01*
X227825Y158477D01*
X227537Y158907D01*
X223983Y162462D01*
X224365Y163386D01*
X225941D01*
X285431Y103896D01*
X285157Y102756D01*
X284670Y102430D01*
X284139Y101636D01*
X283953Y100700D01*
X284139Y99764D01*
X284670Y98970D01*
X285464Y98439D01*
X286400Y98253D01*
X287336Y98439D01*
X288130Y98970D01*
X288456Y99457D01*
X289596Y99730D01*
X296264Y93063D01*
X296694Y92775D01*
X297201Y92674D01*
X378063D01*
X378446Y91751D01*
X364221Y77526D01*
X308149D01*
X306271Y79404D01*
X306207Y79724D01*
X305854Y80253D01*
X305324Y80607D01*
X304700Y80731D01*
X304076Y80607D01*
X303547Y80253D01*
X303193Y79724D01*
X303069Y79100D01*
X303193Y78476D01*
X303547Y77947D01*
X304076Y77593D01*
X304397Y77529D01*
X306663Y75263D01*
X307093Y74975D01*
X307600Y74875D01*
X364770D01*
X365277Y74975D01*
X365707Y75263D01*
X382637Y92193D01*
X382925Y92623D01*
X383026Y93130D01*
Y111170D01*
X382925Y111677D01*
X382637Y112107D01*
X326907Y167837D01*
X326477Y168125D01*
X325970Y168226D01*
X310183D01*
X310099Y168321D01*
X309740Y169226D01*
X309907Y169476D01*
X310031Y170100D01*
X309907Y170724D01*
X309554Y171254D01*
X309024Y171607D01*
X308400Y171731D01*
X307776Y171607D01*
X307246Y171254D01*
X306893Y170724D01*
X306769Y170100D01*
X306893Y169476D01*
X307060Y169226D01*
X306701Y168321D01*
X306617Y168226D01*
X296451D01*
X295631Y169100D01*
X295507Y169724D01*
X295153Y170254D01*
X294624Y170607D01*
X294303Y170671D01*
X275437Y189537D01*
X275007Y189825D01*
X274500Y189926D01*
X168796D01*
X168524Y190107D01*
X167900Y190231D01*
X167276Y190107D01*
X166746Y189753D01*
X166393Y189224D01*
X166375Y189135D01*
X166360Y189058D01*
X165340D01*
X165325Y189135D01*
X165307Y189224D01*
X164953Y189753D01*
X164424Y190107D01*
X164103Y190171D01*
X149929Y204345D01*
X149480Y204970D01*
X149707Y205676D01*
X149831Y206300D01*
X149707Y206924D01*
X149354Y207453D01*
X148824Y207807D01*
X148200Y207931D01*
X147576Y207807D01*
X147046Y207453D01*
X146693Y206924D01*
X146569Y206300D01*
X146583Y206225D01*
X145882Y205225D01*
X142517D01*
X141816Y206225D01*
X141831Y206300D01*
X141707Y206924D01*
X141353Y207453D01*
X140824Y207807D01*
X140200Y207931D01*
X139576Y207807D01*
X139047Y207453D01*
X138693Y206924D01*
X138569Y206300D01*
X138584Y206225D01*
X137882Y205225D01*
X107796D01*
X107524Y205407D01*
X106900Y205531D01*
X106276Y205407D01*
X105746Y205053D01*
X105393Y204524D01*
X105269Y203900D01*
X105393Y203276D01*
X105746Y202747D01*
X106276Y202393D01*
X106900Y202269D01*
X107524Y202393D01*
X107796Y202574D01*
X147951D01*
X153000Y197526D01*
X152586Y196526D01*
X136196D01*
X135924Y196707D01*
X135300Y196831D01*
X134676Y196707D01*
X134146Y196353D01*
X133793Y195824D01*
X133669Y195200D01*
X133793Y194576D01*
X134146Y194046D01*
X134676Y193693D01*
X135300Y193569D01*
X135924Y193693D01*
X136196Y193875D01*
X152651D01*
X158354Y188172D01*
X158393Y187976D01*
X158747Y187446D01*
X159276Y187093D01*
X159900Y186969D01*
X160524Y187093D01*
X161054Y187446D01*
X161298Y187813D01*
X161319Y187824D01*
X161850Y187907D01*
X162396Y187821D01*
X162646Y187446D01*
X163176Y187093D01*
X163800Y186969D01*
X164424Y187093D01*
X164953Y187446D01*
X165307Y187976D01*
X165325Y188065D01*
X165340Y188142D01*
X166360D01*
X166375Y188065D01*
X166393Y187976D01*
X166746Y187446D01*
X167276Y187093D01*
X167900Y186969D01*
X168524Y187093D01*
X168796Y187275D01*
X273951D01*
X277376Y183849D01*
X276993Y182925D01*
X203900D01*
X203393Y182825D01*
X202963Y182537D01*
X198665Y178240D01*
X151369D01*
X150912Y178149D01*
X150824Y178207D01*
X150200Y178331D01*
X149576Y178207D01*
X149047Y177854D01*
X148693Y177324D01*
X148569Y176700D01*
X148693Y176076D01*
X149047Y175547D01*
X149049Y175545D01*
Y174355D01*
X149047Y174354D01*
X148693Y173824D01*
X148569Y173200D01*
X148693Y172576D01*
X148909Y172253D01*
X148279Y171566D01*
X148201Y171512D01*
X147600Y171631D01*
X146976Y171507D01*
X146447Y171153D01*
X146093Y170624D01*
X145969Y170000D01*
X146060Y169539D01*
X145674Y168913D01*
X145401Y168612D01*
X144876Y168507D01*
X144346Y168154D01*
X144231Y167981D01*
X143210Y167757D01*
X143006Y167791D01*
X121160Y189637D01*
X120730Y189925D01*
X120223Y190025D01*
X10513D01*
X10278Y190593D01*
X9676Y191376D01*
X8893Y191978D01*
X7980Y192356D01*
X7000Y192485D01*
X6020Y192356D01*
X5107Y191978D01*
X4324Y191376D01*
X3722Y190593D01*
X3344Y189680D01*
X3215Y188700D01*
X3344Y187720D01*
X3722Y186807D01*
X4324Y186023D01*
X5107Y185422D01*
X6020Y185044D01*
X7000Y184915D01*
X7980Y185044D01*
X8893Y185422D01*
X9676Y186023D01*
X10278Y186807D01*
X10513Y187374D01*
X119674D01*
X126099Y180949D01*
X125716Y180025D01*
X10513D01*
X10278Y180593D01*
X9676Y181377D01*
X8893Y181978D01*
X7980Y182356D01*
X7000Y182485D01*
X6020Y182356D01*
X5107Y181978D01*
X4324Y181377D01*
X3722Y180593D01*
X3344Y179680D01*
X3215Y178700D01*
X3344Y177720D01*
X3722Y176807D01*
X4324Y176023D01*
X5107Y175422D01*
X6020Y175044D01*
X7000Y174915D01*
X7980Y175044D01*
X8893Y175422D01*
X9676Y176023D01*
X10278Y176807D01*
X10513Y177374D01*
X127128D01*
X132778Y171725D01*
X132363Y170726D01*
X67796D01*
X67524Y170907D01*
X66900Y171031D01*
X66276Y170907D01*
X65746Y170554D01*
X65393Y170024D01*
X65269Y169400D01*
X65393Y168776D01*
X65746Y168246D01*
X66276Y167893D01*
X66900Y167769D01*
X67524Y167893D01*
X67796Y168075D01*
X132942D01*
X139239Y161778D01*
X138856Y160854D01*
X113814D01*
X113301Y160752D01*
X112867Y160461D01*
X101345Y148940D01*
X71775D01*
X71524Y149107D01*
X70900Y149231D01*
X70276Y149107D01*
X69747Y148753D01*
X69393Y148224D01*
X69269Y147600D01*
X69393Y146976D01*
X69560Y146725D01*
Y133493D01*
X55395Y119328D01*
X55274Y119353D01*
X55019Y119764D01*
X54833Y120467D01*
X55274Y121293D01*
X55617Y122424D01*
X55733Y123600D01*
Y128100D01*
X49704D01*
X43675D01*
Y123600D01*
X43791Y122424D01*
X44134Y121293D01*
X44575Y120467D01*
X44389Y119764D01*
X44134Y119353D01*
X44012Y119328D01*
X39111Y124229D01*
X38677Y124520D01*
X38164Y124622D01*
X35982D01*
X35231Y125600D01*
X35107Y126224D01*
X34754Y126753D01*
Y127047D01*
X35107Y127576D01*
X35231Y128200D01*
X35107Y128824D01*
X34754Y129353D01*
X34224Y129707D01*
X33600Y129831D01*
X32976Y129707D01*
X32447Y129353D01*
X32431Y129331D01*
X32325Y129310D01*
X32050Y129125D01*
X31262D01*
X31082Y129245D01*
X30575Y129346D01*
X27395D01*
X27095Y129406D01*
Y131931D01*
Y135106D01*
X27095Y135106D01*
X27284Y135568D01*
X27346Y135880D01*
Y143754D01*
X27284Y144067D01*
X27107Y144331D01*
X26843Y144508D01*
X26531Y144570D01*
X22164D01*
X21326Y145334D01*
Y147643D01*
X21564Y147882D01*
X22325Y148297D01*
X23000Y148150D01*
X23617Y148150D01*
X25400D01*
Y151000D01*
Y153850D01*
X23617D01*
X23000Y153850D01*
X22083Y153650D01*
X17300D01*
Y148350D01*
X18675D01*
Y145883D01*
X17483Y144692D01*
X17402Y144570D01*
X17042D01*
X16730Y144508D01*
X16466Y144331D01*
X16289Y144067D01*
X16227Y143754D01*
Y142503D01*
X8972D01*
X8951Y142499D01*
X8930Y142502D01*
X8776Y142494D01*
X8755Y142489D01*
X8733Y142491D01*
X8583Y142475D01*
X8528Y142458D01*
X8471Y142455D01*
X8401Y142438D01*
X8381Y142428D01*
X8360Y142426D01*
X8288Y142404D01*
X8288Y142404D01*
X8147Y142361D01*
X8086Y142329D01*
X8020Y142311D01*
X7871Y142236D01*
X7846Y142216D01*
X7816Y142206D01*
X7678Y142123D01*
X7647Y142095D01*
X7608Y142076D01*
X7482Y141982D01*
X7463Y141960D01*
X7438Y141946D01*
X7319Y141843D01*
X7284Y141798D01*
X7238Y141762D01*
X7132Y141640D01*
X7118Y141616D01*
X7097Y141597D01*
X6999Y141467D01*
X6973Y141415D01*
X6936Y141371D01*
X6857Y141229D01*
X6850Y141208D01*
X6837Y141190D01*
X6766Y141044D01*
X6751Y140986D01*
X6722Y140934D01*
X6671Y140772D01*
X6665Y140725D01*
X6647Y140681D01*
X6624Y140559D01*
X6624Y140535D01*
X6616Y140513D01*
X6596Y140367D01*
X6599Y140334D01*
X6590Y140302D01*
X6582Y140157D01*
X6586Y140135D01*
X6581Y140113D01*
Y138144D01*
X6585Y138125D01*
X6582Y138106D01*
X6590Y137937D01*
X6601Y137893D01*
X6599Y137849D01*
X6624Y137685D01*
X6639Y137645D01*
X6642Y137602D01*
X6683Y137446D01*
X6703Y137407D01*
X6710Y137363D01*
X6769Y137209D01*
X6796Y137167D01*
X6810Y137120D01*
X6877Y136994D01*
X6887Y136982D01*
X6892Y136967D01*
X6963Y136845D01*
X6996Y136808D01*
X7017Y136763D01*
X6824Y136133D01*
X6529Y135794D01*
X5022D01*
Y128584D01*
X5022D01*
Y128216D01*
X5022D01*
Y121005D01*
X6529D01*
X6824Y120667D01*
X7017Y120037D01*
X6996Y119992D01*
X6963Y119955D01*
X6892Y119833D01*
X6887Y119818D01*
X6877Y119806D01*
X6810Y119680D01*
X6796Y119633D01*
X6769Y119590D01*
X6710Y119437D01*
X6703Y119393D01*
X6683Y119354D01*
X6642Y119198D01*
X6639Y119155D01*
X6624Y119115D01*
X6599Y118951D01*
X6601Y118907D01*
X6590Y118863D01*
X6582Y118694D01*
X6585Y118675D01*
X6581Y118656D01*
Y116687D01*
X6585Y116665D01*
X6582Y116643D01*
X6590Y116498D01*
X6599Y116466D01*
X6596Y116432D01*
X6616Y116287D01*
X6624Y116265D01*
X6624Y116241D01*
X6647Y116119D01*
X6665Y116075D01*
X6671Y116027D01*
X6722Y115866D01*
X6751Y115814D01*
X6766Y115756D01*
X6837Y115610D01*
X6850Y115592D01*
X6857Y115571D01*
X6936Y115429D01*
X6973Y115385D01*
X6999Y115333D01*
X7097Y115203D01*
X7118Y115184D01*
X7132Y115160D01*
X7238Y115038D01*
X7284Y115002D01*
X7319Y114957D01*
X7437Y114855D01*
X7463Y114840D01*
X7482Y114818D01*
X7608Y114724D01*
X7647Y114706D01*
X7678Y114677D01*
X7816Y114594D01*
X7846Y114584D01*
X7871Y114564D01*
X8020Y114489D01*
X8086Y114471D01*
X8147Y114439D01*
X8288Y114396D01*
X8360Y114374D01*
X8381Y114372D01*
X8401Y114362D01*
X8471Y114345D01*
X8528Y114342D01*
X8583Y114325D01*
X8733Y114309D01*
X8755Y114311D01*
X8776Y114306D01*
X8930Y114298D01*
X8951Y114301D01*
X8972Y114297D01*
X16227D01*
Y113046D01*
X16289Y112733D01*
X16466Y112469D01*
X16730Y112292D01*
X17042Y112230D01*
X19798D01*
X20111Y112292D01*
X20290Y112412D01*
X20470Y112292D01*
X20783Y112230D01*
X26531D01*
X26843Y112292D01*
X27107Y112469D01*
X27284Y112734D01*
X27346Y113046D01*
Y120920D01*
X27342Y120942D01*
X27802Y121737D01*
X28012Y121942D01*
X37609D01*
X43212Y116339D01*
X43647Y116048D01*
X44160Y115946D01*
X55248D01*
X55761Y116048D01*
X56195Y116339D01*
X71847Y131991D01*
X72138Y132425D01*
X72240Y132938D01*
Y146260D01*
X101900D01*
X102413Y146362D01*
X102847Y146653D01*
X114369Y158174D01*
X133503D01*
X133704Y158003D01*
X133846Y156904D01*
X124863Y147921D01*
X124575Y147491D01*
X124475Y146984D01*
Y117596D01*
X124293Y117324D01*
X124169Y116700D01*
X124293Y116076D01*
X124475Y115804D01*
Y105949D01*
X123225Y104700D01*
X122225Y105114D01*
Y121504D01*
X122407Y121776D01*
X122531Y122400D01*
X122407Y123024D01*
X122054Y123554D01*
X121524Y123907D01*
X120900Y124031D01*
X120276Y123907D01*
X119746Y123554D01*
X119393Y123024D01*
X119269Y122400D01*
X119393Y121776D01*
X119574Y121504D01*
Y104749D01*
X101751Y86926D01*
X11377D01*
X10785Y87600D01*
X10656Y88580D01*
X10278Y89493D01*
X9676Y90276D01*
X8893Y90878D01*
X7980Y91256D01*
X7000Y91385D01*
X6020Y91256D01*
X5107Y90878D01*
X4725Y90585D01*
X3726Y91078D01*
Y92451D01*
X5453Y94179D01*
X6020Y93944D01*
X7000Y93815D01*
X7980Y93944D01*
X8893Y94322D01*
X9676Y94924D01*
X10278Y95707D01*
X10656Y96620D01*
X10785Y97600D01*
X10656Y98580D01*
X10278Y99493D01*
X9676Y100277D01*
X8893Y100878D01*
X7980Y101256D01*
X7000Y101385D01*
X6020Y101256D01*
X5107Y100878D01*
X4324Y100277D01*
X3722Y99493D01*
X3344Y98580D01*
X3215Y97600D01*
X3344Y96620D01*
X3579Y96053D01*
X2045Y94519D01*
X1044Y94933D01*
Y190970D01*
X1044Y191935D01*
X1297Y193849D01*
X1796Y195714D01*
X2535Y197498D01*
X3500Y199170D01*
X4676Y200702D01*
X6041Y202067D01*
X7573Y203242D01*
X9245Y204208D01*
X11029Y204947D01*
X12893Y205446D01*
X14808Y205698D01*
X15773Y205698D01*
X23647Y205698D01*
X23660Y205701D01*
X23672Y205699D01*
X25024Y205732D01*
X25061Y205740D01*
X25099Y205736D01*
X27791Y206002D01*
X27839Y206016D01*
X27890D01*
X30542Y206544D01*
X30589Y206563D01*
X30639Y206568D01*
X33227Y207353D01*
X33272Y207377D01*
X33322Y207387D01*
X35820Y208422D01*
X35862Y208450D01*
X35911Y208465D01*
X38296Y209740D01*
X38335Y209772D01*
X38382Y209791D01*
X40630Y211294D01*
X40666Y211329D01*
X40711Y211353D01*
X42801Y213069D01*
X42833Y213108D01*
X42875Y213136D01*
X44788Y215049D01*
X44816Y215091D01*
X44855Y215123D01*
X46571Y217213D01*
X46595Y217258D01*
X46630Y217294D01*
X48133Y219542D01*
X48152Y219589D01*
X48184Y219628D01*
X49459Y222013D01*
X49474Y222062D01*
X49502Y222104D01*
X50537Y224602D01*
X50547Y224652D01*
X50571Y224697D01*
X51356Y227285D01*
X51361Y227335D01*
X51380Y227382D01*
X51908Y230034D01*
Y230085D01*
X51923Y230133D01*
X52188Y232825D01*
X52184Y232863D01*
X52192Y232900D01*
X52225Y234252D01*
X52223Y234264D01*
X52226Y234277D01*
X52226Y240182D01*
X52226Y241148D01*
X52478Y243062D01*
X52977Y244927D01*
X53716Y246711D01*
X54682Y248383D01*
X55857Y249914D01*
X57222Y251280D01*
X58754Y252455D01*
X60426Y253420D01*
X62210Y254159D01*
X64075Y254659D01*
X65989Y254911D01*
X66954D01*
X86684D01*
X86684Y219200D01*
X86746Y218888D01*
X86923Y218623D01*
X87188Y218446D01*
X87500Y218384D01*
X286300Y218384D01*
X286612Y218446D01*
X286877Y218623D01*
X287054Y218888D01*
X287116Y219200D01*
X287116Y254911D01*
X318923D01*
X319888D01*
X321802Y254659D01*
D02*
G37*
G36*
X202190Y172865D02*
X201263Y171937D01*
X200975Y171507D01*
X200874Y171000D01*
Y167202D01*
X200975Y166694D01*
X201263Y166264D01*
X205879Y161648D01*
X206309Y161361D01*
X206816Y161260D01*
X221435D01*
X223282Y159413D01*
X223346Y158254D01*
X222993Y157724D01*
X222934Y157429D01*
X221831Y156326D01*
X152697D01*
X151831Y157100D01*
X151707Y157724D01*
X151354Y158254D01*
Y159346D01*
X151707Y159876D01*
X151831Y160500D01*
X151707Y161124D01*
X151354Y161653D01*
Y162446D01*
X151707Y162976D01*
X151831Y163600D01*
X151707Y164224D01*
X151354Y164753D01*
Y165847D01*
X151707Y166376D01*
X151831Y167000D01*
X151707Y167624D01*
X151354Y168154D01*
X150824Y168507D01*
X150200Y168631D01*
X149753Y168543D01*
X149312Y168969D01*
X149092Y169353D01*
X149107Y169376D01*
X149231Y170000D01*
X149107Y170624D01*
X148891Y170948D01*
X149521Y171634D01*
X149599Y171688D01*
X150200Y171569D01*
X150824Y171693D01*
X151354Y172046D01*
X151707Y172576D01*
X151771Y172897D01*
X152663Y173789D01*
X201808D01*
X202190Y172865D01*
D02*
G37*
G36*
X19798Y136569D02*
X8885D01*
X8798Y136573D01*
X8716Y136589D01*
X8637Y136605D01*
X8570Y136620D01*
X8503Y136640D01*
X8377Y136687D01*
X8235Y136750D01*
X8098Y136837D01*
X7980Y136920D01*
X7869Y137022D01*
X7765Y137126D01*
X7668Y137254D01*
X7598Y137376D01*
X7531Y137502D01*
X7472Y137656D01*
X7430Y137811D01*
X7405Y137975D01*
X7397Y138144D01*
Y140113D01*
X7405Y140258D01*
X7424Y140404D01*
X7448Y140526D01*
X7499Y140687D01*
X7570Y140833D01*
X7649Y140975D01*
X7747Y141105D01*
X7853Y141227D01*
X7972Y141329D01*
X8098Y141424D01*
X8235Y141506D01*
X8385Y141581D01*
X8527Y141624D01*
X8598Y141646D01*
X8669Y141664D01*
X8818Y141680D01*
X8972Y141687D01*
X17042D01*
Y143754D01*
X19798D01*
Y136569D01*
D02*
G37*
G36*
X291547Y164163D02*
X291977Y163875D01*
X292485Y163775D01*
X312313D01*
X312847Y162775D01*
X312793Y162693D01*
X312669Y162069D01*
X312793Y161444D01*
X313146Y160915D01*
X313676Y160562D01*
X314300Y160437D01*
X314924Y160562D01*
X315454Y160915D01*
X315807Y161444D01*
X315931Y162069D01*
X315807Y162693D01*
X315753Y162775D01*
X316287Y163775D01*
X324251D01*
X325929Y162097D01*
X325993Y161776D01*
X326346Y161247D01*
X326876Y160893D01*
X327500Y160769D01*
X328124Y160893D01*
X328654Y161247D01*
X329813Y161182D01*
X380375Y110621D01*
Y96542D01*
X379824Y96131D01*
X379375Y95937D01*
X378900Y96031D01*
X378276Y95907D01*
X377747Y95553D01*
X377594Y95325D01*
X297750D01*
X277681Y115395D01*
X278247Y116243D01*
X279046Y115912D01*
X281082Y115423D01*
X283169Y115259D01*
X285256Y115423D01*
X287291Y115912D01*
X289225Y116713D01*
X291010Y117807D01*
X292602Y119166D01*
X293962Y120758D01*
X295056Y122543D01*
X295857Y124477D01*
X296345Y126513D01*
X296510Y128600D01*
X296345Y130687D01*
X295857Y132723D01*
X295056Y134657D01*
X293962Y136442D01*
X292602Y138034D01*
X291010Y139393D01*
X289225Y140487D01*
X287291Y141288D01*
X285256Y141777D01*
X283169Y141941D01*
X281082Y141777D01*
X279046Y141288D01*
X277112Y140487D01*
X275327Y139393D01*
X273735Y138034D01*
X272375Y136442D01*
X271282Y134657D01*
X270480Y132723D01*
X269992Y130687D01*
X269827Y128600D01*
X269992Y126513D01*
X270480Y124477D01*
X270811Y123679D01*
X269963Y123112D01*
X227427Y165648D01*
X226997Y165936D01*
X226490Y166037D01*
X207785D01*
X207297Y166525D01*
X207267Y166841D01*
X207586Y167651D01*
X207711Y167675D01*
X208140Y167963D01*
X218652Y178474D01*
X277236D01*
X291547Y164163D01*
D02*
G37*
G36*
X19798Y113046D02*
X17042D01*
Y115113D01*
X8972D01*
X8818Y115120D01*
X8669Y115136D01*
X8598Y115154D01*
X8527Y115176D01*
X8385Y115219D01*
X8235Y115294D01*
X8098Y115376D01*
X7972Y115471D01*
X7853Y115573D01*
X7747Y115695D01*
X7649Y115825D01*
X7570Y115967D01*
X7499Y116113D01*
X7448Y116274D01*
X7424Y116396D01*
X7405Y116542D01*
X7397Y116687D01*
Y118656D01*
X7405Y118825D01*
X7430Y118989D01*
X7472Y119144D01*
X7531Y119298D01*
X7598Y119424D01*
X7668Y119546D01*
X7765Y119674D01*
X7869Y119778D01*
X7980Y119880D01*
X8098Y119963D01*
X8235Y120050D01*
X8377Y120113D01*
X8503Y120160D01*
X8570Y120179D01*
X8637Y120195D01*
X8716Y120211D01*
X8798Y120227D01*
X8885Y120231D01*
X19798D01*
Y113046D01*
D02*
G37*
%LPC*%
G36*
X318600Y248733D02*
X317267Y248602D01*
X315985Y248213D01*
X314804Y247581D01*
X313768Y246732D01*
X312919Y245696D01*
X312287Y244515D01*
X311898Y243233D01*
X311767Y241900D01*
X311898Y240567D01*
X312287Y239285D01*
X312919Y238104D01*
X313768Y237068D01*
X314804Y236219D01*
X315985Y235587D01*
X317267Y235198D01*
X318600Y235067D01*
X319933Y235198D01*
X321215Y235587D01*
X322396Y236219D01*
X323432Y237068D01*
X324281Y238104D01*
X324913Y239285D01*
X325302Y240567D01*
X325433Y241900D01*
X325302Y243233D01*
X324913Y244515D01*
X324281Y245696D01*
X323432Y246732D01*
X322396Y247581D01*
X321215Y248213D01*
X319933Y248602D01*
X318600Y248733D01*
D02*
G37*
G36*
X65900D02*
X64567Y248602D01*
X63285Y248213D01*
X62104Y247581D01*
X61068Y246732D01*
X60219Y245696D01*
X59587Y244515D01*
X59198Y243233D01*
X59067Y241900D01*
X59198Y240567D01*
X59587Y239285D01*
X60219Y238104D01*
X61068Y237068D01*
X62104Y236219D01*
X63285Y235587D01*
X64567Y235198D01*
X65900Y235067D01*
X67233Y235198D01*
X68515Y235587D01*
X69696Y236219D01*
X70732Y237068D01*
X71581Y238104D01*
X72213Y239285D01*
X72602Y240567D01*
X72733Y241900D01*
X72602Y243233D01*
X72213Y244515D01*
X71581Y245696D01*
X70732Y246732D01*
X69696Y247581D01*
X68515Y248213D01*
X67233Y248602D01*
X65900Y248733D01*
D02*
G37*
G36*
X156100Y207931D02*
X155476Y207807D01*
X154946Y207453D01*
X154593Y206924D01*
X154469Y206300D01*
X154593Y205676D01*
X154946Y205147D01*
X155476Y204793D01*
X156100Y204669D01*
X156724Y204793D01*
X157254Y205147D01*
X157607Y205676D01*
X157731Y206300D01*
X157607Y206924D01*
X157254Y207453D01*
X156724Y207807D01*
X156100Y207931D01*
D02*
G37*
G36*
X324200Y207831D02*
X323576Y207707D01*
X323046Y207353D01*
X322693Y206824D01*
X322569Y206200D01*
X322693Y205576D01*
X323046Y205047D01*
X323264Y204901D01*
X324742Y203423D01*
X324249Y202502D01*
X324100Y202531D01*
X323476Y202407D01*
X322947Y202053D01*
X322593Y201524D01*
X322469Y200900D01*
X322593Y200276D01*
X322947Y199747D01*
X323476Y199393D01*
X324100Y199269D01*
X324724Y199393D01*
X325254Y199747D01*
X325607Y200276D01*
X325731Y200900D01*
X325702Y201049D01*
X326623Y201542D01*
X327920Y200245D01*
Y194955D01*
X326445Y193480D01*
X322456D01*
X322200Y193531D01*
X321576Y193407D01*
X321046Y193053D01*
X320693Y192524D01*
X320569Y191900D01*
X320693Y191276D01*
X321046Y190746D01*
X321576Y190393D01*
X322200Y190269D01*
X322456Y190320D01*
X327100D01*
X327705Y190440D01*
X328218Y190782D01*
X330617Y193183D01*
X330960Y193695D01*
X331080Y194300D01*
Y200900D01*
X330960Y201505D01*
X330617Y202017D01*
X325499Y207136D01*
X325354Y207353D01*
X324824Y207707D01*
X324200Y207831D01*
D02*
G37*
G36*
X301700Y204431D02*
X301076Y204307D01*
X300547Y203954D01*
X300193Y203424D01*
X300069Y202800D01*
X300193Y202176D01*
X300547Y201646D01*
X301076Y201293D01*
X301700Y201169D01*
X302324Y201293D01*
X302853Y201646D01*
X303207Y202176D01*
X303331Y202800D01*
X303207Y203424D01*
X302853Y203954D01*
X302324Y204307D01*
X301700Y204431D01*
D02*
G37*
G36*
X80500Y201231D02*
X79876Y201107D01*
X79347Y200753D01*
X78993Y200224D01*
X78869Y199600D01*
X78993Y198976D01*
X79347Y198447D01*
X79876Y198093D01*
X80500Y197969D01*
X81124Y198093D01*
X81653Y198447D01*
X82007Y198976D01*
X82131Y199600D01*
X82007Y200224D01*
X81653Y200753D01*
X81124Y201107D01*
X80500Y201231D01*
D02*
G37*
G36*
X307400Y195031D02*
X306776Y194907D01*
X306246Y194553D01*
X305893Y194024D01*
X305769Y193400D01*
X305893Y192776D01*
X306246Y192246D01*
X306776Y191893D01*
X307400Y191769D01*
X308024Y191893D01*
X308554Y192246D01*
X308907Y192776D01*
X309031Y193400D01*
X308907Y194024D01*
X308554Y194553D01*
X308024Y194907D01*
X307400Y195031D01*
D02*
G37*
G36*
X376100Y193931D02*
X375476Y193807D01*
X374946Y193454D01*
X374593Y192924D01*
X374469Y192300D01*
X374593Y191676D01*
X374946Y191147D01*
X375476Y190793D01*
X376100Y190669D01*
X376724Y190793D01*
X377254Y191147D01*
X377607Y191676D01*
X377731Y192300D01*
X377607Y192924D01*
X377254Y193454D01*
X376724Y193807D01*
X376100Y193931D01*
D02*
G37*
G36*
X369000D02*
X368376Y193807D01*
X367846Y193454D01*
X367493Y192924D01*
X367369Y192300D01*
X367493Y191676D01*
X367846Y191147D01*
X368376Y190793D01*
X369000Y190669D01*
X369624Y190793D01*
X370153Y191147D01*
X370507Y191676D01*
X370631Y192300D01*
X370507Y192924D01*
X370153Y193454D01*
X369624Y193807D01*
X369000Y193931D01*
D02*
G37*
G36*
X362200D02*
X361576Y193807D01*
X361047Y193454D01*
X360693Y192924D01*
X360569Y192300D01*
X360693Y191676D01*
X361047Y191147D01*
X361576Y190793D01*
X362200Y190669D01*
X362824Y190793D01*
X363353Y191147D01*
X363707Y191676D01*
X363831Y192300D01*
X363707Y192924D01*
X363353Y193454D01*
X362824Y193807D01*
X362200Y193931D01*
D02*
G37*
G36*
X294100Y193131D02*
X293476Y193007D01*
X292947Y192654D01*
X292593Y192124D01*
X292469Y191500D01*
X292593Y190876D01*
X292947Y190347D01*
X293476Y189993D01*
X294100Y189869D01*
X294724Y189993D01*
X295253Y190347D01*
X295607Y190876D01*
X295731Y191500D01*
X295607Y192124D01*
X295253Y192654D01*
X294724Y193007D01*
X294100Y193131D01*
D02*
G37*
G36*
X280600Y192531D02*
X279976Y192407D01*
X279447Y192053D01*
X279093Y191524D01*
X278969Y190900D01*
X279093Y190276D01*
X279447Y189746D01*
X279976Y189393D01*
X280600Y189269D01*
X281224Y189393D01*
X281753Y189746D01*
X282107Y190276D01*
X282231Y190900D01*
X282107Y191524D01*
X281753Y192053D01*
X281224Y192407D01*
X280600Y192531D01*
D02*
G37*
G36*
X361000Y180831D02*
X360376Y180707D01*
X359846Y180353D01*
X359493Y179824D01*
X359369Y179200D01*
X359493Y178576D01*
X359846Y178047D01*
X360376Y177693D01*
X361000Y177569D01*
X361624Y177693D01*
X362154Y178047D01*
X362507Y178576D01*
X362631Y179200D01*
X362507Y179824D01*
X362154Y180353D01*
X361624Y180707D01*
X361000Y180831D01*
D02*
G37*
G36*
X308400Y177031D02*
X307776Y176907D01*
X307246Y176553D01*
X306893Y176024D01*
X306769Y175400D01*
X306893Y174776D01*
X307246Y174247D01*
X307776Y173893D01*
X308400Y173769D01*
X309024Y173893D01*
X309554Y174247D01*
X309907Y174776D01*
X310031Y175400D01*
X309907Y176024D01*
X309554Y176553D01*
X309024Y176907D01*
X308400Y177031D01*
D02*
G37*
G36*
X7000Y172485D02*
X6020Y172356D01*
X5107Y171978D01*
X4324Y171377D01*
X3722Y170593D01*
X3344Y169680D01*
X3215Y168700D01*
X3344Y167720D01*
X3722Y166807D01*
X4324Y166024D01*
X5107Y165422D01*
X6020Y165044D01*
X7000Y164915D01*
X7980Y165044D01*
X8893Y165422D01*
X9676Y166024D01*
X10278Y166807D01*
X10656Y167720D01*
X10785Y168700D01*
X10656Y169680D01*
X10278Y170593D01*
X9676Y171377D01*
X8893Y171978D01*
X7980Y172356D01*
X7000Y172485D01*
D02*
G37*
G36*
X371300Y157031D02*
X370676Y156907D01*
X370146Y156553D01*
X369793Y156024D01*
X369669Y155400D01*
X369793Y154776D01*
X370146Y154246D01*
X370676Y153893D01*
X371300Y153769D01*
X371924Y153893D01*
X372453Y154246D01*
X372807Y154776D01*
X372931Y155400D01*
X372807Y156024D01*
X372453Y156553D01*
X371924Y156907D01*
X371300Y157031D01*
D02*
G37*
G36*
X26400Y153850D02*
Y151500D01*
X28800D01*
Y153850D01*
X26400D01*
D02*
G37*
G36*
X28800Y150500D02*
X26400D01*
Y148150D01*
X28800D01*
Y150500D01*
D02*
G37*
G36*
X359800Y141131D02*
X359176Y141007D01*
X358646Y140654D01*
X358293Y140124D01*
X358169Y139500D01*
X358293Y138876D01*
X358646Y138347D01*
X359176Y137993D01*
X359800Y137869D01*
X360424Y137993D01*
X360953Y138347D01*
X361307Y138876D01*
X361431Y139500D01*
X361307Y140124D01*
X360953Y140654D01*
X360424Y141007D01*
X359800Y141131D01*
D02*
G37*
G36*
X212500Y134031D02*
X211876Y133907D01*
X211347Y133554D01*
X210993Y133024D01*
X210869Y132400D01*
X210993Y131776D01*
X211347Y131246D01*
X211876Y130893D01*
X212500Y130769D01*
X213124Y130893D01*
X213653Y131246D01*
X214007Y131776D01*
X214131Y132400D01*
X214007Y133024D01*
X213653Y133554D01*
X213124Y133907D01*
X212500Y134031D01*
D02*
G37*
G36*
X143500Y132431D02*
X142876Y132307D01*
X142347Y131954D01*
X141993Y131424D01*
X141869Y130800D01*
X141993Y130176D01*
X142347Y129647D01*
X142876Y129293D01*
X143500Y129169D01*
X144124Y129293D01*
X144653Y129647D01*
X145007Y130176D01*
X145131Y130800D01*
X145007Y131424D01*
X144653Y131954D01*
X144124Y132307D01*
X143500Y132431D01*
D02*
G37*
G36*
X50204Y139580D02*
Y129100D01*
X55733D01*
Y133600D01*
X55617Y134776D01*
X55274Y135907D01*
X54717Y136950D01*
X53967Y137863D01*
X53053Y138613D01*
X52011Y139170D01*
X50880Y139513D01*
X50204Y139580D01*
D02*
G37*
G36*
X49204D02*
X48528Y139513D01*
X47397Y139170D01*
X46354Y138613D01*
X45441Y137863D01*
X44691Y136950D01*
X44134Y135907D01*
X43791Y134776D01*
X43675Y133600D01*
Y129100D01*
X49204D01*
Y139580D01*
D02*
G37*
G36*
X205900Y128931D02*
X205276Y128807D01*
X204747Y128454D01*
X204393Y127924D01*
X204269Y127300D01*
X204393Y126676D01*
X204747Y126146D01*
X205276Y125793D01*
X205900Y125669D01*
X206524Y125793D01*
X207053Y126146D01*
X207407Y126676D01*
X207531Y127300D01*
X207407Y127924D01*
X207053Y128454D01*
X206524Y128807D01*
X205900Y128931D01*
D02*
G37*
G36*
X160300Y128731D02*
X159676Y128607D01*
X159146Y128253D01*
X158793Y127724D01*
X158669Y127100D01*
X158793Y126476D01*
X159146Y125946D01*
X159676Y125593D01*
X160300Y125469D01*
X160924Y125593D01*
X161453Y125946D01*
X161807Y126476D01*
X161931Y127100D01*
X161807Y127724D01*
X161453Y128253D01*
X160924Y128607D01*
X160300Y128731D01*
D02*
G37*
G36*
X382600Y134600D02*
X373000D01*
Y125000D01*
X382600D01*
Y134600D01*
D02*
G37*
G36*
X104232Y141941D02*
X102145Y141777D01*
X100109Y141288D01*
X98175Y140487D01*
X96390Y139393D01*
X94798Y138034D01*
X93438Y136442D01*
X92344Y134657D01*
X91543Y132723D01*
X91055Y130687D01*
X90890Y128600D01*
X91055Y126513D01*
X91543Y124477D01*
X92344Y122543D01*
X93438Y120758D01*
X94798Y119166D01*
X96390Y117807D01*
X98175Y116713D01*
X100109Y115912D01*
X102145Y115423D01*
X104232Y115259D01*
X106318Y115423D01*
X108354Y115912D01*
X110288Y116713D01*
X112073Y117807D01*
X113665Y119166D01*
X115025Y120758D01*
X116119Y122543D01*
X116920Y124477D01*
X117408Y126513D01*
X117573Y128600D01*
X117408Y130687D01*
X116920Y132723D01*
X116119Y134657D01*
X115025Y136442D01*
X113665Y138034D01*
X112073Y139393D01*
X110288Y140487D01*
X108354Y141288D01*
X106318Y141777D01*
X104232Y141941D01*
D02*
G37*
G36*
X185900Y116731D02*
X185276Y116607D01*
X184747Y116253D01*
X184393Y115724D01*
X184269Y115100D01*
X184393Y114476D01*
X184747Y113946D01*
X185276Y113593D01*
X185900Y113469D01*
X186524Y113593D01*
X187054Y113946D01*
X187407Y114476D01*
X187531Y115100D01*
X187407Y115724D01*
X187054Y116253D01*
X186524Y116607D01*
X185900Y116731D01*
D02*
G37*
G36*
X144700Y112731D02*
X144076Y112607D01*
X143546Y112253D01*
X143193Y111724D01*
X143069Y111100D01*
X143193Y110476D01*
X143546Y109947D01*
X144076Y109593D01*
X144700Y109469D01*
X145324Y109593D01*
X145853Y109947D01*
X146207Y110476D01*
X146331Y111100D01*
X146207Y111724D01*
X145853Y112253D01*
X145324Y112607D01*
X144700Y112731D01*
D02*
G37*
G36*
X55400Y106631D02*
X54776Y106507D01*
X54246Y106154D01*
X53893Y105624D01*
X53769Y105000D01*
X53893Y104376D01*
X54246Y103847D01*
X54776Y103493D01*
X55400Y103369D01*
X56024Y103493D01*
X56554Y103847D01*
X56907Y104376D01*
X57031Y105000D01*
X56907Y105624D01*
X56554Y106154D01*
X56024Y106507D01*
X55400Y106631D01*
D02*
G37*
G36*
X213027Y102409D02*
X212403Y102285D01*
X211873Y101931D01*
X211520Y101402D01*
X211396Y100778D01*
X211520Y100154D01*
X211873Y99624D01*
X212403Y99271D01*
X213027Y99146D01*
X213651Y99271D01*
X213923Y99452D01*
X217276D01*
X217347Y99347D01*
X217876Y98993D01*
X218500Y98869D01*
X219124Y98993D01*
X219654Y99347D01*
X220007Y99876D01*
X220131Y100500D01*
X220007Y101124D01*
X219654Y101654D01*
X219124Y102007D01*
X218500Y102131D01*
X218290Y102090D01*
X218222Y102103D01*
X213923D01*
X213651Y102285D01*
X213027Y102409D01*
D02*
G37*
G36*
X10753Y71353D02*
X3247D01*
Y63847D01*
X10753D01*
Y71353D01*
D02*
G37*
G36*
X314900Y62931D02*
X314276Y62807D01*
X313747Y62454D01*
X313393Y61924D01*
X313269Y61300D01*
X313393Y60676D01*
X313747Y60146D01*
X314276Y59793D01*
X314900Y59669D01*
X315524Y59793D01*
X316054Y60146D01*
X316407Y60676D01*
X316531Y61300D01*
X316407Y61924D01*
X316054Y62454D01*
X315524Y62807D01*
X314900Y62931D01*
D02*
G37*
G36*
X188000Y48831D02*
X187376Y48707D01*
X186846Y48353D01*
X186493Y47824D01*
X186369Y47200D01*
X186493Y46576D01*
X186846Y46047D01*
X187376Y45693D01*
X188000Y45569D01*
X188624Y45693D01*
X188896Y45875D01*
X231051D01*
X247429Y29496D01*
X247493Y29176D01*
X247847Y28646D01*
X248376Y28293D01*
X249000Y28169D01*
X249624Y28293D01*
X250153Y28646D01*
X250507Y29176D01*
X250631Y29800D01*
X250507Y30424D01*
X250153Y30953D01*
X249624Y31307D01*
X249304Y31371D01*
X232537Y48137D01*
X232107Y48425D01*
X231600Y48526D01*
X188896D01*
X188624Y48707D01*
X188000Y48831D01*
D02*
G37*
G36*
X270300Y79031D02*
X269676Y78907D01*
X269146Y78553D01*
X268793Y78024D01*
X268729Y77703D01*
X256451Y65425D01*
X155300D01*
X154793Y65325D01*
X154363Y65037D01*
X145863Y56537D01*
X145575Y56107D01*
X145475Y55600D01*
Y41396D01*
X145293Y41124D01*
X145169Y40500D01*
X145293Y39876D01*
X145647Y39347D01*
X146176Y38993D01*
X146800Y38869D01*
X147424Y38993D01*
X147953Y39347D01*
X148307Y39876D01*
X148431Y40500D01*
X148307Y41124D01*
X148126Y41396D01*
Y55051D01*
X155849Y62774D01*
X162132D01*
X162435Y61774D01*
X162070Y61530D01*
X161539Y60736D01*
X161353Y59800D01*
X161539Y58864D01*
X162070Y58070D01*
X162864Y57539D01*
X163800Y57353D01*
X164278Y57448D01*
X193163Y28563D01*
X193593Y28275D01*
X194100Y28174D01*
X227704D01*
X227976Y27993D01*
X228600Y27869D01*
X229224Y27993D01*
X229753Y28346D01*
X230107Y28876D01*
X230231Y29500D01*
X230107Y30124D01*
X229753Y30654D01*
X229224Y31007D01*
X228600Y31131D01*
X227976Y31007D01*
X227704Y30825D01*
X194649D01*
X166152Y59323D01*
X166247Y59800D01*
X166061Y60736D01*
X165530Y61530D01*
X165165Y61774D01*
X165468Y62774D01*
X257000D01*
X257507Y62875D01*
X257937Y63163D01*
X270603Y75829D01*
X270924Y75893D01*
X271453Y76247D01*
X271807Y76776D01*
X271931Y77400D01*
X271807Y78024D01*
X271453Y78553D01*
X270924Y78907D01*
X270300Y79031D01*
D02*
G37*
G36*
X143918Y28944D02*
X143293Y28820D01*
X142764Y28466D01*
X142411Y27937D01*
X142286Y27312D01*
X142411Y26688D01*
X142764Y26159D01*
X143293Y25805D01*
X143918Y25681D01*
X144542Y25805D01*
X145071Y26159D01*
X145425Y26688D01*
X145549Y27312D01*
X145425Y27937D01*
X145071Y28466D01*
X144542Y28820D01*
X143918Y28944D01*
D02*
G37*
G36*
X238500Y27031D02*
X237876Y26907D01*
X237347Y26553D01*
X237284Y26460D01*
X237100Y26337D01*
X236289Y25526D01*
X225696D01*
X225424Y25707D01*
X224800Y25831D01*
X224176Y25707D01*
X223646Y25354D01*
X223293Y24824D01*
X223169Y24200D01*
X223293Y23576D01*
X223646Y23046D01*
X224176Y22693D01*
X224800Y22569D01*
X225424Y22693D01*
X225696Y22874D01*
X236838D01*
X237345Y22975D01*
X237775Y23263D01*
X238317Y23805D01*
X238500Y23769D01*
X239124Y23893D01*
X239653Y24247D01*
X240007Y24776D01*
X240131Y25400D01*
X240007Y26024D01*
X239653Y26553D01*
X239124Y26907D01*
X238500Y27031D01*
D02*
G37*
G36*
X318600Y22833D02*
X317267Y22702D01*
X315985Y22313D01*
X314804Y21681D01*
X313768Y20832D01*
X312919Y19796D01*
X312287Y18615D01*
X311898Y17333D01*
X311767Y16000D01*
X311898Y14667D01*
X312287Y13385D01*
X312919Y12204D01*
X313768Y11168D01*
X314804Y10319D01*
X315985Y9687D01*
X317267Y9298D01*
X318600Y9167D01*
X319933Y9298D01*
X321215Y9687D01*
X322396Y10319D01*
X323432Y11168D01*
X324281Y12204D01*
X324913Y13385D01*
X325302Y14667D01*
X325433Y16000D01*
X325302Y17333D01*
X324913Y18615D01*
X324281Y19796D01*
X323432Y20832D01*
X322396Y21681D01*
X321215Y22313D01*
X319933Y22702D01*
X318600Y22833D01*
D02*
G37*
G36*
X65900D02*
X64567Y22702D01*
X63285Y22313D01*
X62104Y21681D01*
X61068Y20832D01*
X60219Y19796D01*
X59587Y18615D01*
X59198Y17333D01*
X59067Y16000D01*
X59198Y14667D01*
X59587Y13385D01*
X60219Y12204D01*
X61068Y11168D01*
X62104Y10319D01*
X63285Y9687D01*
X64567Y9298D01*
X65900Y9167D01*
X67233Y9298D01*
X68515Y9687D01*
X69696Y10319D01*
X70732Y11168D01*
X71581Y12204D01*
X72213Y13385D01*
X72602Y14667D01*
X72733Y16000D01*
X72602Y17333D01*
X72213Y18615D01*
X71581Y19796D01*
X70732Y20832D01*
X69696Y21681D01*
X68515Y22313D01*
X67233Y22702D01*
X65900Y22833D01*
D02*
G37*
G36*
X289600Y153631D02*
X288976Y153507D01*
X288446Y153154D01*
X288093Y152624D01*
X287969Y152000D01*
X288093Y151376D01*
X288446Y150847D01*
X288976Y150493D01*
X289600Y150369D01*
X290224Y150493D01*
X290754Y150847D01*
X291107Y151376D01*
X291231Y152000D01*
X291107Y152624D01*
X290754Y153154D01*
X290224Y153507D01*
X289600Y153631D01*
D02*
G37*
G36*
X302400Y153531D02*
X301776Y153407D01*
X301247Y153053D01*
X300893Y152524D01*
X300769Y151900D01*
X300893Y151276D01*
X301247Y150747D01*
X301776Y150393D01*
X302400Y150269D01*
X303024Y150393D01*
X303554Y150747D01*
X303907Y151276D01*
X304031Y151900D01*
X303907Y152524D01*
X303554Y153053D01*
X303024Y153407D01*
X302400Y153531D01*
D02*
G37*
G36*
X330500Y143931D02*
X329876Y143807D01*
X329346Y143454D01*
X328993Y142924D01*
X328869Y142300D01*
X328993Y141676D01*
X329346Y141147D01*
X329876Y140793D01*
X330500Y140669D01*
X331124Y140793D01*
X331653Y141147D01*
X332007Y141676D01*
X332131Y142300D01*
X332007Y142924D01*
X331653Y143454D01*
X331124Y143807D01*
X330500Y143931D01*
D02*
G37*
G36*
X324100D02*
X323476Y143807D01*
X322947Y143454D01*
X322593Y142924D01*
X322469Y142300D01*
X322593Y141676D01*
X322947Y141147D01*
X323476Y140793D01*
X324100Y140669D01*
X324724Y140793D01*
X325254Y141147D01*
X325607Y141676D01*
X325731Y142300D01*
X325607Y142924D01*
X325254Y143454D01*
X324724Y143807D01*
X324100Y143931D01*
D02*
G37*
G36*
X356700Y125831D02*
X356076Y125707D01*
X355546Y125354D01*
X355193Y124824D01*
X355069Y124200D01*
X355193Y123576D01*
X355546Y123047D01*
X356076Y122693D01*
X356700Y122569D01*
X357324Y122693D01*
X357854Y123047D01*
X358207Y123576D01*
X358331Y124200D01*
X358207Y124824D01*
X357854Y125354D01*
X357324Y125707D01*
X356700Y125831D01*
D02*
G37*
G36*
X362800Y125731D02*
X362176Y125607D01*
X361647Y125253D01*
X361293Y124724D01*
X361169Y124100D01*
X361293Y123476D01*
X361647Y122947D01*
X362176Y122593D01*
X362800Y122469D01*
X363424Y122593D01*
X363953Y122947D01*
X364307Y123476D01*
X364431Y124100D01*
X364307Y124724D01*
X363953Y125253D01*
X363424Y125607D01*
X362800Y125731D01*
D02*
G37*
G36*
X337696Y139428D02*
X336559Y139316D01*
X335466Y138984D01*
X334458Y138446D01*
X333575Y137721D01*
X332850Y136838D01*
X332312Y135830D01*
X331980Y134737D01*
X331868Y133600D01*
Y123600D01*
X331980Y122463D01*
X332312Y121370D01*
X332850Y120362D01*
X333575Y119479D01*
X334458Y118754D01*
X335466Y118216D01*
X336559Y117884D01*
X337696Y117772D01*
X338833Y117884D01*
X339926Y118216D01*
X340934Y118754D01*
X341817Y119479D01*
X342542Y120362D01*
X343080Y121370D01*
X343412Y122463D01*
X343524Y123600D01*
Y133600D01*
X343412Y134737D01*
X343080Y135830D01*
X342542Y136838D01*
X341817Y137721D01*
X340934Y138446D01*
X339926Y138984D01*
X338833Y139316D01*
X337696Y139428D01*
D02*
G37*
G36*
X362300Y102331D02*
X361676Y102207D01*
X361146Y101854D01*
X360793Y101324D01*
X360669Y100700D01*
X360793Y100076D01*
X361146Y99546D01*
X361676Y99193D01*
X362300Y99069D01*
X362924Y99193D01*
X363454Y99546D01*
X363807Y100076D01*
X363931Y100700D01*
X363807Y101324D01*
X363454Y101854D01*
X362924Y102207D01*
X362300Y102331D01*
D02*
G37*
%LPD*%
D11*
X257000Y64100D02*
X270300Y77400D01*
X155300Y64100D02*
X257000D01*
X32547Y126000D02*
X32833Y125715D01*
X30050Y126000D02*
X32547D01*
X26932Y126128D02*
X27024Y126221D01*
X29830D01*
X23137Y126128D02*
X26932D01*
X29830Y126221D02*
X30050Y126000D01*
X22850Y125841D02*
X23137Y126128D01*
X32547Y127800D02*
X32833Y128085D01*
X30796Y127800D02*
X32547D01*
X23137Y128113D02*
X26932D01*
X27024Y128021D02*
X30575D01*
X22850Y128400D02*
X23137Y128113D01*
X26932D02*
X27024Y128021D01*
X30575D02*
X30796Y127800D01*
X236838Y24200D02*
X238038Y25400D01*
X238500D01*
X224800Y24200D02*
X236838D01*
X213027Y100778D02*
X218222D01*
X218500Y100500D01*
X274500Y188600D02*
X294000Y169100D01*
X167900Y188600D02*
X274500D01*
X150677Y176223D02*
X151369Y176914D01*
X364770Y76200D02*
X381700Y93130D01*
X307600Y76200D02*
X364770D01*
X304700Y79100D02*
X307600Y76200D01*
X177500Y86400D02*
X226600Y135500D01*
X177500Y73100D02*
Y86400D01*
X146800Y55600D02*
X155300Y64100D01*
X202200Y171000D02*
X204597Y173397D01*
X206185D01*
X206300Y173512D01*
X208631Y172874D02*
Y175900D01*
X207170Y171412D02*
X208631Y172874D01*
X205559Y171412D02*
X207170D01*
X204000Y169853D02*
X205559Y171412D01*
X204000Y167947D02*
Y169853D01*
Y167947D02*
X207236Y164711D01*
X226490D01*
X206407Y178124D02*
X208631Y175900D01*
X226490Y164711D02*
X297201Y94000D01*
X152114Y175114D02*
X204649D01*
X206252Y173512D01*
X206300D01*
X207203Y168900D02*
X218103Y179800D01*
X206300Y168900D02*
X207203D01*
X277785Y179800D02*
X292485Y165100D01*
X324800D02*
X327500Y162400D01*
X292485Y165100D02*
X324800D01*
X218103Y179800D02*
X277785D01*
X325970Y166900D02*
X381700Y111170D01*
X293230Y166900D02*
X325970D01*
X290771Y169359D02*
X293230Y166900D01*
X150200Y176700D02*
X150677Y176223D01*
X226600Y135500D02*
Y157970D01*
X148500Y203900D02*
X163800Y188600D01*
X106900Y203900D02*
X148500D01*
X125800Y105400D02*
Y116700D01*
X103400Y83000D02*
X125800Y105400D01*
Y146984D02*
X136000Y157184D01*
X125800Y116700D02*
Y146984D01*
X120900Y104200D02*
Y122400D01*
X102300Y85600D02*
X120900Y104200D01*
X4900Y83000D02*
X103400D01*
X2400Y85500D02*
X4900Y83000D01*
X2400Y85500D02*
Y93000D01*
X7000Y97600D01*
X9273Y85600D02*
X102300D01*
X146800Y40500D02*
Y55600D01*
X18420Y140879D02*
X18500Y140800D01*
X18420Y140879D02*
Y143754D01*
X20000Y145334D01*
Y151000D01*
X10743Y138144D02*
X11728Y139128D01*
X10743Y132189D02*
Y138144D01*
Y124611D02*
Y132189D01*
X22476Y117672D02*
X23657Y118853D01*
X11728Y117672D02*
X22476D01*
X10743Y124611D02*
X11728Y123626D01*
Y117672D02*
Y123626D01*
X23137Y136937D02*
X24100Y137900D01*
X22504Y139100D02*
X22900D01*
X19401D02*
X22504D01*
X22900D02*
X24100Y137900D01*
X22850Y133518D02*
X23137Y133806D01*
Y136937D01*
X22504Y139100D02*
X23657Y137947D01*
X297201Y94000D02*
X379600D01*
X151369Y176914D02*
X199214D01*
X203900Y181600D01*
X278716D01*
X290771Y169545D01*
X150200Y173200D02*
X152114Y175114D01*
X145791Y157100D02*
X150200D01*
X146019Y160500D02*
X150200D01*
X144719Y161800D02*
X146019Y160500D01*
X7273Y87600D02*
X9273Y85600D01*
X136000Y157184D02*
Y157400D01*
X381700Y93130D02*
Y111170D01*
X7000Y87600D02*
X7273D01*
X153200Y195200D02*
X159900Y188500D01*
X135300Y195200D02*
X153200D01*
X202200Y167202D02*
Y171000D01*
Y167202D02*
X206816Y162586D01*
X290771Y169359D02*
Y169545D01*
X221984Y162586D02*
X226600Y157970D01*
X206816Y162586D02*
X221984D01*
X120223Y188700D02*
X145323Y163600D01*
X144578Y161800D02*
X144719D01*
X133491Y169400D02*
X145791Y157100D01*
X66900Y169400D02*
X133491D01*
X127678Y178700D02*
X144578Y161800D01*
X8400Y188700D02*
X120223D01*
X145323Y163600D02*
X150300D01*
X8400Y178700D02*
X127678D01*
X145600Y167000D02*
X150200D01*
X145500Y167100D02*
X145600Y167000D01*
X194100Y29500D02*
X228600D01*
X163800Y59800D02*
X194100Y29500D01*
X231600Y47200D02*
X249000Y29800D01*
X188000Y47200D02*
X231600D01*
D16*
X354142Y125988D02*
Y137110D01*
X359359D01*
Y125988D02*
Y137110D01*
X354142Y125988D02*
X359359D01*
X286943Y156088D02*
Y167210D01*
X292159D01*
Y156088D02*
Y167210D01*
X286943Y156088D02*
X292159D01*
X298458Y155890D02*
Y167012D01*
X293241Y155890D02*
X298458D01*
X293241D02*
Y167012D01*
X298458D01*
X290258Y194590D02*
Y205712D01*
X285041Y194590D02*
X290258D01*
X285041D02*
Y205712D01*
X290258D01*
X278043Y194788D02*
Y205910D01*
X283259D01*
Y194788D02*
Y205910D01*
X278043Y194788D02*
X283259D01*
X311590Y70643D02*
X322712D01*
X311590D02*
Y75859D01*
X322712D01*
Y70643D02*
Y75859D01*
X308841Y141212D02*
X314057D01*
X308841Y130090D02*
Y141212D01*
Y130090D02*
X314057D01*
Y141212D01*
X308641Y126512D02*
X313858D01*
X308641Y115390D02*
Y126512D01*
Y115390D02*
X313858D01*
Y126512D01*
D46*
X25900Y151000D02*
D03*
X20000D02*
D03*
D93*
X38164Y123282D02*
X44160Y117286D01*
X22850Y123282D02*
X38164D01*
X22850D02*
X23898Y122234D01*
X70900Y132938D02*
Y147600D01*
X101900D01*
X222386Y154986D02*
X224500Y157100D01*
X145339Y154986D02*
X222386D01*
X113814Y159514D02*
X140811D01*
X101900Y147600D02*
X113814Y159514D01*
X140811D02*
X145339Y154986D01*
X55248Y117286D02*
X70900Y132938D01*
X44160Y117286D02*
X55248D01*
D95*
X322200Y191900D02*
X327100D01*
X329500Y194300D01*
Y200900D01*
X324200Y206200D02*
X329500Y200900D01*
D98*
X283169Y128600D02*
D03*
X104232D02*
D03*
D99*
X49704D02*
D03*
X337696D02*
D03*
D100*
X377800Y129800D02*
D03*
D101*
X11728Y139128D02*
D03*
Y117672D02*
D03*
D102*
X23657Y137947D02*
D03*
Y118853D02*
D03*
D103*
X7000Y97600D02*
D03*
Y77600D02*
D03*
Y87600D02*
D03*
Y178700D02*
D03*
Y168700D02*
D03*
Y188700D02*
D03*
D104*
Y67600D02*
D03*
Y158700D02*
D03*
D105*
X65900Y241900D02*
D03*
X318600Y16000D02*
D03*
X65900D02*
D03*
X318600Y241900D02*
D03*
D106*
X360000Y200000D02*
D03*
Y80000D02*
D03*
Y60000D02*
D03*
X340000Y80000D02*
D03*
Y60000D02*
D03*
X320000Y220000D02*
D03*
Y200000D02*
D03*
Y80000D02*
D03*
Y60000D02*
D03*
Y40000D02*
D03*
X300000Y200000D02*
D03*
Y180000D02*
D03*
Y80000D02*
D03*
Y60000D02*
D03*
Y40000D02*
D03*
Y20000D02*
D03*
X280000Y100000D02*
D03*
Y60000D02*
D03*
Y40000D02*
D03*
X260000Y200000D02*
D03*
Y100000D02*
D03*
Y80000D02*
D03*
Y60000D02*
D03*
Y40000D02*
D03*
X240000Y160000D02*
D03*
Y120000D02*
D03*
Y100000D02*
D03*
Y80000D02*
D03*
Y60000D02*
D03*
X220000Y80000D02*
D03*
Y60000D02*
D03*
Y40000D02*
D03*
X200000Y80000D02*
D03*
Y40000D02*
D03*
Y20000D02*
D03*
X180000Y200000D02*
D03*
Y140000D02*
D03*
Y80000D02*
D03*
Y60000D02*
D03*
Y40000D02*
D03*
Y20000D02*
D03*
X160000Y200000D02*
D03*
Y160000D02*
D03*
Y140000D02*
D03*
Y100000D02*
D03*
Y40000D02*
D03*
X140000Y140000D02*
D03*
Y100000D02*
D03*
Y80000D02*
D03*
Y60000D02*
D03*
Y20000D02*
D03*
X120000Y200000D02*
D03*
Y140000D02*
D03*
Y80000D02*
D03*
Y60000D02*
D03*
Y40000D02*
D03*
Y20000D02*
D03*
X100000Y160000D02*
D03*
Y80000D02*
D03*
Y60000D02*
D03*
Y40000D02*
D03*
Y20000D02*
D03*
X80000Y240000D02*
D03*
Y220000D02*
D03*
Y160000D02*
D03*
Y140000D02*
D03*
Y120000D02*
D03*
Y100000D02*
D03*
Y80000D02*
D03*
Y60000D02*
D03*
Y40000D02*
D03*
Y20000D02*
D03*
X60000Y220000D02*
D03*
Y200000D02*
D03*
Y160000D02*
D03*
Y140000D02*
D03*
Y100000D02*
D03*
Y80000D02*
D03*
Y60000D02*
D03*
Y40000D02*
D03*
X40000Y200000D02*
D03*
Y160000D02*
D03*
Y100000D02*
D03*
Y80000D02*
D03*
Y60000D02*
D03*
X20000Y200000D02*
D03*
Y160000D02*
D03*
Y100000D02*
D03*
Y80000D02*
D03*
Y60000D02*
D03*
D107*
X297565Y245787D02*
D03*
X293307Y240872D02*
D03*
X293381Y238273D02*
D03*
X294409Y235885D02*
D03*
Y233285D02*
D03*
Y230685D02*
D03*
Y228085D02*
D03*
X293596Y225615D02*
D03*
X291757Y223777D02*
D03*
X289919Y221938D02*
D03*
X288080Y220100D02*
D03*
X283873Y217191D02*
D03*
X281273D02*
D03*
X278673D02*
D03*
X276073D02*
D03*
X273472D02*
D03*
X270872D02*
D03*
X268272D02*
D03*
X265672D02*
D03*
X263073Y217148D02*
D03*
X260736Y216009D02*
D03*
X258897Y214171D02*
D03*
X257059Y212333D02*
D03*
X255220Y210494D02*
D03*
X253382Y208656D02*
D03*
X251543Y206817D02*
D03*
X249705Y204979D02*
D03*
X247561Y203508D02*
D03*
X244961D02*
D03*
X242361D02*
D03*
X239761D02*
D03*
X237161D02*
D03*
X234561D02*
D03*
X231961D02*
D03*
X229361D02*
D03*
X226761D02*
D03*
X224161D02*
D03*
X221561D02*
D03*
X218961D02*
D03*
X216361D02*
D03*
X213761D02*
D03*
X211161D02*
D03*
X208561D02*
D03*
X205961D02*
D03*
X203361D02*
D03*
X200761D02*
D03*
X198161D02*
D03*
X186633Y198409D02*
D03*
X186924Y185642D02*
D03*
X194306Y185928D02*
D03*
X195305Y190928D02*
D03*
X195374Y193527D02*
D03*
X195321Y196126D02*
D03*
X197921D02*
D03*
X200521D02*
D03*
X203121D02*
D03*
X205721D02*
D03*
X208321D02*
D03*
X210921D02*
D03*
X213521D02*
D03*
X216121D02*
D03*
X218721D02*
D03*
X221321D02*
D03*
X223921D02*
D03*
X226521D02*
D03*
X229121D02*
D03*
X231721D02*
D03*
X234321D02*
D03*
X236921D02*
D03*
X239521D02*
D03*
X242121D02*
D03*
X244721D02*
D03*
X247321D02*
D03*
X249921Y196134D02*
D03*
X252310Y197159D02*
D03*
X254156Y198991D02*
D03*
X255994Y200829D02*
D03*
X257833Y202668D02*
D03*
X259671Y204506D02*
D03*
X261510Y206345D02*
D03*
X263348Y208183D02*
D03*
X265377Y209809D02*
D03*
X267977D02*
D03*
X270577D02*
D03*
X273177D02*
D03*
X275777D02*
D03*
X278377D02*
D03*
X280977D02*
D03*
X283577D02*
D03*
X286177D02*
D03*
X288704Y210420D02*
D03*
X290609Y212190D02*
D03*
X292448Y214028D02*
D03*
X294286Y215866D02*
D03*
X296125Y217705D02*
D03*
X297963Y219543D02*
D03*
X299801Y221382D02*
D03*
X301457Y223387D02*
D03*
X301791Y225965D02*
D03*
Y228566D02*
D03*
Y231166D02*
D03*
Y233766D02*
D03*
Y236366D02*
D03*
X302879Y238727D02*
D03*
X187309Y217219D02*
D03*
X186743Y206955D02*
D03*
X186603Y204359D02*
D03*
X187346Y201867D02*
D03*
X195597Y204295D02*
D03*
X195482Y206893D02*
D03*
X195721Y209482D02*
D03*
X195874Y212077D02*
D03*
X195792Y214676D02*
D03*
X194691Y217032D02*
D03*
X70900Y150200D02*
D03*
Y147600D02*
D03*
X270300Y77400D02*
D03*
X33600Y128200D02*
D03*
Y125600D02*
D03*
X238500Y25400D02*
D03*
X224800Y24200D02*
D03*
X362800Y124100D02*
D03*
X356700Y124200D02*
D03*
X218500Y100500D02*
D03*
X213027Y100778D02*
D03*
X362300Y100700D02*
D03*
X378900Y94400D02*
D03*
X192300Y164100D02*
D03*
X147600Y170000D02*
D03*
X177500Y73100D02*
D03*
X330500Y142300D02*
D03*
X359800Y139500D02*
D03*
X324100Y142300D02*
D03*
X140400D02*
D03*
X144700Y111100D02*
D03*
X314300Y162069D02*
D03*
X302400Y151900D02*
D03*
X185900Y115100D02*
D03*
X205900Y127300D02*
D03*
X206300Y173512D02*
D03*
X150200Y173200D02*
D03*
Y176700D02*
D03*
X206300Y168900D02*
D03*
X362200Y192300D02*
D03*
X376100D02*
D03*
X369000D02*
D03*
X301700Y202800D02*
D03*
X294100Y191500D02*
D03*
X280600Y190900D02*
D03*
X289600Y152000D02*
D03*
X212500Y132400D02*
D03*
X324200Y206200D02*
D03*
X125800Y116700D02*
D03*
X120900Y122400D02*
D03*
X138633Y126505D02*
D03*
X143918Y27312D02*
D03*
X206300Y178124D02*
D03*
X294000Y169100D02*
D03*
X308400Y170100D02*
D03*
Y175400D02*
D03*
X322200Y191900D02*
D03*
X55400Y105000D02*
D03*
X136000Y157400D02*
D03*
X135300Y195200D02*
D03*
X159900Y188600D02*
D03*
X148200Y206300D02*
D03*
X140200D02*
D03*
X188000Y47200D02*
D03*
X307400Y193400D02*
D03*
X371300Y155400D02*
D03*
X304700Y79100D02*
D03*
X156100Y206300D02*
D03*
X167900Y188600D02*
D03*
X163800D02*
D03*
X327500Y162400D02*
D03*
X224500Y157100D02*
D03*
X66900Y169400D02*
D03*
X150200Y160500D02*
D03*
Y157100D02*
D03*
X106900Y203900D02*
D03*
X150200Y163600D02*
D03*
Y167000D02*
D03*
X145500D02*
D03*
X143500Y130800D02*
D03*
X314900Y61300D02*
D03*
X361000Y179200D02*
D03*
X324100Y200900D02*
D03*
X80500Y199600D02*
D03*
X160300Y127100D02*
D03*
X146800Y40500D02*
D03*
X249000Y29800D02*
D03*
X228600Y29500D02*
D03*
D108*
X286400Y100700D02*
D03*
X163800Y59800D02*
D03*
D119*
X22850Y128400D02*
D03*
Y125841D02*
D03*
Y123282D02*
D03*
Y130959D02*
D03*
Y133518D02*
D03*
D120*
X10743Y124611D02*
D03*
Y132189D02*
D03*
D121*
X23657Y139817D02*
D03*
X23656Y116983D02*
D03*
M02*
