%TF.GenerationSoftware,Altium Limited,Altium Designer,19.1.9 (167)*%
G04 Layer_Color=16711935*
%FSLAX26Y26*%
%MOIN*%
%TF.FileFunction,Other,Mechanical_13*%
%TF.Part,Single*%
G01*
G75*
%TA.AperFunction,NonConductor*%
%ADD74C,0.005000*%
%ADD75C,0.007874*%
%ADD76C,0.010000*%
%ADD92C,0.003937*%
D74*
X3506882Y556079D02*
Y2015921D01*
X367118Y556079D02*
X3506882D01*
X367118D02*
Y2015921D01*
X3506882D01*
D75*
X775417Y1748323D02*
Y1913677D01*
X649433Y1748323D02*
X775417D01*
X649433D02*
Y1913677D01*
X775417D01*
X903008Y1757323D02*
Y1922677D01*
X1028992D01*
Y1757323D02*
Y1922677D01*
X903008Y1757323D02*
X1028992D01*
X515685Y1473315D02*
Y1512685D01*
X476315Y1473315D02*
X515685D01*
X476315D02*
Y1512685D01*
X515685D01*
X3447882Y839787D02*
X3558118D01*
Y938213D01*
X3447882D02*
X3558118D01*
X3447882Y839787D02*
Y938213D01*
X3157189Y1176315D02*
Y1215685D01*
X3180811D01*
Y1176315D02*
Y1215685D01*
X3157189Y1176315D02*
X3180811D01*
X3124811Y879315D02*
Y918685D01*
X3101189Y879315D02*
X3124811D01*
X3101189D02*
Y918685D01*
X3124811D01*
X3497811Y1475315D02*
Y1514685D01*
X3474189Y1475315D02*
X3497811D01*
X3474189D02*
Y1514685D01*
X3497811D01*
X2856189Y850315D02*
Y889685D01*
X2879811D01*
Y850315D02*
Y889685D01*
X2856189Y850315D02*
X2879811D01*
X1337630Y1173630D02*
Y1252370D01*
X1416370D01*
Y1173630D02*
Y1252370D01*
X1337630Y1173630D02*
X1416370D01*
D76*
X2103748Y42906D02*
Y594087D01*
X1725795Y42906D02*
X2103748D01*
X1725795D02*
Y594087D01*
X2103748D01*
D92*
X3330693Y1766693D02*
G03*
X3330693Y1766693I-19685J0D01*
G01*
X3592693Y1546693D02*
G03*
X3592693Y1546693I-19685J0D01*
G01*
X3163284Y914535D02*
Y981465D01*
X3198716Y914535D02*
Y981465D01*
X3163284Y914535D02*
X3198716D01*
X3163284Y981465D02*
X3198716D01*
X3315716Y2002535D02*
Y2069465D01*
X3280284Y2002535D02*
Y2069465D01*
X3315716D01*
X3280284Y2002535D02*
X3315716D01*
X3013535Y1894716D02*
X3080465D01*
X3013535Y1859284D02*
X3080465D01*
X3013535D02*
Y1894716D01*
X3080465Y1859284D02*
Y1894716D01*
X677032Y1545559D02*
X740968D01*
Y1430441D02*
Y1545559D01*
X677032Y1430441D02*
X740968D01*
X677032D02*
Y1545559D01*
Y1508158D02*
X714433Y1545559D01*
X2994095Y637913D02*
X3031496Y675315D01*
Y637913D02*
Y752087D01*
X2968504D02*
X3031496D01*
X2968504Y637913D02*
Y752087D01*
Y637913D02*
X3031496D01*
X2997095Y928913D02*
X3034496Y966315D01*
Y928913D02*
Y1043087D01*
X2971504D02*
X3034496D01*
X2971504Y928913D02*
Y1043087D01*
Y928913D02*
X3034496D01*
X3160394Y1811646D02*
X3209606D01*
X3160394D02*
Y1892354D01*
X3209606D01*
Y1811646D02*
Y1892354D01*
X3184016Y1811646D02*
X3209606Y1837236D01*
X2322646Y144394D02*
Y193606D01*
X2403354D01*
Y144394D02*
Y193606D01*
X2322646Y144394D02*
X2403354D01*
X2322646Y169984D02*
X2348236Y144394D01*
X1870630Y2242205D02*
Y2517795D01*
X1949370D01*
Y2242205D02*
Y2517795D01*
X1870630Y2242205D02*
X1949370D01*
X1870630Y2265827D02*
X1894252Y2242205D01*
X3492535Y1415701D02*
X3559465D01*
X3492535Y1378299D02*
X3559465D01*
X3492535D02*
Y1415701D01*
X3559465Y1378299D02*
Y1415701D01*
X671961Y2055701D02*
X738890D01*
X671961Y2018299D02*
X738890D01*
X671961D02*
Y2055701D01*
X738890Y2018299D02*
Y2055701D01*
X2532535Y237701D02*
X2599465D01*
X2532535Y200299D02*
X2599465D01*
X2532535D02*
Y237701D01*
X2599465Y200299D02*
Y237701D01*
X2456701Y266535D02*
Y333464D01*
X2419299Y266535D02*
Y333464D01*
X2456701D01*
X2419299Y266535D02*
X2456701D01*
X3260701Y1460535D02*
Y1527465D01*
X3223299Y1460535D02*
Y1527465D01*
X3260701D01*
X3223299Y1460535D02*
X3260701D01*
X3490535Y1212701D02*
X3557465D01*
X3490535Y1175299D02*
X3557465D01*
X3490535D02*
Y1212701D01*
X3557465Y1175299D02*
Y1212701D01*
X2737535Y840299D02*
X2804465D01*
X2737535Y877701D02*
X2804465D01*
Y840299D02*
Y877701D01*
X2737535Y840299D02*
Y877701D01*
X1858535Y747701D02*
X1925465D01*
X1858535Y710299D02*
X1925465D01*
X1858535D02*
Y747701D01*
X1925465Y710299D02*
Y747701D01*
X3405535Y1597701D02*
X3472465D01*
X3405535Y1560299D02*
X3472465D01*
X3405535D02*
Y1597701D01*
X3472465Y1560299D02*
Y1597701D01*
X1929701Y1990297D02*
Y2057227D01*
X1892299Y1990297D02*
Y2057227D01*
X1929701D01*
X1892299Y1990297D02*
X1929701D01*
X3705701Y1286535D02*
Y1353465D01*
X3668299Y1286535D02*
Y1353465D01*
X3705701D01*
X3668299Y1286535D02*
X3705701D01*
X1421701Y1945535D02*
Y2012465D01*
X1384299Y1945535D02*
Y2012465D01*
X1421701D01*
X1384299Y1945535D02*
X1421701D01*
X1500701Y1944535D02*
Y2011465D01*
X1463299Y1944535D02*
Y2011465D01*
X1500701D01*
X1463299Y1944535D02*
X1500701D01*
X2145701Y1355535D02*
Y1422465D01*
X2108299Y1355535D02*
Y1422465D01*
X2145701D01*
X2108299Y1355535D02*
X2145701D01*
X3677299Y1790535D02*
Y1857465D01*
X3714701Y1790535D02*
Y1857465D01*
X3677299Y1790535D02*
X3714701D01*
X3677299Y1857465D02*
X3714701D01*
X3358535Y1495299D02*
X3425465D01*
X3358535Y1532701D02*
X3425465D01*
Y1495299D02*
Y1532701D01*
X3358535Y1495299D02*
Y1532701D01*
X3275575Y1731260D02*
X3472425D01*
X3275575Y1888740D02*
X3472425D01*
X3275575Y1731260D02*
Y1888740D01*
X3472425Y1731260D02*
Y1888740D01*
X3537575Y1511260D02*
X3734425D01*
X3537575Y1668740D02*
X3734425D01*
X3537575Y1511260D02*
Y1668740D01*
X3734425Y1511260D02*
Y1668740D01*
X227512Y1125732D02*
Y1442268D01*
X6252Y1125732D02*
X227512D01*
X6252D02*
Y1442268D01*
X227512D01*
X2256465Y122284D02*
Y157716D01*
X2189535Y122284D02*
Y157716D01*
Y122284D02*
X2256465D01*
X2189535Y157716D02*
X2256465D01*
Y182284D02*
Y217716D01*
X2189535Y182284D02*
Y217716D01*
Y182284D02*
X2256465D01*
X2189535Y217716D02*
X2256465D01*
X2516284Y145465D02*
X2551716D01*
X2516284Y78535D02*
X2551716D01*
Y145465D01*
X2516284Y78535D02*
Y145465D01*
X2322284Y331465D02*
X2357716D01*
X2322284Y264535D02*
X2357716D01*
Y331465D01*
X2322284Y264535D02*
Y331465D01*
X2739465Y204284D02*
Y239716D01*
X2672535Y204284D02*
Y239716D01*
Y204284D02*
X2739465D01*
X2672535Y239716D02*
X2739465D01*
X1628465Y220284D02*
Y255716D01*
X1561535Y220284D02*
Y255716D01*
Y220284D02*
X1628465D01*
X1561535Y255716D02*
X1628465D01*
Y298284D02*
Y333716D01*
X1561535Y298284D02*
Y333716D01*
Y298284D02*
X1628465D01*
X1561535Y333716D02*
X1628465D01*
X1582535Y520284D02*
Y555716D01*
X1649465Y520284D02*
Y555716D01*
X1582535D02*
X1649465D01*
X1582535Y520284D02*
X1649465D01*
X3290284Y1523465D02*
X3325716D01*
X3290284Y1456535D02*
X3325716D01*
Y1523465D01*
X3290284Y1456535D02*
Y1523465D01*
X3745284Y1787535D02*
X3780716D01*
X3745284Y1854465D02*
X3780716D01*
X3745284Y1787535D02*
Y1854465D01*
X3780716Y1787535D02*
Y1854465D01*
X1693284Y2008465D02*
X1728716D01*
X1693284Y1941535D02*
X1728716D01*
Y2008465D01*
X1693284Y1941535D02*
Y2008465D01*
X1993284Y1210535D02*
X2028716D01*
X1993284Y1277465D02*
X2028716D01*
X1993284Y1210535D02*
Y1277465D01*
X2028716Y1210535D02*
Y1277465D01*
X1800284Y1213535D02*
X1835716D01*
X1800284Y1280465D02*
X1835716D01*
X1800284Y1213535D02*
Y1280465D01*
X1835716Y1213535D02*
Y1280465D01*
X1629284Y1213535D02*
X1664716D01*
X1629284Y1280465D02*
X1664716D01*
X1629284Y1213535D02*
Y1280465D01*
X1664716Y1213535D02*
Y1280465D01*
X1404716Y1055535D02*
Y1122465D01*
X1369284Y1055535D02*
Y1122465D01*
X1404716D01*
X1369284Y1055535D02*
X1404716D01*
X3612211Y1349120D02*
X3647644D01*
X3612211Y1282190D02*
X3647644D01*
Y1349120D01*
X3612211Y1282190D02*
Y1349120D01*
X3007284Y1645465D02*
X3042716D01*
X3007284Y1578535D02*
X3042716D01*
Y1645465D01*
X3007284Y1578535D02*
Y1645465D01*
X2924284Y2034465D02*
X2959716D01*
X2924284Y1967535D02*
X2959716D01*
Y2034465D01*
X2924284Y1967535D02*
Y2034465D01*
X3126284Y1761465D02*
X3161716D01*
X3126284Y1694535D02*
X3161716D01*
Y1761465D01*
X3126284Y1694535D02*
Y1761465D01*
X3543284Y1847465D02*
X3578716D01*
X3543284Y1780535D02*
X3578716D01*
Y1847465D01*
X3543284Y1780535D02*
Y1847465D01*
X2806535Y966716D02*
X2873465D01*
X2806535Y931284D02*
X2873465D01*
X2806535D02*
Y966716D01*
X2873465Y931284D02*
Y966716D01*
X2929284Y509535D02*
Y576465D01*
X2964716Y509535D02*
Y576465D01*
X2929284Y509535D02*
X2964716D01*
X2929284Y576465D02*
X2964716D01*
X934961Y2059716D02*
X1001890D01*
X934961Y2024284D02*
X1001890D01*
X934961D02*
Y2059716D01*
X1001890Y2024284D02*
Y2059716D01*
X3695716Y1001535D02*
Y1068465D01*
X3660284Y1001535D02*
Y1068465D01*
X3695716D01*
X3660284Y1001535D02*
X3695716D01*
X3716913Y1064906D02*
X3754315Y1027504D01*
X3716913D02*
X3831087D01*
Y1090496D01*
X3716913D02*
X3831087D01*
X3716913Y1027504D02*
Y1090496D01*
X2584173Y81331D02*
X2605827D01*
X2584173Y122669D02*
X2605827D01*
X2584173Y81331D02*
Y122669D01*
X2605827Y81331D02*
Y122669D01*
X3141535Y641284D02*
X3208465D01*
X3141535Y676716D02*
X3208465D01*
Y641284D02*
Y676716D01*
X3141535Y641284D02*
Y676716D01*
X1385284Y1366465D02*
X1420716D01*
X1385284Y1299535D02*
X1420716D01*
Y1366465D01*
X1385284Y1299535D02*
Y1366465D01*
X1972716Y1210535D02*
Y1277465D01*
X1937284Y1210535D02*
Y1277465D01*
X1972716D01*
X1937284Y1210535D02*
X1972716D01*
X1915716D02*
Y1277465D01*
X1880284Y1210535D02*
Y1277465D01*
X1915716D01*
X1880284Y1210535D02*
X1915716D01*
X1775716Y1213535D02*
Y1280465D01*
X1740284Y1213535D02*
Y1280465D01*
X1775716D01*
X1740284Y1213535D02*
X1775716D01*
X1720216D02*
Y1280465D01*
X1684784Y1213535D02*
Y1280465D01*
X1720216D01*
X1684784Y1213535D02*
X1720216D01*
X1658716Y1942535D02*
Y2009465D01*
X1623284Y1942535D02*
Y2009465D01*
X1658716D01*
X1623284Y1942535D02*
X1658716D01*
%TF.MD5,740413cb1d0a6f5ae02c8ad5399d5f7b*%
M02*
