%TF.GenerationSoftware,Altium Limited,Altium Designer,19.1.9 (167)*%
G04 Layer_Physical_Order=4*
G04 Layer_Color=16711680*
%FSLAX26Y26*%
%MOIN*%
%TF.FileFunction,Copper,L4,Bot,Signal*%
%TF.Part,Single*%
G01*
G75*
%TA.AperFunction,SMDPad,CuDef*%
%ADD37R,0.038000X0.037000*%
%TA.AperFunction,Conductor*%
%ADD42C,0.010280*%
%ADD43C,0.010000*%
%ADD45C,0.015000*%
%TA.AperFunction,ComponentPad*%
%ADD48C,0.250000*%
%ADD49O,0.100000X0.200000*%
%ADD50R,0.080000X0.080000*%
%ADD51O,0.066929X0.047244*%
%ADD52O,0.055118X0.039370*%
%ADD53C,0.059055*%
%ADD54R,0.059055X0.059055*%
%TA.AperFunction,ViaPad*%
%ADD55C,0.120000*%
%ADD56C,0.018000*%
%ADD57C,0.016000*%
%ADD58C,0.032000*%
%TA.AperFunction,SMDPad,CuDef*%
%ADD70R,0.068898X0.015748*%
%ADD71R,0.098425X0.056102*%
%TA.AperFunction,Conductor*%
%ADD72R,0.057480X0.078740*%
G36*
X3218022Y2546590D02*
X3236671Y2541593D01*
X3254509Y2534204D01*
X3271229Y2524551D01*
X3286547Y2512797D01*
X3300199Y2499145D01*
X3311952Y2483828D01*
X3321606Y2467108D01*
X3328994Y2449270D01*
X3333991Y2430620D01*
X3336512Y2411478D01*
X3336511Y2401825D01*
Y2342770D01*
X3336536Y2342645D01*
X3336515Y2342519D01*
X3336846Y2328997D01*
X3336930Y2328626D01*
X3336892Y2328248D01*
X3339543Y2301333D01*
X3339690Y2300849D01*
Y2300343D01*
X3344966Y2273818D01*
X3345160Y2273350D01*
X3345209Y2272847D01*
X3353060Y2246966D01*
X3353299Y2246520D01*
X3353397Y2246024D01*
X3363747Y2221038D01*
X3364028Y2220617D01*
X3364175Y2220133D01*
X3376924Y2196282D01*
X3377245Y2195891D01*
X3377438Y2195424D01*
X3392464Y2172936D01*
X3392821Y2172579D01*
X3393060Y2172133D01*
X3410217Y2151227D01*
X3410608Y2150906D01*
X3410889Y2150485D01*
X3430013Y2131361D01*
X3430433Y2131081D01*
X3430754Y2130689D01*
X3451660Y2113532D01*
X3452106Y2113294D01*
X3452464Y2112936D01*
X3474951Y2097911D01*
X3475419Y2097717D01*
X3475809Y2097396D01*
X3499661Y2084647D01*
X3500145Y2084501D01*
X3500566Y2084220D01*
X3525552Y2073870D01*
X3526048Y2073771D01*
X3526494Y2073533D01*
X3552375Y2065682D01*
X3552878Y2065632D01*
X3553345Y2065439D01*
X3579871Y2060162D01*
X3580377D01*
X3580861Y2060016D01*
X3607775Y2057365D01*
X3608154Y2057402D01*
X3608525Y2057319D01*
X3622047Y2056987D01*
X3622173Y2057009D01*
X3622297Y2056984D01*
X3710691D01*
X3729833Y2054464D01*
X3748482Y2049467D01*
X3766320Y2042078D01*
X3783040Y2032425D01*
X3798357Y2020671D01*
X3812010Y2007019D01*
X3823763Y1991702D01*
X3833417Y1974981D01*
X3840805Y1957144D01*
X3845802Y1938494D01*
X3848323Y1919352D01*
Y1909699D01*
Y649856D01*
Y640203D01*
X3845802Y621061D01*
X3840805Y602412D01*
X3833417Y584574D01*
X3823764Y567854D01*
X3812010Y552536D01*
X3798357Y538884D01*
X3783040Y527130D01*
X3766320Y517477D01*
X3748482Y510088D01*
X3729833Y505091D01*
X3710691Y502571D01*
X3701038Y502571D01*
X3622297D01*
X3622173Y502547D01*
X3622047Y502568D01*
X3608524Y502236D01*
X3608154Y502153D01*
X3607775Y502190D01*
X3580861Y499539D01*
X3580377Y499393D01*
X3579871D01*
X3553345Y494116D01*
X3552878Y493923D01*
X3552375Y493873D01*
X3526494Y486022D01*
X3526048Y485784D01*
X3525552Y485685D01*
X3500566Y475336D01*
X3500145Y475055D01*
X3499661Y474908D01*
X3475809Y462159D01*
X3475419Y461838D01*
X3474951Y461644D01*
X3452464Y446619D01*
X3452106Y446261D01*
X3451660Y446023D01*
X3430754Y428866D01*
X3430433Y428475D01*
X3430013Y428194D01*
X3410889Y409070D01*
X3410608Y408649D01*
X3410217Y408329D01*
X3393060Y387422D01*
X3392821Y386976D01*
X3392464Y386619D01*
X3377438Y364132D01*
X3377245Y363664D01*
X3376924Y363273D01*
X3364175Y339422D01*
X3364028Y338938D01*
X3363747Y338517D01*
X3353397Y313531D01*
X3353299Y313035D01*
X3353060Y312589D01*
X3345209Y286708D01*
X3345160Y286205D01*
X3344966Y285737D01*
X3339690Y259212D01*
Y258706D01*
X3339543Y258222D01*
X3336892Y231307D01*
X3336930Y230929D01*
X3336846Y230558D01*
X3336515Y217035D01*
X3336536Y216910D01*
X3336511Y216785D01*
Y148077D01*
X3333991Y128935D01*
X3328994Y110286D01*
X3321606Y92448D01*
X3311952Y75728D01*
X3300198Y60410D01*
X3286546Y46758D01*
X3271229Y35005D01*
X3254509Y25351D01*
X3236671Y17962D01*
X3218022Y12966D01*
X3198880Y10445D01*
X2054157D01*
Y177000D01*
X2053536Y180121D01*
X2051768Y182768D01*
X2049121Y184536D01*
X2046000Y185157D01*
X1788000D01*
X1784879Y184536D01*
X1782232Y182768D01*
X1780464Y180121D01*
X1779843Y177000D01*
Y10445D01*
X659888D01*
X640746Y12966D01*
X622097Y17962D01*
X604259Y25351D01*
X587539Y35004D01*
X572221Y46758D01*
X558569Y60410D01*
X546815Y75728D01*
X537162Y92448D01*
X529774Y110286D01*
X524777Y128935D01*
X522256Y148077D01*
X522257Y157730D01*
Y216786D01*
X522232Y216910D01*
X522254Y217036D01*
X521922Y230558D01*
X521838Y230929D01*
X521875Y231307D01*
X519225Y258222D01*
X519078Y258706D01*
Y259212D01*
X513802Y285738D01*
X513608Y286205D01*
X513558Y286708D01*
X505708Y312589D01*
X505469Y313035D01*
X505370Y313531D01*
X495021Y338517D01*
X494740Y338938D01*
X494593Y339422D01*
X481844Y363273D01*
X481523Y363664D01*
X481330Y364132D01*
X466304Y386619D01*
X465947Y386976D01*
X465708Y387422D01*
X448551Y408329D01*
X448160Y408649D01*
X447879Y409070D01*
X428755Y428194D01*
X428335Y428475D01*
X428014Y428866D01*
X407108Y446023D01*
X406661Y446261D01*
X406304Y446619D01*
X383817Y461644D01*
X383349Y461838D01*
X382958Y462159D01*
X359107Y474908D01*
X358623Y475055D01*
X358202Y475336D01*
X333216Y485685D01*
X332720Y485784D01*
X332274Y486022D01*
X306393Y493873D01*
X305890Y493923D01*
X305423Y494116D01*
X278897Y499393D01*
X278391D01*
X277907Y499539D01*
X250993Y502190D01*
X250614Y502153D01*
X250243Y502236D01*
X236721Y502568D01*
X236595Y502546D01*
X236470Y502571D01*
X157731Y502571D01*
X148077Y502571D01*
X128935Y505091D01*
X110286Y510088D01*
X92448Y517477D01*
X75728Y527130D01*
X60411Y538884D01*
X46758Y552536D01*
X35005Y567854D01*
X25351Y584574D01*
X17962Y602412D01*
X12966Y621061D01*
X10445Y640203D01*
X10445Y649856D01*
Y835667D01*
X20445Y839809D01*
X39627Y820628D01*
X43928Y817754D01*
X46476Y817247D01*
X46987Y816306D01*
X48721Y809433D01*
X48625Y806901D01*
X43235Y802765D01*
X37220Y794926D01*
X33438Y785797D01*
X32149Y776000D01*
X33438Y766203D01*
X37220Y757074D01*
X43235Y749235D01*
X51074Y743220D01*
X60203Y739438D01*
X70000Y738149D01*
X79797Y739438D01*
X88926Y743220D01*
X96765Y749235D01*
X102780Y757074D01*
X106561Y766203D01*
X107851Y776000D01*
X106561Y785797D01*
X102780Y794926D01*
X96765Y802765D01*
X91578Y806745D01*
X94895Y816745D01*
X1034000D01*
X1039072Y817754D01*
X1043372Y820628D01*
X1267372Y1044628D01*
X1270246Y1048928D01*
X1271255Y1054000D01*
Y1158038D01*
X1273072Y1160757D01*
X1274313Y1167000D01*
X1273072Y1173243D01*
X1271255Y1175962D01*
Y1464345D01*
X1365738Y1558828D01*
X1366243Y1558928D01*
X1371535Y1562465D01*
X1375072Y1567757D01*
X1376313Y1574000D01*
X1384969Y1581743D01*
X1402565D01*
X1443921Y1540387D01*
X1448267Y1537483D01*
X1453394Y1536463D01*
X2223860D01*
X2228987Y1537483D01*
X2233333Y1540387D01*
X2242745Y1549799D01*
X2252745Y1545657D01*
Y1360490D01*
X1765628Y873372D01*
X1762754Y869072D01*
X1761745Y864000D01*
Y739962D01*
X1759928Y737243D01*
X1758687Y731000D01*
X1759928Y724757D01*
X1763465Y719465D01*
X1768757Y715928D01*
X1775000Y714687D01*
X1781243Y715928D01*
X1786535Y719465D01*
X1790072Y724757D01*
X1791313Y731000D01*
X1790072Y737243D01*
X1788255Y739962D01*
Y858510D01*
X2275372Y1345628D01*
X2278246Y1349928D01*
X2279255Y1355000D01*
Y1579698D01*
X2278246Y1584771D01*
X2275372Y1589071D01*
X2239826Y1624618D01*
X2243653Y1633856D01*
X2259411D01*
X2854305Y1038962D01*
X2851568Y1027557D01*
X2846697Y1024303D01*
X2841392Y1016364D01*
X2839530Y1007000D01*
X2841392Y997636D01*
X2846697Y989697D01*
X2854636Y984393D01*
X2864000Y982530D01*
X2873364Y984393D01*
X2881303Y989697D01*
X2884557Y994567D01*
X2895962Y997305D01*
X2962640Y930628D01*
X2966940Y927754D01*
X2972012Y926745D01*
X3780633D01*
X3784460Y917506D01*
X3642208Y775255D01*
X3081490D01*
X3062710Y794035D01*
X3062072Y797243D01*
X3058535Y802535D01*
X3053243Y806072D01*
X3047000Y807313D01*
X3040757Y806072D01*
X3035465Y802535D01*
X3031928Y797243D01*
X3030686Y791000D01*
X3031928Y784757D01*
X3035465Y779465D01*
X3040757Y775928D01*
X3043965Y775290D01*
X3066628Y752628D01*
X3070928Y749754D01*
X3076000Y748745D01*
X3647698D01*
X3652771Y749754D01*
X3657071Y752628D01*
X3826372Y921929D01*
X3829246Y926229D01*
X3830255Y931302D01*
Y1111698D01*
X3829246Y1116771D01*
X3826372Y1121071D01*
X3269071Y1678372D01*
X3264771Y1681246D01*
X3259698Y1682255D01*
X3101829D01*
X3100994Y1683211D01*
X3097400Y1692255D01*
X3099072Y1694757D01*
X3100314Y1701000D01*
X3099072Y1707243D01*
X3095535Y1712535D01*
X3090243Y1716072D01*
X3084000Y1717313D01*
X3077757Y1716072D01*
X3072465Y1712535D01*
X3068928Y1707243D01*
X3067686Y1701000D01*
X3068928Y1694757D01*
X3070600Y1692255D01*
X3067006Y1683211D01*
X3066171Y1682255D01*
X2964511D01*
X2956314Y1691000D01*
X2955072Y1697243D01*
X2951535Y1702535D01*
X2946243Y1706072D01*
X2943035Y1706710D01*
X2754372Y1895372D01*
X2750072Y1898246D01*
X2745000Y1899255D01*
X1687962D01*
X1685243Y1901072D01*
X1679000Y1902313D01*
X1672757Y1901072D01*
X1667465Y1897535D01*
X1663928Y1892243D01*
X1663752Y1891354D01*
X1663598Y1890582D01*
X1653402D01*
X1653248Y1891354D01*
X1653072Y1892243D01*
X1649535Y1897535D01*
X1644243Y1901072D01*
X1641035Y1901710D01*
X1499293Y2043452D01*
X1494801Y2049703D01*
X1497072Y2056757D01*
X1498313Y2063000D01*
X1497072Y2069243D01*
X1493535Y2074535D01*
X1488243Y2078072D01*
X1482000Y2079314D01*
X1475757Y2078072D01*
X1470465Y2074535D01*
X1466928Y2069243D01*
X1465687Y2063000D01*
X1465835Y2062255D01*
X1458825Y2052255D01*
X1425175D01*
X1418165Y2062255D01*
X1418313Y2063000D01*
X1417072Y2069243D01*
X1413535Y2074535D01*
X1408243Y2078072D01*
X1402000Y2079314D01*
X1395757Y2078072D01*
X1390465Y2074535D01*
X1386928Y2069243D01*
X1385687Y2063000D01*
X1385835Y2062255D01*
X1378825Y2052255D01*
X1077962D01*
X1075243Y2054072D01*
X1069000Y2055314D01*
X1062757Y2054072D01*
X1057465Y2050535D01*
X1053928Y2045243D01*
X1052687Y2039000D01*
X1053928Y2032757D01*
X1057465Y2027465D01*
X1062757Y2023928D01*
X1069000Y2022687D01*
X1075243Y2023928D01*
X1077962Y2025745D01*
X1479510D01*
X1530000Y1975255D01*
X1525858Y1965255D01*
X1361962D01*
X1359243Y1967072D01*
X1353000Y1968313D01*
X1346757Y1967072D01*
X1341465Y1963535D01*
X1337928Y1958243D01*
X1336687Y1952000D01*
X1337928Y1945757D01*
X1341465Y1940465D01*
X1346757Y1936928D01*
X1353000Y1935687D01*
X1359243Y1936928D01*
X1361962Y1938745D01*
X1526510D01*
X1583539Y1881716D01*
X1583928Y1879757D01*
X1587465Y1874465D01*
X1592757Y1870928D01*
X1599000Y1869687D01*
X1605243Y1870928D01*
X1610535Y1874465D01*
X1612984Y1878129D01*
X1613189Y1878236D01*
X1618500Y1879065D01*
X1623960Y1878212D01*
X1626465Y1874465D01*
X1631757Y1870928D01*
X1638000Y1869687D01*
X1644243Y1870928D01*
X1649535Y1874465D01*
X1653072Y1879757D01*
X1653248Y1880646D01*
X1653402Y1881418D01*
X1663598D01*
X1663752Y1880646D01*
X1663928Y1879757D01*
X1667465Y1874465D01*
X1672757Y1870928D01*
X1679000Y1869687D01*
X1685243Y1870928D01*
X1687962Y1872745D01*
X2739510D01*
X2773762Y1838494D01*
X2769935Y1829255D01*
X2039000D01*
X2033928Y1828246D01*
X2029628Y1825372D01*
X1986652Y1782397D01*
X1513686D01*
X1509117Y1781488D01*
X1508243Y1782072D01*
X1502000Y1783313D01*
X1495757Y1782072D01*
X1490465Y1778535D01*
X1486928Y1773243D01*
X1485687Y1767000D01*
X1486928Y1760757D01*
X1490465Y1755465D01*
X1490494Y1755445D01*
Y1743555D01*
X1490465Y1743535D01*
X1486928Y1738243D01*
X1485687Y1732000D01*
X1486928Y1725757D01*
X1489088Y1722525D01*
X1482787Y1715664D01*
X1482010Y1715118D01*
X1476000Y1716313D01*
X1469757Y1715072D01*
X1464465Y1711535D01*
X1460928Y1706243D01*
X1459687Y1700000D01*
X1460602Y1695395D01*
X1456738Y1689131D01*
X1454007Y1686116D01*
X1448757Y1685072D01*
X1443465Y1681535D01*
X1442310Y1679808D01*
X1432096Y1677568D01*
X1430064Y1677911D01*
X1211603Y1896372D01*
X1207303Y1899246D01*
X1202230Y1900255D01*
X105129D01*
X102780Y1905926D01*
X96765Y1913765D01*
X88926Y1919780D01*
X79797Y1923562D01*
X70000Y1924851D01*
X60203Y1923562D01*
X51074Y1919780D01*
X43235Y1913765D01*
X37220Y1905926D01*
X33438Y1896797D01*
X32149Y1887000D01*
X33438Y1877203D01*
X37220Y1868074D01*
X43235Y1860235D01*
X51074Y1854220D01*
X60203Y1850438D01*
X70000Y1849149D01*
X79797Y1850438D01*
X88926Y1854220D01*
X96765Y1860235D01*
X102780Y1868074D01*
X105129Y1873745D01*
X1196740D01*
X1260992Y1809494D01*
X1257165Y1800255D01*
X105129D01*
X102780Y1805926D01*
X96765Y1813765D01*
X88926Y1819780D01*
X79797Y1823562D01*
X70000Y1824851D01*
X60203Y1823562D01*
X51074Y1819780D01*
X43235Y1813765D01*
X37220Y1805926D01*
X33438Y1796797D01*
X32149Y1787000D01*
X33438Y1777203D01*
X37220Y1768074D01*
X43235Y1760235D01*
X51074Y1754220D01*
X60203Y1750438D01*
X70000Y1749149D01*
X79797Y1750438D01*
X88926Y1754220D01*
X96765Y1760235D01*
X102780Y1768074D01*
X105129Y1773745D01*
X1271284D01*
X1327775Y1717255D01*
X1323633Y1707255D01*
X677962D01*
X675243Y1709072D01*
X669000Y1710313D01*
X662757Y1709072D01*
X657465Y1705535D01*
X653928Y1700243D01*
X652687Y1694000D01*
X653928Y1687757D01*
X657465Y1682465D01*
X662757Y1678928D01*
X669000Y1677687D01*
X675243Y1678928D01*
X677962Y1680745D01*
X1329418D01*
X1392387Y1617776D01*
X1388560Y1608537D01*
X1138140D01*
X1133013Y1607517D01*
X1128667Y1604613D01*
X1013451Y1489397D01*
X717749D01*
X715243Y1491072D01*
X709000Y1492313D01*
X702757Y1491072D01*
X697465Y1487535D01*
X693928Y1482243D01*
X692687Y1476000D01*
X693928Y1469757D01*
X695603Y1467251D01*
Y1334927D01*
X553954Y1193278D01*
X552741Y1193531D01*
X550188Y1197643D01*
X548326Y1204668D01*
X552740Y1212928D01*
X556171Y1224238D01*
X557330Y1236000D01*
Y1281000D01*
X497039D01*
X436749D01*
Y1236000D01*
X437908Y1224238D01*
X441338Y1212928D01*
X445753Y1204668D01*
X443891Y1197643D01*
X441337Y1193531D01*
X440125Y1193278D01*
X391111Y1242292D01*
X386765Y1245196D01*
X381638Y1246216D01*
X359817D01*
X352313Y1256000D01*
X351072Y1262243D01*
X347535Y1267535D01*
Y1270465D01*
X351072Y1275757D01*
X352313Y1282000D01*
X351072Y1288243D01*
X347535Y1293535D01*
X342243Y1297072D01*
X336000Y1298313D01*
X329757Y1297072D01*
X324465Y1293535D01*
X324313Y1293309D01*
X323253Y1293098D01*
X320495Y1291255D01*
X312615D01*
X310825Y1292450D01*
X305753Y1293459D01*
X273947D01*
X270945Y1294057D01*
Y1319307D01*
Y1351055D01*
X270945Y1351055D01*
X272842Y1355682D01*
X273463Y1358803D01*
Y1437543D01*
X272842Y1440665D01*
X271074Y1443311D01*
X268427Y1445079D01*
X265306Y1445700D01*
X221643D01*
X213255Y1453338D01*
Y1476429D01*
X215642Y1478816D01*
X223255Y1482971D01*
X230000Y1481500D01*
X236172Y1481500D01*
X254000D01*
Y1510000D01*
Y1538500D01*
X236172D01*
X230000Y1538500D01*
X220829Y1536500D01*
X173000D01*
Y1483500D01*
X186745D01*
Y1458829D01*
X174832Y1446916D01*
X174020Y1445700D01*
X170425D01*
X167304Y1445079D01*
X164658Y1443311D01*
X162889Y1440665D01*
X162269Y1437543D01*
Y1425031D01*
X89717D01*
X89509Y1424989D01*
X89299Y1425020D01*
X87764Y1424941D01*
X87549Y1424887D01*
X87327Y1424907D01*
X85831Y1424750D01*
X85284Y1424580D01*
X84711Y1424552D01*
X84008Y1424377D01*
X83812Y1424284D01*
X83597Y1424263D01*
X82883Y1424044D01*
X82883Y1424044D01*
X81467Y1423612D01*
X80864Y1423288D01*
X80203Y1423107D01*
X78707Y1422359D01*
X78456Y1422164D01*
X78158Y1422057D01*
X76780Y1421230D01*
X76465Y1420945D01*
X76083Y1420762D01*
X74823Y1419817D01*
X74628Y1419600D01*
X74375Y1419455D01*
X73194Y1418432D01*
X72840Y1417977D01*
X72385Y1417625D01*
X71322Y1416404D01*
X71181Y1416160D01*
X70971Y1415973D01*
X69987Y1414673D01*
X69733Y1414152D01*
X69358Y1413709D01*
X68571Y1412292D01*
X68502Y1412078D01*
X68366Y1411899D01*
X67657Y1410442D01*
X67506Y1409863D01*
X67217Y1409339D01*
X66705Y1407725D01*
X66653Y1407251D01*
X66472Y1406810D01*
X66236Y1405589D01*
X66237Y1405354D01*
X66161Y1405132D01*
X65964Y1403675D01*
X65985Y1403344D01*
X65903Y1403023D01*
X65824Y1401566D01*
X65856Y1401345D01*
X65812Y1401126D01*
Y1381441D01*
X65849Y1381252D01*
X65821Y1381062D01*
X65899Y1379369D01*
X66007Y1378934D01*
X65989Y1378486D01*
X66245Y1376852D01*
X66393Y1376448D01*
X66420Y1376019D01*
X66834Y1374464D01*
X67028Y1374066D01*
X67104Y1373631D01*
X67694Y1372095D01*
X67960Y1371674D01*
X68104Y1371197D01*
X68773Y1369937D01*
X68872Y1369816D01*
X68922Y1369668D01*
X69631Y1368448D01*
X69957Y1368078D01*
X70172Y1367633D01*
X68243Y1361327D01*
X65291Y1357945D01*
X50221D01*
Y1285843D01*
X50220D01*
Y1282157D01*
X50221D01*
Y1210055D01*
X65291D01*
X68243Y1206673D01*
X70172Y1200367D01*
X69957Y1199922D01*
X69631Y1199552D01*
X68922Y1198332D01*
X68872Y1198184D01*
X68773Y1198063D01*
X68104Y1196803D01*
X67960Y1196326D01*
X67694Y1195905D01*
X67104Y1194369D01*
X67028Y1193934D01*
X66834Y1193536D01*
X66420Y1191981D01*
X66393Y1191552D01*
X66245Y1191148D01*
X65989Y1189514D01*
X66007Y1189066D01*
X65899Y1188631D01*
X65821Y1186938D01*
X65849Y1186748D01*
X65812Y1186559D01*
Y1166874D01*
X65855Y1166655D01*
X65824Y1166434D01*
X65902Y1164977D01*
X65985Y1164656D01*
X65964Y1164325D01*
X66161Y1162868D01*
X66237Y1162646D01*
X66236Y1162411D01*
X66472Y1161190D01*
X66652Y1160749D01*
X66705Y1160275D01*
X67217Y1158661D01*
X67505Y1158137D01*
X67657Y1157557D01*
X68366Y1156101D01*
X68502Y1155922D01*
X68571Y1155708D01*
X69358Y1154291D01*
X69733Y1153848D01*
X69987Y1153327D01*
X70971Y1152027D01*
X71182Y1151840D01*
X71322Y1151596D01*
X72385Y1150375D01*
X72840Y1150023D01*
X73193Y1149568D01*
X74374Y1148545D01*
X74628Y1148400D01*
X74823Y1148183D01*
X76082Y1147238D01*
X76465Y1147055D01*
X76780Y1146770D01*
X78157Y1145943D01*
X78456Y1145836D01*
X78707Y1145641D01*
X80203Y1144893D01*
X80864Y1144712D01*
X81467Y1144388D01*
X82883Y1143956D01*
X83597Y1143737D01*
X83812Y1143716D01*
X84008Y1143623D01*
X84711Y1143448D01*
X85283Y1143420D01*
X85831Y1143250D01*
X87327Y1143093D01*
X87548Y1143113D01*
X87764Y1143059D01*
X89299Y1142980D01*
X89509Y1143011D01*
X89716Y1142969D01*
X162268D01*
Y1130457D01*
X162889Y1127335D01*
X164657Y1124689D01*
X167304Y1122921D01*
X170425Y1122300D01*
X197984D01*
X201106Y1122921D01*
X202905Y1124123D01*
X204703Y1122922D01*
X207825Y1122301D01*
X265305D01*
X268427Y1122922D01*
X271073Y1124690D01*
X272841Y1127336D01*
X273462Y1130458D01*
Y1209198D01*
X273417Y1209421D01*
X278019Y1217370D01*
X280122Y1219422D01*
X376089D01*
X432123Y1163387D01*
X436470Y1160483D01*
X441597Y1159463D01*
X552482D01*
X557609Y1160483D01*
X561955Y1163387D01*
X718473Y1319905D01*
X721378Y1324251D01*
X722397Y1329378D01*
Y1462603D01*
X1019000D01*
X1024127Y1463622D01*
X1028473Y1466527D01*
X1143689Y1581743D01*
X1335031D01*
X1337040Y1580035D01*
X1338461Y1569041D01*
X1248628Y1479208D01*
X1245754Y1474908D01*
X1244745Y1469835D01*
Y1175962D01*
X1242928Y1173243D01*
X1241687Y1167000D01*
X1242928Y1160757D01*
X1244745Y1158038D01*
Y1059490D01*
X1232255Y1047000D01*
X1222255Y1051142D01*
Y1215038D01*
X1224072Y1217757D01*
X1225313Y1224000D01*
X1224072Y1230243D01*
X1220535Y1235535D01*
X1215243Y1239072D01*
X1209000Y1240313D01*
X1202757Y1239072D01*
X1197465Y1235535D01*
X1193928Y1230243D01*
X1192687Y1224000D01*
X1193928Y1217757D01*
X1195745Y1215038D01*
Y1047490D01*
X1017510Y869255D01*
X113767D01*
X107851Y876000D01*
X106561Y885797D01*
X102780Y894926D01*
X96765Y902765D01*
X88926Y908780D01*
X79797Y912562D01*
X70000Y913851D01*
X60203Y912562D01*
X51074Y908780D01*
X47255Y905849D01*
X37255Y910781D01*
Y924510D01*
X54532Y941787D01*
X60203Y939438D01*
X70000Y938149D01*
X79797Y939438D01*
X88926Y943220D01*
X96765Y949235D01*
X102780Y957074D01*
X106561Y966203D01*
X107851Y976000D01*
X106561Y985797D01*
X102780Y994926D01*
X96765Y1002765D01*
X88926Y1008780D01*
X79797Y1012562D01*
X70000Y1013851D01*
X60203Y1012562D01*
X51074Y1008780D01*
X43235Y1002765D01*
X37220Y994926D01*
X33438Y985797D01*
X32149Y976000D01*
X33438Y966203D01*
X35787Y960532D01*
X20445Y945191D01*
X10445Y949333D01*
Y1909699D01*
X10445Y1919352D01*
X12966Y1938494D01*
X17962Y1957144D01*
X25351Y1974981D01*
X35004Y1991701D01*
X46758Y2007019D01*
X60410Y2020671D01*
X75728Y2032425D01*
X92448Y2042078D01*
X110286Y2049467D01*
X128935Y2054464D01*
X148077Y2056984D01*
X157730Y2056984D01*
X236470Y2056984D01*
X236595Y2057009D01*
X236721Y2056987D01*
X250243Y2057319D01*
X250614Y2057402D01*
X250993Y2057365D01*
X277907Y2060016D01*
X278391Y2060162D01*
X278897D01*
X305423Y2065439D01*
X305890Y2065632D01*
X306393Y2065682D01*
X332274Y2073533D01*
X332720Y2073771D01*
X333216Y2073870D01*
X358202Y2084220D01*
X358623Y2084501D01*
X359107Y2084647D01*
X382958Y2097396D01*
X383349Y2097717D01*
X383817Y2097911D01*
X406304Y2112936D01*
X406661Y2113294D01*
X407108Y2113532D01*
X428014Y2130689D01*
X428334Y2131080D01*
X428755Y2131361D01*
X447879Y2150485D01*
X448160Y2150906D01*
X448551Y2151227D01*
X465708Y2172133D01*
X465947Y2172579D01*
X466304Y2172936D01*
X481330Y2195423D01*
X481523Y2195891D01*
X481844Y2196282D01*
X494593Y2220133D01*
X494740Y2220617D01*
X495021Y2221038D01*
X505370Y2246024D01*
X505469Y2246520D01*
X505708Y2246966D01*
X513558Y2272847D01*
X513608Y2273350D01*
X513802Y2273818D01*
X519078Y2300343D01*
Y2300849D01*
X519225Y2301333D01*
X521875Y2328248D01*
X521838Y2328626D01*
X521922Y2328997D01*
X522253Y2342520D01*
X522232Y2342645D01*
X522256Y2342770D01*
X522257Y2401825D01*
X522256Y2411478D01*
X524777Y2430620D01*
X529774Y2449269D01*
X537162Y2467107D01*
X546816Y2483827D01*
X558569Y2499144D01*
X572221Y2512797D01*
X587539Y2524550D01*
X604259Y2534204D01*
X622097Y2541593D01*
X640746Y2546590D01*
X659888Y2549110D01*
X669542D01*
X866843D01*
X866843Y2192000D01*
X867464Y2188879D01*
X869232Y2186232D01*
X871879Y2184464D01*
X875000Y2183843D01*
X2863000Y2183843D01*
X2866121Y2184464D01*
X2868768Y2186233D01*
X2870536Y2188879D01*
X2871157Y2192000D01*
X2871157Y2549110D01*
X3189227D01*
X3198880D01*
X3218022Y2546590D01*
D02*
G37*
G36*
X2021904Y1728649D02*
X2012628Y1719372D01*
X2009754Y1715072D01*
X2008745Y1710000D01*
Y1672017D01*
X2009754Y1666945D01*
X2012628Y1662645D01*
X2058787Y1616485D01*
X2063087Y1613612D01*
X2068159Y1612603D01*
X2214350D01*
X2232821Y1594132D01*
X2233465Y1582535D01*
X2229928Y1577243D01*
X2229340Y1574287D01*
X2218311Y1563257D01*
X1526969D01*
X1518313Y1571000D01*
X1517072Y1577243D01*
X1513535Y1582535D01*
Y1593465D01*
X1517072Y1598757D01*
X1518313Y1605000D01*
X1517072Y1611243D01*
X1513535Y1616535D01*
Y1624465D01*
X1517072Y1629757D01*
X1518313Y1636000D01*
X1517072Y1642243D01*
X1513535Y1647535D01*
Y1658465D01*
X1517072Y1663757D01*
X1518313Y1670000D01*
X1517072Y1676243D01*
X1513535Y1681535D01*
X1508243Y1685072D01*
X1502000Y1686313D01*
X1497531Y1685425D01*
X1493117Y1689687D01*
X1490919Y1693529D01*
X1491072Y1693757D01*
X1492313Y1700000D01*
X1491072Y1706243D01*
X1488912Y1709475D01*
X1495213Y1716336D01*
X1495990Y1716882D01*
X1502000Y1715687D01*
X1508243Y1716928D01*
X1513535Y1720465D01*
X1517072Y1725757D01*
X1517710Y1728965D01*
X1526632Y1737887D01*
X2018077D01*
X2021904Y1728649D01*
D02*
G37*
G36*
X197984Y1365693D02*
X88850D01*
X87984Y1365732D01*
X87158Y1365890D01*
X86370Y1366047D01*
X85701Y1366205D01*
X85032Y1366402D01*
X83772Y1366874D01*
X82354Y1367504D01*
X80977Y1368370D01*
X79795Y1369197D01*
X78693Y1370220D01*
X77650Y1371264D01*
X76685Y1372543D01*
X75977Y1373764D01*
X75307Y1375024D01*
X74717Y1376559D01*
X74303Y1378114D01*
X74047Y1379748D01*
X73969Y1381441D01*
Y1401126D01*
X74047Y1402583D01*
X74244Y1404039D01*
X74480Y1405260D01*
X74992Y1406874D01*
X75701Y1408331D01*
X76488Y1409748D01*
X77472Y1411047D01*
X78535Y1412268D01*
X79717Y1413291D01*
X80977Y1414236D01*
X82354Y1415063D01*
X83850Y1415811D01*
X85268Y1416244D01*
X85982Y1416462D01*
X86685Y1416638D01*
X88181Y1416795D01*
X89717Y1416874D01*
X170425D01*
Y1437543D01*
X197984D01*
Y1365693D01*
D02*
G37*
G36*
X2915473Y1641628D02*
X2919773Y1638754D01*
X2924846Y1637745D01*
X3123128D01*
X3128473Y1627745D01*
X3127928Y1626929D01*
X3126686Y1620687D01*
X3127928Y1614444D01*
X3131465Y1609151D01*
X3136757Y1605615D01*
X3143000Y1604373D01*
X3149243Y1605615D01*
X3154535Y1609151D01*
X3158072Y1614444D01*
X3159314Y1620687D01*
X3158072Y1626929D01*
X3157527Y1627745D01*
X3162872Y1637745D01*
X3242510D01*
X3259290Y1620965D01*
X3259928Y1617757D01*
X3263465Y1612465D01*
X3268757Y1608928D01*
X3275000Y1607687D01*
X3281243Y1608928D01*
X3286535Y1612465D01*
X3298132Y1611821D01*
X3803745Y1106208D01*
Y965418D01*
X3798240Y961309D01*
X3793745Y959370D01*
X3789000Y960313D01*
X3782757Y959072D01*
X3777465Y955535D01*
X3775941Y953255D01*
X2977502D01*
X2776809Y1153948D01*
X2782473Y1162426D01*
X2790459Y1159118D01*
X2810815Y1154231D01*
X2831685Y1152589D01*
X2852555Y1154231D01*
X2872911Y1159118D01*
X2892253Y1167130D01*
X2910102Y1178068D01*
X2926021Y1191664D01*
X2939617Y1207583D01*
X2950555Y1225432D01*
X2958567Y1244774D01*
X2963454Y1265130D01*
X2965096Y1286000D01*
X2963454Y1306870D01*
X2958567Y1327226D01*
X2950555Y1346568D01*
X2939617Y1364417D01*
X2926021Y1380336D01*
X2910102Y1393932D01*
X2892253Y1404870D01*
X2872911Y1412882D01*
X2852555Y1417769D01*
X2831685Y1419411D01*
X2810815Y1417769D01*
X2790459Y1412882D01*
X2771117Y1404870D01*
X2753268Y1393932D01*
X2737349Y1380336D01*
X2723753Y1364417D01*
X2712815Y1346568D01*
X2704803Y1327226D01*
X2699916Y1306870D01*
X2698274Y1286000D01*
X2699916Y1265130D01*
X2704803Y1244774D01*
X2708111Y1236788D01*
X2699633Y1231124D01*
X2274274Y1656484D01*
X2269974Y1659357D01*
X2264901Y1660366D01*
X2077852D01*
X2072969Y1665249D01*
X2072666Y1668410D01*
X2075855Y1676506D01*
X2077105Y1676754D01*
X2081405Y1679628D01*
X2186523Y1784745D01*
X2772356D01*
X2915473Y1641628D01*
D02*
G37*
G36*
X197984Y1130457D02*
X170425D01*
Y1151126D01*
X89716D01*
X88181Y1151205D01*
X86685Y1151362D01*
X85982Y1151538D01*
X85268Y1151756D01*
X83850Y1152189D01*
X82354Y1152937D01*
X80976Y1153764D01*
X79716Y1154709D01*
X78535Y1155732D01*
X77472Y1156953D01*
X76488Y1158252D01*
X75701Y1159669D01*
X74992Y1161126D01*
X74480Y1162740D01*
X74244Y1163961D01*
X74047Y1165417D01*
X73969Y1166874D01*
Y1186559D01*
X74047Y1188252D01*
X74303Y1189886D01*
X74716Y1191441D01*
X75307Y1192976D01*
X75976Y1194236D01*
X76685Y1195457D01*
X77650Y1196736D01*
X78693Y1197780D01*
X79795Y1198803D01*
X80976Y1199630D01*
X82354Y1200496D01*
X83772Y1201126D01*
X85031Y1201598D01*
X85701Y1201795D01*
X86370Y1201953D01*
X87157Y1202110D01*
X87984Y1202268D01*
X88850Y1202307D01*
X197984D01*
Y1130457D01*
D02*
G37*
%LPC*%
G36*
X3186000Y2487329D02*
X3172670Y2486016D01*
X3159852Y2482128D01*
X3148038Y2475814D01*
X3137684Y2467316D01*
X3129186Y2456962D01*
X3122872Y2445148D01*
X3118984Y2432330D01*
X3117671Y2419000D01*
X3118984Y2405670D01*
X3122872Y2392852D01*
X3129186Y2381038D01*
X3137684Y2370684D01*
X3148038Y2362186D01*
X3159852Y2355872D01*
X3172670Y2351984D01*
X3186000Y2350671D01*
X3199330Y2351984D01*
X3212148Y2355872D01*
X3223962Y2362186D01*
X3234316Y2370684D01*
X3242814Y2381038D01*
X3249128Y2392852D01*
X3253016Y2405670D01*
X3254329Y2419000D01*
X3253016Y2432330D01*
X3249128Y2445148D01*
X3242814Y2456962D01*
X3234316Y2467316D01*
X3223962Y2475814D01*
X3212148Y2482128D01*
X3199330Y2486016D01*
X3186000Y2487329D01*
D02*
G37*
G36*
X659000D02*
X645670Y2486016D01*
X632852Y2482128D01*
X621038Y2475814D01*
X610684Y2467316D01*
X602187Y2456962D01*
X595872Y2445148D01*
X591984Y2432330D01*
X590671Y2419000D01*
X591984Y2405670D01*
X595872Y2392852D01*
X602187Y2381038D01*
X610684Y2370684D01*
X621038Y2362186D01*
X632852Y2355872D01*
X645670Y2351984D01*
X659000Y2350671D01*
X672330Y2351984D01*
X685148Y2355872D01*
X696962Y2362186D01*
X707316Y2370684D01*
X715813Y2381038D01*
X722128Y2392852D01*
X726016Y2405670D01*
X727329Y2419000D01*
X726016Y2432330D01*
X722128Y2445148D01*
X715813Y2456962D01*
X707316Y2467316D01*
X696962Y2475814D01*
X685148Y2482128D01*
X672330Y2486016D01*
X659000Y2487329D01*
D02*
G37*
G36*
X1561000Y2079314D02*
X1554757Y2078072D01*
X1549465Y2074535D01*
X1545928Y2069243D01*
X1544687Y2063000D01*
X1545928Y2056757D01*
X1549465Y2051465D01*
X1554757Y2047928D01*
X1561000Y2046687D01*
X1567243Y2047928D01*
X1572535Y2051465D01*
X1576072Y2056757D01*
X1577313Y2063000D01*
X1576072Y2069243D01*
X1572535Y2074535D01*
X1567243Y2078072D01*
X1561000Y2079314D01*
D02*
G37*
G36*
X3242000Y2078314D02*
X3235757Y2077072D01*
X3230465Y2073535D01*
X3226928Y2068243D01*
X3225686Y2062000D01*
X3226928Y2055757D01*
X3230465Y2050465D01*
X3232637Y2049013D01*
X3247417Y2034233D01*
X3242491Y2025017D01*
X3241000Y2025313D01*
X3234757Y2024072D01*
X3229465Y2020535D01*
X3225928Y2015243D01*
X3224686Y2009000D01*
X3225928Y2002757D01*
X3229465Y1997465D01*
X3234757Y1993928D01*
X3241000Y1992687D01*
X3247243Y1993928D01*
X3252535Y1997465D01*
X3256072Y2002757D01*
X3257314Y2009000D01*
X3257017Y2010491D01*
X3266233Y2015417D01*
X3279196Y2002454D01*
Y1949546D01*
X3264454Y1934804D01*
X3224563D01*
X3222000Y1935313D01*
X3215757Y1934072D01*
X3210465Y1930535D01*
X3206928Y1925243D01*
X3205686Y1919000D01*
X3206928Y1912757D01*
X3210465Y1907465D01*
X3215757Y1903928D01*
X3222000Y1902687D01*
X3224563Y1903196D01*
X3271000D01*
X3277048Y1904399D01*
X3282175Y1907825D01*
X3306175Y1931825D01*
X3309601Y1936952D01*
X3310804Y1943000D01*
Y2009000D01*
X3309601Y2015048D01*
X3306175Y2020175D01*
X3254987Y2071363D01*
X3253535Y2073535D01*
X3248243Y2077072D01*
X3242000Y2078314D01*
D02*
G37*
G36*
X3017000Y2044313D02*
X3010757Y2043072D01*
X3005465Y2039535D01*
X3001928Y2034243D01*
X3000686Y2028000D01*
X3001928Y2021757D01*
X3005465Y2016465D01*
X3010757Y2012928D01*
X3017000Y2011687D01*
X3023243Y2012928D01*
X3028535Y2016465D01*
X3032072Y2021757D01*
X3033314Y2028000D01*
X3032072Y2034243D01*
X3028535Y2039535D01*
X3023243Y2043072D01*
X3017000Y2044313D01*
D02*
G37*
G36*
X805000Y2012313D02*
X798757Y2011072D01*
X793465Y2007535D01*
X789928Y2002243D01*
X788687Y1996000D01*
X789928Y1989757D01*
X793465Y1984465D01*
X798757Y1980928D01*
X805000Y1979687D01*
X811243Y1980928D01*
X816535Y1984465D01*
X820072Y1989757D01*
X821313Y1996000D01*
X820072Y2002243D01*
X816535Y2007535D01*
X811243Y2011072D01*
X805000Y2012313D01*
D02*
G37*
G36*
X3074000Y1950313D02*
X3067757Y1949072D01*
X3062465Y1945535D01*
X3058928Y1940243D01*
X3057686Y1934000D01*
X3058928Y1927757D01*
X3062465Y1922465D01*
X3067757Y1918928D01*
X3074000Y1917687D01*
X3080243Y1918928D01*
X3085535Y1922465D01*
X3089072Y1927757D01*
X3090314Y1934000D01*
X3089072Y1940243D01*
X3085535Y1945535D01*
X3080243Y1949072D01*
X3074000Y1950313D01*
D02*
G37*
G36*
X3761000Y1939313D02*
X3754757Y1938072D01*
X3749465Y1934535D01*
X3745928Y1929243D01*
X3744686Y1923000D01*
X3745928Y1916757D01*
X3749465Y1911465D01*
X3754757Y1907928D01*
X3761000Y1906687D01*
X3767243Y1907928D01*
X3772535Y1911465D01*
X3776072Y1916757D01*
X3777314Y1923000D01*
X3776072Y1929243D01*
X3772535Y1934535D01*
X3767243Y1938072D01*
X3761000Y1939313D01*
D02*
G37*
G36*
X3690000D02*
X3683757Y1938072D01*
X3678465Y1934535D01*
X3674928Y1929243D01*
X3673686Y1923000D01*
X3674928Y1916757D01*
X3678465Y1911465D01*
X3683757Y1907928D01*
X3690000Y1906687D01*
X3696243Y1907928D01*
X3701535Y1911465D01*
X3705072Y1916757D01*
X3706314Y1923000D01*
X3705072Y1929243D01*
X3701535Y1934535D01*
X3696243Y1938072D01*
X3690000Y1939313D01*
D02*
G37*
G36*
X3622000D02*
X3615757Y1938072D01*
X3610465Y1934535D01*
X3606928Y1929243D01*
X3605686Y1923000D01*
X3606928Y1916757D01*
X3610465Y1911465D01*
X3615757Y1907928D01*
X3622000Y1906687D01*
X3628243Y1907928D01*
X3633535Y1911465D01*
X3637072Y1916757D01*
X3638314Y1923000D01*
X3637072Y1929243D01*
X3633535Y1934535D01*
X3628243Y1938072D01*
X3622000Y1939313D01*
D02*
G37*
G36*
X2941000Y1931313D02*
X2934757Y1930072D01*
X2929465Y1926535D01*
X2925928Y1921243D01*
X2924686Y1915000D01*
X2925928Y1908757D01*
X2929465Y1903465D01*
X2934757Y1899928D01*
X2941000Y1898687D01*
X2947243Y1899928D01*
X2952535Y1903465D01*
X2956072Y1908757D01*
X2957314Y1915000D01*
X2956072Y1921243D01*
X2952535Y1926535D01*
X2947243Y1930072D01*
X2941000Y1931313D01*
D02*
G37*
G36*
X2806000Y1925313D02*
X2799757Y1924072D01*
X2794465Y1920535D01*
X2790928Y1915243D01*
X2789686Y1909000D01*
X2790928Y1902757D01*
X2794465Y1897465D01*
X2799757Y1893928D01*
X2806000Y1892687D01*
X2812243Y1893928D01*
X2817535Y1897465D01*
X2821072Y1902757D01*
X2822314Y1909000D01*
X2821072Y1915243D01*
X2817535Y1920535D01*
X2812243Y1924072D01*
X2806000Y1925313D01*
D02*
G37*
G36*
X3610000Y1808313D02*
X3603757Y1807072D01*
X3598465Y1803535D01*
X3594928Y1798243D01*
X3593686Y1792000D01*
X3594928Y1785757D01*
X3598465Y1780465D01*
X3603757Y1776928D01*
X3610000Y1775687D01*
X3616243Y1776928D01*
X3621535Y1780465D01*
X3625072Y1785757D01*
X3626314Y1792000D01*
X3625072Y1798243D01*
X3621535Y1803535D01*
X3616243Y1807072D01*
X3610000Y1808313D01*
D02*
G37*
G36*
X3084000Y1770313D02*
X3077757Y1769072D01*
X3072465Y1765535D01*
X3068928Y1760243D01*
X3067686Y1754000D01*
X3068928Y1747757D01*
X3072465Y1742465D01*
X3077757Y1738928D01*
X3084000Y1737687D01*
X3090243Y1738928D01*
X3095535Y1742465D01*
X3099072Y1747757D01*
X3100314Y1754000D01*
X3099072Y1760243D01*
X3095535Y1765535D01*
X3090243Y1769072D01*
X3084000Y1770313D01*
D02*
G37*
G36*
X70000Y1724851D02*
X60203Y1723562D01*
X51074Y1719780D01*
X43235Y1713765D01*
X37220Y1705926D01*
X33438Y1696797D01*
X32149Y1687000D01*
X33438Y1677203D01*
X37220Y1668074D01*
X43235Y1660235D01*
X51074Y1654220D01*
X60203Y1650438D01*
X70000Y1649149D01*
X79797Y1650438D01*
X88926Y1654220D01*
X96765Y1660235D01*
X102780Y1668074D01*
X106561Y1677203D01*
X107851Y1687000D01*
X106561Y1696797D01*
X102780Y1705926D01*
X96765Y1713765D01*
X88926Y1719780D01*
X79797Y1723562D01*
X70000Y1724851D01*
D02*
G37*
G36*
X3713000Y1570313D02*
X3706757Y1569072D01*
X3701465Y1565535D01*
X3697928Y1560243D01*
X3696686Y1554000D01*
X3697928Y1547757D01*
X3701465Y1542465D01*
X3706757Y1538928D01*
X3713000Y1537687D01*
X3719243Y1538928D01*
X3724535Y1542465D01*
X3728072Y1547757D01*
X3729314Y1554000D01*
X3728072Y1560243D01*
X3724535Y1565535D01*
X3719243Y1569072D01*
X3713000Y1570313D01*
D02*
G37*
G36*
X264000Y1538500D02*
Y1515000D01*
X288000D01*
Y1538500D01*
X264000D01*
D02*
G37*
G36*
X288000Y1505000D02*
X264000D01*
Y1481500D01*
X288000D01*
Y1505000D01*
D02*
G37*
G36*
X3598000Y1411313D02*
X3591757Y1410072D01*
X3586465Y1406535D01*
X3582928Y1401243D01*
X3581686Y1395000D01*
X3582928Y1388757D01*
X3586465Y1383465D01*
X3591757Y1379928D01*
X3598000Y1378687D01*
X3604243Y1379928D01*
X3609535Y1383465D01*
X3613072Y1388757D01*
X3614314Y1395000D01*
X3613072Y1401243D01*
X3609535Y1406535D01*
X3604243Y1410072D01*
X3598000Y1411313D01*
D02*
G37*
G36*
X2125000Y1340313D02*
X2118757Y1339072D01*
X2113465Y1335535D01*
X2109928Y1330243D01*
X2108686Y1324000D01*
X2109928Y1317757D01*
X2113465Y1312465D01*
X2118757Y1308928D01*
X2125000Y1307687D01*
X2131243Y1308928D01*
X2136535Y1312465D01*
X2140072Y1317757D01*
X2141314Y1324000D01*
X2140072Y1330243D01*
X2136535Y1335535D01*
X2131243Y1339072D01*
X2125000Y1340313D01*
D02*
G37*
G36*
X1435000Y1324313D02*
X1428757Y1323072D01*
X1423465Y1319535D01*
X1419928Y1314243D01*
X1418687Y1308000D01*
X1419928Y1301757D01*
X1423465Y1296465D01*
X1428757Y1292928D01*
X1435000Y1291687D01*
X1441243Y1292928D01*
X1446535Y1296465D01*
X1450072Y1301757D01*
X1451313Y1308000D01*
X1450072Y1314243D01*
X1446535Y1319535D01*
X1441243Y1323072D01*
X1435000Y1324313D01*
D02*
G37*
G36*
X502039Y1395798D02*
Y1291000D01*
X557330D01*
Y1336000D01*
X556171Y1347762D01*
X552740Y1359072D01*
X547169Y1369495D01*
X539671Y1378632D01*
X530535Y1386130D01*
X520111Y1391701D01*
X508801Y1395132D01*
X502039Y1395798D01*
D02*
G37*
G36*
X492039D02*
X485277Y1395132D01*
X473967Y1391701D01*
X463544Y1386130D01*
X454408Y1378632D01*
X446910Y1369495D01*
X441338Y1359072D01*
X437908Y1347762D01*
X436749Y1336000D01*
Y1291000D01*
X492039D01*
Y1395798D01*
D02*
G37*
G36*
X2059000Y1289313D02*
X2052757Y1288072D01*
X2047465Y1284535D01*
X2043928Y1279243D01*
X2042687Y1273000D01*
X2043928Y1266757D01*
X2047465Y1261465D01*
X2052757Y1257928D01*
X2059000Y1256687D01*
X2065243Y1257928D01*
X2070535Y1261465D01*
X2074072Y1266757D01*
X2075314Y1273000D01*
X2074072Y1279243D01*
X2070535Y1284535D01*
X2065243Y1288072D01*
X2059000Y1289313D01*
D02*
G37*
G36*
X1603000Y1287313D02*
X1596757Y1286072D01*
X1591465Y1282535D01*
X1587928Y1277243D01*
X1586687Y1271000D01*
X1587928Y1264757D01*
X1591465Y1259465D01*
X1596757Y1255928D01*
X1603000Y1254687D01*
X1609243Y1255928D01*
X1614535Y1259465D01*
X1618072Y1264757D01*
X1619313Y1271000D01*
X1618072Y1277243D01*
X1614535Y1282535D01*
X1609243Y1286072D01*
X1603000Y1287313D01*
D02*
G37*
G36*
X3826000Y1346000D02*
X3730000D01*
Y1250000D01*
X3826000D01*
Y1346000D01*
D02*
G37*
G36*
X1042315Y1419411D02*
X1021445Y1417769D01*
X1001089Y1412882D01*
X981747Y1404870D01*
X963898Y1393932D01*
X947979Y1380336D01*
X934383Y1364417D01*
X923445Y1346568D01*
X915433Y1327226D01*
X910546Y1306870D01*
X908904Y1286000D01*
X910546Y1265130D01*
X915433Y1244774D01*
X923445Y1225432D01*
X934383Y1207583D01*
X947979Y1191664D01*
X963898Y1178068D01*
X981747Y1167130D01*
X1001089Y1159118D01*
X1021445Y1154231D01*
X1042315Y1152589D01*
X1063185Y1154231D01*
X1083541Y1159118D01*
X1102882Y1167130D01*
X1120732Y1178068D01*
X1136651Y1191664D01*
X1150247Y1207583D01*
X1161185Y1225432D01*
X1169197Y1244774D01*
X1174084Y1265130D01*
X1175726Y1286000D01*
X1174084Y1306870D01*
X1169197Y1327226D01*
X1161185Y1346568D01*
X1150247Y1364417D01*
X1136651Y1380336D01*
X1120732Y1393932D01*
X1102882Y1404870D01*
X1083541Y1412882D01*
X1063185Y1417769D01*
X1042315Y1419411D01*
D02*
G37*
G36*
X1859000Y1167313D02*
X1852757Y1166072D01*
X1847465Y1162535D01*
X1843928Y1157243D01*
X1842687Y1151000D01*
X1843928Y1144757D01*
X1847465Y1139465D01*
X1852757Y1135928D01*
X1859000Y1134687D01*
X1865243Y1135928D01*
X1870535Y1139465D01*
X1874072Y1144757D01*
X1875313Y1151000D01*
X1874072Y1157243D01*
X1870535Y1162535D01*
X1865243Y1166072D01*
X1859000Y1167313D01*
D02*
G37*
G36*
X1447000Y1127313D02*
X1440757Y1126072D01*
X1435465Y1122535D01*
X1431928Y1117243D01*
X1430687Y1111000D01*
X1431928Y1104757D01*
X1435465Y1099465D01*
X1440757Y1095928D01*
X1447000Y1094687D01*
X1453243Y1095928D01*
X1458535Y1099465D01*
X1462072Y1104757D01*
X1463313Y1111000D01*
X1462072Y1117243D01*
X1458535Y1122535D01*
X1453243Y1126072D01*
X1447000Y1127313D01*
D02*
G37*
G36*
X554000Y1066313D02*
X547757Y1065072D01*
X542465Y1061535D01*
X538928Y1056243D01*
X537687Y1050000D01*
X538928Y1043757D01*
X542465Y1038465D01*
X547757Y1034928D01*
X554000Y1033687D01*
X560243Y1034928D01*
X565535Y1038465D01*
X569072Y1043757D01*
X570313Y1050000D01*
X569072Y1056243D01*
X565535Y1061535D01*
X560243Y1065072D01*
X554000Y1066313D01*
D02*
G37*
G36*
X2130269Y1024092D02*
X2124026Y1022850D01*
X2118734Y1019313D01*
X2115198Y1014021D01*
X2113956Y1007778D01*
X2115198Y1001535D01*
X2118734Y996243D01*
X2124026Y992706D01*
X2130269Y991465D01*
X2136512Y992706D01*
X2139232Y994523D01*
X2172757D01*
X2173465Y993465D01*
X2178757Y989928D01*
X2185000Y988687D01*
X2191243Y989928D01*
X2196535Y993465D01*
X2200072Y998757D01*
X2201314Y1005000D01*
X2200072Y1011243D01*
X2196535Y1016535D01*
X2191243Y1020072D01*
X2185000Y1021313D01*
X2182905Y1020897D01*
X2182222Y1021033D01*
X2139232D01*
X2136512Y1022850D01*
X2130269Y1024092D01*
D02*
G37*
G36*
X107528Y713528D02*
X32472D01*
Y638472D01*
X107528D01*
Y713528D01*
D02*
G37*
G36*
X3149000Y629313D02*
X3142757Y628072D01*
X3137465Y624535D01*
X3133928Y619243D01*
X3132686Y613000D01*
X3133928Y606757D01*
X3137465Y601465D01*
X3142757Y597928D01*
X3149000Y596687D01*
X3155243Y597928D01*
X3160535Y601465D01*
X3164072Y606757D01*
X3165314Y613000D01*
X3164072Y619243D01*
X3160535Y624535D01*
X3155243Y628072D01*
X3149000Y629313D01*
D02*
G37*
G36*
X1880000Y488313D02*
X1873757Y487072D01*
X1868465Y483535D01*
X1864928Y478243D01*
X1863687Y472000D01*
X1864928Y465757D01*
X1868465Y460465D01*
X1873757Y456928D01*
X1880000Y455687D01*
X1886243Y456928D01*
X1888962Y458745D01*
X2310510D01*
X2474290Y294965D01*
X2474928Y291757D01*
X2478465Y286465D01*
X2483757Y282928D01*
X2490000Y281687D01*
X2496243Y282928D01*
X2501535Y286465D01*
X2505072Y291757D01*
X2506314Y298000D01*
X2505072Y304243D01*
X2501535Y309535D01*
X2496243Y313072D01*
X2493035Y313710D01*
X2325372Y481373D01*
X2321072Y484246D01*
X2316000Y485255D01*
X1888962D01*
X1886243Y487072D01*
X1880000Y488313D01*
D02*
G37*
G36*
X2703000Y790313D02*
X2696757Y789072D01*
X2691465Y785535D01*
X2687928Y780243D01*
X2687290Y777035D01*
X2564510Y654255D01*
X1553000D01*
X1547928Y653246D01*
X1543628Y650372D01*
X1458628Y565372D01*
X1455754Y561072D01*
X1454745Y556000D01*
Y413962D01*
X1452928Y411243D01*
X1451687Y405000D01*
X1452928Y398757D01*
X1456465Y393465D01*
X1461757Y389928D01*
X1468000Y388687D01*
X1474243Y389928D01*
X1479535Y393465D01*
X1483072Y398757D01*
X1484313Y405000D01*
X1483072Y411243D01*
X1481255Y413962D01*
Y550510D01*
X1558490Y627745D01*
X1621319D01*
X1624352Y617745D01*
X1620697Y615303D01*
X1615392Y607364D01*
X1613530Y598000D01*
X1615392Y588636D01*
X1620697Y580697D01*
X1628636Y575393D01*
X1638000Y573530D01*
X1642775Y574480D01*
X1931628Y285627D01*
X1935928Y282754D01*
X1941000Y281745D01*
X2277038D01*
X2279757Y279928D01*
X2286000Y278687D01*
X2292243Y279928D01*
X2297535Y283465D01*
X2301072Y288757D01*
X2302314Y295000D01*
X2301072Y301243D01*
X2297535Y306535D01*
X2292243Y310072D01*
X2286000Y311313D01*
X2279757Y310072D01*
X2277038Y308255D01*
X1946490D01*
X1661520Y593225D01*
X1662470Y598000D01*
X1660608Y607364D01*
X1655303Y615303D01*
X1651648Y617745D01*
X1654681Y627745D01*
X2570000D01*
X2575072Y628754D01*
X2579372Y631628D01*
X2706035Y758290D01*
X2709243Y758928D01*
X2714535Y762465D01*
X2718072Y767757D01*
X2719314Y774000D01*
X2718072Y780243D01*
X2714535Y785535D01*
X2709243Y789072D01*
X2703000Y790313D01*
D02*
G37*
G36*
X1439176Y289439D02*
X1432934Y288197D01*
X1427641Y284661D01*
X1424105Y279368D01*
X1422863Y273125D01*
X1424105Y266882D01*
X1427641Y261590D01*
X1432934Y258054D01*
X1439176Y256812D01*
X1445419Y258054D01*
X1450712Y261590D01*
X1454248Y266882D01*
X1455490Y273125D01*
X1454248Y279368D01*
X1450712Y284661D01*
X1445419Y288197D01*
X1439176Y289439D01*
D02*
G37*
G36*
X2385000Y270313D02*
X2378757Y269072D01*
X2373465Y265535D01*
X2372838Y264598D01*
X2371004Y263373D01*
X2362886Y255255D01*
X2256962D01*
X2254243Y257072D01*
X2248000Y258313D01*
X2241757Y257072D01*
X2236465Y253535D01*
X2232928Y248243D01*
X2231686Y242000D01*
X2232928Y235757D01*
X2236465Y230465D01*
X2241757Y226928D01*
X2248000Y225686D01*
X2254243Y226928D01*
X2256962Y228745D01*
X2368376D01*
X2373449Y229754D01*
X2377749Y232627D01*
X2383172Y238050D01*
X2385000Y237686D01*
X2391243Y238928D01*
X2396535Y242465D01*
X2400072Y247757D01*
X2401314Y254000D01*
X2400072Y260243D01*
X2396535Y265535D01*
X2391243Y269072D01*
X2385000Y270313D01*
D02*
G37*
G36*
X3186000Y228329D02*
X3172670Y227016D01*
X3159852Y223128D01*
X3148038Y216814D01*
X3137684Y208316D01*
X3129186Y197962D01*
X3122872Y186148D01*
X3118984Y173330D01*
X3117671Y160000D01*
X3118984Y146670D01*
X3122872Y133852D01*
X3129186Y122038D01*
X3137684Y111684D01*
X3148038Y103186D01*
X3159852Y96872D01*
X3172670Y92984D01*
X3186000Y91671D01*
X3199330Y92984D01*
X3212148Y96872D01*
X3223962Y103186D01*
X3234316Y111684D01*
X3242814Y122038D01*
X3249128Y133852D01*
X3253016Y146670D01*
X3254329Y160000D01*
X3253016Y173330D01*
X3249128Y186148D01*
X3242814Y197962D01*
X3234316Y208316D01*
X3223962Y216814D01*
X3212148Y223128D01*
X3199330Y227016D01*
X3186000Y228329D01*
D02*
G37*
G36*
X659000D02*
X645670Y227016D01*
X632852Y223128D01*
X621038Y216814D01*
X610684Y208316D01*
X602187Y197962D01*
X595872Y186148D01*
X591984Y173330D01*
X590671Y160000D01*
X591984Y146670D01*
X595872Y133852D01*
X602187Y122038D01*
X610684Y111684D01*
X621038Y103186D01*
X632852Y96872D01*
X645670Y92984D01*
X659000Y91671D01*
X672330Y92984D01*
X685148Y96872D01*
X696962Y103186D01*
X707316Y111684D01*
X715813Y122038D01*
X722128Y133852D01*
X726016Y146670D01*
X727329Y160000D01*
X726016Y173330D01*
X722128Y186148D01*
X715813Y197962D01*
X707316Y208316D01*
X696962Y216814D01*
X685148Y223128D01*
X672330Y227016D01*
X659000Y228329D01*
D02*
G37*
G36*
X2896000Y1536313D02*
X2889757Y1535072D01*
X2884465Y1531535D01*
X2880928Y1526243D01*
X2879686Y1520000D01*
X2880928Y1513757D01*
X2884465Y1508465D01*
X2889757Y1504928D01*
X2896000Y1503687D01*
X2902243Y1504928D01*
X2907535Y1508465D01*
X2911072Y1513757D01*
X2912314Y1520000D01*
X2911072Y1526243D01*
X2907535Y1531535D01*
X2902243Y1535072D01*
X2896000Y1536313D01*
D02*
G37*
G36*
X3024000Y1535313D02*
X3017757Y1534072D01*
X3012465Y1530535D01*
X3008928Y1525243D01*
X3007686Y1519000D01*
X3008928Y1512757D01*
X3012465Y1507465D01*
X3017757Y1503928D01*
X3024000Y1502687D01*
X3030243Y1503928D01*
X3035535Y1507465D01*
X3039072Y1512757D01*
X3040314Y1519000D01*
X3039072Y1525243D01*
X3035535Y1530535D01*
X3030243Y1534072D01*
X3024000Y1535313D01*
D02*
G37*
G36*
X3305000Y1439313D02*
X3298757Y1438072D01*
X3293465Y1434535D01*
X3289928Y1429243D01*
X3288686Y1423000D01*
X3289928Y1416757D01*
X3293465Y1411465D01*
X3298757Y1407928D01*
X3305000Y1406687D01*
X3311243Y1407928D01*
X3316535Y1411465D01*
X3320072Y1416757D01*
X3321314Y1423000D01*
X3320072Y1429243D01*
X3316535Y1434535D01*
X3311243Y1438072D01*
X3305000Y1439313D01*
D02*
G37*
G36*
X3241000D02*
X3234757Y1438072D01*
X3229465Y1434535D01*
X3225928Y1429243D01*
X3224686Y1423000D01*
X3225928Y1416757D01*
X3229465Y1411465D01*
X3234757Y1407928D01*
X3241000Y1406687D01*
X3247243Y1407928D01*
X3252535Y1411465D01*
X3256072Y1416757D01*
X3257314Y1423000D01*
X3256072Y1429243D01*
X3252535Y1434535D01*
X3247243Y1438072D01*
X3241000Y1439313D01*
D02*
G37*
G36*
X3567000Y1258313D02*
X3560757Y1257072D01*
X3555465Y1253535D01*
X3551928Y1248243D01*
X3550686Y1242000D01*
X3551928Y1235757D01*
X3555465Y1230465D01*
X3560757Y1226928D01*
X3567000Y1225687D01*
X3573243Y1226928D01*
X3578535Y1230465D01*
X3582072Y1235757D01*
X3583314Y1242000D01*
X3582072Y1248243D01*
X3578535Y1253535D01*
X3573243Y1257072D01*
X3567000Y1258313D01*
D02*
G37*
G36*
X3628000Y1257313D02*
X3621757Y1256072D01*
X3616465Y1252535D01*
X3612928Y1247243D01*
X3611686Y1241000D01*
X3612928Y1234757D01*
X3616465Y1229465D01*
X3621757Y1225928D01*
X3628000Y1224687D01*
X3634243Y1225928D01*
X3639535Y1229465D01*
X3643072Y1234757D01*
X3644314Y1241000D01*
X3643072Y1247243D01*
X3639535Y1252535D01*
X3634243Y1256072D01*
X3628000Y1257313D01*
D02*
G37*
G36*
X3376961Y1394281D02*
X3365591Y1393161D01*
X3354658Y1389844D01*
X3344582Y1384458D01*
X3335750Y1377211D01*
X3328502Y1368379D01*
X3323116Y1358303D01*
X3319800Y1347370D01*
X3318680Y1336000D01*
Y1236000D01*
X3319800Y1224630D01*
X3323116Y1213697D01*
X3328502Y1203621D01*
X3335750Y1194789D01*
X3344582Y1187542D01*
X3354658Y1182156D01*
X3365591Y1178839D01*
X3376961Y1177719D01*
X3388331Y1178839D01*
X3399264Y1182156D01*
X3409340Y1187542D01*
X3418171Y1194789D01*
X3425419Y1203621D01*
X3430805Y1213697D01*
X3434121Y1224630D01*
X3435241Y1236000D01*
Y1336000D01*
X3434121Y1347370D01*
X3430805Y1358303D01*
X3425419Y1368379D01*
X3418171Y1377211D01*
X3409340Y1384458D01*
X3399264Y1389844D01*
X3388331Y1393161D01*
X3376961Y1394281D01*
D02*
G37*
G36*
X3623000Y1023313D02*
X3616757Y1022072D01*
X3611465Y1018535D01*
X3607928Y1013243D01*
X3606686Y1007000D01*
X3607928Y1000757D01*
X3611465Y995465D01*
X3616757Y991928D01*
X3623000Y990687D01*
X3629243Y991928D01*
X3634535Y995465D01*
X3638072Y1000757D01*
X3639314Y1007000D01*
X3638072Y1013243D01*
X3634535Y1018535D01*
X3629243Y1022072D01*
X3623000Y1023313D01*
D02*
G37*
%LPD*%
D37*
X259000Y1510000D02*
D03*
X200000D02*
D03*
D42*
X381638Y1232819D02*
X441597Y1172860D01*
X228496Y1232819D02*
X381638D01*
X228496D02*
X238977Y1222338D01*
X709000Y1329378D02*
Y1476000D01*
X1019000D01*
X2223860Y1549860D02*
X2245000Y1571000D01*
X1453394Y1549860D02*
X2223860D01*
X1138140Y1595140D02*
X1408114D01*
X1019000Y1476000D02*
X1138140Y1595140D01*
X1408114D02*
X1453394Y1549860D01*
X552482Y1172860D02*
X709000Y1329378D01*
X441597Y1172860D02*
X552482D01*
D43*
X2570000Y641000D02*
X2703000Y774000D01*
X1553000Y641000D02*
X2570000D01*
X325473Y1260000D02*
X328325Y1257148D01*
X300502Y1260000D02*
X325473D01*
X269316Y1261283D02*
X270237Y1262205D01*
X298297D01*
X231370Y1261283D02*
X269316D01*
X298297Y1262205D02*
X300502Y1260000D01*
X228496Y1258409D02*
X231370Y1261283D01*
X325473Y1278000D02*
X328325Y1280852D01*
X307957Y1278000D02*
X325473D01*
X231370Y1281126D02*
X269316D01*
X270237Y1280205D02*
X305753D01*
X228496Y1284000D02*
X231370Y1281126D01*
X269316D02*
X270237Y1280205D01*
X305753D02*
X307957Y1278000D01*
X2368376Y242000D02*
X2380376Y254000D01*
X2385000D01*
X2248000Y242000D02*
X2368376D01*
X2130269Y1007778D02*
X2182222D01*
X2185000Y1005000D01*
X2745000Y1886000D02*
X2940000Y1691000D01*
X1679000Y1886000D02*
X2745000D01*
X1506772Y1762228D02*
X1513686Y1769142D01*
X3647698Y762000D02*
X3817000Y931302D01*
X3076000Y762000D02*
X3647698D01*
X3047000Y791000D02*
X3076000Y762000D01*
X1775000Y864000D02*
X2266000Y1355000D01*
X1775000Y731000D02*
Y864000D01*
X1468000Y556000D02*
X1553000Y641000D01*
X2022000Y1710000D02*
X2045973Y1733973D01*
X2061852D01*
X2063000Y1735121D01*
X2086315Y1728738D02*
Y1759000D01*
X2071698Y1714121D02*
X2086315Y1728738D01*
X2055595Y1714121D02*
X2071698D01*
X2040000Y1698527D02*
X2055595Y1714121D01*
X2040000Y1679473D02*
Y1698527D01*
Y1679473D02*
X2072362Y1647111D01*
X2264901D01*
X2064072Y1781243D02*
X2086315Y1759000D01*
X2264901Y1647111D02*
X2972012Y940000D01*
X1521142Y1751142D02*
X2046494D01*
X2062515Y1735121D01*
X2063000D01*
X2072033Y1689000D02*
X2181033Y1798000D01*
X2063000Y1689000D02*
X2072033D01*
X2777846Y1798000D02*
X2924846Y1651000D01*
X3248000D02*
X3275000Y1624000D01*
X2924846Y1651000D02*
X3248000D01*
X2181033Y1798000D02*
X2777846D01*
X3259698Y1669000D02*
X3817000Y1111698D01*
X2932302Y1669000D02*
X3259698D01*
X2907713Y1693589D02*
X2932302Y1669000D01*
X1502000Y1767000D02*
X1506772Y1762228D01*
X2266000Y1355000D02*
Y1579698D01*
X1485000Y2039000D02*
X1638000Y1886000D01*
X1069000Y2039000D02*
X1485000D01*
X1258000Y1054000D02*
Y1167000D01*
X1034000Y830000D02*
X1258000Y1054000D01*
Y1469835D02*
X1360000Y1571835D01*
X1258000Y1167000D02*
Y1469835D01*
X1209000Y1042000D02*
Y1224000D01*
X1023000Y856000D02*
X1209000Y1042000D01*
X49000Y830000D02*
X1034000D01*
X24000Y855000D02*
X49000Y830000D01*
X24000Y855000D02*
Y930000D01*
X70000Y976000D01*
X92729Y856000D02*
X1023000D01*
X1468000Y405000D02*
Y556000D01*
X184205Y1408795D02*
X185000Y1408000D01*
X184205Y1408795D02*
Y1437543D01*
X200000Y1453338D01*
Y1510000D01*
X107433Y1381441D02*
X117276Y1391284D01*
X107433Y1321894D02*
Y1381441D01*
Y1246106D02*
Y1321894D01*
X224756Y1176716D02*
X236567Y1188528D01*
X117276Y1176716D02*
X224756D01*
X107433Y1246106D02*
X117276Y1236264D01*
Y1176716D02*
Y1236264D01*
X231370Y1369370D02*
X241000Y1379000D01*
X225039Y1391000D02*
X229000D01*
X194008D02*
X225039D01*
X229000D02*
X241000Y1379000D01*
X228496Y1335181D02*
X231370Y1338055D01*
Y1369370D01*
X225039Y1391000D02*
X236567Y1379472D01*
X2972012Y940000D02*
X3796000D01*
X1513686Y1769142D02*
X1992142D01*
X2039000Y1816000D01*
X2787162D01*
X2907713Y1695449D01*
X1502000Y1732000D02*
X1521142Y1751142D01*
X1457908Y1571000D02*
X1502000D01*
X1460189Y1605000D02*
X1502000D01*
X1447189Y1618000D02*
X1460189Y1605000D01*
X72729Y876000D02*
X92729Y856000D01*
X1360000Y1571835D02*
Y1574000D01*
X3817000Y931302D02*
Y1111698D01*
X70000Y876000D02*
X72729D01*
X1532000Y1952000D02*
X1599000Y1885000D01*
X1353000Y1952000D02*
X1532000D01*
X2022000Y1672017D02*
Y1710000D01*
Y1672017D02*
X2068159Y1625858D01*
X2907713Y1693589D02*
Y1695449D01*
X2219840Y1625858D02*
X2266000Y1579698D01*
X2068159Y1625858D02*
X2219840D01*
X1202230Y1887000D02*
X1453230Y1636000D01*
X1445775Y1618000D02*
X1447189D01*
X1334908Y1694000D02*
X1457908Y1571000D01*
X669000Y1694000D02*
X1334908D01*
X1276775Y1787000D02*
X1445775Y1618000D01*
X84000Y1887000D02*
X1202230D01*
X1453230Y1636000D02*
X1503000D01*
X84000Y1787000D02*
X1276775D01*
X1456000Y1670000D02*
X1502000D01*
X1455000Y1671000D02*
X1456000Y1670000D01*
X1941000Y295000D02*
X2286000D01*
X1638000Y598000D02*
X1941000Y295000D01*
X2316000Y472000D02*
X2490000Y298000D01*
X1880000Y472000D02*
X2316000D01*
D45*
X3222000Y1919000D02*
X3271000D01*
X3295000Y1943000D01*
Y2009000D01*
X3242000Y2062000D02*
X3295000Y2009000D01*
D48*
X2831685Y1286000D02*
D03*
X1042315D02*
D03*
D49*
X497039D02*
D03*
X3376961D02*
D03*
D50*
X3778000Y1298000D02*
D03*
D51*
X117276Y1391284D02*
D03*
Y1176716D02*
D03*
D52*
X236567Y1379472D02*
D03*
Y1188528D02*
D03*
D53*
X70000Y976000D02*
D03*
Y776000D02*
D03*
Y876000D02*
D03*
Y1787000D02*
D03*
Y1687000D02*
D03*
Y1887000D02*
D03*
D54*
Y676000D02*
D03*
Y1587000D02*
D03*
D55*
X659000Y2419000D02*
D03*
X3186000Y160000D02*
D03*
X659000D02*
D03*
X3186000Y2419000D02*
D03*
D56*
X3600000Y2000000D02*
D03*
Y800000D02*
D03*
Y600000D02*
D03*
X3400000Y800000D02*
D03*
Y600000D02*
D03*
X3200000Y2200000D02*
D03*
Y2000000D02*
D03*
Y800000D02*
D03*
Y600000D02*
D03*
Y400000D02*
D03*
X3000000Y2000000D02*
D03*
Y1800000D02*
D03*
Y800000D02*
D03*
Y600000D02*
D03*
Y400000D02*
D03*
Y200000D02*
D03*
X2800000Y1000000D02*
D03*
Y600000D02*
D03*
Y400000D02*
D03*
X2600000Y2000000D02*
D03*
Y1000000D02*
D03*
Y800000D02*
D03*
Y600000D02*
D03*
Y400000D02*
D03*
X2400000Y1600000D02*
D03*
Y1200000D02*
D03*
Y1000000D02*
D03*
Y800000D02*
D03*
Y600000D02*
D03*
X2200000Y800000D02*
D03*
Y600000D02*
D03*
Y400000D02*
D03*
X2000000Y800000D02*
D03*
Y400000D02*
D03*
Y200000D02*
D03*
X1800000Y2000000D02*
D03*
Y1400000D02*
D03*
Y800000D02*
D03*
Y600000D02*
D03*
Y400000D02*
D03*
Y200000D02*
D03*
X1600000Y2000000D02*
D03*
Y1600000D02*
D03*
Y1400000D02*
D03*
Y1000000D02*
D03*
Y400000D02*
D03*
X1400000Y1400000D02*
D03*
Y1000000D02*
D03*
Y800000D02*
D03*
Y600000D02*
D03*
Y200000D02*
D03*
X1200000Y2000000D02*
D03*
Y1400000D02*
D03*
Y800000D02*
D03*
Y600000D02*
D03*
Y400000D02*
D03*
Y200000D02*
D03*
X1000000Y1600000D02*
D03*
Y800000D02*
D03*
Y600000D02*
D03*
Y400000D02*
D03*
Y200000D02*
D03*
X800000Y2400000D02*
D03*
Y2200000D02*
D03*
Y1600000D02*
D03*
Y1400000D02*
D03*
Y1200000D02*
D03*
Y1000000D02*
D03*
Y800000D02*
D03*
Y600000D02*
D03*
Y400000D02*
D03*
Y200000D02*
D03*
X600000Y2200000D02*
D03*
Y2000000D02*
D03*
Y1600000D02*
D03*
Y1400000D02*
D03*
Y1000000D02*
D03*
Y800000D02*
D03*
Y600000D02*
D03*
Y400000D02*
D03*
X400000Y2000000D02*
D03*
Y1600000D02*
D03*
Y1000000D02*
D03*
Y800000D02*
D03*
Y600000D02*
D03*
X200000Y2000000D02*
D03*
Y1600000D02*
D03*
Y1000000D02*
D03*
Y800000D02*
D03*
Y600000D02*
D03*
D57*
X2975650Y2457872D02*
D03*
X2933073Y2408717D02*
D03*
X2933806Y2382727D02*
D03*
X2944092Y2358849D02*
D03*
Y2332849D02*
D03*
Y2306849D02*
D03*
Y2280849D02*
D03*
X2935958Y2256154D02*
D03*
X2917573Y2237769D02*
D03*
X2899188Y2219384D02*
D03*
X2880803Y2200999D02*
D03*
X2838725Y2171908D02*
D03*
X2812725D02*
D03*
X2786725D02*
D03*
X2760725D02*
D03*
X2734725D02*
D03*
X2708725D02*
D03*
X2682725D02*
D03*
X2656725D02*
D03*
X2630729Y2171482D02*
D03*
X2607355Y2160095D02*
D03*
X2588970Y2141710D02*
D03*
X2570586Y2123326D02*
D03*
X2552201Y2104941D02*
D03*
X2533816Y2086556D02*
D03*
X2515431Y2068171D02*
D03*
X2497046Y2049787D02*
D03*
X2475606Y2035080D02*
D03*
X2449606D02*
D03*
X2423606D02*
D03*
X2397606D02*
D03*
X2371606D02*
D03*
X2345606D02*
D03*
X2319606D02*
D03*
X2293606D02*
D03*
X2267606D02*
D03*
X2241606D02*
D03*
X2215606D02*
D03*
X2189606D02*
D03*
X2163606D02*
D03*
X2137606D02*
D03*
X2111606D02*
D03*
X2085606D02*
D03*
X2059606D02*
D03*
X2033606D02*
D03*
X2007606D02*
D03*
X1981606D02*
D03*
X1866325Y1984088D02*
D03*
X1869242Y1856420D02*
D03*
X1943058Y1859276D02*
D03*
X1953054Y1909278D02*
D03*
X1953742Y1935269D02*
D03*
X1953207Y1961263D02*
D03*
X1979207D02*
D03*
X2005207D02*
D03*
X2031207D02*
D03*
X2057207D02*
D03*
X2083207D02*
D03*
X2109207D02*
D03*
X2135207D02*
D03*
X2161207D02*
D03*
X2187207D02*
D03*
X2213207D02*
D03*
X2239207D02*
D03*
X2265207D02*
D03*
X2291207D02*
D03*
X2317207D02*
D03*
X2343207D02*
D03*
X2369207D02*
D03*
X2395207D02*
D03*
X2421207D02*
D03*
X2447207D02*
D03*
X2473207D02*
D03*
X2499207Y1961341D02*
D03*
X2523101Y1971594D02*
D03*
X2541558Y1989906D02*
D03*
X2559943Y2008291D02*
D03*
X2578327Y2026676D02*
D03*
X2596712Y2045061D02*
D03*
X2615097Y2063445D02*
D03*
X2633482Y2081830D02*
D03*
X2653769Y2098092D02*
D03*
X2679769D02*
D03*
X2705769D02*
D03*
X2731769D02*
D03*
X2757769D02*
D03*
X2783769D02*
D03*
X2809769D02*
D03*
X2835769D02*
D03*
X2861769D02*
D03*
X2887040Y2104202D02*
D03*
X2906091Y2121896D02*
D03*
X2924476Y2140280D02*
D03*
X2942861Y2158665D02*
D03*
X2961246Y2177050D02*
D03*
X2979630Y2195434D02*
D03*
X2998015Y2213819D02*
D03*
X3014566Y2233871D02*
D03*
X3017908Y2259655D02*
D03*
Y2285655D02*
D03*
Y2311655D02*
D03*
Y2337655D02*
D03*
Y2363655D02*
D03*
X3028792Y2387267D02*
D03*
X1873092Y2172193D02*
D03*
X1867433Y2069547D02*
D03*
X1866026Y2043585D02*
D03*
X1873456Y2018669D02*
D03*
X1955974Y2042955D02*
D03*
X1954822Y2068930D02*
D03*
X1957211Y2094820D02*
D03*
X1958742Y2120775D02*
D03*
X1957917Y2146762D02*
D03*
X1946908Y2170316D02*
D03*
X709000Y1502000D02*
D03*
Y1476000D02*
D03*
X2703000Y774000D02*
D03*
X336000Y1282000D02*
D03*
Y1256000D02*
D03*
X2385000Y254000D02*
D03*
X2248000Y242000D02*
D03*
X3628000Y1241000D02*
D03*
X3567000Y1242000D02*
D03*
X2185000Y1005000D02*
D03*
X2130269Y1007778D02*
D03*
X3623000Y1007000D02*
D03*
X3789000Y944000D02*
D03*
X1923000Y1641000D02*
D03*
X1476000Y1700000D02*
D03*
X1775000Y731000D02*
D03*
X3305000Y1423000D02*
D03*
X3598000Y1395000D02*
D03*
X3241000Y1423000D02*
D03*
X1404000D02*
D03*
X1447000Y1111000D02*
D03*
X3143000Y1620687D02*
D03*
X3024000Y1519000D02*
D03*
X1859000Y1151000D02*
D03*
X2059000Y1273000D02*
D03*
X2063000Y1735121D02*
D03*
X1502000Y1732000D02*
D03*
Y1767000D02*
D03*
X2063000Y1689000D02*
D03*
X3622000Y1923000D02*
D03*
X3761000D02*
D03*
X3690000D02*
D03*
X3017000Y2028000D02*
D03*
X2941000Y1915000D02*
D03*
X2806000Y1909000D02*
D03*
X2896000Y1520000D02*
D03*
X2125000Y1324000D02*
D03*
X3242000Y2062000D02*
D03*
X1258000Y1167000D02*
D03*
X1209000Y1224000D02*
D03*
X1386331Y1265046D02*
D03*
X1439176Y273125D02*
D03*
X2063000Y1781243D02*
D03*
X2940000Y1691000D02*
D03*
X3084000Y1701000D02*
D03*
Y1754000D02*
D03*
X3222000Y1919000D02*
D03*
X554000Y1050000D02*
D03*
X1360000Y1574000D02*
D03*
X1353000Y1952000D02*
D03*
X1599000Y1886000D02*
D03*
X1482000Y2063000D02*
D03*
X1402000D02*
D03*
X1880000Y472000D02*
D03*
X3074000Y1934000D02*
D03*
X3713000Y1554000D02*
D03*
X3047000Y791000D02*
D03*
X1561000Y2063000D02*
D03*
X1679000Y1886000D02*
D03*
X1638000D02*
D03*
X3275000Y1624000D02*
D03*
X2245000Y1571000D02*
D03*
X669000Y1694000D02*
D03*
X1502000Y1605000D02*
D03*
Y1571000D02*
D03*
X1069000Y2039000D02*
D03*
X1502000Y1636000D02*
D03*
Y1670000D02*
D03*
X1455000D02*
D03*
X1435000Y1308000D02*
D03*
X3149000Y613000D02*
D03*
X3610000Y1792000D02*
D03*
X3241000Y2009000D02*
D03*
X805000Y1996000D02*
D03*
X1603000Y1271000D02*
D03*
X1468000Y405000D02*
D03*
X2490000Y298000D02*
D03*
X2286000Y295000D02*
D03*
D58*
X2864000Y1007000D02*
D03*
X1638000Y598000D02*
D03*
D70*
X228496Y1284000D02*
D03*
Y1258409D02*
D03*
Y1232819D02*
D03*
Y1309591D02*
D03*
Y1335181D02*
D03*
D71*
X107433Y1246106D02*
D03*
Y1321894D02*
D03*
D72*
X236566Y1398173D02*
D03*
X236565Y1169828D02*
D03*
%TF.MD5,dc04aca6b0b7e5ad74ff29f2cf944335*%
M02*
