G04*
G04 #@! TF.GenerationSoftware,Altium Limited,Altium Designer,21.6.4 (81)*
G04*
G04 Layer_Color=16711935*
%FSLAX25Y25*%
%MOIN*%
G70*
G04*
G04 #@! TF.SameCoordinates,D92126B2-5F21-4161-9152-1B55B43E0DBD*
G04*
G04*
G04 #@! TF.FilePolarity,Positive*
G04*
G01*
G75*
%ADD12C,0.00394*%
%ADD17C,0.00787*%
G36*
X83900Y22413D02*
X83703D01*
Y23662D01*
X83701Y23660D01*
X83690Y23651D01*
X83676Y23637D01*
X83653Y23621D01*
X83627Y23600D01*
X83595Y23577D01*
X83558Y23551D01*
X83516Y23526D01*
X83514D01*
X83512Y23524D01*
X83498Y23515D01*
X83475Y23503D01*
X83447Y23489D01*
X83415Y23473D01*
X83380Y23457D01*
X83345Y23440D01*
X83311Y23427D01*
Y23616D01*
X83313D01*
X83318Y23621D01*
X83327Y23623D01*
X83338Y23630D01*
X83352Y23637D01*
X83368Y23646D01*
X83408Y23669D01*
X83454Y23695D01*
X83500Y23727D01*
X83549Y23764D01*
X83597Y23803D01*
X83600Y23806D01*
X83602Y23808D01*
X83609Y23815D01*
X83618Y23822D01*
X83639Y23845D01*
X83666Y23873D01*
X83694Y23905D01*
X83724Y23942D01*
X83750Y23979D01*
X83773Y24018D01*
X83900D01*
Y22413D01*
D02*
G37*
G36*
X83022Y23822D02*
X82495D01*
Y22413D01*
X82283D01*
Y23822D01*
X81756D01*
Y24011D01*
X83022D01*
Y23822D01*
D02*
G37*
G36*
X81026Y24009D02*
X81047D01*
X81095Y24006D01*
X81146Y24000D01*
X81202Y23993D01*
X81252Y23981D01*
X81278Y23974D01*
X81299Y23967D01*
X81301D01*
X81303Y23965D01*
X81317Y23958D01*
X81338Y23949D01*
X81363Y23933D01*
X81391Y23912D01*
X81421Y23884D01*
X81449Y23852D01*
X81477Y23815D01*
Y23812D01*
X81479Y23810D01*
X81488Y23796D01*
X81497Y23773D01*
X81511Y23743D01*
X81523Y23708D01*
X81534Y23667D01*
X81541Y23623D01*
X81544Y23574D01*
Y23572D01*
Y23568D01*
Y23558D01*
X81541Y23547D01*
Y23531D01*
X81539Y23515D01*
X81530Y23475D01*
X81516Y23429D01*
X81497Y23381D01*
X81470Y23332D01*
X81451Y23309D01*
X81433Y23286D01*
X81430Y23283D01*
X81428Y23281D01*
X81421Y23274D01*
X81412Y23267D01*
X81400Y23258D01*
X81387Y23249D01*
X81368Y23237D01*
X81349Y23223D01*
X81326Y23212D01*
X81301Y23200D01*
X81273Y23186D01*
X81243Y23175D01*
X81209Y23166D01*
X81174Y23154D01*
X81135Y23147D01*
X81093Y23140D01*
X81098Y23138D01*
X81107Y23133D01*
X81121Y23124D01*
X81139Y23115D01*
X81181Y23089D01*
X81202Y23073D01*
X81220Y23059D01*
X81225Y23055D01*
X81236Y23043D01*
X81255Y23025D01*
X81278Y23002D01*
X81303Y22969D01*
X81333Y22935D01*
X81363Y22893D01*
X81396Y22847D01*
X81671Y22413D01*
X81407D01*
X81197Y22745D01*
Y22748D01*
X81192Y22752D01*
X81188Y22759D01*
X81181Y22768D01*
X81165Y22794D01*
X81144Y22826D01*
X81119Y22861D01*
X81093Y22898D01*
X81068Y22932D01*
X81045Y22965D01*
X81042Y22967D01*
X81035Y22976D01*
X81024Y22990D01*
X81008Y23006D01*
X80973Y23041D01*
X80954Y23057D01*
X80936Y23071D01*
X80934Y23073D01*
X80929Y23076D01*
X80920Y23080D01*
X80906Y23087D01*
X80892Y23094D01*
X80876Y23101D01*
X80839Y23112D01*
X80837D01*
X80832Y23115D01*
X80823D01*
X80811Y23117D01*
X80795Y23120D01*
X80777D01*
X80751Y23122D01*
X80479D01*
Y22413D01*
X80266D01*
Y24011D01*
X81008D01*
X81026Y24009D01*
D02*
G37*
G36*
X356734Y138889D02*
X355992D01*
X355974Y138891D01*
X355953D01*
X355905Y138893D01*
X355854Y138900D01*
X355798Y138907D01*
X355748Y138919D01*
X355722Y138926D01*
X355701Y138933D01*
X355699D01*
X355697Y138935D01*
X355683Y138942D01*
X355662Y138951D01*
X355637Y138967D01*
X355609Y138988D01*
X355579Y139016D01*
X355551Y139048D01*
X355523Y139085D01*
Y139087D01*
X355521Y139090D01*
X355512Y139104D01*
X355503Y139127D01*
X355489Y139157D01*
X355477Y139191D01*
X355466Y139233D01*
X355459Y139277D01*
X355456Y139325D01*
Y139328D01*
Y139332D01*
Y139342D01*
X355459Y139353D01*
Y139369D01*
X355461Y139385D01*
X355470Y139425D01*
X355484Y139471D01*
X355503Y139520D01*
X355530Y139568D01*
X355549Y139591D01*
X355567Y139614D01*
X355570Y139617D01*
X355572Y139619D01*
X355579Y139626D01*
X355588Y139633D01*
X355600Y139642D01*
X355613Y139651D01*
X355632Y139663D01*
X355650Y139677D01*
X355674Y139688D01*
X355699Y139700D01*
X355727Y139714D01*
X355757Y139725D01*
X355791Y139734D01*
X355826Y139746D01*
X355865Y139753D01*
X355907Y139760D01*
X355902Y139762D01*
X355893Y139767D01*
X355879Y139776D01*
X355861Y139785D01*
X355819Y139811D01*
X355798Y139827D01*
X355780Y139841D01*
X355775Y139845D01*
X355764Y139857D01*
X355745Y139875D01*
X355722Y139898D01*
X355697Y139931D01*
X355667Y139965D01*
X355637Y140007D01*
X355604Y140053D01*
X355329Y140487D01*
X355593D01*
X355803Y140155D01*
Y140152D01*
X355807Y140148D01*
X355812Y140141D01*
X355819Y140132D01*
X355835Y140106D01*
X355856Y140074D01*
X355882Y140039D01*
X355907Y140002D01*
X355932Y139968D01*
X355955Y139935D01*
X355958Y139933D01*
X355965Y139924D01*
X355976Y139910D01*
X355992Y139894D01*
X356027Y139859D01*
X356046Y139843D01*
X356064Y139829D01*
X356066Y139827D01*
X356071Y139824D01*
X356080Y139820D01*
X356094Y139813D01*
X356108Y139806D01*
X356124Y139799D01*
X356161Y139787D01*
X356163D01*
X356168Y139785D01*
X356177D01*
X356189Y139783D01*
X356205Y139780D01*
X356223D01*
X356249Y139778D01*
X356521D01*
Y140487D01*
X356734D01*
Y138889D01*
D02*
G37*
G36*
X354662Y139238D02*
X354664Y139240D01*
X354676Y139249D01*
X354690Y139263D01*
X354713Y139279D01*
X354738Y139300D01*
X354770Y139323D01*
X354807Y139349D01*
X354849Y139374D01*
X354851D01*
X354854Y139376D01*
X354867Y139385D01*
X354890Y139397D01*
X354918Y139411D01*
X354950Y139427D01*
X354985Y139443D01*
X355020Y139459D01*
X355054Y139473D01*
Y139284D01*
X355052D01*
X355048Y139279D01*
X355038Y139277D01*
X355027Y139270D01*
X355013Y139263D01*
X354997Y139254D01*
X354958Y139231D01*
X354911Y139205D01*
X354865Y139173D01*
X354817Y139136D01*
X354768Y139097D01*
X354766Y139094D01*
X354763Y139092D01*
X354756Y139085D01*
X354747Y139078D01*
X354727Y139055D01*
X354699Y139028D01*
X354671Y138995D01*
X354641Y138958D01*
X354616Y138921D01*
X354592Y138882D01*
X354465D01*
Y140487D01*
X354662D01*
Y139238D01*
D02*
G37*
G36*
X353990Y140485D02*
Y140476D01*
Y140462D01*
X353987Y140444D01*
X353985Y140423D01*
X353980Y140400D01*
X353976Y140376D01*
X353966Y140351D01*
Y140349D01*
X353964Y140347D01*
X353959Y140333D01*
X353950Y140312D01*
X353937Y140284D01*
X353918Y140252D01*
X353895Y140215D01*
X353870Y140178D01*
X353837Y140139D01*
Y140136D01*
X353833Y140134D01*
X353821Y140120D01*
X353800Y140099D01*
X353770Y140069D01*
X353735Y140035D01*
X353692Y139993D01*
X353639Y139947D01*
X353581Y139898D01*
X353578Y139896D01*
X353569Y139889D01*
X353555Y139878D01*
X353539Y139864D01*
X353518Y139845D01*
X353493Y139824D01*
X353467Y139801D01*
X353437Y139776D01*
X353380Y139720D01*
X353322Y139665D01*
X353294Y139637D01*
X353269Y139610D01*
X353246Y139584D01*
X353227Y139559D01*
Y139557D01*
X353223Y139554D01*
X353218Y139547D01*
X353213Y139538D01*
X353197Y139513D01*
X353179Y139482D01*
X353163Y139446D01*
X353146Y139406D01*
X353137Y139362D01*
X353133Y139321D01*
Y139319D01*
Y139316D01*
X353135Y139302D01*
X353137Y139279D01*
X353144Y139254D01*
X353153Y139222D01*
X353169Y139189D01*
X353190Y139157D01*
X353218Y139125D01*
X353223Y139120D01*
X353234Y139111D01*
X353250Y139099D01*
X353276Y139083D01*
X353308Y139069D01*
X353345Y139055D01*
X353389Y139046D01*
X353437Y139044D01*
X353451D01*
X353461Y139046D01*
X353488Y139048D01*
X353521Y139055D01*
X353555Y139064D01*
X353595Y139081D01*
X353631Y139101D01*
X353666Y139129D01*
X353671Y139134D01*
X353680Y139145D01*
X353694Y139164D01*
X353708Y139191D01*
X353724Y139224D01*
X353738Y139265D01*
X353747Y139312D01*
X353752Y139365D01*
X353953Y139344D01*
Y139342D01*
X353950Y139335D01*
Y139323D01*
X353948Y139307D01*
X353943Y139288D01*
X353939Y139268D01*
X353932Y139242D01*
X353925Y139217D01*
X353906Y139162D01*
X353879Y139106D01*
X353863Y139078D01*
X353842Y139051D01*
X353821Y139025D01*
X353798Y139002D01*
X353796Y139000D01*
X353791Y138997D01*
X353784Y138990D01*
X353772Y138984D01*
X353759Y138974D01*
X353742Y138965D01*
X353724Y138954D01*
X353701Y138942D01*
X353675Y138930D01*
X353648Y138919D01*
X353618Y138910D01*
X353585Y138900D01*
X353551Y138893D01*
X353514Y138887D01*
X353474Y138884D01*
X353433Y138882D01*
X353410D01*
X353394Y138884D01*
X353375Y138887D01*
X353352Y138889D01*
X353327Y138893D01*
X353301Y138898D01*
X353241Y138914D01*
X353181Y138937D01*
X353151Y138951D01*
X353121Y138967D01*
X353093Y138988D01*
X353068Y139011D01*
X353066Y139014D01*
X353061Y139016D01*
X353056Y139025D01*
X353047Y139034D01*
X353036Y139046D01*
X353024Y139062D01*
X353012Y139078D01*
X352999Y139099D01*
X352976Y139143D01*
X352952Y139198D01*
X352943Y139226D01*
X352939Y139259D01*
X352934Y139291D01*
X352932Y139325D01*
Y139330D01*
Y139342D01*
X352934Y139360D01*
X352936Y139385D01*
X352941Y139413D01*
X352950Y139446D01*
X352959Y139480D01*
X352973Y139515D01*
X352976Y139520D01*
X352980Y139531D01*
X352989Y139550D01*
X353003Y139575D01*
X353022Y139603D01*
X353045Y139637D01*
X353073Y139672D01*
X353105Y139711D01*
X353110Y139716D01*
X353121Y139730D01*
X353133Y139741D01*
X353144Y139753D01*
X353158Y139767D01*
X353176Y139785D01*
X353195Y139804D01*
X353218Y139824D01*
X353241Y139848D01*
X353269Y139873D01*
X353299Y139898D01*
X353331Y139928D01*
X353368Y139958D01*
X353405Y139991D01*
X353408Y139993D01*
X353412Y139998D01*
X353421Y140005D01*
X353433Y140014D01*
X353447Y140028D01*
X353463Y140042D01*
X353500Y140072D01*
X353539Y140106D01*
X353576Y140141D01*
X353608Y140171D01*
X353622Y140182D01*
X353634Y140194D01*
X353636Y140196D01*
X353643Y140203D01*
X353652Y140213D01*
X353664Y140226D01*
X353675Y140243D01*
X353689Y140259D01*
X353717Y140298D01*
X352929D01*
Y140487D01*
X353990D01*
Y140485D01*
D02*
G37*
G36*
X74676Y202889D02*
X73935D01*
X73916Y202891D01*
X73896D01*
X73847Y202893D01*
X73796Y202900D01*
X73741Y202907D01*
X73690Y202919D01*
X73665Y202926D01*
X73644Y202933D01*
X73642D01*
X73639Y202935D01*
X73625Y202942D01*
X73605Y202951D01*
X73579Y202967D01*
X73551Y202988D01*
X73521Y203016D01*
X73494Y203048D01*
X73466Y203085D01*
Y203087D01*
X73464Y203090D01*
X73454Y203104D01*
X73445Y203127D01*
X73431Y203157D01*
X73420Y203191D01*
X73408Y203233D01*
X73401Y203277D01*
X73399Y203326D01*
Y203328D01*
Y203332D01*
Y203342D01*
X73401Y203353D01*
Y203369D01*
X73404Y203385D01*
X73413Y203425D01*
X73427Y203471D01*
X73445Y203520D01*
X73473Y203568D01*
X73491Y203591D01*
X73510Y203614D01*
X73512Y203616D01*
X73514Y203619D01*
X73521Y203626D01*
X73531Y203633D01*
X73542Y203642D01*
X73556Y203651D01*
X73575Y203663D01*
X73593Y203677D01*
X73616Y203688D01*
X73642Y203700D01*
X73669Y203714D01*
X73699Y203725D01*
X73734Y203734D01*
X73769Y203746D01*
X73808Y203753D01*
X73849Y203760D01*
X73845Y203762D01*
X73835Y203767D01*
X73822Y203776D01*
X73803Y203785D01*
X73762Y203811D01*
X73741Y203827D01*
X73722Y203841D01*
X73718Y203845D01*
X73706Y203857D01*
X73688Y203875D01*
X73665Y203898D01*
X73639Y203931D01*
X73609Y203965D01*
X73579Y204007D01*
X73547Y204053D01*
X73272Y204487D01*
X73535D01*
X73746Y204155D01*
Y204152D01*
X73750Y204148D01*
X73755Y204141D01*
X73762Y204132D01*
X73778Y204106D01*
X73799Y204074D01*
X73824Y204039D01*
X73849Y204002D01*
X73875Y203968D01*
X73898Y203935D01*
X73900Y203933D01*
X73907Y203924D01*
X73919Y203910D01*
X73935Y203894D01*
X73970Y203859D01*
X73988Y203843D01*
X74006Y203829D01*
X74009Y203827D01*
X74013Y203824D01*
X74023Y203820D01*
X74037Y203813D01*
X74050Y203806D01*
X74067Y203799D01*
X74103Y203787D01*
X74106D01*
X74110Y203785D01*
X74120D01*
X74131Y203783D01*
X74147Y203781D01*
X74166D01*
X74191Y203778D01*
X74464D01*
Y204487D01*
X74676D01*
Y202889D01*
D02*
G37*
G36*
X72625Y204513D02*
X72644D01*
X72664Y204510D01*
X72688Y204506D01*
X72715Y204499D01*
X72743Y204492D01*
X72775Y204483D01*
X72808Y204471D01*
X72840Y204457D01*
X72875Y204439D01*
X72907Y204418D01*
X72939Y204395D01*
X72972Y204367D01*
X73002Y204335D01*
X73004Y204333D01*
X73009Y204326D01*
X73015Y204316D01*
X73025Y204300D01*
X73039Y204279D01*
X73050Y204256D01*
X73064Y204226D01*
X73078Y204194D01*
X73094Y204155D01*
X73108Y204111D01*
X73119Y204062D01*
X73131Y204009D01*
X73142Y203949D01*
X73150Y203885D01*
X73154Y203815D01*
X73156Y203741D01*
Y203739D01*
Y203737D01*
Y203730D01*
Y203720D01*
X73154Y203697D01*
Y203665D01*
X73152Y203628D01*
X73147Y203584D01*
X73142Y203536D01*
X73136Y203483D01*
X73126Y203429D01*
X73115Y203372D01*
X73101Y203316D01*
X73085Y203261D01*
X73064Y203208D01*
X73041Y203157D01*
X73015Y203108D01*
X72986Y203067D01*
X72983Y203064D01*
X72979Y203060D01*
X72969Y203051D01*
X72958Y203037D01*
X72944Y203023D01*
X72925Y203009D01*
X72902Y202991D01*
X72879Y202974D01*
X72852Y202958D01*
X72821Y202940D01*
X72787Y202926D01*
X72752Y202910D01*
X72713Y202898D01*
X72671Y202889D01*
X72627Y202884D01*
X72581Y202882D01*
X72563D01*
X72549Y202884D01*
X72533D01*
X72514Y202887D01*
X72470Y202896D01*
X72422Y202907D01*
X72371Y202926D01*
X72320Y202954D01*
X72295Y202970D01*
X72272Y202988D01*
X72269Y202991D01*
X72267Y202993D01*
X72260Y203000D01*
X72253Y203007D01*
X72242Y203018D01*
X72232Y203032D01*
X72207Y203064D01*
X72182Y203106D01*
X72158Y203157D01*
X72138Y203215D01*
X72124Y203279D01*
X72320Y203295D01*
Y203293D01*
X72322Y203291D01*
X72325Y203277D01*
X72332Y203256D01*
X72341Y203231D01*
X72350Y203203D01*
X72364Y203175D01*
X72380Y203150D01*
X72396Y203129D01*
X72401Y203124D01*
X72410Y203115D01*
X72426Y203101D01*
X72449Y203085D01*
X72480Y203071D01*
X72512Y203058D01*
X72551Y203048D01*
X72593Y203044D01*
X72609D01*
X72627Y203046D01*
X72648Y203051D01*
X72676Y203058D01*
X72704Y203067D01*
X72731Y203078D01*
X72759Y203097D01*
X72764Y203099D01*
X72775Y203108D01*
X72791Y203124D01*
X72812Y203148D01*
X72835Y203175D01*
X72861Y203208D01*
X72884Y203249D01*
X72907Y203295D01*
Y203298D01*
X72909Y203302D01*
X72912Y203309D01*
X72916Y203319D01*
X72918Y203332D01*
X72923Y203349D01*
X72928Y203367D01*
X72932Y203390D01*
X72939Y203416D01*
X72944Y203443D01*
X72948Y203473D01*
X72951Y203506D01*
X72955Y203543D01*
X72958Y203580D01*
X72960Y203621D01*
Y203663D01*
X72958Y203660D01*
X72948Y203647D01*
X72932Y203628D01*
X72912Y203605D01*
X72888Y203577D01*
X72858Y203552D01*
X72826Y203526D01*
X72789Y203503D01*
X72787D01*
X72785Y203501D01*
X72771Y203494D01*
X72750Y203487D01*
X72722Y203476D01*
X72690Y203466D01*
X72653Y203459D01*
X72614Y203452D01*
X72572Y203450D01*
X72553D01*
X72540Y203452D01*
X72521Y203455D01*
X72503Y203457D01*
X72480Y203462D01*
X72457Y203469D01*
X72403Y203485D01*
X72376Y203496D01*
X72348Y203513D01*
X72320Y203529D01*
X72290Y203547D01*
X72262Y203570D01*
X72237Y203596D01*
X72235Y203598D01*
X72230Y203603D01*
X72223Y203610D01*
X72216Y203621D01*
X72205Y203637D01*
X72193Y203654D01*
X72182Y203674D01*
X72168Y203697D01*
X72154Y203723D01*
X72142Y203750D01*
X72131Y203783D01*
X72119Y203815D01*
X72112Y203850D01*
X72105Y203889D01*
X72101Y203928D01*
X72098Y203970D01*
Y203972D01*
Y203977D01*
Y203984D01*
Y203995D01*
X72101Y204009D01*
Y204023D01*
X72108Y204060D01*
X72115Y204104D01*
X72126Y204150D01*
X72142Y204201D01*
X72165Y204250D01*
Y204252D01*
X72168Y204254D01*
X72172Y204261D01*
X72177Y204270D01*
X72191Y204293D01*
X72212Y204323D01*
X72237Y204356D01*
X72267Y204388D01*
X72304Y204420D01*
X72343Y204448D01*
X72346D01*
X72348Y204450D01*
X72355Y204455D01*
X72364Y204457D01*
X72387Y204469D01*
X72417Y204481D01*
X72457Y204494D01*
X72500Y204504D01*
X72549Y204513D01*
X72602Y204515D01*
X72614D01*
X72625Y204513D01*
D02*
G37*
G36*
X260734Y21089D02*
X259992D01*
X259974Y21091D01*
X259953D01*
X259905Y21093D01*
X259854Y21100D01*
X259798Y21107D01*
X259748Y21119D01*
X259722Y21126D01*
X259701Y21133D01*
X259699D01*
X259697Y21135D01*
X259683Y21142D01*
X259662Y21151D01*
X259637Y21167D01*
X259609Y21188D01*
X259579Y21216D01*
X259551Y21248D01*
X259523Y21285D01*
Y21287D01*
X259521Y21290D01*
X259512Y21304D01*
X259503Y21327D01*
X259489Y21357D01*
X259477Y21392D01*
X259466Y21433D01*
X259459Y21477D01*
X259456Y21526D01*
Y21528D01*
Y21532D01*
Y21542D01*
X259459Y21553D01*
Y21569D01*
X259461Y21586D01*
X259470Y21625D01*
X259484Y21671D01*
X259503Y21720D01*
X259530Y21768D01*
X259549Y21791D01*
X259567Y21814D01*
X259570Y21816D01*
X259572Y21819D01*
X259579Y21826D01*
X259588Y21833D01*
X259600Y21842D01*
X259613Y21851D01*
X259632Y21863D01*
X259650Y21877D01*
X259674Y21888D01*
X259699Y21900D01*
X259727Y21914D01*
X259757Y21925D01*
X259791Y21934D01*
X259826Y21946D01*
X259865Y21953D01*
X259907Y21960D01*
X259902Y21962D01*
X259893Y21967D01*
X259879Y21976D01*
X259861Y21985D01*
X259819Y22011D01*
X259798Y22027D01*
X259780Y22041D01*
X259775Y22045D01*
X259764Y22057D01*
X259745Y22075D01*
X259722Y22098D01*
X259697Y22131D01*
X259667Y22165D01*
X259637Y22207D01*
X259604Y22253D01*
X259329Y22687D01*
X259593D01*
X259803Y22355D01*
Y22352D01*
X259807Y22348D01*
X259812Y22341D01*
X259819Y22332D01*
X259835Y22306D01*
X259856Y22274D01*
X259881Y22239D01*
X259907Y22202D01*
X259932Y22168D01*
X259955Y22135D01*
X259958Y22133D01*
X259965Y22124D01*
X259976Y22110D01*
X259992Y22094D01*
X260027Y22059D01*
X260046Y22043D01*
X260064Y22029D01*
X260066Y22027D01*
X260071Y22024D01*
X260080Y22020D01*
X260094Y22013D01*
X260108Y22006D01*
X260124Y21999D01*
X260161Y21987D01*
X260163D01*
X260168Y21985D01*
X260177D01*
X260189Y21983D01*
X260205Y21981D01*
X260223D01*
X260249Y21978D01*
X260521D01*
Y22687D01*
X260734D01*
Y21089D01*
D02*
G37*
G36*
X258662Y21438D02*
X258664Y21440D01*
X258676Y21449D01*
X258689Y21463D01*
X258713Y21479D01*
X258738Y21500D01*
X258770Y21523D01*
X258807Y21549D01*
X258849Y21574D01*
X258851D01*
X258854Y21576D01*
X258867Y21586D01*
X258891Y21597D01*
X258918Y21611D01*
X258950Y21627D01*
X258985Y21643D01*
X259020Y21659D01*
X259054Y21673D01*
Y21484D01*
X259052D01*
X259048Y21479D01*
X259038Y21477D01*
X259027Y21470D01*
X259013Y21463D01*
X258997Y21454D01*
X258958Y21431D01*
X258911Y21405D01*
X258865Y21373D01*
X258817Y21336D01*
X258768Y21297D01*
X258766Y21294D01*
X258763Y21292D01*
X258756Y21285D01*
X258747Y21278D01*
X258727Y21255D01*
X258699Y21227D01*
X258671Y21195D01*
X258641Y21158D01*
X258616Y21121D01*
X258593Y21082D01*
X258465D01*
Y22687D01*
X258662D01*
Y21438D01*
D02*
G37*
G36*
X257419D02*
X257421Y21440D01*
X257433Y21449D01*
X257447Y21463D01*
X257470Y21479D01*
X257495Y21500D01*
X257528Y21523D01*
X257564Y21549D01*
X257606Y21574D01*
X257608D01*
X257611Y21576D01*
X257625Y21586D01*
X257648Y21597D01*
X257675Y21611D01*
X257708Y21627D01*
X257742Y21643D01*
X257777Y21659D01*
X257812Y21673D01*
Y21484D01*
X257809D01*
X257805Y21479D01*
X257796Y21477D01*
X257784Y21470D01*
X257770Y21463D01*
X257754Y21454D01*
X257715Y21431D01*
X257668Y21405D01*
X257622Y21373D01*
X257574Y21336D01*
X257525Y21297D01*
X257523Y21294D01*
X257521Y21292D01*
X257514Y21285D01*
X257505Y21278D01*
X257484Y21255D01*
X257456Y21227D01*
X257428Y21195D01*
X257398Y21158D01*
X257373Y21121D01*
X257350Y21082D01*
X257223D01*
Y22687D01*
X257419D01*
Y21438D01*
D02*
G37*
G36*
X243871Y29680D02*
X243899D01*
X243929Y29678D01*
X243961Y29675D01*
X244035Y29668D01*
X244111Y29657D01*
X244185Y29643D01*
X244220Y29634D01*
X244255Y29622D01*
X244257D01*
X244262Y29620D01*
X244271Y29615D01*
X244283Y29611D01*
X244299Y29606D01*
X244315Y29597D01*
X244354Y29578D01*
X244396Y29555D01*
X244442Y29525D01*
X244483Y29491D01*
X244523Y29449D01*
Y29447D01*
X244527Y29444D01*
X244532Y29437D01*
X244537Y29428D01*
X244544Y29417D01*
X244553Y29405D01*
X244569Y29370D01*
X244585Y29329D01*
X244601Y29280D01*
X244611Y29223D01*
X244615Y29160D01*
Y29137D01*
X244613Y29121D01*
X244611Y29102D01*
X244606Y29079D01*
X244601Y29054D01*
X244594Y29026D01*
X244585Y28999D01*
X244576Y28969D01*
X244562Y28938D01*
X244546Y28908D01*
X244527Y28878D01*
X244504Y28848D01*
X244479Y28821D01*
X244451Y28795D01*
X244449Y28793D01*
X244442Y28788D01*
X244430Y28781D01*
X244412Y28770D01*
X244391Y28758D01*
X244363Y28747D01*
X244331Y28730D01*
X244294Y28717D01*
X244252Y28703D01*
X244204Y28689D01*
X244151Y28675D01*
X244091Y28664D01*
X244026Y28652D01*
X243957Y28645D01*
X243881Y28640D01*
X243800Y28638D01*
X243797D01*
X243788D01*
X243772D01*
X243754D01*
X243728Y28640D01*
X243700D01*
X243670Y28643D01*
X243636Y28645D01*
X243564Y28652D01*
X243488Y28664D01*
X243412Y28677D01*
X243377Y28687D01*
X243342Y28696D01*
X243340D01*
X243335Y28698D01*
X243326Y28703D01*
X243315Y28707D01*
X243298Y28712D01*
X243282Y28721D01*
X243243Y28740D01*
X243201Y28763D01*
X243158Y28793D01*
X243114Y28828D01*
X243077Y28869D01*
Y28871D01*
X243072Y28874D01*
X243067Y28881D01*
X243063Y28890D01*
X243054Y28901D01*
X243047Y28915D01*
X243028Y28950D01*
X243012Y28992D01*
X242996Y29040D01*
X242987Y29098D01*
X242982Y29160D01*
Y29181D01*
X242984Y29206D01*
X242989Y29236D01*
X242996Y29271D01*
X243005Y29308D01*
X243017Y29347D01*
X243035Y29384D01*
Y29387D01*
X243037Y29389D01*
X243044Y29400D01*
X243056Y29419D01*
X243072Y29442D01*
X243095Y29467D01*
X243121Y29495D01*
X243151Y29521D01*
X243185Y29546D01*
X243190Y29548D01*
X243201Y29557D01*
X243222Y29567D01*
X243252Y29583D01*
X243287Y29597D01*
X243326Y29615D01*
X243372Y29631D01*
X243423Y29645D01*
X243425D01*
X243430Y29648D01*
X243437Y29650D01*
X243449Y29652D01*
X243462Y29654D01*
X243479Y29657D01*
X243499Y29662D01*
X243523Y29664D01*
X243548Y29668D01*
X243576Y29671D01*
X243608Y29673D01*
X243640Y29678D01*
X243677Y29680D01*
X243714D01*
X243756Y29682D01*
X243800D01*
X243802D01*
X243811D01*
X243827D01*
X243846D01*
X243871Y29680D01*
D02*
G37*
G36*
X244587Y27938D02*
X243338D01*
X243340Y27936D01*
X243349Y27924D01*
X243363Y27911D01*
X243379Y27887D01*
X243400Y27862D01*
X243423Y27830D01*
X243449Y27793D01*
X243474Y27751D01*
Y27749D01*
X243476Y27746D01*
X243485Y27733D01*
X243497Y27709D01*
X243511Y27682D01*
X243527Y27650D01*
X243543Y27615D01*
X243560Y27580D01*
X243573Y27545D01*
X243384D01*
Y27548D01*
X243379Y27552D01*
X243377Y27562D01*
X243370Y27573D01*
X243363Y27587D01*
X243354Y27603D01*
X243331Y27643D01*
X243305Y27689D01*
X243273Y27735D01*
X243236Y27783D01*
X243197Y27832D01*
X243195Y27834D01*
X243192Y27837D01*
X243185Y27843D01*
X243178Y27853D01*
X243155Y27874D01*
X243127Y27901D01*
X243095Y27929D01*
X243058Y27959D01*
X243021Y27984D01*
X242982Y28008D01*
Y28135D01*
X244587D01*
Y27938D01*
D02*
G37*
G36*
Y27007D02*
X244255Y26797D01*
X244252D01*
X244248Y26792D01*
X244241Y26788D01*
X244232Y26781D01*
X244206Y26765D01*
X244174Y26744D01*
X244139Y26719D01*
X244102Y26693D01*
X244068Y26668D01*
X244035Y26645D01*
X244033Y26642D01*
X244024Y26635D01*
X244010Y26624D01*
X243994Y26608D01*
X243959Y26573D01*
X243943Y26555D01*
X243929Y26536D01*
X243927Y26534D01*
X243924Y26529D01*
X243920Y26520D01*
X243913Y26506D01*
X243906Y26492D01*
X243899Y26476D01*
X243887Y26439D01*
Y26437D01*
X243885Y26432D01*
Y26423D01*
X243883Y26411D01*
X243881Y26395D01*
Y26377D01*
X243878Y26351D01*
Y26079D01*
X244587D01*
Y25866D01*
X242989D01*
Y26608D01*
X242991Y26626D01*
Y26647D01*
X242993Y26695D01*
X243000Y26746D01*
X243007Y26802D01*
X243019Y26853D01*
X243026Y26878D01*
X243033Y26899D01*
Y26901D01*
X243035Y26903D01*
X243042Y26917D01*
X243051Y26938D01*
X243067Y26963D01*
X243088Y26991D01*
X243116Y27021D01*
X243148Y27049D01*
X243185Y27077D01*
X243187D01*
X243190Y27079D01*
X243204Y27088D01*
X243227Y27097D01*
X243257Y27111D01*
X243291Y27123D01*
X243333Y27134D01*
X243377Y27141D01*
X243425Y27144D01*
X243428D01*
X243432D01*
X243442D01*
X243453Y27141D01*
X243469D01*
X243485Y27139D01*
X243525Y27130D01*
X243571Y27116D01*
X243619Y27097D01*
X243668Y27070D01*
X243691Y27051D01*
X243714Y27033D01*
X243717Y27030D01*
X243719Y27028D01*
X243726Y27021D01*
X243733Y27012D01*
X243742Y27000D01*
X243751Y26987D01*
X243763Y26968D01*
X243777Y26950D01*
X243788Y26926D01*
X243800Y26901D01*
X243813Y26873D01*
X243825Y26843D01*
X243834Y26809D01*
X243846Y26774D01*
X243853Y26735D01*
X243860Y26693D01*
X243862Y26698D01*
X243867Y26707D01*
X243876Y26721D01*
X243885Y26739D01*
X243911Y26781D01*
X243927Y26802D01*
X243941Y26820D01*
X243945Y26825D01*
X243957Y26836D01*
X243975Y26855D01*
X243998Y26878D01*
X244031Y26903D01*
X244065Y26933D01*
X244107Y26963D01*
X244153Y26996D01*
X244587Y27271D01*
Y27007D01*
D02*
G37*
G36*
X323567Y149085D02*
X323571Y149080D01*
X323581Y149071D01*
X323594Y149062D01*
X323611Y149048D01*
X323629Y149029D01*
X323652Y149011D01*
X323680Y148990D01*
X323708Y148969D01*
X323740Y148944D01*
X323777Y148918D01*
X323814Y148893D01*
X323855Y148865D01*
X323899Y148837D01*
X323948Y148810D01*
X323996Y148782D01*
X323999Y148780D01*
X324008Y148775D01*
X324022Y148768D01*
X324043Y148757D01*
X324068Y148745D01*
X324096Y148731D01*
X324128Y148715D01*
X324165Y148699D01*
X324207Y148680D01*
X324248Y148660D01*
X324294Y148641D01*
X324343Y148623D01*
X324442Y148586D01*
X324549Y148551D01*
X324551D01*
X324558Y148549D01*
X324569Y148546D01*
X324583Y148542D01*
X324602Y148537D01*
X324625Y148532D01*
X324650Y148526D01*
X324678Y148521D01*
X324710Y148514D01*
X324745Y148507D01*
X324819Y148495D01*
X324900Y148484D01*
X324987Y148477D01*
Y148276D01*
X324985D01*
X324978D01*
X324969D01*
X324955Y148278D01*
X324937D01*
X324914Y148281D01*
X324888Y148283D01*
X324860Y148285D01*
X324828Y148290D01*
X324796Y148295D01*
X324756Y148301D01*
X324717Y148308D01*
X324676Y148315D01*
X324629Y148325D01*
X324535Y148348D01*
X324532D01*
X324523Y148350D01*
X324509Y148355D01*
X324488Y148362D01*
X324465Y148369D01*
X324438Y148378D01*
X324405Y148387D01*
X324371Y148401D01*
X324331Y148415D01*
X324292Y148428D01*
X324204Y148463D01*
X324112Y148505D01*
X324020Y148551D01*
X324017Y148553D01*
X324008Y148558D01*
X323996Y148565D01*
X323978Y148574D01*
X323957Y148586D01*
X323932Y148602D01*
X323904Y148618D01*
X323874Y148636D01*
X323807Y148680D01*
X323738Y148726D01*
X323666Y148780D01*
X323599Y148835D01*
Y148052D01*
X323410D01*
Y149087D01*
X323564D01*
X323567Y149085D01*
D02*
G37*
G36*
X324987Y147338D02*
X323738D01*
X323740Y147336D01*
X323749Y147324D01*
X323763Y147310D01*
X323779Y147287D01*
X323800Y147262D01*
X323823Y147230D01*
X323849Y147193D01*
X323874Y147151D01*
Y147149D01*
X323876Y147146D01*
X323885Y147133D01*
X323897Y147109D01*
X323911Y147082D01*
X323927Y147049D01*
X323943Y147015D01*
X323959Y146980D01*
X323973Y146946D01*
X323784D01*
Y146948D01*
X323779Y146952D01*
X323777Y146962D01*
X323770Y146973D01*
X323763Y146987D01*
X323754Y147003D01*
X323731Y147043D01*
X323705Y147089D01*
X323673Y147135D01*
X323636Y147183D01*
X323597Y147232D01*
X323594Y147234D01*
X323592Y147237D01*
X323585Y147243D01*
X323578Y147253D01*
X323555Y147274D01*
X323528Y147301D01*
X323495Y147329D01*
X323458Y147359D01*
X323421Y147384D01*
X323382Y147407D01*
Y147535D01*
X324987D01*
Y147338D01*
D02*
G37*
G36*
Y146407D02*
X324655Y146197D01*
X324652D01*
X324648Y146193D01*
X324641Y146188D01*
X324632Y146181D01*
X324606Y146165D01*
X324574Y146144D01*
X324539Y146118D01*
X324502Y146093D01*
X324468Y146068D01*
X324435Y146045D01*
X324433Y146042D01*
X324424Y146035D01*
X324410Y146024D01*
X324394Y146008D01*
X324359Y145973D01*
X324343Y145955D01*
X324329Y145936D01*
X324327Y145934D01*
X324324Y145929D01*
X324320Y145920D01*
X324313Y145906D01*
X324306Y145892D01*
X324299Y145876D01*
X324288Y145839D01*
Y145837D01*
X324285Y145832D01*
Y145823D01*
X324283Y145811D01*
X324281Y145795D01*
Y145777D01*
X324278Y145751D01*
Y145479D01*
X324987D01*
Y145266D01*
X323389D01*
Y146008D01*
X323391Y146026D01*
Y146047D01*
X323394Y146095D01*
X323400Y146146D01*
X323407Y146202D01*
X323419Y146253D01*
X323426Y146278D01*
X323433Y146299D01*
Y146301D01*
X323435Y146303D01*
X323442Y146317D01*
X323451Y146338D01*
X323467Y146363D01*
X323488Y146391D01*
X323516Y146421D01*
X323548Y146449D01*
X323585Y146477D01*
X323587D01*
X323590Y146479D01*
X323604Y146488D01*
X323627Y146497D01*
X323657Y146511D01*
X323692Y146523D01*
X323733Y146534D01*
X323777Y146541D01*
X323826Y146544D01*
X323828D01*
X323832D01*
X323842D01*
X323853Y146541D01*
X323869D01*
X323885Y146539D01*
X323925Y146530D01*
X323971Y146516D01*
X324020Y146497D01*
X324068Y146470D01*
X324091Y146451D01*
X324114Y146433D01*
X324116Y146430D01*
X324119Y146428D01*
X324126Y146421D01*
X324133Y146412D01*
X324142Y146400D01*
X324151Y146387D01*
X324163Y146368D01*
X324177Y146350D01*
X324188Y146326D01*
X324200Y146301D01*
X324214Y146273D01*
X324225Y146243D01*
X324234Y146209D01*
X324246Y146174D01*
X324253Y146135D01*
X324260Y146093D01*
X324262Y146098D01*
X324267Y146107D01*
X324276Y146121D01*
X324285Y146139D01*
X324311Y146181D01*
X324327Y146202D01*
X324341Y146220D01*
X324345Y146225D01*
X324357Y146236D01*
X324375Y146255D01*
X324398Y146278D01*
X324431Y146303D01*
X324465Y146333D01*
X324507Y146363D01*
X324553Y146396D01*
X324987Y146671D01*
Y146407D01*
D02*
G37*
G36*
X353288Y120213D02*
X353307Y120211D01*
X353328Y120208D01*
X353351Y120204D01*
X353376Y120199D01*
X353432Y120185D01*
X353489Y120162D01*
X353519Y120148D01*
X353547Y120132D01*
X353575Y120111D01*
X353603Y120090D01*
X353605Y120088D01*
X353609Y120083D01*
X353616Y120077D01*
X353623Y120067D01*
X353635Y120056D01*
X353646Y120040D01*
X353660Y120023D01*
X353674Y120003D01*
X353688Y119980D01*
X353702Y119956D01*
X353727Y119901D01*
X353748Y119836D01*
X353755Y119802D01*
X353760Y119765D01*
X353563Y119739D01*
Y119742D01*
X353561Y119746D01*
X353559Y119755D01*
X353556Y119767D01*
X353554Y119781D01*
X353549Y119797D01*
X353538Y119832D01*
X353522Y119873D01*
X353501Y119913D01*
X353478Y119949D01*
X353450Y119982D01*
X353445Y119984D01*
X353436Y119993D01*
X353418Y120005D01*
X353395Y120017D01*
X353367Y120030D01*
X353332Y120042D01*
X353293Y120051D01*
X353251Y120053D01*
X353238D01*
X353228Y120051D01*
X353203Y120049D01*
X353170Y120042D01*
X353134Y120030D01*
X353094Y120014D01*
X353055Y119991D01*
X353018Y119959D01*
X353013Y119954D01*
X353002Y119940D01*
X352988Y119919D01*
X352970Y119892D01*
X352951Y119857D01*
X352937Y119818D01*
X352926Y119772D01*
X352921Y119721D01*
Y119719D01*
Y119714D01*
Y119707D01*
X352923Y119698D01*
X352926Y119672D01*
X352933Y119642D01*
X352942Y119605D01*
X352958Y119568D01*
X352981Y119531D01*
X353011Y119497D01*
X353016Y119492D01*
X353027Y119483D01*
X353046Y119469D01*
X353071Y119453D01*
X353103Y119437D01*
X353143Y119423D01*
X353187Y119414D01*
X353235Y119409D01*
X353256D01*
X353272Y119411D01*
X353293Y119414D01*
X353316Y119418D01*
X353344Y119423D01*
X353374Y119430D01*
X353351Y119256D01*
X353339D01*
X353330Y119259D01*
X353300D01*
X353274Y119254D01*
X353244Y119249D01*
X353210Y119243D01*
X353170Y119231D01*
X353134Y119215D01*
X353094Y119194D01*
X353092D01*
X353090Y119192D01*
X353078Y119183D01*
X353062Y119166D01*
X353043Y119146D01*
X353025Y119116D01*
X353009Y119081D01*
X352997Y119042D01*
X352993Y119018D01*
Y118993D01*
Y118991D01*
Y118989D01*
Y118975D01*
X352997Y118956D01*
X353002Y118931D01*
X353011Y118903D01*
X353023Y118873D01*
X353041Y118843D01*
X353067Y118815D01*
X353069Y118813D01*
X353080Y118804D01*
X353097Y118792D01*
X353117Y118778D01*
X353145Y118767D01*
X353177Y118755D01*
X353214Y118746D01*
X353256Y118744D01*
X353274D01*
X353295Y118748D01*
X353323Y118753D01*
X353353Y118762D01*
X353383Y118774D01*
X353415Y118792D01*
X353445Y118815D01*
X353448Y118818D01*
X353457Y118829D01*
X353471Y118845D01*
X353487Y118868D01*
X353503Y118898D01*
X353519Y118935D01*
X353533Y118979D01*
X353542Y119030D01*
X353739Y118995D01*
Y118993D01*
X353736Y118986D01*
X353734Y118977D01*
X353732Y118963D01*
X353727Y118947D01*
X353720Y118928D01*
X353706Y118885D01*
X353683Y118834D01*
X353656Y118783D01*
X353621Y118734D01*
X353577Y118691D01*
X353575Y118688D01*
X353570Y118686D01*
X353563Y118681D01*
X353554Y118674D01*
X353542Y118665D01*
X353526Y118656D01*
X353510Y118647D01*
X353489Y118635D01*
X353443Y118617D01*
X353390Y118598D01*
X353328Y118587D01*
X353295Y118582D01*
X353238D01*
X353212Y118584D01*
X353182Y118589D01*
X353145Y118596D01*
X353103Y118607D01*
X353062Y118621D01*
X353020Y118640D01*
X353018D01*
X353016Y118642D01*
X353002Y118649D01*
X352981Y118663D01*
X352958Y118679D01*
X352930Y118702D01*
X352903Y118728D01*
X352875Y118757D01*
X352852Y118792D01*
X352849Y118797D01*
X352842Y118808D01*
X352833Y118829D01*
X352822Y118854D01*
X352810Y118885D01*
X352801Y118919D01*
X352794Y118958D01*
X352792Y118998D01*
Y119002D01*
Y119016D01*
X352794Y119035D01*
X352799Y119060D01*
X352805Y119090D01*
X352817Y119123D01*
X352831Y119155D01*
X352849Y119187D01*
X352852Y119192D01*
X352859Y119201D01*
X352872Y119217D01*
X352891Y119236D01*
X352914Y119256D01*
X352942Y119280D01*
X352974Y119300D01*
X353013Y119321D01*
X353011D01*
X353007Y119324D01*
X353000Y119326D01*
X352990Y119328D01*
X352965Y119337D01*
X352933Y119351D01*
X352896Y119370D01*
X352859Y119393D01*
X352824Y119423D01*
X352792Y119457D01*
X352789Y119462D01*
X352780Y119476D01*
X352766Y119499D01*
X352752Y119529D01*
X352738Y119566D01*
X352725Y119610D01*
X352715Y119661D01*
X352713Y119716D01*
Y119719D01*
Y119725D01*
Y119737D01*
X352715Y119751D01*
X352718Y119769D01*
X352722Y119790D01*
X352727Y119813D01*
X352732Y119839D01*
X352750Y119894D01*
X352764Y119924D01*
X352778Y119952D01*
X352796Y119982D01*
X352817Y120012D01*
X352840Y120042D01*
X352868Y120070D01*
X352870Y120072D01*
X352875Y120077D01*
X352884Y120083D01*
X352896Y120093D01*
X352909Y120104D01*
X352928Y120116D01*
X352949Y120130D01*
X352974Y120141D01*
X353000Y120155D01*
X353030Y120169D01*
X353060Y120180D01*
X353094Y120192D01*
X353131Y120201D01*
X353170Y120208D01*
X353210Y120213D01*
X353254Y120215D01*
X353274D01*
X353288Y120213D01*
D02*
G37*
G36*
X356534Y118589D02*
X355792D01*
X355774Y118591D01*
X355753D01*
X355705Y118594D01*
X355654Y118600D01*
X355598Y118607D01*
X355547Y118619D01*
X355522Y118626D01*
X355501Y118633D01*
X355499D01*
X355497Y118635D01*
X355483Y118642D01*
X355462Y118651D01*
X355437Y118667D01*
X355409Y118688D01*
X355379Y118716D01*
X355351Y118748D01*
X355323Y118785D01*
Y118788D01*
X355321Y118790D01*
X355312Y118804D01*
X355303Y118827D01*
X355289Y118857D01*
X355277Y118892D01*
X355266Y118933D01*
X355259Y118977D01*
X355256Y119026D01*
Y119028D01*
Y119032D01*
Y119042D01*
X355259Y119053D01*
Y119069D01*
X355261Y119086D01*
X355270Y119125D01*
X355284Y119171D01*
X355303Y119220D01*
X355330Y119268D01*
X355349Y119291D01*
X355367Y119314D01*
X355370Y119316D01*
X355372Y119319D01*
X355379Y119326D01*
X355388Y119333D01*
X355400Y119342D01*
X355414Y119351D01*
X355432Y119363D01*
X355451Y119377D01*
X355474Y119388D01*
X355499Y119400D01*
X355527Y119414D01*
X355557Y119425D01*
X355591Y119434D01*
X355626Y119446D01*
X355665Y119453D01*
X355707Y119460D01*
X355702Y119462D01*
X355693Y119467D01*
X355679Y119476D01*
X355661Y119485D01*
X355619Y119511D01*
X355598Y119527D01*
X355580Y119541D01*
X355575Y119545D01*
X355564Y119557D01*
X355545Y119575D01*
X355522Y119598D01*
X355497Y119631D01*
X355467Y119665D01*
X355437Y119707D01*
X355404Y119753D01*
X355129Y120187D01*
X355393D01*
X355603Y119855D01*
Y119852D01*
X355608Y119848D01*
X355612Y119841D01*
X355619Y119832D01*
X355635Y119806D01*
X355656Y119774D01*
X355681Y119739D01*
X355707Y119702D01*
X355732Y119668D01*
X355755Y119635D01*
X355758Y119633D01*
X355765Y119624D01*
X355776Y119610D01*
X355792Y119594D01*
X355827Y119559D01*
X355845Y119543D01*
X355864Y119529D01*
X355866Y119527D01*
X355871Y119524D01*
X355880Y119520D01*
X355894Y119513D01*
X355908Y119506D01*
X355924Y119499D01*
X355961Y119488D01*
X355963D01*
X355968Y119485D01*
X355977D01*
X355989Y119483D01*
X356005Y119481D01*
X356023D01*
X356049Y119478D01*
X356321D01*
Y120187D01*
X356534D01*
Y118589D01*
D02*
G37*
G36*
X354462Y118938D02*
X354464Y118940D01*
X354476Y118949D01*
X354489Y118963D01*
X354513Y118979D01*
X354538Y119000D01*
X354570Y119023D01*
X354607Y119049D01*
X354649Y119074D01*
X354651D01*
X354654Y119076D01*
X354667Y119086D01*
X354691Y119097D01*
X354718Y119111D01*
X354750Y119127D01*
X354785Y119143D01*
X354820Y119159D01*
X354854Y119173D01*
Y118984D01*
X354852D01*
X354848Y118979D01*
X354838Y118977D01*
X354827Y118970D01*
X354813Y118963D01*
X354797Y118954D01*
X354757Y118931D01*
X354711Y118905D01*
X354665Y118873D01*
X354617Y118836D01*
X354568Y118797D01*
X354566Y118795D01*
X354563Y118792D01*
X354556Y118785D01*
X354547Y118778D01*
X354526Y118755D01*
X354499Y118728D01*
X354471Y118695D01*
X354441Y118658D01*
X354416Y118621D01*
X354393Y118582D01*
X354265D01*
Y120187D01*
X354462D01*
Y118938D01*
D02*
G37*
G36*
X275479Y86503D02*
X274840D01*
X274754Y86071D01*
X274756Y86074D01*
X274761Y86076D01*
X274768Y86080D01*
X274780Y86087D01*
X274793Y86094D01*
X274810Y86104D01*
X274847Y86122D01*
X274893Y86141D01*
X274943Y86157D01*
X274999Y86168D01*
X275027Y86173D01*
X275078D01*
X275091Y86171D01*
X275110Y86168D01*
X275131Y86166D01*
X275154Y86161D01*
X275179Y86154D01*
X275235Y86138D01*
X275265Y86127D01*
X275295Y86111D01*
X275325Y86094D01*
X275355Y86076D01*
X275382Y86053D01*
X275410Y86027D01*
X275412Y86025D01*
X275417Y86020D01*
X275424Y86014D01*
X275433Y86002D01*
X275445Y85986D01*
X275456Y85970D01*
X275470Y85949D01*
X275484Y85926D01*
X275496Y85900D01*
X275510Y85873D01*
X275521Y85840D01*
X275533Y85808D01*
X275542Y85773D01*
X275549Y85734D01*
X275553Y85695D01*
X275556Y85653D01*
Y85651D01*
Y85644D01*
Y85632D01*
X275553Y85616D01*
X275551Y85598D01*
X275549Y85577D01*
X275544Y85552D01*
X275539Y85526D01*
X275526Y85466D01*
X275502Y85404D01*
X275489Y85371D01*
X275470Y85341D01*
X275452Y85309D01*
X275429Y85279D01*
X275426Y85277D01*
X275422Y85270D01*
X275412Y85260D01*
X275401Y85249D01*
X275385Y85235D01*
X275366Y85216D01*
X275343Y85200D01*
X275318Y85182D01*
X275290Y85163D01*
X275258Y85147D01*
X275223Y85131D01*
X275186Y85115D01*
X275147Y85103D01*
X275103Y85094D01*
X275057Y85087D01*
X275008Y85085D01*
X274987D01*
X274971Y85087D01*
X274953Y85089D01*
X274932Y85092D01*
X274906Y85094D01*
X274881Y85101D01*
X274823Y85115D01*
X274766Y85136D01*
X274736Y85150D01*
X274706Y85166D01*
X274678Y85184D01*
X274650Y85205D01*
X274648Y85207D01*
X274643Y85210D01*
X274639Y85219D01*
X274629Y85228D01*
X274618Y85240D01*
X274606Y85254D01*
X274592Y85272D01*
X274581Y85293D01*
X274567Y85314D01*
X274553Y85339D01*
X274528Y85394D01*
X274507Y85459D01*
X274500Y85494D01*
X274495Y85531D01*
X274701Y85547D01*
Y85545D01*
Y85540D01*
X274703Y85533D01*
X274706Y85522D01*
X274712Y85496D01*
X274722Y85461D01*
X274736Y85427D01*
X274754Y85387D01*
X274777Y85353D01*
X274805Y85321D01*
X274810Y85318D01*
X274819Y85309D01*
X274837Y85297D01*
X274863Y85283D01*
X274890Y85270D01*
X274925Y85258D01*
X274964Y85249D01*
X275008Y85247D01*
X275022D01*
X275031Y85249D01*
X275059Y85251D01*
X275091Y85260D01*
X275131Y85272D01*
X275170Y85290D01*
X275212Y85318D01*
X275230Y85334D01*
X275248Y85353D01*
X275251Y85355D01*
X275253Y85357D01*
X275258Y85364D01*
X275265Y85371D01*
X275281Y85397D01*
X275299Y85429D01*
X275315Y85468D01*
X275332Y85517D01*
X275343Y85575D01*
X275348Y85605D01*
Y85637D01*
Y85639D01*
Y85644D01*
Y85653D01*
X275345Y85665D01*
Y85678D01*
X275343Y85695D01*
X275336Y85732D01*
X275325Y85776D01*
X275308Y85820D01*
X275285Y85861D01*
X275253Y85900D01*
Y85903D01*
X275248Y85905D01*
X275237Y85917D01*
X275216Y85933D01*
X275188Y85951D01*
X275151Y85967D01*
X275110Y85984D01*
X275061Y85995D01*
X275034Y86000D01*
X274990D01*
X274971Y85997D01*
X274948Y85995D01*
X274920Y85988D01*
X274893Y85981D01*
X274863Y85970D01*
X274833Y85956D01*
X274830Y85953D01*
X274821Y85949D01*
X274807Y85937D01*
X274789Y85926D01*
X274770Y85910D01*
X274752Y85889D01*
X274731Y85868D01*
X274715Y85843D01*
X274530Y85868D01*
X274685Y86690D01*
X275479D01*
Y86503D01*
D02*
G37*
G36*
X273726Y86709D02*
X273747D01*
X273795Y86707D01*
X273846Y86700D01*
X273902Y86693D01*
X273953Y86681D01*
X273978Y86674D01*
X273999Y86667D01*
X274001D01*
X274003Y86665D01*
X274017Y86658D01*
X274038Y86649D01*
X274063Y86633D01*
X274091Y86612D01*
X274121Y86584D01*
X274149Y86552D01*
X274177Y86515D01*
Y86513D01*
X274179Y86510D01*
X274188Y86496D01*
X274197Y86473D01*
X274211Y86443D01*
X274223Y86409D01*
X274234Y86367D01*
X274241Y86323D01*
X274244Y86274D01*
Y86272D01*
Y86268D01*
Y86258D01*
X274241Y86247D01*
Y86231D01*
X274239Y86215D01*
X274230Y86175D01*
X274216Y86129D01*
X274197Y86080D01*
X274170Y86032D01*
X274151Y86009D01*
X274133Y85986D01*
X274130Y85984D01*
X274128Y85981D01*
X274121Y85974D01*
X274112Y85967D01*
X274100Y85958D01*
X274086Y85949D01*
X274068Y85937D01*
X274049Y85923D01*
X274026Y85912D01*
X274001Y85900D01*
X273973Y85887D01*
X273943Y85875D01*
X273909Y85866D01*
X273874Y85854D01*
X273835Y85847D01*
X273793Y85840D01*
X273798Y85838D01*
X273807Y85833D01*
X273821Y85824D01*
X273839Y85815D01*
X273881Y85789D01*
X273902Y85773D01*
X273920Y85759D01*
X273925Y85755D01*
X273936Y85743D01*
X273955Y85725D01*
X273978Y85702D01*
X274003Y85669D01*
X274033Y85635D01*
X274063Y85593D01*
X274096Y85547D01*
X274371Y85113D01*
X274107D01*
X273897Y85445D01*
Y85448D01*
X273892Y85452D01*
X273888Y85459D01*
X273881Y85468D01*
X273865Y85494D01*
X273844Y85526D01*
X273818Y85561D01*
X273793Y85598D01*
X273768Y85632D01*
X273745Y85665D01*
X273742Y85667D01*
X273735Y85676D01*
X273724Y85690D01*
X273708Y85706D01*
X273673Y85741D01*
X273655Y85757D01*
X273636Y85771D01*
X273634Y85773D01*
X273629Y85776D01*
X273620Y85780D01*
X273606Y85787D01*
X273592Y85794D01*
X273576Y85801D01*
X273539Y85812D01*
X273537D01*
X273532Y85815D01*
X273523D01*
X273511Y85817D01*
X273495Y85820D01*
X273477D01*
X273451Y85822D01*
X273179D01*
Y85113D01*
X272966D01*
Y86711D01*
X273708D01*
X273726Y86709D01*
D02*
G37*
G36*
X191357Y73713D02*
X191373D01*
X191391Y73711D01*
X191435Y73701D01*
X191483Y73690D01*
X191534Y73671D01*
X191585Y73646D01*
X191611Y73630D01*
X191634Y73611D01*
X191636Y73609D01*
X191638Y73607D01*
X191645Y73600D01*
X191652Y73593D01*
X191661Y73581D01*
X191673Y73567D01*
X191696Y73535D01*
X191719Y73493D01*
X191742Y73443D01*
X191761Y73385D01*
X191775Y73318D01*
X191585Y73302D01*
Y73304D01*
X191583Y73309D01*
Y73313D01*
X191581Y73322D01*
X191574Y73348D01*
X191564Y73375D01*
X191553Y73408D01*
X191537Y73440D01*
X191518Y73470D01*
X191495Y73496D01*
X191493Y73498D01*
X191483Y73505D01*
X191467Y73514D01*
X191449Y73523D01*
X191423Y73535D01*
X191393Y73544D01*
X191359Y73551D01*
X191322Y73553D01*
X191306D01*
X191289Y73551D01*
X191269Y73549D01*
X191243Y73544D01*
X191218Y73537D01*
X191190Y73528D01*
X191165Y73514D01*
X191163Y73512D01*
X191153Y73507D01*
X191139Y73498D01*
X191126Y73484D01*
X191107Y73468D01*
X191088Y73449D01*
X191070Y73429D01*
X191052Y73403D01*
X191049Y73401D01*
X191045Y73389D01*
X191035Y73373D01*
X191026Y73352D01*
X191015Y73325D01*
X191003Y73292D01*
X190991Y73255D01*
X190980Y73214D01*
Y73211D01*
X190978Y73209D01*
Y73202D01*
X190975Y73193D01*
X190971Y73170D01*
X190964Y73140D01*
X190959Y73103D01*
X190955Y73064D01*
X190952Y73020D01*
X190950Y72974D01*
Y72971D01*
Y72964D01*
Y72953D01*
Y72934D01*
X190952Y72939D01*
X190962Y72951D01*
X190975Y72967D01*
X190991Y72990D01*
X191015Y73013D01*
X191042Y73038D01*
X191075Y73064D01*
X191112Y73087D01*
X191116Y73089D01*
X191130Y73096D01*
X191151Y73105D01*
X191176Y73115D01*
X191211Y73126D01*
X191248Y73135D01*
X191289Y73142D01*
X191333Y73145D01*
X191352D01*
X191366Y73142D01*
X191384Y73140D01*
X191403Y73138D01*
X191426Y73133D01*
X191449Y73126D01*
X191502Y73110D01*
X191530Y73098D01*
X191558Y73084D01*
X191587Y73068D01*
X191615Y73048D01*
X191643Y73027D01*
X191668Y73001D01*
X191671Y72999D01*
X191675Y72994D01*
X191680Y72988D01*
X191689Y72976D01*
X191701Y72960D01*
X191712Y72944D01*
X191724Y72923D01*
X191735Y72900D01*
X191749Y72874D01*
X191761Y72847D01*
X191772Y72814D01*
X191784Y72782D01*
X191793Y72745D01*
X191798Y72706D01*
X191802Y72666D01*
X191805Y72623D01*
Y72620D01*
Y72611D01*
Y72599D01*
X191802Y72583D01*
X191800Y72562D01*
X191798Y72537D01*
X191793Y72512D01*
X191786Y72482D01*
X191770Y72421D01*
X191758Y72389D01*
X191745Y72355D01*
X191728Y72322D01*
X191708Y72292D01*
X191687Y72260D01*
X191661Y72232D01*
X191659Y72230D01*
X191655Y72225D01*
X191648Y72218D01*
X191636Y72209D01*
X191622Y72198D01*
X191604Y72184D01*
X191585Y72172D01*
X191562Y72156D01*
X191539Y72142D01*
X191511Y72131D01*
X191449Y72105D01*
X191417Y72096D01*
X191380Y72089D01*
X191343Y72084D01*
X191303Y72082D01*
X191287D01*
X191276Y72084D01*
X191264D01*
X191248Y72087D01*
X191209Y72093D01*
X191165Y72103D01*
X191116Y72119D01*
X191068Y72140D01*
X191019Y72167D01*
X191017D01*
X191015Y72172D01*
X191008Y72177D01*
X190998Y72184D01*
X190975Y72202D01*
X190945Y72228D01*
X190915Y72262D01*
X190881Y72304D01*
X190851Y72352D01*
X190823Y72408D01*
Y72410D01*
X190821Y72415D01*
X190816Y72424D01*
X190811Y72435D01*
X190807Y72452D01*
X190800Y72472D01*
X190795Y72495D01*
X190788Y72521D01*
X190781Y72551D01*
X190774Y72585D01*
X190770Y72623D01*
X190765Y72662D01*
X190761Y72706D01*
X190756Y72752D01*
X190754Y72803D01*
Y72856D01*
Y72858D01*
Y72870D01*
Y72886D01*
Y72907D01*
X190756Y72932D01*
Y72962D01*
X190758Y72997D01*
X190763Y73031D01*
X190770Y73110D01*
X190781Y73193D01*
X190797Y73272D01*
X190809Y73311D01*
X190821Y73346D01*
Y73348D01*
X190823Y73352D01*
X190828Y73362D01*
X190832Y73375D01*
X190839Y73389D01*
X190848Y73408D01*
X190871Y73447D01*
X190899Y73491D01*
X190931Y73537D01*
X190973Y73581D01*
X191019Y73620D01*
X191022D01*
X191026Y73625D01*
X191033Y73630D01*
X191042Y73634D01*
X191056Y73641D01*
X191070Y73650D01*
X191088Y73660D01*
X191107Y73667D01*
X191151Y73685D01*
X191204Y73701D01*
X191262Y73711D01*
X191326Y73715D01*
X191345D01*
X191357Y73713D01*
D02*
G37*
G36*
X193334Y72089D02*
X192592D01*
X192574Y72091D01*
X192553D01*
X192505Y72093D01*
X192454Y72100D01*
X192398Y72107D01*
X192348Y72119D01*
X192322Y72126D01*
X192301Y72133D01*
X192299D01*
X192297Y72135D01*
X192283Y72142D01*
X192262Y72151D01*
X192237Y72167D01*
X192209Y72188D01*
X192179Y72216D01*
X192151Y72248D01*
X192123Y72285D01*
Y72287D01*
X192121Y72290D01*
X192112Y72304D01*
X192103Y72327D01*
X192089Y72357D01*
X192077Y72391D01*
X192066Y72433D01*
X192059Y72477D01*
X192056Y72526D01*
Y72528D01*
Y72532D01*
Y72542D01*
X192059Y72553D01*
Y72569D01*
X192061Y72585D01*
X192070Y72625D01*
X192084Y72671D01*
X192103Y72720D01*
X192130Y72768D01*
X192149Y72791D01*
X192167Y72814D01*
X192170Y72816D01*
X192172Y72819D01*
X192179Y72826D01*
X192188Y72833D01*
X192200Y72842D01*
X192213Y72851D01*
X192232Y72863D01*
X192251Y72877D01*
X192274Y72888D01*
X192299Y72900D01*
X192327Y72913D01*
X192357Y72925D01*
X192391Y72934D01*
X192426Y72946D01*
X192465Y72953D01*
X192507Y72960D01*
X192502Y72962D01*
X192493Y72967D01*
X192479Y72976D01*
X192461Y72985D01*
X192419Y73011D01*
X192398Y73027D01*
X192380Y73041D01*
X192375Y73045D01*
X192364Y73057D01*
X192345Y73075D01*
X192322Y73098D01*
X192297Y73131D01*
X192267Y73165D01*
X192237Y73207D01*
X192204Y73253D01*
X191929Y73687D01*
X192193D01*
X192403Y73355D01*
Y73352D01*
X192408Y73348D01*
X192412Y73341D01*
X192419Y73332D01*
X192435Y73306D01*
X192456Y73274D01*
X192482Y73239D01*
X192507Y73202D01*
X192532Y73168D01*
X192555Y73135D01*
X192558Y73133D01*
X192565Y73124D01*
X192576Y73110D01*
X192592Y73094D01*
X192627Y73059D01*
X192646Y73043D01*
X192664Y73029D01*
X192666Y73027D01*
X192671Y73024D01*
X192680Y73020D01*
X192694Y73013D01*
X192708Y73006D01*
X192724Y72999D01*
X192761Y72988D01*
X192763D01*
X192768Y72985D01*
X192777D01*
X192789Y72983D01*
X192805Y72980D01*
X192823D01*
X192849Y72978D01*
X193121D01*
Y73687D01*
X193334D01*
Y72089D01*
D02*
G37*
G36*
X348034Y157089D02*
X347292D01*
X347274Y157091D01*
X347253D01*
X347205Y157094D01*
X347154Y157100D01*
X347098Y157107D01*
X347047Y157119D01*
X347022Y157126D01*
X347001Y157133D01*
X346999D01*
X346997Y157135D01*
X346983Y157142D01*
X346962Y157151D01*
X346937Y157167D01*
X346909Y157188D01*
X346879Y157216D01*
X346851Y157248D01*
X346823Y157285D01*
Y157288D01*
X346821Y157290D01*
X346812Y157304D01*
X346803Y157327D01*
X346789Y157357D01*
X346777Y157392D01*
X346766Y157433D01*
X346759Y157477D01*
X346756Y157526D01*
Y157528D01*
Y157532D01*
Y157542D01*
X346759Y157553D01*
Y157569D01*
X346761Y157586D01*
X346770Y157625D01*
X346784Y157671D01*
X346803Y157720D01*
X346830Y157768D01*
X346849Y157791D01*
X346867Y157814D01*
X346870Y157817D01*
X346872Y157819D01*
X346879Y157826D01*
X346888Y157833D01*
X346900Y157842D01*
X346914Y157851D01*
X346932Y157863D01*
X346951Y157877D01*
X346974Y157888D01*
X346999Y157900D01*
X347027Y157914D01*
X347057Y157925D01*
X347091Y157934D01*
X347126Y157946D01*
X347165Y157953D01*
X347207Y157960D01*
X347202Y157962D01*
X347193Y157967D01*
X347179Y157976D01*
X347161Y157985D01*
X347119Y158011D01*
X347098Y158027D01*
X347080Y158041D01*
X347075Y158045D01*
X347064Y158057D01*
X347045Y158075D01*
X347022Y158098D01*
X346997Y158131D01*
X346967Y158165D01*
X346937Y158207D01*
X346904Y158253D01*
X346629Y158687D01*
X346893D01*
X347103Y158355D01*
Y158352D01*
X347108Y158348D01*
X347112Y158341D01*
X347119Y158332D01*
X347135Y158306D01*
X347156Y158274D01*
X347182Y158239D01*
X347207Y158202D01*
X347232Y158168D01*
X347255Y158135D01*
X347258Y158133D01*
X347265Y158124D01*
X347276Y158110D01*
X347292Y158094D01*
X347327Y158059D01*
X347345Y158043D01*
X347364Y158029D01*
X347366Y158027D01*
X347371Y158024D01*
X347380Y158020D01*
X347394Y158013D01*
X347408Y158006D01*
X347424Y157999D01*
X347461Y157987D01*
X347463D01*
X347468Y157985D01*
X347477D01*
X347489Y157983D01*
X347505Y157981D01*
X347523D01*
X347549Y157978D01*
X347821D01*
Y158687D01*
X348034D01*
Y157089D01*
D02*
G37*
G36*
X344634Y158304D02*
X345329D01*
Y158124D01*
X344597Y157089D01*
X344437D01*
Y158124D01*
X344220D01*
Y158304D01*
X344437D01*
Y158687D01*
X344634D01*
Y158304D01*
D02*
G37*
G36*
X345962Y157438D02*
X345964Y157440D01*
X345976Y157449D01*
X345989Y157463D01*
X346013Y157479D01*
X346038Y157500D01*
X346070Y157523D01*
X346107Y157549D01*
X346149Y157574D01*
X346151D01*
X346153Y157576D01*
X346167Y157586D01*
X346191Y157597D01*
X346218Y157611D01*
X346251Y157627D01*
X346285Y157643D01*
X346320Y157659D01*
X346355Y157673D01*
Y157484D01*
X346352D01*
X346348Y157479D01*
X346338Y157477D01*
X346327Y157470D01*
X346313Y157463D01*
X346297Y157454D01*
X346257Y157431D01*
X346211Y157405D01*
X346165Y157373D01*
X346117Y157336D01*
X346068Y157297D01*
X346066Y157294D01*
X346063Y157292D01*
X346057Y157285D01*
X346047Y157278D01*
X346026Y157255D01*
X345999Y157228D01*
X345971Y157195D01*
X345941Y157158D01*
X345916Y157121D01*
X345893Y157082D01*
X345765D01*
Y158687D01*
X345962D01*
Y157438D01*
D02*
G37*
G36*
X191451Y200818D02*
X191469Y200816D01*
X191490Y200811D01*
X191513Y200806D01*
X191539Y200802D01*
X191594Y200783D01*
X191624Y200769D01*
X191652Y200756D01*
X191682Y200737D01*
X191712Y200716D01*
X191742Y200693D01*
X191770Y200665D01*
X191772Y200663D01*
X191777Y200659D01*
X191783Y200649D01*
X191793Y200638D01*
X191804Y200624D01*
X191816Y200606D01*
X191830Y200585D01*
X191841Y200559D01*
X191855Y200534D01*
X191869Y200504D01*
X191881Y200474D01*
X191892Y200439D01*
X191901Y200402D01*
X191908Y200363D01*
X191913Y200324D01*
X191915Y200280D01*
Y200259D01*
X191913Y200245D01*
X191911Y200227D01*
X191908Y200206D01*
X191904Y200183D01*
X191899Y200157D01*
X191885Y200102D01*
X191862Y200044D01*
X191848Y200014D01*
X191832Y199986D01*
X191811Y199959D01*
X191790Y199931D01*
X191788Y199929D01*
X191783Y199924D01*
X191777Y199917D01*
X191767Y199910D01*
X191756Y199899D01*
X191740Y199887D01*
X191723Y199873D01*
X191703Y199859D01*
X191680Y199846D01*
X191656Y199832D01*
X191601Y199806D01*
X191536Y199785D01*
X191502Y199778D01*
X191465Y199774D01*
X191439Y199970D01*
X191442D01*
X191446Y199972D01*
X191455Y199975D01*
X191467Y199977D01*
X191481Y199979D01*
X191497Y199984D01*
X191532Y199996D01*
X191573Y200012D01*
X191613Y200033D01*
X191649Y200056D01*
X191682Y200083D01*
X191684Y200088D01*
X191693Y200097D01*
X191705Y200116D01*
X191717Y200139D01*
X191730Y200167D01*
X191742Y200201D01*
X191751Y200240D01*
X191753Y200282D01*
Y200296D01*
X191751Y200305D01*
X191749Y200331D01*
X191742Y200363D01*
X191730Y200400D01*
X191714Y200439D01*
X191691Y200478D01*
X191659Y200515D01*
X191654Y200520D01*
X191640Y200532D01*
X191619Y200545D01*
X191592Y200564D01*
X191557Y200582D01*
X191518Y200596D01*
X191472Y200608D01*
X191421Y200612D01*
X191419D01*
X191414D01*
X191407D01*
X191398Y200610D01*
X191372Y200608D01*
X191342Y200601D01*
X191305Y200592D01*
X191268Y200575D01*
X191231Y200552D01*
X191197Y200522D01*
X191192Y200518D01*
X191183Y200506D01*
X191169Y200488D01*
X191153Y200462D01*
X191137Y200430D01*
X191123Y200391D01*
X191114Y200347D01*
X191109Y200298D01*
Y200277D01*
X191111Y200261D01*
X191114Y200240D01*
X191118Y200217D01*
X191123Y200190D01*
X191130Y200160D01*
X190956Y200183D01*
Y200194D01*
X190959Y200203D01*
Y200234D01*
X190954Y200259D01*
X190949Y200289D01*
X190943Y200324D01*
X190931Y200363D01*
X190915Y200400D01*
X190894Y200439D01*
Y200442D01*
X190892Y200444D01*
X190883Y200455D01*
X190866Y200471D01*
X190846Y200490D01*
X190816Y200508D01*
X190781Y200525D01*
X190742Y200536D01*
X190718Y200541D01*
X190693D01*
X190691D01*
X190689D01*
X190675D01*
X190656Y200536D01*
X190631Y200532D01*
X190603Y200522D01*
X190573Y200511D01*
X190543Y200492D01*
X190515Y200467D01*
X190513Y200465D01*
X190504Y200453D01*
X190492Y200437D01*
X190478Y200416D01*
X190467Y200388D01*
X190455Y200356D01*
X190446Y200319D01*
X190444Y200277D01*
Y200259D01*
X190448Y200238D01*
X190453Y200210D01*
X190462Y200180D01*
X190474Y200150D01*
X190492Y200118D01*
X190515Y200088D01*
X190518Y200086D01*
X190529Y200077D01*
X190545Y200063D01*
X190568Y200046D01*
X190598Y200030D01*
X190635Y200014D01*
X190679Y200000D01*
X190730Y199991D01*
X190695Y199795D01*
X190693D01*
X190686Y199797D01*
X190677Y199799D01*
X190663Y199802D01*
X190647Y199806D01*
X190628Y199813D01*
X190585Y199827D01*
X190534Y199850D01*
X190483Y199878D01*
X190434Y199913D01*
X190391Y199956D01*
X190388Y199959D01*
X190386Y199963D01*
X190381Y199970D01*
X190374Y199979D01*
X190365Y199991D01*
X190356Y200007D01*
X190347Y200023D01*
X190335Y200044D01*
X190317Y200090D01*
X190298Y200144D01*
X190287Y200206D01*
X190282Y200238D01*
Y200296D01*
X190284Y200321D01*
X190289Y200351D01*
X190296Y200388D01*
X190307Y200430D01*
X190321Y200471D01*
X190340Y200513D01*
Y200515D01*
X190342Y200518D01*
X190349Y200532D01*
X190363Y200552D01*
X190379Y200575D01*
X190402Y200603D01*
X190427Y200631D01*
X190457Y200659D01*
X190492Y200682D01*
X190497Y200684D01*
X190508Y200691D01*
X190529Y200700D01*
X190554Y200712D01*
X190585Y200723D01*
X190619Y200732D01*
X190658Y200740D01*
X190698Y200742D01*
X190702D01*
X190716D01*
X190735Y200740D01*
X190760Y200735D01*
X190790Y200728D01*
X190823Y200716D01*
X190855Y200703D01*
X190887Y200684D01*
X190892Y200682D01*
X190901Y200675D01*
X190917Y200661D01*
X190936Y200642D01*
X190956Y200619D01*
X190980Y200592D01*
X191000Y200559D01*
X191021Y200520D01*
Y200522D01*
X191024Y200527D01*
X191026Y200534D01*
X191028Y200543D01*
X191037Y200569D01*
X191051Y200601D01*
X191070Y200638D01*
X191093Y200675D01*
X191123Y200709D01*
X191157Y200742D01*
X191162Y200744D01*
X191176Y200753D01*
X191199Y200767D01*
X191229Y200781D01*
X191266Y200795D01*
X191310Y200809D01*
X191361Y200818D01*
X191416Y200820D01*
X191419D01*
X191425D01*
X191437D01*
X191451Y200818D01*
D02*
G37*
G36*
X191887Y199383D02*
X191555Y199173D01*
X191552D01*
X191548Y199169D01*
X191541Y199164D01*
X191532Y199157D01*
X191506Y199141D01*
X191474Y199120D01*
X191439Y199095D01*
X191402Y199069D01*
X191368Y199044D01*
X191335Y199021D01*
X191333Y199019D01*
X191324Y199012D01*
X191310Y199000D01*
X191294Y198984D01*
X191259Y198949D01*
X191243Y198931D01*
X191229Y198912D01*
X191227Y198910D01*
X191224Y198905D01*
X191220Y198896D01*
X191213Y198882D01*
X191206Y198868D01*
X191199Y198852D01*
X191188Y198815D01*
Y198813D01*
X191185Y198808D01*
Y198799D01*
X191183Y198787D01*
X191181Y198771D01*
Y198753D01*
X191178Y198727D01*
Y198455D01*
X191887D01*
Y198242D01*
X190289D01*
Y198984D01*
X190291Y199002D01*
Y199023D01*
X190294Y199072D01*
X190300Y199123D01*
X190307Y199178D01*
X190319Y199229D01*
X190326Y199254D01*
X190333Y199275D01*
Y199277D01*
X190335Y199279D01*
X190342Y199293D01*
X190351Y199314D01*
X190367Y199340D01*
X190388Y199367D01*
X190416Y199397D01*
X190448Y199425D01*
X190485Y199453D01*
X190488D01*
X190490Y199455D01*
X190504Y199464D01*
X190527Y199474D01*
X190557Y199487D01*
X190592Y199499D01*
X190633Y199511D01*
X190677Y199518D01*
X190726Y199520D01*
X190728D01*
X190732D01*
X190742D01*
X190753Y199518D01*
X190769D01*
X190786Y199515D01*
X190825Y199506D01*
X190871Y199492D01*
X190919Y199474D01*
X190968Y199446D01*
X190991Y199427D01*
X191014Y199409D01*
X191016Y199407D01*
X191019Y199404D01*
X191026Y199397D01*
X191033Y199388D01*
X191042Y199376D01*
X191051Y199363D01*
X191063Y199344D01*
X191077Y199326D01*
X191088Y199303D01*
X191100Y199277D01*
X191114Y199249D01*
X191125Y199220D01*
X191134Y199185D01*
X191146Y199150D01*
X191153Y199111D01*
X191160Y199069D01*
X191162Y199074D01*
X191167Y199083D01*
X191176Y199097D01*
X191185Y199116D01*
X191211Y199157D01*
X191227Y199178D01*
X191241Y199196D01*
X191245Y199201D01*
X191257Y199213D01*
X191275Y199231D01*
X191298Y199254D01*
X191331Y199279D01*
X191365Y199310D01*
X191407Y199340D01*
X191453Y199372D01*
X191887Y199647D01*
Y199383D01*
D02*
G37*
G36*
X368984Y131696D02*
X369002Y131694D01*
X369023Y131692D01*
X369049Y131687D01*
X369074Y131682D01*
X369134Y131668D01*
X369196Y131645D01*
X369229Y131631D01*
X369259Y131613D01*
X369291Y131595D01*
X369321Y131571D01*
X369323Y131569D01*
X369330Y131564D01*
X369340Y131555D01*
X369351Y131544D01*
X369365Y131527D01*
X369383Y131509D01*
X369400Y131486D01*
X369418Y131460D01*
X369437Y131433D01*
X369453Y131400D01*
X369469Y131366D01*
X369485Y131329D01*
X369497Y131290D01*
X369506Y131246D01*
X369513Y131200D01*
X369515Y131151D01*
Y131130D01*
X369513Y131114D01*
X369511Y131096D01*
X369508Y131075D01*
X369506Y131049D01*
X369499Y131024D01*
X369485Y130966D01*
X369464Y130908D01*
X369450Y130878D01*
X369434Y130848D01*
X369416Y130821D01*
X369395Y130793D01*
X369393Y130791D01*
X369390Y130786D01*
X369381Y130781D01*
X369372Y130772D01*
X369360Y130761D01*
X369346Y130749D01*
X369328Y130735D01*
X369307Y130724D01*
X369286Y130710D01*
X369261Y130696D01*
X369206Y130670D01*
X369141Y130650D01*
X369106Y130643D01*
X369069Y130638D01*
X369053Y130844D01*
X369055D01*
X369060D01*
X369067Y130846D01*
X369078Y130848D01*
X369104Y130855D01*
X369139Y130865D01*
X369173Y130878D01*
X369213Y130897D01*
X369247Y130920D01*
X369280Y130948D01*
X369282Y130952D01*
X369291Y130962D01*
X369303Y130980D01*
X369317Y131005D01*
X369330Y131033D01*
X369342Y131068D01*
X369351Y131107D01*
X369353Y131151D01*
Y131165D01*
X369351Y131174D01*
X369349Y131202D01*
X369340Y131234D01*
X369328Y131273D01*
X369309Y131313D01*
X369282Y131354D01*
X369266Y131373D01*
X369247Y131391D01*
X369245Y131394D01*
X369243Y131396D01*
X369236Y131400D01*
X369229Y131407D01*
X369203Y131423D01*
X369171Y131442D01*
X369132Y131458D01*
X369083Y131474D01*
X369025Y131486D01*
X368995Y131491D01*
X368963D01*
X368961D01*
X368956D01*
X368947D01*
X368935Y131488D01*
X368921D01*
X368905Y131486D01*
X368868Y131479D01*
X368824Y131467D01*
X368780Y131451D01*
X368739Y131428D01*
X368700Y131396D01*
X368697D01*
X368695Y131391D01*
X368684Y131380D01*
X368667Y131359D01*
X368649Y131331D01*
X368633Y131294D01*
X368617Y131253D01*
X368605Y131204D01*
X368600Y131176D01*
Y131132D01*
X368603Y131114D01*
X368605Y131091D01*
X368612Y131063D01*
X368619Y131035D01*
X368630Y131005D01*
X368644Y130975D01*
X368647Y130973D01*
X368651Y130964D01*
X368663Y130950D01*
X368674Y130931D01*
X368690Y130913D01*
X368711Y130895D01*
X368732Y130874D01*
X368757Y130858D01*
X368732Y130673D01*
X367910Y130828D01*
Y131622D01*
X368097D01*
Y130982D01*
X368529Y130897D01*
X368526Y130899D01*
X368524Y130904D01*
X368519Y130911D01*
X368513Y130922D01*
X368506Y130936D01*
X368496Y130952D01*
X368478Y130989D01*
X368460Y131035D01*
X368443Y131086D01*
X368432Y131142D01*
X368427Y131169D01*
Y131220D01*
X368429Y131234D01*
X368432Y131253D01*
X368434Y131273D01*
X368439Y131297D01*
X368446Y131322D01*
X368462Y131377D01*
X368473Y131407D01*
X368490Y131437D01*
X368506Y131467D01*
X368524Y131498D01*
X368547Y131525D01*
X368573Y131553D01*
X368575Y131555D01*
X368580Y131560D01*
X368586Y131567D01*
X368598Y131576D01*
X368614Y131588D01*
X368630Y131599D01*
X368651Y131613D01*
X368674Y131627D01*
X368700Y131638D01*
X368727Y131652D01*
X368760Y131664D01*
X368792Y131675D01*
X368827Y131685D01*
X368866Y131692D01*
X368905Y131696D01*
X368947Y131698D01*
X368949D01*
X368956D01*
X368968D01*
X368984Y131696D01*
D02*
G37*
G36*
X369487Y129938D02*
X368238D01*
X368240Y129936D01*
X368249Y129924D01*
X368263Y129911D01*
X368279Y129887D01*
X368300Y129862D01*
X368323Y129830D01*
X368349Y129793D01*
X368374Y129751D01*
Y129749D01*
X368376Y129746D01*
X368386Y129733D01*
X368397Y129709D01*
X368411Y129682D01*
X368427Y129649D01*
X368443Y129615D01*
X368460Y129580D01*
X368473Y129545D01*
X368284D01*
Y129548D01*
X368279Y129552D01*
X368277Y129562D01*
X368270Y129573D01*
X368263Y129587D01*
X368254Y129603D01*
X368231Y129642D01*
X368205Y129689D01*
X368173Y129735D01*
X368136Y129783D01*
X368097Y129832D01*
X368094Y129834D01*
X368092Y129837D01*
X368085Y129843D01*
X368078Y129853D01*
X368055Y129874D01*
X368027Y129901D01*
X367995Y129929D01*
X367958Y129959D01*
X367921Y129984D01*
X367882Y130008D01*
Y130135D01*
X369487D01*
Y129938D01*
D02*
G37*
G36*
Y129007D02*
X369155Y128797D01*
X369152D01*
X369148Y128793D01*
X369141Y128788D01*
X369132Y128781D01*
X369106Y128765D01*
X369074Y128744D01*
X369039Y128718D01*
X369002Y128693D01*
X368968Y128668D01*
X368935Y128645D01*
X368933Y128642D01*
X368924Y128635D01*
X368910Y128624D01*
X368894Y128608D01*
X368859Y128573D01*
X368843Y128554D01*
X368829Y128536D01*
X368827Y128534D01*
X368824Y128529D01*
X368820Y128520D01*
X368813Y128506D01*
X368806Y128492D01*
X368799Y128476D01*
X368788Y128439D01*
Y128437D01*
X368785Y128432D01*
Y128423D01*
X368783Y128411D01*
X368780Y128395D01*
Y128377D01*
X368778Y128351D01*
Y128079D01*
X369487D01*
Y127866D01*
X367889D01*
Y128608D01*
X367891Y128626D01*
Y128647D01*
X367894Y128695D01*
X367900Y128746D01*
X367907Y128802D01*
X367919Y128852D01*
X367926Y128878D01*
X367933Y128899D01*
Y128901D01*
X367935Y128903D01*
X367942Y128917D01*
X367951Y128938D01*
X367967Y128963D01*
X367988Y128991D01*
X368016Y129021D01*
X368048Y129049D01*
X368085Y129077D01*
X368088D01*
X368090Y129079D01*
X368104Y129088D01*
X368127Y129097D01*
X368157Y129111D01*
X368192Y129123D01*
X368233Y129134D01*
X368277Y129141D01*
X368325Y129144D01*
X368328D01*
X368332D01*
X368342D01*
X368353Y129141D01*
X368369D01*
X368386Y129139D01*
X368425Y129130D01*
X368471Y129116D01*
X368519Y129097D01*
X368568Y129070D01*
X368591Y129051D01*
X368614Y129033D01*
X368617Y129030D01*
X368619Y129028D01*
X368626Y129021D01*
X368633Y129012D01*
X368642Y129000D01*
X368651Y128987D01*
X368663Y128968D01*
X368677Y128949D01*
X368688Y128926D01*
X368700Y128901D01*
X368713Y128873D01*
X368725Y128843D01*
X368734Y128809D01*
X368746Y128774D01*
X368753Y128735D01*
X368760Y128693D01*
X368762Y128698D01*
X368767Y128707D01*
X368776Y128721D01*
X368785Y128739D01*
X368811Y128781D01*
X368827Y128802D01*
X368841Y128820D01*
X368845Y128825D01*
X368857Y128836D01*
X368875Y128855D01*
X368898Y128878D01*
X368931Y128903D01*
X368965Y128933D01*
X369007Y128963D01*
X369053Y128996D01*
X369487Y129271D01*
Y129007D01*
D02*
G37*
G36*
X139667Y196342D02*
X139671Y196337D01*
X139681Y196328D01*
X139694Y196319D01*
X139711Y196305D01*
X139729Y196286D01*
X139752Y196268D01*
X139780Y196247D01*
X139808Y196226D01*
X139840Y196201D01*
X139877Y196176D01*
X139914Y196150D01*
X139955Y196122D01*
X139999Y196095D01*
X140048Y196067D01*
X140096Y196039D01*
X140099Y196037D01*
X140108Y196032D01*
X140122Y196025D01*
X140143Y196014D01*
X140168Y196002D01*
X140196Y195988D01*
X140228Y195972D01*
X140265Y195956D01*
X140307Y195938D01*
X140348Y195917D01*
X140394Y195898D01*
X140443Y195880D01*
X140542Y195843D01*
X140648Y195808D01*
X140651D01*
X140658Y195806D01*
X140669Y195804D01*
X140683Y195799D01*
X140702Y195794D01*
X140725Y195790D01*
X140750Y195783D01*
X140778Y195778D01*
X140810Y195771D01*
X140845Y195764D01*
X140919Y195753D01*
X141000Y195741D01*
X141087Y195734D01*
Y195533D01*
X141085D01*
X141078D01*
X141069D01*
X141055Y195536D01*
X141037D01*
X141014Y195538D01*
X140988Y195540D01*
X140960Y195543D01*
X140928Y195547D01*
X140896Y195552D01*
X140856Y195559D01*
X140817Y195566D01*
X140776Y195573D01*
X140729Y195582D01*
X140635Y195605D01*
X140632D01*
X140623Y195607D01*
X140609Y195612D01*
X140588Y195619D01*
X140565Y195626D01*
X140538Y195635D01*
X140505Y195644D01*
X140471Y195658D01*
X140431Y195672D01*
X140392Y195686D01*
X140304Y195720D01*
X140212Y195762D01*
X140120Y195808D01*
X140117Y195810D01*
X140108Y195815D01*
X140096Y195822D01*
X140078Y195831D01*
X140057Y195843D01*
X140032Y195859D01*
X140004Y195875D01*
X139974Y195894D01*
X139907Y195938D01*
X139838Y195984D01*
X139766Y196037D01*
X139699Y196092D01*
Y195309D01*
X139510D01*
Y196344D01*
X139664D01*
X139667Y196342D01*
D02*
G37*
G36*
X141087Y194907D02*
X140755Y194697D01*
X140752D01*
X140748Y194693D01*
X140741Y194688D01*
X140732Y194681D01*
X140706Y194665D01*
X140674Y194644D01*
X140639Y194618D01*
X140602Y194593D01*
X140568Y194568D01*
X140535Y194545D01*
X140533Y194542D01*
X140524Y194535D01*
X140510Y194524D01*
X140494Y194508D01*
X140459Y194473D01*
X140443Y194455D01*
X140429Y194436D01*
X140427Y194434D01*
X140424Y194429D01*
X140420Y194420D01*
X140413Y194406D01*
X140406Y194392D01*
X140399Y194376D01*
X140387Y194339D01*
Y194337D01*
X140385Y194332D01*
Y194323D01*
X140383Y194311D01*
X140381Y194295D01*
Y194277D01*
X140378Y194251D01*
Y193979D01*
X141087D01*
Y193766D01*
X139489D01*
Y194508D01*
X139491Y194526D01*
Y194547D01*
X139494Y194595D01*
X139500Y194646D01*
X139507Y194702D01*
X139519Y194753D01*
X139526Y194778D01*
X139533Y194799D01*
Y194801D01*
X139535Y194803D01*
X139542Y194817D01*
X139551Y194838D01*
X139567Y194863D01*
X139588Y194891D01*
X139616Y194921D01*
X139648Y194949D01*
X139685Y194977D01*
X139688D01*
X139690Y194979D01*
X139704Y194988D01*
X139727Y194997D01*
X139757Y195011D01*
X139792Y195023D01*
X139833Y195034D01*
X139877Y195041D01*
X139926Y195044D01*
X139928D01*
X139932D01*
X139942D01*
X139953Y195041D01*
X139969D01*
X139986Y195039D01*
X140025Y195030D01*
X140071Y195016D01*
X140120Y194997D01*
X140168Y194970D01*
X140191Y194951D01*
X140214Y194933D01*
X140217Y194930D01*
X140219Y194928D01*
X140226Y194921D01*
X140233Y194912D01*
X140242Y194900D01*
X140251Y194887D01*
X140263Y194868D01*
X140277Y194850D01*
X140288Y194826D01*
X140300Y194801D01*
X140314Y194773D01*
X140325Y194743D01*
X140334Y194709D01*
X140346Y194674D01*
X140353Y194635D01*
X140360Y194593D01*
X140362Y194598D01*
X140367Y194607D01*
X140376Y194621D01*
X140385Y194639D01*
X140411Y194681D01*
X140427Y194702D01*
X140441Y194720D01*
X140445Y194725D01*
X140457Y194736D01*
X140475Y194755D01*
X140498Y194778D01*
X140531Y194803D01*
X140565Y194833D01*
X140607Y194863D01*
X140653Y194896D01*
X141087Y195171D01*
Y194907D01*
D02*
G37*
G36*
X148567Y196244D02*
X148583Y196242D01*
X148604Y196239D01*
X148627Y196235D01*
X148652Y196228D01*
X148706Y196212D01*
X148736Y196200D01*
X148763Y196184D01*
X148793Y196168D01*
X148821Y196149D01*
X148849Y196126D01*
X148877Y196101D01*
X148879Y196099D01*
X148883Y196094D01*
X148890Y196087D01*
X148897Y196075D01*
X148909Y196059D01*
X148920Y196043D01*
X148932Y196022D01*
X148946Y195999D01*
X148960Y195974D01*
X148971Y195944D01*
X148983Y195912D01*
X148994Y195879D01*
X149001Y195842D01*
X149008Y195803D01*
X149013Y195764D01*
X149015Y195720D01*
Y195697D01*
X149013Y195680D01*
X149011Y195660D01*
X149008Y195637D01*
X149004Y195611D01*
X148997Y195583D01*
X148980Y195521D01*
X148969Y195489D01*
X148957Y195459D01*
X148941Y195426D01*
X148923Y195394D01*
X148902Y195364D01*
X148877Y195336D01*
X148874Y195334D01*
X148870Y195329D01*
X148863Y195322D01*
X148851Y195313D01*
X148837Y195304D01*
X148821Y195290D01*
X148803Y195279D01*
X148779Y195265D01*
X148756Y195251D01*
X148729Y195239D01*
X148671Y195216D01*
X148636Y195207D01*
X148602Y195200D01*
X148565Y195195D01*
X148528Y195193D01*
X148525D01*
X148521D01*
X148512D01*
X148502Y195195D01*
X148488D01*
X148472Y195198D01*
X148435Y195202D01*
X148394Y195212D01*
X148352Y195225D01*
X148308Y195246D01*
X148267Y195272D01*
X148264D01*
X148262Y195276D01*
X148250Y195285D01*
X148232Y195304D01*
X148209Y195329D01*
X148186Y195362D01*
X148160Y195401D01*
X148140Y195445D01*
X148124Y195498D01*
Y195496D01*
X148121Y195493D01*
X148119Y195486D01*
X148114Y195477D01*
X148105Y195456D01*
X148091Y195429D01*
X148073Y195399D01*
X148049Y195369D01*
X148024Y195341D01*
X147996Y195316D01*
X147992Y195313D01*
X147983Y195306D01*
X147964Y195297D01*
X147941Y195288D01*
X147911Y195276D01*
X147876Y195267D01*
X147837Y195260D01*
X147795Y195258D01*
X147793D01*
X147789D01*
X147779D01*
X147765Y195260D01*
X147751Y195262D01*
X147733Y195265D01*
X147694Y195274D01*
X147648Y195288D01*
X147599Y195311D01*
X147574Y195325D01*
X147548Y195341D01*
X147525Y195362D01*
X147502Y195382D01*
X147500Y195385D01*
X147497Y195389D01*
X147491Y195396D01*
X147484Y195406D01*
X147474Y195417D01*
X147465Y195433D01*
X147454Y195452D01*
X147442Y195470D01*
X147431Y195493D01*
X147419Y195519D01*
X147410Y195546D01*
X147400Y195577D01*
X147387Y195641D01*
X147384Y195678D01*
X147382Y195715D01*
Y195736D01*
X147384Y195750D01*
X147387Y195768D01*
X147389Y195789D01*
X147391Y195812D01*
X147398Y195835D01*
X147412Y195891D01*
X147433Y195946D01*
X147447Y195974D01*
X147463Y196002D01*
X147484Y196027D01*
X147504Y196052D01*
X147507Y196055D01*
X147509Y196057D01*
X147516Y196064D01*
X147525Y196073D01*
X147539Y196082D01*
X147553Y196094D01*
X147588Y196117D01*
X147631Y196140D01*
X147682Y196161D01*
X147740Y196177D01*
X147770Y196179D01*
X147802Y196182D01*
X147805D01*
X147807D01*
X147821D01*
X147842Y196179D01*
X147867Y196175D01*
X147899Y196168D01*
X147932Y196156D01*
X147964Y196142D01*
X147996Y196122D01*
X148001Y196119D01*
X148010Y196110D01*
X148024Y196096D01*
X148043Y196078D01*
X148063Y196052D01*
X148084Y196022D01*
X148105Y195988D01*
X148124Y195946D01*
Y195948D01*
X148126Y195953D01*
X148128Y195960D01*
X148133Y195969D01*
X148144Y195997D01*
X148160Y196029D01*
X148184Y196064D01*
X148209Y196101D01*
X148241Y196135D01*
X148278Y196168D01*
X148281D01*
X148283Y196170D01*
X148297Y196179D01*
X148320Y196193D01*
X148350Y196207D01*
X148387Y196221D01*
X148431Y196235D01*
X148479Y196244D01*
X148532Y196246D01*
X148535D01*
X148542D01*
X148553D01*
X148567Y196244D01*
D02*
G37*
G36*
X148987Y194807D02*
X148655Y194597D01*
X148652D01*
X148648Y194592D01*
X148641Y194588D01*
X148632Y194581D01*
X148606Y194565D01*
X148574Y194544D01*
X148539Y194518D01*
X148502Y194493D01*
X148468Y194468D01*
X148435Y194445D01*
X148433Y194442D01*
X148424Y194435D01*
X148410Y194424D01*
X148394Y194408D01*
X148359Y194373D01*
X148343Y194354D01*
X148329Y194336D01*
X148327Y194334D01*
X148324Y194329D01*
X148320Y194320D01*
X148313Y194306D01*
X148306Y194292D01*
X148299Y194276D01*
X148287Y194239D01*
Y194237D01*
X148285Y194232D01*
Y194223D01*
X148283Y194211D01*
X148281Y194195D01*
Y194177D01*
X148278Y194151D01*
Y193879D01*
X148987D01*
Y193666D01*
X147389D01*
Y194408D01*
X147391Y194426D01*
Y194447D01*
X147394Y194495D01*
X147400Y194546D01*
X147407Y194602D01*
X147419Y194652D01*
X147426Y194678D01*
X147433Y194699D01*
Y194701D01*
X147435Y194703D01*
X147442Y194717D01*
X147451Y194738D01*
X147467Y194763D01*
X147488Y194791D01*
X147516Y194821D01*
X147548Y194849D01*
X147585Y194877D01*
X147588D01*
X147590Y194879D01*
X147604Y194888D01*
X147627Y194897D01*
X147657Y194911D01*
X147692Y194923D01*
X147733Y194934D01*
X147777Y194941D01*
X147826Y194944D01*
X147828D01*
X147832D01*
X147842D01*
X147853Y194941D01*
X147869D01*
X147886Y194939D01*
X147925Y194930D01*
X147971Y194916D01*
X148020Y194897D01*
X148068Y194870D01*
X148091Y194851D01*
X148114Y194833D01*
X148117Y194830D01*
X148119Y194828D01*
X148126Y194821D01*
X148133Y194812D01*
X148142Y194800D01*
X148151Y194787D01*
X148163Y194768D01*
X148177Y194749D01*
X148188Y194726D01*
X148200Y194701D01*
X148214Y194673D01*
X148225Y194643D01*
X148234Y194609D01*
X148246Y194574D01*
X148253Y194535D01*
X148260Y194493D01*
X148262Y194498D01*
X148267Y194507D01*
X148276Y194521D01*
X148285Y194539D01*
X148311Y194581D01*
X148327Y194602D01*
X148341Y194620D01*
X148345Y194625D01*
X148357Y194636D01*
X148375Y194655D01*
X148398Y194678D01*
X148431Y194703D01*
X148465Y194733D01*
X148507Y194763D01*
X148553Y194796D01*
X148987Y195071D01*
Y194807D01*
D02*
G37*
G36*
X214345Y138002D02*
X214373D01*
X214403Y138000D01*
X214435Y137997D01*
X214509Y137990D01*
X214585Y137979D01*
X214659Y137965D01*
X214694Y137956D01*
X214728Y137944D01*
X214731D01*
X214735Y137942D01*
X214745Y137937D01*
X214756Y137933D01*
X214772Y137928D01*
X214789Y137919D01*
X214828Y137900D01*
X214869Y137877D01*
X214915Y137847D01*
X214957Y137813D01*
X214996Y137771D01*
Y137769D01*
X215001Y137766D01*
X215006Y137759D01*
X215010Y137750D01*
X215017Y137739D01*
X215026Y137727D01*
X215043Y137692D01*
X215059Y137651D01*
X215075Y137602D01*
X215084Y137545D01*
X215089Y137482D01*
Y137459D01*
X215087Y137443D01*
X215084Y137425D01*
X215079Y137401D01*
X215075Y137376D01*
X215068Y137348D01*
X215059Y137320D01*
X215050Y137291D01*
X215036Y137260D01*
X215019Y137230D01*
X215001Y137200D01*
X214978Y137170D01*
X214952Y137143D01*
X214925Y137117D01*
X214922Y137115D01*
X214915Y137110D01*
X214904Y137103D01*
X214885Y137092D01*
X214865Y137080D01*
X214837Y137069D01*
X214805Y137053D01*
X214768Y137039D01*
X214726Y137025D01*
X214678Y137011D01*
X214625Y136997D01*
X214564Y136986D01*
X214500Y136974D01*
X214430Y136967D01*
X214354Y136962D01*
X214273Y136960D01*
X214271D01*
X214262D01*
X214246D01*
X214227D01*
X214202Y136962D01*
X214174D01*
X214144Y136965D01*
X214109Y136967D01*
X214038Y136974D01*
X213962Y136986D01*
X213885Y136999D01*
X213851Y137009D01*
X213816Y137018D01*
X213814D01*
X213809Y137020D01*
X213800Y137025D01*
X213788Y137030D01*
X213772Y137034D01*
X213756Y137043D01*
X213717Y137062D01*
X213675Y137085D01*
X213631Y137115D01*
X213587Y137150D01*
X213550Y137191D01*
Y137194D01*
X213546Y137196D01*
X213541Y137203D01*
X213537Y137212D01*
X213527Y137223D01*
X213520Y137237D01*
X213502Y137272D01*
X213486Y137314D01*
X213470Y137362D01*
X213460Y137420D01*
X213456Y137482D01*
Y137503D01*
X213458Y137528D01*
X213462Y137558D01*
X213470Y137593D01*
X213479Y137630D01*
X213490Y137669D01*
X213509Y137706D01*
Y137709D01*
X213511Y137711D01*
X213518Y137723D01*
X213529Y137741D01*
X213546Y137764D01*
X213569Y137789D01*
X213594Y137817D01*
X213624Y137843D01*
X213659Y137868D01*
X213664Y137870D01*
X213675Y137880D01*
X213696Y137889D01*
X213726Y137905D01*
X213760Y137919D01*
X213800Y137937D01*
X213846Y137953D01*
X213897Y137967D01*
X213899D01*
X213904Y137970D01*
X213911Y137972D01*
X213922Y137974D01*
X213936Y137977D01*
X213952Y137979D01*
X213973Y137984D01*
X213996Y137986D01*
X214022Y137990D01*
X214049Y137993D01*
X214082Y137995D01*
X214114Y138000D01*
X214151Y138002D01*
X214188D01*
X214229Y138004D01*
X214273D01*
X214276D01*
X214285D01*
X214301D01*
X214319D01*
X214345Y138002D01*
D02*
G37*
G36*
X215061Y135690D02*
X215059D01*
X215050D01*
X215036D01*
X215017Y135692D01*
X214996Y135694D01*
X214973Y135699D01*
X214950Y135704D01*
X214925Y135713D01*
X214922D01*
X214920Y135715D01*
X214906Y135720D01*
X214885Y135729D01*
X214858Y135743D01*
X214825Y135761D01*
X214789Y135784D01*
X214752Y135810D01*
X214712Y135842D01*
X214710D01*
X214708Y135847D01*
X214694Y135858D01*
X214673Y135879D01*
X214643Y135909D01*
X214608Y135944D01*
X214567Y135988D01*
X214521Y136041D01*
X214472Y136099D01*
X214470Y136101D01*
X214463Y136110D01*
X214451Y136124D01*
X214437Y136140D01*
X214419Y136161D01*
X214398Y136186D01*
X214375Y136212D01*
X214350Y136242D01*
X214294Y136300D01*
X214239Y136357D01*
X214211Y136385D01*
X214183Y136410D01*
X214158Y136433D01*
X214132Y136452D01*
X214130D01*
X214128Y136457D01*
X214121Y136461D01*
X214112Y136466D01*
X214086Y136482D01*
X214056Y136501D01*
X214019Y136517D01*
X213980Y136533D01*
X213936Y136542D01*
X213895Y136547D01*
X213892D01*
X213890D01*
X213876Y136544D01*
X213853Y136542D01*
X213827Y136535D01*
X213795Y136526D01*
X213763Y136510D01*
X213731Y136489D01*
X213698Y136461D01*
X213693Y136457D01*
X213684Y136445D01*
X213673Y136429D01*
X213657Y136404D01*
X213643Y136371D01*
X213629Y136334D01*
X213620Y136290D01*
X213617Y136242D01*
Y136228D01*
X213620Y136219D01*
X213622Y136191D01*
X213629Y136159D01*
X213638Y136124D01*
X213654Y136085D01*
X213675Y136048D01*
X213703Y136013D01*
X213707Y136009D01*
X213719Y135999D01*
X213737Y135985D01*
X213765Y135971D01*
X213797Y135955D01*
X213839Y135942D01*
X213885Y135932D01*
X213938Y135928D01*
X213918Y135727D01*
X213915D01*
X213908Y135729D01*
X213897D01*
X213881Y135731D01*
X213862Y135736D01*
X213841Y135740D01*
X213816Y135747D01*
X213791Y135754D01*
X213735Y135773D01*
X213680Y135801D01*
X213652Y135817D01*
X213624Y135837D01*
X213599Y135858D01*
X213576Y135881D01*
X213573Y135884D01*
X213571Y135888D01*
X213564Y135895D01*
X213557Y135907D01*
X213548Y135921D01*
X213539Y135937D01*
X213527Y135955D01*
X213516Y135978D01*
X213504Y136004D01*
X213493Y136032D01*
X213483Y136062D01*
X213474Y136094D01*
X213467Y136129D01*
X213460Y136165D01*
X213458Y136205D01*
X213456Y136246D01*
Y136269D01*
X213458Y136286D01*
X213460Y136304D01*
X213462Y136327D01*
X213467Y136353D01*
X213472Y136378D01*
X213488Y136438D01*
X213511Y136498D01*
X213525Y136528D01*
X213541Y136558D01*
X213562Y136586D01*
X213585Y136611D01*
X213587Y136614D01*
X213590Y136618D01*
X213599Y136623D01*
X213608Y136632D01*
X213620Y136644D01*
X213636Y136655D01*
X213652Y136667D01*
X213673Y136681D01*
X213717Y136704D01*
X213772Y136727D01*
X213800Y136736D01*
X213832Y136741D01*
X213864Y136745D01*
X213899Y136748D01*
X213904D01*
X213915D01*
X213934Y136745D01*
X213959Y136743D01*
X213987Y136738D01*
X214019Y136729D01*
X214054Y136720D01*
X214089Y136706D01*
X214093Y136704D01*
X214105Y136699D01*
X214123Y136690D01*
X214149Y136676D01*
X214176Y136658D01*
X214211Y136635D01*
X214246Y136607D01*
X214285Y136574D01*
X214289Y136570D01*
X214303Y136558D01*
X214315Y136547D01*
X214327Y136535D01*
X214340Y136521D01*
X214359Y136503D01*
X214377Y136484D01*
X214398Y136461D01*
X214421Y136438D01*
X214447Y136410D01*
X214472Y136380D01*
X214502Y136348D01*
X214532Y136311D01*
X214564Y136274D01*
X214567Y136272D01*
X214571Y136267D01*
X214578Y136258D01*
X214587Y136246D01*
X214601Y136232D01*
X214615Y136216D01*
X214645Y136179D01*
X214680Y136140D01*
X214715Y136103D01*
X214745Y136071D01*
X214756Y136057D01*
X214768Y136045D01*
X214770Y136043D01*
X214777Y136036D01*
X214786Y136027D01*
X214800Y136015D01*
X214816Y136004D01*
X214832Y135990D01*
X214872Y135962D01*
Y136750D01*
X215061D01*
Y135690D01*
D02*
G37*
G36*
Y135329D02*
X214728Y135119D01*
X214726D01*
X214721Y135115D01*
X214715Y135110D01*
X214705Y135103D01*
X214680Y135087D01*
X214648Y135066D01*
X214613Y135041D01*
X214576Y135015D01*
X214541Y134990D01*
X214509Y134967D01*
X214507Y134964D01*
X214497Y134957D01*
X214484Y134946D01*
X214467Y134930D01*
X214433Y134895D01*
X214417Y134877D01*
X214403Y134858D01*
X214400Y134856D01*
X214398Y134851D01*
X214393Y134842D01*
X214387Y134828D01*
X214380Y134814D01*
X214373Y134798D01*
X214361Y134761D01*
Y134759D01*
X214359Y134754D01*
Y134745D01*
X214356Y134733D01*
X214354Y134717D01*
Y134699D01*
X214352Y134673D01*
Y134401D01*
X215061D01*
Y134188D01*
X213462D01*
Y134930D01*
X213465Y134948D01*
Y134969D01*
X213467Y135018D01*
X213474Y135068D01*
X213481Y135124D01*
X213493Y135175D01*
X213499Y135200D01*
X213506Y135221D01*
Y135223D01*
X213509Y135225D01*
X213516Y135239D01*
X213525Y135260D01*
X213541Y135285D01*
X213562Y135313D01*
X213590Y135343D01*
X213622Y135371D01*
X213659Y135399D01*
X213661D01*
X213664Y135401D01*
X213677Y135410D01*
X213701Y135419D01*
X213731Y135433D01*
X213765Y135445D01*
X213807Y135456D01*
X213851Y135463D01*
X213899Y135466D01*
X213901D01*
X213906D01*
X213915D01*
X213927Y135463D01*
X213943D01*
X213959Y135461D01*
X213999Y135452D01*
X214045Y135438D01*
X214093Y135419D01*
X214142Y135392D01*
X214165Y135373D01*
X214188Y135355D01*
X214190Y135352D01*
X214193Y135350D01*
X214199Y135343D01*
X214206Y135334D01*
X214216Y135322D01*
X214225Y135309D01*
X214236Y135290D01*
X214250Y135272D01*
X214262Y135248D01*
X214273Y135223D01*
X214287Y135195D01*
X214299Y135165D01*
X214308Y135131D01*
X214319Y135096D01*
X214327Y135057D01*
X214333Y135015D01*
X214336Y135020D01*
X214340Y135029D01*
X214350Y135043D01*
X214359Y135061D01*
X214384Y135103D01*
X214400Y135124D01*
X214414Y135142D01*
X214419Y135147D01*
X214430Y135158D01*
X214449Y135177D01*
X214472Y135200D01*
X214504Y135225D01*
X214539Y135255D01*
X214581Y135285D01*
X214627Y135318D01*
X215061Y135593D01*
Y135329D01*
D02*
G37*
G36*
X370411Y185792D02*
X370409Y185774D01*
Y185753D01*
X370407Y185705D01*
X370400Y185654D01*
X370393Y185598D01*
X370381Y185547D01*
X370374Y185522D01*
X370367Y185501D01*
Y185499D01*
X370365Y185497D01*
X370358Y185483D01*
X370349Y185462D01*
X370333Y185437D01*
X370312Y185409D01*
X370284Y185379D01*
X370252Y185351D01*
X370215Y185323D01*
X370213D01*
X370210Y185321D01*
X370196Y185312D01*
X370173Y185303D01*
X370143Y185289D01*
X370109Y185277D01*
X370067Y185266D01*
X370023Y185259D01*
X369974Y185256D01*
X369972D01*
X369968D01*
X369958D01*
X369947Y185259D01*
X369931D01*
X369915Y185261D01*
X369875Y185270D01*
X369829Y185284D01*
X369780Y185303D01*
X369732Y185330D01*
X369709Y185349D01*
X369686Y185367D01*
X369684Y185370D01*
X369681Y185372D01*
X369674Y185379D01*
X369667Y185388D01*
X369658Y185400D01*
X369649Y185414D01*
X369637Y185432D01*
X369623Y185450D01*
X369612Y185474D01*
X369600Y185499D01*
X369586Y185527D01*
X369575Y185557D01*
X369566Y185591D01*
X369554Y185626D01*
X369547Y185665D01*
X369540Y185707D01*
X369538Y185702D01*
X369533Y185693D01*
X369524Y185679D01*
X369515Y185661D01*
X369489Y185619D01*
X369473Y185598D01*
X369459Y185580D01*
X369455Y185575D01*
X369443Y185564D01*
X369425Y185545D01*
X369402Y185522D01*
X369369Y185497D01*
X369335Y185467D01*
X369293Y185437D01*
X369247Y185404D01*
X368813Y185129D01*
Y185393D01*
X369145Y185603D01*
X369148D01*
X369152Y185608D01*
X369159Y185612D01*
X369168Y185619D01*
X369194Y185635D01*
X369226Y185656D01*
X369261Y185681D01*
X369298Y185707D01*
X369332Y185732D01*
X369365Y185755D01*
X369367Y185758D01*
X369376Y185765D01*
X369390Y185776D01*
X369406Y185792D01*
X369441Y185827D01*
X369457Y185845D01*
X369471Y185864D01*
X369473Y185866D01*
X369476Y185871D01*
X369480Y185880D01*
X369487Y185894D01*
X369494Y185908D01*
X369501Y185924D01*
X369513Y185961D01*
Y185963D01*
X369515Y185968D01*
Y185977D01*
X369517Y185989D01*
X369519Y186005D01*
Y186023D01*
X369522Y186049D01*
Y186321D01*
X368813D01*
Y186534D01*
X370411D01*
Y185792D01*
D02*
G37*
G36*
X368857Y185030D02*
X368877Y185028D01*
X368900Y185023D01*
X368923Y185019D01*
X368949Y185009D01*
X368951D01*
X368953Y185007D01*
X368967Y185002D01*
X368988Y184993D01*
X369016Y184979D01*
X369048Y184961D01*
X369085Y184938D01*
X369122Y184912D01*
X369161Y184880D01*
X369164D01*
X369166Y184875D01*
X369180Y184864D01*
X369201Y184843D01*
X369231Y184813D01*
X369265Y184778D01*
X369307Y184734D01*
X369353Y184681D01*
X369402Y184624D01*
X369404Y184621D01*
X369411Y184612D01*
X369422Y184598D01*
X369436Y184582D01*
X369455Y184561D01*
X369476Y184536D01*
X369499Y184510D01*
X369524Y184480D01*
X369580Y184423D01*
X369635Y184365D01*
X369663Y184337D01*
X369690Y184312D01*
X369716Y184289D01*
X369741Y184270D01*
X369743D01*
X369746Y184265D01*
X369753Y184261D01*
X369762Y184256D01*
X369787Y184240D01*
X369817Y184222D01*
X369854Y184205D01*
X369894Y184189D01*
X369938Y184180D01*
X369979Y184175D01*
X369982D01*
X369984D01*
X369998Y184178D01*
X370021Y184180D01*
X370046Y184187D01*
X370078Y184196D01*
X370111Y184212D01*
X370143Y184233D01*
X370176Y184261D01*
X370180Y184265D01*
X370189Y184277D01*
X370201Y184293D01*
X370217Y184319D01*
X370231Y184351D01*
X370245Y184388D01*
X370254Y184432D01*
X370256Y184480D01*
Y184494D01*
X370254Y184503D01*
X370252Y184531D01*
X370245Y184563D01*
X370236Y184598D01*
X370219Y184637D01*
X370199Y184674D01*
X370171Y184709D01*
X370166Y184714D01*
X370155Y184723D01*
X370136Y184737D01*
X370109Y184750D01*
X370076Y184767D01*
X370035Y184781D01*
X369988Y184790D01*
X369935Y184794D01*
X369956Y184995D01*
X369958D01*
X369965Y184993D01*
X369977D01*
X369993Y184991D01*
X370011Y184986D01*
X370032Y184982D01*
X370058Y184975D01*
X370083Y184968D01*
X370139Y184949D01*
X370194Y184922D01*
X370222Y184905D01*
X370249Y184885D01*
X370275Y184864D01*
X370298Y184841D01*
X370300Y184838D01*
X370303Y184834D01*
X370309Y184827D01*
X370316Y184815D01*
X370326Y184801D01*
X370335Y184785D01*
X370346Y184767D01*
X370358Y184744D01*
X370370Y184718D01*
X370381Y184690D01*
X370390Y184660D01*
X370400Y184628D01*
X370407Y184593D01*
X370413Y184556D01*
X370416Y184517D01*
X370418Y184476D01*
Y184452D01*
X370416Y184436D01*
X370413Y184418D01*
X370411Y184395D01*
X370407Y184369D01*
X370402Y184344D01*
X370386Y184284D01*
X370363Y184224D01*
X370349Y184194D01*
X370333Y184164D01*
X370312Y184136D01*
X370289Y184111D01*
X370286Y184108D01*
X370284Y184104D01*
X370275Y184099D01*
X370266Y184090D01*
X370254Y184078D01*
X370238Y184067D01*
X370222Y184055D01*
X370201Y184041D01*
X370157Y184018D01*
X370102Y183995D01*
X370074Y183986D01*
X370041Y183981D01*
X370009Y183977D01*
X369974Y183974D01*
X369970D01*
X369958D01*
X369940Y183977D01*
X369915Y183979D01*
X369887Y183984D01*
X369854Y183993D01*
X369820Y184002D01*
X369785Y184016D01*
X369780Y184018D01*
X369769Y184023D01*
X369750Y184032D01*
X369725Y184046D01*
X369697Y184064D01*
X369663Y184088D01*
X369628Y184115D01*
X369589Y184148D01*
X369584Y184152D01*
X369570Y184164D01*
X369559Y184175D01*
X369547Y184187D01*
X369533Y184201D01*
X369515Y184219D01*
X369496Y184238D01*
X369476Y184261D01*
X369453Y184284D01*
X369427Y184312D01*
X369402Y184342D01*
X369372Y184374D01*
X369342Y184411D01*
X369309Y184448D01*
X369307Y184450D01*
X369302Y184455D01*
X369295Y184464D01*
X369286Y184476D01*
X369272Y184490D01*
X369258Y184506D01*
X369228Y184543D01*
X369194Y184582D01*
X369159Y184619D01*
X369129Y184651D01*
X369117Y184665D01*
X369106Y184677D01*
X369104Y184679D01*
X369097Y184686D01*
X369088Y184695D01*
X369074Y184707D01*
X369057Y184718D01*
X369041Y184732D01*
X369002Y184760D01*
Y183972D01*
X368813D01*
Y185032D01*
X368815D01*
X368824D01*
X368838D01*
X368857Y185030D01*
D02*
G37*
G36*
X369261Y183563D02*
X369258D01*
X369254Y183561D01*
X369245Y183559D01*
X369233Y183556D01*
X369219Y183554D01*
X369203Y183549D01*
X369168Y183538D01*
X369127Y183522D01*
X369088Y183501D01*
X369051Y183478D01*
X369018Y183450D01*
X369016Y183445D01*
X369007Y183436D01*
X368995Y183418D01*
X368984Y183395D01*
X368970Y183367D01*
X368958Y183332D01*
X368949Y183293D01*
X368947Y183251D01*
Y183238D01*
X368949Y183228D01*
X368951Y183203D01*
X368958Y183170D01*
X368970Y183133D01*
X368986Y183094D01*
X369009Y183055D01*
X369041Y183018D01*
X369046Y183013D01*
X369060Y183002D01*
X369081Y182988D01*
X369108Y182969D01*
X369143Y182951D01*
X369182Y182937D01*
X369228Y182926D01*
X369279Y182921D01*
X369282D01*
X369286D01*
X369293D01*
X369302Y182923D01*
X369328Y182926D01*
X369358Y182933D01*
X369395Y182942D01*
X369432Y182958D01*
X369469Y182981D01*
X369503Y183011D01*
X369508Y183016D01*
X369517Y183027D01*
X369531Y183046D01*
X369547Y183071D01*
X369563Y183104D01*
X369577Y183143D01*
X369586Y183187D01*
X369591Y183235D01*
Y183256D01*
X369589Y183272D01*
X369586Y183293D01*
X369582Y183316D01*
X369577Y183344D01*
X369570Y183374D01*
X369743Y183351D01*
Y183339D01*
X369741Y183330D01*
Y183300D01*
X369746Y183274D01*
X369750Y183244D01*
X369757Y183210D01*
X369769Y183170D01*
X369785Y183133D01*
X369806Y183094D01*
Y183092D01*
X369808Y183090D01*
X369817Y183078D01*
X369834Y183062D01*
X369854Y183044D01*
X369884Y183025D01*
X369919Y183009D01*
X369958Y182997D01*
X369982Y182993D01*
X370007D01*
X370009D01*
X370011D01*
X370025D01*
X370044Y182997D01*
X370069Y183002D01*
X370097Y183011D01*
X370127Y183023D01*
X370157Y183041D01*
X370185Y183067D01*
X370187Y183069D01*
X370196Y183080D01*
X370208Y183097D01*
X370222Y183117D01*
X370233Y183145D01*
X370245Y183177D01*
X370254Y183214D01*
X370256Y183256D01*
Y183274D01*
X370252Y183295D01*
X370247Y183323D01*
X370238Y183353D01*
X370226Y183383D01*
X370208Y183415D01*
X370185Y183445D01*
X370182Y183448D01*
X370171Y183457D01*
X370155Y183471D01*
X370132Y183487D01*
X370102Y183503D01*
X370065Y183519D01*
X370021Y183533D01*
X369970Y183542D01*
X370005Y183739D01*
X370007D01*
X370014Y183736D01*
X370023Y183734D01*
X370037Y183732D01*
X370053Y183727D01*
X370072Y183720D01*
X370115Y183706D01*
X370166Y183683D01*
X370217Y183656D01*
X370266Y183621D01*
X370309Y183577D01*
X370312Y183575D01*
X370314Y183570D01*
X370319Y183563D01*
X370326Y183554D01*
X370335Y183542D01*
X370344Y183526D01*
X370353Y183510D01*
X370365Y183489D01*
X370383Y183443D01*
X370402Y183390D01*
X370413Y183328D01*
X370418Y183295D01*
Y183238D01*
X370416Y183212D01*
X370411Y183182D01*
X370404Y183145D01*
X370393Y183104D01*
X370379Y183062D01*
X370360Y183020D01*
Y183018D01*
X370358Y183016D01*
X370351Y183002D01*
X370337Y182981D01*
X370321Y182958D01*
X370298Y182930D01*
X370272Y182903D01*
X370243Y182875D01*
X370208Y182852D01*
X370203Y182849D01*
X370192Y182843D01*
X370171Y182833D01*
X370146Y182822D01*
X370115Y182810D01*
X370081Y182801D01*
X370041Y182794D01*
X370002Y182792D01*
X369998D01*
X369984D01*
X369965Y182794D01*
X369940Y182799D01*
X369910Y182806D01*
X369878Y182817D01*
X369845Y182831D01*
X369813Y182849D01*
X369808Y182852D01*
X369799Y182859D01*
X369783Y182872D01*
X369764Y182891D01*
X369743Y182914D01*
X369720Y182942D01*
X369700Y182974D01*
X369679Y183013D01*
Y183011D01*
X369676Y183007D01*
X369674Y183000D01*
X369672Y182990D01*
X369663Y182965D01*
X369649Y182933D01*
X369630Y182896D01*
X369607Y182859D01*
X369577Y182824D01*
X369543Y182792D01*
X369538Y182789D01*
X369524Y182780D01*
X369501Y182766D01*
X369471Y182752D01*
X369434Y182738D01*
X369390Y182725D01*
X369339Y182715D01*
X369284Y182713D01*
X369282D01*
X369275D01*
X369263D01*
X369249Y182715D01*
X369231Y182718D01*
X369210Y182722D01*
X369187Y182727D01*
X369161Y182732D01*
X369106Y182750D01*
X369076Y182764D01*
X369048Y182778D01*
X369018Y182796D01*
X368988Y182817D01*
X368958Y182840D01*
X368930Y182868D01*
X368928Y182870D01*
X368923Y182875D01*
X368917Y182884D01*
X368907Y182896D01*
X368896Y182910D01*
X368884Y182928D01*
X368870Y182949D01*
X368859Y182974D01*
X368845Y183000D01*
X368831Y183030D01*
X368819Y183060D01*
X368808Y183094D01*
X368799Y183131D01*
X368792Y183170D01*
X368787Y183210D01*
X368785Y183254D01*
Y183274D01*
X368787Y183288D01*
X368790Y183307D01*
X368792Y183328D01*
X368796Y183351D01*
X368801Y183376D01*
X368815Y183431D01*
X368838Y183489D01*
X368852Y183519D01*
X368868Y183547D01*
X368889Y183575D01*
X368910Y183602D01*
X368912Y183605D01*
X368917Y183609D01*
X368923Y183616D01*
X368933Y183623D01*
X368944Y183635D01*
X368960Y183646D01*
X368977Y183660D01*
X368997Y183674D01*
X369021Y183688D01*
X369044Y183702D01*
X369099Y183727D01*
X369164Y183748D01*
X369198Y183755D01*
X369235Y183759D01*
X369261Y183563D01*
D02*
G37*
G36*
X338436Y152216D02*
X338453D01*
X338471Y152213D01*
X338515Y152204D01*
X338563Y152193D01*
X338614Y152174D01*
X338665Y152146D01*
X338690Y152130D01*
X338714Y152112D01*
X338716Y152110D01*
X338718Y152107D01*
X338725Y152100D01*
X338732Y152093D01*
X338744Y152082D01*
X338753Y152068D01*
X338778Y152036D01*
X338804Y151994D01*
X338827Y151943D01*
X338848Y151885D01*
X338861Y151821D01*
X338665Y151805D01*
Y151807D01*
X338663Y151809D01*
X338661Y151823D01*
X338654Y151844D01*
X338644Y151869D01*
X338635Y151897D01*
X338621Y151925D01*
X338605Y151950D01*
X338589Y151971D01*
X338584Y151976D01*
X338575Y151985D01*
X338559Y151999D01*
X338536Y152015D01*
X338506Y152029D01*
X338473Y152042D01*
X338434Y152052D01*
X338392Y152056D01*
X338376D01*
X338358Y152054D01*
X338337Y152049D01*
X338309Y152042D01*
X338282Y152033D01*
X338254Y152022D01*
X338226Y152003D01*
X338222Y152001D01*
X338210Y151992D01*
X338194Y151976D01*
X338173Y151952D01*
X338150Y151925D01*
X338125Y151892D01*
X338102Y151851D01*
X338078Y151805D01*
Y151802D01*
X338076Y151798D01*
X338074Y151791D01*
X338069Y151781D01*
X338067Y151768D01*
X338062Y151751D01*
X338058Y151733D01*
X338053Y151710D01*
X338046Y151684D01*
X338041Y151657D01*
X338037Y151627D01*
X338035Y151594D01*
X338030Y151557D01*
X338028Y151520D01*
X338025Y151479D01*
Y151437D01*
X338028Y151440D01*
X338037Y151453D01*
X338053Y151472D01*
X338074Y151495D01*
X338097Y151523D01*
X338127Y151548D01*
X338159Y151574D01*
X338196Y151597D01*
X338198D01*
X338201Y151599D01*
X338215Y151606D01*
X338235Y151613D01*
X338263Y151624D01*
X338296Y151634D01*
X338333Y151641D01*
X338372Y151647D01*
X338413Y151650D01*
X338432D01*
X338446Y151647D01*
X338464Y151645D01*
X338483Y151643D01*
X338506Y151638D01*
X338529Y151631D01*
X338582Y151615D01*
X338610Y151604D01*
X338637Y151587D01*
X338665Y151571D01*
X338695Y151553D01*
X338723Y151530D01*
X338748Y151504D01*
X338751Y151502D01*
X338755Y151497D01*
X338762Y151490D01*
X338769Y151479D01*
X338781Y151463D01*
X338792Y151446D01*
X338804Y151426D01*
X338818Y151403D01*
X338831Y151377D01*
X338843Y151349D01*
X338855Y151317D01*
X338866Y151285D01*
X338873Y151250D01*
X338880Y151211D01*
X338885Y151172D01*
X338887Y151130D01*
Y151128D01*
Y151123D01*
Y151116D01*
Y151105D01*
X338885Y151091D01*
Y151077D01*
X338878Y151040D01*
X338871Y150996D01*
X338859Y150950D01*
X338843Y150899D01*
X338820Y150850D01*
Y150848D01*
X338818Y150846D01*
X338813Y150839D01*
X338808Y150830D01*
X338794Y150807D01*
X338774Y150777D01*
X338748Y150744D01*
X338718Y150712D01*
X338681Y150680D01*
X338642Y150652D01*
X338640D01*
X338637Y150650D01*
X338631Y150645D01*
X338621Y150643D01*
X338598Y150631D01*
X338568Y150619D01*
X338529Y150606D01*
X338485Y150596D01*
X338436Y150587D01*
X338383Y150585D01*
X338372D01*
X338360Y150587D01*
X338342D01*
X338321Y150590D01*
X338298Y150594D01*
X338270Y150601D01*
X338242Y150608D01*
X338210Y150617D01*
X338178Y150629D01*
X338145Y150643D01*
X338111Y150661D01*
X338078Y150682D01*
X338046Y150705D01*
X338014Y150733D01*
X337984Y150765D01*
X337981Y150767D01*
X337977Y150774D01*
X337970Y150784D01*
X337961Y150800D01*
X337947Y150821D01*
X337935Y150844D01*
X337921Y150874D01*
X337907Y150906D01*
X337891Y150945D01*
X337877Y150989D01*
X337866Y151038D01*
X337854Y151091D01*
X337843Y151151D01*
X337836Y151216D01*
X337831Y151285D01*
X337829Y151359D01*
Y151361D01*
Y151363D01*
Y151370D01*
Y151380D01*
X337831Y151403D01*
Y151435D01*
X337833Y151472D01*
X337838Y151516D01*
X337843Y151564D01*
X337850Y151618D01*
X337859Y151671D01*
X337871Y151728D01*
X337884Y151784D01*
X337900Y151839D01*
X337921Y151892D01*
X337944Y151943D01*
X337970Y151992D01*
X338000Y152033D01*
X338002Y152036D01*
X338007Y152040D01*
X338016Y152049D01*
X338028Y152063D01*
X338041Y152077D01*
X338060Y152091D01*
X338083Y152110D01*
X338106Y152126D01*
X338134Y152142D01*
X338164Y152160D01*
X338198Y152174D01*
X338233Y152190D01*
X338272Y152202D01*
X338314Y152211D01*
X338358Y152216D01*
X338404Y152218D01*
X338423D01*
X338436Y152216D01*
D02*
G37*
G36*
X337164D02*
X337182Y152213D01*
X337205Y152211D01*
X337231Y152207D01*
X337256Y152202D01*
X337316Y152186D01*
X337376Y152163D01*
X337406Y152149D01*
X337436Y152133D01*
X337464Y152112D01*
X337489Y152089D01*
X337492Y152086D01*
X337496Y152084D01*
X337501Y152075D01*
X337510Y152066D01*
X337522Y152054D01*
X337533Y152038D01*
X337545Y152022D01*
X337559Y152001D01*
X337582Y151957D01*
X337605Y151902D01*
X337614Y151874D01*
X337619Y151841D01*
X337623Y151809D01*
X337626Y151775D01*
Y151770D01*
Y151758D01*
X337623Y151740D01*
X337621Y151715D01*
X337616Y151687D01*
X337607Y151654D01*
X337598Y151620D01*
X337584Y151585D01*
X337582Y151581D01*
X337577Y151569D01*
X337568Y151550D01*
X337554Y151525D01*
X337536Y151497D01*
X337512Y151463D01*
X337485Y151428D01*
X337452Y151389D01*
X337448Y151384D01*
X337436Y151370D01*
X337425Y151359D01*
X337413Y151347D01*
X337399Y151333D01*
X337381Y151315D01*
X337362Y151296D01*
X337339Y151276D01*
X337316Y151252D01*
X337288Y151227D01*
X337258Y151202D01*
X337226Y151172D01*
X337189Y151142D01*
X337152Y151109D01*
X337150Y151107D01*
X337145Y151102D01*
X337136Y151095D01*
X337124Y151086D01*
X337110Y151072D01*
X337094Y151058D01*
X337057Y151028D01*
X337018Y150994D01*
X336981Y150959D01*
X336949Y150929D01*
X336935Y150917D01*
X336923Y150906D01*
X336921Y150904D01*
X336914Y150897D01*
X336905Y150888D01*
X336893Y150874D01*
X336882Y150857D01*
X336868Y150841D01*
X336840Y150802D01*
X337628D01*
Y150613D01*
X336568D01*
Y150615D01*
Y150624D01*
Y150638D01*
X336570Y150656D01*
X336572Y150677D01*
X336577Y150700D01*
X336581Y150724D01*
X336591Y150749D01*
Y150751D01*
X336593Y150753D01*
X336598Y150767D01*
X336607Y150788D01*
X336621Y150816D01*
X336639Y150848D01*
X336662Y150885D01*
X336688Y150922D01*
X336720Y150961D01*
Y150964D01*
X336725Y150966D01*
X336736Y150980D01*
X336757Y151001D01*
X336787Y151031D01*
X336822Y151065D01*
X336866Y151107D01*
X336919Y151153D01*
X336977Y151202D01*
X336979Y151204D01*
X336988Y151211D01*
X337002Y151222D01*
X337018Y151236D01*
X337039Y151255D01*
X337064Y151276D01*
X337090Y151299D01*
X337120Y151324D01*
X337177Y151380D01*
X337235Y151435D01*
X337263Y151463D01*
X337288Y151490D01*
X337312Y151516D01*
X337330Y151541D01*
Y151543D01*
X337335Y151546D01*
X337339Y151553D01*
X337344Y151562D01*
X337360Y151587D01*
X337379Y151618D01*
X337395Y151654D01*
X337411Y151694D01*
X337420Y151738D01*
X337425Y151779D01*
Y151781D01*
Y151784D01*
X337422Y151798D01*
X337420Y151821D01*
X337413Y151846D01*
X337404Y151878D01*
X337388Y151911D01*
X337367Y151943D01*
X337339Y151976D01*
X337335Y151980D01*
X337323Y151989D01*
X337307Y152001D01*
X337281Y152017D01*
X337249Y152031D01*
X337212Y152045D01*
X337168Y152054D01*
X337120Y152056D01*
X337106D01*
X337097Y152054D01*
X337069Y152052D01*
X337037Y152045D01*
X337002Y152036D01*
X336963Y152019D01*
X336926Y151999D01*
X336891Y151971D01*
X336886Y151966D01*
X336877Y151955D01*
X336863Y151936D01*
X336849Y151909D01*
X336833Y151876D01*
X336819Y151835D01*
X336810Y151788D01*
X336806Y151735D01*
X336605Y151756D01*
Y151758D01*
X336607Y151765D01*
Y151777D01*
X336609Y151793D01*
X336614Y151812D01*
X336618Y151832D01*
X336625Y151858D01*
X336632Y151883D01*
X336651Y151938D01*
X336679Y151994D01*
X336695Y152022D01*
X336716Y152049D01*
X336736Y152075D01*
X336759Y152098D01*
X336762Y152100D01*
X336766Y152102D01*
X336773Y152110D01*
X336785Y152116D01*
X336799Y152126D01*
X336815Y152135D01*
X336833Y152146D01*
X336856Y152158D01*
X336882Y152170D01*
X336910Y152181D01*
X336940Y152190D01*
X336972Y152200D01*
X337006Y152207D01*
X337043Y152213D01*
X337083Y152216D01*
X337124Y152218D01*
X337147D01*
X337164Y152216D01*
D02*
G37*
G36*
X335826Y152209D02*
X335847D01*
X335895Y152207D01*
X335946Y152200D01*
X336002Y152193D01*
X336052Y152181D01*
X336078Y152174D01*
X336099Y152167D01*
X336101D01*
X336103Y152165D01*
X336117Y152158D01*
X336138Y152149D01*
X336163Y152133D01*
X336191Y152112D01*
X336221Y152084D01*
X336249Y152052D01*
X336277Y152015D01*
Y152013D01*
X336279Y152010D01*
X336288Y151996D01*
X336297Y151973D01*
X336311Y151943D01*
X336323Y151909D01*
X336334Y151867D01*
X336341Y151823D01*
X336344Y151775D01*
Y151772D01*
Y151768D01*
Y151758D01*
X336341Y151747D01*
Y151731D01*
X336339Y151715D01*
X336330Y151675D01*
X336316Y151629D01*
X336297Y151581D01*
X336270Y151532D01*
X336251Y151509D01*
X336233Y151486D01*
X336230Y151484D01*
X336228Y151481D01*
X336221Y151474D01*
X336212Y151467D01*
X336200Y151458D01*
X336187Y151449D01*
X336168Y151437D01*
X336150Y151423D01*
X336126Y151412D01*
X336101Y151400D01*
X336073Y151386D01*
X336043Y151375D01*
X336009Y151366D01*
X335974Y151354D01*
X335935Y151347D01*
X335893Y151340D01*
X335898Y151338D01*
X335907Y151333D01*
X335921Y151324D01*
X335939Y151315D01*
X335981Y151289D01*
X336002Y151273D01*
X336020Y151259D01*
X336025Y151255D01*
X336036Y151243D01*
X336055Y151225D01*
X336078Y151202D01*
X336103Y151169D01*
X336133Y151135D01*
X336163Y151093D01*
X336196Y151047D01*
X336471Y150613D01*
X336207D01*
X335997Y150945D01*
Y150948D01*
X335993Y150952D01*
X335988Y150959D01*
X335981Y150968D01*
X335965Y150994D01*
X335944Y151026D01*
X335918Y151061D01*
X335893Y151098D01*
X335868Y151132D01*
X335845Y151165D01*
X335842Y151167D01*
X335835Y151176D01*
X335824Y151190D01*
X335808Y151206D01*
X335773Y151241D01*
X335754Y151257D01*
X335736Y151271D01*
X335734Y151273D01*
X335729Y151276D01*
X335720Y151280D01*
X335706Y151287D01*
X335692Y151294D01*
X335676Y151301D01*
X335639Y151312D01*
X335637D01*
X335632Y151315D01*
X335623D01*
X335611Y151317D01*
X335595Y151320D01*
X335577D01*
X335551Y151322D01*
X335279D01*
Y150613D01*
X335066D01*
Y152211D01*
X335808D01*
X335826Y152209D01*
D02*
G37*
G36*
X7984Y73916D02*
X7982D01*
X7973D01*
X7959D01*
X7940Y73918D01*
X7920Y73921D01*
X7897Y73925D01*
X7873Y73930D01*
X7848Y73939D01*
X7846D01*
X7843Y73941D01*
X7829Y73946D01*
X7809Y73955D01*
X7781Y73969D01*
X7749Y73988D01*
X7712Y74011D01*
X7675Y74036D01*
X7635Y74069D01*
X7633D01*
X7631Y74073D01*
X7617Y74085D01*
X7596Y74106D01*
X7566Y74136D01*
X7531Y74170D01*
X7490Y74214D01*
X7444Y74267D01*
X7395Y74325D01*
X7393Y74327D01*
X7386Y74336D01*
X7374Y74350D01*
X7361Y74367D01*
X7342Y74387D01*
X7321Y74413D01*
X7298Y74438D01*
X7273Y74468D01*
X7217Y74526D01*
X7162Y74584D01*
X7134Y74611D01*
X7106Y74637D01*
X7081Y74660D01*
X7056Y74678D01*
X7053D01*
X7051Y74683D01*
X7044Y74688D01*
X7035Y74692D01*
X7009Y74708D01*
X6979Y74727D01*
X6942Y74743D01*
X6903Y74759D01*
X6859Y74769D01*
X6818Y74773D01*
X6815D01*
X6813D01*
X6799Y74771D01*
X6776Y74769D01*
X6751Y74762D01*
X6718Y74752D01*
X6686Y74736D01*
X6654Y74715D01*
X6621Y74688D01*
X6617Y74683D01*
X6607Y74672D01*
X6596Y74655D01*
X6580Y74630D01*
X6566Y74598D01*
X6552Y74561D01*
X6543Y74517D01*
X6540Y74468D01*
Y74454D01*
X6543Y74445D01*
X6545Y74417D01*
X6552Y74385D01*
X6561Y74350D01*
X6577Y74311D01*
X6598Y74274D01*
X6626Y74239D01*
X6631Y74235D01*
X6642Y74226D01*
X6661Y74212D01*
X6688Y74198D01*
X6721Y74182D01*
X6762Y74168D01*
X6808Y74159D01*
X6862Y74154D01*
X6841Y73953D01*
X6838D01*
X6832Y73955D01*
X6820D01*
X6804Y73958D01*
X6785Y73962D01*
X6765Y73967D01*
X6739Y73974D01*
X6714Y73981D01*
X6658Y73999D01*
X6603Y74027D01*
X6575Y74043D01*
X6547Y74064D01*
X6522Y74085D01*
X6499Y74108D01*
X6497Y74110D01*
X6494Y74115D01*
X6487Y74122D01*
X6480Y74133D01*
X6471Y74147D01*
X6462Y74163D01*
X6450Y74182D01*
X6439Y74205D01*
X6427Y74230D01*
X6416Y74258D01*
X6407Y74288D01*
X6397Y74320D01*
X6390Y74355D01*
X6383Y74392D01*
X6381Y74431D01*
X6379Y74473D01*
Y74496D01*
X6381Y74512D01*
X6383Y74531D01*
X6386Y74554D01*
X6390Y74579D01*
X6395Y74604D01*
X6411Y74665D01*
X6434Y74725D01*
X6448Y74755D01*
X6464Y74785D01*
X6485Y74812D01*
X6508Y74838D01*
X6510Y74840D01*
X6513Y74845D01*
X6522Y74849D01*
X6531Y74859D01*
X6543Y74870D01*
X6559Y74882D01*
X6575Y74893D01*
X6596Y74907D01*
X6640Y74930D01*
X6695Y74953D01*
X6723Y74963D01*
X6755Y74967D01*
X6788Y74972D01*
X6822Y74974D01*
X6827D01*
X6838D01*
X6857Y74972D01*
X6882Y74970D01*
X6910Y74965D01*
X6942Y74956D01*
X6977Y74946D01*
X7012Y74932D01*
X7016Y74930D01*
X7028Y74926D01*
X7046Y74916D01*
X7072Y74902D01*
X7100Y74884D01*
X7134Y74861D01*
X7169Y74833D01*
X7208Y74801D01*
X7213Y74796D01*
X7227Y74785D01*
X7238Y74773D01*
X7250Y74762D01*
X7264Y74748D01*
X7282Y74729D01*
X7300Y74711D01*
X7321Y74688D01*
X7344Y74665D01*
X7370Y74637D01*
X7395Y74607D01*
X7425Y74575D01*
X7455Y74537D01*
X7488Y74501D01*
X7490Y74498D01*
X7495Y74494D01*
X7502Y74484D01*
X7511Y74473D01*
X7525Y74459D01*
X7538Y74443D01*
X7568Y74406D01*
X7603Y74367D01*
X7638Y74330D01*
X7668Y74297D01*
X7679Y74283D01*
X7691Y74272D01*
X7693Y74270D01*
X7700Y74263D01*
X7709Y74253D01*
X7723Y74242D01*
X7739Y74230D01*
X7756Y74216D01*
X7795Y74189D01*
Y74976D01*
X7984D01*
Y73916D01*
D02*
G37*
G36*
X7224Y73731D02*
X7243D01*
X7287Y73729D01*
X7337Y73722D01*
X7391Y73715D01*
X7446Y73704D01*
X7502Y73690D01*
X7504D01*
X7508Y73687D01*
X7515Y73685D01*
X7525Y73683D01*
X7550Y73674D01*
X7582Y73660D01*
X7619Y73646D01*
X7656Y73627D01*
X7695Y73604D01*
X7733Y73581D01*
X7737Y73579D01*
X7749Y73570D01*
X7765Y73556D01*
X7786Y73537D01*
X7809Y73516D01*
X7832Y73491D01*
X7857Y73466D01*
X7878Y73436D01*
X7880Y73431D01*
X7887Y73422D01*
X7897Y73406D01*
X7908Y73383D01*
X7922Y73355D01*
X7933Y73322D01*
X7947Y73286D01*
X7959Y73244D01*
Y73239D01*
X7961Y73232D01*
X7964Y73225D01*
X7966Y73202D01*
X7970Y73170D01*
X7975Y73133D01*
X7980Y73089D01*
X7982Y73041D01*
X7984Y72988D01*
Y72412D01*
X6386D01*
Y73027D01*
X6388Y73068D01*
X6390Y73115D01*
X6395Y73161D01*
X6402Y73207D01*
X6409Y73246D01*
Y73248D01*
X6411Y73253D01*
Y73260D01*
X6416Y73269D01*
X6423Y73295D01*
X6434Y73327D01*
X6450Y73364D01*
X6471Y73403D01*
X6494Y73443D01*
X6524Y73479D01*
X6527Y73482D01*
X6529Y73484D01*
X6536Y73491D01*
X6543Y73500D01*
X6566Y73523D01*
X6598Y73551D01*
X6638Y73581D01*
X6684Y73614D01*
X6737Y73644D01*
X6797Y73669D01*
X6799D01*
X6804Y73671D01*
X6813Y73676D01*
X6827Y73678D01*
X6843Y73685D01*
X6862Y73690D01*
X6882Y73694D01*
X6908Y73701D01*
X6933Y73708D01*
X6963Y73713D01*
X7028Y73724D01*
X7100Y73731D01*
X7178Y73734D01*
X7180D01*
X7185D01*
X7197D01*
X7208D01*
X7224Y73731D01*
D02*
G37*
G36*
X7984Y71775D02*
Y71567D01*
X6767Y71232D01*
X6765D01*
X6760Y71230D01*
X6753Y71227D01*
X6741Y71225D01*
X6716Y71218D01*
X6686Y71211D01*
X6654Y71202D01*
X6624Y71193D01*
X6598Y71186D01*
X6587Y71183D01*
X6580Y71181D01*
X6582D01*
X6584Y71179D01*
X6598Y71176D01*
X6619Y71172D01*
X6645Y71165D01*
X6672Y71158D01*
X6705Y71149D01*
X6737Y71142D01*
X6767Y71133D01*
X7984Y70795D01*
Y70574D01*
X6386Y70155D01*
Y70375D01*
X7435Y70613D01*
X7437D01*
X7441Y70615D01*
X7451Y70617D01*
X7462Y70620D01*
X7478Y70622D01*
X7495Y70627D01*
X7515Y70631D01*
X7538Y70636D01*
X7587Y70648D01*
X7642Y70659D01*
X7702Y70671D01*
X7762Y70682D01*
X7760D01*
X7751Y70684D01*
X7739Y70689D01*
X7721Y70691D01*
X7702Y70696D01*
X7679Y70703D01*
X7628Y70714D01*
X7578Y70728D01*
X7552Y70733D01*
X7529Y70740D01*
X7508Y70745D01*
X7490Y70749D01*
X7476Y70754D01*
X7467Y70756D01*
X6386Y71059D01*
Y71315D01*
X7197Y71541D01*
X7199D01*
X7210Y71546D01*
X7227Y71551D01*
X7247Y71555D01*
X7275Y71562D01*
X7305Y71571D01*
X7340Y71581D01*
X7379Y71590D01*
X7423Y71601D01*
X7467Y71611D01*
X7562Y71631D01*
X7661Y71652D01*
X7762Y71668D01*
X7760D01*
X7756Y71671D01*
X7746D01*
X7735Y71675D01*
X7721Y71678D01*
X7705Y71682D01*
X7684Y71685D01*
X7661Y71692D01*
X7610Y71703D01*
X7550Y71717D01*
X7485Y71731D01*
X7414Y71749D01*
X6386Y71999D01*
Y72214D01*
X7984Y71775D01*
D02*
G37*
G36*
X7582Y70008D02*
X7615Y70003D01*
X7652Y69994D01*
X7691Y69982D01*
X7733Y69964D01*
X7776Y69938D01*
X7779D01*
X7781Y69936D01*
X7795Y69924D01*
X7816Y69908D01*
X7839Y69885D01*
X7866Y69855D01*
X7897Y69818D01*
X7924Y69777D01*
X7950Y69728D01*
Y69726D01*
X7952Y69721D01*
X7954Y69714D01*
X7959Y69705D01*
X7964Y69691D01*
X7970Y69675D01*
X7980Y69638D01*
X7991Y69594D01*
X8003Y69541D01*
X8010Y69483D01*
X8012Y69421D01*
Y69384D01*
X8010Y69365D01*
Y69345D01*
X8007Y69322D01*
X8005Y69294D01*
X7996Y69236D01*
X7987Y69176D01*
X7970Y69116D01*
X7950Y69058D01*
Y69056D01*
X7947Y69051D01*
X7943Y69044D01*
X7938Y69035D01*
X7924Y69007D01*
X7903Y68975D01*
X7876Y68938D01*
X7843Y68899D01*
X7804Y68862D01*
X7760Y68827D01*
X7758D01*
X7753Y68823D01*
X7746Y68820D01*
X7737Y68813D01*
X7726Y68809D01*
X7712Y68802D01*
X7677Y68786D01*
X7633Y68769D01*
X7585Y68756D01*
X7529Y68746D01*
X7471Y68742D01*
X7453Y68940D01*
X7455D01*
X7458D01*
X7464Y68943D01*
X7474D01*
X7495Y68947D01*
X7525Y68954D01*
X7555Y68963D01*
X7589Y68973D01*
X7622Y68989D01*
X7652Y69005D01*
X7654Y69007D01*
X7663Y69014D01*
X7679Y69026D01*
X7695Y69044D01*
X7716Y69067D01*
X7737Y69093D01*
X7758Y69128D01*
X7776Y69165D01*
Y69167D01*
X7779Y69169D01*
X7781Y69176D01*
X7783Y69183D01*
X7790Y69206D01*
X7800Y69236D01*
X7809Y69273D01*
X7816Y69315D01*
X7820Y69361D01*
X7823Y69412D01*
Y69432D01*
X7820Y69455D01*
X7818Y69483D01*
X7813Y69516D01*
X7809Y69552D01*
X7800Y69590D01*
X7788Y69624D01*
X7786Y69629D01*
X7781Y69640D01*
X7772Y69656D01*
X7762Y69677D01*
X7746Y69698D01*
X7730Y69721D01*
X7712Y69744D01*
X7689Y69763D01*
X7686Y69765D01*
X7677Y69770D01*
X7666Y69777D01*
X7647Y69786D01*
X7628Y69795D01*
X7605Y69802D01*
X7580Y69807D01*
X7552Y69809D01*
X7550D01*
X7538D01*
X7525Y69807D01*
X7506Y69804D01*
X7488Y69797D01*
X7464Y69791D01*
X7441Y69779D01*
X7421Y69763D01*
X7418Y69760D01*
X7411Y69753D01*
X7402Y69744D01*
X7388Y69728D01*
X7374Y69710D01*
X7358Y69684D01*
X7342Y69654D01*
X7328Y69620D01*
X7326Y69617D01*
X7324Y69606D01*
X7317Y69587D01*
X7314Y69576D01*
X7310Y69560D01*
X7303Y69543D01*
X7298Y69523D01*
X7291Y69499D01*
X7284Y69472D01*
X7277Y69444D01*
X7268Y69412D01*
X7259Y69375D01*
X7250Y69335D01*
Y69333D01*
X7247Y69326D01*
X7245Y69315D01*
X7240Y69301D01*
X7236Y69282D01*
X7231Y69261D01*
X7217Y69215D01*
X7201Y69165D01*
X7185Y69111D01*
X7169Y69065D01*
X7160Y69044D01*
X7150Y69026D01*
Y69024D01*
X7148Y69021D01*
X7139Y69007D01*
X7127Y68987D01*
X7109Y68963D01*
X7088Y68936D01*
X7063Y68908D01*
X7033Y68880D01*
X7000Y68857D01*
X6996Y68855D01*
X6984Y68848D01*
X6966Y68839D01*
X6942Y68830D01*
X6912Y68820D01*
X6878Y68811D01*
X6841Y68804D01*
X6802Y68802D01*
X6799D01*
X6797D01*
X6790D01*
X6781D01*
X6758Y68806D01*
X6728Y68811D01*
X6693Y68818D01*
X6654Y68830D01*
X6614Y68846D01*
X6575Y68869D01*
X6573D01*
X6571Y68871D01*
X6557Y68883D01*
X6538Y68899D01*
X6515Y68920D01*
X6490Y68947D01*
X6462Y68982D01*
X6436Y69024D01*
X6414Y69070D01*
Y69072D01*
X6411Y69077D01*
X6409Y69084D01*
X6404Y69093D01*
X6400Y69104D01*
X6395Y69121D01*
X6386Y69155D01*
X6376Y69199D01*
X6367Y69250D01*
X6360Y69303D01*
X6358Y69363D01*
Y69393D01*
X6360Y69409D01*
Y69425D01*
X6365Y69469D01*
X6372Y69518D01*
X6383Y69569D01*
X6397Y69624D01*
X6416Y69675D01*
Y69677D01*
X6418Y69682D01*
X6423Y69689D01*
X6427Y69698D01*
X6439Y69721D01*
X6460Y69751D01*
X6483Y69786D01*
X6513Y69820D01*
X6547Y69853D01*
X6587Y69883D01*
X6589D01*
X6591Y69885D01*
X6598Y69890D01*
X6605Y69894D01*
X6628Y69906D01*
X6658Y69920D01*
X6695Y69936D01*
X6739Y69948D01*
X6785Y69959D01*
X6836Y69964D01*
X6852Y69760D01*
X6850D01*
X6845D01*
X6838Y69758D01*
X6827Y69756D01*
X6802Y69749D01*
X6767Y69740D01*
X6730Y69726D01*
X6693Y69705D01*
X6658Y69680D01*
X6626Y69647D01*
X6624Y69643D01*
X6614Y69631D01*
X6601Y69608D01*
X6587Y69578D01*
X6573Y69539D01*
X6559Y69493D01*
X6550Y69435D01*
X6547Y69370D01*
Y69338D01*
X6550Y69324D01*
X6552Y69305D01*
X6557Y69264D01*
X6566Y69218D01*
X6577Y69171D01*
X6596Y69128D01*
X6607Y69109D01*
X6619Y69090D01*
X6621Y69086D01*
X6631Y69077D01*
X6647Y69063D01*
X6665Y69049D01*
X6691Y69033D01*
X6718Y69019D01*
X6751Y69010D01*
X6788Y69005D01*
X6792D01*
X6802D01*
X6818Y69007D01*
X6836Y69012D01*
X6859Y69019D01*
X6882Y69030D01*
X6905Y69044D01*
X6929Y69065D01*
X6931Y69067D01*
X6938Y69079D01*
X6945Y69088D01*
X6949Y69098D01*
X6956Y69111D01*
X6966Y69128D01*
X6972Y69148D01*
X6982Y69171D01*
X6991Y69197D01*
X7002Y69227D01*
X7012Y69259D01*
X7023Y69296D01*
X7033Y69338D01*
X7044Y69384D01*
Y69386D01*
X7046Y69396D01*
X7049Y69409D01*
X7053Y69425D01*
X7058Y69446D01*
X7065Y69472D01*
X7072Y69497D01*
X7079Y69525D01*
X7095Y69585D01*
X7111Y69643D01*
X7120Y69670D01*
X7130Y69696D01*
X7136Y69719D01*
X7146Y69737D01*
Y69740D01*
X7148Y69744D01*
X7153Y69751D01*
X7157Y69760D01*
X7171Y69786D01*
X7190Y69816D01*
X7215Y69850D01*
X7243Y69885D01*
X7275Y69918D01*
X7310Y69945D01*
X7314Y69948D01*
X7326Y69957D01*
X7347Y69966D01*
X7374Y69980D01*
X7407Y69991D01*
X7446Y70003D01*
X7490Y70010D01*
X7536Y70012D01*
X7538D01*
X7541D01*
X7548D01*
X7557D01*
X7582Y70008D01*
D02*
G37*
G36*
X7984Y165587D02*
X6735D01*
X6737Y165584D01*
X6746Y165573D01*
X6760Y165559D01*
X6776Y165536D01*
X6797Y165510D01*
X6820Y165478D01*
X6845Y165441D01*
X6871Y165400D01*
Y165397D01*
X6873Y165395D01*
X6882Y165381D01*
X6894Y165358D01*
X6908Y165330D01*
X6924Y165298D01*
X6940Y165263D01*
X6956Y165229D01*
X6970Y165194D01*
X6781D01*
Y165196D01*
X6776Y165201D01*
X6774Y165210D01*
X6767Y165222D01*
X6760Y165236D01*
X6751Y165252D01*
X6728Y165291D01*
X6702Y165337D01*
X6670Y165383D01*
X6633Y165432D01*
X6594Y165480D01*
X6591Y165483D01*
X6589Y165485D01*
X6582Y165492D01*
X6575Y165501D01*
X6552Y165522D01*
X6524Y165550D01*
X6492Y165577D01*
X6455Y165608D01*
X6418Y165633D01*
X6379Y165656D01*
Y165783D01*
X7984D01*
Y165587D01*
D02*
G37*
G36*
X7224Y164831D02*
X7243D01*
X7287Y164829D01*
X7337Y164822D01*
X7391Y164815D01*
X7446Y164804D01*
X7502Y164790D01*
X7504D01*
X7508Y164787D01*
X7515Y164785D01*
X7525Y164783D01*
X7550Y164774D01*
X7582Y164760D01*
X7619Y164746D01*
X7656Y164727D01*
X7695Y164704D01*
X7733Y164681D01*
X7737Y164679D01*
X7749Y164670D01*
X7765Y164656D01*
X7786Y164637D01*
X7809Y164617D01*
X7832Y164591D01*
X7857Y164566D01*
X7878Y164536D01*
X7880Y164531D01*
X7887Y164522D01*
X7897Y164506D01*
X7908Y164482D01*
X7922Y164455D01*
X7933Y164423D01*
X7947Y164385D01*
X7959Y164344D01*
Y164339D01*
X7961Y164332D01*
X7964Y164325D01*
X7966Y164302D01*
X7970Y164270D01*
X7975Y164233D01*
X7980Y164189D01*
X7982Y164141D01*
X7984Y164087D01*
Y163512D01*
X6386D01*
Y164127D01*
X6388Y164168D01*
X6390Y164215D01*
X6395Y164261D01*
X6402Y164307D01*
X6409Y164346D01*
Y164348D01*
X6411Y164353D01*
Y164360D01*
X6416Y164369D01*
X6423Y164395D01*
X6434Y164427D01*
X6450Y164464D01*
X6471Y164503D01*
X6494Y164543D01*
X6524Y164579D01*
X6527Y164582D01*
X6529Y164584D01*
X6536Y164591D01*
X6543Y164600D01*
X6566Y164623D01*
X6598Y164651D01*
X6638Y164681D01*
X6684Y164714D01*
X6737Y164744D01*
X6797Y164769D01*
X6799D01*
X6804Y164771D01*
X6813Y164776D01*
X6827Y164778D01*
X6843Y164785D01*
X6862Y164790D01*
X6882Y164794D01*
X6908Y164801D01*
X6933Y164808D01*
X6963Y164813D01*
X7028Y164824D01*
X7100Y164831D01*
X7178Y164834D01*
X7180D01*
X7185D01*
X7197D01*
X7208D01*
X7224Y164831D01*
D02*
G37*
G36*
X7984Y162875D02*
Y162667D01*
X6767Y162332D01*
X6765D01*
X6760Y162330D01*
X6753Y162327D01*
X6741Y162325D01*
X6716Y162318D01*
X6686Y162311D01*
X6654Y162302D01*
X6624Y162293D01*
X6598Y162286D01*
X6587Y162283D01*
X6580Y162281D01*
X6582D01*
X6584Y162279D01*
X6598Y162276D01*
X6619Y162272D01*
X6645Y162265D01*
X6672Y162258D01*
X6705Y162249D01*
X6737Y162242D01*
X6767Y162233D01*
X7984Y161895D01*
Y161674D01*
X6386Y161255D01*
Y161475D01*
X7435Y161713D01*
X7437D01*
X7441Y161715D01*
X7451Y161717D01*
X7462Y161720D01*
X7478Y161722D01*
X7495Y161727D01*
X7515Y161731D01*
X7538Y161736D01*
X7587Y161748D01*
X7642Y161759D01*
X7702Y161771D01*
X7762Y161782D01*
X7760D01*
X7751Y161784D01*
X7739Y161789D01*
X7721Y161791D01*
X7702Y161796D01*
X7679Y161803D01*
X7628Y161814D01*
X7578Y161828D01*
X7552Y161833D01*
X7529Y161840D01*
X7508Y161845D01*
X7490Y161849D01*
X7476Y161854D01*
X7467Y161856D01*
X6386Y162159D01*
Y162415D01*
X7197Y162642D01*
X7199D01*
X7210Y162646D01*
X7227Y162651D01*
X7247Y162655D01*
X7275Y162662D01*
X7305Y162671D01*
X7340Y162681D01*
X7379Y162690D01*
X7423Y162701D01*
X7467Y162711D01*
X7562Y162732D01*
X7661Y162752D01*
X7762Y162768D01*
X7760D01*
X7756Y162771D01*
X7746D01*
X7735Y162775D01*
X7721Y162778D01*
X7705Y162782D01*
X7684Y162785D01*
X7661Y162792D01*
X7610Y162803D01*
X7550Y162817D01*
X7485Y162831D01*
X7414Y162849D01*
X6386Y163099D01*
Y163314D01*
X7984Y162875D01*
D02*
G37*
G36*
X7582Y161108D02*
X7615Y161103D01*
X7652Y161094D01*
X7691Y161082D01*
X7733Y161064D01*
X7776Y161038D01*
X7779D01*
X7781Y161036D01*
X7795Y161024D01*
X7816Y161008D01*
X7839Y160985D01*
X7866Y160955D01*
X7897Y160918D01*
X7924Y160877D01*
X7950Y160828D01*
Y160826D01*
X7952Y160821D01*
X7954Y160814D01*
X7959Y160805D01*
X7964Y160791D01*
X7970Y160775D01*
X7980Y160738D01*
X7991Y160694D01*
X8003Y160641D01*
X8010Y160583D01*
X8012Y160521D01*
Y160484D01*
X8010Y160465D01*
Y160445D01*
X8007Y160422D01*
X8005Y160394D01*
X7996Y160336D01*
X7987Y160276D01*
X7970Y160216D01*
X7950Y160158D01*
Y160156D01*
X7947Y160151D01*
X7943Y160144D01*
X7938Y160135D01*
X7924Y160107D01*
X7903Y160075D01*
X7876Y160038D01*
X7843Y159999D01*
X7804Y159962D01*
X7760Y159927D01*
X7758D01*
X7753Y159923D01*
X7746Y159920D01*
X7737Y159913D01*
X7726Y159909D01*
X7712Y159902D01*
X7677Y159886D01*
X7633Y159870D01*
X7585Y159856D01*
X7529Y159846D01*
X7471Y159842D01*
X7453Y160040D01*
X7455D01*
X7458D01*
X7464Y160043D01*
X7474D01*
X7495Y160047D01*
X7525Y160054D01*
X7555Y160064D01*
X7589Y160073D01*
X7622Y160089D01*
X7652Y160105D01*
X7654Y160107D01*
X7663Y160114D01*
X7679Y160126D01*
X7695Y160144D01*
X7716Y160167D01*
X7737Y160193D01*
X7758Y160228D01*
X7776Y160265D01*
Y160267D01*
X7779Y160269D01*
X7781Y160276D01*
X7783Y160283D01*
X7790Y160306D01*
X7800Y160336D01*
X7809Y160373D01*
X7816Y160415D01*
X7820Y160461D01*
X7823Y160512D01*
Y160532D01*
X7820Y160556D01*
X7818Y160583D01*
X7813Y160616D01*
X7809Y160652D01*
X7800Y160689D01*
X7788Y160724D01*
X7786Y160729D01*
X7781Y160740D01*
X7772Y160757D01*
X7762Y160777D01*
X7746Y160798D01*
X7730Y160821D01*
X7712Y160844D01*
X7689Y160863D01*
X7686Y160865D01*
X7677Y160870D01*
X7666Y160877D01*
X7647Y160886D01*
X7628Y160895D01*
X7605Y160902D01*
X7580Y160907D01*
X7552Y160909D01*
X7550D01*
X7538D01*
X7525Y160907D01*
X7506Y160904D01*
X7488Y160897D01*
X7464Y160890D01*
X7441Y160879D01*
X7421Y160863D01*
X7418Y160860D01*
X7411Y160854D01*
X7402Y160844D01*
X7388Y160828D01*
X7374Y160810D01*
X7358Y160784D01*
X7342Y160754D01*
X7328Y160720D01*
X7326Y160717D01*
X7324Y160706D01*
X7317Y160687D01*
X7314Y160676D01*
X7310Y160660D01*
X7303Y160643D01*
X7298Y160623D01*
X7291Y160599D01*
X7284Y160572D01*
X7277Y160544D01*
X7268Y160512D01*
X7259Y160475D01*
X7250Y160435D01*
Y160433D01*
X7247Y160426D01*
X7245Y160415D01*
X7240Y160401D01*
X7236Y160382D01*
X7231Y160362D01*
X7217Y160315D01*
X7201Y160265D01*
X7185Y160211D01*
X7169Y160165D01*
X7160Y160144D01*
X7150Y160126D01*
Y160124D01*
X7148Y160121D01*
X7139Y160107D01*
X7127Y160087D01*
X7109Y160064D01*
X7088Y160036D01*
X7063Y160008D01*
X7033Y159980D01*
X7000Y159957D01*
X6996Y159955D01*
X6984Y159948D01*
X6966Y159939D01*
X6942Y159930D01*
X6912Y159920D01*
X6878Y159911D01*
X6841Y159904D01*
X6802Y159902D01*
X6799D01*
X6797D01*
X6790D01*
X6781D01*
X6758Y159906D01*
X6728Y159911D01*
X6693Y159918D01*
X6654Y159930D01*
X6614Y159946D01*
X6575Y159969D01*
X6573D01*
X6571Y159971D01*
X6557Y159983D01*
X6538Y159999D01*
X6515Y160020D01*
X6490Y160047D01*
X6462Y160082D01*
X6436Y160124D01*
X6414Y160170D01*
Y160172D01*
X6411Y160177D01*
X6409Y160184D01*
X6404Y160193D01*
X6400Y160204D01*
X6395Y160221D01*
X6386Y160255D01*
X6376Y160299D01*
X6367Y160350D01*
X6360Y160403D01*
X6358Y160463D01*
Y160493D01*
X6360Y160509D01*
Y160526D01*
X6365Y160569D01*
X6372Y160618D01*
X6383Y160669D01*
X6397Y160724D01*
X6416Y160775D01*
Y160777D01*
X6418Y160782D01*
X6423Y160789D01*
X6427Y160798D01*
X6439Y160821D01*
X6460Y160851D01*
X6483Y160886D01*
X6513Y160921D01*
X6547Y160953D01*
X6587Y160983D01*
X6589D01*
X6591Y160985D01*
X6598Y160990D01*
X6605Y160994D01*
X6628Y161006D01*
X6658Y161020D01*
X6695Y161036D01*
X6739Y161048D01*
X6785Y161059D01*
X6836Y161064D01*
X6852Y160860D01*
X6850D01*
X6845D01*
X6838Y160858D01*
X6827Y160856D01*
X6802Y160849D01*
X6767Y160840D01*
X6730Y160826D01*
X6693Y160805D01*
X6658Y160780D01*
X6626Y160747D01*
X6624Y160743D01*
X6614Y160731D01*
X6601Y160708D01*
X6587Y160678D01*
X6573Y160639D01*
X6559Y160592D01*
X6550Y160535D01*
X6547Y160470D01*
Y160438D01*
X6550Y160424D01*
X6552Y160405D01*
X6557Y160364D01*
X6566Y160318D01*
X6577Y160271D01*
X6596Y160228D01*
X6607Y160209D01*
X6619Y160190D01*
X6621Y160186D01*
X6631Y160177D01*
X6647Y160163D01*
X6665Y160149D01*
X6691Y160133D01*
X6718Y160119D01*
X6751Y160110D01*
X6788Y160105D01*
X6792D01*
X6802D01*
X6818Y160107D01*
X6836Y160112D01*
X6859Y160119D01*
X6882Y160131D01*
X6905Y160144D01*
X6929Y160165D01*
X6931Y160167D01*
X6938Y160179D01*
X6945Y160188D01*
X6949Y160197D01*
X6956Y160211D01*
X6966Y160228D01*
X6972Y160248D01*
X6982Y160271D01*
X6991Y160297D01*
X7002Y160327D01*
X7012Y160359D01*
X7023Y160396D01*
X7033Y160438D01*
X7044Y160484D01*
Y160486D01*
X7046Y160495D01*
X7049Y160509D01*
X7053Y160526D01*
X7058Y160546D01*
X7065Y160572D01*
X7072Y160597D01*
X7079Y160625D01*
X7095Y160685D01*
X7111Y160743D01*
X7120Y160770D01*
X7130Y160796D01*
X7136Y160819D01*
X7146Y160837D01*
Y160840D01*
X7148Y160844D01*
X7153Y160851D01*
X7157Y160860D01*
X7171Y160886D01*
X7190Y160916D01*
X7215Y160951D01*
X7243Y160985D01*
X7275Y161018D01*
X7310Y161045D01*
X7314Y161048D01*
X7326Y161057D01*
X7347Y161066D01*
X7374Y161080D01*
X7407Y161091D01*
X7446Y161103D01*
X7490Y161110D01*
X7536Y161112D01*
X7538D01*
X7541D01*
X7548D01*
X7557D01*
X7582Y161108D01*
D02*
G37*
%LPC*%
G36*
X80982Y23833D02*
X80479D01*
Y23304D01*
X80954D01*
X80982Y23307D01*
X81015Y23309D01*
X81051Y23311D01*
X81089Y23316D01*
X81125Y23323D01*
X81158Y23332D01*
X81162Y23334D01*
X81172Y23339D01*
X81186Y23346D01*
X81204Y23355D01*
X81225Y23369D01*
X81246Y23385D01*
X81266Y23406D01*
X81283Y23429D01*
X81285Y23431D01*
X81289Y23440D01*
X81296Y23454D01*
X81306Y23473D01*
X81313Y23494D01*
X81319Y23517D01*
X81324Y23544D01*
X81326Y23572D01*
Y23574D01*
Y23577D01*
X81324Y23591D01*
X81322Y23611D01*
X81317Y23639D01*
X81306Y23667D01*
X81292Y23699D01*
X81271Y23729D01*
X81243Y23759D01*
X81239Y23762D01*
X81227Y23771D01*
X81209Y23782D01*
X81179Y23796D01*
X81144Y23810D01*
X81098Y23822D01*
X81045Y23831D01*
X80982Y23833D01*
D02*
G37*
G36*
X356521Y139596D02*
X356046D01*
X356018Y139593D01*
X355985Y139591D01*
X355948Y139589D01*
X355911Y139584D01*
X355874Y139577D01*
X355842Y139568D01*
X355838Y139566D01*
X355828Y139561D01*
X355815Y139554D01*
X355796Y139545D01*
X355775Y139531D01*
X355754Y139515D01*
X355734Y139494D01*
X355717Y139471D01*
X355715Y139469D01*
X355711Y139459D01*
X355704Y139446D01*
X355694Y139427D01*
X355687Y139406D01*
X355680Y139383D01*
X355676Y139356D01*
X355674Y139328D01*
Y139325D01*
Y139323D01*
X355676Y139309D01*
X355678Y139288D01*
X355683Y139261D01*
X355694Y139233D01*
X355708Y139201D01*
X355729Y139171D01*
X355757Y139141D01*
X355761Y139138D01*
X355773Y139129D01*
X355791Y139118D01*
X355821Y139104D01*
X355856Y139090D01*
X355902Y139078D01*
X355955Y139069D01*
X356018Y139067D01*
X356521D01*
Y139596D01*
D02*
G37*
G36*
X74464Y203596D02*
X73988D01*
X73960Y203593D01*
X73928Y203591D01*
X73891Y203589D01*
X73854Y203584D01*
X73817Y203577D01*
X73785Y203568D01*
X73780Y203566D01*
X73771Y203561D01*
X73757Y203554D01*
X73738Y203545D01*
X73718Y203531D01*
X73697Y203515D01*
X73676Y203494D01*
X73660Y203471D01*
X73658Y203469D01*
X73653Y203459D01*
X73646Y203446D01*
X73637Y203427D01*
X73630Y203406D01*
X73623Y203383D01*
X73618Y203356D01*
X73616Y203328D01*
Y203326D01*
Y203323D01*
X73618Y203309D01*
X73621Y203289D01*
X73625Y203261D01*
X73637Y203233D01*
X73651Y203201D01*
X73672Y203171D01*
X73699Y203141D01*
X73704Y203138D01*
X73715Y203129D01*
X73734Y203118D01*
X73764Y203104D01*
X73799Y203090D01*
X73845Y203078D01*
X73898Y203069D01*
X73960Y203067D01*
X74464D01*
Y203596D01*
D02*
G37*
G36*
X72604Y204353D02*
X72593D01*
X72584Y204351D01*
X72560Y204349D01*
X72530Y204342D01*
X72498Y204328D01*
X72461Y204312D01*
X72424Y204286D01*
X72406Y204273D01*
X72390Y204254D01*
Y204252D01*
X72385Y204250D01*
X72376Y204236D01*
X72362Y204212D01*
X72343Y204183D01*
X72327Y204143D01*
X72313Y204097D01*
X72304Y204044D01*
X72299Y203981D01*
Y203979D01*
Y203975D01*
Y203965D01*
X72302Y203954D01*
Y203940D01*
X72304Y203924D01*
X72311Y203887D01*
X72320Y203845D01*
X72336Y203801D01*
X72360Y203760D01*
X72390Y203720D01*
X72394Y203716D01*
X72406Y203704D01*
X72424Y203691D01*
X72449Y203672D01*
X72482Y203654D01*
X72519Y203640D01*
X72563Y203628D01*
X72611Y203624D01*
X72625D01*
X72634Y203626D01*
X72657Y203628D01*
X72690Y203635D01*
X72724Y203647D01*
X72764Y203665D01*
X72801Y203688D01*
X72838Y203720D01*
X72842Y203725D01*
X72852Y203737D01*
X72868Y203757D01*
X72884Y203787D01*
X72900Y203822D01*
X72916Y203866D01*
X72925Y203914D01*
X72930Y203970D01*
Y203975D01*
Y203986D01*
X72928Y204007D01*
X72925Y204032D01*
X72921Y204062D01*
X72912Y204095D01*
X72902Y204129D01*
X72888Y204164D01*
X72886Y204169D01*
X72879Y204180D01*
X72870Y204196D01*
X72856Y204217D01*
X72840Y204238D01*
X72819Y204263D01*
X72796Y204284D01*
X72768Y204305D01*
X72764Y204307D01*
X72755Y204312D01*
X72738Y204321D01*
X72717Y204328D01*
X72694Y204337D01*
X72667Y204346D01*
X72637Y204351D01*
X72604Y204353D01*
D02*
G37*
G36*
X260521Y21796D02*
X260046D01*
X260018Y21793D01*
X259985Y21791D01*
X259948Y21789D01*
X259911Y21784D01*
X259875Y21777D01*
X259842Y21768D01*
X259838Y21766D01*
X259828Y21761D01*
X259815Y21754D01*
X259796Y21745D01*
X259775Y21731D01*
X259754Y21715D01*
X259734Y21694D01*
X259717Y21671D01*
X259715Y21669D01*
X259711Y21659D01*
X259704Y21646D01*
X259694Y21627D01*
X259687Y21606D01*
X259681Y21583D01*
X259676Y21555D01*
X259674Y21528D01*
Y21526D01*
Y21523D01*
X259676Y21509D01*
X259678Y21488D01*
X259683Y21461D01*
X259694Y21433D01*
X259708Y21401D01*
X259729Y21371D01*
X259757Y21341D01*
X259761Y21338D01*
X259773Y21329D01*
X259791Y21318D01*
X259821Y21304D01*
X259856Y21290D01*
X259902Y21278D01*
X259955Y21269D01*
X260018Y21267D01*
X260521D01*
Y21796D01*
D02*
G37*
G36*
X243871Y29481D02*
X243800D01*
X243797D01*
X243795D01*
X243783D01*
X243763D01*
X243735Y29479D01*
X243705D01*
X243668Y29477D01*
X243629Y29474D01*
X243585Y29470D01*
X243497Y29458D01*
X243453Y29451D01*
X243412Y29442D01*
X243372Y29433D01*
X243335Y29419D01*
X243303Y29405D01*
X243275Y29389D01*
X243273D01*
X243271Y29384D01*
X243264Y29380D01*
X243254Y29373D01*
X243234Y29352D01*
X243208Y29327D01*
X243185Y29292D01*
X243164Y29253D01*
X243155Y29232D01*
X243148Y29209D01*
X243146Y29183D01*
X243144Y29158D01*
Y29144D01*
X243146Y29135D01*
X243151Y29109D01*
X243158Y29079D01*
X243171Y29045D01*
X243192Y29008D01*
X243206Y28989D01*
X243220Y28971D01*
X243238Y28955D01*
X243259Y28938D01*
X243262D01*
X243266Y28934D01*
X243275Y28929D01*
X243287Y28922D01*
X243305Y28915D01*
X243326Y28906D01*
X243352Y28899D01*
X243382Y28890D01*
X243416Y28881D01*
X243456Y28871D01*
X243499Y28862D01*
X243548Y28855D01*
X243603Y28848D01*
X243663Y28844D01*
X243728Y28841D01*
X243800Y28839D01*
X243804D01*
X243816D01*
X243837D01*
X243864Y28841D01*
X243894D01*
X243931Y28844D01*
X243971Y28846D01*
X244012Y28851D01*
X244102Y28862D01*
X244146Y28869D01*
X244188Y28878D01*
X244227Y28888D01*
X244264Y28901D01*
X244296Y28915D01*
X244324Y28931D01*
X244326D01*
X244329Y28936D01*
X244345Y28948D01*
X244366Y28969D01*
X244389Y28994D01*
X244412Y29028D01*
X244433Y29068D01*
X244449Y29112D01*
X244451Y29135D01*
X244453Y29160D01*
Y29174D01*
X244451Y29183D01*
X244446Y29206D01*
X244437Y29239D01*
X244421Y29273D01*
X244398Y29313D01*
X244384Y29331D01*
X244366Y29350D01*
X244347Y29368D01*
X244324Y29387D01*
X244322D01*
X244317Y29391D01*
X244310Y29396D01*
X244299Y29400D01*
X244283Y29410D01*
X244262Y29417D01*
X244239Y29426D01*
X244211Y29435D01*
X244176Y29442D01*
X244139Y29451D01*
X244095Y29460D01*
X244049Y29467D01*
X243994Y29472D01*
X243936Y29477D01*
X243871Y29481D01*
D02*
G37*
G36*
X243428Y26926D02*
X243425D01*
X243423D01*
X243409Y26924D01*
X243389Y26922D01*
X243361Y26917D01*
X243333Y26906D01*
X243301Y26892D01*
X243271Y26871D01*
X243241Y26843D01*
X243238Y26839D01*
X243229Y26827D01*
X243218Y26809D01*
X243204Y26779D01*
X243190Y26744D01*
X243178Y26698D01*
X243169Y26645D01*
X243167Y26582D01*
Y26079D01*
X243696D01*
Y26555D01*
X243693Y26582D01*
X243691Y26615D01*
X243689Y26651D01*
X243684Y26689D01*
X243677Y26726D01*
X243668Y26758D01*
X243666Y26762D01*
X243661Y26772D01*
X243654Y26785D01*
X243645Y26804D01*
X243631Y26825D01*
X243615Y26846D01*
X243594Y26866D01*
X243571Y26882D01*
X243569Y26885D01*
X243560Y26890D01*
X243546Y26896D01*
X243527Y26906D01*
X243506Y26913D01*
X243483Y26919D01*
X243456Y26924D01*
X243428Y26926D01*
D02*
G37*
G36*
X323828Y146326D02*
X323826D01*
X323823D01*
X323809Y146324D01*
X323788Y146322D01*
X323761Y146317D01*
X323733Y146306D01*
X323701Y146292D01*
X323671Y146271D01*
X323641Y146243D01*
X323638Y146239D01*
X323629Y146227D01*
X323618Y146209D01*
X323604Y146179D01*
X323590Y146144D01*
X323578Y146098D01*
X323569Y146045D01*
X323567Y145982D01*
Y145479D01*
X324096D01*
Y145955D01*
X324093Y145982D01*
X324091Y146015D01*
X324089Y146052D01*
X324084Y146089D01*
X324077Y146125D01*
X324068Y146158D01*
X324066Y146162D01*
X324061Y146172D01*
X324054Y146186D01*
X324045Y146204D01*
X324031Y146225D01*
X324015Y146246D01*
X323994Y146266D01*
X323971Y146282D01*
X323969Y146285D01*
X323959Y146290D01*
X323946Y146296D01*
X323927Y146306D01*
X323906Y146313D01*
X323883Y146319D01*
X323855Y146324D01*
X323828Y146326D01*
D02*
G37*
G36*
X356321Y119296D02*
X355845D01*
X355818Y119293D01*
X355785Y119291D01*
X355749Y119289D01*
X355712Y119284D01*
X355675Y119277D01*
X355642Y119268D01*
X355638Y119266D01*
X355628Y119261D01*
X355614Y119254D01*
X355596Y119245D01*
X355575Y119231D01*
X355554Y119215D01*
X355534Y119194D01*
X355518Y119171D01*
X355515Y119169D01*
X355510Y119159D01*
X355504Y119146D01*
X355494Y119127D01*
X355487Y119106D01*
X355481Y119083D01*
X355476Y119055D01*
X355474Y119028D01*
Y119026D01*
Y119023D01*
X355476Y119009D01*
X355478Y118989D01*
X355483Y118961D01*
X355494Y118933D01*
X355508Y118901D01*
X355529Y118871D01*
X355557Y118841D01*
X355561Y118838D01*
X355573Y118829D01*
X355591Y118818D01*
X355621Y118804D01*
X355656Y118790D01*
X355702Y118778D01*
X355755Y118769D01*
X355818Y118767D01*
X356321D01*
Y119296D01*
D02*
G37*
G36*
X273682Y86533D02*
X273179D01*
Y86004D01*
X273655D01*
X273682Y86007D01*
X273715Y86009D01*
X273751Y86011D01*
X273788Y86016D01*
X273826Y86023D01*
X273858Y86032D01*
X273862Y86034D01*
X273872Y86039D01*
X273885Y86046D01*
X273904Y86055D01*
X273925Y86069D01*
X273946Y86085D01*
X273966Y86106D01*
X273983Y86129D01*
X273985Y86131D01*
X273990Y86141D01*
X273996Y86154D01*
X274006Y86173D01*
X274013Y86194D01*
X274020Y86217D01*
X274024Y86244D01*
X274026Y86272D01*
Y86274D01*
Y86277D01*
X274024Y86291D01*
X274022Y86312D01*
X274017Y86339D01*
X274006Y86367D01*
X273992Y86399D01*
X273971Y86429D01*
X273943Y86459D01*
X273939Y86462D01*
X273927Y86471D01*
X273909Y86482D01*
X273879Y86496D01*
X273844Y86510D01*
X273798Y86522D01*
X273745Y86531D01*
X273682Y86533D01*
D02*
G37*
G36*
X191285Y72971D02*
X191271D01*
X191262Y72969D01*
X191236Y72967D01*
X191206Y72960D01*
X191169Y72948D01*
X191132Y72932D01*
X191095Y72909D01*
X191061Y72877D01*
X191056Y72872D01*
X191047Y72858D01*
X191033Y72837D01*
X191015Y72807D01*
X190998Y72770D01*
X190985Y72726D01*
X190975Y72673D01*
X190971Y72613D01*
Y72611D01*
Y72606D01*
Y72597D01*
X190973Y72585D01*
Y72569D01*
X190975Y72553D01*
X190982Y72516D01*
X190991Y72472D01*
X191008Y72426D01*
X191031Y72382D01*
X191061Y72343D01*
Y72341D01*
X191065Y72338D01*
X191077Y72327D01*
X191095Y72311D01*
X191121Y72292D01*
X191153Y72276D01*
X191190Y72260D01*
X191232Y72248D01*
X191255Y72244D01*
X191292D01*
X191301Y72246D01*
X191326Y72248D01*
X191357Y72258D01*
X191393Y72269D01*
X191433Y72290D01*
X191472Y72315D01*
X191490Y72334D01*
X191509Y72352D01*
Y72355D01*
X191514Y72357D01*
X191518Y72364D01*
X191523Y72371D01*
X191539Y72394D01*
X191555Y72426D01*
X191574Y72465D01*
X191590Y72514D01*
X191599Y72569D01*
X191604Y72629D01*
Y72632D01*
Y72636D01*
Y72643D01*
X191601Y72655D01*
Y72669D01*
X191599Y72683D01*
X191592Y72717D01*
X191581Y72756D01*
X191567Y72798D01*
X191544Y72840D01*
X191514Y72877D01*
X191509Y72881D01*
X191497Y72890D01*
X191477Y72907D01*
X191451Y72923D01*
X191417Y72941D01*
X191377Y72957D01*
X191333Y72967D01*
X191285Y72971D01*
D02*
G37*
G36*
X193121Y72796D02*
X192646D01*
X192618Y72793D01*
X192585Y72791D01*
X192549Y72789D01*
X192511Y72784D01*
X192474Y72777D01*
X192442Y72768D01*
X192438Y72766D01*
X192428Y72761D01*
X192414Y72754D01*
X192396Y72745D01*
X192375Y72731D01*
X192354Y72715D01*
X192334Y72694D01*
X192317Y72671D01*
X192315Y72669D01*
X192311Y72659D01*
X192304Y72646D01*
X192294Y72627D01*
X192287Y72606D01*
X192280Y72583D01*
X192276Y72556D01*
X192274Y72528D01*
Y72526D01*
Y72523D01*
X192276Y72509D01*
X192278Y72488D01*
X192283Y72461D01*
X192294Y72433D01*
X192308Y72401D01*
X192329Y72371D01*
X192357Y72341D01*
X192361Y72338D01*
X192373Y72329D01*
X192391Y72318D01*
X192421Y72304D01*
X192456Y72290D01*
X192502Y72278D01*
X192555Y72269D01*
X192618Y72267D01*
X193121D01*
Y72796D01*
D02*
G37*
G36*
X347821Y157796D02*
X347345D01*
X347318Y157793D01*
X347285Y157791D01*
X347249Y157789D01*
X347212Y157784D01*
X347175Y157777D01*
X347142Y157768D01*
X347138Y157766D01*
X347128Y157761D01*
X347114Y157754D01*
X347096Y157745D01*
X347075Y157731D01*
X347054Y157715D01*
X347034Y157694D01*
X347018Y157671D01*
X347015Y157669D01*
X347010Y157659D01*
X347004Y157646D01*
X346994Y157627D01*
X346987Y157606D01*
X346981Y157583D01*
X346976Y157555D01*
X346974Y157528D01*
Y157526D01*
Y157523D01*
X346976Y157509D01*
X346978Y157489D01*
X346983Y157461D01*
X346994Y157433D01*
X347008Y157401D01*
X347029Y157371D01*
X347057Y157341D01*
X347061Y157338D01*
X347073Y157329D01*
X347091Y157318D01*
X347121Y157304D01*
X347156Y157290D01*
X347202Y157278D01*
X347255Y157269D01*
X347318Y157267D01*
X347821D01*
Y157796D01*
D02*
G37*
G36*
X345137Y158124D02*
X344634D01*
Y157408D01*
X345137Y158124D01*
D02*
G37*
G36*
X190728Y199303D02*
X190726D01*
X190723D01*
X190709Y199300D01*
X190689Y199298D01*
X190661Y199293D01*
X190633Y199282D01*
X190601Y199268D01*
X190571Y199247D01*
X190541Y199220D01*
X190538Y199215D01*
X190529Y199203D01*
X190518Y199185D01*
X190504Y199155D01*
X190490Y199120D01*
X190478Y199074D01*
X190469Y199021D01*
X190467Y198958D01*
Y198455D01*
X190996D01*
Y198931D01*
X190993Y198958D01*
X190991Y198991D01*
X190989Y199028D01*
X190984Y199065D01*
X190977Y199102D01*
X190968Y199134D01*
X190966Y199139D01*
X190961Y199148D01*
X190954Y199162D01*
X190945Y199180D01*
X190931Y199201D01*
X190915Y199222D01*
X190894Y199243D01*
X190871Y199259D01*
X190869Y199261D01*
X190859Y199266D01*
X190846Y199273D01*
X190827Y199282D01*
X190806Y199289D01*
X190783Y199296D01*
X190755Y199300D01*
X190728Y199303D01*
D02*
G37*
G36*
X368328Y128926D02*
X368325D01*
X368323D01*
X368309Y128924D01*
X368288Y128922D01*
X368261Y128917D01*
X368233Y128906D01*
X368201Y128892D01*
X368171Y128871D01*
X368141Y128843D01*
X368138Y128839D01*
X368129Y128827D01*
X368118Y128809D01*
X368104Y128779D01*
X368090Y128744D01*
X368078Y128698D01*
X368069Y128645D01*
X368067Y128582D01*
Y128079D01*
X368596D01*
Y128554D01*
X368593Y128582D01*
X368591Y128615D01*
X368589Y128651D01*
X368584Y128689D01*
X368577Y128726D01*
X368568Y128758D01*
X368566Y128762D01*
X368561Y128772D01*
X368554Y128786D01*
X368545Y128804D01*
X368531Y128825D01*
X368515Y128846D01*
X368494Y128866D01*
X368471Y128883D01*
X368469Y128885D01*
X368460Y128890D01*
X368446Y128896D01*
X368427Y128906D01*
X368406Y128913D01*
X368383Y128919D01*
X368355Y128924D01*
X368328Y128926D01*
D02*
G37*
G36*
X139928Y194826D02*
X139926D01*
X139923D01*
X139909Y194824D01*
X139889Y194822D01*
X139861Y194817D01*
X139833Y194806D01*
X139801Y194792D01*
X139771Y194771D01*
X139741Y194743D01*
X139738Y194739D01*
X139729Y194727D01*
X139718Y194709D01*
X139704Y194679D01*
X139690Y194644D01*
X139678Y194598D01*
X139669Y194545D01*
X139667Y194482D01*
Y193979D01*
X140196D01*
Y194455D01*
X140193Y194482D01*
X140191Y194515D01*
X140189Y194552D01*
X140184Y194588D01*
X140177Y194625D01*
X140168Y194658D01*
X140166Y194662D01*
X140161Y194672D01*
X140154Y194685D01*
X140145Y194704D01*
X140131Y194725D01*
X140115Y194746D01*
X140094Y194766D01*
X140071Y194782D01*
X140069Y194785D01*
X140059Y194790D01*
X140046Y194796D01*
X140027Y194806D01*
X140006Y194813D01*
X139983Y194819D01*
X139955Y194824D01*
X139928Y194826D01*
D02*
G37*
G36*
X147800Y195981D02*
X147798D01*
X147795D01*
X147782D01*
X147761Y195976D01*
X147735Y195972D01*
X147708Y195962D01*
X147678Y195948D01*
X147648Y195930D01*
X147618Y195905D01*
X147615Y195902D01*
X147606Y195891D01*
X147594Y195875D01*
X147581Y195854D01*
X147567Y195826D01*
X147555Y195796D01*
X147546Y195759D01*
X147544Y195720D01*
Y195701D01*
X147548Y195680D01*
X147553Y195653D01*
X147562Y195623D01*
X147574Y195590D01*
X147592Y195560D01*
X147618Y195530D01*
X147620Y195528D01*
X147629Y195519D01*
X147645Y195507D01*
X147666Y195496D01*
X147692Y195482D01*
X147722Y195470D01*
X147754Y195461D01*
X147791Y195459D01*
X147793D01*
X147795D01*
X147809Y195461D01*
X147830Y195463D01*
X147855Y195468D01*
X147886Y195477D01*
X147916Y195489D01*
X147948Y195507D01*
X147976Y195530D01*
X147978Y195533D01*
X147987Y195544D01*
X147999Y195560D01*
X148010Y195581D01*
X148024Y195609D01*
X148036Y195641D01*
X148045Y195678D01*
X148047Y195720D01*
Y195724D01*
X148045Y195738D01*
X148043Y195759D01*
X148038Y195787D01*
X148029Y195817D01*
X148017Y195847D01*
X147999Y195879D01*
X147976Y195907D01*
X147973Y195909D01*
X147962Y195918D01*
X147948Y195930D01*
X147927Y195944D01*
X147902Y195958D01*
X147872Y195969D01*
X147837Y195978D01*
X147800Y195981D01*
D02*
G37*
G36*
X148535Y196045D02*
X148532D01*
X148528D01*
X148521D01*
X148512Y196043D01*
X148486Y196041D01*
X148451Y196034D01*
X148417Y196022D01*
X148378Y196006D01*
X148338Y195983D01*
X148301Y195951D01*
X148297Y195946D01*
X148287Y195935D01*
X148271Y195914D01*
X148253Y195886D01*
X148237Y195851D01*
X148221Y195810D01*
X148211Y195764D01*
X148207Y195713D01*
Y195699D01*
X148209Y195690D01*
X148211Y195664D01*
X148218Y195632D01*
X148230Y195595D01*
X148246Y195558D01*
X148269Y195519D01*
X148299Y195484D01*
X148304Y195480D01*
X148315Y195470D01*
X148336Y195456D01*
X148361Y195440D01*
X148396Y195422D01*
X148435Y195408D01*
X148479Y195399D01*
X148528Y195394D01*
X148532D01*
X148542D01*
X148558Y195396D01*
X148579Y195399D01*
X148604Y195403D01*
X148632Y195410D01*
X148659Y195419D01*
X148689Y195431D01*
X148692Y195433D01*
X148703Y195438D01*
X148717Y195447D01*
X148733Y195461D01*
X148754Y195477D01*
X148775Y195498D01*
X148793Y195521D01*
X148812Y195549D01*
X148814Y195553D01*
X148819Y195563D01*
X148826Y195579D01*
X148833Y195600D01*
X148840Y195625D01*
X148846Y195655D01*
X148851Y195687D01*
X148853Y195720D01*
Y195734D01*
X148851Y195743D01*
X148849Y195771D01*
X148842Y195803D01*
X148830Y195840D01*
X148817Y195879D01*
X148793Y195916D01*
X148763Y195953D01*
X148759Y195958D01*
X148747Y195967D01*
X148726Y195983D01*
X148701Y195999D01*
X148669Y196015D01*
X148629Y196032D01*
X148583Y196041D01*
X148535Y196045D01*
D02*
G37*
G36*
X147828Y194726D02*
X147826D01*
X147823D01*
X147809Y194724D01*
X147789Y194722D01*
X147761Y194717D01*
X147733Y194706D01*
X147701Y194692D01*
X147671Y194671D01*
X147641Y194643D01*
X147638Y194639D01*
X147629Y194627D01*
X147618Y194609D01*
X147604Y194579D01*
X147590Y194544D01*
X147578Y194498D01*
X147569Y194445D01*
X147567Y194382D01*
Y193879D01*
X148096D01*
Y194354D01*
X148093Y194382D01*
X148091Y194415D01*
X148089Y194451D01*
X148084Y194489D01*
X148077Y194526D01*
X148068Y194558D01*
X148066Y194562D01*
X148061Y194572D01*
X148054Y194586D01*
X148045Y194604D01*
X148031Y194625D01*
X148015Y194646D01*
X147994Y194666D01*
X147971Y194683D01*
X147969Y194685D01*
X147959Y194690D01*
X147946Y194696D01*
X147927Y194706D01*
X147906Y194713D01*
X147883Y194720D01*
X147855Y194724D01*
X147828Y194726D01*
D02*
G37*
G36*
X214345Y137803D02*
X214273D01*
X214271D01*
X214269D01*
X214257D01*
X214236D01*
X214209Y137801D01*
X214179D01*
X214142Y137799D01*
X214102Y137796D01*
X214058Y137792D01*
X213971Y137780D01*
X213927Y137773D01*
X213885Y137764D01*
X213846Y137755D01*
X213809Y137741D01*
X213777Y137727D01*
X213749Y137711D01*
X213747D01*
X213744Y137706D01*
X213737Y137702D01*
X213728Y137695D01*
X213707Y137674D01*
X213682Y137649D01*
X213659Y137614D01*
X213638Y137575D01*
X213629Y137554D01*
X213622Y137531D01*
X213620Y137505D01*
X213617Y137480D01*
Y137466D01*
X213620Y137457D01*
X213624Y137431D01*
X213631Y137401D01*
X213645Y137367D01*
X213666Y137330D01*
X213680Y137311D01*
X213693Y137293D01*
X213712Y137277D01*
X213733Y137260D01*
X213735D01*
X213740Y137256D01*
X213749Y137251D01*
X213760Y137244D01*
X213779Y137237D01*
X213800Y137228D01*
X213825Y137221D01*
X213855Y137212D01*
X213890Y137203D01*
X213929Y137194D01*
X213973Y137184D01*
X214022Y137177D01*
X214077Y137170D01*
X214137Y137166D01*
X214202Y137163D01*
X214273Y137161D01*
X214278D01*
X214289D01*
X214310D01*
X214338Y137163D01*
X214368D01*
X214405Y137166D01*
X214444Y137168D01*
X214486Y137173D01*
X214576Y137184D01*
X214620Y137191D01*
X214661Y137200D01*
X214701Y137210D01*
X214738Y137223D01*
X214770Y137237D01*
X214798Y137253D01*
X214800D01*
X214802Y137258D01*
X214819Y137270D01*
X214839Y137291D01*
X214862Y137316D01*
X214885Y137351D01*
X214906Y137390D01*
X214922Y137434D01*
X214925Y137457D01*
X214927Y137482D01*
Y137496D01*
X214925Y137505D01*
X214920Y137528D01*
X214911Y137561D01*
X214895Y137595D01*
X214872Y137635D01*
X214858Y137653D01*
X214839Y137672D01*
X214821Y137690D01*
X214798Y137709D01*
X214795D01*
X214791Y137713D01*
X214784Y137718D01*
X214772Y137723D01*
X214756Y137732D01*
X214735Y137739D01*
X214712Y137748D01*
X214685Y137757D01*
X214650Y137764D01*
X214613Y137773D01*
X214569Y137783D01*
X214523Y137789D01*
X214467Y137794D01*
X214410Y137799D01*
X214345Y137803D01*
D02*
G37*
G36*
X213901Y135248D02*
X213899D01*
X213897D01*
X213883Y135246D01*
X213862Y135244D01*
X213835Y135239D01*
X213807Y135228D01*
X213774Y135214D01*
X213744Y135193D01*
X213714Y135165D01*
X213712Y135161D01*
X213703Y135149D01*
X213691Y135131D01*
X213677Y135101D01*
X213664Y135066D01*
X213652Y135020D01*
X213643Y134967D01*
X213640Y134904D01*
Y134401D01*
X214169D01*
Y134877D01*
X214167Y134904D01*
X214165Y134937D01*
X214162Y134974D01*
X214158Y135011D01*
X214151Y135047D01*
X214142Y135080D01*
X214139Y135084D01*
X214135Y135094D01*
X214128Y135108D01*
X214119Y135126D01*
X214105Y135147D01*
X214089Y135168D01*
X214068Y135188D01*
X214045Y135205D01*
X214042Y135207D01*
X214033Y135212D01*
X214019Y135218D01*
X214001Y135228D01*
X213980Y135235D01*
X213957Y135241D01*
X213929Y135246D01*
X213901Y135248D01*
D02*
G37*
G36*
X370233Y186321D02*
X369704D01*
Y185845D01*
X369707Y185818D01*
X369709Y185785D01*
X369711Y185749D01*
X369716Y185712D01*
X369723Y185675D01*
X369732Y185642D01*
X369734Y185638D01*
X369739Y185628D01*
X369746Y185615D01*
X369755Y185596D01*
X369769Y185575D01*
X369785Y185554D01*
X369806Y185534D01*
X369829Y185518D01*
X369831Y185515D01*
X369841Y185511D01*
X369854Y185504D01*
X369873Y185494D01*
X369894Y185487D01*
X369917Y185480D01*
X369945Y185476D01*
X369972Y185474D01*
X369974D01*
X369977D01*
X369991Y185476D01*
X370011Y185478D01*
X370039Y185483D01*
X370067Y185494D01*
X370099Y185508D01*
X370129Y185529D01*
X370159Y185557D01*
X370162Y185561D01*
X370171Y185573D01*
X370182Y185591D01*
X370196Y185621D01*
X370210Y185656D01*
X370222Y185702D01*
X370231Y185755D01*
X370233Y185818D01*
Y186321D01*
D02*
G37*
G36*
X338374Y151477D02*
X338360D01*
X338351Y151474D01*
X338328Y151472D01*
X338296Y151465D01*
X338261Y151453D01*
X338222Y151435D01*
X338185Y151412D01*
X338148Y151380D01*
X338143Y151375D01*
X338134Y151363D01*
X338118Y151343D01*
X338102Y151312D01*
X338085Y151278D01*
X338069Y151234D01*
X338060Y151186D01*
X338055Y151130D01*
Y151125D01*
Y151114D01*
X338058Y151093D01*
X338060Y151068D01*
X338065Y151038D01*
X338074Y151005D01*
X338083Y150971D01*
X338097Y150936D01*
X338099Y150931D01*
X338106Y150920D01*
X338115Y150904D01*
X338129Y150883D01*
X338145Y150862D01*
X338166Y150837D01*
X338189Y150816D01*
X338217Y150795D01*
X338222Y150793D01*
X338231Y150788D01*
X338247Y150779D01*
X338268Y150772D01*
X338291Y150763D01*
X338319Y150753D01*
X338349Y150749D01*
X338381Y150747D01*
X338392D01*
X338402Y150749D01*
X338425Y150751D01*
X338455Y150758D01*
X338487Y150772D01*
X338524Y150788D01*
X338561Y150814D01*
X338580Y150827D01*
X338596Y150846D01*
Y150848D01*
X338600Y150850D01*
X338610Y150864D01*
X338623Y150888D01*
X338642Y150917D01*
X338658Y150957D01*
X338672Y151003D01*
X338681Y151056D01*
X338686Y151119D01*
Y151121D01*
Y151125D01*
Y151135D01*
X338684Y151146D01*
Y151160D01*
X338681Y151176D01*
X338674Y151213D01*
X338665Y151255D01*
X338649Y151299D01*
X338626Y151340D01*
X338596Y151380D01*
X338591Y151384D01*
X338580Y151396D01*
X338561Y151409D01*
X338536Y151428D01*
X338503Y151446D01*
X338467Y151460D01*
X338423Y151472D01*
X338374Y151477D01*
D02*
G37*
G36*
X335782Y152033D02*
X335279D01*
Y151504D01*
X335754D01*
X335782Y151507D01*
X335815Y151509D01*
X335852Y151511D01*
X335889Y151516D01*
X335926Y151523D01*
X335958Y151532D01*
X335962Y151534D01*
X335972Y151539D01*
X335985Y151546D01*
X336004Y151555D01*
X336025Y151569D01*
X336046Y151585D01*
X336066Y151606D01*
X336083Y151629D01*
X336085Y151631D01*
X336089Y151641D01*
X336096Y151654D01*
X336106Y151673D01*
X336113Y151694D01*
X336120Y151717D01*
X336124Y151744D01*
X336126Y151772D01*
Y151775D01*
Y151777D01*
X336124Y151791D01*
X336122Y151812D01*
X336117Y151839D01*
X336106Y151867D01*
X336092Y151899D01*
X336071Y151929D01*
X336043Y151959D01*
X336039Y151962D01*
X336027Y151971D01*
X336009Y151982D01*
X335979Y151996D01*
X335944Y152010D01*
X335898Y152022D01*
X335845Y152031D01*
X335782Y152033D01*
D02*
G37*
G36*
X7173Y73516D02*
X7171D01*
X7162D01*
X7150D01*
X7132Y73514D01*
X7111D01*
X7088Y73512D01*
X7060Y73510D01*
X7033Y73507D01*
X6970Y73496D01*
X6905Y73482D01*
X6845Y73461D01*
X6815Y73447D01*
X6790Y73433D01*
X6788D01*
X6783Y73429D01*
X6776Y73424D01*
X6767Y73419D01*
X6744Y73401D01*
X6716Y73378D01*
X6686Y73348D01*
X6656Y73313D01*
X6631Y73274D01*
X6610Y73232D01*
X6607Y73228D01*
X6605Y73216D01*
X6598Y73195D01*
X6591Y73165D01*
X6587Y73128D01*
X6580Y73082D01*
X6577Y73054D01*
Y73024D01*
X6575Y72994D01*
Y72625D01*
X7795D01*
Y73004D01*
X7792Y73020D01*
X7790Y73054D01*
X7788Y73094D01*
X7783Y73135D01*
X7776Y73177D01*
X7767Y73212D01*
X7765Y73216D01*
X7762Y73228D01*
X7756Y73244D01*
X7746Y73265D01*
X7733Y73288D01*
X7719Y73311D01*
X7702Y73334D01*
X7684Y73357D01*
X7679Y73359D01*
X7670Y73369D01*
X7654Y73383D01*
X7631Y73399D01*
X7601Y73417D01*
X7566Y73438D01*
X7527Y73456D01*
X7483Y73473D01*
X7481D01*
X7476Y73475D01*
X7469Y73477D01*
X7460Y73479D01*
X7448Y73482D01*
X7432Y73487D01*
X7416Y73491D01*
X7397Y73496D01*
X7351Y73503D01*
X7298Y73510D01*
X7238Y73514D01*
X7173Y73516D01*
D02*
G37*
G36*
Y164617D02*
X7171D01*
X7162D01*
X7150D01*
X7132Y164614D01*
X7111D01*
X7088Y164612D01*
X7060Y164610D01*
X7033Y164607D01*
X6970Y164596D01*
X6905Y164582D01*
X6845Y164561D01*
X6815Y164547D01*
X6790Y164533D01*
X6788D01*
X6783Y164529D01*
X6776Y164524D01*
X6767Y164520D01*
X6744Y164501D01*
X6716Y164478D01*
X6686Y164448D01*
X6656Y164413D01*
X6631Y164374D01*
X6610Y164332D01*
X6607Y164328D01*
X6605Y164316D01*
X6598Y164295D01*
X6591Y164265D01*
X6587Y164228D01*
X6580Y164182D01*
X6577Y164155D01*
Y164125D01*
X6575Y164094D01*
Y163725D01*
X7795D01*
Y164104D01*
X7792Y164120D01*
X7790Y164155D01*
X7788Y164194D01*
X7783Y164235D01*
X7776Y164277D01*
X7767Y164312D01*
X7765Y164316D01*
X7762Y164328D01*
X7756Y164344D01*
X7746Y164365D01*
X7733Y164388D01*
X7719Y164411D01*
X7702Y164434D01*
X7684Y164457D01*
X7679Y164459D01*
X7670Y164469D01*
X7654Y164482D01*
X7631Y164499D01*
X7601Y164517D01*
X7566Y164538D01*
X7527Y164556D01*
X7483Y164573D01*
X7481D01*
X7476Y164575D01*
X7469Y164577D01*
X7460Y164579D01*
X7448Y164582D01*
X7432Y164586D01*
X7416Y164591D01*
X7397Y164596D01*
X7351Y164603D01*
X7298Y164610D01*
X7238Y164614D01*
X7173Y164617D01*
D02*
G37*
%LPD*%
D12*
X80266Y25562D02*
X88534D01*
Y20838D02*
Y25562D01*
X80266Y20838D02*
X88534D01*
X80266D02*
Y25562D01*
X348466Y137338D02*
X356734D01*
X348466D02*
Y142062D01*
X356734D01*
Y137338D02*
Y142062D01*
X66409Y201338D02*
X74676D01*
X66409D02*
Y206062D01*
X74676D01*
Y201338D02*
Y206062D01*
X252466Y19538D02*
X260734D01*
X252466D02*
Y24262D01*
X260734D01*
Y19538D02*
Y24262D01*
X241438Y25866D02*
Y34134D01*
X246162D01*
Y25866D02*
Y34134D01*
X241438Y25866D02*
X246162D01*
X321838Y145266D02*
Y153534D01*
X326562D01*
Y145266D02*
Y153534D01*
X321838Y145266D02*
X326562D01*
X348266Y117038D02*
X356534D01*
X348266D02*
Y121762D01*
X356534D01*
Y117038D02*
Y121762D01*
X272966Y88262D02*
X281234D01*
Y83538D02*
Y88262D01*
X272966Y83538D02*
X281234D01*
X272966D02*
Y88262D01*
X185066Y70538D02*
X193334D01*
X185066D02*
Y75262D01*
X193334D01*
Y70538D02*
Y75262D01*
X339766Y155538D02*
X348034D01*
X339766D02*
Y160262D01*
X348034D01*
Y155538D02*
Y160262D01*
X188738Y198242D02*
Y206510D01*
X193462D01*
Y198242D02*
Y206510D01*
X188738Y198242D02*
X193462D01*
X366338Y127866D02*
Y136134D01*
X371062D01*
Y127866D02*
Y136134D01*
X366338Y127866D02*
X371062D01*
X137938Y193766D02*
Y202034D01*
X142662D01*
Y193766D02*
Y202034D01*
X137938Y193766D02*
X142662D01*
X145838Y193666D02*
Y201934D01*
X150562D01*
Y193666D02*
Y201934D01*
X145838Y193666D02*
X150562D01*
X211912Y134188D02*
Y142456D01*
X216636D01*
Y134188D02*
Y142456D01*
X211912Y134188D02*
X216636D01*
X371962Y178266D02*
Y186534D01*
X367238Y178266D02*
X371962D01*
X367238D02*
Y186534D01*
X371962D01*
X335066Y153762D02*
X343334D01*
Y149038D02*
Y153762D01*
X335066Y149038D02*
X343334D01*
X335066D02*
Y153762D01*
D17*
X2984Y62600D02*
X10996D01*
Y102206D01*
X2984D02*
X10996D01*
X2984Y62600D02*
Y102206D01*
Y153700D02*
Y193306D01*
X10996D01*
Y153700D02*
Y193306D01*
X2984Y153700D02*
X10996D01*
M02*
