%TF.GenerationSoftware,Altium Limited,Altium Designer,19.1.9 (167)*%
G04 Layer_Color=16711935*
%FSLAX26Y26*%
%MOIN*%
%TF.FileFunction,Other,Mechanical_29*%
%TF.Part,Single*%
G01*
G75*
%TA.AperFunction,NonConductor*%
%ADD75C,0.007874*%
%ADD92C,0.003937*%
G36*
X3567339Y1392280D02*
X3561496D01*
X3561351Y1392298D01*
X3561187D01*
X3560805Y1392316D01*
X3560404Y1392371D01*
X3559968Y1392425D01*
X3559567Y1392516D01*
X3559367Y1392571D01*
X3559203Y1392625D01*
X3559185D01*
X3559167Y1392644D01*
X3559058Y1392698D01*
X3558894Y1392771D01*
X3558694Y1392898D01*
X3558475Y1393062D01*
X3558239Y1393281D01*
X3558020Y1393535D01*
X3557802Y1393827D01*
Y1393845D01*
X3557784Y1393863D01*
X3557711Y1393972D01*
X3557638Y1394154D01*
X3557529Y1394391D01*
X3557438Y1394664D01*
X3557347Y1394991D01*
X3557292Y1395337D01*
X3557274Y1395719D01*
Y1395738D01*
Y1395774D01*
Y1395847D01*
X3557292Y1395938D01*
Y1396065D01*
X3557310Y1396193D01*
X3557383Y1396502D01*
X3557492Y1396866D01*
X3557638Y1397248D01*
X3557856Y1397630D01*
X3558002Y1397812D01*
X3558148Y1397994D01*
X3558166Y1398013D01*
X3558184Y1398031D01*
X3558239Y1398085D01*
X3558311Y1398140D01*
X3558402Y1398213D01*
X3558512Y1398286D01*
X3558657Y1398377D01*
X3558803Y1398486D01*
X3558985Y1398577D01*
X3559185Y1398668D01*
X3559403Y1398777D01*
X3559640Y1398868D01*
X3559913Y1398941D01*
X3560186Y1399032D01*
X3560495Y1399086D01*
X3560823Y1399141D01*
X3560787Y1399159D01*
X3560714Y1399196D01*
X3560605Y1399268D01*
X3560459Y1399341D01*
X3560131Y1399541D01*
X3559968Y1399669D01*
X3559822Y1399778D01*
X3559786Y1399814D01*
X3559695Y1399905D01*
X3559549Y1400051D01*
X3559367Y1400233D01*
X3559167Y1400488D01*
X3558930Y1400761D01*
X3558694Y1401088D01*
X3558439Y1401452D01*
X3556273Y1404874D01*
X3558348D01*
X3560004Y1402253D01*
Y1402235D01*
X3560040Y1402199D01*
X3560077Y1402144D01*
X3560131Y1402071D01*
X3560259Y1401871D01*
X3560423Y1401616D01*
X3560623Y1401343D01*
X3560823Y1401052D01*
X3561023Y1400779D01*
X3561205Y1400524D01*
X3561223Y1400506D01*
X3561278Y1400433D01*
X3561369Y1400324D01*
X3561496Y1400197D01*
X3561769Y1399924D01*
X3561915Y1399796D01*
X3562061Y1399687D01*
X3562079Y1399669D01*
X3562115Y1399651D01*
X3562188Y1399614D01*
X3562297Y1399560D01*
X3562406Y1399505D01*
X3562534Y1399450D01*
X3562825Y1399359D01*
X3562843D01*
X3562880Y1399341D01*
X3562952D01*
X3563043Y1399323D01*
X3563171Y1399305D01*
X3563316D01*
X3563517Y1399287D01*
X3565664D01*
Y1404874D01*
X3567339D01*
Y1392280D01*
D02*
G37*
G36*
X3551013Y1395028D02*
X3551031Y1395046D01*
X3551122Y1395119D01*
X3551232Y1395228D01*
X3551414Y1395355D01*
X3551614Y1395519D01*
X3551869Y1395701D01*
X3552160Y1395901D01*
X3552487Y1396102D01*
X3552506D01*
X3552524Y1396120D01*
X3552633Y1396193D01*
X3552815Y1396284D01*
X3553033Y1396393D01*
X3553288Y1396520D01*
X3553561Y1396648D01*
X3553834Y1396775D01*
X3554107Y1396884D01*
Y1395392D01*
X3554089D01*
X3554053Y1395355D01*
X3553980Y1395337D01*
X3553889Y1395283D01*
X3553780Y1395228D01*
X3553652Y1395155D01*
X3553343Y1394973D01*
X3552979Y1394773D01*
X3552615Y1394518D01*
X3552233Y1394227D01*
X3551850Y1393918D01*
X3551832Y1393899D01*
X3551814Y1393881D01*
X3551759Y1393827D01*
X3551687Y1393772D01*
X3551523Y1393590D01*
X3551304Y1393372D01*
X3551086Y1393117D01*
X3550849Y1392826D01*
X3550649Y1392534D01*
X3550467Y1392225D01*
X3549466D01*
Y1404874D01*
X3551013D01*
Y1395028D01*
D02*
G37*
G36*
X3545717Y1404856D02*
Y1404783D01*
Y1404674D01*
X3545699Y1404528D01*
X3545681Y1404364D01*
X3545644Y1404182D01*
X3545608Y1404000D01*
X3545535Y1403800D01*
Y1403782D01*
X3545517Y1403764D01*
X3545480Y1403655D01*
X3545408Y1403491D01*
X3545298Y1403272D01*
X3545153Y1403018D01*
X3544971Y1402726D01*
X3544771Y1402435D01*
X3544516Y1402126D01*
Y1402108D01*
X3544479Y1402089D01*
X3544388Y1401980D01*
X3544225Y1401816D01*
X3543988Y1401580D01*
X3543715Y1401307D01*
X3543369Y1400979D01*
X3542951Y1400615D01*
X3542496Y1400233D01*
X3542477Y1400215D01*
X3542405Y1400160D01*
X3542295Y1400069D01*
X3542168Y1399960D01*
X3542004Y1399814D01*
X3541804Y1399651D01*
X3541604Y1399469D01*
X3541367Y1399268D01*
X3540912Y1398832D01*
X3540457Y1398395D01*
X3540239Y1398176D01*
X3540039Y1397958D01*
X3539857Y1397758D01*
X3539711Y1397558D01*
Y1397539D01*
X3539675Y1397521D01*
X3539638Y1397467D01*
X3539602Y1397394D01*
X3539474Y1397194D01*
X3539329Y1396957D01*
X3539201Y1396666D01*
X3539074Y1396356D01*
X3539001Y1396011D01*
X3538965Y1395683D01*
Y1395665D01*
Y1395647D01*
X3538983Y1395537D01*
X3539001Y1395355D01*
X3539056Y1395155D01*
X3539129Y1394900D01*
X3539256Y1394646D01*
X3539420Y1394391D01*
X3539638Y1394136D01*
X3539675Y1394100D01*
X3539766Y1394027D01*
X3539893Y1393936D01*
X3540093Y1393808D01*
X3540348Y1393699D01*
X3540639Y1393590D01*
X3540985Y1393517D01*
X3541367Y1393499D01*
X3541476D01*
X3541549Y1393517D01*
X3541768Y1393535D01*
X3542022Y1393590D01*
X3542295Y1393663D01*
X3542605Y1393790D01*
X3542896Y1393954D01*
X3543169Y1394172D01*
X3543205Y1394209D01*
X3543278Y1394300D01*
X3543387Y1394445D01*
X3543497Y1394664D01*
X3543624Y1394919D01*
X3543733Y1395246D01*
X3543806Y1395610D01*
X3543842Y1396029D01*
X3545426Y1395865D01*
Y1395847D01*
X3545408Y1395792D01*
Y1395701D01*
X3545389Y1395574D01*
X3545353Y1395428D01*
X3545317Y1395264D01*
X3545262Y1395064D01*
X3545207Y1394864D01*
X3545062Y1394427D01*
X3544843Y1393990D01*
X3544716Y1393772D01*
X3544552Y1393554D01*
X3544388Y1393353D01*
X3544206Y1393171D01*
X3544188Y1393153D01*
X3544152Y1393135D01*
X3544097Y1393080D01*
X3544006Y1393026D01*
X3543897Y1392953D01*
X3543770Y1392880D01*
X3543624Y1392789D01*
X3543442Y1392698D01*
X3543242Y1392607D01*
X3543023Y1392516D01*
X3542787Y1392443D01*
X3542532Y1392371D01*
X3542259Y1392316D01*
X3541968Y1392261D01*
X3541658Y1392243D01*
X3541331Y1392225D01*
X3541149D01*
X3541021Y1392243D01*
X3540876Y1392261D01*
X3540694Y1392280D01*
X3540494Y1392316D01*
X3540293Y1392352D01*
X3539820Y1392480D01*
X3539347Y1392662D01*
X3539110Y1392771D01*
X3538874Y1392898D01*
X3538655Y1393062D01*
X3538455Y1393244D01*
X3538437Y1393262D01*
X3538401Y1393281D01*
X3538364Y1393353D01*
X3538291Y1393426D01*
X3538200Y1393517D01*
X3538109Y1393645D01*
X3538018Y1393772D01*
X3537909Y1393936D01*
X3537727Y1394282D01*
X3537545Y1394718D01*
X3537472Y1394937D01*
X3537436Y1395192D01*
X3537400Y1395446D01*
X3537381Y1395719D01*
Y1395756D01*
Y1395847D01*
X3537400Y1395992D01*
X3537418Y1396193D01*
X3537454Y1396411D01*
X3537527Y1396666D01*
X3537600Y1396939D01*
X3537709Y1397212D01*
X3537727Y1397248D01*
X3537764Y1397339D01*
X3537836Y1397485D01*
X3537946Y1397685D01*
X3538091Y1397903D01*
X3538273Y1398176D01*
X3538492Y1398449D01*
X3538746Y1398759D01*
X3538783Y1398795D01*
X3538874Y1398904D01*
X3538965Y1398995D01*
X3539056Y1399086D01*
X3539165Y1399196D01*
X3539311Y1399341D01*
X3539456Y1399487D01*
X3539638Y1399651D01*
X3539820Y1399833D01*
X3540039Y1400033D01*
X3540275Y1400233D01*
X3540530Y1400470D01*
X3540821Y1400706D01*
X3541112Y1400961D01*
X3541131Y1400979D01*
X3541167Y1401016D01*
X3541240Y1401070D01*
X3541331Y1401143D01*
X3541440Y1401252D01*
X3541567Y1401361D01*
X3541859Y1401598D01*
X3542168Y1401871D01*
X3542459Y1402144D01*
X3542714Y1402381D01*
X3542823Y1402472D01*
X3542914Y1402563D01*
X3542932Y1402581D01*
X3542987Y1402635D01*
X3543060Y1402708D01*
X3543151Y1402817D01*
X3543242Y1402945D01*
X3543351Y1403072D01*
X3543569Y1403382D01*
X3537363D01*
Y1404874D01*
X3545717D01*
Y1404856D01*
D02*
G37*
G36*
X746764Y2032280D02*
X740922D01*
X740776Y2032298D01*
X740612D01*
X740230Y2032316D01*
X739830Y2032371D01*
X739393Y2032425D01*
X738992Y2032516D01*
X738792Y2032571D01*
X738628Y2032625D01*
X738610D01*
X738592Y2032644D01*
X738483Y2032698D01*
X738319Y2032771D01*
X738119Y2032898D01*
X737900Y2033062D01*
X737664Y2033281D01*
X737445Y2033535D01*
X737227Y2033827D01*
Y2033845D01*
X737209Y2033863D01*
X737136Y2033972D01*
X737063Y2034154D01*
X736954Y2034391D01*
X736863Y2034664D01*
X736772Y2034991D01*
X736717Y2035337D01*
X736699Y2035719D01*
Y2035738D01*
Y2035774D01*
Y2035847D01*
X736717Y2035938D01*
Y2036065D01*
X736736Y2036193D01*
X736808Y2036502D01*
X736918Y2036866D01*
X737063Y2037248D01*
X737282Y2037630D01*
X737427Y2037812D01*
X737573Y2037994D01*
X737591Y2038013D01*
X737609Y2038031D01*
X737664Y2038085D01*
X737737Y2038140D01*
X737828Y2038213D01*
X737937Y2038286D01*
X738082Y2038377D01*
X738228Y2038486D01*
X738410Y2038577D01*
X738610Y2038668D01*
X738829Y2038777D01*
X739065Y2038868D01*
X739338Y2038941D01*
X739611Y2039032D01*
X739921Y2039086D01*
X740248Y2039141D01*
X740212Y2039159D01*
X740139Y2039196D01*
X740030Y2039268D01*
X739884Y2039341D01*
X739557Y2039541D01*
X739393Y2039669D01*
X739247Y2039778D01*
X739211Y2039814D01*
X739120Y2039905D01*
X738974Y2040051D01*
X738792Y2040233D01*
X738592Y2040488D01*
X738355Y2040761D01*
X738119Y2041088D01*
X737864Y2041452D01*
X735698Y2044874D01*
X737773D01*
X739429Y2042253D01*
Y2042235D01*
X739466Y2042199D01*
X739502Y2042144D01*
X739557Y2042071D01*
X739684Y2041871D01*
X739848Y2041616D01*
X740048Y2041343D01*
X740248Y2041052D01*
X740448Y2040779D01*
X740630Y2040524D01*
X740649Y2040506D01*
X740703Y2040433D01*
X740794Y2040324D01*
X740922Y2040197D01*
X741195Y2039924D01*
X741340Y2039796D01*
X741486Y2039687D01*
X741504Y2039669D01*
X741540Y2039651D01*
X741613Y2039614D01*
X741722Y2039560D01*
X741832Y2039505D01*
X741959Y2039450D01*
X742250Y2039359D01*
X742268D01*
X742305Y2039341D01*
X742378D01*
X742469Y2039323D01*
X742596Y2039305D01*
X742742D01*
X742942Y2039287D01*
X745089D01*
Y2044874D01*
X746764D01*
Y2032280D01*
D02*
G37*
G36*
X730602Y2045074D02*
X730748D01*
X730912Y2045056D01*
X731094Y2045020D01*
X731312Y2044965D01*
X731530Y2044910D01*
X731785Y2044838D01*
X732040Y2044747D01*
X732295Y2044637D01*
X732568Y2044492D01*
X732823Y2044328D01*
X733077Y2044146D01*
X733332Y2043928D01*
X733569Y2043673D01*
X733587Y2043655D01*
X733623Y2043600D01*
X733678Y2043527D01*
X733751Y2043400D01*
X733860Y2043236D01*
X733951Y2043054D01*
X734060Y2042817D01*
X734169Y2042563D01*
X734297Y2042253D01*
X734406Y2041907D01*
X734497Y2041525D01*
X734588Y2041107D01*
X734679Y2040633D01*
X734734Y2040124D01*
X734770Y2039578D01*
X734788Y2038995D01*
Y2038977D01*
Y2038959D01*
Y2038904D01*
Y2038832D01*
X734770Y2038650D01*
Y2038395D01*
X734752Y2038104D01*
X734715Y2037758D01*
X734679Y2037376D01*
X734624Y2036957D01*
X734552Y2036538D01*
X734461Y2036083D01*
X734351Y2035647D01*
X734224Y2035210D01*
X734060Y2034791D01*
X733878Y2034391D01*
X733678Y2034009D01*
X733441Y2033681D01*
X733423Y2033663D01*
X733387Y2033626D01*
X733314Y2033554D01*
X733223Y2033444D01*
X733114Y2033335D01*
X732968Y2033226D01*
X732786Y2033080D01*
X732604Y2032953D01*
X732386Y2032826D01*
X732149Y2032680D01*
X731876Y2032571D01*
X731603Y2032443D01*
X731294Y2032352D01*
X730966Y2032280D01*
X730620Y2032243D01*
X730256Y2032225D01*
X730111D01*
X730002Y2032243D01*
X729874D01*
X729729Y2032261D01*
X729383Y2032334D01*
X729001Y2032425D01*
X728600Y2032571D01*
X728200Y2032789D01*
X728000Y2032917D01*
X727818Y2033062D01*
X727799Y2033080D01*
X727781Y2033099D01*
X727727Y2033153D01*
X727672Y2033208D01*
X727581Y2033299D01*
X727508Y2033408D01*
X727308Y2033663D01*
X727108Y2033990D01*
X726926Y2034391D01*
X726762Y2034846D01*
X726653Y2035355D01*
X728200Y2035483D01*
Y2035465D01*
X728218Y2035446D01*
X728236Y2035337D01*
X728291Y2035173D01*
X728364Y2034973D01*
X728436Y2034755D01*
X728546Y2034536D01*
X728673Y2034336D01*
X728800Y2034172D01*
X728837Y2034136D01*
X728910Y2034063D01*
X729037Y2033954D01*
X729219Y2033827D01*
X729456Y2033717D01*
X729710Y2033608D01*
X730020Y2033535D01*
X730347Y2033499D01*
X730475D01*
X730620Y2033517D01*
X730784Y2033554D01*
X731003Y2033608D01*
X731221Y2033681D01*
X731439Y2033772D01*
X731658Y2033918D01*
X731694Y2033936D01*
X731785Y2034009D01*
X731913Y2034136D01*
X732076Y2034318D01*
X732258Y2034536D01*
X732459Y2034791D01*
X732641Y2035119D01*
X732823Y2035483D01*
Y2035501D01*
X732841Y2035537D01*
X732859Y2035592D01*
X732895Y2035665D01*
X732914Y2035774D01*
X732950Y2035901D01*
X732986Y2036047D01*
X733023Y2036229D01*
X733077Y2036429D01*
X733114Y2036648D01*
X733150Y2036884D01*
X733168Y2037139D01*
X733205Y2037430D01*
X733223Y2037721D01*
X733241Y2038049D01*
Y2038377D01*
X733223Y2038358D01*
X733150Y2038249D01*
X733023Y2038104D01*
X732859Y2037922D01*
X732677Y2037703D01*
X732440Y2037503D01*
X732186Y2037303D01*
X731894Y2037121D01*
X731876D01*
X731858Y2037103D01*
X731749Y2037048D01*
X731585Y2036993D01*
X731367Y2036902D01*
X731112Y2036830D01*
X730821Y2036775D01*
X730511Y2036720D01*
X730184Y2036702D01*
X730038D01*
X729929Y2036720D01*
X729783Y2036739D01*
X729638Y2036757D01*
X729456Y2036793D01*
X729274Y2036848D01*
X728855Y2036975D01*
X728637Y2037066D01*
X728418Y2037194D01*
X728200Y2037321D01*
X727963Y2037467D01*
X727745Y2037649D01*
X727545Y2037849D01*
X727526Y2037867D01*
X727490Y2037903D01*
X727435Y2037958D01*
X727381Y2038049D01*
X727290Y2038176D01*
X727199Y2038304D01*
X727108Y2038468D01*
X726999Y2038650D01*
X726889Y2038850D01*
X726798Y2039068D01*
X726707Y2039323D01*
X726616Y2039578D01*
X726562Y2039851D01*
X726507Y2040160D01*
X726471Y2040470D01*
X726453Y2040797D01*
Y2040815D01*
Y2040852D01*
Y2040906D01*
Y2040997D01*
X726471Y2041107D01*
Y2041216D01*
X726525Y2041507D01*
X726580Y2041853D01*
X726671Y2042217D01*
X726798Y2042617D01*
X726980Y2042999D01*
Y2043018D01*
X726999Y2043036D01*
X727035Y2043090D01*
X727071Y2043163D01*
X727181Y2043345D01*
X727344Y2043582D01*
X727545Y2043837D01*
X727781Y2044091D01*
X728072Y2044346D01*
X728382Y2044565D01*
X728400D01*
X728418Y2044583D01*
X728473Y2044619D01*
X728546Y2044637D01*
X728728Y2044728D01*
X728964Y2044819D01*
X729274Y2044929D01*
X729619Y2045001D01*
X730002Y2045074D01*
X730420Y2045092D01*
X730511D01*
X730602Y2045074D01*
D02*
G37*
G36*
X2607339Y214280D02*
X2601496D01*
X2601351Y214298D01*
X2601187D01*
X2600805Y214316D01*
X2600404Y214371D01*
X2599968Y214425D01*
X2599567Y214516D01*
X2599367Y214571D01*
X2599203Y214625D01*
X2599185D01*
X2599167Y214644D01*
X2599058Y214698D01*
X2598894Y214771D01*
X2598694Y214898D01*
X2598475Y215062D01*
X2598239Y215281D01*
X2598020Y215535D01*
X2597802Y215827D01*
Y215845D01*
X2597784Y215863D01*
X2597711Y215972D01*
X2597638Y216154D01*
X2597529Y216391D01*
X2597438Y216664D01*
X2597347Y216991D01*
X2597292Y217337D01*
X2597274Y217719D01*
Y217738D01*
Y217774D01*
Y217847D01*
X2597292Y217938D01*
Y218065D01*
X2597310Y218193D01*
X2597383Y218502D01*
X2597492Y218866D01*
X2597638Y219248D01*
X2597856Y219630D01*
X2598002Y219812D01*
X2598148Y219994D01*
X2598166Y220013D01*
X2598184Y220031D01*
X2598239Y220085D01*
X2598311Y220140D01*
X2598402Y220213D01*
X2598512Y220286D01*
X2598657Y220377D01*
X2598803Y220486D01*
X2598985Y220577D01*
X2599185Y220668D01*
X2599403Y220777D01*
X2599640Y220868D01*
X2599913Y220941D01*
X2600186Y221032D01*
X2600495Y221086D01*
X2600823Y221141D01*
X2600787Y221159D01*
X2600714Y221196D01*
X2600605Y221268D01*
X2600459Y221341D01*
X2600131Y221541D01*
X2599968Y221669D01*
X2599822Y221778D01*
X2599786Y221814D01*
X2599695Y221905D01*
X2599549Y222051D01*
X2599367Y222233D01*
X2599167Y222488D01*
X2598930Y222761D01*
X2598694Y223088D01*
X2598439Y223452D01*
X2596273Y226874D01*
X2598348D01*
X2600004Y224253D01*
Y224235D01*
X2600040Y224199D01*
X2600077Y224144D01*
X2600131Y224071D01*
X2600259Y223871D01*
X2600423Y223616D01*
X2600623Y223343D01*
X2600823Y223052D01*
X2601023Y222779D01*
X2601205Y222524D01*
X2601223Y222506D01*
X2601278Y222433D01*
X2601369Y222324D01*
X2601496Y222197D01*
X2601769Y221924D01*
X2601915Y221796D01*
X2602061Y221687D01*
X2602079Y221669D01*
X2602115Y221651D01*
X2602188Y221614D01*
X2602297Y221560D01*
X2602406Y221505D01*
X2602534Y221450D01*
X2602825Y221359D01*
X2602843D01*
X2602880Y221341D01*
X2602952D01*
X2603043Y221323D01*
X2603171Y221305D01*
X2603316D01*
X2603517Y221287D01*
X2605664D01*
Y226874D01*
X2607339D01*
Y214280D01*
D02*
G37*
G36*
X2591013Y217028D02*
X2591031Y217046D01*
X2591122Y217119D01*
X2591232Y217228D01*
X2591414Y217355D01*
X2591614Y217519D01*
X2591869Y217701D01*
X2592160Y217901D01*
X2592487Y218102D01*
X2592506D01*
X2592524Y218120D01*
X2592633Y218193D01*
X2592815Y218284D01*
X2593033Y218393D01*
X2593288Y218520D01*
X2593561Y218648D01*
X2593834Y218775D01*
X2594107Y218884D01*
Y217392D01*
X2594089D01*
X2594053Y217355D01*
X2593980Y217337D01*
X2593889Y217283D01*
X2593780Y217228D01*
X2593652Y217155D01*
X2593343Y216973D01*
X2592979Y216773D01*
X2592615Y216518D01*
X2592233Y216227D01*
X2591850Y215918D01*
X2591832Y215899D01*
X2591814Y215881D01*
X2591759Y215827D01*
X2591687Y215772D01*
X2591523Y215590D01*
X2591304Y215372D01*
X2591086Y215117D01*
X2590849Y214826D01*
X2590649Y214534D01*
X2590467Y214225D01*
X2589466D01*
Y226874D01*
X2591013D01*
Y217028D01*
D02*
G37*
G36*
X2581222D02*
X2581240Y217046D01*
X2581331Y217119D01*
X2581440Y217228D01*
X2581622Y217355D01*
X2581822Y217519D01*
X2582077Y217701D01*
X2582368Y217901D01*
X2582696Y218102D01*
X2582714D01*
X2582732Y218120D01*
X2582841Y218193D01*
X2583023Y218284D01*
X2583242Y218393D01*
X2583497Y218520D01*
X2583770Y218648D01*
X2584043Y218775D01*
X2584316Y218884D01*
Y217392D01*
X2584297D01*
X2584261Y217355D01*
X2584188Y217337D01*
X2584097Y217283D01*
X2583988Y217228D01*
X2583861Y217155D01*
X2583551Y216973D01*
X2583187Y216773D01*
X2582823Y216518D01*
X2582441Y216227D01*
X2582059Y215918D01*
X2582041Y215899D01*
X2582022Y215881D01*
X2581968Y215827D01*
X2581895Y215772D01*
X2581731Y215590D01*
X2581513Y215372D01*
X2581294Y215117D01*
X2581058Y214826D01*
X2580858Y214534D01*
X2580676Y214225D01*
X2579675D01*
Y226874D01*
X2581222D01*
Y217028D01*
D02*
G37*
G36*
X2440232Y288710D02*
X2440450D01*
X2440687Y288691D01*
X2440942Y288673D01*
X2441524Y288619D01*
X2442125Y288528D01*
X2442707Y288418D01*
X2442980Y288346D01*
X2443253Y288255D01*
X2443271D01*
X2443308Y288236D01*
X2443381Y288200D01*
X2443472Y288164D01*
X2443599Y288127D01*
X2443726Y288054D01*
X2444036Y287909D01*
X2444363Y287727D01*
X2444727Y287490D01*
X2445055Y287217D01*
X2445364Y286890D01*
Y286871D01*
X2445401Y286853D01*
X2445437Y286799D01*
X2445474Y286726D01*
X2445528Y286635D01*
X2445601Y286544D01*
X2445728Y286271D01*
X2445856Y285943D01*
X2445983Y285561D01*
X2446056Y285106D01*
X2446092Y284615D01*
Y284433D01*
X2446074Y284305D01*
X2446056Y284160D01*
X2446020Y283978D01*
X2445983Y283777D01*
X2445929Y283559D01*
X2445856Y283341D01*
X2445783Y283104D01*
X2445674Y282867D01*
X2445546Y282631D01*
X2445401Y282394D01*
X2445219Y282158D01*
X2445019Y281939D01*
X2444800Y281739D01*
X2444782Y281721D01*
X2444727Y281684D01*
X2444636Y281630D01*
X2444491Y281539D01*
X2444327Y281448D01*
X2444109Y281357D01*
X2443854Y281229D01*
X2443563Y281120D01*
X2443235Y281011D01*
X2442853Y280902D01*
X2442434Y280793D01*
X2441961Y280702D01*
X2441451Y280611D01*
X2440905Y280556D01*
X2440305Y280520D01*
X2439668Y280501D01*
X2439650D01*
X2439577D01*
X2439449D01*
X2439304D01*
X2439104Y280520D01*
X2438885D01*
X2438649Y280538D01*
X2438376Y280556D01*
X2437811Y280611D01*
X2437211Y280702D01*
X2436610Y280811D01*
X2436337Y280884D01*
X2436064Y280956D01*
X2436046D01*
X2436010Y280975D01*
X2435937Y281011D01*
X2435846Y281047D01*
X2435718Y281084D01*
X2435591Y281157D01*
X2435282Y281302D01*
X2434954Y281484D01*
X2434608Y281721D01*
X2434262Y281994D01*
X2433971Y282321D01*
Y282340D01*
X2433935Y282358D01*
X2433898Y282412D01*
X2433862Y282485D01*
X2433789Y282576D01*
X2433735Y282685D01*
X2433589Y282958D01*
X2433462Y283286D01*
X2433334Y283668D01*
X2433261Y284123D01*
X2433225Y284615D01*
Y284778D01*
X2433243Y284979D01*
X2433280Y285215D01*
X2433334Y285488D01*
X2433407Y285779D01*
X2433498Y286089D01*
X2433644Y286380D01*
Y286398D01*
X2433662Y286416D01*
X2433716Y286507D01*
X2433807Y286653D01*
X2433935Y286835D01*
X2434117Y287035D01*
X2434317Y287254D01*
X2434554Y287454D01*
X2434827Y287654D01*
X2434863Y287672D01*
X2434954Y287745D01*
X2435118Y287818D01*
X2435354Y287945D01*
X2435627Y288054D01*
X2435937Y288200D01*
X2436301Y288327D01*
X2436701Y288437D01*
X2436719D01*
X2436756Y288455D01*
X2436810Y288473D01*
X2436901Y288491D01*
X2437011Y288509D01*
X2437138Y288528D01*
X2437302Y288564D01*
X2437484Y288582D01*
X2437684Y288619D01*
X2437902Y288637D01*
X2438157Y288655D01*
X2438412Y288691D01*
X2438703Y288710D01*
X2438994D01*
X2439322Y288728D01*
X2439668D01*
X2439686D01*
X2439759D01*
X2439886D01*
X2440032D01*
X2440232Y288710D01*
D02*
G37*
G36*
X2445874Y274987D02*
X2436028D01*
X2436046Y274969D01*
X2436119Y274878D01*
X2436228Y274768D01*
X2436355Y274586D01*
X2436519Y274386D01*
X2436701Y274131D01*
X2436901Y273840D01*
X2437102Y273513D01*
Y273494D01*
X2437120Y273476D01*
X2437193Y273367D01*
X2437284Y273185D01*
X2437393Y272967D01*
X2437520Y272712D01*
X2437648Y272439D01*
X2437775Y272166D01*
X2437884Y271893D01*
X2436392D01*
Y271911D01*
X2436355Y271947D01*
X2436337Y272020D01*
X2436283Y272111D01*
X2436228Y272220D01*
X2436155Y272348D01*
X2435973Y272657D01*
X2435773Y273021D01*
X2435518Y273385D01*
X2435227Y273767D01*
X2434918Y274150D01*
X2434899Y274168D01*
X2434881Y274186D01*
X2434827Y274241D01*
X2434772Y274313D01*
X2434590Y274477D01*
X2434372Y274696D01*
X2434117Y274914D01*
X2433826Y275151D01*
X2433534Y275351D01*
X2433225Y275533D01*
Y276534D01*
X2445874D01*
Y274987D01*
D02*
G37*
G36*
Y267652D02*
X2443253Y265996D01*
X2443235D01*
X2443199Y265960D01*
X2443144Y265923D01*
X2443071Y265869D01*
X2442871Y265741D01*
X2442616Y265577D01*
X2442343Y265377D01*
X2442052Y265177D01*
X2441779Y264977D01*
X2441524Y264795D01*
X2441506Y264777D01*
X2441433Y264722D01*
X2441324Y264631D01*
X2441197Y264504D01*
X2440924Y264231D01*
X2440796Y264085D01*
X2440687Y263939D01*
X2440669Y263921D01*
X2440651Y263885D01*
X2440614Y263812D01*
X2440560Y263703D01*
X2440505Y263594D01*
X2440450Y263466D01*
X2440359Y263175D01*
Y263157D01*
X2440341Y263120D01*
Y263048D01*
X2440323Y262957D01*
X2440305Y262829D01*
Y262684D01*
X2440287Y262483D01*
Y260336D01*
X2445874D01*
Y258661D01*
X2433280D01*
Y264504D01*
X2433298Y264649D01*
Y264813D01*
X2433316Y265195D01*
X2433371Y265596D01*
X2433425Y266032D01*
X2433516Y266433D01*
X2433571Y266633D01*
X2433625Y266797D01*
Y266815D01*
X2433644Y266833D01*
X2433698Y266942D01*
X2433771Y267106D01*
X2433898Y267306D01*
X2434062Y267525D01*
X2434281Y267761D01*
X2434535Y267980D01*
X2434827Y268198D01*
X2434845D01*
X2434863Y268216D01*
X2434972Y268289D01*
X2435154Y268362D01*
X2435391Y268471D01*
X2435664Y268562D01*
X2435991Y268653D01*
X2436337Y268708D01*
X2436719Y268726D01*
X2436738D01*
X2436774D01*
X2436847D01*
X2436938Y268708D01*
X2437065D01*
X2437193Y268690D01*
X2437502Y268617D01*
X2437866Y268508D01*
X2438248Y268362D01*
X2438630Y268144D01*
X2438812Y267998D01*
X2438994Y267852D01*
X2439013Y267834D01*
X2439031Y267816D01*
X2439085Y267761D01*
X2439140Y267689D01*
X2439213Y267598D01*
X2439286Y267488D01*
X2439377Y267343D01*
X2439486Y267197D01*
X2439577Y267015D01*
X2439668Y266815D01*
X2439777Y266597D01*
X2439868Y266360D01*
X2439941Y266087D01*
X2440032Y265814D01*
X2440086Y265505D01*
X2440141Y265177D01*
X2440159Y265213D01*
X2440196Y265286D01*
X2440268Y265395D01*
X2440341Y265541D01*
X2440541Y265869D01*
X2440669Y266032D01*
X2440778Y266178D01*
X2440814Y266214D01*
X2440905Y266305D01*
X2441051Y266451D01*
X2441233Y266633D01*
X2441488Y266833D01*
X2441761Y267070D01*
X2442088Y267306D01*
X2442452Y267561D01*
X2445874Y269727D01*
Y267652D01*
D02*
G37*
G36*
X3238681Y1482746D02*
X3238717Y1482710D01*
X3238790Y1482637D01*
X3238899Y1482564D01*
X3239027Y1482455D01*
X3239172Y1482309D01*
X3239354Y1482164D01*
X3239573Y1482000D01*
X3239791Y1481836D01*
X3240046Y1481636D01*
X3240337Y1481436D01*
X3240628Y1481235D01*
X3240956Y1481017D01*
X3241302Y1480799D01*
X3241684Y1480580D01*
X3242066Y1480362D01*
X3242084Y1480344D01*
X3242157Y1480307D01*
X3242266Y1480253D01*
X3242430Y1480162D01*
X3242630Y1480071D01*
X3242849Y1479961D01*
X3243104Y1479834D01*
X3243395Y1479707D01*
X3243722Y1479561D01*
X3244050Y1479397D01*
X3244414Y1479252D01*
X3244796Y1479106D01*
X3245579Y1478815D01*
X3246416Y1478542D01*
X3246434D01*
X3246489Y1478524D01*
X3246580Y1478505D01*
X3246689Y1478469D01*
X3246835Y1478433D01*
X3247017Y1478396D01*
X3247217Y1478342D01*
X3247435Y1478305D01*
X3247690Y1478251D01*
X3247963Y1478196D01*
X3248545Y1478105D01*
X3249182Y1478014D01*
X3249874Y1477959D01*
Y1476376D01*
X3249856D01*
X3249801D01*
X3249728D01*
X3249619Y1476394D01*
X3249474D01*
X3249292Y1476412D01*
X3249091Y1476431D01*
X3248873Y1476449D01*
X3248618Y1476485D01*
X3248363Y1476522D01*
X3248054Y1476576D01*
X3247745Y1476631D01*
X3247417Y1476685D01*
X3247053Y1476758D01*
X3246307Y1476940D01*
X3246289D01*
X3246216Y1476958D01*
X3246107Y1476995D01*
X3245943Y1477049D01*
X3245761Y1477104D01*
X3245542Y1477177D01*
X3245288Y1477250D01*
X3245015Y1477359D01*
X3244705Y1477468D01*
X3244396Y1477577D01*
X3243704Y1477850D01*
X3242976Y1478178D01*
X3242248Y1478542D01*
X3242230Y1478560D01*
X3242157Y1478596D01*
X3242066Y1478651D01*
X3241921Y1478724D01*
X3241757Y1478815D01*
X3241557Y1478942D01*
X3241338Y1479070D01*
X3241102Y1479215D01*
X3240574Y1479561D01*
X3240028Y1479925D01*
X3239464Y1480344D01*
X3238936Y1480780D01*
Y1474611D01*
X3237443D01*
Y1482764D01*
X3238663D01*
X3238681Y1482746D01*
D02*
G37*
G36*
X3249874Y1468987D02*
X3240028D01*
X3240046Y1468969D01*
X3240119Y1468878D01*
X3240228Y1468768D01*
X3240355Y1468586D01*
X3240519Y1468386D01*
X3240701Y1468131D01*
X3240901Y1467840D01*
X3241102Y1467513D01*
Y1467494D01*
X3241120Y1467476D01*
X3241193Y1467367D01*
X3241284Y1467185D01*
X3241393Y1466967D01*
X3241520Y1466712D01*
X3241648Y1466439D01*
X3241775Y1466166D01*
X3241884Y1465893D01*
X3240392D01*
Y1465911D01*
X3240355Y1465947D01*
X3240337Y1466020D01*
X3240283Y1466111D01*
X3240228Y1466220D01*
X3240155Y1466348D01*
X3239973Y1466657D01*
X3239773Y1467021D01*
X3239518Y1467385D01*
X3239227Y1467767D01*
X3238918Y1468150D01*
X3238899Y1468168D01*
X3238881Y1468186D01*
X3238827Y1468241D01*
X3238772Y1468313D01*
X3238590Y1468477D01*
X3238372Y1468696D01*
X3238117Y1468914D01*
X3237826Y1469151D01*
X3237534Y1469351D01*
X3237225Y1469533D01*
Y1470534D01*
X3249874D01*
Y1468987D01*
D02*
G37*
G36*
Y1461652D02*
X3247253Y1459996D01*
X3247235D01*
X3247199Y1459960D01*
X3247144Y1459923D01*
X3247071Y1459869D01*
X3246871Y1459741D01*
X3246616Y1459577D01*
X3246343Y1459377D01*
X3246052Y1459177D01*
X3245779Y1458977D01*
X3245524Y1458795D01*
X3245506Y1458777D01*
X3245433Y1458722D01*
X3245324Y1458631D01*
X3245197Y1458504D01*
X3244924Y1458231D01*
X3244796Y1458085D01*
X3244687Y1457939D01*
X3244669Y1457921D01*
X3244651Y1457885D01*
X3244614Y1457812D01*
X3244560Y1457703D01*
X3244505Y1457594D01*
X3244450Y1457466D01*
X3244359Y1457175D01*
Y1457157D01*
X3244341Y1457120D01*
Y1457048D01*
X3244323Y1456957D01*
X3244305Y1456829D01*
Y1456684D01*
X3244287Y1456483D01*
Y1454336D01*
X3249874D01*
Y1452661D01*
X3237280D01*
Y1458504D01*
X3237298Y1458649D01*
Y1458813D01*
X3237316Y1459195D01*
X3237371Y1459596D01*
X3237425Y1460032D01*
X3237516Y1460433D01*
X3237571Y1460633D01*
X3237625Y1460797D01*
Y1460815D01*
X3237644Y1460833D01*
X3237698Y1460942D01*
X3237771Y1461106D01*
X3237898Y1461306D01*
X3238062Y1461525D01*
X3238281Y1461761D01*
X3238535Y1461980D01*
X3238827Y1462198D01*
X3238845D01*
X3238863Y1462216D01*
X3238972Y1462289D01*
X3239154Y1462362D01*
X3239391Y1462471D01*
X3239664Y1462562D01*
X3239991Y1462653D01*
X3240337Y1462708D01*
X3240719Y1462726D01*
X3240738D01*
X3240774D01*
X3240847D01*
X3240938Y1462708D01*
X3241065D01*
X3241193Y1462690D01*
X3241502Y1462617D01*
X3241866Y1462508D01*
X3242248Y1462362D01*
X3242630Y1462144D01*
X3242812Y1461998D01*
X3242994Y1461852D01*
X3243013Y1461834D01*
X3243031Y1461816D01*
X3243085Y1461761D01*
X3243140Y1461689D01*
X3243213Y1461598D01*
X3243286Y1461488D01*
X3243377Y1461343D01*
X3243486Y1461197D01*
X3243577Y1461015D01*
X3243668Y1460815D01*
X3243777Y1460597D01*
X3243868Y1460360D01*
X3243941Y1460087D01*
X3244032Y1459814D01*
X3244086Y1459505D01*
X3244141Y1459177D01*
X3244159Y1459213D01*
X3244196Y1459286D01*
X3244268Y1459395D01*
X3244341Y1459541D01*
X3244541Y1459869D01*
X3244669Y1460032D01*
X3244778Y1460178D01*
X3244814Y1460214D01*
X3244905Y1460305D01*
X3245051Y1460451D01*
X3245233Y1460633D01*
X3245488Y1460833D01*
X3245761Y1461070D01*
X3246088Y1461306D01*
X3246452Y1461561D01*
X3249874Y1463727D01*
Y1461652D01*
D02*
G37*
G36*
X3539768Y1202074D02*
X3539913Y1202056D01*
X3540077Y1202038D01*
X3540259Y1202001D01*
X3540459Y1201965D01*
X3540896Y1201856D01*
X3541351Y1201674D01*
X3541588Y1201565D01*
X3541806Y1201437D01*
X3542024Y1201273D01*
X3542243Y1201110D01*
X3542261Y1201091D01*
X3542297Y1201055D01*
X3542352Y1201000D01*
X3542407Y1200928D01*
X3542498Y1200837D01*
X3542589Y1200709D01*
X3542698Y1200582D01*
X3542807Y1200418D01*
X3542916Y1200236D01*
X3543025Y1200054D01*
X3543226Y1199617D01*
X3543389Y1199108D01*
X3543444Y1198835D01*
X3543480Y1198543D01*
X3541933Y1198343D01*
Y1198361D01*
X3541915Y1198398D01*
X3541897Y1198471D01*
X3541879Y1198562D01*
X3541861Y1198671D01*
X3541824Y1198798D01*
X3541733Y1199071D01*
X3541606Y1199399D01*
X3541442Y1199708D01*
X3541260Y1199999D01*
X3541042Y1200254D01*
X3541005Y1200272D01*
X3540932Y1200345D01*
X3540787Y1200436D01*
X3540605Y1200527D01*
X3540386Y1200636D01*
X3540113Y1200727D01*
X3539804Y1200800D01*
X3539476Y1200818D01*
X3539367D01*
X3539294Y1200800D01*
X3539094Y1200782D01*
X3538839Y1200727D01*
X3538548Y1200636D01*
X3538239Y1200509D01*
X3537929Y1200327D01*
X3537638Y1200072D01*
X3537602Y1200036D01*
X3537511Y1199927D01*
X3537402Y1199763D01*
X3537256Y1199544D01*
X3537110Y1199271D01*
X3537001Y1198962D01*
X3536910Y1198598D01*
X3536874Y1198198D01*
Y1198179D01*
Y1198143D01*
Y1198088D01*
X3536892Y1198016D01*
X3536910Y1197815D01*
X3536965Y1197579D01*
X3537038Y1197288D01*
X3537165Y1196996D01*
X3537347Y1196705D01*
X3537584Y1196432D01*
X3537620Y1196396D01*
X3537711Y1196323D01*
X3537857Y1196214D01*
X3538057Y1196086D01*
X3538312Y1195959D01*
X3538621Y1195850D01*
X3538967Y1195777D01*
X3539349Y1195741D01*
X3539513D01*
X3539640Y1195759D01*
X3539804Y1195777D01*
X3539986Y1195813D01*
X3540204Y1195850D01*
X3540441Y1195904D01*
X3540259Y1194539D01*
X3540168D01*
X3540095Y1194558D01*
X3539859D01*
X3539658Y1194521D01*
X3539422Y1194485D01*
X3539149Y1194430D01*
X3538839Y1194339D01*
X3538548Y1194212D01*
X3538239Y1194048D01*
X3538221D01*
X3538202Y1194030D01*
X3538111Y1193957D01*
X3537984Y1193830D01*
X3537838Y1193666D01*
X3537693Y1193429D01*
X3537565Y1193156D01*
X3537474Y1192847D01*
X3537438Y1192665D01*
Y1192465D01*
Y1192446D01*
Y1192428D01*
Y1192319D01*
X3537474Y1192173D01*
X3537511Y1191973D01*
X3537584Y1191755D01*
X3537675Y1191518D01*
X3537820Y1191282D01*
X3538020Y1191063D01*
X3538039Y1191045D01*
X3538130Y1190972D01*
X3538257Y1190881D01*
X3538421Y1190772D01*
X3538639Y1190681D01*
X3538894Y1190590D01*
X3539185Y1190517D01*
X3539513Y1190499D01*
X3539658D01*
X3539822Y1190535D01*
X3540041Y1190572D01*
X3540277Y1190645D01*
X3540514Y1190736D01*
X3540769Y1190881D01*
X3541005Y1191063D01*
X3541023Y1191081D01*
X3541096Y1191172D01*
X3541205Y1191300D01*
X3541333Y1191482D01*
X3541460Y1191718D01*
X3541588Y1192010D01*
X3541697Y1192355D01*
X3541770Y1192756D01*
X3543317Y1192483D01*
Y1192465D01*
X3543298Y1192410D01*
X3543280Y1192337D01*
X3543262Y1192228D01*
X3543226Y1192101D01*
X3543171Y1191955D01*
X3543062Y1191609D01*
X3542880Y1191209D01*
X3542661Y1190808D01*
X3542388Y1190426D01*
X3542043Y1190080D01*
X3542024Y1190062D01*
X3541988Y1190044D01*
X3541933Y1190008D01*
X3541861Y1189953D01*
X3541770Y1189880D01*
X3541642Y1189807D01*
X3541515Y1189735D01*
X3541351Y1189644D01*
X3540987Y1189498D01*
X3540568Y1189352D01*
X3540077Y1189261D01*
X3539822Y1189225D01*
X3539367D01*
X3539167Y1189243D01*
X3538930Y1189280D01*
X3538639Y1189334D01*
X3538312Y1189425D01*
X3537984Y1189534D01*
X3537656Y1189680D01*
X3537638D01*
X3537620Y1189698D01*
X3537511Y1189753D01*
X3537347Y1189862D01*
X3537165Y1189989D01*
X3536947Y1190171D01*
X3536728Y1190372D01*
X3536510Y1190608D01*
X3536328Y1190881D01*
X3536310Y1190918D01*
X3536255Y1191009D01*
X3536182Y1191172D01*
X3536091Y1191373D01*
X3536000Y1191609D01*
X3535927Y1191882D01*
X3535873Y1192192D01*
X3535855Y1192501D01*
Y1192537D01*
Y1192647D01*
X3535873Y1192792D01*
X3535909Y1192992D01*
X3535964Y1193229D01*
X3536055Y1193484D01*
X3536164Y1193739D01*
X3536310Y1193993D01*
X3536328Y1194030D01*
X3536382Y1194103D01*
X3536492Y1194230D01*
X3536637Y1194376D01*
X3536819Y1194539D01*
X3537038Y1194721D01*
X3537292Y1194885D01*
X3537602Y1195049D01*
X3537584D01*
X3537547Y1195067D01*
X3537493Y1195085D01*
X3537420Y1195104D01*
X3537220Y1195176D01*
X3536965Y1195286D01*
X3536674Y1195431D01*
X3536382Y1195613D01*
X3536109Y1195850D01*
X3535855Y1196123D01*
X3535836Y1196159D01*
X3535764Y1196268D01*
X3535654Y1196450D01*
X3535545Y1196687D01*
X3535436Y1196978D01*
X3535327Y1197324D01*
X3535254Y1197724D01*
X3535236Y1198161D01*
Y1198179D01*
Y1198234D01*
Y1198325D01*
X3535254Y1198434D01*
X3535272Y1198580D01*
X3535309Y1198744D01*
X3535345Y1198926D01*
X3535381Y1199126D01*
X3535527Y1199563D01*
X3535636Y1199799D01*
X3535745Y1200018D01*
X3535891Y1200254D01*
X3536055Y1200491D01*
X3536237Y1200727D01*
X3536455Y1200946D01*
X3536473Y1200964D01*
X3536510Y1201000D01*
X3536583Y1201055D01*
X3536674Y1201128D01*
X3536783Y1201219D01*
X3536928Y1201310D01*
X3537092Y1201419D01*
X3537292Y1201510D01*
X3537493Y1201619D01*
X3537729Y1201728D01*
X3537966Y1201819D01*
X3538239Y1201910D01*
X3538530Y1201983D01*
X3538839Y1202038D01*
X3539149Y1202074D01*
X3539495Y1202092D01*
X3539658D01*
X3539768Y1202074D01*
D02*
G37*
G36*
X3565339Y1189280D02*
X3559496D01*
X3559351Y1189298D01*
X3559187D01*
X3558805Y1189316D01*
X3558404Y1189371D01*
X3557968Y1189425D01*
X3557567Y1189516D01*
X3557367Y1189571D01*
X3557203Y1189625D01*
X3557185D01*
X3557167Y1189644D01*
X3557058Y1189698D01*
X3556894Y1189771D01*
X3556694Y1189898D01*
X3556475Y1190062D01*
X3556239Y1190281D01*
X3556020Y1190535D01*
X3555802Y1190827D01*
Y1190845D01*
X3555784Y1190863D01*
X3555711Y1190972D01*
X3555638Y1191154D01*
X3555529Y1191391D01*
X3555438Y1191664D01*
X3555347Y1191991D01*
X3555292Y1192337D01*
X3555274Y1192719D01*
Y1192738D01*
Y1192774D01*
Y1192847D01*
X3555292Y1192938D01*
Y1193065D01*
X3555310Y1193193D01*
X3555383Y1193502D01*
X3555492Y1193866D01*
X3555638Y1194248D01*
X3555856Y1194630D01*
X3556002Y1194812D01*
X3556148Y1194994D01*
X3556166Y1195013D01*
X3556184Y1195031D01*
X3556239Y1195085D01*
X3556311Y1195140D01*
X3556402Y1195213D01*
X3556512Y1195286D01*
X3556657Y1195377D01*
X3556803Y1195486D01*
X3556985Y1195577D01*
X3557185Y1195668D01*
X3557403Y1195777D01*
X3557640Y1195868D01*
X3557913Y1195941D01*
X3558186Y1196032D01*
X3558495Y1196086D01*
X3558823Y1196141D01*
X3558787Y1196159D01*
X3558714Y1196196D01*
X3558605Y1196268D01*
X3558459Y1196341D01*
X3558131Y1196541D01*
X3557968Y1196669D01*
X3557822Y1196778D01*
X3557786Y1196814D01*
X3557695Y1196905D01*
X3557549Y1197051D01*
X3557367Y1197233D01*
X3557167Y1197488D01*
X3556930Y1197761D01*
X3556694Y1198088D01*
X3556439Y1198452D01*
X3554273Y1201874D01*
X3556348D01*
X3558004Y1199253D01*
Y1199235D01*
X3558040Y1199199D01*
X3558077Y1199144D01*
X3558131Y1199071D01*
X3558259Y1198871D01*
X3558423Y1198616D01*
X3558623Y1198343D01*
X3558823Y1198052D01*
X3559023Y1197779D01*
X3559205Y1197524D01*
X3559223Y1197506D01*
X3559278Y1197433D01*
X3559369Y1197324D01*
X3559496Y1197197D01*
X3559769Y1196924D01*
X3559915Y1196796D01*
X3560061Y1196687D01*
X3560079Y1196669D01*
X3560115Y1196651D01*
X3560188Y1196614D01*
X3560297Y1196560D01*
X3560406Y1196505D01*
X3560534Y1196450D01*
X3560825Y1196359D01*
X3560843D01*
X3560880Y1196341D01*
X3560952D01*
X3561043Y1196323D01*
X3561171Y1196305D01*
X3561316D01*
X3561517Y1196287D01*
X3563664D01*
Y1201874D01*
X3565339D01*
Y1189280D01*
D02*
G37*
G36*
X3549013Y1192028D02*
X3549031Y1192046D01*
X3549122Y1192119D01*
X3549232Y1192228D01*
X3549414Y1192355D01*
X3549614Y1192519D01*
X3549869Y1192701D01*
X3550160Y1192901D01*
X3550487Y1193102D01*
X3550506D01*
X3550524Y1193120D01*
X3550633Y1193193D01*
X3550815Y1193284D01*
X3551033Y1193393D01*
X3551288Y1193520D01*
X3551561Y1193648D01*
X3551834Y1193775D01*
X3552107Y1193884D01*
Y1192392D01*
X3552089D01*
X3552053Y1192355D01*
X3551980Y1192337D01*
X3551889Y1192283D01*
X3551780Y1192228D01*
X3551652Y1192155D01*
X3551343Y1191973D01*
X3550979Y1191773D01*
X3550615Y1191518D01*
X3550233Y1191227D01*
X3549850Y1190918D01*
X3549832Y1190899D01*
X3549814Y1190881D01*
X3549759Y1190827D01*
X3549687Y1190772D01*
X3549523Y1190590D01*
X3549304Y1190372D01*
X3549086Y1190117D01*
X3548849Y1189826D01*
X3548649Y1189534D01*
X3548467Y1189225D01*
X3547466D01*
Y1201874D01*
X3549013D01*
Y1192028D01*
D02*
G37*
G36*
X2749463Y862082D02*
X2744422D01*
X2743748Y858679D01*
X2743766Y858697D01*
X2743803Y858715D01*
X2743857Y858752D01*
X2743948Y858806D01*
X2744058Y858861D01*
X2744185Y858934D01*
X2744476Y859079D01*
X2744840Y859225D01*
X2745241Y859352D01*
X2745677Y859443D01*
X2745896Y859480D01*
X2746296D01*
X2746405Y859462D01*
X2746551Y859443D01*
X2746715Y859425D01*
X2746897Y859389D01*
X2747097Y859334D01*
X2747534Y859207D01*
X2747770Y859116D01*
X2748007Y858988D01*
X2748244Y858861D01*
X2748480Y858715D01*
X2748699Y858533D01*
X2748917Y858333D01*
X2748935Y858315D01*
X2748972Y858279D01*
X2749026Y858224D01*
X2749099Y858133D01*
X2749190Y858006D01*
X2749281Y857878D01*
X2749390Y857714D01*
X2749499Y857532D01*
X2749590Y857332D01*
X2749700Y857114D01*
X2749791Y856859D01*
X2749882Y856604D01*
X2749954Y856331D01*
X2750009Y856022D01*
X2750045Y855712D01*
X2750064Y855385D01*
Y855367D01*
Y855312D01*
Y855221D01*
X2750045Y855094D01*
X2750027Y854948D01*
X2750009Y854784D01*
X2749973Y854584D01*
X2749936Y854384D01*
X2749827Y853911D01*
X2749645Y853419D01*
X2749536Y853164D01*
X2749390Y852928D01*
X2749245Y852673D01*
X2749063Y852436D01*
X2749044Y852418D01*
X2749008Y852364D01*
X2748935Y852291D01*
X2748844Y852200D01*
X2748717Y852091D01*
X2748571Y851945D01*
X2748389Y851818D01*
X2748189Y851672D01*
X2747971Y851526D01*
X2747716Y851399D01*
X2747443Y851272D01*
X2747152Y851144D01*
X2746842Y851053D01*
X2746496Y850980D01*
X2746132Y850926D01*
X2745750Y850908D01*
X2745586D01*
X2745459Y850926D01*
X2745313Y850944D01*
X2745150Y850962D01*
X2744949Y850980D01*
X2744749Y851035D01*
X2744294Y851144D01*
X2743839Y851308D01*
X2743603Y851417D01*
X2743366Y851545D01*
X2743148Y851690D01*
X2742929Y851854D01*
X2742911Y851872D01*
X2742875Y851890D01*
X2742838Y851963D01*
X2742765Y852036D01*
X2742674Y852127D01*
X2742583Y852236D01*
X2742474Y852382D01*
X2742383Y852546D01*
X2742274Y852709D01*
X2742165Y852910D01*
X2741965Y853346D01*
X2741801Y853856D01*
X2741746Y854129D01*
X2741710Y854420D01*
X2743330Y854548D01*
Y854529D01*
Y854493D01*
X2743348Y854438D01*
X2743366Y854347D01*
X2743421Y854147D01*
X2743493Y853874D01*
X2743603Y853601D01*
X2743748Y853292D01*
X2743930Y853019D01*
X2744149Y852764D01*
X2744185Y852746D01*
X2744258Y852673D01*
X2744403Y852582D01*
X2744604Y852473D01*
X2744822Y852364D01*
X2745095Y852273D01*
X2745404Y852200D01*
X2745750Y852182D01*
X2745859D01*
X2745932Y852200D01*
X2746151Y852218D01*
X2746405Y852291D01*
X2746715Y852382D01*
X2747024Y852527D01*
X2747352Y852746D01*
X2747497Y852873D01*
X2747643Y853019D01*
X2747661Y853037D01*
X2747679Y853055D01*
X2747716Y853110D01*
X2747770Y853164D01*
X2747898Y853365D01*
X2748043Y853619D01*
X2748171Y853929D01*
X2748298Y854311D01*
X2748389Y854766D01*
X2748426Y855003D01*
Y855257D01*
Y855276D01*
Y855312D01*
Y855385D01*
X2748407Y855476D01*
Y855585D01*
X2748389Y855712D01*
X2748335Y856004D01*
X2748244Y856349D01*
X2748116Y856695D01*
X2747934Y857023D01*
X2747679Y857332D01*
Y857350D01*
X2747643Y857369D01*
X2747552Y857460D01*
X2747388Y857587D01*
X2747170Y857733D01*
X2746879Y857860D01*
X2746551Y857987D01*
X2746169Y858078D01*
X2745950Y858115D01*
X2745605D01*
X2745459Y858097D01*
X2745277Y858078D01*
X2745059Y858024D01*
X2744840Y857969D01*
X2744604Y857878D01*
X2744367Y857769D01*
X2744349Y857751D01*
X2744276Y857714D01*
X2744167Y857623D01*
X2744021Y857532D01*
X2743876Y857405D01*
X2743730Y857241D01*
X2743566Y857077D01*
X2743439Y856877D01*
X2741983Y857077D01*
X2743202Y863557D01*
X2749463D01*
Y862082D01*
D02*
G37*
G36*
X2735649Y863702D02*
X2735813D01*
X2736195Y863684D01*
X2736596Y863629D01*
X2737032Y863575D01*
X2737433Y863484D01*
X2737633Y863429D01*
X2737797Y863375D01*
X2737815D01*
X2737833Y863356D01*
X2737942Y863302D01*
X2738106Y863229D01*
X2738306Y863102D01*
X2738525Y862938D01*
X2738761Y862719D01*
X2738980Y862465D01*
X2739198Y862173D01*
Y862155D01*
X2739216Y862137D01*
X2739289Y862028D01*
X2739362Y861846D01*
X2739471Y861609D01*
X2739562Y861336D01*
X2739653Y861009D01*
X2739708Y860663D01*
X2739726Y860281D01*
Y860262D01*
Y860226D01*
Y860153D01*
X2739708Y860062D01*
Y859935D01*
X2739690Y859807D01*
X2739617Y859498D01*
X2739508Y859134D01*
X2739362Y858752D01*
X2739144Y858370D01*
X2738998Y858188D01*
X2738852Y858006D01*
X2738834Y857987D01*
X2738816Y857969D01*
X2738761Y857915D01*
X2738689Y857860D01*
X2738598Y857787D01*
X2738488Y857714D01*
X2738343Y857623D01*
X2738197Y857514D01*
X2738015Y857423D01*
X2737815Y857332D01*
X2737597Y857223D01*
X2737360Y857132D01*
X2737087Y857059D01*
X2736814Y856968D01*
X2736505Y856914D01*
X2736177Y856859D01*
X2736213Y856841D01*
X2736286Y856804D01*
X2736395Y856732D01*
X2736541Y856659D01*
X2736869Y856459D01*
X2737032Y856331D01*
X2737178Y856222D01*
X2737214Y856186D01*
X2737305Y856095D01*
X2737451Y855949D01*
X2737633Y855767D01*
X2737833Y855512D01*
X2738070Y855239D01*
X2738306Y854912D01*
X2738561Y854548D01*
X2740727Y851126D01*
X2738652D01*
X2736996Y853747D01*
Y853765D01*
X2736960Y853801D01*
X2736923Y853856D01*
X2736869Y853929D01*
X2736741Y854129D01*
X2736577Y854384D01*
X2736377Y854657D01*
X2736177Y854948D01*
X2735977Y855221D01*
X2735795Y855476D01*
X2735777Y855494D01*
X2735722Y855567D01*
X2735631Y855676D01*
X2735504Y855803D01*
X2735231Y856076D01*
X2735085Y856204D01*
X2734939Y856313D01*
X2734921Y856331D01*
X2734885Y856349D01*
X2734812Y856386D01*
X2734703Y856440D01*
X2734594Y856495D01*
X2734466Y856550D01*
X2734175Y856641D01*
X2734157D01*
X2734120Y856659D01*
X2734048D01*
X2733957Y856677D01*
X2733829Y856695D01*
X2733684D01*
X2733483Y856713D01*
X2731336D01*
Y851126D01*
X2729661D01*
Y863720D01*
X2735504D01*
X2735649Y863702D01*
D02*
G37*
G36*
X1917759Y737074D02*
X1917887D01*
X1918032Y737056D01*
X1918378Y736983D01*
X1918760Y736892D01*
X1919161Y736747D01*
X1919561Y736546D01*
X1919761Y736419D01*
X1919943Y736273D01*
X1919962Y736255D01*
X1919980Y736237D01*
X1920034Y736182D01*
X1920089Y736128D01*
X1920162Y736037D01*
X1920253Y735928D01*
X1920435Y735673D01*
X1920617Y735345D01*
X1920799Y734945D01*
X1920944Y734490D01*
X1921054Y733962D01*
X1919561Y733835D01*
Y733853D01*
X1919543Y733889D01*
Y733926D01*
X1919525Y733998D01*
X1919470Y734199D01*
X1919397Y734417D01*
X1919306Y734672D01*
X1919179Y734927D01*
X1919033Y735163D01*
X1918851Y735363D01*
X1918833Y735382D01*
X1918760Y735436D01*
X1918633Y735509D01*
X1918487Y735582D01*
X1918287Y735673D01*
X1918051Y735746D01*
X1917778Y735800D01*
X1917486Y735818D01*
X1917359D01*
X1917232Y735800D01*
X1917068Y735782D01*
X1916868Y735746D01*
X1916667Y735691D01*
X1916449Y735618D01*
X1916249Y735509D01*
X1916231Y735491D01*
X1916158Y735454D01*
X1916049Y735382D01*
X1915939Y735272D01*
X1915794Y735145D01*
X1915648Y734999D01*
X1915503Y734836D01*
X1915357Y734635D01*
X1915339Y734617D01*
X1915302Y734526D01*
X1915230Y734399D01*
X1915157Y734235D01*
X1915066Y734017D01*
X1914975Y733762D01*
X1914884Y733471D01*
X1914793Y733143D01*
Y733125D01*
X1914775Y733107D01*
Y733052D01*
X1914756Y732979D01*
X1914720Y732797D01*
X1914665Y732561D01*
X1914629Y732269D01*
X1914593Y731960D01*
X1914574Y731614D01*
X1914556Y731250D01*
Y731232D01*
Y731177D01*
Y731086D01*
Y730941D01*
X1914574Y730977D01*
X1914647Y731068D01*
X1914756Y731196D01*
X1914884Y731378D01*
X1915066Y731560D01*
X1915284Y731760D01*
X1915539Y731960D01*
X1915830Y732142D01*
X1915867Y732160D01*
X1915976Y732215D01*
X1916140Y732288D01*
X1916340Y732360D01*
X1916613Y732451D01*
X1916904Y732524D01*
X1917232Y732579D01*
X1917577Y732597D01*
X1917723D01*
X1917832Y732579D01*
X1917978Y732561D01*
X1918123Y732542D01*
X1918305Y732506D01*
X1918487Y732451D01*
X1918906Y732324D01*
X1919124Y732233D01*
X1919343Y732124D01*
X1919579Y731996D01*
X1919798Y731833D01*
X1920016Y731669D01*
X1920216Y731469D01*
X1920235Y731450D01*
X1920271Y731414D01*
X1920307Y731359D01*
X1920380Y731268D01*
X1920471Y731141D01*
X1920562Y731014D01*
X1920653Y730850D01*
X1920744Y730668D01*
X1920853Y730468D01*
X1920944Y730249D01*
X1921035Y729994D01*
X1921126Y729740D01*
X1921199Y729448D01*
X1921236Y729139D01*
X1921272Y728830D01*
X1921290Y728484D01*
Y728466D01*
Y728393D01*
Y728302D01*
X1921272Y728174D01*
X1921254Y728011D01*
X1921236Y727810D01*
X1921199Y727610D01*
X1921145Y727374D01*
X1921017Y726900D01*
X1920926Y726646D01*
X1920817Y726373D01*
X1920690Y726118D01*
X1920526Y725881D01*
X1920362Y725626D01*
X1920162Y725408D01*
X1920144Y725390D01*
X1920107Y725353D01*
X1920053Y725299D01*
X1919962Y725226D01*
X1919852Y725135D01*
X1919707Y725026D01*
X1919561Y724935D01*
X1919379Y724807D01*
X1919197Y724698D01*
X1918979Y724607D01*
X1918487Y724407D01*
X1918233Y724334D01*
X1917941Y724280D01*
X1917650Y724243D01*
X1917341Y724225D01*
X1917213D01*
X1917122Y724243D01*
X1917031D01*
X1916904Y724261D01*
X1916595Y724316D01*
X1916249Y724389D01*
X1915867Y724516D01*
X1915484Y724680D01*
X1915102Y724898D01*
X1915084D01*
X1915066Y724935D01*
X1915011Y724971D01*
X1914938Y725026D01*
X1914756Y725171D01*
X1914520Y725372D01*
X1914283Y725645D01*
X1914010Y725972D01*
X1913774Y726354D01*
X1913555Y726791D01*
Y726809D01*
X1913537Y726846D01*
X1913501Y726919D01*
X1913464Y727010D01*
X1913428Y727137D01*
X1913373Y727301D01*
X1913337Y727483D01*
X1913282Y727683D01*
X1913228Y727920D01*
X1913173Y728193D01*
X1913137Y728484D01*
X1913100Y728793D01*
X1913064Y729139D01*
X1913027Y729503D01*
X1913009Y729903D01*
Y730322D01*
Y730340D01*
Y730431D01*
Y730559D01*
Y730722D01*
X1913027Y730923D01*
Y731159D01*
X1913046Y731432D01*
X1913082Y731705D01*
X1913137Y732324D01*
X1913228Y732979D01*
X1913355Y733598D01*
X1913446Y733907D01*
X1913537Y734180D01*
Y734199D01*
X1913555Y734235D01*
X1913592Y734308D01*
X1913628Y734417D01*
X1913683Y734526D01*
X1913755Y734672D01*
X1913937Y734981D01*
X1914156Y735327D01*
X1914411Y735691D01*
X1914738Y736037D01*
X1915102Y736346D01*
X1915120D01*
X1915157Y736383D01*
X1915211Y736419D01*
X1915284Y736455D01*
X1915393Y736510D01*
X1915503Y736583D01*
X1915648Y736656D01*
X1915794Y736710D01*
X1916140Y736856D01*
X1916558Y736983D01*
X1917013Y737056D01*
X1917523Y737092D01*
X1917668D01*
X1917759Y737074D01*
D02*
G37*
G36*
X1933339Y724280D02*
X1927496D01*
X1927351Y724298D01*
X1927187D01*
X1926805Y724316D01*
X1926404Y724371D01*
X1925968Y724425D01*
X1925567Y724516D01*
X1925367Y724571D01*
X1925203Y724625D01*
X1925185D01*
X1925167Y724644D01*
X1925058Y724698D01*
X1924894Y724771D01*
X1924694Y724898D01*
X1924475Y725062D01*
X1924239Y725281D01*
X1924020Y725535D01*
X1923802Y725827D01*
Y725845D01*
X1923784Y725863D01*
X1923711Y725972D01*
X1923638Y726154D01*
X1923529Y726391D01*
X1923438Y726664D01*
X1923347Y726991D01*
X1923292Y727337D01*
X1923274Y727719D01*
Y727738D01*
Y727774D01*
Y727847D01*
X1923292Y727938D01*
Y728065D01*
X1923310Y728193D01*
X1923383Y728502D01*
X1923492Y728866D01*
X1923638Y729248D01*
X1923856Y729630D01*
X1924002Y729812D01*
X1924148Y729994D01*
X1924166Y730013D01*
X1924184Y730031D01*
X1924239Y730085D01*
X1924311Y730140D01*
X1924402Y730213D01*
X1924512Y730286D01*
X1924657Y730377D01*
X1924803Y730486D01*
X1924985Y730577D01*
X1925185Y730668D01*
X1925403Y730777D01*
X1925640Y730868D01*
X1925913Y730941D01*
X1926186Y731032D01*
X1926495Y731086D01*
X1926823Y731141D01*
X1926787Y731159D01*
X1926714Y731196D01*
X1926605Y731268D01*
X1926459Y731341D01*
X1926131Y731541D01*
X1925968Y731669D01*
X1925822Y731778D01*
X1925786Y731814D01*
X1925695Y731905D01*
X1925549Y732051D01*
X1925367Y732233D01*
X1925167Y732488D01*
X1924930Y732761D01*
X1924694Y733088D01*
X1924439Y733452D01*
X1922273Y736874D01*
X1924348D01*
X1926004Y734253D01*
Y734235D01*
X1926040Y734199D01*
X1926077Y734144D01*
X1926131Y734071D01*
X1926259Y733871D01*
X1926423Y733616D01*
X1926623Y733343D01*
X1926823Y733052D01*
X1927023Y732779D01*
X1927205Y732524D01*
X1927223Y732506D01*
X1927278Y732433D01*
X1927369Y732324D01*
X1927496Y732197D01*
X1927769Y731924D01*
X1927915Y731796D01*
X1928061Y731687D01*
X1928079Y731669D01*
X1928115Y731651D01*
X1928188Y731614D01*
X1928297Y731560D01*
X1928406Y731505D01*
X1928534Y731450D01*
X1928825Y731359D01*
X1928843D01*
X1928880Y731341D01*
X1928952D01*
X1929043Y731323D01*
X1929171Y731305D01*
X1929316D01*
X1929517Y731287D01*
X1931664D01*
Y736874D01*
X1933339D01*
Y724280D01*
D02*
G37*
G36*
X3480339Y1574280D02*
X3474496D01*
X3474351Y1574298D01*
X3474187D01*
X3473805Y1574316D01*
X3473404Y1574371D01*
X3472968Y1574425D01*
X3472567Y1574516D01*
X3472367Y1574571D01*
X3472203Y1574625D01*
X3472185D01*
X3472167Y1574644D01*
X3472058Y1574698D01*
X3471894Y1574771D01*
X3471694Y1574898D01*
X3471475Y1575062D01*
X3471239Y1575281D01*
X3471020Y1575535D01*
X3470802Y1575827D01*
Y1575845D01*
X3470784Y1575863D01*
X3470711Y1575972D01*
X3470638Y1576154D01*
X3470529Y1576391D01*
X3470438Y1576664D01*
X3470347Y1576991D01*
X3470292Y1577337D01*
X3470274Y1577719D01*
Y1577738D01*
Y1577774D01*
Y1577847D01*
X3470292Y1577938D01*
Y1578065D01*
X3470310Y1578193D01*
X3470383Y1578502D01*
X3470492Y1578866D01*
X3470638Y1579248D01*
X3470856Y1579630D01*
X3471002Y1579812D01*
X3471148Y1579994D01*
X3471166Y1580013D01*
X3471184Y1580031D01*
X3471239Y1580085D01*
X3471311Y1580140D01*
X3471402Y1580213D01*
X3471512Y1580286D01*
X3471657Y1580377D01*
X3471803Y1580486D01*
X3471985Y1580577D01*
X3472185Y1580668D01*
X3472403Y1580777D01*
X3472640Y1580868D01*
X3472913Y1580941D01*
X3473186Y1581032D01*
X3473495Y1581086D01*
X3473823Y1581141D01*
X3473787Y1581159D01*
X3473714Y1581196D01*
X3473605Y1581268D01*
X3473459Y1581341D01*
X3473131Y1581541D01*
X3472968Y1581669D01*
X3472822Y1581778D01*
X3472786Y1581814D01*
X3472695Y1581905D01*
X3472549Y1582051D01*
X3472367Y1582233D01*
X3472167Y1582488D01*
X3471930Y1582761D01*
X3471694Y1583088D01*
X3471439Y1583452D01*
X3469273Y1586874D01*
X3471348D01*
X3473004Y1584253D01*
Y1584235D01*
X3473040Y1584199D01*
X3473077Y1584144D01*
X3473131Y1584071D01*
X3473259Y1583871D01*
X3473423Y1583616D01*
X3473623Y1583343D01*
X3473823Y1583052D01*
X3474023Y1582779D01*
X3474205Y1582524D01*
X3474223Y1582506D01*
X3474278Y1582433D01*
X3474369Y1582324D01*
X3474496Y1582197D01*
X3474769Y1581924D01*
X3474915Y1581796D01*
X3475061Y1581687D01*
X3475079Y1581669D01*
X3475115Y1581651D01*
X3475188Y1581614D01*
X3475297Y1581560D01*
X3475406Y1581505D01*
X3475534Y1581450D01*
X3475825Y1581359D01*
X3475843D01*
X3475880Y1581341D01*
X3475952D01*
X3476043Y1581323D01*
X3476171Y1581305D01*
X3476316D01*
X3476517Y1581287D01*
X3478664D01*
Y1586874D01*
X3480339D01*
Y1574280D01*
D02*
G37*
G36*
X3453548Y1583853D02*
X3459026D01*
Y1582433D01*
X3453257Y1574280D01*
X3452001D01*
Y1582433D01*
X3450290D01*
Y1583853D01*
X3452001D01*
Y1586874D01*
X3453548D01*
Y1583853D01*
D02*
G37*
G36*
X3464013Y1577028D02*
X3464031Y1577046D01*
X3464122Y1577119D01*
X3464232Y1577228D01*
X3464414Y1577355D01*
X3464614Y1577519D01*
X3464869Y1577701D01*
X3465160Y1577901D01*
X3465487Y1578102D01*
X3465506D01*
X3465524Y1578120D01*
X3465633Y1578193D01*
X3465815Y1578284D01*
X3466033Y1578393D01*
X3466288Y1578520D01*
X3466561Y1578648D01*
X3466834Y1578775D01*
X3467107Y1578884D01*
Y1577392D01*
X3467089D01*
X3467053Y1577355D01*
X3466980Y1577337D01*
X3466889Y1577283D01*
X3466780Y1577228D01*
X3466652Y1577155D01*
X3466343Y1576973D01*
X3465979Y1576773D01*
X3465615Y1576518D01*
X3465233Y1576227D01*
X3464850Y1575918D01*
X3464832Y1575899D01*
X3464814Y1575881D01*
X3464759Y1575827D01*
X3464687Y1575772D01*
X3464523Y1575590D01*
X3464304Y1575372D01*
X3464086Y1575117D01*
X3463849Y1574826D01*
X3463649Y1574534D01*
X3463467Y1574225D01*
X3462466D01*
Y1586874D01*
X3464013D01*
Y1577028D01*
D02*
G37*
G36*
X1915434Y2002716D02*
X1915580Y2002698D01*
X1915744Y2002662D01*
X1915926Y2002625D01*
X1916126Y2002589D01*
X1916563Y2002443D01*
X1916799Y2002334D01*
X1917018Y2002225D01*
X1917254Y2002079D01*
X1917491Y2001916D01*
X1917727Y2001734D01*
X1917946Y2001515D01*
X1917964Y2001497D01*
X1918000Y2001461D01*
X1918055Y2001388D01*
X1918128Y2001297D01*
X1918219Y2001188D01*
X1918310Y2001042D01*
X1918419Y2000878D01*
X1918510Y2000678D01*
X1918619Y2000478D01*
X1918728Y2000241D01*
X1918819Y2000005D01*
X1918910Y1999732D01*
X1918983Y1999440D01*
X1919038Y1999131D01*
X1919074Y1998822D01*
X1919092Y1998476D01*
Y1998312D01*
X1919074Y1998203D01*
X1919056Y1998057D01*
X1919038Y1997893D01*
X1919001Y1997711D01*
X1918965Y1997511D01*
X1918856Y1997074D01*
X1918674Y1996619D01*
X1918565Y1996383D01*
X1918437Y1996164D01*
X1918273Y1995946D01*
X1918110Y1995728D01*
X1918091Y1995709D01*
X1918055Y1995673D01*
X1918000Y1995618D01*
X1917928Y1995564D01*
X1917837Y1995473D01*
X1917709Y1995382D01*
X1917582Y1995273D01*
X1917418Y1995163D01*
X1917236Y1995054D01*
X1917054Y1994945D01*
X1916617Y1994745D01*
X1916108Y1994581D01*
X1915835Y1994526D01*
X1915543Y1994490D01*
X1915343Y1996037D01*
X1915361D01*
X1915398Y1996055D01*
X1915471Y1996073D01*
X1915562Y1996092D01*
X1915671Y1996110D01*
X1915798Y1996146D01*
X1916071Y1996237D01*
X1916399Y1996365D01*
X1916708Y1996528D01*
X1916999Y1996710D01*
X1917254Y1996929D01*
X1917272Y1996965D01*
X1917345Y1997038D01*
X1917436Y1997184D01*
X1917527Y1997366D01*
X1917636Y1997584D01*
X1917727Y1997857D01*
X1917800Y1998166D01*
X1917818Y1998494D01*
Y1998603D01*
X1917800Y1998676D01*
X1917782Y1998876D01*
X1917727Y1999131D01*
X1917636Y1999422D01*
X1917509Y1999732D01*
X1917327Y2000041D01*
X1917072Y2000332D01*
X1917036Y2000369D01*
X1916927Y2000460D01*
X1916763Y2000569D01*
X1916544Y2000714D01*
X1916271Y2000860D01*
X1915962Y2000969D01*
X1915598Y2001060D01*
X1915198Y2001097D01*
X1915179D01*
X1915143D01*
X1915088D01*
X1915016Y2001078D01*
X1914815Y2001060D01*
X1914579Y2001006D01*
X1914288Y2000933D01*
X1913996Y2000805D01*
X1913705Y2000623D01*
X1913432Y2000387D01*
X1913396Y2000350D01*
X1913323Y2000259D01*
X1913214Y2000114D01*
X1913086Y1999914D01*
X1912959Y1999659D01*
X1912850Y1999349D01*
X1912777Y1999004D01*
X1912741Y1998621D01*
Y1998458D01*
X1912759Y1998330D01*
X1912777Y1998166D01*
X1912813Y1997984D01*
X1912850Y1997766D01*
X1912904Y1997529D01*
X1911539Y1997711D01*
Y1997802D01*
X1911558Y1997875D01*
Y1998112D01*
X1911521Y1998312D01*
X1911485Y1998549D01*
X1911430Y1998822D01*
X1911339Y1999131D01*
X1911212Y1999422D01*
X1911048Y1999732D01*
Y1999750D01*
X1911030Y1999768D01*
X1910957Y1999859D01*
X1910830Y1999986D01*
X1910666Y2000132D01*
X1910429Y2000278D01*
X1910156Y2000405D01*
X1909847Y2000496D01*
X1909665Y2000532D01*
X1909465D01*
X1909446D01*
X1909428D01*
X1909319D01*
X1909173Y2000496D01*
X1908973Y2000460D01*
X1908755Y2000387D01*
X1908518Y2000296D01*
X1908282Y2000150D01*
X1908063Y1999950D01*
X1908045Y1999932D01*
X1907972Y1999841D01*
X1907881Y1999713D01*
X1907772Y1999550D01*
X1907681Y1999331D01*
X1907590Y1999076D01*
X1907517Y1998785D01*
X1907499Y1998458D01*
Y1998312D01*
X1907535Y1998148D01*
X1907572Y1997930D01*
X1907645Y1997693D01*
X1907736Y1997457D01*
X1907881Y1997202D01*
X1908063Y1996965D01*
X1908081Y1996947D01*
X1908172Y1996874D01*
X1908300Y1996765D01*
X1908482Y1996638D01*
X1908718Y1996510D01*
X1909010Y1996383D01*
X1909355Y1996274D01*
X1909756Y1996201D01*
X1909483Y1994654D01*
X1909465D01*
X1909410Y1994672D01*
X1909337Y1994690D01*
X1909228Y1994708D01*
X1909101Y1994745D01*
X1908955Y1994799D01*
X1908609Y1994909D01*
X1908209Y1995091D01*
X1907808Y1995309D01*
X1907426Y1995582D01*
X1907080Y1995928D01*
X1907062Y1995946D01*
X1907044Y1995982D01*
X1907008Y1996037D01*
X1906953Y1996110D01*
X1906880Y1996201D01*
X1906807Y1996328D01*
X1906735Y1996456D01*
X1906644Y1996619D01*
X1906498Y1996983D01*
X1906352Y1997402D01*
X1906261Y1997893D01*
X1906225Y1998148D01*
Y1998603D01*
X1906243Y1998803D01*
X1906280Y1999040D01*
X1906334Y1999331D01*
X1906425Y1999659D01*
X1906534Y1999986D01*
X1906680Y2000314D01*
Y2000332D01*
X1906698Y2000350D01*
X1906753Y2000460D01*
X1906862Y2000623D01*
X1906989Y2000805D01*
X1907171Y2001024D01*
X1907372Y2001242D01*
X1907608Y2001461D01*
X1907881Y2001643D01*
X1907918Y2001661D01*
X1908009Y2001715D01*
X1908172Y2001788D01*
X1908373Y2001879D01*
X1908609Y2001970D01*
X1908882Y2002043D01*
X1909192Y2002098D01*
X1909501Y2002116D01*
X1909537D01*
X1909647D01*
X1909792Y2002098D01*
X1909992Y2002061D01*
X1910229Y2002007D01*
X1910484Y2001916D01*
X1910739Y2001806D01*
X1910993Y2001661D01*
X1911030Y2001643D01*
X1911103Y2001588D01*
X1911230Y2001479D01*
X1911376Y2001333D01*
X1911539Y2001151D01*
X1911721Y2000933D01*
X1911885Y2000678D01*
X1912049Y2000369D01*
Y2000387D01*
X1912067Y2000423D01*
X1912085Y2000478D01*
X1912104Y2000551D01*
X1912176Y2000751D01*
X1912286Y2001006D01*
X1912431Y2001297D01*
X1912613Y2001588D01*
X1912850Y2001861D01*
X1913123Y2002116D01*
X1913159Y2002134D01*
X1913268Y2002207D01*
X1913450Y2002316D01*
X1913687Y2002425D01*
X1913978Y2002534D01*
X1914324Y2002644D01*
X1914724Y2002716D01*
X1915161Y2002735D01*
X1915179D01*
X1915234D01*
X1915325D01*
X1915434Y2002716D01*
D02*
G37*
G36*
X1918874Y1991414D02*
X1916253Y1989758D01*
X1916235D01*
X1916199Y1989722D01*
X1916144Y1989685D01*
X1916071Y1989631D01*
X1915871Y1989503D01*
X1915616Y1989339D01*
X1915343Y1989139D01*
X1915052Y1988939D01*
X1914779Y1988739D01*
X1914524Y1988557D01*
X1914506Y1988539D01*
X1914433Y1988484D01*
X1914324Y1988393D01*
X1914197Y1988266D01*
X1913924Y1987993D01*
X1913796Y1987847D01*
X1913687Y1987701D01*
X1913669Y1987683D01*
X1913651Y1987647D01*
X1913614Y1987574D01*
X1913560Y1987465D01*
X1913505Y1987356D01*
X1913450Y1987228D01*
X1913359Y1986937D01*
Y1986919D01*
X1913341Y1986882D01*
Y1986810D01*
X1913323Y1986719D01*
X1913305Y1986591D01*
Y1986446D01*
X1913287Y1986245D01*
Y1984098D01*
X1918874D01*
Y1982423D01*
X1906280D01*
Y1988266D01*
X1906298Y1988411D01*
Y1988575D01*
X1906316Y1988957D01*
X1906371Y1989358D01*
X1906425Y1989794D01*
X1906516Y1990195D01*
X1906571Y1990395D01*
X1906625Y1990559D01*
Y1990577D01*
X1906644Y1990595D01*
X1906698Y1990704D01*
X1906771Y1990868D01*
X1906898Y1991068D01*
X1907062Y1991287D01*
X1907281Y1991523D01*
X1907535Y1991742D01*
X1907827Y1991960D01*
X1907845D01*
X1907863Y1991978D01*
X1907972Y1992051D01*
X1908154Y1992124D01*
X1908391Y1992233D01*
X1908664Y1992324D01*
X1908991Y1992415D01*
X1909337Y1992470D01*
X1909719Y1992488D01*
X1909738D01*
X1909774D01*
X1909847D01*
X1909938Y1992470D01*
X1910065D01*
X1910193Y1992452D01*
X1910502Y1992379D01*
X1910866Y1992270D01*
X1911248Y1992124D01*
X1911630Y1991906D01*
X1911812Y1991760D01*
X1911994Y1991614D01*
X1912013Y1991596D01*
X1912031Y1991578D01*
X1912085Y1991523D01*
X1912140Y1991451D01*
X1912213Y1991360D01*
X1912286Y1991250D01*
X1912377Y1991105D01*
X1912486Y1990959D01*
X1912577Y1990777D01*
X1912668Y1990577D01*
X1912777Y1990359D01*
X1912868Y1990122D01*
X1912941Y1989849D01*
X1913032Y1989576D01*
X1913086Y1989267D01*
X1913141Y1988939D01*
X1913159Y1988975D01*
X1913196Y1989048D01*
X1913268Y1989157D01*
X1913341Y1989303D01*
X1913541Y1989631D01*
X1913669Y1989794D01*
X1913778Y1989940D01*
X1913814Y1989976D01*
X1913905Y1990067D01*
X1914051Y1990213D01*
X1914233Y1990395D01*
X1914488Y1990595D01*
X1914761Y1990832D01*
X1915088Y1991068D01*
X1915452Y1991323D01*
X1918874Y1993489D01*
Y1991414D01*
D02*
G37*
G36*
X3690906Y1308837D02*
X3691052Y1308819D01*
X3691216Y1308801D01*
X3691416Y1308764D01*
X3691616Y1308728D01*
X3692089Y1308619D01*
X3692581Y1308437D01*
X3692836Y1308327D01*
X3693072Y1308182D01*
X3693327Y1308036D01*
X3693564Y1307854D01*
X3693582Y1307836D01*
X3693636Y1307800D01*
X3693709Y1307727D01*
X3693800Y1307636D01*
X3693909Y1307508D01*
X3694055Y1307363D01*
X3694182Y1307181D01*
X3694328Y1306981D01*
X3694474Y1306762D01*
X3694601Y1306507D01*
X3694728Y1306234D01*
X3694856Y1305943D01*
X3694947Y1305634D01*
X3695020Y1305288D01*
X3695074Y1304924D01*
X3695092Y1304542D01*
Y1304378D01*
X3695074Y1304251D01*
X3695056Y1304105D01*
X3695038Y1303941D01*
X3695020Y1303741D01*
X3694965Y1303541D01*
X3694856Y1303086D01*
X3694692Y1302631D01*
X3694583Y1302394D01*
X3694455Y1302158D01*
X3694310Y1301939D01*
X3694146Y1301721D01*
X3694128Y1301703D01*
X3694110Y1301666D01*
X3694037Y1301630D01*
X3693964Y1301557D01*
X3693873Y1301466D01*
X3693764Y1301375D01*
X3693618Y1301266D01*
X3693454Y1301175D01*
X3693291Y1301066D01*
X3693090Y1300956D01*
X3692654Y1300756D01*
X3692144Y1300592D01*
X3691871Y1300538D01*
X3691580Y1300501D01*
X3691452Y1302121D01*
X3691471D01*
X3691507D01*
X3691562Y1302139D01*
X3691653Y1302158D01*
X3691853Y1302212D01*
X3692126Y1302285D01*
X3692399Y1302394D01*
X3692708Y1302540D01*
X3692981Y1302722D01*
X3693236Y1302940D01*
X3693254Y1302977D01*
X3693327Y1303049D01*
X3693418Y1303195D01*
X3693527Y1303395D01*
X3693636Y1303614D01*
X3693727Y1303887D01*
X3693800Y1304196D01*
X3693818Y1304542D01*
Y1304651D01*
X3693800Y1304724D01*
X3693782Y1304942D01*
X3693709Y1305197D01*
X3693618Y1305506D01*
X3693473Y1305816D01*
X3693254Y1306143D01*
X3693127Y1306289D01*
X3692981Y1306435D01*
X3692963Y1306453D01*
X3692945Y1306471D01*
X3692890Y1306507D01*
X3692836Y1306562D01*
X3692635Y1306689D01*
X3692381Y1306835D01*
X3692071Y1306962D01*
X3691689Y1307090D01*
X3691234Y1307181D01*
X3690997Y1307217D01*
X3690743D01*
X3690724D01*
X3690688D01*
X3690615D01*
X3690524Y1307199D01*
X3690415D01*
X3690288Y1307181D01*
X3689996Y1307126D01*
X3689651Y1307035D01*
X3689305Y1306908D01*
X3688977Y1306726D01*
X3688668Y1306471D01*
X3688650D01*
X3688631Y1306435D01*
X3688540Y1306344D01*
X3688413Y1306180D01*
X3688267Y1305961D01*
X3688140Y1305670D01*
X3688013Y1305343D01*
X3687922Y1304960D01*
X3687885Y1304742D01*
Y1304396D01*
X3687903Y1304251D01*
X3687922Y1304069D01*
X3687976Y1303850D01*
X3688031Y1303632D01*
X3688122Y1303395D01*
X3688231Y1303159D01*
X3688249Y1303140D01*
X3688286Y1303068D01*
X3688377Y1302958D01*
X3688468Y1302813D01*
X3688595Y1302667D01*
X3688759Y1302522D01*
X3688923Y1302358D01*
X3689123Y1302230D01*
X3688923Y1300774D01*
X3682443Y1301994D01*
Y1308255D01*
X3683918D01*
Y1303213D01*
X3687321Y1302540D01*
X3687303Y1302558D01*
X3687285Y1302594D01*
X3687248Y1302649D01*
X3687194Y1302740D01*
X3687139Y1302849D01*
X3687066Y1302977D01*
X3686921Y1303268D01*
X3686775Y1303632D01*
X3686648Y1304032D01*
X3686557Y1304469D01*
X3686520Y1304687D01*
Y1305088D01*
X3686538Y1305197D01*
X3686557Y1305343D01*
X3686575Y1305506D01*
X3686611Y1305688D01*
X3686666Y1305889D01*
X3686793Y1306325D01*
X3686884Y1306562D01*
X3687012Y1306799D01*
X3687139Y1307035D01*
X3687285Y1307272D01*
X3687467Y1307490D01*
X3687667Y1307709D01*
X3687685Y1307727D01*
X3687721Y1307763D01*
X3687776Y1307818D01*
X3687867Y1307891D01*
X3687994Y1307982D01*
X3688122Y1308073D01*
X3688286Y1308182D01*
X3688468Y1308291D01*
X3688668Y1308382D01*
X3688886Y1308491D01*
X3689141Y1308582D01*
X3689396Y1308673D01*
X3689669Y1308746D01*
X3689978Y1308801D01*
X3690288Y1308837D01*
X3690615Y1308855D01*
X3690633D01*
X3690688D01*
X3690779D01*
X3690906Y1308837D01*
D02*
G37*
G36*
X3694874Y1294987D02*
X3685028D01*
X3685046Y1294969D01*
X3685119Y1294878D01*
X3685228Y1294768D01*
X3685355Y1294586D01*
X3685519Y1294386D01*
X3685701Y1294131D01*
X3685901Y1293840D01*
X3686102Y1293513D01*
Y1293494D01*
X3686120Y1293476D01*
X3686193Y1293367D01*
X3686284Y1293185D01*
X3686393Y1292967D01*
X3686520Y1292712D01*
X3686648Y1292439D01*
X3686775Y1292166D01*
X3686884Y1291893D01*
X3685392D01*
Y1291911D01*
X3685355Y1291947D01*
X3685337Y1292020D01*
X3685283Y1292111D01*
X3685228Y1292220D01*
X3685155Y1292348D01*
X3684973Y1292657D01*
X3684773Y1293021D01*
X3684518Y1293385D01*
X3684227Y1293767D01*
X3683918Y1294150D01*
X3683899Y1294168D01*
X3683881Y1294186D01*
X3683827Y1294241D01*
X3683772Y1294313D01*
X3683590Y1294477D01*
X3683372Y1294696D01*
X3683117Y1294914D01*
X3682826Y1295151D01*
X3682534Y1295351D01*
X3682225Y1295533D01*
Y1296534D01*
X3694874D01*
Y1294987D01*
D02*
G37*
G36*
Y1287652D02*
X3692253Y1285996D01*
X3692235D01*
X3692199Y1285960D01*
X3692144Y1285923D01*
X3692071Y1285869D01*
X3691871Y1285741D01*
X3691616Y1285577D01*
X3691343Y1285377D01*
X3691052Y1285177D01*
X3690779Y1284977D01*
X3690524Y1284795D01*
X3690506Y1284777D01*
X3690433Y1284722D01*
X3690324Y1284631D01*
X3690197Y1284504D01*
X3689924Y1284231D01*
X3689796Y1284085D01*
X3689687Y1283939D01*
X3689669Y1283921D01*
X3689651Y1283885D01*
X3689614Y1283812D01*
X3689560Y1283703D01*
X3689505Y1283594D01*
X3689450Y1283466D01*
X3689359Y1283175D01*
Y1283157D01*
X3689341Y1283120D01*
Y1283048D01*
X3689323Y1282957D01*
X3689305Y1282829D01*
Y1282684D01*
X3689287Y1282483D01*
Y1280336D01*
X3694874D01*
Y1278661D01*
X3682280D01*
Y1284504D01*
X3682298Y1284649D01*
Y1284813D01*
X3682316Y1285195D01*
X3682371Y1285596D01*
X3682425Y1286032D01*
X3682516Y1286433D01*
X3682571Y1286633D01*
X3682625Y1286797D01*
Y1286815D01*
X3682644Y1286833D01*
X3682698Y1286942D01*
X3682771Y1287106D01*
X3682898Y1287306D01*
X3683062Y1287525D01*
X3683281Y1287761D01*
X3683535Y1287980D01*
X3683827Y1288198D01*
X3683845D01*
X3683863Y1288216D01*
X3683972Y1288289D01*
X3684154Y1288362D01*
X3684391Y1288471D01*
X3684664Y1288562D01*
X3684991Y1288653D01*
X3685337Y1288708D01*
X3685719Y1288726D01*
X3685738D01*
X3685774D01*
X3685847D01*
X3685938Y1288708D01*
X3686065D01*
X3686193Y1288690D01*
X3686502Y1288617D01*
X3686866Y1288508D01*
X3687248Y1288362D01*
X3687630Y1288144D01*
X3687812Y1287998D01*
X3687994Y1287852D01*
X3688013Y1287834D01*
X3688031Y1287816D01*
X3688085Y1287761D01*
X3688140Y1287689D01*
X3688213Y1287598D01*
X3688286Y1287488D01*
X3688377Y1287343D01*
X3688486Y1287197D01*
X3688577Y1287015D01*
X3688668Y1286815D01*
X3688777Y1286597D01*
X3688868Y1286360D01*
X3688941Y1286087D01*
X3689032Y1285814D01*
X3689086Y1285505D01*
X3689141Y1285177D01*
X3689159Y1285213D01*
X3689196Y1285286D01*
X3689268Y1285395D01*
X3689341Y1285541D01*
X3689541Y1285869D01*
X3689669Y1286032D01*
X3689778Y1286178D01*
X3689814Y1286214D01*
X3689905Y1286305D01*
X3690051Y1286451D01*
X3690233Y1286633D01*
X3690488Y1286833D01*
X3690761Y1287070D01*
X3691088Y1287306D01*
X3691452Y1287561D01*
X3694874Y1289727D01*
Y1287652D01*
D02*
G37*
G36*
X1399681Y1957954D02*
X1399717Y1957918D01*
X1399790Y1957845D01*
X1399899Y1957772D01*
X1400027Y1957663D01*
X1400172Y1957518D01*
X1400354Y1957372D01*
X1400573Y1957208D01*
X1400791Y1957044D01*
X1401046Y1956844D01*
X1401337Y1956644D01*
X1401628Y1956444D01*
X1401956Y1956225D01*
X1402302Y1956007D01*
X1402684Y1955789D01*
X1403066Y1955570D01*
X1403084Y1955552D01*
X1403157Y1955516D01*
X1403266Y1955461D01*
X1403430Y1955370D01*
X1403630Y1955279D01*
X1403849Y1955170D01*
X1404104Y1955042D01*
X1404395Y1954915D01*
X1404722Y1954769D01*
X1405050Y1954606D01*
X1405414Y1954460D01*
X1405796Y1954314D01*
X1406579Y1954023D01*
X1407416Y1953750D01*
X1407434D01*
X1407489Y1953732D01*
X1407580Y1953714D01*
X1407689Y1953677D01*
X1407835Y1953641D01*
X1408017Y1953605D01*
X1408217Y1953550D01*
X1408435Y1953514D01*
X1408690Y1953459D01*
X1408963Y1953404D01*
X1409545Y1953313D01*
X1410182Y1953222D01*
X1410874Y1953168D01*
Y1951584D01*
X1410856D01*
X1410801D01*
X1410728D01*
X1410619Y1951603D01*
X1410474D01*
X1410292Y1951621D01*
X1410091Y1951639D01*
X1409873Y1951657D01*
X1409618Y1951694D01*
X1409363Y1951730D01*
X1409054Y1951785D01*
X1408745Y1951839D01*
X1408417Y1951894D01*
X1408053Y1951967D01*
X1407307Y1952149D01*
X1407289D01*
X1407216Y1952167D01*
X1407107Y1952203D01*
X1406943Y1952258D01*
X1406761Y1952312D01*
X1406542Y1952385D01*
X1406288Y1952458D01*
X1406015Y1952567D01*
X1405705Y1952676D01*
X1405396Y1952786D01*
X1404704Y1953059D01*
X1403976Y1953386D01*
X1403248Y1953750D01*
X1403230Y1953768D01*
X1403157Y1953805D01*
X1403066Y1953859D01*
X1402921Y1953932D01*
X1402757Y1954023D01*
X1402557Y1954151D01*
X1402338Y1954278D01*
X1402102Y1954424D01*
X1401574Y1954769D01*
X1401028Y1955133D01*
X1400464Y1955552D01*
X1399936Y1955989D01*
Y1949819D01*
X1398443D01*
Y1957973D01*
X1399663D01*
X1399681Y1957954D01*
D02*
G37*
G36*
X1410874Y1946652D02*
X1408253Y1944996D01*
X1408235D01*
X1408199Y1944960D01*
X1408144Y1944923D01*
X1408071Y1944869D01*
X1407871Y1944741D01*
X1407616Y1944577D01*
X1407343Y1944377D01*
X1407052Y1944177D01*
X1406779Y1943977D01*
X1406524Y1943795D01*
X1406506Y1943777D01*
X1406433Y1943722D01*
X1406324Y1943631D01*
X1406197Y1943504D01*
X1405924Y1943231D01*
X1405796Y1943085D01*
X1405687Y1942939D01*
X1405669Y1942921D01*
X1405651Y1942885D01*
X1405614Y1942812D01*
X1405560Y1942703D01*
X1405505Y1942594D01*
X1405450Y1942466D01*
X1405359Y1942175D01*
Y1942157D01*
X1405341Y1942120D01*
Y1942048D01*
X1405323Y1941957D01*
X1405305Y1941829D01*
Y1941684D01*
X1405287Y1941483D01*
Y1939336D01*
X1410874D01*
Y1937661D01*
X1398280D01*
Y1943504D01*
X1398298Y1943649D01*
Y1943813D01*
X1398316Y1944195D01*
X1398371Y1944596D01*
X1398425Y1945032D01*
X1398516Y1945433D01*
X1398571Y1945633D01*
X1398625Y1945797D01*
Y1945815D01*
X1398644Y1945833D01*
X1398698Y1945942D01*
X1398771Y1946106D01*
X1398898Y1946306D01*
X1399062Y1946525D01*
X1399281Y1946761D01*
X1399535Y1946980D01*
X1399827Y1947198D01*
X1399845D01*
X1399863Y1947216D01*
X1399972Y1947289D01*
X1400154Y1947362D01*
X1400391Y1947471D01*
X1400664Y1947562D01*
X1400991Y1947653D01*
X1401337Y1947708D01*
X1401719Y1947726D01*
X1401738D01*
X1401774D01*
X1401847D01*
X1401938Y1947708D01*
X1402065D01*
X1402193Y1947690D01*
X1402502Y1947617D01*
X1402866Y1947508D01*
X1403248Y1947362D01*
X1403630Y1947144D01*
X1403812Y1946998D01*
X1403994Y1946852D01*
X1404013Y1946834D01*
X1404031Y1946816D01*
X1404085Y1946761D01*
X1404140Y1946689D01*
X1404213Y1946598D01*
X1404286Y1946488D01*
X1404377Y1946343D01*
X1404486Y1946197D01*
X1404577Y1946015D01*
X1404668Y1945815D01*
X1404777Y1945597D01*
X1404868Y1945360D01*
X1404941Y1945087D01*
X1405032Y1944814D01*
X1405086Y1944505D01*
X1405141Y1944177D01*
X1405159Y1944213D01*
X1405196Y1944286D01*
X1405268Y1944395D01*
X1405341Y1944541D01*
X1405541Y1944869D01*
X1405669Y1945032D01*
X1405778Y1945178D01*
X1405814Y1945214D01*
X1405905Y1945305D01*
X1406051Y1945451D01*
X1406233Y1945633D01*
X1406488Y1945833D01*
X1406761Y1946070D01*
X1407088Y1946306D01*
X1407452Y1946561D01*
X1410874Y1948727D01*
Y1946652D01*
D02*
G37*
G36*
X1486562Y1956973D02*
X1486689Y1956954D01*
X1486853Y1956936D01*
X1487035Y1956900D01*
X1487235Y1956845D01*
X1487654Y1956718D01*
X1487890Y1956627D01*
X1488109Y1956499D01*
X1488345Y1956372D01*
X1488564Y1956226D01*
X1488782Y1956044D01*
X1489000Y1955844D01*
X1489019Y1955826D01*
X1489055Y1955790D01*
X1489110Y1955735D01*
X1489164Y1955644D01*
X1489255Y1955517D01*
X1489346Y1955389D01*
X1489437Y1955225D01*
X1489546Y1955043D01*
X1489656Y1954843D01*
X1489747Y1954607D01*
X1489838Y1954352D01*
X1489929Y1954097D01*
X1489983Y1953806D01*
X1490038Y1953496D01*
X1490074Y1953187D01*
X1490092Y1952841D01*
Y1952659D01*
X1490074Y1952532D01*
X1490056Y1952368D01*
X1490038Y1952186D01*
X1490001Y1951986D01*
X1489947Y1951767D01*
X1489819Y1951276D01*
X1489728Y1951021D01*
X1489637Y1950785D01*
X1489510Y1950530D01*
X1489364Y1950275D01*
X1489201Y1950038D01*
X1489000Y1949820D01*
X1488982Y1949802D01*
X1488946Y1949765D01*
X1488891Y1949711D01*
X1488800Y1949638D01*
X1488691Y1949565D01*
X1488564Y1949456D01*
X1488418Y1949365D01*
X1488236Y1949256D01*
X1488054Y1949147D01*
X1487836Y1949056D01*
X1487381Y1948874D01*
X1487108Y1948801D01*
X1486835Y1948746D01*
X1486543Y1948710D01*
X1486252Y1948692D01*
X1486234D01*
X1486198D01*
X1486125D01*
X1486052Y1948710D01*
X1485943D01*
X1485815Y1948728D01*
X1485524Y1948764D01*
X1485197Y1948837D01*
X1484869Y1948946D01*
X1484523Y1949110D01*
X1484196Y1949310D01*
X1484177D01*
X1484159Y1949347D01*
X1484068Y1949420D01*
X1483923Y1949565D01*
X1483741Y1949765D01*
X1483559Y1950020D01*
X1483358Y1950330D01*
X1483195Y1950675D01*
X1483067Y1951094D01*
Y1951076D01*
X1483049Y1951058D01*
X1483031Y1951003D01*
X1482994Y1950930D01*
X1482922Y1950766D01*
X1482812Y1950548D01*
X1482667Y1950311D01*
X1482485Y1950075D01*
X1482285Y1949856D01*
X1482066Y1949656D01*
X1482030Y1949638D01*
X1481957Y1949583D01*
X1481811Y1949511D01*
X1481629Y1949438D01*
X1481393Y1949347D01*
X1481120Y1949274D01*
X1480810Y1949219D01*
X1480483Y1949201D01*
X1480465D01*
X1480428D01*
X1480355D01*
X1480246Y1949219D01*
X1480137Y1949238D01*
X1479991Y1949256D01*
X1479682Y1949329D01*
X1479318Y1949438D01*
X1478936Y1949620D01*
X1478736Y1949729D01*
X1478535Y1949856D01*
X1478353Y1950020D01*
X1478171Y1950184D01*
X1478153Y1950202D01*
X1478135Y1950239D01*
X1478080Y1950293D01*
X1478026Y1950366D01*
X1477953Y1950457D01*
X1477880Y1950584D01*
X1477789Y1950730D01*
X1477698Y1950876D01*
X1477607Y1951058D01*
X1477516Y1951258D01*
X1477443Y1951476D01*
X1477371Y1951713D01*
X1477261Y1952222D01*
X1477243Y1952514D01*
X1477225Y1952805D01*
Y1952969D01*
X1477243Y1953078D01*
X1477261Y1953223D01*
X1477280Y1953387D01*
X1477298Y1953569D01*
X1477352Y1953751D01*
X1477462Y1954188D01*
X1477625Y1954625D01*
X1477735Y1954843D01*
X1477862Y1955062D01*
X1478026Y1955262D01*
X1478190Y1955462D01*
X1478208Y1955480D01*
X1478226Y1955498D01*
X1478281Y1955553D01*
X1478353Y1955626D01*
X1478463Y1955699D01*
X1478572Y1955790D01*
X1478845Y1955972D01*
X1479191Y1956154D01*
X1479591Y1956317D01*
X1480046Y1956445D01*
X1480283Y1956463D01*
X1480537Y1956481D01*
X1480556D01*
X1480574D01*
X1480683D01*
X1480847Y1956463D01*
X1481047Y1956427D01*
X1481302Y1956372D01*
X1481557Y1956281D01*
X1481811Y1956172D01*
X1482066Y1956008D01*
X1482103Y1955990D01*
X1482175Y1955917D01*
X1482285Y1955808D01*
X1482430Y1955662D01*
X1482594Y1955462D01*
X1482758Y1955225D01*
X1482922Y1954952D01*
X1483067Y1954625D01*
Y1954643D01*
X1483085Y1954679D01*
X1483104Y1954734D01*
X1483140Y1954807D01*
X1483231Y1955025D01*
X1483358Y1955280D01*
X1483540Y1955553D01*
X1483741Y1955844D01*
X1483995Y1956117D01*
X1484287Y1956372D01*
X1484305D01*
X1484323Y1956390D01*
X1484432Y1956463D01*
X1484614Y1956572D01*
X1484851Y1956681D01*
X1485142Y1956791D01*
X1485488Y1956900D01*
X1485870Y1956973D01*
X1486289Y1956991D01*
X1486307D01*
X1486361D01*
X1486452D01*
X1486562Y1956973D01*
D02*
G37*
G36*
X1489874Y1945652D02*
X1487253Y1943996D01*
X1487235D01*
X1487199Y1943960D01*
X1487144Y1943923D01*
X1487071Y1943869D01*
X1486871Y1943741D01*
X1486616Y1943577D01*
X1486343Y1943377D01*
X1486052Y1943177D01*
X1485779Y1942977D01*
X1485524Y1942795D01*
X1485506Y1942777D01*
X1485433Y1942722D01*
X1485324Y1942631D01*
X1485197Y1942504D01*
X1484924Y1942231D01*
X1484796Y1942085D01*
X1484687Y1941939D01*
X1484669Y1941921D01*
X1484651Y1941885D01*
X1484614Y1941812D01*
X1484560Y1941703D01*
X1484505Y1941594D01*
X1484450Y1941466D01*
X1484359Y1941175D01*
Y1941157D01*
X1484341Y1941120D01*
Y1941048D01*
X1484323Y1940957D01*
X1484305Y1940829D01*
Y1940684D01*
X1484287Y1940483D01*
Y1938336D01*
X1489874D01*
Y1936661D01*
X1477280D01*
Y1942504D01*
X1477298Y1942649D01*
Y1942813D01*
X1477316Y1943195D01*
X1477371Y1943596D01*
X1477425Y1944032D01*
X1477516Y1944433D01*
X1477571Y1944633D01*
X1477625Y1944797D01*
Y1944815D01*
X1477644Y1944833D01*
X1477698Y1944942D01*
X1477771Y1945106D01*
X1477898Y1945306D01*
X1478062Y1945525D01*
X1478281Y1945761D01*
X1478535Y1945980D01*
X1478827Y1946198D01*
X1478845D01*
X1478863Y1946216D01*
X1478972Y1946289D01*
X1479154Y1946362D01*
X1479391Y1946471D01*
X1479664Y1946562D01*
X1479991Y1946653D01*
X1480337Y1946708D01*
X1480719Y1946726D01*
X1480738D01*
X1480774D01*
X1480847D01*
X1480938Y1946708D01*
X1481065D01*
X1481193Y1946690D01*
X1481502Y1946617D01*
X1481866Y1946508D01*
X1482248Y1946362D01*
X1482630Y1946144D01*
X1482812Y1945998D01*
X1482994Y1945852D01*
X1483013Y1945834D01*
X1483031Y1945816D01*
X1483085Y1945761D01*
X1483140Y1945689D01*
X1483213Y1945598D01*
X1483286Y1945488D01*
X1483377Y1945343D01*
X1483486Y1945197D01*
X1483577Y1945015D01*
X1483668Y1944815D01*
X1483777Y1944597D01*
X1483868Y1944360D01*
X1483941Y1944087D01*
X1484032Y1943814D01*
X1484086Y1943505D01*
X1484141Y1943177D01*
X1484159Y1943213D01*
X1484196Y1943286D01*
X1484268Y1943395D01*
X1484341Y1943541D01*
X1484541Y1943869D01*
X1484669Y1944032D01*
X1484778Y1944178D01*
X1484814Y1944214D01*
X1484905Y1944305D01*
X1485051Y1944451D01*
X1485233Y1944633D01*
X1485488Y1944833D01*
X1485761Y1945070D01*
X1486088Y1945306D01*
X1486452Y1945561D01*
X1489874Y1947727D01*
Y1945652D01*
D02*
G37*
G36*
X2129232Y1377710D02*
X2129450D01*
X2129687Y1377691D01*
X2129942Y1377673D01*
X2130524Y1377619D01*
X2131125Y1377528D01*
X2131707Y1377418D01*
X2131980Y1377346D01*
X2132253Y1377255D01*
X2132271D01*
X2132308Y1377236D01*
X2132381Y1377200D01*
X2132472Y1377164D01*
X2132599Y1377127D01*
X2132726Y1377054D01*
X2133036Y1376909D01*
X2133363Y1376727D01*
X2133727Y1376490D01*
X2134055Y1376217D01*
X2134364Y1375890D01*
Y1375871D01*
X2134401Y1375853D01*
X2134437Y1375799D01*
X2134474Y1375726D01*
X2134528Y1375635D01*
X2134601Y1375544D01*
X2134728Y1375271D01*
X2134856Y1374943D01*
X2134983Y1374561D01*
X2135056Y1374106D01*
X2135092Y1373615D01*
Y1373433D01*
X2135074Y1373305D01*
X2135056Y1373160D01*
X2135020Y1372978D01*
X2134983Y1372777D01*
X2134929Y1372559D01*
X2134856Y1372341D01*
X2134783Y1372104D01*
X2134674Y1371867D01*
X2134546Y1371631D01*
X2134401Y1371394D01*
X2134219Y1371158D01*
X2134019Y1370939D01*
X2133800Y1370739D01*
X2133782Y1370721D01*
X2133727Y1370684D01*
X2133636Y1370630D01*
X2133491Y1370539D01*
X2133327Y1370448D01*
X2133109Y1370357D01*
X2132854Y1370229D01*
X2132563Y1370120D01*
X2132235Y1370011D01*
X2131853Y1369902D01*
X2131434Y1369793D01*
X2130961Y1369702D01*
X2130451Y1369611D01*
X2129905Y1369556D01*
X2129305Y1369520D01*
X2128668Y1369501D01*
X2128650D01*
X2128577D01*
X2128449D01*
X2128304D01*
X2128104Y1369520D01*
X2127885D01*
X2127649Y1369538D01*
X2127376Y1369556D01*
X2126811Y1369611D01*
X2126211Y1369702D01*
X2125610Y1369811D01*
X2125337Y1369884D01*
X2125064Y1369956D01*
X2125046D01*
X2125010Y1369975D01*
X2124937Y1370011D01*
X2124846Y1370047D01*
X2124718Y1370084D01*
X2124591Y1370157D01*
X2124282Y1370302D01*
X2123954Y1370484D01*
X2123608Y1370721D01*
X2123262Y1370994D01*
X2122971Y1371321D01*
Y1371340D01*
X2122935Y1371358D01*
X2122898Y1371412D01*
X2122862Y1371485D01*
X2122789Y1371576D01*
X2122735Y1371685D01*
X2122589Y1371958D01*
X2122462Y1372286D01*
X2122334Y1372668D01*
X2122261Y1373123D01*
X2122225Y1373615D01*
Y1373778D01*
X2122243Y1373979D01*
X2122280Y1374215D01*
X2122334Y1374488D01*
X2122407Y1374779D01*
X2122498Y1375089D01*
X2122644Y1375380D01*
Y1375398D01*
X2122662Y1375416D01*
X2122716Y1375507D01*
X2122807Y1375653D01*
X2122935Y1375835D01*
X2123117Y1376035D01*
X2123317Y1376254D01*
X2123554Y1376454D01*
X2123827Y1376654D01*
X2123863Y1376672D01*
X2123954Y1376745D01*
X2124118Y1376818D01*
X2124354Y1376945D01*
X2124627Y1377054D01*
X2124937Y1377200D01*
X2125301Y1377327D01*
X2125701Y1377437D01*
X2125719D01*
X2125756Y1377455D01*
X2125810Y1377473D01*
X2125901Y1377491D01*
X2126011Y1377509D01*
X2126138Y1377528D01*
X2126302Y1377564D01*
X2126484Y1377582D01*
X2126684Y1377619D01*
X2126902Y1377637D01*
X2127157Y1377655D01*
X2127412Y1377691D01*
X2127703Y1377710D01*
X2127994D01*
X2128322Y1377728D01*
X2128668D01*
X2128686D01*
X2128759D01*
X2128886D01*
X2129032D01*
X2129232Y1377710D01*
D02*
G37*
G36*
X2134874Y1359491D02*
X2134856D01*
X2134783D01*
X2134674D01*
X2134528Y1359510D01*
X2134364Y1359528D01*
X2134182Y1359564D01*
X2134000Y1359601D01*
X2133800Y1359673D01*
X2133782D01*
X2133764Y1359692D01*
X2133655Y1359728D01*
X2133491Y1359801D01*
X2133272Y1359910D01*
X2133018Y1360056D01*
X2132726Y1360238D01*
X2132435Y1360438D01*
X2132126Y1360693D01*
X2132108D01*
X2132089Y1360729D01*
X2131980Y1360820D01*
X2131816Y1360984D01*
X2131580Y1361220D01*
X2131307Y1361493D01*
X2130979Y1361839D01*
X2130615Y1362258D01*
X2130233Y1362713D01*
X2130215Y1362731D01*
X2130160Y1362804D01*
X2130069Y1362913D01*
X2129960Y1363040D01*
X2129814Y1363204D01*
X2129651Y1363404D01*
X2129469Y1363605D01*
X2129268Y1363841D01*
X2128832Y1364296D01*
X2128395Y1364751D01*
X2128176Y1364970D01*
X2127958Y1365170D01*
X2127758Y1365352D01*
X2127558Y1365497D01*
X2127539D01*
X2127521Y1365534D01*
X2127467Y1365570D01*
X2127394Y1365607D01*
X2127194Y1365734D01*
X2126957Y1365880D01*
X2126666Y1366007D01*
X2126356Y1366134D01*
X2126011Y1366207D01*
X2125683Y1366244D01*
X2125665D01*
X2125647D01*
X2125537Y1366225D01*
X2125355Y1366207D01*
X2125155Y1366153D01*
X2124900Y1366080D01*
X2124646Y1365952D01*
X2124391Y1365789D01*
X2124136Y1365570D01*
X2124100Y1365534D01*
X2124027Y1365443D01*
X2123936Y1365315D01*
X2123808Y1365115D01*
X2123699Y1364860D01*
X2123590Y1364569D01*
X2123517Y1364223D01*
X2123499Y1363841D01*
Y1363732D01*
X2123517Y1363659D01*
X2123535Y1363441D01*
X2123590Y1363186D01*
X2123663Y1362913D01*
X2123790Y1362604D01*
X2123954Y1362312D01*
X2124172Y1362039D01*
X2124209Y1362003D01*
X2124300Y1361930D01*
X2124445Y1361821D01*
X2124664Y1361712D01*
X2124919Y1361584D01*
X2125246Y1361475D01*
X2125610Y1361402D01*
X2126029Y1361366D01*
X2125865Y1359783D01*
X2125847D01*
X2125792Y1359801D01*
X2125701D01*
X2125574Y1359819D01*
X2125428Y1359855D01*
X2125264Y1359892D01*
X2125064Y1359946D01*
X2124864Y1360001D01*
X2124427Y1360147D01*
X2123990Y1360365D01*
X2123772Y1360492D01*
X2123554Y1360656D01*
X2123353Y1360820D01*
X2123171Y1361002D01*
X2123153Y1361020D01*
X2123135Y1361057D01*
X2123080Y1361111D01*
X2123026Y1361202D01*
X2122953Y1361311D01*
X2122880Y1361439D01*
X2122789Y1361584D01*
X2122698Y1361766D01*
X2122607Y1361967D01*
X2122516Y1362185D01*
X2122443Y1362422D01*
X2122371Y1362676D01*
X2122316Y1362949D01*
X2122261Y1363241D01*
X2122243Y1363550D01*
X2122225Y1363878D01*
Y1364060D01*
X2122243Y1364187D01*
X2122261Y1364333D01*
X2122280Y1364515D01*
X2122316Y1364715D01*
X2122352Y1364915D01*
X2122480Y1365388D01*
X2122662Y1365861D01*
X2122771Y1366098D01*
X2122898Y1366335D01*
X2123062Y1366553D01*
X2123244Y1366753D01*
X2123262Y1366771D01*
X2123281Y1366808D01*
X2123353Y1366844D01*
X2123426Y1366917D01*
X2123517Y1367008D01*
X2123645Y1367099D01*
X2123772Y1367190D01*
X2123936Y1367299D01*
X2124282Y1367481D01*
X2124718Y1367663D01*
X2124937Y1367736D01*
X2125192Y1367772D01*
X2125446Y1367809D01*
X2125719Y1367827D01*
X2125756D01*
X2125847D01*
X2125992Y1367809D01*
X2126193Y1367791D01*
X2126411Y1367754D01*
X2126666Y1367681D01*
X2126939Y1367609D01*
X2127212Y1367499D01*
X2127248Y1367481D01*
X2127339Y1367445D01*
X2127485Y1367372D01*
X2127685Y1367263D01*
X2127903Y1367117D01*
X2128176Y1366935D01*
X2128449Y1366717D01*
X2128759Y1366462D01*
X2128795Y1366426D01*
X2128904Y1366335D01*
X2128995Y1366244D01*
X2129086Y1366153D01*
X2129196Y1366043D01*
X2129341Y1365898D01*
X2129487Y1365752D01*
X2129651Y1365570D01*
X2129833Y1365388D01*
X2130033Y1365170D01*
X2130233Y1364933D01*
X2130470Y1364678D01*
X2130706Y1364387D01*
X2130961Y1364096D01*
X2130979Y1364078D01*
X2131016Y1364041D01*
X2131070Y1363969D01*
X2131143Y1363878D01*
X2131252Y1363768D01*
X2131361Y1363641D01*
X2131598Y1363350D01*
X2131871Y1363040D01*
X2132144Y1362749D01*
X2132381Y1362494D01*
X2132472Y1362385D01*
X2132563Y1362294D01*
X2132581Y1362276D01*
X2132635Y1362221D01*
X2132708Y1362149D01*
X2132817Y1362058D01*
X2132945Y1361967D01*
X2133072Y1361857D01*
X2133382Y1361639D01*
Y1367845D01*
X2134874D01*
Y1359491D01*
D02*
G37*
G36*
Y1356652D02*
X2132253Y1354996D01*
X2132235D01*
X2132199Y1354960D01*
X2132144Y1354923D01*
X2132071Y1354869D01*
X2131871Y1354741D01*
X2131616Y1354577D01*
X2131343Y1354377D01*
X2131052Y1354177D01*
X2130779Y1353977D01*
X2130524Y1353795D01*
X2130506Y1353777D01*
X2130433Y1353722D01*
X2130324Y1353631D01*
X2130197Y1353504D01*
X2129924Y1353231D01*
X2129796Y1353085D01*
X2129687Y1352939D01*
X2129669Y1352921D01*
X2129651Y1352885D01*
X2129614Y1352812D01*
X2129560Y1352703D01*
X2129505Y1352594D01*
X2129450Y1352466D01*
X2129359Y1352175D01*
Y1352157D01*
X2129341Y1352120D01*
Y1352048D01*
X2129323Y1351957D01*
X2129305Y1351829D01*
Y1351684D01*
X2129287Y1351483D01*
Y1349336D01*
X2134874D01*
Y1347661D01*
X2122280D01*
Y1353504D01*
X2122298Y1353649D01*
Y1353813D01*
X2122316Y1354195D01*
X2122371Y1354596D01*
X2122425Y1355032D01*
X2122516Y1355433D01*
X2122571Y1355633D01*
X2122625Y1355797D01*
Y1355815D01*
X2122644Y1355833D01*
X2122698Y1355942D01*
X2122771Y1356106D01*
X2122898Y1356306D01*
X2123062Y1356525D01*
X2123281Y1356761D01*
X2123535Y1356980D01*
X2123827Y1357198D01*
X2123845D01*
X2123863Y1357216D01*
X2123972Y1357289D01*
X2124154Y1357362D01*
X2124391Y1357471D01*
X2124664Y1357562D01*
X2124991Y1357653D01*
X2125337Y1357708D01*
X2125719Y1357726D01*
X2125738D01*
X2125774D01*
X2125847D01*
X2125938Y1357708D01*
X2126065D01*
X2126193Y1357690D01*
X2126502Y1357617D01*
X2126866Y1357508D01*
X2127248Y1357362D01*
X2127630Y1357144D01*
X2127812Y1356998D01*
X2127994Y1356852D01*
X2128013Y1356834D01*
X2128031Y1356816D01*
X2128085Y1356761D01*
X2128140Y1356689D01*
X2128213Y1356598D01*
X2128286Y1356488D01*
X2128377Y1356343D01*
X2128486Y1356197D01*
X2128577Y1356015D01*
X2128668Y1355815D01*
X2128777Y1355597D01*
X2128868Y1355360D01*
X2128941Y1355087D01*
X2129032Y1354814D01*
X2129086Y1354505D01*
X2129141Y1354177D01*
X2129159Y1354213D01*
X2129196Y1354286D01*
X2129268Y1354395D01*
X2129341Y1354541D01*
X2129541Y1354869D01*
X2129669Y1355032D01*
X2129778Y1355178D01*
X2129814Y1355214D01*
X2129905Y1355305D01*
X2130051Y1355451D01*
X2130233Y1355633D01*
X2130488Y1355833D01*
X2130761Y1356070D01*
X2131088Y1356306D01*
X2131452Y1356561D01*
X2134874Y1358727D01*
Y1356652D01*
D02*
G37*
G36*
X3700720Y1859496D02*
X3700702Y1859351D01*
Y1859187D01*
X3700684Y1858805D01*
X3700629Y1858404D01*
X3700575Y1857968D01*
X3700484Y1857567D01*
X3700429Y1857367D01*
X3700375Y1857203D01*
Y1857185D01*
X3700356Y1857167D01*
X3700302Y1857058D01*
X3700229Y1856894D01*
X3700102Y1856694D01*
X3699938Y1856475D01*
X3699719Y1856239D01*
X3699465Y1856020D01*
X3699173Y1855802D01*
X3699155D01*
X3699137Y1855784D01*
X3699028Y1855711D01*
X3698846Y1855638D01*
X3698609Y1855529D01*
X3698336Y1855438D01*
X3698009Y1855347D01*
X3697663Y1855292D01*
X3697281Y1855274D01*
X3697262D01*
X3697226D01*
X3697153D01*
X3697062Y1855292D01*
X3696935D01*
X3696807Y1855310D01*
X3696498Y1855383D01*
X3696134Y1855492D01*
X3695752Y1855638D01*
X3695370Y1855856D01*
X3695188Y1856002D01*
X3695006Y1856148D01*
X3694987Y1856166D01*
X3694969Y1856184D01*
X3694915Y1856239D01*
X3694860Y1856311D01*
X3694787Y1856402D01*
X3694714Y1856512D01*
X3694623Y1856657D01*
X3694514Y1856803D01*
X3694423Y1856985D01*
X3694332Y1857185D01*
X3694223Y1857403D01*
X3694132Y1857640D01*
X3694059Y1857913D01*
X3693968Y1858186D01*
X3693914Y1858495D01*
X3693859Y1858823D01*
X3693841Y1858787D01*
X3693804Y1858714D01*
X3693732Y1858605D01*
X3693659Y1858459D01*
X3693459Y1858131D01*
X3693331Y1857968D01*
X3693222Y1857822D01*
X3693186Y1857786D01*
X3693095Y1857695D01*
X3692949Y1857549D01*
X3692767Y1857367D01*
X3692512Y1857167D01*
X3692239Y1856930D01*
X3691912Y1856694D01*
X3691548Y1856439D01*
X3688126Y1854273D01*
Y1856348D01*
X3690747Y1858004D01*
X3690765D01*
X3690801Y1858040D01*
X3690856Y1858077D01*
X3690929Y1858131D01*
X3691129Y1858259D01*
X3691384Y1858423D01*
X3691657Y1858623D01*
X3691948Y1858823D01*
X3692221Y1859023D01*
X3692476Y1859205D01*
X3692494Y1859223D01*
X3692567Y1859278D01*
X3692676Y1859369D01*
X3692803Y1859496D01*
X3693076Y1859769D01*
X3693204Y1859915D01*
X3693313Y1860061D01*
X3693331Y1860079D01*
X3693349Y1860115D01*
X3693386Y1860188D01*
X3693440Y1860297D01*
X3693495Y1860406D01*
X3693550Y1860534D01*
X3693641Y1860825D01*
Y1860843D01*
X3693659Y1860880D01*
Y1860952D01*
X3693677Y1861043D01*
X3693695Y1861171D01*
Y1861316D01*
X3693713Y1861517D01*
Y1863664D01*
X3688126D01*
Y1865339D01*
X3700720D01*
Y1859496D01*
D02*
G37*
G36*
X3688472Y1853490D02*
X3688636Y1853472D01*
X3688818Y1853436D01*
X3689000Y1853399D01*
X3689200Y1853327D01*
X3689218D01*
X3689236Y1853308D01*
X3689345Y1853272D01*
X3689509Y1853199D01*
X3689728Y1853090D01*
X3689982Y1852944D01*
X3690274Y1852762D01*
X3690565Y1852562D01*
X3690874Y1852307D01*
X3690892D01*
X3690911Y1852271D01*
X3691020Y1852180D01*
X3691184Y1852016D01*
X3691420Y1851780D01*
X3691693Y1851507D01*
X3692021Y1851161D01*
X3692385Y1850742D01*
X3692767Y1850287D01*
X3692785Y1850269D01*
X3692840Y1850196D01*
X3692931Y1850087D01*
X3693040Y1849960D01*
X3693186Y1849796D01*
X3693349Y1849596D01*
X3693531Y1849395D01*
X3693732Y1849159D01*
X3694168Y1848704D01*
X3694605Y1848249D01*
X3694824Y1848030D01*
X3695042Y1847830D01*
X3695242Y1847648D01*
X3695442Y1847503D01*
X3695461D01*
X3695479Y1847466D01*
X3695533Y1847430D01*
X3695606Y1847393D01*
X3695806Y1847266D01*
X3696043Y1847120D01*
X3696334Y1846993D01*
X3696644Y1846866D01*
X3696989Y1846793D01*
X3697317Y1846756D01*
X3697335D01*
X3697353D01*
X3697463Y1846775D01*
X3697645Y1846793D01*
X3697845Y1846847D01*
X3698100Y1846920D01*
X3698354Y1847048D01*
X3698609Y1847211D01*
X3698864Y1847430D01*
X3698900Y1847466D01*
X3698973Y1847557D01*
X3699064Y1847685D01*
X3699192Y1847885D01*
X3699301Y1848140D01*
X3699410Y1848431D01*
X3699483Y1848777D01*
X3699501Y1849159D01*
Y1849268D01*
X3699483Y1849341D01*
X3699465Y1849559D01*
X3699410Y1849814D01*
X3699337Y1850087D01*
X3699210Y1850396D01*
X3699046Y1850688D01*
X3698828Y1850961D01*
X3698791Y1850997D01*
X3698700Y1851070D01*
X3698555Y1851179D01*
X3698336Y1851288D01*
X3698081Y1851416D01*
X3697754Y1851525D01*
X3697390Y1851598D01*
X3696971Y1851634D01*
X3697135Y1853217D01*
X3697153D01*
X3697208Y1853199D01*
X3697299D01*
X3697426Y1853181D01*
X3697572Y1853145D01*
X3697736Y1853108D01*
X3697936Y1853054D01*
X3698136Y1852999D01*
X3698573Y1852853D01*
X3699010Y1852635D01*
X3699228Y1852508D01*
X3699446Y1852344D01*
X3699647Y1852180D01*
X3699829Y1851998D01*
X3699847Y1851980D01*
X3699865Y1851943D01*
X3699920Y1851889D01*
X3699974Y1851798D01*
X3700047Y1851689D01*
X3700120Y1851561D01*
X3700211Y1851416D01*
X3700302Y1851234D01*
X3700393Y1851033D01*
X3700484Y1850815D01*
X3700557Y1850578D01*
X3700629Y1850324D01*
X3700684Y1850051D01*
X3700739Y1849759D01*
X3700757Y1849450D01*
X3700775Y1849122D01*
Y1848940D01*
X3700757Y1848813D01*
X3700739Y1848667D01*
X3700720Y1848485D01*
X3700684Y1848285D01*
X3700648Y1848085D01*
X3700520Y1847612D01*
X3700338Y1847139D01*
X3700229Y1846902D01*
X3700102Y1846665D01*
X3699938Y1846447D01*
X3699756Y1846247D01*
X3699738Y1846229D01*
X3699719Y1846192D01*
X3699647Y1846156D01*
X3699574Y1846083D01*
X3699483Y1845992D01*
X3699355Y1845901D01*
X3699228Y1845810D01*
X3699064Y1845701D01*
X3698718Y1845519D01*
X3698282Y1845337D01*
X3698063Y1845264D01*
X3697808Y1845228D01*
X3697554Y1845191D01*
X3697281Y1845173D01*
X3697244D01*
X3697153D01*
X3697008Y1845191D01*
X3696807Y1845209D01*
X3696589Y1845246D01*
X3696334Y1845319D01*
X3696061Y1845391D01*
X3695788Y1845501D01*
X3695752Y1845519D01*
X3695661Y1845555D01*
X3695515Y1845628D01*
X3695315Y1845737D01*
X3695097Y1845883D01*
X3694824Y1846065D01*
X3694551Y1846283D01*
X3694241Y1846538D01*
X3694205Y1846574D01*
X3694096Y1846665D01*
X3694005Y1846756D01*
X3693914Y1846847D01*
X3693804Y1846957D01*
X3693659Y1847102D01*
X3693513Y1847248D01*
X3693349Y1847430D01*
X3693167Y1847612D01*
X3692967Y1847830D01*
X3692767Y1848067D01*
X3692530Y1848322D01*
X3692294Y1848613D01*
X3692039Y1848904D01*
X3692021Y1848922D01*
X3691984Y1848959D01*
X3691930Y1849031D01*
X3691857Y1849122D01*
X3691748Y1849232D01*
X3691639Y1849359D01*
X3691402Y1849650D01*
X3691129Y1849960D01*
X3690856Y1850251D01*
X3690619Y1850506D01*
X3690528Y1850615D01*
X3690437Y1850706D01*
X3690419Y1850724D01*
X3690365Y1850779D01*
X3690292Y1850851D01*
X3690183Y1850942D01*
X3690055Y1851033D01*
X3689928Y1851143D01*
X3689618Y1851361D01*
Y1845155D01*
X3688126D01*
Y1853509D01*
X3688144D01*
X3688217D01*
X3688326D01*
X3688472Y1853490D01*
D02*
G37*
G36*
X3691657Y1841933D02*
X3691639D01*
X3691602Y1841915D01*
X3691529Y1841897D01*
X3691438Y1841879D01*
X3691329Y1841861D01*
X3691202Y1841824D01*
X3690929Y1841733D01*
X3690601Y1841606D01*
X3690292Y1841442D01*
X3690001Y1841260D01*
X3689746Y1841042D01*
X3689728Y1841005D01*
X3689655Y1840932D01*
X3689564Y1840787D01*
X3689473Y1840605D01*
X3689364Y1840386D01*
X3689273Y1840113D01*
X3689200Y1839804D01*
X3689182Y1839476D01*
Y1839367D01*
X3689200Y1839294D01*
X3689218Y1839094D01*
X3689273Y1838839D01*
X3689364Y1838548D01*
X3689491Y1838239D01*
X3689673Y1837929D01*
X3689928Y1837638D01*
X3689964Y1837602D01*
X3690073Y1837511D01*
X3690237Y1837402D01*
X3690456Y1837256D01*
X3690729Y1837110D01*
X3691038Y1837001D01*
X3691402Y1836910D01*
X3691802Y1836874D01*
X3691821D01*
X3691857D01*
X3691912D01*
X3691984Y1836892D01*
X3692185Y1836910D01*
X3692421Y1836965D01*
X3692712Y1837038D01*
X3693004Y1837165D01*
X3693295Y1837347D01*
X3693568Y1837584D01*
X3693604Y1837620D01*
X3693677Y1837711D01*
X3693786Y1837857D01*
X3693914Y1838057D01*
X3694041Y1838312D01*
X3694150Y1838621D01*
X3694223Y1838967D01*
X3694259Y1839349D01*
Y1839513D01*
X3694241Y1839640D01*
X3694223Y1839804D01*
X3694187Y1839986D01*
X3694150Y1840204D01*
X3694096Y1840441D01*
X3695461Y1840259D01*
Y1840168D01*
X3695442Y1840095D01*
Y1839859D01*
X3695479Y1839658D01*
X3695515Y1839422D01*
X3695570Y1839149D01*
X3695661Y1838839D01*
X3695788Y1838548D01*
X3695952Y1838239D01*
Y1838221D01*
X3695970Y1838202D01*
X3696043Y1838111D01*
X3696170Y1837984D01*
X3696334Y1837838D01*
X3696571Y1837693D01*
X3696844Y1837565D01*
X3697153Y1837474D01*
X3697335Y1837438D01*
X3697535D01*
X3697554D01*
X3697572D01*
X3697681D01*
X3697827Y1837474D01*
X3698027Y1837511D01*
X3698245Y1837584D01*
X3698482Y1837675D01*
X3698718Y1837820D01*
X3698937Y1838020D01*
X3698955Y1838039D01*
X3699028Y1838130D01*
X3699119Y1838257D01*
X3699228Y1838421D01*
X3699319Y1838639D01*
X3699410Y1838894D01*
X3699483Y1839185D01*
X3699501Y1839513D01*
Y1839658D01*
X3699465Y1839822D01*
X3699428Y1840041D01*
X3699355Y1840277D01*
X3699264Y1840514D01*
X3699119Y1840769D01*
X3698937Y1841005D01*
X3698919Y1841023D01*
X3698828Y1841096D01*
X3698700Y1841205D01*
X3698518Y1841333D01*
X3698282Y1841460D01*
X3697990Y1841588D01*
X3697645Y1841697D01*
X3697244Y1841770D01*
X3697517Y1843317D01*
X3697535D01*
X3697590Y1843298D01*
X3697663Y1843280D01*
X3697772Y1843262D01*
X3697899Y1843226D01*
X3698045Y1843171D01*
X3698391Y1843062D01*
X3698791Y1842880D01*
X3699192Y1842661D01*
X3699574Y1842388D01*
X3699920Y1842043D01*
X3699938Y1842024D01*
X3699956Y1841988D01*
X3699992Y1841933D01*
X3700047Y1841861D01*
X3700120Y1841770D01*
X3700193Y1841642D01*
X3700265Y1841515D01*
X3700356Y1841351D01*
X3700502Y1840987D01*
X3700648Y1840568D01*
X3700739Y1840077D01*
X3700775Y1839822D01*
Y1839367D01*
X3700757Y1839167D01*
X3700720Y1838930D01*
X3700666Y1838639D01*
X3700575Y1838312D01*
X3700466Y1837984D01*
X3700320Y1837656D01*
Y1837638D01*
X3700302Y1837620D01*
X3700247Y1837511D01*
X3700138Y1837347D01*
X3700011Y1837165D01*
X3699829Y1836947D01*
X3699628Y1836728D01*
X3699392Y1836510D01*
X3699119Y1836328D01*
X3699082Y1836310D01*
X3698991Y1836255D01*
X3698828Y1836182D01*
X3698627Y1836091D01*
X3698391Y1836000D01*
X3698118Y1835927D01*
X3697808Y1835873D01*
X3697499Y1835855D01*
X3697463D01*
X3697353D01*
X3697208Y1835873D01*
X3697008Y1835909D01*
X3696771Y1835964D01*
X3696516Y1836055D01*
X3696261Y1836164D01*
X3696007Y1836310D01*
X3695970Y1836328D01*
X3695897Y1836382D01*
X3695770Y1836492D01*
X3695624Y1836637D01*
X3695461Y1836819D01*
X3695279Y1837038D01*
X3695115Y1837292D01*
X3694951Y1837602D01*
Y1837584D01*
X3694933Y1837547D01*
X3694915Y1837493D01*
X3694896Y1837420D01*
X3694824Y1837220D01*
X3694714Y1836965D01*
X3694569Y1836674D01*
X3694387Y1836382D01*
X3694150Y1836109D01*
X3693877Y1835855D01*
X3693841Y1835836D01*
X3693732Y1835764D01*
X3693550Y1835654D01*
X3693313Y1835545D01*
X3693022Y1835436D01*
X3692676Y1835327D01*
X3692276Y1835254D01*
X3691839Y1835236D01*
X3691821D01*
X3691766D01*
X3691675D01*
X3691566Y1835254D01*
X3691420Y1835272D01*
X3691256Y1835309D01*
X3691074Y1835345D01*
X3690874Y1835381D01*
X3690437Y1835527D01*
X3690201Y1835636D01*
X3689982Y1835745D01*
X3689746Y1835891D01*
X3689509Y1836055D01*
X3689273Y1836237D01*
X3689054Y1836455D01*
X3689036Y1836473D01*
X3689000Y1836510D01*
X3688945Y1836583D01*
X3688872Y1836674D01*
X3688781Y1836783D01*
X3688690Y1836928D01*
X3688581Y1837092D01*
X3688490Y1837292D01*
X3688381Y1837493D01*
X3688272Y1837729D01*
X3688181Y1837966D01*
X3688090Y1838239D01*
X3688017Y1838530D01*
X3687962Y1838839D01*
X3687926Y1839149D01*
X3687908Y1839495D01*
Y1839658D01*
X3687926Y1839768D01*
X3687944Y1839913D01*
X3687962Y1840077D01*
X3687999Y1840259D01*
X3688035Y1840459D01*
X3688144Y1840896D01*
X3688326Y1841351D01*
X3688435Y1841588D01*
X3688563Y1841806D01*
X3688727Y1842024D01*
X3688890Y1842243D01*
X3688909Y1842261D01*
X3688945Y1842297D01*
X3689000Y1842352D01*
X3689072Y1842407D01*
X3689163Y1842498D01*
X3689291Y1842589D01*
X3689418Y1842698D01*
X3689582Y1842807D01*
X3689764Y1842916D01*
X3689946Y1843025D01*
X3690383Y1843226D01*
X3690892Y1843389D01*
X3691165Y1843444D01*
X3691457Y1843480D01*
X3691657Y1841933D01*
D02*
G37*
G36*
X3377215Y1518757D02*
X3377343D01*
X3377488Y1518739D01*
X3377834Y1518666D01*
X3378216Y1518575D01*
X3378617Y1518429D01*
X3379017Y1518211D01*
X3379217Y1518083D01*
X3379399Y1517938D01*
X3379417Y1517920D01*
X3379436Y1517901D01*
X3379490Y1517847D01*
X3379545Y1517792D01*
X3379636Y1517701D01*
X3379709Y1517592D01*
X3379909Y1517337D01*
X3380109Y1517010D01*
X3380291Y1516609D01*
X3380455Y1516154D01*
X3380564Y1515645D01*
X3379017Y1515517D01*
Y1515535D01*
X3378999Y1515554D01*
X3378981Y1515663D01*
X3378926Y1515827D01*
X3378853Y1516027D01*
X3378780Y1516245D01*
X3378671Y1516464D01*
X3378544Y1516664D01*
X3378416Y1516828D01*
X3378380Y1516864D01*
X3378307Y1516937D01*
X3378180Y1517046D01*
X3377998Y1517173D01*
X3377761Y1517283D01*
X3377506Y1517392D01*
X3377197Y1517465D01*
X3376869Y1517501D01*
X3376742D01*
X3376596Y1517483D01*
X3376433Y1517446D01*
X3376214Y1517392D01*
X3375996Y1517319D01*
X3375777Y1517228D01*
X3375559Y1517082D01*
X3375523Y1517064D01*
X3375432Y1516991D01*
X3375304Y1516864D01*
X3375140Y1516682D01*
X3374958Y1516464D01*
X3374758Y1516209D01*
X3374576Y1515881D01*
X3374394Y1515517D01*
Y1515499D01*
X3374376Y1515463D01*
X3374358Y1515408D01*
X3374321Y1515335D01*
X3374303Y1515226D01*
X3374267Y1515099D01*
X3374230Y1514953D01*
X3374194Y1514771D01*
X3374139Y1514571D01*
X3374103Y1514352D01*
X3374067Y1514116D01*
X3374048Y1513861D01*
X3374012Y1513570D01*
X3373994Y1513279D01*
X3373976Y1512951D01*
Y1512623D01*
X3373994Y1512642D01*
X3374067Y1512751D01*
X3374194Y1512896D01*
X3374358Y1513078D01*
X3374540Y1513297D01*
X3374776Y1513497D01*
X3375031Y1513697D01*
X3375322Y1513879D01*
X3375341D01*
X3375359Y1513897D01*
X3375468Y1513952D01*
X3375632Y1514007D01*
X3375850Y1514098D01*
X3376105Y1514170D01*
X3376396Y1514225D01*
X3376706Y1514280D01*
X3377033Y1514298D01*
X3377179D01*
X3377288Y1514280D01*
X3377434Y1514261D01*
X3377579Y1514243D01*
X3377761Y1514207D01*
X3377943Y1514152D01*
X3378362Y1514025D01*
X3378580Y1513934D01*
X3378799Y1513806D01*
X3379017Y1513679D01*
X3379254Y1513533D01*
X3379472Y1513351D01*
X3379672Y1513151D01*
X3379690Y1513133D01*
X3379727Y1513097D01*
X3379781Y1513042D01*
X3379836Y1512951D01*
X3379927Y1512824D01*
X3380018Y1512696D01*
X3380109Y1512532D01*
X3380218Y1512350D01*
X3380327Y1512150D01*
X3380418Y1511932D01*
X3380509Y1511677D01*
X3380600Y1511422D01*
X3380655Y1511149D01*
X3380710Y1510840D01*
X3380746Y1510530D01*
X3380764Y1510203D01*
Y1510185D01*
Y1510148D01*
Y1510094D01*
Y1510003D01*
X3380746Y1509893D01*
Y1509784D01*
X3380691Y1509493D01*
X3380637Y1509147D01*
X3380546Y1508783D01*
X3380418Y1508383D01*
X3380236Y1508001D01*
Y1507982D01*
X3380218Y1507964D01*
X3380182Y1507910D01*
X3380145Y1507837D01*
X3380036Y1507655D01*
X3379872Y1507418D01*
X3379672Y1507163D01*
X3379436Y1506909D01*
X3379144Y1506654D01*
X3378835Y1506435D01*
X3378817D01*
X3378799Y1506417D01*
X3378744Y1506381D01*
X3378671Y1506363D01*
X3378489Y1506272D01*
X3378253Y1506181D01*
X3377943Y1506071D01*
X3377597Y1505999D01*
X3377215Y1505926D01*
X3376797Y1505908D01*
X3376706D01*
X3376615Y1505926D01*
X3376469D01*
X3376305Y1505944D01*
X3376123Y1505980D01*
X3375905Y1506035D01*
X3375686Y1506090D01*
X3375432Y1506162D01*
X3375177Y1506253D01*
X3374922Y1506363D01*
X3374649Y1506508D01*
X3374394Y1506672D01*
X3374139Y1506854D01*
X3373885Y1507072D01*
X3373648Y1507327D01*
X3373630Y1507345D01*
X3373593Y1507400D01*
X3373539Y1507473D01*
X3373466Y1507600D01*
X3373357Y1507764D01*
X3373266Y1507946D01*
X3373157Y1508183D01*
X3373047Y1508437D01*
X3372920Y1508747D01*
X3372811Y1509093D01*
X3372720Y1509475D01*
X3372629Y1509893D01*
X3372538Y1510367D01*
X3372483Y1510876D01*
X3372447Y1511422D01*
X3372429Y1512005D01*
Y1512023D01*
Y1512041D01*
Y1512096D01*
Y1512168D01*
X3372447Y1512350D01*
Y1512605D01*
X3372465Y1512896D01*
X3372501Y1513242D01*
X3372538Y1513624D01*
X3372592Y1514043D01*
X3372665Y1514462D01*
X3372756Y1514917D01*
X3372865Y1515353D01*
X3372993Y1515790D01*
X3373157Y1516209D01*
X3373339Y1516609D01*
X3373539Y1516991D01*
X3373775Y1517319D01*
X3373794Y1517337D01*
X3373830Y1517374D01*
X3373903Y1517446D01*
X3373994Y1517556D01*
X3374103Y1517665D01*
X3374249Y1517774D01*
X3374431Y1517920D01*
X3374613Y1518047D01*
X3374831Y1518174D01*
X3375068Y1518320D01*
X3375341Y1518429D01*
X3375614Y1518557D01*
X3375923Y1518648D01*
X3376251Y1518720D01*
X3376596Y1518757D01*
X3376960Y1518775D01*
X3377106D01*
X3377215Y1518757D01*
D02*
G37*
G36*
X3367187D02*
X3367333Y1518739D01*
X3367515Y1518720D01*
X3367715Y1518684D01*
X3367915Y1518648D01*
X3368388Y1518520D01*
X3368861Y1518338D01*
X3369098Y1518229D01*
X3369335Y1518102D01*
X3369553Y1517938D01*
X3369753Y1517756D01*
X3369771Y1517738D01*
X3369808Y1517719D01*
X3369844Y1517647D01*
X3369917Y1517574D01*
X3370008Y1517483D01*
X3370099Y1517355D01*
X3370190Y1517228D01*
X3370299Y1517064D01*
X3370481Y1516718D01*
X3370663Y1516282D01*
X3370736Y1516063D01*
X3370772Y1515808D01*
X3370809Y1515554D01*
X3370827Y1515281D01*
Y1515244D01*
Y1515153D01*
X3370809Y1515008D01*
X3370791Y1514807D01*
X3370754Y1514589D01*
X3370681Y1514334D01*
X3370609Y1514061D01*
X3370499Y1513788D01*
X3370481Y1513752D01*
X3370445Y1513661D01*
X3370372Y1513515D01*
X3370263Y1513315D01*
X3370117Y1513097D01*
X3369935Y1512824D01*
X3369717Y1512551D01*
X3369462Y1512241D01*
X3369426Y1512205D01*
X3369335Y1512096D01*
X3369244Y1512005D01*
X3369153Y1511914D01*
X3369043Y1511804D01*
X3368898Y1511659D01*
X3368752Y1511513D01*
X3368570Y1511349D01*
X3368388Y1511167D01*
X3368170Y1510967D01*
X3367933Y1510767D01*
X3367678Y1510530D01*
X3367387Y1510294D01*
X3367096Y1510039D01*
X3367078Y1510021D01*
X3367041Y1509984D01*
X3366969Y1509930D01*
X3366878Y1509857D01*
X3366768Y1509748D01*
X3366641Y1509639D01*
X3366350Y1509402D01*
X3366040Y1509129D01*
X3365749Y1508856D01*
X3365494Y1508619D01*
X3365385Y1508528D01*
X3365294Y1508437D01*
X3365276Y1508419D01*
X3365221Y1508365D01*
X3365149Y1508292D01*
X3365058Y1508183D01*
X3364967Y1508055D01*
X3364857Y1507928D01*
X3364639Y1507618D01*
X3370845D01*
Y1506126D01*
X3362491D01*
Y1506144D01*
Y1506217D01*
Y1506326D01*
X3362510Y1506472D01*
X3362528Y1506636D01*
X3362564Y1506818D01*
X3362601Y1507000D01*
X3362673Y1507200D01*
Y1507218D01*
X3362692Y1507236D01*
X3362728Y1507345D01*
X3362801Y1507509D01*
X3362910Y1507728D01*
X3363056Y1507982D01*
X3363238Y1508274D01*
X3363438Y1508565D01*
X3363693Y1508874D01*
Y1508892D01*
X3363729Y1508911D01*
X3363820Y1509020D01*
X3363984Y1509184D01*
X3364220Y1509420D01*
X3364493Y1509693D01*
X3364839Y1510021D01*
X3365258Y1510385D01*
X3365713Y1510767D01*
X3365731Y1510785D01*
X3365804Y1510840D01*
X3365913Y1510931D01*
X3366040Y1511040D01*
X3366204Y1511186D01*
X3366404Y1511349D01*
X3366605Y1511531D01*
X3366841Y1511732D01*
X3367296Y1512168D01*
X3367751Y1512605D01*
X3367970Y1512824D01*
X3368170Y1513042D01*
X3368352Y1513242D01*
X3368497Y1513442D01*
Y1513461D01*
X3368534Y1513479D01*
X3368570Y1513533D01*
X3368607Y1513606D01*
X3368734Y1513806D01*
X3368880Y1514043D01*
X3369007Y1514334D01*
X3369134Y1514644D01*
X3369207Y1514989D01*
X3369244Y1515317D01*
Y1515335D01*
Y1515353D01*
X3369225Y1515463D01*
X3369207Y1515645D01*
X3369153Y1515845D01*
X3369080Y1516100D01*
X3368952Y1516354D01*
X3368789Y1516609D01*
X3368570Y1516864D01*
X3368534Y1516900D01*
X3368443Y1516973D01*
X3368315Y1517064D01*
X3368115Y1517192D01*
X3367860Y1517301D01*
X3367569Y1517410D01*
X3367223Y1517483D01*
X3366841Y1517501D01*
X3366732D01*
X3366659Y1517483D01*
X3366441Y1517465D01*
X3366186Y1517410D01*
X3365913Y1517337D01*
X3365604Y1517210D01*
X3365312Y1517046D01*
X3365039Y1516828D01*
X3365003Y1516791D01*
X3364930Y1516700D01*
X3364821Y1516555D01*
X3364712Y1516336D01*
X3364584Y1516081D01*
X3364475Y1515754D01*
X3364402Y1515390D01*
X3364366Y1514971D01*
X3362783Y1515135D01*
Y1515153D01*
X3362801Y1515208D01*
Y1515299D01*
X3362819Y1515426D01*
X3362855Y1515572D01*
X3362892Y1515736D01*
X3362946Y1515936D01*
X3363001Y1516136D01*
X3363147Y1516573D01*
X3363365Y1517010D01*
X3363492Y1517228D01*
X3363656Y1517446D01*
X3363820Y1517647D01*
X3364002Y1517829D01*
X3364020Y1517847D01*
X3364057Y1517865D01*
X3364111Y1517920D01*
X3364202Y1517974D01*
X3364311Y1518047D01*
X3364439Y1518120D01*
X3364584Y1518211D01*
X3364766Y1518302D01*
X3364967Y1518393D01*
X3365185Y1518484D01*
X3365422Y1518557D01*
X3365676Y1518629D01*
X3365949Y1518684D01*
X3366241Y1518739D01*
X3366550Y1518757D01*
X3366878Y1518775D01*
X3367060D01*
X3367187Y1518757D01*
D02*
G37*
G36*
X3356649Y1518702D02*
X3356813D01*
X3357195Y1518684D01*
X3357596Y1518629D01*
X3358032Y1518575D01*
X3358433Y1518484D01*
X3358633Y1518429D01*
X3358797Y1518375D01*
X3358815D01*
X3358833Y1518356D01*
X3358942Y1518302D01*
X3359106Y1518229D01*
X3359306Y1518102D01*
X3359525Y1517938D01*
X3359761Y1517719D01*
X3359980Y1517465D01*
X3360198Y1517173D01*
Y1517155D01*
X3360216Y1517137D01*
X3360289Y1517028D01*
X3360362Y1516846D01*
X3360471Y1516609D01*
X3360562Y1516336D01*
X3360653Y1516009D01*
X3360708Y1515663D01*
X3360726Y1515281D01*
Y1515262D01*
Y1515226D01*
Y1515153D01*
X3360708Y1515062D01*
Y1514935D01*
X3360690Y1514807D01*
X3360617Y1514498D01*
X3360508Y1514134D01*
X3360362Y1513752D01*
X3360144Y1513370D01*
X3359998Y1513188D01*
X3359852Y1513006D01*
X3359834Y1512987D01*
X3359816Y1512969D01*
X3359761Y1512915D01*
X3359689Y1512860D01*
X3359598Y1512787D01*
X3359488Y1512714D01*
X3359343Y1512623D01*
X3359197Y1512514D01*
X3359015Y1512423D01*
X3358815Y1512332D01*
X3358597Y1512223D01*
X3358360Y1512132D01*
X3358087Y1512059D01*
X3357814Y1511968D01*
X3357505Y1511914D01*
X3357177Y1511859D01*
X3357213Y1511841D01*
X3357286Y1511804D01*
X3357395Y1511732D01*
X3357541Y1511659D01*
X3357869Y1511459D01*
X3358032Y1511331D01*
X3358178Y1511222D01*
X3358214Y1511186D01*
X3358305Y1511095D01*
X3358451Y1510949D01*
X3358633Y1510767D01*
X3358833Y1510512D01*
X3359070Y1510239D01*
X3359306Y1509912D01*
X3359561Y1509548D01*
X3361727Y1506126D01*
X3359652D01*
X3357996Y1508747D01*
Y1508765D01*
X3357960Y1508801D01*
X3357923Y1508856D01*
X3357869Y1508929D01*
X3357741Y1509129D01*
X3357577Y1509384D01*
X3357377Y1509657D01*
X3357177Y1509948D01*
X3356977Y1510221D01*
X3356795Y1510476D01*
X3356777Y1510494D01*
X3356722Y1510567D01*
X3356631Y1510676D01*
X3356504Y1510803D01*
X3356231Y1511076D01*
X3356085Y1511204D01*
X3355939Y1511313D01*
X3355921Y1511331D01*
X3355885Y1511349D01*
X3355812Y1511386D01*
X3355703Y1511440D01*
X3355594Y1511495D01*
X3355466Y1511550D01*
X3355175Y1511641D01*
X3355157D01*
X3355120Y1511659D01*
X3355048D01*
X3354957Y1511677D01*
X3354829Y1511695D01*
X3354684D01*
X3354483Y1511713D01*
X3352336D01*
Y1506126D01*
X3350661D01*
Y1518720D01*
X3356504D01*
X3356649Y1518702D01*
D02*
G37*
G36*
X79843Y728857D02*
X79824D01*
X79750D01*
X79639D01*
X79491Y728876D01*
X79325Y728894D01*
X79139Y728931D01*
X78954Y728968D01*
X78751Y729042D01*
X78733D01*
X78714Y729061D01*
X78603Y729098D01*
X78436Y729172D01*
X78215Y729283D01*
X77956Y729431D01*
X77659Y729616D01*
X77364Y729819D01*
X77049Y730078D01*
X77031D01*
X77012Y730115D01*
X76901Y730208D01*
X76734Y730374D01*
X76494Y730615D01*
X76216Y730892D01*
X75883Y731244D01*
X75513Y731669D01*
X75125Y732132D01*
X75106Y732150D01*
X75051Y732224D01*
X74959Y732335D01*
X74847Y732465D01*
X74700Y732631D01*
X74533Y732835D01*
X74348Y733038D01*
X74144Y733279D01*
X73701Y733741D01*
X73257Y734204D01*
X73034Y734426D01*
X72812Y734629D01*
X72609Y734814D01*
X72406Y734962D01*
X72387D01*
X72368Y734999D01*
X72313Y735036D01*
X72239Y735073D01*
X72035Y735203D01*
X71795Y735351D01*
X71499Y735480D01*
X71184Y735610D01*
X70833Y735684D01*
X70500Y735721D01*
X70481D01*
X70463D01*
X70352Y735702D01*
X70167Y735684D01*
X69963Y735628D01*
X69704Y735554D01*
X69445Y735425D01*
X69186Y735258D01*
X68927Y735036D01*
X68891Y734999D01*
X68817Y734907D01*
X68724Y734777D01*
X68594Y734574D01*
X68484Y734315D01*
X68373Y734019D01*
X68299Y733667D01*
X68280Y733279D01*
Y733168D01*
X68299Y733094D01*
X68317Y732872D01*
X68373Y732613D01*
X68447Y732335D01*
X68576Y732021D01*
X68743Y731725D01*
X68965Y731447D01*
X69001Y731410D01*
X69094Y731336D01*
X69242Y731225D01*
X69464Y731114D01*
X69723Y730985D01*
X70056Y730874D01*
X70426Y730800D01*
X70852Y730763D01*
X70685Y729153D01*
X70666D01*
X70611Y729172D01*
X70519D01*
X70389Y729190D01*
X70241Y729227D01*
X70075Y729264D01*
X69871Y729320D01*
X69668Y729375D01*
X69224Y729523D01*
X68779Y729745D01*
X68558Y729875D01*
X68335Y730041D01*
X68132Y730208D01*
X67947Y730393D01*
X67928Y730411D01*
X67910Y730448D01*
X67855Y730504D01*
X67799Y730596D01*
X67725Y730707D01*
X67651Y730837D01*
X67558Y730985D01*
X67466Y731170D01*
X67374Y731373D01*
X67281Y731595D01*
X67207Y731836D01*
X67133Y732095D01*
X67078Y732372D01*
X67022Y732668D01*
X67004Y732983D01*
X66985Y733316D01*
Y733501D01*
X67004Y733630D01*
X67022Y733778D01*
X67040Y733963D01*
X67078Y734167D01*
X67115Y734370D01*
X67244Y734851D01*
X67429Y735332D01*
X67540Y735573D01*
X67669Y735813D01*
X67836Y736035D01*
X68021Y736239D01*
X68040Y736257D01*
X68058Y736294D01*
X68132Y736331D01*
X68206Y736405D01*
X68299Y736498D01*
X68428Y736590D01*
X68558Y736683D01*
X68724Y736794D01*
X69076Y736979D01*
X69519Y737164D01*
X69742Y737238D01*
X70001Y737275D01*
X70260Y737312D01*
X70537Y737330D01*
X70574D01*
X70666D01*
X70814Y737312D01*
X71018Y737293D01*
X71240Y737256D01*
X71499Y737182D01*
X71776Y737108D01*
X72054Y736997D01*
X72091Y736979D01*
X72183Y736942D01*
X72332Y736868D01*
X72535Y736757D01*
X72757Y736609D01*
X73034Y736424D01*
X73312Y736202D01*
X73626Y735943D01*
X73663Y735906D01*
X73775Y735813D01*
X73867Y735721D01*
X73960Y735628D01*
X74070Y735517D01*
X74219Y735369D01*
X74367Y735221D01*
X74533Y735036D01*
X74718Y734851D01*
X74921Y734629D01*
X75125Y734389D01*
X75365Y734130D01*
X75606Y733834D01*
X75865Y733538D01*
X75883Y733519D01*
X75921Y733482D01*
X75976Y733408D01*
X76050Y733316D01*
X76161Y733205D01*
X76272Y733075D01*
X76513Y732779D01*
X76790Y732465D01*
X77067Y732169D01*
X77308Y731910D01*
X77400Y731799D01*
X77493Y731706D01*
X77511Y731688D01*
X77567Y731632D01*
X77641Y731558D01*
X77752Y731466D01*
X77882Y731373D01*
X78011Y731262D01*
X78326Y731040D01*
Y737349D01*
X79843D01*
Y728857D01*
D02*
G37*
G36*
X73756Y727377D02*
X73904D01*
X74255Y727359D01*
X74662Y727303D01*
X75088Y727248D01*
X75532Y727155D01*
X75976Y727044D01*
X75995D01*
X76031Y727026D01*
X76087Y727007D01*
X76161Y726989D01*
X76365Y726915D01*
X76624Y726804D01*
X76919Y726693D01*
X77216Y726545D01*
X77530Y726360D01*
X77826Y726175D01*
X77863Y726156D01*
X77956Y726082D01*
X78085Y725971D01*
X78251Y725823D01*
X78436Y725657D01*
X78621Y725453D01*
X78825Y725250D01*
X78992Y725009D01*
X79010Y724972D01*
X79066Y724898D01*
X79139Y724769D01*
X79232Y724584D01*
X79343Y724362D01*
X79436Y724103D01*
X79546Y723807D01*
X79639Y723474D01*
Y723437D01*
X79657Y723381D01*
X79676Y723326D01*
X79695Y723141D01*
X79731Y722882D01*
X79769Y722586D01*
X79805Y722234D01*
X79824Y721846D01*
X79843Y721420D01*
Y716814D01*
X67040D01*
Y721735D01*
X67059Y722068D01*
X67078Y722438D01*
X67115Y722808D01*
X67170Y723178D01*
X67225Y723492D01*
Y723511D01*
X67244Y723548D01*
Y723603D01*
X67281Y723677D01*
X67337Y723881D01*
X67429Y724140D01*
X67558Y724436D01*
X67725Y724750D01*
X67910Y725065D01*
X68150Y725361D01*
X68169Y725379D01*
X68188Y725398D01*
X68243Y725453D01*
X68299Y725527D01*
X68484Y725712D01*
X68743Y725934D01*
X69057Y726175D01*
X69427Y726434D01*
X69853Y726674D01*
X70334Y726878D01*
X70352D01*
X70389Y726896D01*
X70463Y726933D01*
X70574Y726952D01*
X70704Y727007D01*
X70852Y727044D01*
X71018Y727081D01*
X71222Y727137D01*
X71425Y727192D01*
X71665Y727229D01*
X72183Y727322D01*
X72757Y727377D01*
X73386Y727396D01*
X73404D01*
X73442D01*
X73534D01*
X73626D01*
X73756Y727377D01*
D02*
G37*
G36*
X79843Y711708D02*
Y710043D01*
X70093Y707360D01*
X70075D01*
X70037Y707342D01*
X69982Y707323D01*
X69889Y707305D01*
X69686Y707249D01*
X69445Y707194D01*
X69186Y707120D01*
X68946Y707046D01*
X68743Y706990D01*
X68650Y706972D01*
X68594Y706953D01*
X68613D01*
X68632Y706935D01*
X68743Y706916D01*
X68909Y706879D01*
X69112Y706824D01*
X69335Y706768D01*
X69594Y706694D01*
X69853Y706639D01*
X70093Y706565D01*
X79843Y703864D01*
Y702088D01*
X67040Y698739D01*
Y700497D01*
X75439Y702402D01*
X75458D01*
X75495Y702421D01*
X75569Y702439D01*
X75662Y702458D01*
X75791Y702476D01*
X75921Y702513D01*
X76087Y702550D01*
X76272Y702587D01*
X76660Y702680D01*
X77105Y702772D01*
X77585Y702865D01*
X78067Y702957D01*
X78048D01*
X77974Y702976D01*
X77882Y703013D01*
X77734Y703031D01*
X77585Y703068D01*
X77400Y703124D01*
X76993Y703216D01*
X76587Y703327D01*
X76383Y703364D01*
X76198Y703420D01*
X76031Y703457D01*
X75883Y703494D01*
X75772Y703531D01*
X75698Y703549D01*
X67040Y705973D01*
Y708026D01*
X73534Y709839D01*
X73552D01*
X73645Y709876D01*
X73775Y709913D01*
X73941Y709950D01*
X74163Y710006D01*
X74403Y710080D01*
X74681Y710154D01*
X74996Y710228D01*
X75347Y710320D01*
X75698Y710394D01*
X76457Y710561D01*
X77252Y710727D01*
X78067Y710857D01*
X78048D01*
X78011Y710875D01*
X77937D01*
X77844Y710912D01*
X77734Y710931D01*
X77604Y710968D01*
X77438Y710986D01*
X77252Y711042D01*
X76846Y711134D01*
X76365Y711245D01*
X75847Y711356D01*
X75273Y711504D01*
X67040Y713502D01*
Y715223D01*
X79843Y711708D01*
D02*
G37*
G36*
X76624Y697555D02*
X76882Y697518D01*
X77178Y697444D01*
X77493Y697352D01*
X77826Y697204D01*
X78177Y697000D01*
X78196D01*
X78215Y696982D01*
X78326Y696889D01*
X78492Y696760D01*
X78677Y696575D01*
X78899Y696334D01*
X79139Y696038D01*
X79362Y695705D01*
X79565Y695317D01*
Y695298D01*
X79584Y695261D01*
X79602Y695206D01*
X79639Y695132D01*
X79676Y695021D01*
X79731Y694891D01*
X79805Y694595D01*
X79898Y694244D01*
X79990Y693818D01*
X80046Y693356D01*
X80064Y692856D01*
Y692560D01*
X80046Y692412D01*
Y692246D01*
X80028Y692061D01*
X80009Y691839D01*
X79935Y691376D01*
X79861Y690895D01*
X79731Y690414D01*
X79565Y689952D01*
Y689933D01*
X79546Y689896D01*
X79510Y689841D01*
X79472Y689767D01*
X79362Y689545D01*
X79195Y689286D01*
X78973Y688990D01*
X78714Y688675D01*
X78400Y688379D01*
X78048Y688102D01*
X78029D01*
X77993Y688065D01*
X77937Y688046D01*
X77863Y687991D01*
X77770Y687954D01*
X77659Y687898D01*
X77382Y687769D01*
X77031Y687639D01*
X76642Y687528D01*
X76198Y687454D01*
X75736Y687417D01*
X75588Y689008D01*
X75606D01*
X75624D01*
X75680Y689027D01*
X75754D01*
X75921Y689064D01*
X76161Y689119D01*
X76401Y689193D01*
X76679Y689267D01*
X76938Y689397D01*
X77178Y689526D01*
X77197Y689545D01*
X77271Y689600D01*
X77400Y689693D01*
X77530Y689841D01*
X77697Y690026D01*
X77863Y690229D01*
X78029Y690507D01*
X78177Y690803D01*
Y690821D01*
X78196Y690840D01*
X78215Y690895D01*
X78233Y690951D01*
X78288Y691136D01*
X78362Y691376D01*
X78436Y691672D01*
X78492Y692005D01*
X78529Y692375D01*
X78547Y692782D01*
Y692949D01*
X78529Y693134D01*
X78510Y693356D01*
X78474Y693615D01*
X78436Y693911D01*
X78362Y694207D01*
X78270Y694484D01*
X78251Y694521D01*
X78215Y694614D01*
X78141Y694743D01*
X78067Y694910D01*
X77937Y695076D01*
X77808Y695261D01*
X77659Y695446D01*
X77475Y695594D01*
X77456Y695613D01*
X77382Y695650D01*
X77290Y695705D01*
X77141Y695779D01*
X76993Y695853D01*
X76808Y695909D01*
X76605Y695946D01*
X76383Y695964D01*
X76365D01*
X76272D01*
X76161Y695946D01*
X76013Y695927D01*
X75865Y695872D01*
X75680Y695816D01*
X75495Y695724D01*
X75329Y695594D01*
X75310Y695576D01*
X75254Y695520D01*
X75180Y695446D01*
X75070Y695317D01*
X74959Y695169D01*
X74829Y694965D01*
X74700Y694725D01*
X74588Y694447D01*
X74570Y694429D01*
X74552Y694336D01*
X74496Y694188D01*
X74478Y694096D01*
X74441Y693966D01*
X74385Y693837D01*
X74348Y693670D01*
X74293Y693485D01*
X74237Y693263D01*
X74181Y693041D01*
X74108Y692782D01*
X74034Y692486D01*
X73960Y692172D01*
Y692153D01*
X73941Y692098D01*
X73922Y692005D01*
X73885Y691894D01*
X73849Y691746D01*
X73811Y691580D01*
X73701Y691210D01*
X73571Y690803D01*
X73442Y690377D01*
X73312Y690007D01*
X73238Y689841D01*
X73164Y689693D01*
Y689674D01*
X73145Y689656D01*
X73072Y689545D01*
X72979Y689378D01*
X72831Y689193D01*
X72665Y688971D01*
X72461Y688749D01*
X72221Y688527D01*
X71962Y688342D01*
X71924Y688324D01*
X71832Y688268D01*
X71684Y688194D01*
X71499Y688120D01*
X71258Y688046D01*
X70981Y687972D01*
X70685Y687917D01*
X70371Y687898D01*
X70352D01*
X70334D01*
X70278D01*
X70204D01*
X70019Y687935D01*
X69778Y687972D01*
X69501Y688028D01*
X69186Y688120D01*
X68872Y688250D01*
X68558Y688435D01*
X68539D01*
X68520Y688453D01*
X68409Y688546D01*
X68261Y688675D01*
X68076Y688842D01*
X67873Y689064D01*
X67651Y689341D01*
X67448Y689674D01*
X67263Y690044D01*
Y690063D01*
X67244Y690100D01*
X67225Y690155D01*
X67189Y690229D01*
X67151Y690322D01*
X67115Y690451D01*
X67040Y690729D01*
X66966Y691080D01*
X66892Y691487D01*
X66837Y691913D01*
X66819Y692394D01*
Y692634D01*
X66837Y692764D01*
Y692893D01*
X66874Y693245D01*
X66930Y693633D01*
X67022Y694040D01*
X67133Y694484D01*
X67281Y694891D01*
Y694910D01*
X67299Y694947D01*
X67337Y695002D01*
X67374Y695076D01*
X67466Y695261D01*
X67632Y695502D01*
X67817Y695779D01*
X68058Y696057D01*
X68335Y696316D01*
X68650Y696556D01*
X68668D01*
X68687Y696575D01*
X68743Y696612D01*
X68798Y696649D01*
X68983Y696741D01*
X69224Y696852D01*
X69519Y696982D01*
X69871Y697074D01*
X70241Y697167D01*
X70648Y697204D01*
X70778Y695576D01*
X70759D01*
X70722D01*
X70666Y695557D01*
X70574Y695539D01*
X70371Y695483D01*
X70093Y695409D01*
X69797Y695298D01*
X69501Y695132D01*
X69224Y694928D01*
X68965Y694669D01*
X68946Y694632D01*
X68872Y694540D01*
X68761Y694355D01*
X68650Y694114D01*
X68539Y693800D01*
X68428Y693430D01*
X68354Y692967D01*
X68335Y692449D01*
Y692190D01*
X68354Y692079D01*
X68373Y691931D01*
X68409Y691598D01*
X68484Y691228D01*
X68576Y690858D01*
X68724Y690507D01*
X68817Y690359D01*
X68909Y690211D01*
X68927Y690174D01*
X69001Y690100D01*
X69131Y689989D01*
X69279Y689878D01*
X69483Y689748D01*
X69704Y689637D01*
X69963Y689563D01*
X70260Y689526D01*
X70296D01*
X70371D01*
X70500Y689545D01*
X70648Y689582D01*
X70833Y689637D01*
X71018Y689730D01*
X71203Y689841D01*
X71388Y690007D01*
X71406Y690026D01*
X71462Y690118D01*
X71517Y690192D01*
X71555Y690266D01*
X71610Y690377D01*
X71684Y690507D01*
X71740Y690673D01*
X71814Y690858D01*
X71888Y691062D01*
X71980Y691302D01*
X72054Y691561D01*
X72147Y691857D01*
X72221Y692190D01*
X72313Y692560D01*
Y692579D01*
X72332Y692653D01*
X72350Y692764D01*
X72387Y692893D01*
X72424Y693060D01*
X72480Y693263D01*
X72535Y693467D01*
X72591Y693689D01*
X72720Y694170D01*
X72850Y694632D01*
X72924Y694854D01*
X72998Y695058D01*
X73053Y695243D01*
X73127Y695391D01*
Y695409D01*
X73145Y695446D01*
X73183Y695502D01*
X73219Y695576D01*
X73331Y695779D01*
X73478Y696020D01*
X73682Y696297D01*
X73904Y696575D01*
X74163Y696834D01*
X74441Y697056D01*
X74478Y697074D01*
X74570Y697148D01*
X74737Y697222D01*
X74959Y697333D01*
X75218Y697426D01*
X75532Y697518D01*
X75883Y697574D01*
X76254Y697592D01*
X76272D01*
X76290D01*
X76346D01*
X76420D01*
X76624Y697555D01*
D02*
G37*
G36*
X79843Y1644427D02*
X69834D01*
X69853Y1644408D01*
X69927Y1644316D01*
X70037Y1644205D01*
X70167Y1644020D01*
X70334Y1643816D01*
X70519Y1643557D01*
X70722Y1643261D01*
X70925Y1642928D01*
Y1642910D01*
X70944Y1642891D01*
X71018Y1642780D01*
X71111Y1642595D01*
X71222Y1642373D01*
X71351Y1642114D01*
X71481Y1641837D01*
X71610Y1641559D01*
X71721Y1641282D01*
X70204D01*
Y1641300D01*
X70167Y1641337D01*
X70148Y1641411D01*
X70093Y1641504D01*
X70037Y1641615D01*
X69963Y1641744D01*
X69778Y1642059D01*
X69575Y1642429D01*
X69316Y1642799D01*
X69020Y1643187D01*
X68706Y1643576D01*
X68687Y1643594D01*
X68668Y1643613D01*
X68613Y1643668D01*
X68558Y1643742D01*
X68373Y1643909D01*
X68150Y1644131D01*
X67891Y1644353D01*
X67596Y1644593D01*
X67299Y1644797D01*
X66985Y1644982D01*
Y1645999D01*
X79843D01*
Y1644427D01*
D02*
G37*
G36*
X73756Y1638377D02*
X73904D01*
X74255Y1638359D01*
X74662Y1638303D01*
X75088Y1638248D01*
X75532Y1638155D01*
X75976Y1638044D01*
X75995D01*
X76031Y1638026D01*
X76087Y1638007D01*
X76161Y1637989D01*
X76365Y1637915D01*
X76624Y1637804D01*
X76919Y1637693D01*
X77216Y1637545D01*
X77530Y1637360D01*
X77826Y1637175D01*
X77863Y1637156D01*
X77956Y1637082D01*
X78085Y1636971D01*
X78251Y1636823D01*
X78436Y1636657D01*
X78621Y1636453D01*
X78825Y1636250D01*
X78992Y1636009D01*
X79010Y1635972D01*
X79066Y1635898D01*
X79139Y1635769D01*
X79232Y1635584D01*
X79343Y1635362D01*
X79436Y1635103D01*
X79546Y1634807D01*
X79639Y1634474D01*
Y1634437D01*
X79657Y1634381D01*
X79676Y1634326D01*
X79695Y1634141D01*
X79731Y1633882D01*
X79769Y1633586D01*
X79805Y1633234D01*
X79824Y1632846D01*
X79843Y1632420D01*
Y1627814D01*
X67040D01*
Y1632735D01*
X67059Y1633068D01*
X67078Y1633438D01*
X67115Y1633808D01*
X67170Y1634178D01*
X67225Y1634492D01*
Y1634511D01*
X67244Y1634548D01*
Y1634603D01*
X67281Y1634677D01*
X67337Y1634881D01*
X67429Y1635140D01*
X67558Y1635436D01*
X67725Y1635750D01*
X67910Y1636065D01*
X68150Y1636361D01*
X68169Y1636379D01*
X68188Y1636398D01*
X68243Y1636453D01*
X68299Y1636527D01*
X68484Y1636712D01*
X68743Y1636934D01*
X69057Y1637175D01*
X69427Y1637434D01*
X69853Y1637674D01*
X70334Y1637878D01*
X70352D01*
X70389Y1637896D01*
X70463Y1637933D01*
X70574Y1637952D01*
X70704Y1638007D01*
X70852Y1638044D01*
X71018Y1638081D01*
X71222Y1638137D01*
X71425Y1638192D01*
X71665Y1638229D01*
X72183Y1638322D01*
X72757Y1638377D01*
X73386Y1638396D01*
X73404D01*
X73442D01*
X73534D01*
X73626D01*
X73756Y1638377D01*
D02*
G37*
G36*
X79843Y1622708D02*
Y1621043D01*
X70093Y1618360D01*
X70075D01*
X70037Y1618342D01*
X69982Y1618323D01*
X69889Y1618305D01*
X69686Y1618249D01*
X69445Y1618194D01*
X69186Y1618120D01*
X68946Y1618046D01*
X68743Y1617990D01*
X68650Y1617972D01*
X68594Y1617953D01*
X68613D01*
X68632Y1617935D01*
X68743Y1617916D01*
X68909Y1617879D01*
X69112Y1617824D01*
X69335Y1617768D01*
X69594Y1617694D01*
X69853Y1617639D01*
X70093Y1617565D01*
X79843Y1614864D01*
Y1613088D01*
X67040Y1609739D01*
Y1611497D01*
X75439Y1613402D01*
X75458D01*
X75495Y1613421D01*
X75569Y1613439D01*
X75662Y1613458D01*
X75791Y1613476D01*
X75921Y1613513D01*
X76087Y1613550D01*
X76272Y1613587D01*
X76660Y1613680D01*
X77105Y1613772D01*
X77585Y1613865D01*
X78067Y1613957D01*
X78048D01*
X77974Y1613976D01*
X77882Y1614013D01*
X77734Y1614031D01*
X77585Y1614068D01*
X77400Y1614124D01*
X76993Y1614216D01*
X76587Y1614327D01*
X76383Y1614364D01*
X76198Y1614420D01*
X76031Y1614457D01*
X75883Y1614494D01*
X75772Y1614531D01*
X75698Y1614549D01*
X67040Y1616973D01*
Y1619026D01*
X73534Y1620839D01*
X73552D01*
X73645Y1620876D01*
X73775Y1620913D01*
X73941Y1620950D01*
X74163Y1621006D01*
X74403Y1621080D01*
X74681Y1621154D01*
X74996Y1621228D01*
X75347Y1621320D01*
X75698Y1621394D01*
X76457Y1621561D01*
X77252Y1621727D01*
X78067Y1621857D01*
X78048D01*
X78011Y1621875D01*
X77937D01*
X77844Y1621912D01*
X77734Y1621931D01*
X77604Y1621968D01*
X77438Y1621986D01*
X77252Y1622042D01*
X76846Y1622134D01*
X76365Y1622245D01*
X75847Y1622356D01*
X75273Y1622504D01*
X67040Y1624502D01*
Y1626223D01*
X79843Y1622708D01*
D02*
G37*
G36*
X76624Y1608555D02*
X76882Y1608518D01*
X77178Y1608444D01*
X77493Y1608352D01*
X77826Y1608204D01*
X78177Y1608000D01*
X78196D01*
X78215Y1607982D01*
X78326Y1607889D01*
X78492Y1607760D01*
X78677Y1607575D01*
X78899Y1607334D01*
X79139Y1607038D01*
X79362Y1606705D01*
X79565Y1606317D01*
Y1606298D01*
X79584Y1606261D01*
X79602Y1606206D01*
X79639Y1606132D01*
X79676Y1606021D01*
X79731Y1605891D01*
X79805Y1605595D01*
X79898Y1605244D01*
X79990Y1604818D01*
X80046Y1604356D01*
X80064Y1603856D01*
Y1603560D01*
X80046Y1603412D01*
Y1603246D01*
X80028Y1603061D01*
X80009Y1602839D01*
X79935Y1602376D01*
X79861Y1601895D01*
X79731Y1601414D01*
X79565Y1600952D01*
Y1600933D01*
X79546Y1600896D01*
X79510Y1600841D01*
X79472Y1600767D01*
X79362Y1600545D01*
X79195Y1600286D01*
X78973Y1599990D01*
X78714Y1599675D01*
X78400Y1599379D01*
X78048Y1599102D01*
X78029D01*
X77993Y1599065D01*
X77937Y1599046D01*
X77863Y1598991D01*
X77770Y1598954D01*
X77659Y1598898D01*
X77382Y1598769D01*
X77031Y1598639D01*
X76642Y1598528D01*
X76198Y1598454D01*
X75736Y1598417D01*
X75588Y1600008D01*
X75606D01*
X75624D01*
X75680Y1600027D01*
X75754D01*
X75921Y1600064D01*
X76161Y1600119D01*
X76401Y1600193D01*
X76679Y1600267D01*
X76938Y1600397D01*
X77178Y1600526D01*
X77197Y1600545D01*
X77271Y1600600D01*
X77400Y1600693D01*
X77530Y1600841D01*
X77697Y1601026D01*
X77863Y1601229D01*
X78029Y1601507D01*
X78177Y1601803D01*
Y1601821D01*
X78196Y1601840D01*
X78215Y1601895D01*
X78233Y1601951D01*
X78288Y1602136D01*
X78362Y1602376D01*
X78436Y1602672D01*
X78492Y1603005D01*
X78529Y1603375D01*
X78547Y1603782D01*
Y1603949D01*
X78529Y1604134D01*
X78510Y1604356D01*
X78474Y1604615D01*
X78436Y1604911D01*
X78362Y1605207D01*
X78270Y1605484D01*
X78251Y1605521D01*
X78215Y1605614D01*
X78141Y1605743D01*
X78067Y1605910D01*
X77937Y1606076D01*
X77808Y1606261D01*
X77659Y1606446D01*
X77475Y1606594D01*
X77456Y1606613D01*
X77382Y1606650D01*
X77290Y1606705D01*
X77141Y1606779D01*
X76993Y1606853D01*
X76808Y1606909D01*
X76605Y1606946D01*
X76383Y1606964D01*
X76365D01*
X76272D01*
X76161Y1606946D01*
X76013Y1606927D01*
X75865Y1606872D01*
X75680Y1606816D01*
X75495Y1606724D01*
X75329Y1606594D01*
X75310Y1606576D01*
X75254Y1606520D01*
X75180Y1606446D01*
X75070Y1606317D01*
X74959Y1606169D01*
X74829Y1605965D01*
X74700Y1605725D01*
X74588Y1605447D01*
X74570Y1605429D01*
X74552Y1605336D01*
X74496Y1605188D01*
X74478Y1605096D01*
X74441Y1604966D01*
X74385Y1604837D01*
X74348Y1604670D01*
X74293Y1604485D01*
X74237Y1604263D01*
X74181Y1604041D01*
X74108Y1603782D01*
X74034Y1603486D01*
X73960Y1603172D01*
Y1603153D01*
X73941Y1603098D01*
X73922Y1603005D01*
X73885Y1602894D01*
X73849Y1602746D01*
X73811Y1602580D01*
X73701Y1602210D01*
X73571Y1601803D01*
X73442Y1601377D01*
X73312Y1601007D01*
X73238Y1600841D01*
X73164Y1600693D01*
Y1600674D01*
X73145Y1600656D01*
X73072Y1600545D01*
X72979Y1600378D01*
X72831Y1600193D01*
X72665Y1599971D01*
X72461Y1599749D01*
X72221Y1599527D01*
X71962Y1599342D01*
X71924Y1599324D01*
X71832Y1599268D01*
X71684Y1599194D01*
X71499Y1599120D01*
X71258Y1599046D01*
X70981Y1598972D01*
X70685Y1598917D01*
X70371Y1598898D01*
X70352D01*
X70334D01*
X70278D01*
X70204D01*
X70019Y1598935D01*
X69778Y1598972D01*
X69501Y1599028D01*
X69186Y1599120D01*
X68872Y1599250D01*
X68558Y1599435D01*
X68539D01*
X68520Y1599453D01*
X68409Y1599546D01*
X68261Y1599675D01*
X68076Y1599842D01*
X67873Y1600064D01*
X67651Y1600341D01*
X67448Y1600674D01*
X67263Y1601044D01*
Y1601063D01*
X67244Y1601100D01*
X67225Y1601155D01*
X67189Y1601229D01*
X67151Y1601322D01*
X67115Y1601451D01*
X67040Y1601729D01*
X66966Y1602080D01*
X66892Y1602487D01*
X66837Y1602913D01*
X66819Y1603394D01*
Y1603634D01*
X66837Y1603764D01*
Y1603893D01*
X66874Y1604245D01*
X66930Y1604633D01*
X67022Y1605040D01*
X67133Y1605484D01*
X67281Y1605891D01*
Y1605910D01*
X67299Y1605947D01*
X67337Y1606002D01*
X67374Y1606076D01*
X67466Y1606261D01*
X67632Y1606502D01*
X67817Y1606779D01*
X68058Y1607057D01*
X68335Y1607316D01*
X68650Y1607556D01*
X68668D01*
X68687Y1607575D01*
X68743Y1607612D01*
X68798Y1607649D01*
X68983Y1607741D01*
X69224Y1607852D01*
X69519Y1607982D01*
X69871Y1608074D01*
X70241Y1608167D01*
X70648Y1608204D01*
X70778Y1606576D01*
X70759D01*
X70722D01*
X70666Y1606557D01*
X70574Y1606539D01*
X70371Y1606483D01*
X70093Y1606409D01*
X69797Y1606298D01*
X69501Y1606132D01*
X69224Y1605928D01*
X68965Y1605669D01*
X68946Y1605632D01*
X68872Y1605540D01*
X68761Y1605355D01*
X68650Y1605114D01*
X68539Y1604800D01*
X68428Y1604430D01*
X68354Y1603967D01*
X68335Y1603449D01*
Y1603190D01*
X68354Y1603079D01*
X68373Y1602931D01*
X68409Y1602598D01*
X68484Y1602228D01*
X68576Y1601858D01*
X68724Y1601507D01*
X68817Y1601359D01*
X68909Y1601211D01*
X68927Y1601174D01*
X69001Y1601100D01*
X69131Y1600989D01*
X69279Y1600878D01*
X69483Y1600748D01*
X69704Y1600637D01*
X69963Y1600563D01*
X70260Y1600526D01*
X70296D01*
X70371D01*
X70500Y1600545D01*
X70648Y1600582D01*
X70833Y1600637D01*
X71018Y1600730D01*
X71203Y1600841D01*
X71388Y1601007D01*
X71406Y1601026D01*
X71462Y1601118D01*
X71517Y1601192D01*
X71555Y1601266D01*
X71610Y1601377D01*
X71684Y1601507D01*
X71740Y1601673D01*
X71814Y1601858D01*
X71888Y1602062D01*
X71980Y1602302D01*
X72054Y1602561D01*
X72147Y1602857D01*
X72221Y1603190D01*
X72313Y1603560D01*
Y1603579D01*
X72332Y1603653D01*
X72350Y1603764D01*
X72387Y1603893D01*
X72424Y1604060D01*
X72480Y1604263D01*
X72535Y1604467D01*
X72591Y1604689D01*
X72720Y1605170D01*
X72850Y1605632D01*
X72924Y1605854D01*
X72998Y1606058D01*
X73053Y1606243D01*
X73127Y1606391D01*
Y1606409D01*
X73145Y1606446D01*
X73183Y1606502D01*
X73219Y1606576D01*
X73331Y1606779D01*
X73478Y1607020D01*
X73682Y1607297D01*
X73904Y1607575D01*
X74163Y1607834D01*
X74441Y1608056D01*
X74478Y1608074D01*
X74570Y1608148D01*
X74737Y1608222D01*
X74959Y1608333D01*
X75218Y1608426D01*
X75532Y1608518D01*
X75883Y1608574D01*
X76254Y1608592D01*
X76272D01*
X76290D01*
X76346D01*
X76420D01*
X76624Y1608555D01*
D02*
G37*
%LPC*%
G36*
X3565664Y1397849D02*
X3561915D01*
X3561697Y1397831D01*
X3561442Y1397812D01*
X3561151Y1397794D01*
X3560859Y1397758D01*
X3560568Y1397703D01*
X3560313Y1397630D01*
X3560277Y1397612D01*
X3560204Y1397576D01*
X3560095Y1397521D01*
X3559949Y1397448D01*
X3559786Y1397339D01*
X3559622Y1397212D01*
X3559458Y1397048D01*
X3559331Y1396866D01*
X3559312Y1396848D01*
X3559276Y1396775D01*
X3559221Y1396666D01*
X3559149Y1396520D01*
X3559094Y1396356D01*
X3559039Y1396174D01*
X3559003Y1395956D01*
X3558985Y1395738D01*
Y1395719D01*
Y1395701D01*
X3559003Y1395592D01*
X3559021Y1395428D01*
X3559058Y1395210D01*
X3559149Y1394991D01*
X3559258Y1394737D01*
X3559422Y1394500D01*
X3559640Y1394263D01*
X3559676Y1394245D01*
X3559767Y1394172D01*
X3559913Y1394081D01*
X3560150Y1393972D01*
X3560423Y1393863D01*
X3560787Y1393772D01*
X3561205Y1393699D01*
X3561697Y1393681D01*
X3565664D01*
Y1397849D01*
D02*
G37*
G36*
X745089Y2037849D02*
X741340D01*
X741122Y2037831D01*
X740867Y2037812D01*
X740576Y2037794D01*
X740285Y2037758D01*
X739993Y2037703D01*
X739739Y2037630D01*
X739702Y2037612D01*
X739629Y2037576D01*
X739520Y2037521D01*
X739375Y2037448D01*
X739211Y2037339D01*
X739047Y2037212D01*
X738883Y2037048D01*
X738756Y2036866D01*
X738738Y2036848D01*
X738701Y2036775D01*
X738647Y2036666D01*
X738574Y2036520D01*
X738519Y2036356D01*
X738465Y2036174D01*
X738428Y2035956D01*
X738410Y2035738D01*
Y2035719D01*
Y2035701D01*
X738428Y2035592D01*
X738446Y2035428D01*
X738483Y2035210D01*
X738574Y2034991D01*
X738683Y2034737D01*
X738847Y2034500D01*
X739065Y2034263D01*
X739102Y2034245D01*
X739193Y2034172D01*
X739338Y2034081D01*
X739575Y2033972D01*
X739848Y2033863D01*
X740212Y2033772D01*
X740630Y2033699D01*
X741122Y2033681D01*
X745089D01*
Y2037849D01*
D02*
G37*
G36*
X730438Y2043818D02*
X730347D01*
X730275Y2043800D01*
X730093Y2043782D01*
X729856Y2043727D01*
X729601Y2043618D01*
X729310Y2043491D01*
X729019Y2043291D01*
X728873Y2043181D01*
X728746Y2043036D01*
Y2043018D01*
X728709Y2042999D01*
X728637Y2042890D01*
X728527Y2042708D01*
X728382Y2042472D01*
X728254Y2042162D01*
X728145Y2041798D01*
X728072Y2041380D01*
X728036Y2040888D01*
Y2040870D01*
Y2040834D01*
Y2040761D01*
X728054Y2040670D01*
Y2040561D01*
X728072Y2040433D01*
X728127Y2040142D01*
X728200Y2039814D01*
X728327Y2039469D01*
X728509Y2039141D01*
X728746Y2038832D01*
X728782Y2038795D01*
X728873Y2038704D01*
X729019Y2038595D01*
X729219Y2038449D01*
X729474Y2038304D01*
X729765Y2038195D01*
X730111Y2038104D01*
X730493Y2038067D01*
X730602D01*
X730675Y2038085D01*
X730857Y2038104D01*
X731112Y2038158D01*
X731385Y2038249D01*
X731694Y2038395D01*
X731985Y2038577D01*
X732277Y2038832D01*
X732313Y2038868D01*
X732386Y2038959D01*
X732513Y2039123D01*
X732641Y2039359D01*
X732768Y2039632D01*
X732895Y2039978D01*
X732968Y2040360D01*
X733005Y2040797D01*
Y2040834D01*
Y2040925D01*
X732986Y2041088D01*
X732968Y2041289D01*
X732932Y2041525D01*
X732859Y2041780D01*
X732786Y2042053D01*
X732677Y2042326D01*
X732659Y2042362D01*
X732604Y2042453D01*
X732531Y2042581D01*
X732422Y2042745D01*
X732295Y2042908D01*
X732131Y2043109D01*
X731949Y2043272D01*
X731731Y2043436D01*
X731694Y2043454D01*
X731621Y2043491D01*
X731494Y2043564D01*
X731330Y2043618D01*
X731148Y2043691D01*
X730930Y2043764D01*
X730693Y2043800D01*
X730438Y2043818D01*
D02*
G37*
G36*
X2605664Y219849D02*
X2601915D01*
X2601697Y219831D01*
X2601442Y219812D01*
X2601151Y219794D01*
X2600859Y219758D01*
X2600568Y219703D01*
X2600313Y219630D01*
X2600277Y219612D01*
X2600204Y219576D01*
X2600095Y219521D01*
X2599949Y219448D01*
X2599786Y219339D01*
X2599622Y219212D01*
X2599458Y219048D01*
X2599331Y218866D01*
X2599312Y218848D01*
X2599276Y218775D01*
X2599221Y218666D01*
X2599149Y218520D01*
X2599094Y218356D01*
X2599039Y218174D01*
X2599003Y217956D01*
X2598985Y217738D01*
Y217719D01*
Y217701D01*
X2599003Y217592D01*
X2599021Y217428D01*
X2599058Y217210D01*
X2599149Y216991D01*
X2599258Y216737D01*
X2599422Y216500D01*
X2599640Y216263D01*
X2599676Y216245D01*
X2599767Y216172D01*
X2599913Y216081D01*
X2600150Y215972D01*
X2600423Y215863D01*
X2600787Y215772D01*
X2601205Y215699D01*
X2601697Y215681D01*
X2605664D01*
Y219849D01*
D02*
G37*
G36*
X2440232Y287144D02*
X2439668D01*
X2439650D01*
X2439631D01*
X2439540D01*
X2439377D01*
X2439158Y287126D01*
X2438922D01*
X2438630Y287108D01*
X2438321Y287090D01*
X2437975Y287053D01*
X2437284Y286962D01*
X2436938Y286908D01*
X2436610Y286835D01*
X2436301Y286762D01*
X2436010Y286653D01*
X2435755Y286544D01*
X2435536Y286416D01*
X2435518D01*
X2435500Y286380D01*
X2435445Y286344D01*
X2435373Y286289D01*
X2435209Y286125D01*
X2435009Y285925D01*
X2434827Y285652D01*
X2434663Y285343D01*
X2434590Y285179D01*
X2434535Y284997D01*
X2434517Y284797D01*
X2434499Y284596D01*
Y284487D01*
X2434517Y284414D01*
X2434554Y284214D01*
X2434608Y283978D01*
X2434717Y283705D01*
X2434881Y283413D01*
X2434990Y283268D01*
X2435100Y283122D01*
X2435245Y282995D01*
X2435409Y282867D01*
X2435427D01*
X2435464Y282831D01*
X2435536Y282795D01*
X2435627Y282740D01*
X2435773Y282685D01*
X2435937Y282613D01*
X2436137Y282558D01*
X2436374Y282485D01*
X2436647Y282412D01*
X2436956Y282340D01*
X2437302Y282267D01*
X2437684Y282212D01*
X2438121Y282158D01*
X2438594Y282121D01*
X2439104Y282103D01*
X2439668Y282085D01*
X2439704D01*
X2439795D01*
X2439959D01*
X2440177Y282103D01*
X2440414D01*
X2440705Y282121D01*
X2441015Y282139D01*
X2441342Y282176D01*
X2442052Y282267D01*
X2442398Y282321D01*
X2442725Y282394D01*
X2443035Y282467D01*
X2443326Y282576D01*
X2443581Y282685D01*
X2443799Y282813D01*
X2443817D01*
X2443836Y282849D01*
X2443963Y282940D01*
X2444127Y283104D01*
X2444309Y283304D01*
X2444491Y283577D01*
X2444655Y283887D01*
X2444782Y284232D01*
X2444800Y284414D01*
X2444818Y284615D01*
Y284724D01*
X2444800Y284797D01*
X2444764Y284979D01*
X2444691Y285233D01*
X2444564Y285506D01*
X2444382Y285816D01*
X2444272Y285961D01*
X2444127Y286107D01*
X2443981Y286253D01*
X2443799Y286398D01*
X2443781D01*
X2443745Y286435D01*
X2443690Y286471D01*
X2443599Y286507D01*
X2443472Y286580D01*
X2443308Y286635D01*
X2443126Y286708D01*
X2442907Y286780D01*
X2442634Y286835D01*
X2442343Y286908D01*
X2441997Y286981D01*
X2441633Y287035D01*
X2441197Y287072D01*
X2440742Y287108D01*
X2440232Y287144D01*
D02*
G37*
G36*
X2436738Y267015D02*
X2436719D01*
X2436701D01*
X2436592Y266997D01*
X2436428Y266979D01*
X2436210Y266942D01*
X2435991Y266851D01*
X2435737Y266742D01*
X2435500Y266578D01*
X2435263Y266360D01*
X2435245Y266324D01*
X2435172Y266233D01*
X2435081Y266087D01*
X2434972Y265850D01*
X2434863Y265577D01*
X2434772Y265213D01*
X2434699Y264795D01*
X2434681Y264303D01*
Y260336D01*
X2438849D01*
Y264085D01*
X2438831Y264303D01*
X2438812Y264558D01*
X2438794Y264849D01*
X2438758Y265141D01*
X2438703Y265432D01*
X2438630Y265687D01*
X2438612Y265723D01*
X2438576Y265796D01*
X2438521Y265905D01*
X2438448Y266051D01*
X2438339Y266214D01*
X2438212Y266378D01*
X2438048Y266542D01*
X2437866Y266669D01*
X2437848Y266688D01*
X2437775Y266724D01*
X2437666Y266779D01*
X2437520Y266851D01*
X2437356Y266906D01*
X2437174Y266961D01*
X2436956Y266997D01*
X2436738Y267015D01*
D02*
G37*
G36*
X3240738Y1461015D02*
X3240719D01*
X3240701D01*
X3240592Y1460997D01*
X3240428Y1460979D01*
X3240210Y1460942D01*
X3239991Y1460851D01*
X3239737Y1460742D01*
X3239500Y1460578D01*
X3239263Y1460360D01*
X3239245Y1460324D01*
X3239172Y1460233D01*
X3239081Y1460087D01*
X3238972Y1459850D01*
X3238863Y1459577D01*
X3238772Y1459213D01*
X3238699Y1458795D01*
X3238681Y1458303D01*
Y1454336D01*
X3242849D01*
Y1458085D01*
X3242831Y1458303D01*
X3242812Y1458558D01*
X3242794Y1458849D01*
X3242758Y1459141D01*
X3242703Y1459432D01*
X3242630Y1459687D01*
X3242612Y1459723D01*
X3242576Y1459796D01*
X3242521Y1459905D01*
X3242448Y1460051D01*
X3242339Y1460214D01*
X3242212Y1460378D01*
X3242048Y1460542D01*
X3241866Y1460669D01*
X3241848Y1460688D01*
X3241775Y1460724D01*
X3241666Y1460779D01*
X3241520Y1460851D01*
X3241356Y1460906D01*
X3241174Y1460961D01*
X3240956Y1460997D01*
X3240738Y1461015D01*
D02*
G37*
G36*
X3563664Y1194849D02*
X3559915D01*
X3559697Y1194831D01*
X3559442Y1194812D01*
X3559151Y1194794D01*
X3558859Y1194758D01*
X3558568Y1194703D01*
X3558313Y1194630D01*
X3558277Y1194612D01*
X3558204Y1194576D01*
X3558095Y1194521D01*
X3557949Y1194448D01*
X3557786Y1194339D01*
X3557622Y1194212D01*
X3557458Y1194048D01*
X3557331Y1193866D01*
X3557312Y1193848D01*
X3557276Y1193775D01*
X3557221Y1193666D01*
X3557149Y1193520D01*
X3557094Y1193356D01*
X3557039Y1193174D01*
X3557003Y1192956D01*
X3556985Y1192738D01*
Y1192719D01*
Y1192701D01*
X3557003Y1192592D01*
X3557021Y1192428D01*
X3557058Y1192210D01*
X3557149Y1191991D01*
X3557258Y1191737D01*
X3557422Y1191500D01*
X3557640Y1191263D01*
X3557676Y1191245D01*
X3557767Y1191172D01*
X3557913Y1191081D01*
X3558150Y1190972D01*
X3558423Y1190863D01*
X3558787Y1190772D01*
X3559205Y1190699D01*
X3559697Y1190681D01*
X3563664D01*
Y1194849D01*
D02*
G37*
G36*
X2735303Y862319D02*
X2731336D01*
Y858151D01*
X2735085D01*
X2735303Y858169D01*
X2735558Y858188D01*
X2735849Y858206D01*
X2736141Y858242D01*
X2736432Y858297D01*
X2736687Y858370D01*
X2736723Y858388D01*
X2736796Y858424D01*
X2736905Y858479D01*
X2737051Y858552D01*
X2737214Y858661D01*
X2737378Y858788D01*
X2737542Y858952D01*
X2737669Y859134D01*
X2737688Y859152D01*
X2737724Y859225D01*
X2737779Y859334D01*
X2737851Y859480D01*
X2737906Y859644D01*
X2737961Y859826D01*
X2737997Y860044D01*
X2738015Y860262D01*
Y860281D01*
Y860299D01*
X2737997Y860408D01*
X2737979Y860572D01*
X2737942Y860790D01*
X2737851Y861009D01*
X2737742Y861263D01*
X2737578Y861500D01*
X2737360Y861737D01*
X2737324Y861755D01*
X2737233Y861828D01*
X2737087Y861919D01*
X2736850Y862028D01*
X2736577Y862137D01*
X2736213Y862228D01*
X2735795Y862301D01*
X2735303Y862319D01*
D02*
G37*
G36*
X1917195Y731232D02*
X1917086D01*
X1917013Y731214D01*
X1916813Y731196D01*
X1916576Y731141D01*
X1916285Y731050D01*
X1915994Y730923D01*
X1915703Y730741D01*
X1915430Y730486D01*
X1915393Y730449D01*
X1915321Y730340D01*
X1915211Y730176D01*
X1915066Y729940D01*
X1914938Y729649D01*
X1914829Y729303D01*
X1914756Y728884D01*
X1914720Y728411D01*
Y728393D01*
Y728356D01*
Y728284D01*
X1914738Y728193D01*
Y728065D01*
X1914756Y727938D01*
X1914811Y727647D01*
X1914884Y727301D01*
X1915011Y726937D01*
X1915193Y726591D01*
X1915430Y726282D01*
Y726263D01*
X1915466Y726245D01*
X1915557Y726154D01*
X1915703Y726027D01*
X1915903Y725881D01*
X1916158Y725754D01*
X1916449Y725626D01*
X1916777Y725535D01*
X1916959Y725499D01*
X1917250D01*
X1917323Y725517D01*
X1917523Y725535D01*
X1917759Y725608D01*
X1918051Y725699D01*
X1918360Y725863D01*
X1918669Y726063D01*
X1918815Y726209D01*
X1918961Y726354D01*
Y726373D01*
X1918997Y726391D01*
X1919033Y726445D01*
X1919070Y726500D01*
X1919197Y726682D01*
X1919325Y726937D01*
X1919470Y727246D01*
X1919598Y727628D01*
X1919670Y728065D01*
X1919707Y728538D01*
Y728557D01*
Y728593D01*
Y728648D01*
X1919689Y728739D01*
Y728848D01*
X1919670Y728957D01*
X1919616Y729230D01*
X1919525Y729539D01*
X1919416Y729867D01*
X1919234Y730195D01*
X1918997Y730486D01*
X1918961Y730522D01*
X1918870Y730595D01*
X1918706Y730722D01*
X1918506Y730850D01*
X1918233Y730995D01*
X1917923Y731123D01*
X1917577Y731196D01*
X1917195Y731232D01*
D02*
G37*
G36*
X1931664Y729849D02*
X1927915D01*
X1927697Y729831D01*
X1927442Y729812D01*
X1927151Y729794D01*
X1926859Y729758D01*
X1926568Y729703D01*
X1926313Y729630D01*
X1926277Y729612D01*
X1926204Y729576D01*
X1926095Y729521D01*
X1925949Y729448D01*
X1925786Y729339D01*
X1925622Y729212D01*
X1925458Y729048D01*
X1925331Y728866D01*
X1925312Y728848D01*
X1925276Y728775D01*
X1925221Y728666D01*
X1925149Y728520D01*
X1925094Y728356D01*
X1925039Y728174D01*
X1925003Y727956D01*
X1924985Y727738D01*
Y727719D01*
Y727701D01*
X1925003Y727592D01*
X1925021Y727428D01*
X1925058Y727210D01*
X1925149Y726991D01*
X1925258Y726737D01*
X1925422Y726500D01*
X1925640Y726263D01*
X1925676Y726245D01*
X1925767Y726172D01*
X1925913Y726081D01*
X1926150Y725972D01*
X1926423Y725863D01*
X1926787Y725772D01*
X1927205Y725699D01*
X1927697Y725681D01*
X1931664D01*
Y729849D01*
D02*
G37*
G36*
X3478664Y1579849D02*
X3474915D01*
X3474697Y1579831D01*
X3474442Y1579812D01*
X3474151Y1579794D01*
X3473859Y1579758D01*
X3473568Y1579703D01*
X3473313Y1579630D01*
X3473277Y1579612D01*
X3473204Y1579576D01*
X3473095Y1579521D01*
X3472949Y1579448D01*
X3472786Y1579339D01*
X3472622Y1579212D01*
X3472458Y1579048D01*
X3472331Y1578866D01*
X3472312Y1578848D01*
X3472276Y1578775D01*
X3472221Y1578666D01*
X3472149Y1578520D01*
X3472094Y1578356D01*
X3472039Y1578174D01*
X3472003Y1577956D01*
X3471985Y1577738D01*
Y1577719D01*
Y1577701D01*
X3472003Y1577592D01*
X3472021Y1577428D01*
X3472058Y1577210D01*
X3472149Y1576991D01*
X3472258Y1576737D01*
X3472422Y1576500D01*
X3472640Y1576263D01*
X3472676Y1576245D01*
X3472767Y1576172D01*
X3472913Y1576081D01*
X3473150Y1575972D01*
X3473423Y1575863D01*
X3473787Y1575772D01*
X3474205Y1575699D01*
X3474697Y1575681D01*
X3478664D01*
Y1579849D01*
D02*
G37*
G36*
X3457516Y1582433D02*
X3453548D01*
Y1576791D01*
X3457516Y1582433D01*
D02*
G37*
G36*
X1909738Y1990777D02*
X1909719D01*
X1909701D01*
X1909592Y1990759D01*
X1909428Y1990741D01*
X1909210Y1990704D01*
X1908991Y1990613D01*
X1908737Y1990504D01*
X1908500Y1990340D01*
X1908263Y1990122D01*
X1908245Y1990086D01*
X1908172Y1989995D01*
X1908081Y1989849D01*
X1907972Y1989612D01*
X1907863Y1989339D01*
X1907772Y1988975D01*
X1907699Y1988557D01*
X1907681Y1988065D01*
Y1984098D01*
X1911849D01*
Y1987847D01*
X1911831Y1988065D01*
X1911812Y1988320D01*
X1911794Y1988611D01*
X1911758Y1988903D01*
X1911703Y1989194D01*
X1911630Y1989449D01*
X1911612Y1989485D01*
X1911576Y1989558D01*
X1911521Y1989667D01*
X1911448Y1989813D01*
X1911339Y1989976D01*
X1911212Y1990140D01*
X1911048Y1990304D01*
X1910866Y1990431D01*
X1910848Y1990450D01*
X1910775Y1990486D01*
X1910666Y1990541D01*
X1910520Y1990613D01*
X1910356Y1990668D01*
X1910174Y1990723D01*
X1909956Y1990759D01*
X1909738Y1990777D01*
D02*
G37*
G36*
X3685738Y1287015D02*
X3685719D01*
X3685701D01*
X3685592Y1286997D01*
X3685428Y1286979D01*
X3685210Y1286942D01*
X3684991Y1286851D01*
X3684737Y1286742D01*
X3684500Y1286578D01*
X3684263Y1286360D01*
X3684245Y1286324D01*
X3684172Y1286233D01*
X3684081Y1286087D01*
X3683972Y1285850D01*
X3683863Y1285577D01*
X3683772Y1285213D01*
X3683699Y1284795D01*
X3683681Y1284303D01*
Y1280336D01*
X3687849D01*
Y1284085D01*
X3687831Y1284303D01*
X3687812Y1284558D01*
X3687794Y1284849D01*
X3687758Y1285141D01*
X3687703Y1285432D01*
X3687630Y1285687D01*
X3687612Y1285723D01*
X3687576Y1285796D01*
X3687521Y1285905D01*
X3687448Y1286051D01*
X3687339Y1286214D01*
X3687212Y1286378D01*
X3687048Y1286542D01*
X3686866Y1286669D01*
X3686848Y1286688D01*
X3686775Y1286724D01*
X3686666Y1286779D01*
X3686520Y1286851D01*
X3686356Y1286906D01*
X3686174Y1286961D01*
X3685956Y1286997D01*
X3685738Y1287015D01*
D02*
G37*
G36*
X1401738Y1946015D02*
X1401719D01*
X1401701D01*
X1401592Y1945997D01*
X1401428Y1945979D01*
X1401210Y1945942D01*
X1400991Y1945851D01*
X1400737Y1945742D01*
X1400500Y1945578D01*
X1400263Y1945360D01*
X1400245Y1945324D01*
X1400172Y1945233D01*
X1400081Y1945087D01*
X1399972Y1944850D01*
X1399863Y1944577D01*
X1399772Y1944213D01*
X1399699Y1943795D01*
X1399681Y1943303D01*
Y1939336D01*
X1403849D01*
Y1943085D01*
X1403831Y1943303D01*
X1403812Y1943558D01*
X1403794Y1943849D01*
X1403758Y1944141D01*
X1403703Y1944432D01*
X1403630Y1944687D01*
X1403612Y1944723D01*
X1403576Y1944796D01*
X1403521Y1944905D01*
X1403448Y1945051D01*
X1403339Y1945214D01*
X1403212Y1945378D01*
X1403048Y1945542D01*
X1402866Y1945669D01*
X1402848Y1945688D01*
X1402775Y1945724D01*
X1402666Y1945779D01*
X1402520Y1945851D01*
X1402356Y1945906D01*
X1402174Y1945961D01*
X1401956Y1945997D01*
X1401738Y1946015D01*
D02*
G37*
G36*
X1480519Y1954898D02*
X1480501D01*
X1480483D01*
X1480374D01*
X1480210Y1954861D01*
X1480010Y1954825D01*
X1479791Y1954752D01*
X1479555Y1954643D01*
X1479318Y1954497D01*
X1479081Y1954297D01*
X1479063Y1954279D01*
X1478990Y1954188D01*
X1478899Y1954061D01*
X1478790Y1953897D01*
X1478681Y1953678D01*
X1478590Y1953442D01*
X1478517Y1953151D01*
X1478499Y1952841D01*
Y1952696D01*
X1478535Y1952532D01*
X1478572Y1952313D01*
X1478645Y1952077D01*
X1478736Y1951822D01*
X1478881Y1951585D01*
X1479081Y1951349D01*
X1479100Y1951331D01*
X1479172Y1951258D01*
X1479300Y1951167D01*
X1479464Y1951076D01*
X1479664Y1950967D01*
X1479900Y1950876D01*
X1480155Y1950803D01*
X1480446Y1950785D01*
X1480465D01*
X1480483D01*
X1480592Y1950803D01*
X1480756Y1950821D01*
X1480956Y1950857D01*
X1481193Y1950930D01*
X1481429Y1951021D01*
X1481684Y1951167D01*
X1481902Y1951349D01*
X1481921Y1951367D01*
X1481993Y1951458D01*
X1482084Y1951585D01*
X1482175Y1951749D01*
X1482285Y1951968D01*
X1482376Y1952222D01*
X1482448Y1952514D01*
X1482467Y1952841D01*
Y1952878D01*
X1482448Y1952987D01*
X1482430Y1953151D01*
X1482394Y1953369D01*
X1482321Y1953606D01*
X1482230Y1953842D01*
X1482084Y1954097D01*
X1481902Y1954315D01*
X1481884Y1954334D01*
X1481793Y1954406D01*
X1481684Y1954497D01*
X1481520Y1954607D01*
X1481320Y1954716D01*
X1481083Y1954807D01*
X1480810Y1954880D01*
X1480519Y1954898D01*
D02*
G37*
G36*
X1486307Y1955407D02*
X1486289D01*
X1486252D01*
X1486198D01*
X1486125Y1955389D01*
X1485925Y1955371D01*
X1485652Y1955316D01*
X1485379Y1955225D01*
X1485069Y1955098D01*
X1484760Y1954916D01*
X1484469Y1954661D01*
X1484432Y1954625D01*
X1484359Y1954534D01*
X1484232Y1954370D01*
X1484086Y1954152D01*
X1483959Y1953879D01*
X1483832Y1953551D01*
X1483759Y1953187D01*
X1483722Y1952787D01*
Y1952677D01*
X1483741Y1952605D01*
X1483759Y1952404D01*
X1483813Y1952150D01*
X1483904Y1951858D01*
X1484032Y1951567D01*
X1484214Y1951258D01*
X1484450Y1950985D01*
X1484487Y1950948D01*
X1484578Y1950876D01*
X1484742Y1950766D01*
X1484942Y1950639D01*
X1485215Y1950493D01*
X1485524Y1950384D01*
X1485870Y1950311D01*
X1486252Y1950275D01*
X1486289D01*
X1486361D01*
X1486489Y1950293D01*
X1486653Y1950311D01*
X1486853Y1950348D01*
X1487071Y1950402D01*
X1487290Y1950475D01*
X1487526Y1950566D01*
X1487544Y1950584D01*
X1487635Y1950621D01*
X1487745Y1950694D01*
X1487872Y1950803D01*
X1488036Y1950930D01*
X1488200Y1951094D01*
X1488345Y1951276D01*
X1488491Y1951494D01*
X1488509Y1951531D01*
X1488545Y1951604D01*
X1488600Y1951731D01*
X1488655Y1951895D01*
X1488709Y1952095D01*
X1488764Y1952332D01*
X1488800Y1952586D01*
X1488818Y1952841D01*
Y1952950D01*
X1488800Y1953023D01*
X1488782Y1953242D01*
X1488727Y1953496D01*
X1488636Y1953788D01*
X1488527Y1954097D01*
X1488345Y1954388D01*
X1488109Y1954679D01*
X1488072Y1954716D01*
X1487981Y1954789D01*
X1487817Y1954916D01*
X1487617Y1955043D01*
X1487362Y1955171D01*
X1487053Y1955298D01*
X1486689Y1955371D01*
X1486307Y1955407D01*
D02*
G37*
G36*
X1480738Y1945015D02*
X1480719D01*
X1480701D01*
X1480592Y1944997D01*
X1480428Y1944979D01*
X1480210Y1944942D01*
X1479991Y1944851D01*
X1479737Y1944742D01*
X1479500Y1944578D01*
X1479263Y1944360D01*
X1479245Y1944324D01*
X1479172Y1944233D01*
X1479081Y1944087D01*
X1478972Y1943850D01*
X1478863Y1943577D01*
X1478772Y1943213D01*
X1478699Y1942795D01*
X1478681Y1942303D01*
Y1938336D01*
X1482849D01*
Y1942085D01*
X1482831Y1942303D01*
X1482812Y1942558D01*
X1482794Y1942849D01*
X1482758Y1943141D01*
X1482703Y1943432D01*
X1482630Y1943687D01*
X1482612Y1943723D01*
X1482576Y1943796D01*
X1482521Y1943905D01*
X1482448Y1944051D01*
X1482339Y1944214D01*
X1482212Y1944378D01*
X1482048Y1944542D01*
X1481866Y1944669D01*
X1481848Y1944688D01*
X1481775Y1944724D01*
X1481666Y1944779D01*
X1481520Y1944851D01*
X1481356Y1944906D01*
X1481174Y1944961D01*
X1480956Y1944997D01*
X1480738Y1945015D01*
D02*
G37*
G36*
X2129232Y1376144D02*
X2128668D01*
X2128650D01*
X2128631D01*
X2128540D01*
X2128377D01*
X2128158Y1376126D01*
X2127922D01*
X2127630Y1376108D01*
X2127321Y1376090D01*
X2126975Y1376053D01*
X2126284Y1375962D01*
X2125938Y1375908D01*
X2125610Y1375835D01*
X2125301Y1375762D01*
X2125010Y1375653D01*
X2124755Y1375544D01*
X2124536Y1375416D01*
X2124518D01*
X2124500Y1375380D01*
X2124445Y1375344D01*
X2124373Y1375289D01*
X2124209Y1375125D01*
X2124009Y1374925D01*
X2123827Y1374652D01*
X2123663Y1374343D01*
X2123590Y1374179D01*
X2123535Y1373997D01*
X2123517Y1373797D01*
X2123499Y1373596D01*
Y1373487D01*
X2123517Y1373414D01*
X2123554Y1373214D01*
X2123608Y1372978D01*
X2123717Y1372705D01*
X2123881Y1372413D01*
X2123990Y1372268D01*
X2124100Y1372122D01*
X2124245Y1371995D01*
X2124409Y1371867D01*
X2124427D01*
X2124464Y1371831D01*
X2124536Y1371795D01*
X2124627Y1371740D01*
X2124773Y1371685D01*
X2124937Y1371613D01*
X2125137Y1371558D01*
X2125374Y1371485D01*
X2125647Y1371412D01*
X2125956Y1371340D01*
X2126302Y1371267D01*
X2126684Y1371212D01*
X2127121Y1371158D01*
X2127594Y1371121D01*
X2128104Y1371103D01*
X2128668Y1371085D01*
X2128704D01*
X2128795D01*
X2128959D01*
X2129177Y1371103D01*
X2129414D01*
X2129705Y1371121D01*
X2130015Y1371139D01*
X2130342Y1371176D01*
X2131052Y1371267D01*
X2131398Y1371321D01*
X2131725Y1371394D01*
X2132035Y1371467D01*
X2132326Y1371576D01*
X2132581Y1371685D01*
X2132799Y1371813D01*
X2132817D01*
X2132836Y1371849D01*
X2132963Y1371940D01*
X2133127Y1372104D01*
X2133309Y1372304D01*
X2133491Y1372577D01*
X2133655Y1372887D01*
X2133782Y1373232D01*
X2133800Y1373414D01*
X2133818Y1373615D01*
Y1373724D01*
X2133800Y1373797D01*
X2133764Y1373979D01*
X2133691Y1374233D01*
X2133564Y1374506D01*
X2133382Y1374816D01*
X2133272Y1374961D01*
X2133127Y1375107D01*
X2132981Y1375253D01*
X2132799Y1375398D01*
X2132781D01*
X2132745Y1375435D01*
X2132690Y1375471D01*
X2132599Y1375507D01*
X2132472Y1375580D01*
X2132308Y1375635D01*
X2132126Y1375708D01*
X2131907Y1375780D01*
X2131634Y1375835D01*
X2131343Y1375908D01*
X2130997Y1375981D01*
X2130633Y1376035D01*
X2130197Y1376072D01*
X2129742Y1376108D01*
X2129232Y1376144D01*
D02*
G37*
G36*
X2125738Y1356015D02*
X2125719D01*
X2125701D01*
X2125592Y1355997D01*
X2125428Y1355979D01*
X2125210Y1355942D01*
X2124991Y1355851D01*
X2124737Y1355742D01*
X2124500Y1355578D01*
X2124263Y1355360D01*
X2124245Y1355324D01*
X2124172Y1355233D01*
X2124081Y1355087D01*
X2123972Y1354850D01*
X2123863Y1354577D01*
X2123772Y1354213D01*
X2123699Y1353795D01*
X2123681Y1353303D01*
Y1349336D01*
X2127849D01*
Y1353085D01*
X2127831Y1353303D01*
X2127812Y1353558D01*
X2127794Y1353849D01*
X2127758Y1354141D01*
X2127703Y1354432D01*
X2127630Y1354687D01*
X2127612Y1354723D01*
X2127576Y1354796D01*
X2127521Y1354905D01*
X2127448Y1355051D01*
X2127339Y1355214D01*
X2127212Y1355378D01*
X2127048Y1355542D01*
X2126866Y1355669D01*
X2126848Y1355688D01*
X2126775Y1355724D01*
X2126666Y1355779D01*
X2126520Y1355851D01*
X2126356Y1355906D01*
X2126174Y1355961D01*
X2125956Y1355997D01*
X2125738Y1356015D01*
D02*
G37*
G36*
X3699319Y1863664D02*
X3695151D01*
Y1859915D01*
X3695169Y1859697D01*
X3695188Y1859442D01*
X3695206Y1859151D01*
X3695242Y1858859D01*
X3695297Y1858568D01*
X3695370Y1858313D01*
X3695388Y1858277D01*
X3695424Y1858204D01*
X3695479Y1858095D01*
X3695552Y1857949D01*
X3695661Y1857786D01*
X3695788Y1857622D01*
X3695952Y1857458D01*
X3696134Y1857331D01*
X3696152Y1857312D01*
X3696225Y1857276D01*
X3696334Y1857221D01*
X3696480Y1857149D01*
X3696644Y1857094D01*
X3696826Y1857039D01*
X3697044Y1857003D01*
X3697262Y1856985D01*
X3697281D01*
X3697299D01*
X3697408Y1857003D01*
X3697572Y1857021D01*
X3697790Y1857058D01*
X3698009Y1857149D01*
X3698263Y1857258D01*
X3698500Y1857422D01*
X3698737Y1857640D01*
X3698755Y1857676D01*
X3698828Y1857767D01*
X3698919Y1857913D01*
X3699028Y1858150D01*
X3699137Y1858423D01*
X3699228Y1858787D01*
X3699301Y1859205D01*
X3699319Y1859697D01*
Y1863664D01*
D02*
G37*
G36*
X3376724Y1512933D02*
X3376615D01*
X3376542Y1512915D01*
X3376360Y1512896D01*
X3376105Y1512842D01*
X3375832Y1512751D01*
X3375523Y1512605D01*
X3375231Y1512423D01*
X3374940Y1512168D01*
X3374904Y1512132D01*
X3374831Y1512041D01*
X3374704Y1511877D01*
X3374576Y1511641D01*
X3374449Y1511368D01*
X3374321Y1511022D01*
X3374249Y1510640D01*
X3374212Y1510203D01*
Y1510166D01*
Y1510075D01*
X3374230Y1509912D01*
X3374249Y1509711D01*
X3374285Y1509475D01*
X3374358Y1509220D01*
X3374431Y1508947D01*
X3374540Y1508674D01*
X3374558Y1508638D01*
X3374613Y1508547D01*
X3374685Y1508419D01*
X3374795Y1508255D01*
X3374922Y1508092D01*
X3375086Y1507891D01*
X3375268Y1507728D01*
X3375486Y1507564D01*
X3375523Y1507546D01*
X3375595Y1507509D01*
X3375723Y1507436D01*
X3375887Y1507382D01*
X3376069Y1507309D01*
X3376287Y1507236D01*
X3376524Y1507200D01*
X3376778Y1507182D01*
X3376869D01*
X3376942Y1507200D01*
X3377124Y1507218D01*
X3377361Y1507273D01*
X3377616Y1507382D01*
X3377907Y1507509D01*
X3378198Y1507709D01*
X3378344Y1507819D01*
X3378471Y1507964D01*
Y1507982D01*
X3378507Y1508001D01*
X3378580Y1508110D01*
X3378689Y1508292D01*
X3378835Y1508528D01*
X3378962Y1508838D01*
X3379072Y1509202D01*
X3379144Y1509620D01*
X3379181Y1510112D01*
Y1510130D01*
Y1510166D01*
Y1510239D01*
X3379163Y1510330D01*
Y1510439D01*
X3379144Y1510567D01*
X3379090Y1510858D01*
X3379017Y1511186D01*
X3378890Y1511531D01*
X3378708Y1511859D01*
X3378471Y1512168D01*
X3378435Y1512205D01*
X3378344Y1512296D01*
X3378198Y1512405D01*
X3377998Y1512551D01*
X3377743Y1512696D01*
X3377452Y1512805D01*
X3377106Y1512896D01*
X3376724Y1512933D01*
D02*
G37*
G36*
X3356303Y1517319D02*
X3352336D01*
Y1513151D01*
X3356085D01*
X3356303Y1513169D01*
X3356558Y1513188D01*
X3356849Y1513206D01*
X3357141Y1513242D01*
X3357432Y1513297D01*
X3357687Y1513370D01*
X3357723Y1513388D01*
X3357796Y1513424D01*
X3357905Y1513479D01*
X3358051Y1513552D01*
X3358214Y1513661D01*
X3358378Y1513788D01*
X3358542Y1513952D01*
X3358669Y1514134D01*
X3358688Y1514152D01*
X3358724Y1514225D01*
X3358779Y1514334D01*
X3358851Y1514480D01*
X3358906Y1514644D01*
X3358961Y1514826D01*
X3358997Y1515044D01*
X3359015Y1515262D01*
Y1515281D01*
Y1515299D01*
X3358997Y1515408D01*
X3358979Y1515572D01*
X3358942Y1515790D01*
X3358851Y1516009D01*
X3358742Y1516263D01*
X3358578Y1516500D01*
X3358360Y1516737D01*
X3358324Y1516755D01*
X3358233Y1516828D01*
X3358087Y1516919D01*
X3357850Y1517028D01*
X3357577Y1517137D01*
X3357213Y1517228D01*
X3356795Y1517301D01*
X3356303Y1517319D01*
D02*
G37*
G36*
X73349Y725657D02*
X73331D01*
X73257D01*
X73164D01*
X73016Y725638D01*
X72850D01*
X72665Y725620D01*
X72442Y725601D01*
X72221Y725583D01*
X71721Y725490D01*
X71203Y725379D01*
X70722Y725213D01*
X70481Y725102D01*
X70278Y724991D01*
X70260D01*
X70222Y724954D01*
X70167Y724917D01*
X70093Y724880D01*
X69908Y724732D01*
X69686Y724547D01*
X69445Y724306D01*
X69205Y724029D01*
X69001Y723714D01*
X68835Y723381D01*
X68817Y723344D01*
X68798Y723252D01*
X68743Y723085D01*
X68687Y722845D01*
X68650Y722549D01*
X68594Y722179D01*
X68576Y721957D01*
Y721716D01*
X68558Y721476D01*
Y718516D01*
X78326D01*
Y721550D01*
X78307Y721679D01*
X78288Y721957D01*
X78270Y722271D01*
X78233Y722604D01*
X78177Y722937D01*
X78103Y723215D01*
X78085Y723252D01*
X78067Y723344D01*
X78011Y723474D01*
X77937Y723640D01*
X77826Y723825D01*
X77715Y724010D01*
X77585Y724195D01*
X77438Y724380D01*
X77400Y724399D01*
X77326Y724473D01*
X77197Y724584D01*
X77012Y724713D01*
X76772Y724861D01*
X76494Y725028D01*
X76180Y725176D01*
X75828Y725305D01*
X75809D01*
X75772Y725324D01*
X75717Y725342D01*
X75643Y725361D01*
X75550Y725379D01*
X75421Y725416D01*
X75291Y725453D01*
X75144Y725490D01*
X74773Y725546D01*
X74348Y725601D01*
X73867Y725638D01*
X73349Y725657D01*
D02*
G37*
G36*
Y1636657D02*
X73331D01*
X73257D01*
X73164D01*
X73016Y1636638D01*
X72850D01*
X72665Y1636620D01*
X72442Y1636601D01*
X72221Y1636583D01*
X71721Y1636490D01*
X71203Y1636379D01*
X70722Y1636213D01*
X70481Y1636102D01*
X70278Y1635991D01*
X70260D01*
X70222Y1635954D01*
X70167Y1635917D01*
X70093Y1635880D01*
X69908Y1635732D01*
X69686Y1635547D01*
X69445Y1635306D01*
X69205Y1635029D01*
X69001Y1634714D01*
X68835Y1634381D01*
X68817Y1634344D01*
X68798Y1634252D01*
X68743Y1634085D01*
X68687Y1633845D01*
X68650Y1633549D01*
X68594Y1633179D01*
X68576Y1632957D01*
Y1632716D01*
X68558Y1632476D01*
Y1629516D01*
X78326D01*
Y1632550D01*
X78307Y1632679D01*
X78288Y1632957D01*
X78270Y1633271D01*
X78233Y1633604D01*
X78177Y1633937D01*
X78103Y1634215D01*
X78085Y1634252D01*
X78067Y1634344D01*
X78011Y1634474D01*
X77937Y1634640D01*
X77826Y1634825D01*
X77715Y1635010D01*
X77585Y1635195D01*
X77438Y1635380D01*
X77400Y1635399D01*
X77326Y1635473D01*
X77197Y1635584D01*
X77012Y1635713D01*
X76772Y1635861D01*
X76494Y1636028D01*
X76180Y1636176D01*
X75828Y1636305D01*
X75809D01*
X75772Y1636324D01*
X75717Y1636342D01*
X75643Y1636361D01*
X75550Y1636379D01*
X75421Y1636416D01*
X75291Y1636453D01*
X75144Y1636490D01*
X74773Y1636546D01*
X74348Y1636601D01*
X73867Y1636638D01*
X73349Y1636657D01*
D02*
G37*
%LPD*%
D75*
X29843Y626000D02*
X109964D01*
Y1022063D01*
X29843D02*
X109964D01*
X29843Y626000D02*
Y1022063D01*
Y1537000D02*
Y1933063D01*
X109964D01*
Y1537000D02*
Y1933063D01*
X29843Y1537000D02*
X109964D01*
D92*
X3484661Y1373378D02*
X3567339D01*
X3484661D02*
Y1420622D01*
X3567339D01*
Y1373378D02*
Y1420622D01*
X664087Y2013378D02*
X746764D01*
X664087D02*
Y2060622D01*
X746764D01*
Y2013378D02*
Y2060622D01*
X2524661Y195378D02*
X2607339D01*
X2524661D02*
Y242622D01*
X2607339D01*
Y195378D02*
Y242622D01*
X2414378Y258661D02*
Y341339D01*
X2461622D01*
Y258661D02*
Y341339D01*
X2414378Y258661D02*
X2461622D01*
X3218378Y1452661D02*
Y1535339D01*
X3265622D01*
Y1452661D02*
Y1535339D01*
X3218378Y1452661D02*
X3265622D01*
X3482661Y1170378D02*
X3565339D01*
X3482661D02*
Y1217622D01*
X3565339D01*
Y1170378D02*
Y1217622D01*
X2729661Y882622D02*
X2812339D01*
Y835378D02*
Y882622D01*
X2729661Y835378D02*
X2812339D01*
X2729661D02*
Y882622D01*
X1850661Y705378D02*
X1933339D01*
X1850661D02*
Y752622D01*
X1933339D01*
Y705378D02*
Y752622D01*
X3397661Y1555378D02*
X3480339D01*
X3397661D02*
Y1602622D01*
X3480339D01*
Y1555378D02*
Y1602622D01*
X1887378Y1982423D02*
Y2065101D01*
X1934622D01*
Y1982423D02*
Y2065101D01*
X1887378Y1982423D02*
X1934622D01*
X3663378Y1278661D02*
Y1361339D01*
X3710622D01*
Y1278661D02*
Y1361339D01*
X3663378Y1278661D02*
X3710622D01*
X1379378Y1937661D02*
Y2020339D01*
X1426622D01*
Y1937661D02*
Y2020339D01*
X1379378Y1937661D02*
X1426622D01*
X1458378Y1936661D02*
Y2019339D01*
X1505622D01*
Y1936661D02*
Y2019339D01*
X1458378Y1936661D02*
X1505622D01*
X2103378Y1347661D02*
Y1430339D01*
X2150622D01*
Y1347661D02*
Y1430339D01*
X2103378Y1347661D02*
X2150622D01*
X3719622Y1782661D02*
Y1865339D01*
X3672378Y1782661D02*
X3719622D01*
X3672378D02*
Y1865339D01*
X3719622D01*
X3350661Y1537622D02*
X3433339D01*
Y1490378D02*
Y1537622D01*
X3350661Y1490378D02*
X3433339D01*
X3350661D02*
Y1537622D01*
%TF.MD5,66afde4219a3f6ba7f881186b689b782*%
M02*
