G04*
G04 #@! TF.GenerationSoftware,Altium Limited,Altium Designer,21.6.4 (81)*
G04*
G04 Layer_Color=8421504*
%FSLAX25Y25*%
%MOIN*%
G70*
G04*
G04 #@! TF.SameCoordinates,D92126B2-5F21-4161-9152-1B55B43E0DBD*
G04*
G04*
G04 #@! TF.FilePolarity,Positive*
G04*
G01*
G75*
%ADD19R,0.04000X0.03500*%
%ADD20R,0.03700X0.03800*%
%ADD21R,0.03800X0.03700*%
%ADD22R,0.03150X0.02975*%
%ADD23R,0.02975X0.03150*%
%ADD24R,0.04134X0.04134*%
%ADD25R,0.02362X0.03347*%
%ADD26R,0.05807X0.01772*%
%ADD27R,0.04134X0.04134*%
%ADD28R,0.10400X0.04700*%
%ADD29R,0.02559X0.04134*%
%ADD30R,0.04724X0.02362*%
%ADD31R,0.04134X0.01575*%
%ADD32R,0.01575X0.04134*%
%ADD33R,0.02362X0.07087*%
%ADD34R,0.04134X0.08661*%
%ADD35R,0.03937X0.04134*%
%ADD36R,0.08661X0.04724*%
%ADD37R,0.01870X0.01476*%
G04:AMPARAMS|DCode=38|XSize=59.06mil|YSize=59.06mil|CornerRadius=2.95mil|HoleSize=0mil|Usage=FLASHONLY|Rotation=180.000|XOffset=0mil|YOffset=0mil|HoleType=Round|Shape=RoundedRectangle|*
%AMROUNDEDRECTD38*
21,1,0.05906,0.05315,0,0,180.0*
21,1,0.05315,0.05906,0,0,180.0*
1,1,0.00591,-0.02657,0.02657*
1,1,0.00591,0.02657,0.02657*
1,1,0.00591,0.02657,-0.02657*
1,1,0.00591,-0.02657,-0.02657*
%
%ADD38ROUNDEDRECTD38*%
G04:AMPARAMS|DCode=39|XSize=19.68mil|YSize=31.5mil|CornerRadius=3.94mil|HoleSize=0mil|Usage=FLASHONLY|Rotation=270.000|XOffset=0mil|YOffset=0mil|HoleType=Round|Shape=RoundedRectangle|*
%AMROUNDEDRECTD39*
21,1,0.01968,0.02362,0,0,270.0*
21,1,0.01181,0.03150,0,0,270.0*
1,1,0.00787,-0.01181,-0.00591*
1,1,0.00787,-0.01181,0.00591*
1,1,0.00787,0.01181,0.00591*
1,1,0.00787,0.01181,-0.00591*
%
%ADD39ROUNDEDRECTD39*%
G04:AMPARAMS|DCode=40|XSize=19.68mil|YSize=31.5mil|CornerRadius=3.94mil|HoleSize=0mil|Usage=FLASHONLY|Rotation=180.000|XOffset=0mil|YOffset=0mil|HoleType=Round|Shape=RoundedRectangle|*
%AMROUNDEDRECTD40*
21,1,0.01968,0.02362,0,0,180.0*
21,1,0.01181,0.03150,0,0,180.0*
1,1,0.00787,-0.00591,0.01181*
1,1,0.00787,0.00591,0.01181*
1,1,0.00787,0.00591,-0.01181*
1,1,0.00787,-0.00591,-0.01181*
%
%ADD40ROUNDEDRECTD40*%
%ADD41R,0.03543X0.02559*%
%ADD42R,0.03543X0.03937*%
%ADD43R,0.02756X0.01968*%
%ADD44R,0.03347X0.02362*%
G04:AMPARAMS|DCode=45|XSize=23.62mil|YSize=57.09mil|CornerRadius=2.01mil|HoleSize=0mil|Usage=FLASHONLY|Rotation=180.000|XOffset=0mil|YOffset=0mil|HoleType=Round|Shape=RoundedRectangle|*
%AMROUNDEDRECTD45*
21,1,0.02362,0.05307,0,0,180.0*
21,1,0.01961,0.05709,0,0,180.0*
1,1,0.00402,-0.00980,0.02653*
1,1,0.00402,0.00980,0.02653*
1,1,0.00402,0.00980,-0.02653*
1,1,0.00402,-0.00980,-0.02653*
%
%ADD45ROUNDEDRECTD45*%
%ADD46R,0.05906X0.02756*%
%ADD47R,0.05906X0.03937*%
%ADD48R,0.02756X0.05906*%
%ADD49R,0.02362X0.04528*%
%ADD50R,0.02835X0.02717*%
%ADD51R,0.01102X0.01614*%
%ADD52R,0.01614X0.01102*%
D19*
X192400Y79200D02*
D03*
X186800D02*
D03*
X214100Y148800D02*
D03*
X208500D02*
D03*
D20*
X156000Y194750D02*
D03*
Y200650D02*
D03*
X294900Y175050D02*
D03*
Y180950D02*
D03*
X140200Y172750D02*
D03*
Y178650D02*
D03*
X132100Y178550D02*
D03*
Y172650D02*
D03*
X49300Y105150D02*
D03*
Y111050D02*
D03*
D21*
X190650Y193300D02*
D03*
X184750D02*
D03*
X191150Y212200D02*
D03*
X185250D02*
D03*
X214550Y155400D02*
D03*
X208650D02*
D03*
X214550Y161200D02*
D03*
X208650D02*
D03*
X192450Y67900D02*
D03*
X186550D02*
D03*
D22*
X356800Y128438D02*
D03*
Y134562D02*
D03*
X287600Y203262D02*
D03*
Y197138D02*
D03*
X280700Y203362D02*
D03*
Y197238D02*
D03*
X295800Y164562D02*
D03*
Y158438D02*
D03*
X289600Y164662D02*
D03*
Y158538D02*
D03*
X84400Y61862D02*
D03*
Y55738D02*
D03*
X96100Y70262D02*
D03*
Y64138D02*
D03*
X44500Y91262D02*
D03*
Y85138D02*
D03*
D23*
X314138Y73300D02*
D03*
X320262D02*
D03*
X56862Y94300D02*
D03*
X50738D02*
D03*
X101562Y76100D02*
D03*
X95438D02*
D03*
X72238Y89900D02*
D03*
X78362D02*
D03*
X32238Y91500D02*
D03*
X38362D02*
D03*
D24*
X84300Y95858D02*
D03*
Y90543D02*
D03*
X111900Y81358D02*
D03*
Y76042D02*
D03*
X96600Y88557D02*
D03*
Y83242D02*
D03*
X52400Y81757D02*
D03*
Y76442D02*
D03*
X318100Y92142D02*
D03*
Y97457D02*
D03*
X329800Y206258D02*
D03*
Y200942D02*
D03*
X253400Y13858D02*
D03*
Y8542D02*
D03*
X234000Y32458D02*
D03*
Y27143D02*
D03*
X330800Y151657D02*
D03*
Y146343D02*
D03*
X376300Y179443D02*
D03*
Y184757D02*
D03*
X171100Y200157D02*
D03*
Y194843D02*
D03*
X201000Y121985D02*
D03*
Y127300D02*
D03*
X181800Y122043D02*
D03*
Y127357D02*
D03*
X164700Y122043D02*
D03*
Y127357D02*
D03*
X138700Y111557D02*
D03*
Y106243D02*
D03*
X362993Y134223D02*
D03*
Y128908D02*
D03*
X302500Y163857D02*
D03*
Y158543D02*
D03*
X294200Y202758D02*
D03*
Y197442D02*
D03*
X314400Y175458D02*
D03*
Y170142D02*
D03*
X356100Y184057D02*
D03*
Y178743D02*
D03*
X294700Y51643D02*
D03*
Y56958D02*
D03*
X367800Y106158D02*
D03*
Y100842D02*
D03*
X140300Y135958D02*
D03*
Y130642D02*
D03*
X195500Y127058D02*
D03*
Y121742D02*
D03*
X189800Y127058D02*
D03*
Y121742D02*
D03*
X175800Y127357D02*
D03*
Y122043D02*
D03*
X170250Y127357D02*
D03*
Y122043D02*
D03*
X164100Y200257D02*
D03*
Y194942D02*
D03*
D25*
X86959Y23200D02*
D03*
X81841D02*
D03*
X350041Y139700D02*
D03*
X355159D02*
D03*
X67984Y203700D02*
D03*
X73102D02*
D03*
X254041Y21900D02*
D03*
X259159D02*
D03*
X349841Y119400D02*
D03*
X354959D02*
D03*
X279659Y85900D02*
D03*
X274541D02*
D03*
X186641Y72900D02*
D03*
X191759D02*
D03*
X341341Y157900D02*
D03*
X346459D02*
D03*
X341759Y151400D02*
D03*
X336641D02*
D03*
D26*
X84267Y67923D02*
D03*
Y70482D02*
D03*
Y73041D02*
D03*
Y75600D02*
D03*
Y78159D02*
D03*
Y80718D02*
D03*
Y83277D02*
D03*
X61133D02*
D03*
Y80718D02*
D03*
Y78159D02*
D03*
Y75600D02*
D03*
Y73041D02*
D03*
Y70482D02*
D03*
Y67923D02*
D03*
D27*
X44758Y76500D02*
D03*
X39443D02*
D03*
X56157Y88100D02*
D03*
X50842D02*
D03*
X302043Y187700D02*
D03*
X307358D02*
D03*
X224957Y14000D02*
D03*
X219642D02*
D03*
X224957Y20000D02*
D03*
X219642D02*
D03*
X273257Y22200D02*
D03*
X267943D02*
D03*
X162157Y23800D02*
D03*
X156843D02*
D03*
X162157Y31600D02*
D03*
X156843D02*
D03*
X158942Y53800D02*
D03*
X164258D02*
D03*
X281343Y94900D02*
D03*
X286658D02*
D03*
X94185Y204200D02*
D03*
X99500D02*
D03*
X320158Y65900D02*
D03*
X314843D02*
D03*
D28*
X64500Y104400D02*
D03*
Y122800D02*
D03*
D29*
X75475Y191269D02*
D03*
Y174931D02*
D03*
X67010Y191269D02*
D03*
Y174931D02*
D03*
X92368Y175831D02*
D03*
Y192169D02*
D03*
X100832Y175831D02*
D03*
Y192169D02*
D03*
D30*
X65979Y152540D02*
D03*
Y148800D02*
D03*
Y145060D02*
D03*
X75821D02*
D03*
Y148800D02*
D03*
Y152540D02*
D03*
X295079Y65760D02*
D03*
Y73240D02*
D03*
X304921D02*
D03*
Y69500D02*
D03*
Y65760D02*
D03*
X295379Y94860D02*
D03*
Y102340D02*
D03*
X305221D02*
D03*
Y98600D02*
D03*
Y94860D02*
D03*
D31*
X322240Y182641D02*
D03*
Y185200D02*
D03*
Y187759D02*
D03*
X314760D02*
D03*
Y182641D02*
D03*
D32*
X233741Y13160D02*
D03*
X236300D02*
D03*
X238859D02*
D03*
Y20640D02*
D03*
X236300D02*
D03*
X233741D02*
D03*
D33*
X280253Y78435D02*
D03*
X274347D02*
D03*
D34*
X292293Y246900D02*
D03*
X303907D02*
D03*
X284607Y10900D02*
D03*
X272993D02*
D03*
D35*
X298100Y240896D02*
D03*
X278800Y16904D02*
D03*
D36*
X191000Y224811D02*
D03*
Y251189D02*
D03*
D37*
X47679Y150631D02*
D03*
Y147969D02*
D03*
X51517D02*
D03*
Y150631D02*
D03*
D38*
X186268Y168398D02*
D03*
Y158556D02*
D03*
Y148713D02*
D03*
X176426Y168398D02*
D03*
Y158556D02*
D03*
Y148713D02*
D03*
X166584Y168398D02*
D03*
Y158556D02*
D03*
Y148713D02*
D03*
D39*
X155954Y176371D02*
D03*
Y173221D02*
D03*
Y170072D02*
D03*
Y166922D02*
D03*
Y163772D02*
D03*
Y160623D02*
D03*
Y157473D02*
D03*
Y154324D02*
D03*
Y151174D02*
D03*
Y148024D02*
D03*
Y144875D02*
D03*
Y141725D02*
D03*
X196898Y141233D02*
D03*
Y144383D02*
D03*
Y147532D02*
D03*
Y150682D02*
D03*
Y153832D02*
D03*
Y156981D02*
D03*
Y160131D02*
D03*
Y163280D02*
D03*
Y166430D02*
D03*
Y169580D02*
D03*
Y172729D02*
D03*
Y175879D02*
D03*
D40*
X159103Y180800D02*
D03*
X162253D02*
D03*
X165402D02*
D03*
X168552D02*
D03*
X171702D02*
D03*
X174851D02*
D03*
X178001D02*
D03*
X181150D02*
D03*
X184300D02*
D03*
X187450D02*
D03*
X190599D02*
D03*
X193749D02*
D03*
Y136312D02*
D03*
X190599D02*
D03*
X187450D02*
D03*
X184300D02*
D03*
X181150D02*
D03*
X178001D02*
D03*
X174851D02*
D03*
X171702D02*
D03*
X168552D02*
D03*
X165402D02*
D03*
X162253D02*
D03*
X159103D02*
D03*
D41*
X355221Y91164D02*
D03*
Y86636D02*
D03*
D42*
X345379Y88900D02*
D03*
D43*
X316900Y118124D02*
D03*
Y121076D02*
D03*
X311300Y91376D02*
D03*
Y88424D02*
D03*
X348600Y150976D02*
D03*
Y148024D02*
D03*
X286800Y85524D02*
D03*
Y88476D02*
D03*
D44*
X243800Y32559D02*
D03*
Y27441D02*
D03*
X324200Y151959D02*
D03*
Y146841D02*
D03*
X191100Y204935D02*
D03*
Y199817D02*
D03*
X368700Y134559D02*
D03*
Y129441D02*
D03*
X140300Y200459D02*
D03*
Y195341D02*
D03*
X148200Y200359D02*
D03*
Y195241D02*
D03*
X214274Y140881D02*
D03*
Y135763D02*
D03*
X369600Y179841D02*
D03*
Y184959D02*
D03*
D45*
X329900Y170272D02*
D03*
X334900D02*
D03*
X339900D02*
D03*
X344900D02*
D03*
X329900Y191728D02*
D03*
X334900D02*
D03*
X339900D02*
D03*
X344900D02*
D03*
X356100Y148272D02*
D03*
X361100D02*
D03*
X366100D02*
D03*
X371100D02*
D03*
X356100Y169728D02*
D03*
X361100D02*
D03*
X366100D02*
D03*
X371100D02*
D03*
D46*
X174154Y56259D02*
D03*
Y52322D02*
D03*
Y48385D02*
D03*
Y44448D02*
D03*
Y40511D02*
D03*
Y36574D02*
D03*
Y32637D02*
D03*
Y28700D02*
D03*
Y24763D02*
D03*
Y20826D02*
D03*
Y16889D02*
D03*
Y12952D02*
D03*
X208800D02*
D03*
Y16889D02*
D03*
Y20826D02*
D03*
Y24763D02*
D03*
Y28700D02*
D03*
Y32637D02*
D03*
Y36574D02*
D03*
Y40511D02*
D03*
Y44448D02*
D03*
Y48385D02*
D03*
Y52322D02*
D03*
Y56259D02*
D03*
D47*
X174154Y8424D02*
D03*
X208800D02*
D03*
D48*
X199351Y57834D02*
D03*
X195414D02*
D03*
X191477D02*
D03*
X187540D02*
D03*
X183603D02*
D03*
D49*
X377400Y110821D02*
D03*
X381140Y100979D02*
D03*
X373660D02*
D03*
D50*
X259500Y8212D02*
D03*
Y12188D02*
D03*
D51*
X134747Y118091D02*
D03*
X136716D02*
D03*
X138684D02*
D03*
X140653D02*
D03*
Y124509D02*
D03*
X138684D02*
D03*
X136716D02*
D03*
X134747D02*
D03*
D52*
X140909Y120316D02*
D03*
Y122284D02*
D03*
X134491D02*
D03*
Y120316D02*
D03*
M02*
