G04*
G04 #@! TF.GenerationSoftware,Altium Limited,Altium Designer,19.1.9 (167)*
G04*
G04 Layer_Color=32768*
%FSLAX25Y25*%
%MOIN*%
G70*
G01*
G75*
%ADD12C,0.00394*%
%ADD15C,0.00787*%
%ADD16C,0.00500*%
%ADD128C,0.00197*%
%ADD129C,0.00400*%
D12*
X316328Y94800D02*
X319872D01*
X318100Y93028D02*
Y96572D01*
X328028Y203600D02*
X331572D01*
X329800Y201828D02*
Y205372D01*
X304700Y185928D02*
Y189472D01*
X302928Y187700D02*
X306472D01*
X56391Y143296D02*
Y155304D01*
X41332Y143296D02*
X56391D01*
X41332D02*
Y155304D01*
X56391D01*
X339670Y80042D02*
X362898D01*
Y97758D01*
X339670D02*
X362898D01*
X339670Y80042D02*
Y97758D01*
X314341Y115072D02*
Y123242D01*
X319459D01*
Y115072D02*
Y123242D01*
X314341Y115072D02*
X319459D01*
X313859Y86258D02*
Y94428D01*
X308741Y86258D02*
X313859D01*
X308741D02*
Y94428D01*
X313859D01*
X351159Y145858D02*
Y154028D01*
X346041Y145858D02*
X351159D01*
X346041D02*
Y154028D01*
X351159D01*
X284241Y82472D02*
Y90642D01*
X289359D01*
Y82472D02*
Y90642D01*
X284241Y82472D02*
X289359D01*
X352600Y137830D02*
Y141570D01*
X350730Y139700D02*
X354470D01*
X70543Y201830D02*
Y205570D01*
X68673Y203700D02*
X72413D01*
X256600Y20030D02*
Y23770D01*
X254730Y21900D02*
X258470D01*
X241930Y30000D02*
X245670D01*
X243800Y28130D02*
Y31870D01*
X322330Y149400D02*
X326070D01*
X324200Y147530D02*
Y151270D01*
X352400Y117530D02*
Y121270D01*
X350530Y119400D02*
X354270D01*
X277100Y84030D02*
Y87770D01*
X275230Y85900D02*
X278970D01*
X189200Y71030D02*
Y74770D01*
X187330Y72900D02*
X191070D01*
X343900Y156030D02*
Y159770D01*
X342030Y157900D02*
X345770D01*
X189230Y202376D02*
X192970D01*
X191100Y200506D02*
Y204246D01*
X366830Y132000D02*
X370570D01*
X368700Y130130D02*
Y133870D01*
X138430Y197900D02*
X142170D01*
X140300Y196030D02*
Y199770D01*
X146330Y197800D02*
X150070D01*
X148200Y195930D02*
Y199670D01*
X210830Y138900D02*
X214570D01*
X212700Y137030D02*
Y140770D01*
X367730Y182400D02*
X371470D01*
X369600Y180530D02*
Y184270D01*
X339200Y149530D02*
Y153270D01*
X337330Y151400D02*
X341070D01*
X337400Y179032D02*
Y182968D01*
X335432Y181000D02*
X339369D01*
X363600Y157032D02*
Y160968D01*
X361631Y159000D02*
X365568D01*
X15232Y128400D02*
X19169D01*
X17200Y126432D02*
Y130368D01*
X220528Y14000D02*
X224072D01*
X222300Y12228D02*
Y15772D01*
X220528Y20000D02*
X224072D01*
X222300Y18228D02*
Y21772D01*
X253400Y9428D02*
Y12972D01*
X251628Y11200D02*
X255172D01*
X234000Y28028D02*
Y31572D01*
X232228Y29800D02*
X235772D01*
X268828Y22200D02*
X272372D01*
X270600Y20428D02*
Y23972D01*
X157728Y23800D02*
X161272D01*
X159500Y22028D02*
Y25572D01*
X157728Y31600D02*
X161272D01*
X159500Y29828D02*
Y33372D01*
X159828Y53800D02*
X163372D01*
X161600Y52028D02*
Y55572D01*
X330800Y147228D02*
Y150772D01*
X329028Y149000D02*
X332572D01*
X376300Y180328D02*
Y183872D01*
X374528Y182100D02*
X378072D01*
X171100Y195728D02*
Y199272D01*
X169328Y197500D02*
X172872D01*
X201100Y122628D02*
Y126172D01*
X199328Y124400D02*
X202872D01*
X181800Y122928D02*
Y126472D01*
X180028Y124700D02*
X183572D01*
X164700Y122928D02*
Y126472D01*
X162928Y124700D02*
X166472D01*
X136928Y108900D02*
X140472D01*
X138700Y107128D02*
Y110672D01*
X362993Y129794D02*
Y133337D01*
X361221Y131565D02*
X364764D01*
X302500Y159428D02*
Y162972D01*
X300728Y161200D02*
X304272D01*
X294200Y198328D02*
Y201872D01*
X292428Y200100D02*
X295972D01*
X314400Y171028D02*
Y174572D01*
X312628Y172800D02*
X316172D01*
X356100Y179628D02*
Y183172D01*
X354328Y181400D02*
X357872D01*
X284000Y93128D02*
Y96672D01*
X282228Y94900D02*
X285772D01*
X292928Y54300D02*
X296472D01*
X294700Y52528D02*
Y56072D01*
X11000Y62600D02*
Y102206D01*
X2984D02*
X11000D01*
X2984Y62600D02*
Y102206D01*
Y62600D02*
X11000D01*
X7000Y76600D02*
Y78600D01*
X6000Y77600D02*
X8000D01*
X6000Y168700D02*
X8000D01*
X7000Y167700D02*
Y169700D01*
X2984Y153700D02*
X11000D01*
X2984D02*
Y193306D01*
X11000D01*
Y153700D02*
Y193306D01*
X96842Y202428D02*
Y205972D01*
X95071Y204200D02*
X98614D01*
X366028Y103500D02*
X369572D01*
X367800Y101728D02*
Y105272D01*
X259500Y9117D02*
Y11283D01*
X258417Y10200D02*
X260583D01*
X317500Y64128D02*
Y67672D01*
X315728Y65900D02*
X319272D01*
X129747Y112048D02*
Y129253D01*
X145653D01*
Y112048D02*
Y129253D01*
X129747Y112048D02*
X145653D01*
X140300Y131528D02*
Y135072D01*
X138528Y133300D02*
X142072D01*
X193728Y124400D02*
X197272D01*
X195500Y122628D02*
Y126172D01*
X188028Y124400D02*
X191572D01*
X189800Y122628D02*
Y126172D01*
X174028Y124700D02*
X177572D01*
X175800Y122928D02*
Y126472D01*
X168478Y124700D02*
X172022D01*
X170250Y122928D02*
Y126472D01*
X162328Y197600D02*
X165872D01*
X164100Y195828D02*
Y199372D01*
D15*
X77935Y172470D02*
Y193730D01*
X64550Y172470D02*
X77935D01*
X64550D02*
Y193730D01*
X77935D01*
X89907Y173370D02*
Y194630D01*
X103293D01*
Y173370D02*
Y194630D01*
X89907Y173370D02*
X103293D01*
D16*
X354142Y125988D02*
Y137110D01*
X359359D01*
Y125988D02*
Y137110D01*
X354142Y125988D02*
X359359D01*
X286943Y156088D02*
Y167210D01*
X292159D01*
Y156088D02*
Y167210D01*
X286943Y156088D02*
X292159D01*
X298458Y155890D02*
Y167012D01*
X293241Y155890D02*
X298458D01*
X293241D02*
Y167012D01*
X298458D01*
X290258Y194590D02*
Y205712D01*
X285041Y194590D02*
X290258D01*
X285041D02*
Y205712D01*
X290258D01*
X278043Y194788D02*
Y205910D01*
X283259D01*
Y194788D02*
Y205910D01*
X278043Y194788D02*
X283259D01*
X311590Y70643D02*
X322712D01*
X311590D02*
Y75859D01*
X322712D01*
Y70643D02*
Y75859D01*
X308841Y141212D02*
X314057D01*
X308841Y130090D02*
Y141212D01*
Y130090D02*
X314057D01*
Y141212D01*
X308641Y126512D02*
X313858D01*
X308641Y115390D02*
Y126512D01*
Y115390D02*
X313858D01*
Y126512D01*
D128*
X313966Y88107D02*
Y101493D01*
X322234Y88107D02*
Y101493D01*
X313966Y88107D02*
X322234D01*
X313966Y101493D02*
X322234D01*
X333934Y196907D02*
Y210293D01*
X325666Y196907D02*
Y210293D01*
X333934D01*
X325666Y196907D02*
X333934D01*
X298007Y191834D02*
X311393D01*
X298007Y183566D02*
X311393D01*
X298007D02*
Y191834D01*
X311393Y183566D02*
Y191834D01*
X62632Y155788D02*
X79168D01*
Y141812D02*
Y155788D01*
X62632Y141812D02*
X79168D01*
X62632D02*
Y155788D01*
X308268Y62512D02*
Y76488D01*
X291732D02*
X308268D01*
X291732Y62512D02*
Y76488D01*
Y62512D02*
X308268D01*
X308568Y91612D02*
Y105588D01*
X292032D02*
X308568D01*
X292032Y91612D02*
Y105588D01*
Y91612D02*
X308568D01*
X311709Y179787D02*
X325291D01*
X311709D02*
Y190613D01*
X325291D01*
Y179787D02*
Y190613D01*
X231083Y10109D02*
Y23691D01*
X241516D01*
Y10109D02*
Y23691D01*
X231083Y10109D02*
X241516D01*
X184898Y220677D02*
Y255323D01*
X197102D01*
Y220677D02*
Y255323D01*
X184898Y220677D02*
X197102D01*
X351672Y54624D02*
Y202576D01*
X35728Y54624D02*
X351672D01*
X35728D02*
Y202576D01*
X351672D01*
X348466Y142062D02*
X356734D01*
X348466Y137338D02*
X356734D01*
X348466D02*
Y142062D01*
X356734Y137338D02*
Y142062D01*
X66409Y206062D02*
X74676D01*
X66409Y201338D02*
X74676D01*
X66409D02*
Y206062D01*
X74676Y201338D02*
Y206062D01*
X252466Y24262D02*
X260734D01*
X252466Y19538D02*
X260734D01*
X252466D02*
Y24262D01*
X260734Y19538D02*
Y24262D01*
X246162Y25866D02*
Y34134D01*
X241438Y25866D02*
Y34134D01*
X246162D01*
X241438Y25866D02*
X246162D01*
X326562Y145266D02*
Y153534D01*
X321838Y145266D02*
Y153534D01*
X326562D01*
X321838Y145266D02*
X326562D01*
X348266Y121762D02*
X356534D01*
X348266Y117038D02*
X356534D01*
X348266D02*
Y121762D01*
X356534Y117038D02*
Y121762D01*
X272966Y83538D02*
X281234D01*
X272966Y88262D02*
X281234D01*
Y83538D02*
Y88262D01*
X272966Y83538D02*
Y88262D01*
X185066Y75262D02*
X193334D01*
X185066Y70538D02*
X193334D01*
X185066D02*
Y75262D01*
X193334Y70538D02*
Y75262D01*
X339766Y160262D02*
X348034D01*
X339766Y155538D02*
X348034D01*
X339766D02*
Y160262D01*
X348034Y155538D02*
Y160262D01*
X193462Y198242D02*
Y206510D01*
X188738Y198242D02*
Y206510D01*
X193462D01*
X188738Y198242D02*
X193462D01*
X371062Y127866D02*
Y136134D01*
X366338Y127866D02*
Y136134D01*
X371062D01*
X366338Y127866D02*
X371062D01*
X142662Y193766D02*
Y202034D01*
X137938Y193766D02*
Y202034D01*
X142662D01*
X137938Y193766D02*
X142662D01*
X150562Y193666D02*
Y201934D01*
X145838Y193666D02*
Y201934D01*
X150562D01*
X145838Y193666D02*
X150562D01*
X215062Y134766D02*
Y143034D01*
X210338Y134766D02*
Y143034D01*
X215062D01*
X210338Y134766D02*
X215062D01*
X367238Y178266D02*
Y186534D01*
X371962Y178266D02*
Y186534D01*
X367238Y178266D02*
X371962D01*
X367238Y186534D02*
X371962D01*
X335066Y149038D02*
X343334D01*
X335066Y153762D02*
X343334D01*
Y149038D02*
Y153762D01*
X335066Y149038D02*
Y153762D01*
X326573Y166433D02*
X348227D01*
X326573Y195567D02*
X348227D01*
X326573Y166433D02*
Y195567D01*
X348227Y166433D02*
Y195567D01*
X352773Y144433D02*
X374427D01*
X352773Y173567D02*
X374427D01*
X352773Y144433D02*
Y173567D01*
X374427Y144433D02*
Y173567D01*
X231Y112180D02*
X26924D01*
Y144621D01*
X231D02*
X26924D01*
X231Y112180D02*
Y144621D01*
X228993Y9866D02*
Y18134D01*
X215607Y9866D02*
Y18134D01*
Y9866D02*
X228993D01*
X215607Y18134D02*
X228993D01*
Y15866D02*
Y24134D01*
X215607Y15866D02*
Y24134D01*
Y15866D02*
X228993D01*
X215607Y24134D02*
X228993D01*
X249266Y17893D02*
X257534D01*
X249266Y4507D02*
X257534D01*
Y17893D01*
X249266Y4507D02*
Y17893D01*
X229866Y36493D02*
X238134D01*
X229866Y23107D02*
X238134D01*
Y36493D01*
X229866Y23107D02*
Y36493D01*
X277293Y18066D02*
Y26334D01*
X263907Y18066D02*
Y26334D01*
Y18066D02*
X277293D01*
X263907Y26334D02*
X277293D01*
X166193Y19666D02*
Y27934D01*
X152807Y19666D02*
Y27934D01*
Y19666D02*
X166193D01*
X152807Y27934D02*
X166193D01*
Y27466D02*
Y35734D01*
X152807Y27466D02*
Y35734D01*
Y27466D02*
X166193D01*
X152807Y35734D02*
X166193D01*
X154907Y49666D02*
Y57934D01*
X168293Y49666D02*
Y57934D01*
X154907D02*
X168293D01*
X154907Y49666D02*
X168293D01*
X326666Y155693D02*
X334934D01*
X326666Y142307D02*
X334934D01*
Y155693D01*
X326666Y142307D02*
Y155693D01*
X372166Y175407D02*
X380434D01*
X372166Y188793D02*
X380434D01*
X372166Y175407D02*
Y188793D01*
X380434Y175407D02*
Y188793D01*
X166966Y204193D02*
X175234D01*
X166966Y190807D02*
X175234D01*
Y204193D01*
X166966Y190807D02*
Y204193D01*
X196966Y117707D02*
X205234D01*
X196966Y131093D02*
X205234D01*
X196966Y117707D02*
Y131093D01*
X205234Y117707D02*
Y131093D01*
X177666Y118007D02*
X185934D01*
X177666Y131393D02*
X185934D01*
X177666Y118007D02*
Y131393D01*
X185934Y118007D02*
Y131393D01*
X160566Y118007D02*
X168834D01*
X160566Y131393D02*
X168834D01*
X160566Y118007D02*
Y131393D01*
X168834Y118007D02*
Y131393D01*
X142834Y102207D02*
Y115593D01*
X134566Y102207D02*
Y115593D01*
X142834D01*
X134566Y102207D02*
X142834D01*
X358859Y138258D02*
X367127D01*
X358859Y124873D02*
X367127D01*
Y138258D01*
X358859Y124873D02*
Y138258D01*
X298366Y167893D02*
X306634D01*
X298366Y154507D02*
X306634D01*
Y167893D01*
X298366Y154507D02*
Y167893D01*
X290066Y206793D02*
X298334D01*
X290066Y193407D02*
X298334D01*
Y206793D01*
X290066Y193407D02*
Y206793D01*
X310266Y179493D02*
X318534D01*
X310266Y166107D02*
X318534D01*
Y179493D01*
X310266Y166107D02*
Y179493D01*
X351966Y188093D02*
X360234D01*
X351966Y174707D02*
X360234D01*
Y188093D01*
X351966Y174707D02*
Y188093D01*
X277307Y99034D02*
X290693D01*
X277307Y90766D02*
X290693D01*
X277307D02*
Y99034D01*
X290693Y90766D02*
Y99034D01*
X290566Y47607D02*
Y60993D01*
X298834Y47607D02*
Y60993D01*
X290566Y47607D02*
X298834D01*
X290566Y60993D02*
X298834D01*
X90150Y208334D02*
X103535D01*
X90150Y200066D02*
X103535D01*
X90150D02*
Y208334D01*
X103535Y200066D02*
Y208334D01*
X371934Y96807D02*
Y110193D01*
X363666Y96807D02*
Y110193D01*
X371934D01*
X363666Y96807D02*
X371934D01*
X370707Y97731D02*
X384093D01*
Y114069D01*
X370707D02*
X384093D01*
X370707Y97731D02*
Y114069D01*
X257138Y6066D02*
X261862D01*
X257138Y14334D02*
X261862D01*
X257138Y6066D02*
Y14334D01*
X261862Y6066D02*
Y14334D01*
X310807Y61766D02*
X324193D01*
X310807Y70034D02*
X324193D01*
Y61766D02*
Y70034D01*
X310807Y61766D02*
Y70034D01*
X136166Y139993D02*
X144434D01*
X136166Y126607D02*
X144434D01*
Y139993D01*
X136166Y126607D02*
Y139993D01*
X199634Y117707D02*
Y131093D01*
X191366Y117707D02*
Y131093D01*
X199634D01*
X191366Y117707D02*
X199634D01*
X193934D02*
Y131093D01*
X185666Y117707D02*
Y131093D01*
X193934D01*
X185666Y117707D02*
X193934D01*
X179934Y118007D02*
Y131393D01*
X171666Y118007D02*
Y131393D01*
X179934D01*
X171666Y118007D02*
X179934D01*
X174384D02*
Y131393D01*
X166116Y118007D02*
Y131393D01*
X174384D01*
X166116Y118007D02*
X174384D01*
X168234Y190907D02*
Y204293D01*
X159966Y190907D02*
Y204293D01*
X168234D01*
X159966Y190907D02*
X168234D01*
D129*
X203500Y145200D02*
Y151200D01*
Y145200D02*
X215500D01*
X203500Y151200D02*
X215500D01*
Y145200D02*
Y151200D01*
X195600Y76200D02*
Y82200D01*
X183600D02*
X195600D01*
X183600Y76200D02*
X195600D01*
X183600D02*
Y82200D01*
M02*
