G04*
G04 #@! TF.GenerationSoftware,Altium Limited,Altium Designer,21.6.4 (81)*
G04*
G04 Layer_Color=128*
%FSLAX25Y25*%
%MOIN*%
G70*
G04*
G04 #@! TF.SameCoordinates,D92126B2-5F21-4161-9152-1B55B43E0DBD*
G04*
G04*
G04 #@! TF.FilePolarity,Positive*
G04*
G01*
G75*
%ADD139C,0.00200*%
D139*
X86800Y29200D02*
X88800D01*
X87800Y28200D02*
Y30200D01*
X80200Y29200D02*
X82200D01*
X81200Y28200D02*
Y30200D01*
X275168Y128600D02*
X291168D01*
X283169Y120600D02*
Y136600D01*
X47204Y128600D02*
X52204D01*
X49704Y126100D02*
Y131100D01*
X335196Y128600D02*
X340196D01*
X337696Y126100D02*
Y131100D01*
X96232Y128600D02*
X112232D01*
X104232Y120600D02*
Y136600D01*
X375300Y129800D02*
X380300D01*
X377800Y127300D02*
Y132300D01*
X10350Y139128D02*
X13105D01*
X11728Y137750D02*
Y140506D01*
X22377Y137947D02*
X24936D01*
X23657Y136668D02*
Y139227D01*
X22377Y118853D02*
X24936D01*
X23657Y117573D02*
Y120132D01*
X10350Y117672D02*
X13105D01*
X11728Y116294D02*
Y119050D01*
X5032Y97600D02*
X8969D01*
X7000Y95631D02*
Y99568D01*
X5032Y67600D02*
X8969D01*
X7000Y65632D02*
Y69569D01*
X5032Y77600D02*
X8969D01*
X7000Y75631D02*
Y79568D01*
X5032Y87600D02*
X8969D01*
X7000Y85632D02*
Y89569D01*
X5032Y178700D02*
X8969D01*
X7000Y176732D02*
Y180668D01*
X5032Y168700D02*
X8969D01*
X7000Y166732D02*
Y170668D01*
X5032Y158700D02*
X8969D01*
X7000Y156731D02*
Y160669D01*
X5032Y188700D02*
X8969D01*
X7000Y186732D02*
Y190668D01*
X59900Y241900D02*
X71900D01*
X65900Y235900D02*
Y247900D01*
X312600Y16000D02*
X324600D01*
X318600Y10000D02*
Y22000D01*
X59900Y16000D02*
X71900D01*
X65900Y10000D02*
Y22000D01*
X312600Y241900D02*
X324600D01*
X318600Y235900D02*
Y247900D01*
X66794Y78792D02*
X67993D01*
X67393Y78192D02*
Y79392D01*
X100650Y64250D02*
X101850D01*
X101250Y63650D02*
Y64850D01*
X211300Y111700D02*
X212500D01*
X211900Y111100D02*
Y112300D01*
X205900Y106900D02*
X207100D01*
X206500Y106300D02*
Y107500D01*
X128700Y60600D02*
X129900D01*
X129300Y60000D02*
Y61200D01*
X108900Y60700D02*
X110100D01*
X109500Y60100D02*
Y61300D01*
X369400Y200000D02*
X370600D01*
X370000Y199400D02*
Y200600D01*
X369400Y80000D02*
X370600D01*
X370000Y79400D02*
Y80600D01*
X359400Y60000D02*
X360600D01*
X360000Y59400D02*
Y60600D01*
X349400Y200000D02*
X350600D01*
X350000Y199400D02*
Y200600D01*
X339400Y140000D02*
X340600D01*
X340000Y139400D02*
Y140600D01*
X339400Y100000D02*
X340600D01*
X340000Y99400D02*
Y100600D01*
X349400Y80000D02*
X350600D01*
X350000Y79400D02*
Y80600D01*
X339400Y60000D02*
X340600D01*
X340000Y59400D02*
Y60600D01*
X329400Y240000D02*
X330600D01*
X330000Y239400D02*
Y240600D01*
X319400Y220000D02*
X320600D01*
X320000Y219400D02*
Y220600D01*
X319400Y180000D02*
X320600D01*
X320000Y179400D02*
Y180600D01*
X319400Y140000D02*
X320600D01*
X320000Y139400D02*
Y140600D01*
X329400Y120000D02*
X330600D01*
X330000Y119400D02*
Y120600D01*
X329400Y80000D02*
X330600D01*
X330000Y79400D02*
Y80600D01*
X319400Y60000D02*
X320600D01*
X320000Y59400D02*
Y60600D01*
X329400Y40000D02*
X330600D01*
X330000Y39400D02*
Y40600D01*
X309400Y240000D02*
X310600D01*
X310000Y239400D02*
Y240600D01*
X309400Y200000D02*
X310600D01*
X310000Y199400D02*
Y200600D01*
X299400Y180000D02*
X300600D01*
X300000Y179400D02*
Y180600D01*
X299400Y140000D02*
X300600D01*
X300000Y139400D02*
Y140600D01*
X309400Y120000D02*
X310600D01*
X310000Y119400D02*
Y120600D01*
X309400Y80000D02*
X310600D01*
X310000Y79400D02*
Y80600D01*
X299400Y60000D02*
X300600D01*
X300000Y59400D02*
Y60600D01*
X309400Y40000D02*
X310600D01*
X310000Y39400D02*
Y40600D01*
X299400Y20000D02*
X300600D01*
X300000Y19400D02*
Y20600D01*
X289400Y240000D02*
X290600D01*
X290000Y239400D02*
Y240600D01*
X279400Y180000D02*
X280600D01*
X280000Y179400D02*
Y180600D01*
X279400Y60000D02*
X280600D01*
X280000Y59400D02*
Y60600D01*
X289400Y40000D02*
X290600D01*
X290000Y39400D02*
Y40600D01*
X269400Y200000D02*
X270600D01*
X270000Y199400D02*
Y200600D01*
X259400Y180000D02*
X260600D01*
X260000Y179400D02*
Y180600D01*
X269400Y160000D02*
X270600D01*
X270000Y159400D02*
Y160600D01*
X259400Y140000D02*
X260600D01*
X260000Y139400D02*
Y140600D01*
X269400Y120000D02*
X270600D01*
X270000Y119400D02*
Y120600D01*
X259400Y100000D02*
X260600D01*
X260000Y99400D02*
Y100600D01*
X259400Y60000D02*
X260600D01*
X260000Y59400D02*
Y60600D01*
X239400Y180000D02*
X240600D01*
X240000Y179400D02*
Y180600D01*
X249400Y160000D02*
X250600D01*
X250000Y159400D02*
Y160600D01*
X249400Y120000D02*
X250600D01*
X250000Y119400D02*
Y120600D01*
X249400Y80000D02*
X250600D01*
X250000Y79400D02*
Y80600D01*
X239400Y60000D02*
X240600D01*
X240000Y59400D02*
Y60600D01*
X249400Y40000D02*
X250600D01*
X250000Y39400D02*
Y40600D01*
X219400Y180000D02*
X220600D01*
X220000Y179400D02*
Y180600D01*
X229400Y120000D02*
X230600D01*
X230000Y119400D02*
Y120600D01*
X229400Y80000D02*
X230600D01*
X230000Y79400D02*
Y80600D01*
X229400Y40000D02*
X230600D01*
X230000Y39400D02*
Y40600D01*
X199400Y180000D02*
X200600D01*
X200000Y179400D02*
Y180600D01*
X209400Y80000D02*
X210600D01*
X210000Y79400D02*
Y80600D01*
X199400Y20000D02*
X200600D01*
X200000Y19400D02*
Y20600D01*
X179400Y140000D02*
X180600D01*
X180000Y139400D02*
Y140600D01*
X189400Y40000D02*
X190600D01*
X190000Y39400D02*
Y40600D01*
X179400Y20000D02*
X180600D01*
X180000Y19400D02*
Y20600D01*
X159400Y140000D02*
X160600D01*
X160000Y139400D02*
Y140600D01*
X159400Y100000D02*
X160600D01*
X160000Y99400D02*
Y100600D01*
X169400Y80000D02*
X170600D01*
X170000Y79400D02*
Y80600D01*
X139400Y140000D02*
X140600D01*
X140000Y139400D02*
Y140600D01*
X149400Y120000D02*
X150600D01*
X150000Y119400D02*
Y120600D01*
X139400Y100000D02*
X140600D01*
X140000Y99400D02*
Y100600D01*
X139400Y20000D02*
X140600D01*
X140000Y19400D02*
Y20600D01*
X129400Y200000D02*
X130600D01*
X130000Y199400D02*
Y200600D01*
X119400Y100000D02*
X120600D01*
X120000Y99400D02*
Y100600D01*
X129400Y80000D02*
X130600D01*
X130000Y79400D02*
Y80600D01*
X129400Y40000D02*
X130600D01*
X130000Y39400D02*
Y40600D01*
X119400Y20000D02*
X120600D01*
X120000Y19400D02*
Y20600D01*
X109400Y200000D02*
X110600D01*
X110000Y199400D02*
Y200600D01*
X109400Y40000D02*
X110600D01*
X110000Y39400D02*
Y40600D01*
X99400Y20000D02*
X100600D01*
X100000Y19400D02*
Y20600D01*
X79400Y220000D02*
X80600D01*
X80000Y219400D02*
Y220600D01*
X89400Y200000D02*
X90600D01*
X90000Y199400D02*
Y200600D01*
X89400Y160000D02*
X90600D01*
X90000Y159400D02*
Y160600D01*
X79400Y140000D02*
X80600D01*
X80000Y139400D02*
Y140600D01*
X89400Y120000D02*
X90600D01*
X90000Y119400D02*
Y120600D01*
X89400Y40000D02*
X90600D01*
X90000Y39400D02*
Y40600D01*
X79400Y20000D02*
X80600D01*
X80000Y19400D02*
Y20600D01*
X59400Y220000D02*
X60600D01*
X60000Y219400D02*
Y220600D01*
X69400Y200000D02*
X70600D01*
X70000Y199400D02*
Y200600D01*
X69400Y160000D02*
X70600D01*
X70000Y159400D02*
Y160600D01*
X59400Y140000D02*
X60600D01*
X60000Y139400D02*
Y140600D01*
X59400Y60000D02*
X60600D01*
X60000Y59400D02*
Y60600D01*
X69400Y40000D02*
X70600D01*
X70000Y39400D02*
Y40600D01*
X49400Y200000D02*
X50600D01*
X50000Y199400D02*
Y200600D01*
X49400Y160000D02*
X50600D01*
X50000Y159400D02*
Y160600D01*
X39400Y100000D02*
X40600D01*
X40000Y99400D02*
Y100600D01*
X39400Y60000D02*
X40600D01*
X40000Y59400D02*
Y60600D01*
X49400Y40000D02*
X50600D01*
X50000Y39400D02*
Y40600D01*
X29400Y200000D02*
X30600D01*
X30000Y199400D02*
Y200600D01*
X29400Y160000D02*
X30600D01*
X30000Y159400D02*
Y160600D01*
X19400Y100000D02*
X20600D01*
X20000Y99400D02*
Y100600D01*
X29400Y80000D02*
X30600D01*
X30000Y79400D02*
Y80600D01*
X19400Y60000D02*
X20600D01*
X20000Y59400D02*
Y60600D01*
X223469Y155656D02*
X224669D01*
X224069Y155056D02*
Y156256D01*
X149600Y157336D02*
X150800D01*
X150200Y156736D02*
Y157936D01*
X135400Y157164D02*
X136600D01*
X136000Y156564D02*
Y157764D01*
X106000Y80600D02*
X107200D01*
X106600Y80000D02*
Y81200D01*
X90400Y72900D02*
X91600D01*
X91000Y72300D02*
Y73500D01*
X90400Y75700D02*
X91600D01*
X91000Y75100D02*
Y76300D01*
X92000Y55600D02*
X93200D01*
X92600Y55000D02*
Y56200D01*
X106000Y76100D02*
X107200D01*
X106600Y75500D02*
Y76700D01*
X33000Y128200D02*
X34200D01*
X33600Y127600D02*
Y128800D01*
X33000Y125600D02*
X34200D01*
X33600Y125000D02*
Y126200D01*
X124292Y115503D02*
X125492D01*
X124892Y114903D02*
Y116103D01*
X212981Y131319D02*
X214181D01*
X213581Y130719D02*
Y131919D01*
X299400Y99200D02*
X300600D01*
X300000Y98600D02*
Y99800D01*
X200500Y131300D02*
X201700D01*
X201100Y130700D02*
Y131900D01*
X185300Y115100D02*
X186500D01*
X185900Y114500D02*
Y115700D01*
X119000Y74100D02*
X120200D01*
X119600Y73500D02*
Y74700D01*
X121324Y122400D02*
X122524D01*
X121924Y121800D02*
Y123000D01*
X131384Y118084D02*
X132584D01*
X131984Y117484D02*
Y118684D01*
X61500Y88700D02*
X62700D01*
X62100Y88100D02*
Y89300D01*
X212427Y100778D02*
X213627D01*
X213027Y100178D02*
Y101378D01*
X218800Y100900D02*
X220000D01*
X219400Y100300D02*
Y101500D01*
X316814Y45500D02*
X318014D01*
X317414Y44900D02*
Y46100D01*
X53768Y105000D02*
X54968D01*
X54368Y104400D02*
Y105600D01*
X179300Y159800D02*
X180500D01*
X179900Y159200D02*
Y160400D01*
X178800Y174700D02*
X180000D01*
X179400Y174100D02*
Y175300D01*
X159200Y174700D02*
X160400D01*
X159800Y174100D02*
Y175300D01*
X186709Y217219D02*
X187909D01*
X187309Y216619D02*
Y217819D01*
X186143Y206955D02*
X187343D01*
X186743Y206355D02*
Y207555D01*
X194882Y206893D02*
X196082D01*
X195482Y206293D02*
Y207493D01*
X195121Y209482D02*
X196321D01*
X195721Y208882D02*
Y210082D01*
X195274Y212077D02*
X196474D01*
X195874Y211477D02*
Y212678D01*
X195192Y214676D02*
X196392D01*
X195792Y214076D02*
Y215276D01*
X194091Y217032D02*
X195291D01*
X194691Y216432D02*
Y217632D01*
X296965Y245787D02*
X298165D01*
X297565Y245187D02*
Y246387D01*
X292707Y240872D02*
X293907D01*
X293307Y240272D02*
Y241472D01*
X292781Y238273D02*
X293981D01*
X293381Y237673D02*
Y238873D01*
X293809Y235885D02*
X295009D01*
X294409Y235285D02*
Y236485D01*
X293809Y233285D02*
X295009D01*
X294409Y232685D02*
Y233885D01*
X293809Y230685D02*
X295009D01*
X294409Y230085D02*
Y231285D01*
X293809Y228085D02*
X295009D01*
X294409Y227485D02*
Y228685D01*
X292996Y225615D02*
X294196D01*
X293596Y225015D02*
Y226215D01*
X291157Y223777D02*
X292357D01*
X291757Y223177D02*
Y224377D01*
X289319Y221938D02*
X290519D01*
X289919Y221338D02*
Y222538D01*
X287480Y220100D02*
X288680D01*
X288080Y219500D02*
Y220700D01*
X283273Y217191D02*
X284472D01*
X283873Y216591D02*
Y217791D01*
X280673Y217191D02*
X281873D01*
X281273Y216591D02*
Y217791D01*
X278073Y217191D02*
X279273D01*
X278673Y216591D02*
Y217791D01*
X275472Y217191D02*
X276673D01*
X276073Y216591D02*
Y217791D01*
X272872Y217191D02*
X274073D01*
X273472Y216591D02*
Y217791D01*
X270272Y217191D02*
X271473D01*
X270872Y216591D02*
Y217791D01*
X267672Y217191D02*
X268872D01*
X268272Y216591D02*
Y217791D01*
X265072Y217191D02*
X266272D01*
X265672Y216591D02*
Y217791D01*
X262473Y217148D02*
X263673D01*
X263073Y216548D02*
Y217748D01*
X260136Y216009D02*
X261335D01*
X260736Y215409D02*
Y216610D01*
X258297Y214171D02*
X259497D01*
X258897Y213571D02*
Y214771D01*
X256459Y212333D02*
X257659D01*
X257059Y211733D02*
Y212933D01*
X254620Y210494D02*
X255820D01*
X255220Y209894D02*
Y211094D01*
X252782Y208656D02*
X253982D01*
X253382Y208056D02*
Y209256D01*
X250943Y206817D02*
X252143D01*
X251543Y206217D02*
Y207417D01*
X249105Y204979D02*
X250305D01*
X249705Y204379D02*
Y205579D01*
X246961Y203508D02*
X248161D01*
X247561Y202908D02*
Y204108D01*
X244361Y203508D02*
X245561D01*
X244961Y202908D02*
Y204108D01*
X241761Y203508D02*
X242961D01*
X242361Y202908D02*
Y204108D01*
X239161Y203508D02*
X240361D01*
X239761Y202908D02*
Y204108D01*
X236561Y203508D02*
X237761D01*
X237161Y202908D02*
Y204108D01*
X233961Y203508D02*
X235161D01*
X234561Y202908D02*
Y204108D01*
X231361Y203508D02*
X232561D01*
X231961Y202908D02*
Y204108D01*
X228761Y203508D02*
X229961D01*
X229361Y202908D02*
Y204108D01*
X226161Y203508D02*
X227361D01*
X226761Y202908D02*
Y204108D01*
X223561Y203508D02*
X224761D01*
X224161Y202908D02*
Y204108D01*
X220961Y203508D02*
X222161D01*
X221561Y202908D02*
Y204108D01*
X218361Y203508D02*
X219561D01*
X218961Y202908D02*
Y204108D01*
X215761Y203508D02*
X216961D01*
X216361Y202908D02*
Y204108D01*
X213161Y203508D02*
X214361D01*
X213761Y202908D02*
Y204108D01*
X210561Y203508D02*
X211761D01*
X211161Y202908D02*
Y204108D01*
X207961Y203508D02*
X209161D01*
X208561Y202908D02*
Y204108D01*
X205361Y203508D02*
X206561D01*
X205961Y202908D02*
Y204108D01*
X202761Y203508D02*
X203961D01*
X203361Y202908D02*
Y204108D01*
X200161Y203508D02*
X201361D01*
X200761Y202908D02*
Y204108D01*
X197561Y203508D02*
X198761D01*
X198161Y202908D02*
Y204108D01*
X194961Y203508D02*
X196161D01*
X195561Y202908D02*
Y204108D01*
X187229Y203302D02*
X188429D01*
X187829Y202702D02*
Y203902D01*
X186004Y201009D02*
X187204D01*
X186604Y200409D02*
Y201609D01*
X186032Y198409D02*
X187232D01*
X186633Y197809D02*
Y199009D01*
X186324Y185642D02*
X187524D01*
X186924Y185042D02*
Y186242D01*
X193706Y185928D02*
X194906D01*
X194306Y185328D02*
Y186528D01*
X194705Y190928D02*
X195905D01*
X195305Y190328D02*
Y191528D01*
X194774Y193527D02*
X195974D01*
X195374Y192927D02*
Y194127D01*
X194721Y196126D02*
X195921D01*
X195321Y195526D02*
Y196726D01*
X197321Y196126D02*
X198521D01*
X197921Y195526D02*
Y196726D01*
X199921Y196126D02*
X201121D01*
X200521Y195526D02*
Y196726D01*
X202521Y196126D02*
X203721D01*
X203121Y195526D02*
Y196726D01*
X205121Y196126D02*
X206321D01*
X205721Y195526D02*
Y196726D01*
X207721Y196126D02*
X208921D01*
X208321Y195526D02*
Y196726D01*
X210321Y196126D02*
X211521D01*
X210921Y195526D02*
Y196726D01*
X212921Y196126D02*
X214121D01*
X213521Y195526D02*
Y196726D01*
X215521Y196126D02*
X216721D01*
X216121Y195526D02*
Y196726D01*
X218121Y196126D02*
X219321D01*
X218721Y195526D02*
Y196726D01*
X220721Y196126D02*
X221921D01*
X221321Y195526D02*
Y196726D01*
X223321Y196126D02*
X224521D01*
X223921Y195526D02*
Y196726D01*
X225921Y196126D02*
X227121D01*
X226521Y195526D02*
Y196726D01*
X228521Y196126D02*
X229721D01*
X229121Y195526D02*
Y196726D01*
X231121Y196126D02*
X232321D01*
X231721Y195526D02*
Y196726D01*
X233721Y196126D02*
X234921D01*
X234321Y195526D02*
Y196726D01*
X236321Y196126D02*
X237521D01*
X236921Y195526D02*
Y196726D01*
X238921Y196126D02*
X240121D01*
X239521Y195526D02*
Y196726D01*
X241521Y196126D02*
X242721D01*
X242121Y195526D02*
Y196726D01*
X244121Y196126D02*
X245321D01*
X244721Y195526D02*
Y196726D01*
X246721Y196126D02*
X247921D01*
X247321Y195526D02*
Y196726D01*
X249321Y196134D02*
X250521D01*
X249921Y195534D02*
Y196734D01*
X251710Y197159D02*
X252910D01*
X252310Y196559D02*
Y197759D01*
X253556Y198991D02*
X254756D01*
X254156Y198391D02*
Y199591D01*
X255394Y200829D02*
X256594D01*
X255994Y200229D02*
Y201429D01*
X257233Y202668D02*
X258433D01*
X257833Y202068D02*
Y203268D01*
X259071Y204506D02*
X260271D01*
X259671Y203906D02*
Y205106D01*
X260910Y206345D02*
X262110D01*
X261510Y205745D02*
Y206944D01*
X262748Y208183D02*
X263948D01*
X263348Y207583D02*
Y208783D01*
X264777Y209809D02*
X265977D01*
X265377Y209209D02*
Y210409D01*
X267377Y209809D02*
X268577D01*
X267977Y209209D02*
Y210409D01*
X269977Y209809D02*
X271177D01*
X270577Y209209D02*
Y210409D01*
X272577Y209809D02*
X273777D01*
X273177Y209209D02*
Y210409D01*
X275177Y209809D02*
X276377D01*
X275777Y209209D02*
Y210409D01*
X277777Y209809D02*
X278977D01*
X278377Y209209D02*
Y210409D01*
X280377Y209809D02*
X281577D01*
X280977Y209209D02*
Y210409D01*
X282977Y209809D02*
X284177D01*
X283577Y209209D02*
Y210409D01*
X285577Y209809D02*
X286777D01*
X286177Y209209D02*
Y210409D01*
X288104Y210420D02*
X289304D01*
X288704Y209820D02*
Y211020D01*
X290009Y212190D02*
X291209D01*
X290609Y211590D02*
Y212790D01*
X291848Y214028D02*
X293048D01*
X292448Y213428D02*
Y214628D01*
X293686Y215866D02*
X294886D01*
X294286Y215266D02*
Y216466D01*
X295525Y217705D02*
X296725D01*
X296125Y217105D02*
Y218305D01*
X297363Y219543D02*
X298563D01*
X297963Y218943D02*
Y220143D01*
X299201Y221382D02*
X300401D01*
X299801Y220782D02*
Y221982D01*
X300857Y223387D02*
X302057D01*
X301457Y222787D02*
Y223987D01*
X301191Y225965D02*
X302391D01*
X301791Y225365D02*
Y226566D01*
X301191Y228566D02*
X302391D01*
X301791Y227965D02*
Y229166D01*
X301191Y231166D02*
X302391D01*
X301791Y230566D02*
Y231766D01*
X301191Y233766D02*
X302391D01*
X301791Y233166D02*
Y234366D01*
X301191Y236366D02*
X302391D01*
X301791Y235766D02*
Y236965D01*
X302279Y238727D02*
X303479D01*
X302879Y238127D02*
Y239327D01*
X304400Y194100D02*
X305600D01*
X305000Y193500D02*
Y194700D01*
X346498Y142004D02*
X347698D01*
X347098Y141404D02*
Y142604D01*
X350100Y168500D02*
X351300D01*
X350700Y167900D02*
Y169100D01*
X350200Y175700D02*
X351400D01*
X350800Y175100D02*
Y176300D01*
X334400Y200400D02*
X335600D01*
X335000Y199800D02*
Y201000D01*
X328300Y180400D02*
X329500D01*
X328900Y179800D02*
Y181000D01*
X205300Y175400D02*
X206500D01*
X205900Y174800D02*
Y176000D01*
X205538Y170248D02*
X206738D01*
X206138Y169648D02*
Y170848D01*
X70300Y150200D02*
X71500D01*
X70900Y149600D02*
Y150800D01*
X70300Y147600D02*
X71500D01*
X70900Y147000D02*
Y148200D01*
X269700Y77400D02*
X270900D01*
X270300Y76800D02*
Y78000D01*
X237900Y25400D02*
X239100D01*
X238500Y24800D02*
Y26000D01*
X224200Y24200D02*
X225400D01*
X224800Y23600D02*
Y24800D01*
X362200Y124100D02*
X363400D01*
X362800Y123500D02*
Y124700D01*
X356100Y124200D02*
X357300D01*
X356700Y123600D02*
Y124800D01*
X361700Y100700D02*
X362900D01*
X362300Y100100D02*
Y101300D01*
X378300Y94400D02*
X379500D01*
X378900Y93800D02*
Y95000D01*
X191800Y159600D02*
X193000D01*
X192400Y159000D02*
Y160200D01*
X147000Y170000D02*
X148200D01*
X147600Y169400D02*
Y170600D01*
X176900Y73100D02*
X178100D01*
X177500Y72500D02*
Y73700D01*
X329900Y142300D02*
X331100D01*
X330500Y141700D02*
Y142900D01*
X359200Y139500D02*
X360400D01*
X359800Y138900D02*
Y140100D01*
X323500Y142300D02*
X324700D01*
X324100Y141700D02*
Y142900D01*
X138800Y150700D02*
X140000D01*
X139400Y150100D02*
Y151300D01*
X144100Y111100D02*
X145300D01*
X144700Y110500D02*
Y111700D01*
X313700Y162069D02*
X314900D01*
X314300Y161469D02*
Y162669D01*
X301800Y151900D02*
X303000D01*
X302400Y151300D02*
Y152500D01*
X149600Y173200D02*
X150800D01*
X150200Y172600D02*
Y173800D01*
X149600Y176700D02*
X150800D01*
X150200Y176100D02*
Y177300D01*
X361600Y192300D02*
X362800D01*
X362200Y191700D02*
Y192900D01*
X375500Y192300D02*
X376700D01*
X376100Y191700D02*
Y192900D01*
X368400Y192300D02*
X369600D01*
X369000Y191700D02*
Y192900D01*
X301100Y202800D02*
X302300D01*
X301700Y202200D02*
Y203400D01*
X293500Y191500D02*
X294700D01*
X294100Y190900D02*
Y192100D01*
X280000Y190900D02*
X281200D01*
X280600Y190300D02*
Y191500D01*
X289000Y152000D02*
X290200D01*
X289600Y151400D02*
Y152600D01*
X323600Y206200D02*
X324800D01*
X324200Y205600D02*
Y206800D01*
X138033Y126505D02*
X139233D01*
X138633Y125905D02*
Y127105D01*
X143318Y27312D02*
X144518D01*
X143918Y26713D02*
Y27913D01*
X285600Y100700D02*
X287200D01*
X286400Y99900D02*
Y101500D01*
X293400Y169100D02*
X294600D01*
X294000Y168500D02*
Y169700D01*
X307800Y170100D02*
X309000D01*
X308400Y169500D02*
Y170700D01*
X307800Y175400D02*
X309000D01*
X308400Y174800D02*
Y176000D01*
X321600Y191900D02*
X322800D01*
X322200Y191300D02*
Y192500D01*
X134700Y195200D02*
X135900D01*
X135300Y194600D02*
Y195800D01*
X159300Y188600D02*
X160500D01*
X159900Y188000D02*
Y189200D01*
X147600Y206300D02*
X148800D01*
X148200Y205700D02*
Y206900D01*
X139600Y206300D02*
X140800D01*
X140200Y205700D02*
Y206900D01*
X187400Y47200D02*
X188600D01*
X188000Y46600D02*
Y47800D01*
X370700Y155400D02*
X371900D01*
X371300Y154800D02*
Y156000D01*
X304100Y79100D02*
X305300D01*
X304700Y78500D02*
Y79700D01*
X155500Y206300D02*
X156700D01*
X156100Y205700D02*
Y206900D01*
X167300Y188600D02*
X168500D01*
X167900Y188000D02*
Y189200D01*
X163200Y188600D02*
X164400D01*
X163800Y188000D02*
Y189200D01*
X326900Y162400D02*
X328100D01*
X327500Y161800D02*
Y163000D01*
X66300Y169400D02*
X67500D01*
X66900Y168800D02*
Y170000D01*
X149600Y160500D02*
X150800D01*
X150200Y159900D02*
Y161100D01*
X106300Y203900D02*
X107500D01*
X106900Y203300D02*
Y204500D01*
X149600Y163600D02*
X150800D01*
X150200Y163000D02*
Y164200D01*
X149600Y167000D02*
X150800D01*
X150200Y166400D02*
Y167600D01*
X144900Y167000D02*
X146100D01*
X145500Y166400D02*
Y167600D01*
X142900Y130800D02*
X144100D01*
X143500Y130200D02*
Y131400D01*
X314300Y61300D02*
X315500D01*
X314900Y60700D02*
Y61900D01*
X360400Y179200D02*
X361600D01*
X361000Y178600D02*
Y179800D01*
X323500Y200900D02*
X324700D01*
X324100Y200300D02*
Y201500D01*
X79900Y199600D02*
X81100D01*
X80500Y199000D02*
Y200200D01*
X159700Y127100D02*
X160900D01*
X160300Y126500D02*
Y127700D01*
X146200Y40500D02*
X147400D01*
X146800Y39900D02*
Y41100D01*
X248400Y29800D02*
X249600D01*
X249000Y29200D02*
Y30400D01*
X163000Y59800D02*
X164600D01*
X163800Y59000D02*
Y60600D01*
X228000Y29500D02*
X229200D01*
X228600Y28900D02*
Y30100D01*
M02*
