G04*
G04 #@! TF.GenerationSoftware,Altium Limited,Altium Designer,21.6.4 (81)*
G04*
G04 Layer_Color=16711935*
%FSLAX25Y25*%
%MOIN*%
G70*
G04*
G04 #@! TF.SameCoordinates,D92126B2-5F21-4161-9152-1B55B43E0DBD*
G04*
G04*
G04 #@! TF.FilePolarity,Positive*
G04*
G01*
G75*
%ADD12C,0.00394*%
%ADD133C,0.00050*%
%ADD134C,0.00100*%
%ADD135C,0.00591*%
D12*
X5035Y105664D02*
Y152514D01*
X335901Y175500D02*
X337983D01*
X338400Y175917D01*
Y176750D01*
X337983Y177166D01*
X335901D01*
X336317Y177999D02*
X335901Y178416D01*
Y179249D01*
X336317Y179665D01*
X336734D01*
X337150Y179249D01*
Y178832D01*
Y179249D01*
X337567Y179665D01*
X337983D01*
X338400Y179249D01*
Y178416D01*
X337983Y177999D01*
X362101Y153500D02*
X364183D01*
X364600Y153917D01*
Y154750D01*
X364183Y155166D01*
X362101D01*
X364600Y157665D02*
Y155999D01*
X362934Y157665D01*
X362517D01*
X362101Y157249D01*
Y156416D01*
X362517Y155999D01*
D133*
X295301Y127978D02*
G03*
X295301Y127978I-11811J0D01*
G01*
X114198D02*
G03*
X114198Y127978I-11811J0D01*
G01*
X334671Y240182D02*
G03*
X318923Y255930I-15748J0D01*
G01*
X66954D02*
G03*
X51206Y240182I0J-15748D01*
G01*
X23647Y206718D02*
G03*
X51206Y234277I0J27559D01*
G01*
X15773Y206718D02*
G03*
X25Y190970I-0J-15748D01*
G01*
Y64986D02*
G03*
X15773Y49238I15748J0D01*
G01*
X51206Y21679D02*
G03*
X23647Y49238I-27559J-0D01*
G01*
X51206Y15773D02*
G03*
X66954Y25I15748J-0D01*
G01*
X318923D02*
G03*
X334671Y15773I-0J15748D01*
G01*
X362230Y49238D02*
G03*
X334671Y21678I0J-27559D01*
G01*
X370104Y49238D02*
G03*
X385852Y64986I0J15748D01*
G01*
Y190970D02*
G03*
X370104Y206718I-15748J-0D01*
G01*
X334600Y234200D02*
G03*
X362159Y206641I27559J0D01*
G01*
X295301Y127978D02*
G03*
X295301Y127978I-11811J0D01*
G01*
X114198D02*
G03*
X114198Y127978I-11811J0D01*
G01*
X370027Y206641D02*
X370104Y206718D01*
X362159Y206641D02*
X370027D01*
X66954Y255930D02*
X318923D01*
X51206Y234277D02*
Y240182D01*
X15773Y206718D02*
X23647D01*
X25Y64986D02*
Y190970D01*
X15773Y49238D02*
X23647D01*
X51206Y15773D02*
Y21679D01*
X66954Y25D02*
X318923D01*
X334671Y15773D02*
Y21678D01*
X362230Y49238D02*
X370104D01*
X385852Y64986D02*
Y190970D01*
X213930Y153300D02*
X221804D01*
X334671Y234277D02*
Y240182D01*
D134*
X177696Y79100D02*
X182696D01*
X178696Y76600D02*
Y81600D01*
Y79100D02*
X181696Y81600D01*
X178696Y79100D02*
X181696Y81100D01*
X178696Y79100D02*
X181696Y80600D01*
X178696Y79100D02*
X181696Y80100D01*
X178696Y79100D02*
X181696Y79600D01*
X178696Y79100D02*
X181696Y76600D01*
X178696Y79100D02*
X181696Y77100D01*
X178696Y79100D02*
X181696Y77600D01*
X178696Y79100D02*
X181696Y78100D01*
X178696Y79100D02*
X181696Y78600D01*
Y76600D02*
Y81600D01*
X199396Y148700D02*
X204396D01*
X200396Y146200D02*
Y151200D01*
Y148700D02*
X203396Y151200D01*
X200396Y148700D02*
X203396Y150700D01*
X200396Y148700D02*
X203396Y150200D01*
X200396Y148700D02*
X203396Y149700D01*
X200396Y148700D02*
X203396Y149200D01*
X200396Y148700D02*
X203396Y146200D01*
X200396Y148700D02*
X203396Y146700D01*
X200396Y148700D02*
X203396Y147200D01*
X200396Y148700D02*
X203396Y147700D01*
X200396Y148700D02*
X203396Y148200D01*
Y146200D02*
Y151200D01*
X154150Y196650D02*
X157850D01*
X154150Y194250D02*
Y196650D01*
Y194250D02*
X157850D01*
Y196650D01*
X154150Y198750D02*
X157850D01*
Y201150D01*
X154150D02*
X157850D01*
X154150Y198750D02*
Y201150D01*
X157850Y194250D02*
Y201150D01*
X154150D02*
X157850D01*
X154150Y194250D02*
Y201150D01*
Y194250D02*
X157850D01*
X188750Y191450D02*
Y195150D01*
Y191450D02*
X191150D01*
Y195150D01*
X188750D02*
X191150D01*
X186650Y191450D02*
Y195150D01*
X184250D02*
X186650D01*
X184250Y191450D02*
Y195150D01*
Y191450D02*
X186650D01*
X184250Y195150D02*
X191150D01*
X184250Y191450D02*
Y195150D01*
Y191450D02*
X191150D01*
Y195150D01*
X189250Y210350D02*
Y214050D01*
Y210350D02*
X191650D01*
Y214050D01*
X189250D02*
X191650D01*
X187150Y210350D02*
Y214050D01*
X184750D02*
X187150D01*
X184750Y210350D02*
Y214050D01*
Y210350D02*
X187150D01*
X184750Y214050D02*
X191650D01*
X184750Y210350D02*
Y214050D01*
Y210350D02*
X191650D01*
Y214050D01*
X21900Y149150D02*
Y152850D01*
X19500Y149150D02*
X21900D01*
X19500D02*
Y152850D01*
X21900D01*
X24000Y149150D02*
Y152850D01*
X26400D01*
Y149150D02*
Y152850D01*
X24000Y149150D02*
X26400D01*
X19500Y152850D02*
X26400D01*
Y149150D02*
Y152850D01*
X19500Y149150D02*
X26400D01*
X19500D02*
Y152850D01*
X212650Y153550D02*
Y157250D01*
Y153550D02*
X215050D01*
Y157250D01*
X212650D02*
X215050D01*
X210550Y153550D02*
Y157250D01*
X208150D02*
X210550D01*
X208150Y153550D02*
Y157250D01*
Y153550D02*
X210550D01*
X208150Y157250D02*
X215050D01*
X208150Y153550D02*
Y157250D01*
Y153550D02*
X215050D01*
Y157250D01*
X212650Y159350D02*
Y163050D01*
Y159350D02*
X215050D01*
Y163050D01*
X212650D02*
X215050D01*
X210550Y159350D02*
Y163050D01*
X208150D02*
X210550D01*
X208150Y159350D02*
Y163050D01*
Y159350D02*
X210550D01*
X208150Y163050D02*
X215050D01*
X208150Y159350D02*
Y163050D01*
Y159350D02*
X215050D01*
Y163050D01*
X190550Y66050D02*
Y69750D01*
Y66050D02*
X192950D01*
Y69750D01*
X190550D02*
X192950D01*
X188450Y66050D02*
Y69750D01*
X186050D02*
X188450D01*
X186050Y66050D02*
Y69750D01*
Y66050D02*
X188450D01*
X186050Y69750D02*
X192950D01*
X186050Y66050D02*
Y69750D01*
Y66050D02*
X192950D01*
Y69750D01*
X293050Y176950D02*
X296750D01*
X293050Y174550D02*
Y176950D01*
Y174550D02*
X296750D01*
Y176950D01*
X293050Y179050D02*
X296750D01*
Y181450D01*
X293050D02*
X296750D01*
X293050Y179050D02*
Y181450D01*
X296750Y174550D02*
Y181450D01*
X293050D02*
X296750D01*
X293050Y174550D02*
Y181450D01*
Y174550D02*
X296750D01*
X138350Y174650D02*
X142050D01*
X138350Y172250D02*
Y174650D01*
Y172250D02*
X142050D01*
Y174650D01*
X138350Y176750D02*
X142050D01*
Y179150D01*
X138350D02*
X142050D01*
X138350Y176750D02*
Y179150D01*
X142050Y172250D02*
Y179150D01*
X138350D02*
X142050D01*
X138350Y172250D02*
Y179150D01*
Y172250D02*
X142050D01*
X130250Y176650D02*
X133950D01*
Y179050D01*
X130250D02*
X133950D01*
X130250Y176650D02*
Y179050D01*
Y174550D02*
X133950D01*
X130250Y172150D02*
Y174550D01*
Y172150D02*
X133950D01*
Y174550D01*
X130250Y172150D02*
Y179050D01*
Y172150D02*
X133950D01*
Y179050D01*
X130250D02*
X133950D01*
X47450Y107050D02*
X51150D01*
X47450Y104650D02*
Y107050D01*
Y104650D02*
X51150D01*
Y107050D01*
X47450Y109150D02*
X51150D01*
Y111550D01*
X47450D02*
X51150D01*
X47450Y109150D02*
Y111550D01*
X51150Y104650D02*
Y111550D01*
X47450D02*
X51150D01*
X47450Y104650D02*
Y111550D01*
Y104650D02*
X51150D01*
X355225Y128350D02*
X358375D01*
X355225D02*
Y134650D01*
X358375D01*
Y128350D02*
Y134650D01*
X355225Y133075D02*
Y134650D01*
X358375D01*
Y133075D02*
Y134650D01*
X355225Y133075D02*
X358375D01*
Y128350D02*
Y129925D01*
X355225Y128350D02*
X358375D01*
X355225D02*
Y129925D01*
X358375D01*
X318775Y71725D02*
Y74875D01*
Y71725D02*
X320350D01*
Y74875D01*
X318775D02*
X320350D01*
X315625Y71725D02*
Y74875D01*
X314050D02*
X315625D01*
X314050Y71725D02*
Y74875D01*
Y71725D02*
X315625D01*
X314050Y74875D02*
X320350D01*
X314050Y71725D02*
Y74875D01*
Y71725D02*
X320350D01*
Y74875D01*
X286025Y203350D02*
X289175D01*
Y197050D02*
Y203350D01*
X286025Y197050D02*
X289175D01*
X286025D02*
Y203350D01*
X289175Y197050D02*
Y198625D01*
X286025Y197050D02*
X289175D01*
X286025D02*
Y198625D01*
X289175D01*
X286025Y201775D02*
Y203350D01*
X289175D01*
Y201775D02*
Y203350D01*
X286025Y201775D02*
X289175D01*
X279125Y198725D02*
X282275D01*
X279125Y197150D02*
Y198725D01*
Y197150D02*
X282275D01*
Y198725D01*
X279125Y201875D02*
X282275D01*
Y203450D01*
X279125D02*
X282275D01*
X279125Y201875D02*
Y203450D01*
X282275Y197150D02*
Y203450D01*
X279125D02*
X282275D01*
X279125Y197150D02*
Y203450D01*
Y197150D02*
X282275D01*
X294225Y164650D02*
X297375D01*
Y158350D02*
Y164650D01*
X294225Y158350D02*
X297375D01*
X294225D02*
Y164650D01*
X297375Y158350D02*
Y159925D01*
X294225Y158350D02*
X297375D01*
X294225D02*
Y159925D01*
X297375D01*
X294225Y163075D02*
Y164650D01*
X297375D01*
Y163075D02*
Y164650D01*
X294225Y163075D02*
X297375D01*
X288025Y160025D02*
X291175D01*
X288025Y158450D02*
Y160025D01*
Y158450D02*
X291175D01*
Y160025D01*
X288025Y163175D02*
X291175D01*
Y164750D01*
X288025D02*
X291175D01*
X288025Y163175D02*
Y164750D01*
X291175Y158450D02*
Y164750D01*
X288025D02*
X291175D01*
X288025Y158450D02*
Y164750D01*
Y158450D02*
X291175D01*
X56950Y92725D02*
Y95875D01*
X50650Y92725D02*
X56950D01*
X50650D02*
Y95875D01*
X56950D01*
X50650Y92725D02*
X52225D01*
X50650D02*
Y95875D01*
X52225D01*
Y92725D02*
Y95875D01*
X55375D02*
X56950D01*
Y92725D02*
Y95875D01*
X55375Y92725D02*
X56950D01*
X55375D02*
Y95875D01*
X82825Y57225D02*
X85975D01*
X82825Y55650D02*
Y57225D01*
Y55650D02*
X85975D01*
Y57225D01*
X82825Y60375D02*
X85975D01*
Y61950D01*
X82825D02*
X85975D01*
X82825Y60375D02*
Y61950D01*
X85975Y55650D02*
Y61950D01*
X82825D02*
X85975D01*
X82825Y55650D02*
Y61950D01*
Y55650D02*
X85975D01*
X94525Y70350D02*
X97675D01*
Y64050D02*
Y70350D01*
X94525Y64050D02*
X97675D01*
X94525D02*
Y70350D01*
X97675Y64050D02*
Y65625D01*
X94525Y64050D02*
X97675D01*
X94525D02*
Y65625D01*
X97675D01*
X94525Y68775D02*
Y70350D01*
X97675D01*
Y68775D02*
Y70350D01*
X94525Y68775D02*
X97675D01*
X96925Y74525D02*
Y77675D01*
X95350D02*
X96925D01*
X95350Y74525D02*
Y77675D01*
Y74525D02*
X96925D01*
X100075D02*
Y77675D01*
Y74525D02*
X101650D01*
Y77675D01*
X100075D02*
X101650D01*
X95350Y74525D02*
X101650D01*
Y77675D01*
X95350D02*
X101650D01*
X95350Y74525D02*
Y77675D01*
X72150Y88325D02*
Y91475D01*
X78450D01*
Y88325D02*
Y91475D01*
X72150Y88325D02*
X78450D01*
X76875Y91475D02*
X78450D01*
Y88325D02*
Y91475D01*
X76875Y88325D02*
X78450D01*
X76875D02*
Y91475D01*
X72150Y88325D02*
X73725D01*
X72150D02*
Y91475D01*
X73725D01*
Y88325D02*
Y91475D01*
X36875Y89925D02*
Y93075D01*
Y89925D02*
X38450D01*
Y93075D01*
X36875D02*
X38450D01*
X33725Y89925D02*
Y93075D01*
X32150D02*
X33725D01*
X32150Y89925D02*
Y93075D01*
Y89925D02*
X33725D01*
X32150Y93075D02*
X38450D01*
X32150Y89925D02*
Y93075D01*
Y89925D02*
X38450D01*
Y93075D01*
X42925Y91350D02*
X46075D01*
Y85050D02*
Y91350D01*
X42925Y85050D02*
X46075D01*
X42925D02*
Y91350D01*
X46075Y85050D02*
Y86625D01*
X42925Y85050D02*
X46075D01*
X42925D02*
Y86625D01*
X46075D01*
X42925Y89775D02*
Y91350D01*
X46075D01*
Y89775D02*
Y91350D01*
X42925Y89775D02*
X46075D01*
D135*
X6058Y145821D02*
X8557D01*
Y147071D01*
X8141Y147487D01*
X7308D01*
X6891Y147071D01*
Y145821D01*
X8141Y149987D02*
X8557Y149570D01*
Y148737D01*
X8141Y148320D01*
X6475D01*
X6058Y148737D01*
Y149570D01*
X6475Y149987D01*
X8557Y150820D02*
X6058D01*
Y152069D01*
X6475Y152486D01*
X6891D01*
X7308Y152069D01*
Y150820D01*
Y152069D01*
X7724Y152486D01*
X8141D01*
X8557Y152069D01*
Y150820D01*
Y157484D02*
Y155818D01*
X6058D01*
Y157484D01*
X7308Y155818D02*
Y156651D01*
X8557Y159983D02*
X6058D01*
Y158734D01*
X6475Y158317D01*
X7308D01*
X7724Y158734D01*
Y159983D01*
X5225Y161650D02*
Y162066D01*
X5642Y162483D01*
X7724D01*
Y161233D01*
X7308Y160816D01*
X6475D01*
X6058Y161233D01*
Y162483D01*
Y164565D02*
Y163732D01*
X6475Y163316D01*
X7308D01*
X7724Y163732D01*
Y164565D01*
X7308Y164982D01*
X6891D01*
Y163316D01*
M02*
