%TF.GenerationSoftware,Altium Limited,Altium Designer,19.1.9 (167)*%
G04 Layer_Physical_Order=3*
G04 Layer_Color=128*
%FSLAX26Y26*%
%MOIN*%
%TF.FileFunction,Copper,L3,Inr,Plane*%
%TF.Part,Single*%
G01*
G75*
%TA.AperFunction,NonConductor*%
%ADD59C,0.040000*%
%TA.AperFunction,ComponentPad*%
%ADD61C,0.200000*%
%ADD62R,0.090000X0.164016*%
%ADD63C,0.090000*%
%ADD64O,0.087244X0.067559*%
%ADD65O,0.081339X0.065591*%
%ADD66C,0.079370*%
%TA.AperFunction,ViaPad*%
%ADD67C,0.160000*%
%ADD68C,0.052000*%
%ADD69C,0.056000*%
D59*
X512061Y216786D02*
G03*
X236470Y492376I-275591J-0D01*
G01*
X512061Y157731D02*
G03*
X669542Y250I157480J-0D01*
G01*
X3189227D02*
G03*
X3346707Y157730I-0J157480D01*
G01*
X3622297Y492376D02*
G03*
X3346707Y216785I0J-275591D01*
G01*
X3701037Y492376D02*
G03*
X3858518Y649856I0J157480D01*
G01*
Y1909699D02*
G03*
X3701037Y2067179I-157480J-0D01*
G01*
X3346707Y2342770D02*
G03*
X3622298Y2067179I275591J0D01*
G01*
X3346707Y2401825D02*
G03*
X3189227Y2559305I-157480J0D01*
G01*
X669542Y2559305D02*
G03*
X512061Y2401825I0J-157480D01*
G01*
X236470Y2067179D02*
G03*
X512061Y2342770I0J275591D01*
G01*
X157731Y2067179D02*
G03*
X250Y1909699I-0J-157480D01*
G01*
Y649856D02*
G03*
X157731Y492376I157480J0D01*
G01*
X250Y649856D02*
X250D01*
Y1909699D01*
X250D02*
X250D01*
X157731Y2067179D02*
X236470D01*
X512061Y2342770D02*
Y2401825D01*
X669542Y2559305D02*
X3189227D01*
X3189227Y2559305D01*
X3346707Y2401825D02*
X3346707Y2401825D01*
X3346707Y2342770D02*
Y2401825D01*
X3622298Y2067179D02*
X3701037D01*
X3858518Y1909699D02*
X3858518D01*
X3858518Y649856D02*
Y1909699D01*
Y649856D02*
X3858518D01*
X3622297Y492376D02*
X3701037D01*
X3346707Y157730D02*
Y216785D01*
X669542Y250D02*
X3189227D01*
X512061Y157731D02*
Y216786D01*
X157731Y492376D02*
X236470D01*
D61*
X2831685Y1286000D02*
D03*
X1042315D02*
D03*
D62*
X497039D02*
D03*
X3376961D02*
D03*
D63*
X3778000Y1298000D02*
D03*
D64*
X117276Y1391284D02*
D03*
Y1176716D02*
D03*
D65*
X236567Y1379472D02*
D03*
Y1188528D02*
D03*
D66*
X70000Y976000D02*
D03*
Y676000D02*
D03*
Y776000D02*
D03*
Y876000D02*
D03*
Y1787000D02*
D03*
Y1587000D02*
D03*
Y1887000D02*
D03*
D67*
X659000Y2419000D02*
D03*
X3186000Y160000D02*
D03*
X659000D02*
D03*
X3186000Y2419000D02*
D03*
D68*
X3600000Y2000000D02*
D03*
Y800000D02*
D03*
Y600000D02*
D03*
X3400000Y800000D02*
D03*
Y600000D02*
D03*
X3200000Y2200000D02*
D03*
Y2000000D02*
D03*
Y800000D02*
D03*
Y600000D02*
D03*
Y400000D02*
D03*
X3000000Y2000000D02*
D03*
Y1800000D02*
D03*
Y800000D02*
D03*
Y600000D02*
D03*
Y400000D02*
D03*
Y200000D02*
D03*
X2800000Y1000000D02*
D03*
Y600000D02*
D03*
Y400000D02*
D03*
X2600000Y2000000D02*
D03*
Y1000000D02*
D03*
Y800000D02*
D03*
Y600000D02*
D03*
Y400000D02*
D03*
X2400000Y1600000D02*
D03*
Y1200000D02*
D03*
Y1000000D02*
D03*
Y800000D02*
D03*
Y600000D02*
D03*
X2200000Y800000D02*
D03*
Y600000D02*
D03*
Y400000D02*
D03*
X2000000Y800000D02*
D03*
Y400000D02*
D03*
Y200000D02*
D03*
X1800000Y2000000D02*
D03*
Y1400000D02*
D03*
Y800000D02*
D03*
Y600000D02*
D03*
Y400000D02*
D03*
Y200000D02*
D03*
X1600000Y2000000D02*
D03*
Y1600000D02*
D03*
Y1400000D02*
D03*
Y1000000D02*
D03*
Y400000D02*
D03*
X1400000Y1400000D02*
D03*
Y1000000D02*
D03*
Y800000D02*
D03*
Y600000D02*
D03*
Y200000D02*
D03*
X1200000Y2000000D02*
D03*
Y1400000D02*
D03*
Y800000D02*
D03*
Y600000D02*
D03*
Y400000D02*
D03*
Y200000D02*
D03*
X1000000Y1600000D02*
D03*
Y800000D02*
D03*
Y600000D02*
D03*
Y400000D02*
D03*
Y200000D02*
D03*
X800000Y2400000D02*
D03*
Y2200000D02*
D03*
Y1600000D02*
D03*
Y1400000D02*
D03*
Y1200000D02*
D03*
Y1000000D02*
D03*
Y800000D02*
D03*
Y600000D02*
D03*
Y400000D02*
D03*
Y200000D02*
D03*
X600000Y2200000D02*
D03*
Y2000000D02*
D03*
Y1600000D02*
D03*
Y1400000D02*
D03*
Y1000000D02*
D03*
Y800000D02*
D03*
Y600000D02*
D03*
Y400000D02*
D03*
X400000Y2000000D02*
D03*
Y1600000D02*
D03*
Y1000000D02*
D03*
Y800000D02*
D03*
Y600000D02*
D03*
X200000Y2000000D02*
D03*
Y1600000D02*
D03*
Y1000000D02*
D03*
Y800000D02*
D03*
Y600000D02*
D03*
X2975650Y2457872D02*
D03*
X2933073Y2408717D02*
D03*
X2933806Y2382727D02*
D03*
X2944092Y2358849D02*
D03*
Y2332849D02*
D03*
Y2306849D02*
D03*
Y2280849D02*
D03*
X2935958Y2256154D02*
D03*
X2917573Y2237769D02*
D03*
X2899188Y2219384D02*
D03*
X2880803Y2200999D02*
D03*
X2838725Y2171908D02*
D03*
X2812725D02*
D03*
X2786725D02*
D03*
X2760725D02*
D03*
X2734725D02*
D03*
X2708725D02*
D03*
X2682725D02*
D03*
X2656725D02*
D03*
X2630729Y2171482D02*
D03*
X2607355Y2160095D02*
D03*
X2588970Y2141710D02*
D03*
X2570586Y2123326D02*
D03*
X2552201Y2104941D02*
D03*
X2533816Y2086556D02*
D03*
X2515431Y2068171D02*
D03*
X2497046Y2049787D02*
D03*
X2475606Y2035080D02*
D03*
X2449606D02*
D03*
X2423606D02*
D03*
X2397606D02*
D03*
X2371606D02*
D03*
X2345606D02*
D03*
X2319606D02*
D03*
X2293606D02*
D03*
X2267606D02*
D03*
X2241606D02*
D03*
X2215606D02*
D03*
X2189606D02*
D03*
X2163606D02*
D03*
X2137606D02*
D03*
X2111606D02*
D03*
X2085606D02*
D03*
X2059606D02*
D03*
X2033606D02*
D03*
X2007606D02*
D03*
X1981606D02*
D03*
X1866325Y1984088D02*
D03*
X1869242Y1856420D02*
D03*
X1943058Y1859276D02*
D03*
X1953054Y1909278D02*
D03*
X1953742Y1935269D02*
D03*
X1953207Y1961263D02*
D03*
X1979207D02*
D03*
X2005207D02*
D03*
X2031207D02*
D03*
X2057207D02*
D03*
X2083207D02*
D03*
X2109207D02*
D03*
X2135207D02*
D03*
X2161207D02*
D03*
X2187207D02*
D03*
X2213207D02*
D03*
X2239207D02*
D03*
X2265207D02*
D03*
X2291207D02*
D03*
X2317207D02*
D03*
X2343207D02*
D03*
X2369207D02*
D03*
X2395207D02*
D03*
X2421207D02*
D03*
X2447207D02*
D03*
X2473207D02*
D03*
X2499207Y1961341D02*
D03*
X2523101Y1971594D02*
D03*
X2541558Y1989906D02*
D03*
X2559943Y2008291D02*
D03*
X2578327Y2026676D02*
D03*
X2596712Y2045061D02*
D03*
X2615097Y2063445D02*
D03*
X2633482Y2081830D02*
D03*
X2653769Y2098092D02*
D03*
X2679769D02*
D03*
X2705769D02*
D03*
X2731769D02*
D03*
X2757769D02*
D03*
X2783769D02*
D03*
X2809769D02*
D03*
X2835769D02*
D03*
X2861769D02*
D03*
X2887040Y2104202D02*
D03*
X2906091Y2121896D02*
D03*
X2924476Y2140280D02*
D03*
X2942861Y2158665D02*
D03*
X2961246Y2177050D02*
D03*
X2979630Y2195434D02*
D03*
X2998015Y2213819D02*
D03*
X3014566Y2233871D02*
D03*
X3017908Y2259655D02*
D03*
Y2285655D02*
D03*
Y2311655D02*
D03*
Y2337655D02*
D03*
Y2363655D02*
D03*
X3028792Y2387267D02*
D03*
X1873092Y2172193D02*
D03*
X1867433Y2069547D02*
D03*
X1866026Y2043585D02*
D03*
X1873456Y2018669D02*
D03*
X1955974Y2042955D02*
D03*
X1954822Y2068930D02*
D03*
X1957211Y2094820D02*
D03*
X1958742Y2120775D02*
D03*
X1957917Y2146762D02*
D03*
X1946908Y2170316D02*
D03*
X709000Y1502000D02*
D03*
Y1476000D02*
D03*
X2703000Y774000D02*
D03*
X336000Y1282000D02*
D03*
Y1256000D02*
D03*
X2385000Y254000D02*
D03*
X2248000Y242000D02*
D03*
X3628000Y1241000D02*
D03*
X3567000Y1242000D02*
D03*
X2185000Y1005000D02*
D03*
X2130269Y1007778D02*
D03*
X3789000Y944000D02*
D03*
X1923000Y1641000D02*
D03*
X1476000Y1700000D02*
D03*
X1775000Y731000D02*
D03*
X3305000Y1423000D02*
D03*
X3598000Y1395000D02*
D03*
X3241000Y1423000D02*
D03*
X1404000D02*
D03*
X3143000Y1620687D02*
D03*
X2063000Y1735121D02*
D03*
X1502000Y1732000D02*
D03*
Y1767000D02*
D03*
X2063000Y1689000D02*
D03*
X3622000Y1923000D02*
D03*
X3761000D02*
D03*
X3690000D02*
D03*
X2941000Y1915000D02*
D03*
X2806000Y1909000D02*
D03*
X2896000Y1520000D02*
D03*
X3242000Y2062000D02*
D03*
X1258000Y1167000D02*
D03*
X1209000Y1224000D02*
D03*
X1386331Y1265046D02*
D03*
X1439176Y273125D02*
D03*
X2063000Y1781243D02*
D03*
X2940000Y1691000D02*
D03*
X3084000Y1701000D02*
D03*
X3222000Y1919000D02*
D03*
X554000Y1050000D02*
D03*
X1360000Y1574000D02*
D03*
X1353000Y1952000D02*
D03*
X1599000Y1886000D02*
D03*
X1880000Y472000D02*
D03*
X3074000Y1934000D02*
D03*
X3713000Y1554000D02*
D03*
X3047000Y791000D02*
D03*
X1679000Y1886000D02*
D03*
X1638000D02*
D03*
X3275000Y1624000D02*
D03*
X2245000Y1571000D02*
D03*
X669000Y1694000D02*
D03*
X1502000Y1605000D02*
D03*
Y1571000D02*
D03*
X1069000Y2039000D02*
D03*
X1502000Y1636000D02*
D03*
Y1670000D02*
D03*
X1455000D02*
D03*
X1468000Y405000D02*
D03*
X2490000Y298000D02*
D03*
X2286000Y295000D02*
D03*
D69*
X1638000Y598000D02*
D03*
%TF.MD5,bc44b568ae75f5bfd8b1d69ab0d7b87d*%
M02*
