G04*
G04 #@! TF.GenerationSoftware,Altium Limited,Altium Designer,21.6.4 (81)*
G04*
G04 Layer_Physical_Order=1*
G04 Layer_Color=255*
%FSLAX25Y25*%
%MOIN*%
G70*
G04*
G04 #@! TF.SameCoordinates,D92126B2-5F21-4161-9152-1B55B43E0DBD*
G04*
G04*
G04 #@! TF.FilePolarity,Positive*
G04*
G01*
G75*
%ADD11C,0.01000*%
%ADD19R,0.04000X0.03500*%
%ADD20R,0.03700X0.03800*%
%ADD21R,0.03800X0.03700*%
%ADD22R,0.03150X0.02975*%
%ADD23R,0.02975X0.03150*%
%ADD24R,0.04134X0.04134*%
%ADD25R,0.02362X0.03347*%
%ADD26R,0.05807X0.01772*%
%ADD27R,0.04134X0.04134*%
%ADD28R,0.10400X0.04700*%
%ADD29R,0.02559X0.04134*%
%ADD30R,0.04724X0.02362*%
%ADD31R,0.04134X0.01575*%
%ADD32R,0.01575X0.04134*%
%ADD33R,0.02362X0.07087*%
%ADD34R,0.04134X0.08661*%
%ADD35R,0.03937X0.04134*%
%ADD36R,0.08661X0.04724*%
%ADD37R,0.01870X0.01476*%
G04:AMPARAMS|DCode=38|XSize=59.06mil|YSize=59.06mil|CornerRadius=2.95mil|HoleSize=0mil|Usage=FLASHONLY|Rotation=180.000|XOffset=0mil|YOffset=0mil|HoleType=Round|Shape=RoundedRectangle|*
%AMROUNDEDRECTD38*
21,1,0.05906,0.05315,0,0,180.0*
21,1,0.05315,0.05906,0,0,180.0*
1,1,0.00591,-0.02657,0.02657*
1,1,0.00591,0.02657,0.02657*
1,1,0.00591,0.02657,-0.02657*
1,1,0.00591,-0.02657,-0.02657*
%
%ADD38ROUNDEDRECTD38*%
G04:AMPARAMS|DCode=39|XSize=19.68mil|YSize=31.5mil|CornerRadius=3.94mil|HoleSize=0mil|Usage=FLASHONLY|Rotation=270.000|XOffset=0mil|YOffset=0mil|HoleType=Round|Shape=RoundedRectangle|*
%AMROUNDEDRECTD39*
21,1,0.01968,0.02362,0,0,270.0*
21,1,0.01181,0.03150,0,0,270.0*
1,1,0.00787,-0.01181,-0.00591*
1,1,0.00787,-0.01181,0.00591*
1,1,0.00787,0.01181,0.00591*
1,1,0.00787,0.01181,-0.00591*
%
%ADD39ROUNDEDRECTD39*%
G04:AMPARAMS|DCode=40|XSize=19.68mil|YSize=31.5mil|CornerRadius=3.94mil|HoleSize=0mil|Usage=FLASHONLY|Rotation=180.000|XOffset=0mil|YOffset=0mil|HoleType=Round|Shape=RoundedRectangle|*
%AMROUNDEDRECTD40*
21,1,0.01968,0.02362,0,0,180.0*
21,1,0.01181,0.03150,0,0,180.0*
1,1,0.00787,-0.00591,0.01181*
1,1,0.00787,0.00591,0.01181*
1,1,0.00787,0.00591,-0.01181*
1,1,0.00787,-0.00591,-0.01181*
%
%ADD40ROUNDEDRECTD40*%
%ADD41R,0.03543X0.02559*%
%ADD42R,0.03543X0.03937*%
%ADD43R,0.02756X0.01968*%
%ADD44R,0.03347X0.02362*%
G04:AMPARAMS|DCode=45|XSize=23.62mil|YSize=57.09mil|CornerRadius=2.01mil|HoleSize=0mil|Usage=FLASHONLY|Rotation=180.000|XOffset=0mil|YOffset=0mil|HoleType=Round|Shape=RoundedRectangle|*
%AMROUNDEDRECTD45*
21,1,0.02362,0.05307,0,0,180.0*
21,1,0.01961,0.05709,0,0,180.0*
1,1,0.00402,-0.00980,0.02653*
1,1,0.00402,0.00980,0.02653*
1,1,0.00402,0.00980,-0.02653*
1,1,0.00402,-0.00980,-0.02653*
%
%ADD45ROUNDEDRECTD45*%
%ADD46R,0.05906X0.02756*%
%ADD47R,0.05906X0.03937*%
%ADD48R,0.02756X0.05906*%
%ADD49R,0.02362X0.04528*%
%ADD50R,0.02835X0.02717*%
%ADD51R,0.01102X0.01614*%
%ADD52R,0.01614X0.01102*%
%ADD97C,0.01734*%
%ADD98C,0.00847*%
%ADD99C,0.01500*%
%ADD100C,0.01028*%
%ADD101C,0.02000*%
%ADD102C,0.02500*%
%ADD103C,0.01700*%
%ADD104C,0.01968*%
%ADD105C,0.04000*%
%ADD106C,0.25000*%
%ADD107O,0.10000X0.20000*%
%ADD108R,0.08000X0.08000*%
%ADD109O,0.06693X0.04724*%
%ADD110O,0.05512X0.03937*%
%ADD111C,0.05906*%
%ADD112R,0.05906X0.05906*%
%ADD113C,0.12000*%
%ADD114C,0.01600*%
%ADD115C,0.01400*%
G36*
X321703Y254158D02*
X323503Y253676D01*
X325225Y252962D01*
X326839Y252030D01*
X328318Y250896D01*
X329636Y249578D01*
X330770Y248099D01*
X331702Y246485D01*
X332416Y244763D01*
X332898Y242962D01*
X333141Y241114D01*
X333141Y240182D01*
Y234277D01*
X333145Y234258D01*
X333142Y234239D01*
X333175Y232887D01*
X333188Y232832D01*
X333182Y232775D01*
X333447Y230083D01*
X333469Y230011D01*
Y229935D01*
X333997Y227282D01*
X334026Y227212D01*
X334033Y227137D01*
X334818Y224549D01*
X334854Y224482D01*
X334869Y224407D01*
X335904Y221909D01*
X335946Y221846D01*
X335968Y221773D01*
X337243Y219388D01*
X337291Y219329D01*
X337320Y219259D01*
X338823Y217010D01*
X338876Y216957D01*
X338912Y216890D01*
X340628Y214799D01*
X340686Y214751D01*
X340728Y214688D01*
X342641Y212776D01*
X342704Y212734D01*
X342752Y212675D01*
X344843Y210959D01*
X344910Y210923D01*
X344963Y210870D01*
X347212Y209367D01*
X347282Y209338D01*
X347341Y209290D01*
X349726Y208015D01*
X349798Y207993D01*
X349862Y207951D01*
X352360Y206916D01*
X352434Y206901D01*
X352501Y206865D01*
X355089Y206080D01*
X355165Y206073D01*
X355235Y206044D01*
X357888Y205516D01*
X357963D01*
X358036Y205494D01*
X360728Y205229D01*
X360784Y205235D01*
X360840Y205222D01*
X362192Y205189D01*
X362211Y205192D01*
X362230Y205189D01*
X371036D01*
X372884Y204945D01*
X374684Y204463D01*
X376406Y203750D01*
X378020Y202818D01*
X379499Y201683D01*
X380817Y200365D01*
X381951Y198886D01*
X382884Y197272D01*
X383597Y195550D01*
X384079Y193750D01*
X384322Y191902D01*
Y190970D01*
Y64986D01*
Y64054D01*
X384079Y62206D01*
X383597Y60405D01*
X382884Y58683D01*
X381951Y57069D01*
X380817Y55590D01*
X379499Y54273D01*
X378020Y53138D01*
X376406Y52206D01*
X374684Y51493D01*
X372884Y51010D01*
X371036Y50767D01*
X370104Y50767D01*
X362230D01*
X362211Y50763D01*
X362192Y50766D01*
X360840Y50733D01*
X360784Y50721D01*
X360728Y50726D01*
X358036Y50461D01*
X357963Y50439D01*
X357888D01*
X355235Y49912D01*
X355165Y49883D01*
X355089Y49875D01*
X352501Y49090D01*
X352434Y49054D01*
X352360Y49040D01*
X349862Y48005D01*
X349798Y47962D01*
X349726Y47940D01*
X347341Y46665D01*
X347282Y46617D01*
X347212Y46588D01*
X344963Y45086D01*
X344910Y45032D01*
X344843Y44996D01*
X342752Y43281D01*
X342704Y43222D01*
X342641Y43180D01*
X340728Y41267D01*
X340686Y41204D01*
X340628Y41156D01*
X338912Y39066D01*
X338876Y38999D01*
X338823Y38945D01*
X337320Y36696D01*
X337291Y36626D01*
X337243Y36568D01*
X335968Y34183D01*
X335946Y34110D01*
X335904Y34047D01*
X334869Y31548D01*
X334854Y31474D01*
X334818Y31407D01*
X334033Y28819D01*
X334026Y28743D01*
X333997Y28673D01*
X333469Y26021D01*
Y25945D01*
X333447Y25872D01*
X333182Y23181D01*
X333188Y23124D01*
X333175Y23068D01*
X333142Y21716D01*
X333145Y21697D01*
X333141Y21678D01*
Y14841D01*
X332898Y12993D01*
X332416Y11193D01*
X331702Y9471D01*
X330770Y7857D01*
X329636Y6378D01*
X328318Y5060D01*
X326839Y3925D01*
X325225Y2993D01*
X323503Y2280D01*
X321703Y1798D01*
X319855Y1554D01*
X205416D01*
Y5456D01*
X208300D01*
Y8424D01*
X208800D01*
Y8924D01*
X212753D01*
Y10574D01*
Y12452D01*
X208800D01*
Y13452D01*
X212753D01*
Y13766D01*
X213677Y14149D01*
X214763Y13063D01*
X215193Y12775D01*
X215700Y12675D01*
X216776D01*
Y11133D01*
X227824D01*
Y12497D01*
X228824Y12601D01*
X229363Y12063D01*
X229793Y11775D01*
X230300Y11675D01*
X232154D01*
Y10293D01*
X234513D01*
Y10093D01*
X235800D01*
Y13160D01*
X236800D01*
Y10093D01*
X238087D01*
Y10293D01*
X240446D01*
Y11834D01*
X250533D01*
Y5676D01*
X256267D01*
Y6886D01*
X257283D01*
Y6053D01*
X261717D01*
Y7999D01*
X261963Y8163D01*
X264800Y11000D01*
X265088Y11430D01*
X265188Y11937D01*
Y12914D01*
X267853Y15578D01*
X269926D01*
Y11400D01*
X272993D01*
X276060D01*
Y14037D01*
X281540D01*
Y11400D01*
X284107D01*
Y16230D01*
X281569D01*
Y19771D01*
X276324D01*
Y21700D01*
X273257D01*
Y22200D01*
X272758D01*
Y25267D01*
X270191D01*
Y25067D01*
X265076D01*
Y23225D01*
X261140D01*
Y24373D01*
X259203D01*
X258820Y25297D01*
X287588Y54065D01*
X291633D01*
Y52143D01*
X297767D01*
Y54710D01*
X297567D01*
Y59824D01*
X296404D01*
Y63779D01*
X298241D01*
Y67741D01*
X291916D01*
Y63779D01*
X293753D01*
Y59824D01*
X291833D01*
Y56716D01*
X287039D01*
X286532Y56615D01*
X286102Y56328D01*
X254148Y24373D01*
X252060D01*
Y21301D01*
X249357Y18599D01*
X240446D01*
Y20882D01*
X243114D01*
X243621Y20982D01*
X244052Y21270D01*
X244637Y21856D01*
X244925Y22286D01*
X245025Y22793D01*
Y25460D01*
X246273D01*
Y26448D01*
X246973D01*
X247481Y26549D01*
X247910Y26836D01*
X249431Y28356D01*
X249585Y28387D01*
X250081Y28719D01*
X250413Y29215D01*
X250529Y29800D01*
X250413Y30385D01*
X250081Y30881D01*
X249585Y31213D01*
X249000Y31329D01*
X248415Y31213D01*
X247919Y30881D01*
X247872Y30812D01*
X247473Y30689D01*
X246473Y31427D01*
Y32059D01*
X243800D01*
X241127D01*
Y30378D01*
X241220D01*
X241327Y29422D01*
X241327Y29378D01*
Y25460D01*
X242374D01*
Y23533D01*
X240167D01*
X239983Y23780D01*
X239724Y24533D01*
X239913Y24815D01*
X240029Y25400D01*
X239913Y25985D01*
X239581Y26481D01*
X239085Y26813D01*
X238500Y26929D01*
X237915Y26813D01*
X237867Y26781D01*
X236867Y27316D01*
Y29391D01*
X237067D01*
Y31958D01*
X230933D01*
Y30618D01*
X229935Y30202D01*
X229681Y30581D01*
X229185Y30913D01*
X228600Y31029D01*
X228015Y30913D01*
X227519Y30581D01*
X227187Y30085D01*
X227071Y29500D01*
X227187Y28915D01*
X227519Y28419D01*
X228015Y28087D01*
X228372Y28016D01*
X228911Y27477D01*
X229341Y27190D01*
X229848Y27089D01*
X231133D01*
Y24276D01*
X231595D01*
X232154Y23507D01*
Y17773D01*
X232786D01*
X232794Y17762D01*
X232804Y17712D01*
X233091Y17282D01*
X233236Y17137D01*
X233334Y16998D01*
X232932Y16027D01*
X232154D01*
Y14325D01*
X230849D01*
X230237Y14937D01*
X229807Y15225D01*
X229300Y15326D01*
X227824D01*
Y16867D01*
X227824D01*
Y17133D01*
X227824D01*
Y22867D01*
X226865D01*
X226751Y22998D01*
X226263Y23867D01*
X226329Y24200D01*
X226213Y24785D01*
X225881Y25281D01*
X225385Y25613D01*
X224800Y25729D01*
X224215Y25613D01*
X223719Y25281D01*
X223387Y24785D01*
X223271Y24200D01*
X223337Y23867D01*
X222849Y22998D01*
X222735Y22867D01*
X216776D01*
Y22151D01*
X213656D01*
X212753Y22385D01*
Y24263D01*
X204847D01*
Y22385D01*
X205047D01*
Y19446D01*
X204600Y18516D01*
X178800D01*
X178115Y19301D01*
X178107Y19320D01*
Y20326D01*
X170202D01*
Y18448D01*
Y17389D01*
X174154D01*
Y16389D01*
X170202D01*
Y14511D01*
Y13452D01*
X174154D01*
Y12452D01*
X170202D01*
Y10574D01*
Y8924D01*
X174154D01*
Y8424D01*
X174654D01*
Y5456D01*
X177984D01*
Y1554D01*
X66022D01*
X64174Y1798D01*
X62374Y2280D01*
X60652Y2993D01*
X59038Y3925D01*
X57559Y5060D01*
X56241Y6378D01*
X55106Y7857D01*
X54174Y9471D01*
X53461Y11193D01*
X52979Y12993D01*
X52736Y14841D01*
X52736Y15773D01*
Y21679D01*
X52732Y21697D01*
X52735Y21716D01*
X52702Y23068D01*
X52689Y23124D01*
X52695Y23181D01*
X52430Y25872D01*
X52408Y25945D01*
Y26021D01*
X51880Y28673D01*
X51851Y28743D01*
X51844Y28819D01*
X51059Y31407D01*
X51023Y31474D01*
X51008Y31548D01*
X49973Y34047D01*
X49931Y34110D01*
X49909Y34183D01*
X48634Y36568D01*
X48586Y36626D01*
X48557Y36696D01*
X47054Y38945D01*
X47001Y38999D01*
X46965Y39066D01*
X45249Y41156D01*
X45191Y41204D01*
X45148Y41267D01*
X43236Y43180D01*
X43173Y43222D01*
X43125Y43281D01*
X41034Y44996D01*
X40967Y45032D01*
X40914Y45086D01*
X38665Y46588D01*
X38595Y46617D01*
X38536Y46665D01*
X36151Y47940D01*
X36078Y47962D01*
X36015Y48005D01*
X33517Y49040D01*
X33442Y49054D01*
X33375Y49090D01*
X30787Y49875D01*
X30712Y49883D01*
X30642Y49912D01*
X27989Y50439D01*
X27913D01*
X27841Y50461D01*
X25149Y50726D01*
X25093Y50721D01*
X25037Y50733D01*
X23685Y50766D01*
X23666Y50763D01*
X23647Y50767D01*
X15773Y50767D01*
X14841Y50767D01*
X12993Y51010D01*
X11193Y51493D01*
X9471Y52206D01*
X7857Y53138D01*
X6378Y54273D01*
X5060Y55590D01*
X3925Y57069D01*
X2993Y58683D01*
X2280Y60405D01*
X1798Y62206D01*
X1554Y64054D01*
X1554Y64986D01*
Y93743D01*
X2554Y94157D01*
X4868Y91843D01*
X4914Y91657D01*
X4826Y90662D01*
X4324Y90276D01*
X3722Y89493D01*
X3344Y88580D01*
X3215Y87600D01*
X3344Y86620D01*
X3722Y85707D01*
X4324Y84923D01*
X5107Y84322D01*
X6020Y83944D01*
X7000Y83815D01*
X7980Y83944D01*
X8893Y84322D01*
X9676Y84923D01*
X9993Y85336D01*
X11190D01*
X16600Y79926D01*
X16186Y78926D01*
X10513D01*
X10278Y79493D01*
X9676Y80277D01*
X8893Y80878D01*
X7980Y81256D01*
X7000Y81385D01*
X6020Y81256D01*
X5107Y80878D01*
X4324Y80277D01*
X3722Y79493D01*
X3344Y78580D01*
X3215Y77600D01*
X3344Y76620D01*
X3722Y75707D01*
X4324Y74923D01*
X5107Y74322D01*
X6020Y73944D01*
X7000Y73815D01*
X7980Y73944D01*
X8893Y74322D01*
X9676Y74923D01*
X10278Y75707D01*
X10513Y76275D01*
X16251D01*
X40476Y52049D01*
X40093Y51126D01*
X38925D01*
X21514Y68537D01*
X21084Y68825D01*
X20576Y68925D01*
X10753D01*
Y71353D01*
X3247D01*
Y63847D01*
X10753D01*
Y66274D01*
X20027D01*
X37439Y48863D01*
X37869Y48575D01*
X38376Y48474D01*
X128346D01*
X128853Y48575D01*
X129283Y48863D01*
X130633Y50213D01*
X179872Y99452D01*
X212311D01*
X212442Y99365D01*
X213027Y99248D01*
X213612Y99365D01*
X214108Y99696D01*
X214440Y100192D01*
X214492Y100455D01*
X215452Y101011D01*
X216074Y100720D01*
Y94549D01*
X203610Y82085D01*
X203323Y81655D01*
X203222Y81147D01*
Y54343D01*
X203323Y53835D01*
X203610Y53405D01*
X204753Y52263D01*
X205047Y52066D01*
Y50144D01*
Y46207D01*
Y42889D01*
X204847D01*
Y41011D01*
X212753D01*
Y42889D01*
X212553D01*
Y46207D01*
Y50144D01*
Y54081D01*
Y58437D01*
X210071D01*
X209425Y59083D01*
Y72379D01*
X220337Y83291D01*
X220625Y83721D01*
X220725Y84228D01*
Y100184D01*
X220813Y100315D01*
X220929Y100900D01*
X220813Y101485D01*
X220725Y101616D01*
Y155351D01*
X221726Y155765D01*
X222952Y154539D01*
X240420Y137071D01*
Y94000D01*
X240540Y93395D01*
X240882Y92883D01*
X267182Y66583D01*
X267695Y66240D01*
X268300Y66120D01*
X285000D01*
X285605Y66240D01*
X286118Y66583D01*
X288917Y69383D01*
X289260Y69895D01*
X289380Y70500D01*
Y75545D01*
X300678Y86843D01*
X309122D01*
Y86639D01*
X313478D01*
Y89592D01*
Y93161D01*
X312880D01*
Y94860D01*
X313897Y95877D01*
X314310D01*
X315033Y95209D01*
Y92642D01*
X321167D01*
Y95209D01*
X320967D01*
Y100324D01*
X318480D01*
Y116339D01*
X319078D01*
Y121019D01*
X323729Y125670D01*
X331868D01*
Y123600D01*
X331980Y122463D01*
X332312Y121370D01*
X332850Y120362D01*
X333575Y119479D01*
X334458Y118754D01*
X335466Y118216D01*
X336371Y117941D01*
Y66745D01*
X316477Y46852D01*
X316412Y46755D01*
X316261Y46654D01*
X315907Y46124D01*
X315783Y45500D01*
X315907Y44876D01*
X316261Y44346D01*
X316790Y43993D01*
X317414Y43869D01*
X318039Y43993D01*
X318568Y44346D01*
X318921Y44876D01*
X319046Y45500D01*
X319017Y45643D01*
X338633Y65259D01*
X338921Y65689D01*
X339021Y66196D01*
Y117941D01*
X339926Y118216D01*
X340934Y118754D01*
X341817Y119479D01*
X342542Y120362D01*
X343080Y121370D01*
X343412Y122463D01*
X343475Y123097D01*
X344475Y123047D01*
Y91668D01*
X342807D01*
Y86132D01*
X347950D01*
Y91668D01*
X347126D01*
Y116286D01*
X347860Y116927D01*
X348126Y116927D01*
X351822D01*
Y121873D01*
X351266D01*
Y137227D01*
X352022D01*
Y139437D01*
X352178Y139541D01*
X353178Y139006D01*
Y137227D01*
X353581D01*
X354425Y136850D01*
Y132275D01*
X359175D01*
Y132275D01*
X360126Y132157D01*
Y130843D01*
X359175Y130725D01*
X359126Y130725D01*
X354425D01*
Y126150D01*
X355375D01*
Y124916D01*
X355287Y124785D01*
X355171Y124200D01*
X355287Y123615D01*
X355619Y123119D01*
X355986Y122873D01*
X355979Y122368D01*
X355819Y121873D01*
X352978D01*
Y116927D01*
X355778D01*
X356967Y115738D01*
Y93243D01*
X352650D01*
Y89084D01*
X352650Y89084D01*
Y88716D01*
X352650D01*
X352650Y88084D01*
Y84557D01*
X357793D01*
Y86059D01*
X359230Y87497D01*
X359518Y87927D01*
X359618Y88434D01*
Y116287D01*
X359518Y116794D01*
X359230Y117224D01*
X356940Y119514D01*
Y121699D01*
X356940Y121873D01*
X357193Y122769D01*
X357285Y122787D01*
X357781Y123119D01*
X358113Y123615D01*
X358229Y124200D01*
X358113Y124785D01*
X358026Y124916D01*
Y126150D01*
X359126D01*
X359171Y126150D01*
X360126Y126041D01*
X360129Y126041D01*
X361474D01*
Y124816D01*
X361387Y124685D01*
X361271Y124100D01*
X361387Y123515D01*
X361719Y123019D01*
X362215Y122687D01*
X362800Y122571D01*
X363385Y122687D01*
X363881Y123019D01*
X364213Y123515D01*
X364329Y124100D01*
X364213Y124685D01*
X364125Y124816D01*
Y126041D01*
X365860D01*
Y126612D01*
X366227Y127460D01*
X366860Y127460D01*
X371173D01*
Y128416D01*
X373000D01*
Y125000D01*
X382600D01*
Y134600D01*
X373000D01*
Y131066D01*
X371173D01*
Y131422D01*
X367137D01*
X366803Y132000D01*
X367137Y132578D01*
X371173D01*
Y136540D01*
X366227D01*
X365860Y137090D01*
Y137090D01*
X363598D01*
X363103Y138090D01*
X363125Y138123D01*
X363226Y138630D01*
Y141351D01*
X366472Y144598D01*
X367080D01*
X367471Y144675D01*
X367802Y144897D01*
X368023Y145228D01*
X368101Y145618D01*
X369099D01*
X369177Y145228D01*
X369398Y144897D01*
X369729Y144675D01*
X370120Y144598D01*
X372080D01*
X372471Y144675D01*
X372802Y144897D01*
X373023Y145228D01*
X373101Y145618D01*
Y150925D01*
X373023Y151316D01*
X372802Y151647D01*
X372526Y151831D01*
Y154534D01*
X372713Y154815D01*
X372829Y155400D01*
X372713Y155985D01*
X372381Y156481D01*
X371885Y156813D01*
X371300Y156929D01*
X370715Y156813D01*
X370219Y156481D01*
X369887Y155985D01*
X369771Y155400D01*
X369875Y154878D01*
Y151897D01*
X369729Y151868D01*
X369398Y151647D01*
X369177Y151316D01*
X369099Y150925D01*
X368101D01*
X368023Y151316D01*
X367802Y151647D01*
X367471Y151868D01*
X367080Y151946D01*
X365120D01*
X364729Y151868D01*
X364398Y151647D01*
X364177Y151316D01*
X364099Y150925D01*
X363101D01*
X363023Y151316D01*
X362802Y151647D01*
X362471Y151868D01*
X362080Y151946D01*
X360120D01*
X359729Y151868D01*
X359398Y151647D01*
X359177Y151316D01*
X359099Y150925D01*
X358101D01*
X358023Y151316D01*
X357802Y151647D01*
X357471Y151868D01*
X357080Y151946D01*
X355120D01*
X354729Y151868D01*
X354398Y151647D01*
X354177Y151316D01*
X354099Y150925D01*
Y149349D01*
X350778D01*
Y152761D01*
X346422D01*
Y152761D01*
X345558Y153090D01*
X345207Y153325D01*
X344700Y153426D01*
X343740D01*
Y153873D01*
X339778D01*
Y148927D01*
X340434D01*
Y143241D01*
X340534Y142734D01*
X340822Y142304D01*
X344475Y138651D01*
Y134153D01*
X343475Y134104D01*
X343412Y134737D01*
X343080Y135830D01*
X342542Y136838D01*
X341817Y137721D01*
X340934Y138446D01*
X339926Y138984D01*
X338833Y139316D01*
X337696Y139428D01*
X336559Y139316D01*
X335466Y138984D01*
X334458Y138446D01*
X333575Y137721D01*
X332850Y136838D01*
X332312Y135830D01*
X331980Y134737D01*
X331868Y133600D01*
Y128831D01*
X323074D01*
X322469Y128711D01*
X321957Y128368D01*
X316449Y122861D01*
X314722D01*
Y119292D01*
Y116339D01*
X315320D01*
Y100324D01*
X315233D01*
Y99038D01*
X314244D01*
X313847Y99303D01*
X313610Y99350D01*
X309682Y103277D01*
X309252Y103565D01*
X308745Y103666D01*
X308383D01*
Y104321D01*
X302059D01*
Y100781D01*
X301859D01*
Y100411D01*
X300528D01*
X300507Y100425D01*
X300000Y100525D01*
X299541Y100434D01*
X299482Y100431D01*
X298541Y100991D01*
X298541Y101158D01*
Y104321D01*
X292216D01*
Y100359D01*
X297803Y100359D01*
X297860D01*
X297860D01*
X298008Y100359D01*
X298221Y100178D01*
X298401Y99911D01*
X298721Y99434D01*
X298675Y99200D01*
X298775Y98693D01*
X299063Y98263D01*
X299178Y98148D01*
X299608Y97861D01*
X300115Y97760D01*
X301859D01*
Y96419D01*
X302059D01*
Y92879D01*
X303641D01*
Y92179D01*
X303761Y91574D01*
X304104Y91061D01*
X304161Y91004D01*
X303747Y90004D01*
X300024D01*
X299419Y89884D01*
X298906Y89541D01*
X286683Y77318D01*
X286340Y76805D01*
X286220Y76200D01*
Y71155D01*
X284345Y69280D01*
X268955D01*
X243580Y94655D01*
Y137725D01*
X243460Y138330D01*
X243117Y138843D01*
X225187Y156774D01*
X222002Y159959D01*
Y162979D01*
X221881Y163584D01*
X221539Y164096D01*
X218517Y167118D01*
X218005Y167460D01*
X217400Y167580D01*
X203900D01*
X203295Y167460D01*
X202783Y167118D01*
X200818Y165154D01*
X199693Y165265D01*
X199297Y165839D01*
Y167020D01*
X199204Y167486D01*
X199033Y167742D01*
X199309Y168367D01*
X199531Y168660D01*
X205875D01*
X206382Y168761D01*
X206397Y168770D01*
X206723Y168835D01*
X207219Y169167D01*
X207551Y169663D01*
X207667Y170248D01*
X207551Y170834D01*
X207219Y171330D01*
X206723Y171661D01*
X206138Y171778D01*
X205553Y171661D01*
X205056Y171330D01*
X205044Y171311D01*
X200073D01*
X199297Y172139D01*
Y173320D01*
X200031Y174173D01*
X200066Y174189D01*
X205012D01*
X205315Y173987D01*
X205900Y173871D01*
X206485Y173987D01*
X206981Y174319D01*
X207313Y174815D01*
X207429Y175400D01*
X207313Y175985D01*
X206981Y176481D01*
X206485Y176813D01*
X205900Y176929D01*
X205452Y176840D01*
X199223D01*
X199204Y176935D01*
X198940Y177330D01*
X198545Y177594D01*
X198080Y177686D01*
X195756D01*
X195693Y177747D01*
X195385Y178512D01*
X195358Y178634D01*
X195652Y179075D01*
X195760Y179619D01*
Y180300D01*
X194249D01*
Y178198D01*
X194339D01*
X194363Y178203D01*
X194756Y177508D01*
X194819Y177274D01*
X194593Y176935D01*
X194500Y176469D01*
Y175288D01*
X194593Y174822D01*
X194857Y174428D01*
Y174180D01*
X194593Y173785D01*
X194500Y173320D01*
Y172139D01*
X194593Y171673D01*
X194857Y171278D01*
Y171031D01*
X194593Y170636D01*
X194500Y170170D01*
Y168989D01*
X194593Y168523D01*
X194857Y168128D01*
Y167881D01*
X194593Y167486D01*
X194500Y167020D01*
Y165839D01*
X194593Y165374D01*
X194857Y164979D01*
Y164732D01*
X194593Y164337D01*
X194500Y163871D01*
Y162690D01*
X194593Y162224D01*
X194857Y161829D01*
Y161582D01*
X194593Y161187D01*
X194500Y160721D01*
Y159540D01*
X194593Y159074D01*
X194857Y158680D01*
Y158432D01*
X194593Y158037D01*
X194500Y157572D01*
Y156391D01*
X194593Y155925D01*
X194857Y155530D01*
Y155283D01*
X194593Y154888D01*
X194500Y154422D01*
Y153241D01*
X194593Y152775D01*
X194857Y152380D01*
Y152133D01*
X194593Y151738D01*
X194500Y151272D01*
Y150091D01*
X194593Y149626D01*
X194857Y149231D01*
Y148983D01*
X194593Y148589D01*
X194500Y148123D01*
Y146942D01*
X194593Y146476D01*
X194857Y146081D01*
Y145834D01*
X194593Y145439D01*
X194500Y144973D01*
Y143792D01*
X194593Y143326D01*
X194806Y142808D01*
X194593Y142289D01*
X194500Y141824D01*
Y140642D01*
X194593Y140177D01*
X194857Y139782D01*
X195252Y139518D01*
X195717Y139425D01*
X198080D01*
X198545Y139518D01*
X198940Y139782D01*
X199176Y140135D01*
X199216Y140180D01*
X200277Y140448D01*
X207874Y132851D01*
Y118849D01*
X196751Y107726D01*
X177309D01*
X176802Y107625D01*
X176372Y107337D01*
X142360Y73326D01*
X122097D01*
X121231Y74100D01*
X121107Y74724D01*
X120925Y74996D01*
Y79630D01*
X120825Y80137D01*
X120537Y80567D01*
X115443Y85662D01*
X115013Y85949D01*
X114505Y86050D01*
X107077D01*
X106570Y85949D01*
X106140Y85662D01*
X105046Y84568D01*
X99854D01*
X99667Y85491D01*
X99667D01*
Y88058D01*
X93533D01*
Y85491D01*
X93733D01*
Y82250D01*
X93527Y82044D01*
X87971D01*
Y84963D01*
X85592D01*
Y87676D01*
X87167D01*
Y92791D01*
X87367D01*
Y95358D01*
X81233D01*
Y93033D01*
X80856Y92543D01*
X80486Y92301D01*
X79486Y92505D01*
Y94298D01*
X79385Y94806D01*
X79098Y95236D01*
X78896Y95437D01*
X78466Y95725D01*
X77959Y95825D01*
X77452Y95725D01*
X77022Y95437D01*
X76735Y95007D01*
X76634Y94500D01*
X76735Y93993D01*
X76835Y93842D01*
Y92275D01*
X76075D01*
Y87525D01*
X78102D01*
X78484Y86601D01*
X77326Y85443D01*
X77039Y85013D01*
X76938Y84506D01*
Y63098D01*
X77039Y62591D01*
X77326Y62161D01*
X81349Y58138D01*
X81779Y57850D01*
X82025Y57801D01*
Y53450D01*
X81243Y52925D01*
X43349D01*
X32863Y63411D01*
X33277Y64411D01*
X64575D01*
X65082Y64512D01*
X65512Y64800D01*
X66274Y65561D01*
X66561Y65991D01*
X66662Y66499D01*
Y69347D01*
X66561Y69854D01*
X66274Y70284D01*
X65512Y71046D01*
X65448Y71089D01*
X65752Y72089D01*
X65914D01*
X66422Y72190D01*
X66852Y72477D01*
X72475Y78101D01*
X72762Y78531D01*
X72863Y79038D01*
Y87525D01*
X74525D01*
Y92275D01*
X74397D01*
X74139Y92607D01*
X73915Y93275D01*
X74066Y93501D01*
X74166Y94008D01*
Y94992D01*
X74066Y95499D01*
X73778Y95929D01*
X73348Y96217D01*
X72841Y96318D01*
X72334Y96217D01*
X71904Y95929D01*
X71616Y95499D01*
X71516Y94992D01*
Y94652D01*
X70764D01*
X70257Y94551D01*
X69827Y94264D01*
X66456Y90894D01*
X66169Y90464D01*
X66068Y89956D01*
Y80079D01*
X65837Y79888D01*
X64837Y80360D01*
Y81391D01*
X65037D01*
Y82777D01*
X61133D01*
Y83277D01*
X60633D01*
Y85163D01*
X59224D01*
Y87600D01*
X56157D01*
Y88600D01*
X59224D01*
Y91167D01*
X59224D01*
X59224Y91167D01*
X59150Y92136D01*
Y94713D01*
X59611Y95174D01*
X68900D01*
X69407Y95275D01*
X69837Y95563D01*
X72437Y98163D01*
X72725Y98593D01*
X72825Y99100D01*
X72825Y99100D01*
Y109981D01*
X72725Y110488D01*
X72437Y110918D01*
X69125Y114230D01*
Y119650D01*
X70500D01*
Y125950D01*
X63956D01*
X59828Y130078D01*
X59150Y130531D01*
X58350Y130690D01*
X58350Y130690D01*
X55532D01*
Y133600D01*
X55420Y134737D01*
X55088Y135830D01*
X54550Y136838D01*
X53825Y137721D01*
X52942Y138446D01*
X51934Y138984D01*
X50841Y139316D01*
X49704Y139428D01*
X48567Y139316D01*
X47474Y138984D01*
X46466Y138446D01*
X45583Y137721D01*
X44858Y136838D01*
X44319Y135830D01*
X43988Y134737D01*
X43876Y133600D01*
Y123600D01*
X43988Y122463D01*
X44319Y121370D01*
X44858Y120362D01*
X45583Y119479D01*
X46466Y118754D01*
X47474Y118216D01*
X48567Y117884D01*
X49704Y117772D01*
X50841Y117884D01*
X51934Y118216D01*
X52942Y118754D01*
X53825Y119479D01*
X54550Y120362D01*
X55088Y121370D01*
X55420Y122463D01*
X55532Y123600D01*
Y126510D01*
X57484D01*
X58500Y125494D01*
Y119650D01*
X66474D01*
Y113681D01*
X66575Y113173D01*
X66863Y112743D01*
X70174Y109432D01*
Y107550D01*
X58500D01*
Y101250D01*
X57897Y100500D01*
X49818D01*
X49168Y100370D01*
X48616Y100002D01*
X47614Y99000D01*
X47000D01*
X46350Y98870D01*
X45798Y98502D01*
X43298Y96002D01*
X42930Y95450D01*
X42800Y94800D01*
Y93550D01*
X42125D01*
Y93098D01*
X40650D01*
Y93875D01*
X36075D01*
Y91214D01*
X36072Y91200D01*
X36075Y91186D01*
Y89125D01*
X38085D01*
X38162Y89110D01*
X38239Y89125D01*
X40650D01*
Y89427D01*
X42125D01*
Y88975D01*
X46875D01*
Y93550D01*
X46875D01*
X46653Y94550D01*
X47450Y95347D01*
X48450Y94988D01*
Y91925D01*
X48450D01*
X48350Y90967D01*
X47976D01*
Y85233D01*
X48785D01*
X49533Y84624D01*
Y78891D01*
Y77768D01*
X47624D01*
Y79367D01*
X46158D01*
Y80942D01*
X46058Y81449D01*
X45825Y81797D01*
Y82850D01*
X46875D01*
Y87425D01*
X42125D01*
Y82850D01*
X43174D01*
Y81275D01*
X43275Y80768D01*
X43407Y80571D01*
X43118Y79570D01*
X42509Y79567D01*
Y79567D01*
X39942D01*
Y76500D01*
Y73433D01*
X42509D01*
Y73633D01*
X47624D01*
Y75117D01*
X49533D01*
Y73576D01*
X55267D01*
Y76834D01*
X57429D01*
Y73914D01*
Y69170D01*
X34394D01*
X9613Y93951D01*
X9676Y94924D01*
X10278Y95707D01*
X10545Y96352D01*
X13737D01*
X14215Y96447D01*
X14620Y96718D01*
X31806Y113904D01*
X32076Y114309D01*
X32171Y114786D01*
Y123548D01*
X32662Y123920D01*
X33171Y124156D01*
X33600Y124071D01*
X34185Y124187D01*
X34681Y124519D01*
X34786Y124674D01*
X36546D01*
X37053Y124775D01*
X37483Y125063D01*
X42250Y129830D01*
X42537Y130260D01*
X42638Y130767D01*
Y143824D01*
X45032Y146218D01*
X45944Y146431D01*
Y146431D01*
X48782D01*
X49414Y146431D01*
Y146431D01*
X49782D01*
Y146431D01*
X53252D01*
Y146917D01*
X53447Y146956D01*
X53582Y147046D01*
X57066D01*
X57174Y146939D01*
X57609Y146648D01*
X58121Y146546D01*
X61075D01*
X61355Y146127D01*
X62125Y145358D01*
X62560Y145067D01*
X62817Y145016D01*
Y143079D01*
X69141D01*
Y143720D01*
X72659D01*
Y143079D01*
X78983D01*
Y145016D01*
X79240Y145067D01*
X79675Y145358D01*
X79923Y145605D01*
X81260Y145682D01*
X82060Y144882D01*
Y112443D01*
X82162Y111930D01*
X82453Y111495D01*
X100224Y93725D01*
X100658Y93434D01*
X101171Y93332D01*
X145857D01*
X146370Y93434D01*
X146804Y93725D01*
X159133Y106053D01*
X159424Y106488D01*
X159526Y107001D01*
Y124705D01*
X160095Y125341D01*
X160785Y125368D01*
X161633Y124561D01*
Y122543D01*
X164700D01*
Y122043D01*
X165200D01*
Y118976D01*
X169750D01*
Y122043D01*
X170750D01*
Y118976D01*
X175300D01*
Y122043D01*
X176300D01*
Y118976D01*
X181300D01*
Y122043D01*
X182300D01*
Y118976D01*
X184574D01*
Y115816D01*
X184487Y115685D01*
X184371Y115100D01*
X184487Y114515D01*
X184819Y114019D01*
X185315Y113687D01*
X185900Y113571D01*
X186485Y113687D01*
X186981Y114019D01*
X187313Y114515D01*
X187429Y115100D01*
X187313Y115685D01*
X187225Y115816D01*
Y118676D01*
X189300D01*
Y121742D01*
X190300D01*
Y118676D01*
X195000D01*
Y121742D01*
X196000D01*
Y118676D01*
X198567D01*
Y118918D01*
X200500D01*
Y121985D01*
X201000D01*
Y122485D01*
X204067D01*
Y125052D01*
X203867D01*
Y130167D01*
X203346D01*
X203192Y130269D01*
X202603Y131167D01*
X202629Y131300D01*
X202513Y131885D01*
X202181Y132381D01*
X201685Y132713D01*
X201100Y132829D01*
X200515Y132713D01*
X200019Y132381D01*
X199687Y131885D01*
X199571Y131300D01*
X199597Y131167D01*
X199008Y130269D01*
X198854Y130167D01*
X198133D01*
Y129924D01*
X190801D01*
X190725Y130307D01*
X190437Y130737D01*
X189137Y132037D01*
X188707Y132325D01*
X188200Y132425D01*
X177359D01*
X176910Y133124D01*
X177397Y133712D01*
X177410Y133710D01*
X177501D01*
Y136312D01*
Y138914D01*
X177410D01*
X176866Y138806D01*
X176405Y138498D01*
X175908Y138617D01*
X175442Y138710D01*
X174261D01*
X173795Y138617D01*
X173400Y138354D01*
X173153D01*
X172758Y138617D01*
X172292Y138710D01*
X171111D01*
X170645Y138617D01*
X170250Y138354D01*
X170003D01*
X169608Y138617D01*
X169142Y138710D01*
X167961D01*
X167496Y138617D01*
X166998Y138498D01*
X166537Y138806D01*
X165993Y138914D01*
X165902D01*
Y136312D01*
X164902D01*
Y138914D01*
X164812D01*
X164268Y138806D01*
X163807Y138498D01*
X163309Y138617D01*
X162843Y138710D01*
X161662D01*
X161196Y138617D01*
X160802Y138354D01*
X160554D01*
X160160Y138617D01*
X159694Y138710D01*
X158513D01*
X158047Y138617D01*
X157652Y138354D01*
X157388Y137959D01*
X157296Y137493D01*
Y135131D01*
X157388Y134665D01*
X157652Y134270D01*
X158047Y134006D01*
X158352Y133946D01*
X158424Y133837D01*
Y132694D01*
X155411Y129680D01*
X155120Y129245D01*
X155018Y128733D01*
Y108313D01*
X144545Y97840D01*
X102483D01*
X86568Y113755D01*
Y146194D01*
X86466Y146707D01*
X86175Y147142D01*
X82656Y150661D01*
X82221Y150952D01*
X81708Y151054D01*
X80725D01*
X80445Y151473D01*
X79675Y152242D01*
X79240Y152533D01*
X78983Y152584D01*
Y153697D01*
X101538D01*
X118752Y136483D01*
Y120395D01*
X118847Y119917D01*
X119118Y119512D01*
X123421Y115210D01*
X123479Y114918D01*
X123810Y114421D01*
X124306Y114090D01*
X124892Y113973D01*
X125477Y114090D01*
X125608Y114177D01*
X135355D01*
X135833Y113785D01*
Y109309D01*
X135633D01*
Y106743D01*
X138700D01*
X141767D01*
Y109309D01*
X142574Y109774D01*
X143984D01*
X144115Y109687D01*
X144700Y109571D01*
X145285Y109687D01*
X145781Y110019D01*
X146113Y110515D01*
X146229Y111100D01*
X146113Y111685D01*
X145781Y112181D01*
X145285Y112513D01*
X144700Y112629D01*
X144115Y112513D01*
X143984Y112425D01*
X141567D01*
Y114424D01*
X140010D01*
Y116284D01*
X140153D01*
Y118091D01*
X140653D01*
Y118591D01*
X142204D01*
Y118965D01*
X142516D01*
Y119038D01*
X142868Y119108D01*
X143298Y119396D01*
X148637Y124735D01*
X148925Y125165D01*
X149025Y125672D01*
Y142645D01*
X150025Y142744D01*
X150075Y142493D01*
X150363Y142063D01*
X151637Y140788D01*
X152068Y140501D01*
X152575Y140400D01*
X153828D01*
X153912Y140274D01*
X154307Y140010D01*
X154772Y139918D01*
X157135D01*
X157600Y140010D01*
X157995Y140274D01*
X158259Y140669D01*
X158352Y141135D01*
Y142316D01*
X158259Y142781D01*
X158046Y143300D01*
X158259Y143818D01*
X158352Y144284D01*
Y145465D01*
X158259Y145931D01*
X157995Y146326D01*
Y146573D01*
X158259Y146968D01*
X158352Y147434D01*
Y148615D01*
X158259Y149081D01*
X158046Y149599D01*
X158259Y150118D01*
X158352Y150584D01*
Y151765D01*
X158259Y152230D01*
X158139Y152728D01*
X158448Y153189D01*
X158556Y153733D01*
Y153824D01*
X155954D01*
Y154824D01*
X158556D01*
Y154914D01*
X158448Y155458D01*
X158139Y155919D01*
X158259Y156417D01*
X158352Y156883D01*
Y158064D01*
X158259Y158529D01*
X158046Y159048D01*
X158259Y159566D01*
X158352Y160032D01*
Y161213D01*
X158259Y161679D01*
X157995Y162074D01*
Y162321D01*
X158259Y162716D01*
X158352Y163182D01*
Y164363D01*
X158259Y164829D01*
X157995Y165224D01*
Y165471D01*
X158259Y165866D01*
X158352Y166332D01*
Y167513D01*
X158259Y167978D01*
X158046Y168497D01*
X158259Y169015D01*
X158352Y169481D01*
Y170662D01*
X158259Y171128D01*
X157995Y171523D01*
Y171770D01*
X158259Y172165D01*
X158352Y172631D01*
Y173812D01*
X158259Y174278D01*
X158046Y174796D01*
X158259Y175315D01*
X158352Y175780D01*
Y176961D01*
X158259Y177427D01*
X158255Y177434D01*
X158342Y177761D01*
X158791Y178402D01*
X159694D01*
X160160Y178495D01*
X160678Y178708D01*
X161196Y178495D01*
X161662Y178402D01*
X162843D01*
X163309Y178495D01*
X163704Y178758D01*
X163951D01*
X164346Y178495D01*
X164812Y178402D01*
X165993D01*
X166459Y178495D01*
X166977Y178708D01*
X167496Y178495D01*
X167961Y178402D01*
X169142D01*
X169608Y178495D01*
X170003Y178758D01*
X170250D01*
X170645Y178495D01*
X171111Y178402D01*
X172292D01*
X172758Y178495D01*
X173153Y178758D01*
X173400D01*
X173795Y178495D01*
X174261Y178402D01*
X175442D01*
X175908Y178495D01*
X176426Y178708D01*
X176944Y178495D01*
X177410Y178402D01*
X178591D01*
X179057Y178495D01*
X179452Y178758D01*
X179699D01*
X180094Y178495D01*
X180560Y178402D01*
X181741D01*
X182207Y178495D01*
X182601Y178758D01*
X182849D01*
X183244Y178495D01*
X183709Y178402D01*
X184891D01*
X185356Y178495D01*
X185854Y178614D01*
X186315Y178306D01*
X186859Y178198D01*
X186950D01*
Y180800D01*
Y183402D01*
X186859D01*
X186315Y183294D01*
X185854Y182986D01*
X185356Y183106D01*
X184891Y183198D01*
X183709D01*
X183244Y183106D01*
X182849Y182842D01*
X182601D01*
X182207Y183106D01*
X181741Y183198D01*
X180560D01*
X180094Y183106D01*
X179699Y182842D01*
X179452D01*
X179057Y183106D01*
X178591Y183198D01*
X177410D01*
X176944Y183106D01*
X176426Y182893D01*
X175908Y183106D01*
X175442Y183198D01*
X174261D01*
X174027Y183152D01*
X173291Y183558D01*
X173027Y183795D01*
Y191976D01*
X173967D01*
Y197091D01*
X174167D01*
Y199657D01*
X171100D01*
Y200157D01*
X170600D01*
Y203224D01*
X168033D01*
Y203224D01*
X167167Y203324D01*
Y203324D01*
X167075Y203324D01*
X164600D01*
Y200257D01*
X164100D01*
Y199758D01*
X161033D01*
Y197191D01*
X161033D01*
X160846Y196268D01*
X159357D01*
X158650Y196975D01*
X158650Y197700D01*
X158650Y198450D01*
Y203350D01*
X157425D01*
Y205584D01*
X157513Y205715D01*
X157629Y206300D01*
X157513Y206885D01*
X157181Y207381D01*
X156685Y207713D01*
X156100Y207829D01*
X155515Y207713D01*
X155019Y207381D01*
X154687Y206885D01*
X154571Y206300D01*
X154687Y205715D01*
X154774Y205584D01*
Y203350D01*
X153350D01*
Y198450D01*
X153350Y197700D01*
X153350Y196950D01*
Y192050D01*
X158650D01*
Y193617D01*
X161233D01*
Y192076D01*
X166967D01*
Y193714D01*
X168233D01*
Y191976D01*
X170376D01*
Y190161D01*
X169381Y189184D01*
X169313Y189185D01*
X168981Y189681D01*
X168485Y190013D01*
X167900Y190129D01*
X167315Y190013D01*
X166819Y189681D01*
X166487Y189185D01*
X166482Y189159D01*
X166219Y189079D01*
X165213Y189185D01*
X164881Y189681D01*
X164385Y190013D01*
X163800Y190129D01*
X163215Y190013D01*
X162719Y189681D01*
X162434Y189255D01*
X162327Y189169D01*
X161643Y188981D01*
X161313Y189185D01*
X160981Y189681D01*
X160485Y190013D01*
X159900Y190129D01*
X159315Y190013D01*
X158819Y189681D01*
X158487Y189185D01*
X158371Y188600D01*
X158487Y188015D01*
X158819Y187519D01*
X158883Y187476D01*
X158890Y187267D01*
X158820Y187099D01*
X157923Y186326D01*
X145906D01*
X145524Y187249D01*
X149137Y190863D01*
X149425Y191293D01*
X149525Y191800D01*
Y193260D01*
X150673D01*
Y197222D01*
X145727D01*
Y193260D01*
X146659D01*
X146785Y192260D01*
X140463Y185937D01*
X139263Y184737D01*
X138975Y184307D01*
X138874Y183800D01*
Y181350D01*
X137550D01*
Y176450D01*
X137550Y175700D01*
X137550Y174950D01*
Y170050D01*
X137550D01*
X137880Y169254D01*
X135063Y166437D01*
X134775Y166007D01*
X134675Y165500D01*
Y158752D01*
X134610Y158699D01*
X133610Y159174D01*
Y169950D01*
X134750D01*
Y174850D01*
X134750Y175600D01*
X134750Y176350D01*
Y181250D01*
X133425D01*
Y183751D01*
X141237Y191563D01*
X141525Y191993D01*
X141625Y192500D01*
Y193360D01*
X142773D01*
Y197322D01*
X137827D01*
Y196596D01*
X135911D01*
X135885Y196613D01*
X135300Y196729D01*
X134715Y196613D01*
X134219Y196281D01*
X133887Y195785D01*
X133771Y195200D01*
X133887Y194615D01*
X134219Y194119D01*
X134715Y193787D01*
X135300Y193671D01*
X135885Y193787D01*
X136122Y193945D01*
X137827D01*
Y193360D01*
X137871D01*
X138285Y192360D01*
X131163Y185237D01*
X130875Y184807D01*
X130774Y184300D01*
Y181250D01*
X129450D01*
Y176350D01*
X129450Y175600D01*
X129450Y174850D01*
Y169950D01*
X130959D01*
Y121702D01*
X130882Y121625D01*
X124319D01*
X123453Y122400D01*
X123337Y122985D01*
X123249Y123116D01*
Y137514D01*
X123148Y138021D01*
X122861Y138451D01*
X103706Y157606D01*
X103276Y157893D01*
X102769Y157994D01*
X46188D01*
X45680Y157893D01*
X45250Y157606D01*
X34663Y147018D01*
X34375Y146588D01*
X34275Y146081D01*
Y136949D01*
X28263Y130937D01*
X27975Y130507D01*
X27874Y130000D01*
Y120419D01*
X26875Y120220D01*
X26862Y120249D01*
X26419Y120827D01*
X25840Y121271D01*
X25167Y121550D01*
X24444Y121645D01*
X22869D01*
X22147Y121550D01*
X21473Y121271D01*
X20895Y120827D01*
X20451Y120249D01*
X20172Y119576D01*
X20077Y118853D01*
X20172Y118130D01*
X20451Y117457D01*
X20895Y116878D01*
X21473Y116435D01*
X22147Y116156D01*
X22869Y116060D01*
X24444D01*
X25167Y116156D01*
X25840Y116435D01*
X26419Y116878D01*
X26862Y117457D01*
X26875Y117486D01*
X27874Y117287D01*
Y116049D01*
X14651Y102825D01*
X8895D01*
X8450Y103010D01*
X7000Y103201D01*
X5550Y103010D01*
X5105Y102825D01*
X4886D01*
X4378Y102725D01*
X3949Y102437D01*
X3656Y102144D01*
X3655Y102144D01*
X2554Y101043D01*
X1554Y101457D01*
Y190970D01*
X1554Y191902D01*
X1798Y193750D01*
X2280Y195550D01*
X2993Y197272D01*
X3925Y198886D01*
X5060Y200365D01*
X6378Y201683D01*
X7857Y202818D01*
X9471Y203750D01*
X11193Y204463D01*
X12993Y204945D01*
X14841Y205189D01*
X15773Y205189D01*
X23647Y205189D01*
X23666Y205192D01*
X23685Y205189D01*
X25037Y205222D01*
X25093Y205235D01*
X25149Y205229D01*
X27841Y205494D01*
X27913Y205516D01*
X27989D01*
X30642Y206044D01*
X30712Y206073D01*
X30787Y206080D01*
X33375Y206865D01*
X33442Y206901D01*
X33517Y206916D01*
X36015Y207951D01*
X36078Y207993D01*
X36151Y208015D01*
X38536Y209290D01*
X38595Y209338D01*
X38665Y209367D01*
X40914Y210870D01*
X40967Y210923D01*
X41034Y210959D01*
X43125Y212675D01*
X43173Y212734D01*
X43236Y212776D01*
X45148Y214688D01*
X45191Y214751D01*
X45249Y214799D01*
X46965Y216890D01*
X47001Y216957D01*
X47054Y217010D01*
X48557Y219259D01*
X48586Y219329D01*
X48634Y219388D01*
X49909Y221773D01*
X49931Y221846D01*
X49973Y221909D01*
X51008Y224407D01*
X51023Y224482D01*
X51059Y224549D01*
X51844Y227137D01*
X51851Y227212D01*
X51880Y227282D01*
X52408Y229935D01*
Y230011D01*
X52430Y230083D01*
X52695Y232775D01*
X52689Y232832D01*
X52702Y232887D01*
X52735Y234239D01*
X52732Y234258D01*
X52736Y234277D01*
X52736Y240182D01*
X52736Y241114D01*
X52979Y242962D01*
X53461Y244763D01*
X54174Y246485D01*
X55106Y248099D01*
X56241Y249578D01*
X57559Y250896D01*
X59038Y252030D01*
X60652Y252962D01*
X62374Y253676D01*
X64174Y254158D01*
X66022Y254401D01*
X66954D01*
X86684D01*
X86684Y219200D01*
X86746Y218888D01*
X86923Y218623D01*
X87188Y218446D01*
X87500Y218384D01*
X189318Y218384D01*
Y215801D01*
X188318Y215014D01*
X188150Y215050D01*
X187533Y215050D01*
X185750D01*
Y212200D01*
Y209350D01*
X187533D01*
X188150Y209350D01*
X188443Y209414D01*
X189443Y208686D01*
Y206916D01*
X188627D01*
Y202954D01*
X193573D01*
Y206916D01*
X192807D01*
Y209550D01*
X193850D01*
Y214850D01*
X192682D01*
Y218384D01*
X286300Y218384D01*
X286612Y218446D01*
X286877Y218623D01*
X287054Y218888D01*
X287116Y219200D01*
X287116Y254401D01*
X318923D01*
X319855D01*
X321703Y254158D01*
D02*
G37*
G36*
X157352Y183294D02*
X157540Y182675D01*
X157388Y182447D01*
X157296Y181981D01*
Y179619D01*
X157388Y179153D01*
X157392Y179147D01*
X157305Y178819D01*
X156857Y178179D01*
X154772D01*
X154307Y178086D01*
X154044Y177911D01*
X151088D01*
X150785Y178113D01*
X150200Y178229D01*
X149615Y178113D01*
X149119Y177781D01*
X148787Y177285D01*
X148671Y176700D01*
X148787Y176115D01*
X149119Y175619D01*
X149288Y175506D01*
X149306Y175456D01*
Y174444D01*
X149288Y174394D01*
X149119Y174281D01*
X148787Y173785D01*
X148671Y173200D01*
X148787Y172615D01*
X148956Y172361D01*
X148867Y172119D01*
X148185Y171413D01*
X147600Y171529D01*
X147015Y171413D01*
X146519Y171081D01*
X146187Y170585D01*
X146071Y170000D01*
X146187Y169415D01*
X146189Y169412D01*
X145806Y168741D01*
X145500Y168529D01*
X144915Y168413D01*
X144419Y168081D01*
X144087Y167585D01*
X143971Y167000D01*
X144087Y166415D01*
X144375Y165984D01*
Y134107D01*
X143734Y133756D01*
X143367Y134073D01*
Y135458D01*
X137233D01*
Y132891D01*
X137433D01*
Y130219D01*
X137337Y130200D01*
X136907Y129913D01*
X134610Y127615D01*
X133610Y128030D01*
Y156378D01*
X134517Y156564D01*
X134610Y156545D01*
X134919Y156082D01*
X135415Y155751D01*
X136000Y155635D01*
X136585Y155751D01*
X137081Y156082D01*
X137413Y156579D01*
X137529Y157164D01*
X137413Y157749D01*
X137326Y157880D01*
Y164951D01*
X141337Y168963D01*
X141625Y169393D01*
X141726Y169900D01*
Y170050D01*
X142850D01*
Y174950D01*
X142850Y175700D01*
X142850Y176450D01*
Y181350D01*
X141525D01*
Y183251D01*
X141949Y183675D01*
X157098D01*
X157352Y183294D01*
D02*
G37*
G36*
X344785Y150141D02*
X345215Y149853D01*
X345722Y149752D01*
X346422D01*
Y146239D01*
X350778D01*
Y146698D01*
X354099D01*
Y145618D01*
X354177Y145228D01*
X354330Y144999D01*
X354213Y144532D01*
X353942Y143999D01*
X352522D01*
X352522Y143999D01*
X352015Y143898D01*
X351585Y143611D01*
X350148Y142173D01*
X348060D01*
Y139628D01*
X347060Y139530D01*
X347025Y139707D01*
X346737Y140137D01*
X343085Y143790D01*
Y148927D01*
X343740D01*
Y149771D01*
X344740Y150185D01*
X344785Y150141D01*
D02*
G37*
G36*
X216074Y131038D02*
Y104125D01*
X200752D01*
X200369Y105049D01*
X211937Y116617D01*
X212225Y117047D01*
X212326Y117554D01*
Y129151D01*
X212499Y129346D01*
X213326Y129840D01*
X213581Y129789D01*
X214167Y129906D01*
X214663Y130237D01*
X214994Y130733D01*
X215074Y131136D01*
X216074Y131038D01*
D02*
G37*
G36*
X218074Y91493D02*
Y84777D01*
X207163Y73866D01*
X206875Y73436D01*
X206873Y73422D01*
X205873Y73520D01*
Y80598D01*
X217151Y91876D01*
X218074Y91493D01*
D02*
G37*
G36*
X90762Y69107D02*
X91269Y69006D01*
X93725D01*
Y67975D01*
X98475D01*
Y68937D01*
X99703D01*
X100016Y68875D01*
X141693D01*
X142076Y67951D01*
X127051Y52925D01*
X87758D01*
X86963Y53679D01*
X87020Y54343D01*
X91601D01*
X91976Y54093D01*
X92600Y53969D01*
X93224Y54093D01*
X93753Y54447D01*
X94107Y54976D01*
X94231Y55600D01*
X94107Y56224D01*
X93753Y56753D01*
X93224Y57107D01*
X92600Y57231D01*
X91976Y57107D01*
X91807Y56994D01*
X87454D01*
X87236Y57994D01*
X87450Y58138D01*
X92125Y62812D01*
X93725D01*
Y61850D01*
X98475D01*
Y62868D01*
X100438D01*
X100626Y62743D01*
X101250Y62619D01*
X101874Y62743D01*
X102403Y63096D01*
X102757Y63626D01*
X102881Y64250D01*
X102757Y64874D01*
X102403Y65403D01*
X101874Y65757D01*
X101250Y65881D01*
X100626Y65757D01*
X100270Y65519D01*
X98475D01*
Y66425D01*
X93725D01*
Y65463D01*
X91576D01*
X91069Y65362D01*
X90639Y65075D01*
X87699Y62135D01*
X86775Y62517D01*
Y64150D01*
X85592D01*
Y66237D01*
X87971D01*
Y69116D01*
X90748D01*
X90762Y69107D01*
D02*
G37*
%LPC*%
G36*
X306974Y252231D02*
X304407D01*
Y247400D01*
X306974D01*
Y252231D01*
D02*
G37*
G36*
X295360D02*
X292793D01*
Y247400D01*
X295360D01*
Y252231D01*
D02*
G37*
G36*
X303407D02*
X300840D01*
Y247400D01*
X303407D01*
Y252231D01*
D02*
G37*
G36*
X291793D02*
X289226D01*
Y247400D01*
X291793D01*
Y252231D01*
D02*
G37*
G36*
X306974Y246400D02*
X304407D01*
Y241569D01*
X306974D01*
Y246400D01*
D02*
G37*
G36*
X291793D02*
X289226D01*
Y241569D01*
X291793D01*
Y246400D01*
D02*
G37*
G36*
X318600Y248733D02*
X317267Y248602D01*
X315985Y248213D01*
X314804Y247581D01*
X313768Y246732D01*
X312919Y245696D01*
X312287Y244515D01*
X311898Y243233D01*
X311767Y241900D01*
X311898Y240567D01*
X312287Y239285D01*
X312919Y238104D01*
X313768Y237068D01*
X314804Y236219D01*
X315985Y235587D01*
X317267Y235198D01*
X318600Y235067D01*
X319933Y235198D01*
X321215Y235587D01*
X322396Y236219D01*
X323432Y237068D01*
X324281Y238104D01*
X324913Y239285D01*
X325302Y240567D01*
X325433Y241900D01*
X325302Y243233D01*
X324913Y244515D01*
X324281Y245696D01*
X323432Y246732D01*
X322396Y247581D01*
X321215Y248213D01*
X319933Y248602D01*
X318600Y248733D01*
D02*
G37*
G36*
X65900D02*
X64567Y248602D01*
X63285Y248213D01*
X62104Y247581D01*
X61068Y246732D01*
X60219Y245696D01*
X59587Y244515D01*
X59198Y243233D01*
X59067Y241900D01*
X59198Y240567D01*
X59587Y239285D01*
X60219Y238104D01*
X61068Y237068D01*
X62104Y236219D01*
X63285Y235587D01*
X64567Y235198D01*
X65900Y235067D01*
X67233Y235198D01*
X68515Y235587D01*
X69696Y236219D01*
X70732Y237068D01*
X71581Y238104D01*
X72213Y239285D01*
X72602Y240567D01*
X72733Y241900D01*
X72602Y243233D01*
X72213Y244515D01*
X71581Y245696D01*
X70732Y246732D01*
X69696Y247581D01*
X68515Y248213D01*
X67233Y248602D01*
X65900Y248733D01*
D02*
G37*
G36*
X295360Y246400D02*
X292793D01*
Y241569D01*
X295332D01*
Y238029D01*
X296418D01*
Y225597D01*
X286003Y215182D01*
X263446D01*
X263446Y215182D01*
X262802Y215054D01*
X262256Y214690D01*
X262256Y214690D01*
X249066Y201500D01*
X193573D01*
Y201798D01*
X188627D01*
Y197836D01*
X189193D01*
Y196640D01*
X188193Y196032D01*
X187650Y196150D01*
X187033Y196150D01*
X185250D01*
Y193300D01*
Y190450D01*
X187033D01*
X187650Y190450D01*
X187933Y190512D01*
X188933Y189779D01*
Y184172D01*
X188040Y183402D01*
X187950D01*
Y180800D01*
Y178198D01*
X188040D01*
X188584Y178306D01*
X189045Y178614D01*
X189543Y178495D01*
X190009Y178402D01*
X191190D01*
X191656Y178495D01*
X192154Y178614D01*
X192614Y178306D01*
X193158Y178198D01*
X193249D01*
Y180800D01*
Y183402D01*
X193158D01*
X192297Y184193D01*
Y190650D01*
X193350D01*
Y195950D01*
X192557D01*
Y197836D01*
X193573D01*
Y198135D01*
X249763D01*
X250407Y198263D01*
X250952Y198627D01*
X264142Y211818D01*
X286700D01*
X287344Y211946D01*
X287890Y212310D01*
X299290Y223710D01*
X299290Y223710D01*
X299654Y224256D01*
X299782Y224900D01*
Y238029D01*
X300869D01*
Y241569D01*
X303407D01*
Y246400D01*
X300840D01*
Y243763D01*
X295360D01*
Y246400D01*
D02*
G37*
G36*
X184750Y215050D02*
X182350D01*
Y212700D01*
X184750D01*
Y215050D01*
D02*
G37*
G36*
Y211700D02*
X182350D01*
Y209350D01*
X184750D01*
Y211700D01*
D02*
G37*
G36*
X93685Y207267D02*
X91118D01*
Y204700D01*
X93685D01*
Y207267D01*
D02*
G37*
G36*
X75283Y206373D02*
X73602D01*
Y204200D01*
X75283D01*
Y206373D01*
D02*
G37*
G36*
X97252Y207267D02*
X94685D01*
Y204200D01*
Y201133D01*
X97252D01*
Y201333D01*
X99507D01*
Y195036D01*
X98753D01*
Y189302D01*
X99507D01*
Y178698D01*
X98753D01*
Y172964D01*
X102912D01*
Y178698D01*
X102158D01*
Y189302D01*
X102912D01*
Y195036D01*
X102158D01*
Y201333D01*
X102367D01*
Y202574D01*
X106184D01*
X106315Y202487D01*
X106900Y202371D01*
X107485Y202487D01*
X107981Y202819D01*
X108313Y203315D01*
X108429Y203900D01*
X108313Y204485D01*
X107981Y204981D01*
X107485Y205313D01*
X106900Y205429D01*
X106315Y205313D01*
X106184Y205225D01*
X102367D01*
Y207067D01*
X97252D01*
Y207267D01*
D02*
G37*
G36*
X332046Y215125D02*
X318616D01*
X318109Y215025D01*
X317679Y214737D01*
X310391Y207450D01*
X290550D01*
X290042Y207349D01*
X289612Y207062D01*
X288100Y205550D01*
X285225D01*
Y204638D01*
X283075D01*
Y205650D01*
X278325D01*
Y201075D01*
X283075D01*
Y201987D01*
X285225D01*
Y200975D01*
X288177D01*
X288569Y200068D01*
X288045Y199425D01*
X285225D01*
Y194850D01*
X289975D01*
Y197113D01*
X290333Y197383D01*
X291333Y196885D01*
Y194576D01*
X292539D01*
Y191596D01*
X292520Y191500D01*
X292640Y190895D01*
X292983Y190383D01*
X293495Y190040D01*
X294100Y189920D01*
X294370Y189677D01*
X294403Y188347D01*
X290363Y184307D01*
X290075Y183877D01*
X289974Y183370D01*
Y166950D01*
X287225D01*
Y162375D01*
X291975D01*
Y163287D01*
X293425D01*
Y162275D01*
X298175D01*
Y166850D01*
X295111D01*
X294829Y167850D01*
X295081Y168019D01*
X295413Y168515D01*
X295529Y169100D01*
X295413Y169685D01*
X295325Y169816D01*
Y172350D01*
X297550D01*
Y177750D01*
X297550D01*
Y178250D01*
X297550D01*
Y180576D01*
X299349Y182375D01*
X304300D01*
X304807Y182475D01*
X305237Y182763D01*
X307308Y184833D01*
X310224D01*
Y186374D01*
X311893D01*
Y186172D01*
X317627D01*
Y189347D01*
X311893D01*
Y189025D01*
X310224D01*
Y190567D01*
X304935D01*
Y192160D01*
X305431Y192656D01*
X305585Y192687D01*
X306081Y193019D01*
X306413Y193515D01*
X306529Y194100D01*
X306413Y194685D01*
X306081Y195181D01*
X305585Y195513D01*
X305000Y195629D01*
X304415Y195513D01*
X303919Y195181D01*
X303587Y194685D01*
X303556Y194531D01*
X302672Y193647D01*
X302385Y193217D01*
X302284Y192709D01*
Y190567D01*
X299176D01*
Y185026D01*
X298800D01*
X298293Y184925D01*
X297863Y184637D01*
X296876Y183650D01*
X294761D01*
X294378Y184574D01*
X297252Y187448D01*
X297540Y187878D01*
X297640Y188385D01*
Y190937D01*
X309703Y202999D01*
X311686D01*
X312193Y203100D01*
X312623Y203387D01*
X319511Y210275D01*
X330388D01*
X330489Y210124D01*
X329954Y209124D01*
X326933D01*
Y207800D01*
X324219D01*
X323614Y207679D01*
X323102Y207337D01*
X323082Y207317D01*
X322740Y206805D01*
X322620Y206200D01*
X322740Y205595D01*
X323082Y205083D01*
X323595Y204740D01*
X324200Y204620D01*
X324296Y204639D01*
X326933D01*
Y202225D01*
X324816D01*
X324685Y202313D01*
X324100Y202429D01*
X323515Y202313D01*
X323019Y201981D01*
X322687Y201485D01*
X322571Y200900D01*
X322687Y200315D01*
X323019Y199819D01*
X323515Y199487D01*
X324100Y199371D01*
X324685Y199487D01*
X324816Y199574D01*
X326933D01*
Y198076D01*
X328574D01*
Y195334D01*
X328529Y195325D01*
X328198Y195103D01*
X327977Y194772D01*
X327899Y194382D01*
Y189075D01*
X327977Y188684D01*
X328198Y188353D01*
X328529Y188132D01*
X328920Y188054D01*
X329252D01*
X329685Y187085D01*
X329247Y186525D01*
X325107D01*
Y189347D01*
X323566D01*
Y190843D01*
X323810Y191209D01*
X323940Y191860D01*
X323810Y192510D01*
X323442Y193062D01*
X323402Y193102D01*
X322850Y193470D01*
X322200Y193600D01*
X321550Y193470D01*
X320998Y193102D01*
X320630Y192550D01*
X320500Y191900D01*
X320630Y191250D01*
X320915Y190823D01*
Y189347D01*
X319373D01*
Y186172D01*
Y183613D01*
Y181053D01*
X320915D01*
Y175360D01*
X321016Y174853D01*
X321303Y174423D01*
X325763Y169963D01*
X326193Y169675D01*
X326700Y169574D01*
X327899D01*
Y167618D01*
X327977Y167228D01*
X328198Y166897D01*
X328529Y166675D01*
X328920Y166598D01*
X330880D01*
X331271Y166675D01*
X331602Y166897D01*
X331823Y167228D01*
X331901Y167618D01*
X332899D01*
X332977Y167228D01*
X333198Y166897D01*
X333529Y166675D01*
X333575Y166666D01*
Y165325D01*
X329153D01*
X328645Y165225D01*
X328215Y164937D01*
X327135Y163857D01*
X326915Y163813D01*
X326419Y163481D01*
X326087Y162985D01*
X325971Y162400D01*
X326087Y161815D01*
X326419Y161319D01*
X326857Y161026D01*
X326869Y160952D01*
X326382Y160026D01*
X325786D01*
X325279Y159925D01*
X324849Y159637D01*
X323263Y158052D01*
X322975Y157622D01*
X322874Y157114D01*
Y153940D01*
X321727D01*
Y149978D01*
X326673D01*
Y150634D01*
X327933D01*
Y148791D01*
Y143476D01*
X328279D01*
X328450Y143351D01*
X329006Y142476D01*
X328971Y142300D01*
X329087Y141715D01*
X329419Y141219D01*
X329915Y140887D01*
X330500Y140771D01*
X331085Y140887D01*
X331581Y141219D01*
X331913Y141715D01*
X332029Y142300D01*
X331995Y142476D01*
X332550Y143351D01*
X332721Y143476D01*
X333667D01*
Y148910D01*
X334660Y148927D01*
Y148927D01*
X338622D01*
Y153873D01*
X334660D01*
Y153873D01*
X333667Y153890D01*
Y154524D01*
X327933D01*
Y153285D01*
X326673D01*
Y153940D01*
X325525D01*
Y156565D01*
X326335Y157375D01*
X339360D01*
Y155427D01*
X343322D01*
Y160373D01*
X339360D01*
Y160026D01*
X328618D01*
X328131Y160952D01*
X328143Y161026D01*
X328581Y161319D01*
X328913Y161815D01*
X328931Y161903D01*
X329702Y162674D01*
X357600D01*
X358107Y162775D01*
X358537Y163063D01*
X361529Y166054D01*
X362080D01*
X362471Y166132D01*
X362802Y166353D01*
X363023Y166684D01*
X363101Y167075D01*
X364099D01*
X364177Y166684D01*
X364398Y166353D01*
X364729Y166132D01*
X365120Y166054D01*
X367080D01*
X367471Y166132D01*
X367802Y166353D01*
X368023Y166684D01*
X368101Y167075D01*
X369099D01*
X369177Y166684D01*
X369398Y166353D01*
X369729Y166132D01*
X370120Y166054D01*
X372080D01*
X372471Y166132D01*
X372802Y166353D01*
X373023Y166684D01*
X373101Y167075D01*
Y172382D01*
X373023Y172772D01*
X372802Y173103D01*
X372471Y173325D01*
X372099Y173399D01*
Y178516D01*
X373433D01*
Y176576D01*
X374974D01*
Y166149D01*
X371851Y163025D01*
X364100D01*
X363593Y162925D01*
X363163Y162637D01*
X359751Y159225D01*
X348440D01*
Y160373D01*
X344478D01*
Y155427D01*
X348440D01*
Y156574D01*
X360300D01*
X360807Y156675D01*
X361237Y156963D01*
X364649Y160374D01*
X372400D01*
X372907Y160475D01*
X373337Y160763D01*
X377237Y164663D01*
X377525Y165093D01*
X377625Y165600D01*
Y176576D01*
X379167D01*
Y181891D01*
Y187624D01*
X377699D01*
Y192281D01*
X377579Y192886D01*
X377237Y193398D01*
X377218Y193418D01*
X376705Y193760D01*
X376100Y193880D01*
X375495Y193760D01*
X374983Y193418D01*
X374640Y192905D01*
X374520Y192300D01*
X374539Y192204D01*
Y187624D01*
X373433D01*
Y181166D01*
X372073D01*
Y181822D01*
X367127D01*
Y177860D01*
X369448D01*
Y173137D01*
X369398Y173103D01*
X369177Y172772D01*
X369099Y172382D01*
X368101D01*
X368023Y172772D01*
X367802Y173103D01*
X367471Y173325D01*
X367080Y173402D01*
X365120D01*
X364729Y173325D01*
X364398Y173103D01*
X364177Y172772D01*
X364099Y172382D01*
X363101D01*
X363023Y172772D01*
X362802Y173103D01*
X362471Y173325D01*
X362080Y173402D01*
X360120D01*
X359729Y173325D01*
X359398Y173103D01*
X359177Y172772D01*
X359099Y172382D01*
X358101D01*
X358023Y172772D01*
X357802Y173103D01*
X357471Y173325D01*
X357425Y173334D01*
Y175876D01*
X358967D01*
Y177875D01*
X360284D01*
X360415Y177787D01*
X361000Y177671D01*
X361585Y177787D01*
X362081Y178119D01*
X362413Y178615D01*
X362529Y179200D01*
X362413Y179785D01*
X362081Y180281D01*
X361585Y180613D01*
X361000Y180729D01*
X360415Y180613D01*
X360284Y180526D01*
X358967D01*
Y184689D01*
X363298Y189021D01*
X363641Y189534D01*
X363761Y190138D01*
Y192204D01*
X363780Y192300D01*
X363660Y192905D01*
X363317Y193418D01*
X362805Y193760D01*
X362200Y193880D01*
X361595Y193760D01*
X361083Y193418D01*
X361063Y193398D01*
X360721Y192886D01*
X360600Y192281D01*
Y190793D01*
X356732Y186924D01*
X353233D01*
Y184111D01*
X351886D01*
X351379Y184010D01*
X350949Y183723D01*
X343963Y176737D01*
X343675Y176307D01*
X343575Y175800D01*
Y173877D01*
X343529Y173868D01*
X343198Y173647D01*
X342977Y173316D01*
X342899Y172925D01*
X341901D01*
X341823Y173316D01*
X341602Y173647D01*
X341271Y173868D01*
X341226Y173877D01*
Y180305D01*
X348318Y187398D01*
X348606Y187828D01*
X348707Y188336D01*
Y195319D01*
X348606Y195826D01*
X348318Y196256D01*
X343025Y201549D01*
Y204146D01*
X342925Y204653D01*
X342637Y205083D01*
X332983Y214737D01*
X332553Y215025D01*
X332046Y215125D01*
D02*
G37*
G36*
X93685Y203700D02*
X91118D01*
Y201133D01*
X93685D01*
Y203700D01*
D02*
G37*
G36*
X75283Y203200D02*
X73602D01*
Y201027D01*
X75283D01*
Y203200D01*
D02*
G37*
G36*
X72602Y206373D02*
X70920D01*
Y206280D01*
X69965Y206173D01*
X69920Y206173D01*
X66002D01*
Y201227D01*
X66171D01*
Y194136D01*
X64931D01*
Y188402D01*
X65685D01*
Y177798D01*
X64931D01*
Y172064D01*
X65630D01*
Y170199D01*
X65487Y169985D01*
X65371Y169400D01*
X65487Y168815D01*
X65819Y168319D01*
X66315Y167987D01*
X66900Y167871D01*
X67485Y167987D01*
X67981Y168319D01*
X68313Y168815D01*
X68429Y169400D01*
X68313Y169985D01*
X68281Y170034D01*
Y172064D01*
X69090D01*
Y177798D01*
X68336D01*
Y188402D01*
X69090D01*
Y194136D01*
X68822D01*
Y201227D01*
X69920D01*
X69965Y201227D01*
X70920Y201120D01*
Y201027D01*
X72602D01*
Y203700D01*
Y206373D01*
D02*
G37*
G36*
X163600Y203324D02*
X161033D01*
Y200758D01*
X163600D01*
Y203324D01*
D02*
G37*
G36*
X174167Y203224D02*
X171600D01*
Y200658D01*
X174167D01*
Y203224D01*
D02*
G37*
G36*
X140200Y207829D02*
X139615Y207713D01*
X139119Y207381D01*
X138787Y206885D01*
X138671Y206300D01*
X138787Y205715D01*
X138874Y205584D01*
Y202440D01*
X137827D01*
Y198478D01*
X142773D01*
Y202440D01*
X141525D01*
Y205584D01*
X141613Y205715D01*
X141729Y206300D01*
X141613Y206885D01*
X141281Y207381D01*
X140785Y207713D01*
X140200Y207829D01*
D02*
G37*
G36*
X148200D02*
X147615Y207713D01*
X147119Y207381D01*
X146787Y206885D01*
X146671Y206300D01*
X146787Y205715D01*
X146874Y205584D01*
Y202340D01*
X145727D01*
Y198378D01*
X150673D01*
Y202340D01*
X149525D01*
Y205584D01*
X149613Y205715D01*
X149729Y206300D01*
X149613Y206885D01*
X149281Y207381D01*
X148785Y207713D01*
X148200Y207829D01*
D02*
G37*
G36*
X80500Y201129D02*
X79915Y201013D01*
X79419Y200681D01*
X79087Y200185D01*
X79056Y200031D01*
X74799Y195773D01*
X74512Y195343D01*
X74411Y194836D01*
Y194136D01*
X73395D01*
Y188402D01*
X74149D01*
Y177798D01*
X73395D01*
Y172064D01*
X77554D01*
Y177798D01*
X76800D01*
Y188402D01*
X77554D01*
Y194136D01*
X77554D01*
X77806Y195032D01*
X80931Y198156D01*
X81085Y198187D01*
X81581Y198519D01*
X81913Y199015D01*
X82029Y199600D01*
X81913Y200185D01*
X81581Y200681D01*
X81085Y201013D01*
X80500Y201129D01*
D02*
G37*
G36*
X184250Y196150D02*
X181850D01*
Y193800D01*
X184250D01*
Y196150D01*
D02*
G37*
G36*
X94647Y195236D02*
X92868D01*
Y192669D01*
X94647D01*
Y195236D01*
D02*
G37*
G36*
X91868D02*
X90088D01*
Y192669D01*
X91868D01*
Y195236D01*
D02*
G37*
G36*
X184250Y192800D02*
X181850D01*
Y190450D01*
X184250D01*
Y192800D01*
D02*
G37*
G36*
X283075Y199525D02*
X278325D01*
Y194950D01*
X279039D01*
Y190996D01*
X279020Y190900D01*
X279140Y190295D01*
X279483Y189783D01*
X279995Y189440D01*
X280600Y189320D01*
X281205Y189440D01*
X281717Y189783D01*
X281737Y189802D01*
X282079Y190314D01*
X282200Y190919D01*
Y194950D01*
X283075D01*
Y199525D01*
D02*
G37*
G36*
X94647Y191669D02*
X92868D01*
Y189102D01*
X94647D01*
Y191669D01*
D02*
G37*
G36*
X91868D02*
X90088D01*
Y189102D01*
X91868D01*
Y191669D01*
D02*
G37*
G36*
X7000Y192485D02*
X6020Y192356D01*
X5107Y191978D01*
X4324Y191376D01*
X3722Y190593D01*
X3344Y189680D01*
X3215Y188700D01*
X3344Y187720D01*
X3722Y186807D01*
X4324Y186023D01*
X5107Y185422D01*
X6020Y185044D01*
X7000Y184915D01*
X7980Y185044D01*
X8893Y185422D01*
X9676Y186023D01*
X10278Y186807D01*
X10656Y187720D01*
X10785Y188700D01*
X10656Y189680D01*
X10278Y190593D01*
X9676Y191376D01*
X8893Y191978D01*
X7980Y192356D01*
X7000Y192485D01*
D02*
G37*
G36*
X369000Y193880D02*
X368395Y193760D01*
X367882Y193418D01*
X367540Y192905D01*
X367420Y192300D01*
X367439Y192204D01*
Y186940D01*
X367127D01*
Y182978D01*
X372073D01*
Y186940D01*
X370600D01*
Y192281D01*
X370479Y192886D01*
X370137Y193398D01*
X370117Y193418D01*
X369605Y193760D01*
X369000Y193880D01*
D02*
G37*
G36*
X194339Y183402D02*
X194249D01*
Y181300D01*
X195760D01*
Y181981D01*
X195652Y182525D01*
X195344Y182986D01*
X194883Y183294D01*
X194339Y183402D01*
D02*
G37*
G36*
X317627Y184228D02*
X311893D01*
Y181053D01*
X313147D01*
Y178324D01*
X311533D01*
Y176725D01*
X309116D01*
X308985Y176813D01*
X308400Y176929D01*
X307815Y176813D01*
X307319Y176481D01*
X306987Y175985D01*
X306871Y175400D01*
X306987Y174815D01*
X307319Y174319D01*
X307815Y173987D01*
X308400Y173871D01*
X308985Y173987D01*
X309116Y174074D01*
X311533D01*
Y171425D01*
X309116D01*
X308985Y171513D01*
X308400Y171629D01*
X307815Y171513D01*
X307319Y171181D01*
X306987Y170685D01*
X306871Y170100D01*
X306987Y169515D01*
X307319Y169019D01*
X307815Y168687D01*
X308400Y168571D01*
X308985Y168687D01*
X309116Y168774D01*
X311533D01*
Y167276D01*
X317267D01*
Y172591D01*
Y178324D01*
X315798D01*
Y181053D01*
X317627D01*
Y184228D01*
D02*
G37*
G36*
X94647Y178898D02*
X92868D01*
Y176331D01*
X94647D01*
Y178898D01*
D02*
G37*
G36*
X91868D02*
X90088D01*
Y176331D01*
X91868D01*
Y178898D01*
D02*
G37*
G36*
X7000Y182485D02*
X6020Y182356D01*
X5107Y181978D01*
X4324Y181377D01*
X3722Y180593D01*
X3344Y179680D01*
X3215Y178700D01*
X3344Y177720D01*
X3722Y176807D01*
X4324Y176023D01*
X5107Y175422D01*
X6020Y175044D01*
X7000Y174915D01*
X7980Y175044D01*
X8893Y175422D01*
X9676Y176023D01*
X10278Y176807D01*
X10656Y177720D01*
X10785Y178700D01*
X10656Y179680D01*
X10278Y180593D01*
X9676Y181377D01*
X8893Y181978D01*
X7980Y182356D01*
X7000Y182485D01*
D02*
G37*
G36*
X94647Y175331D02*
X92868D01*
Y172764D01*
X94647D01*
Y175331D01*
D02*
G37*
G36*
X91868D02*
X90088D01*
Y172764D01*
X91868D01*
Y175331D01*
D02*
G37*
G36*
X188926Y172377D02*
X186768D01*
Y168898D01*
X190247D01*
Y171056D01*
X190146Y171561D01*
X189860Y171990D01*
X189431Y172276D01*
X188926Y172377D01*
D02*
G37*
G36*
X179083D02*
X176926D01*
Y168898D01*
X180404D01*
Y171056D01*
X180304Y171561D01*
X180017Y171990D01*
X179589Y172276D01*
X179083Y172377D01*
D02*
G37*
G36*
X169241D02*
X167084D01*
Y168898D01*
X170562D01*
Y171056D01*
X170461Y171561D01*
X170175Y171990D01*
X169746Y172276D01*
X169241Y172377D01*
D02*
G37*
G36*
X185768D02*
X183611D01*
X183106Y172276D01*
X182677Y171990D01*
X182391Y171561D01*
X182290Y171056D01*
Y168898D01*
X185768D01*
Y172377D01*
D02*
G37*
G36*
X175926D02*
X173768D01*
X173263Y172276D01*
X172835Y171990D01*
X172548Y171561D01*
X172448Y171056D01*
Y168898D01*
X175926D01*
Y172377D01*
D02*
G37*
G36*
X166084D02*
X163926D01*
X163421Y172276D01*
X162992Y171990D01*
X162706Y171561D01*
X162605Y171056D01*
Y168898D01*
X166084D01*
Y172377D01*
D02*
G37*
G36*
X7000Y172485D02*
X6020Y172356D01*
X5107Y171978D01*
X4324Y171377D01*
X3722Y170593D01*
X3344Y169680D01*
X3215Y168700D01*
X3344Y167720D01*
X3722Y166807D01*
X4324Y166024D01*
X5107Y165422D01*
X6020Y165044D01*
X7000Y164915D01*
X7980Y165044D01*
X8893Y165422D01*
X9676Y166024D01*
X10278Y166807D01*
X10656Y167720D01*
X10785Y168700D01*
X10656Y169680D01*
X10278Y170593D01*
X9676Y171377D01*
X8893Y171978D01*
X7980Y172356D01*
X7000Y172485D01*
D02*
G37*
G36*
X190247Y167898D02*
X186768D01*
Y164420D01*
X188926D01*
X189431Y164521D01*
X189860Y164807D01*
X190146Y165236D01*
X190247Y165741D01*
Y167898D01*
D02*
G37*
G36*
X185768D02*
X182290D01*
Y165741D01*
X182391Y165236D01*
X182677Y164807D01*
X183106Y164521D01*
X183611Y164420D01*
X185768D01*
Y167898D01*
D02*
G37*
G36*
X180404D02*
X176926D01*
Y164420D01*
X179083D01*
X179589Y164521D01*
X180017Y164807D01*
X180304Y165236D01*
X180404Y165741D01*
Y167898D01*
D02*
G37*
G36*
X175926D02*
X172448D01*
Y165741D01*
X172548Y165236D01*
X172835Y164807D01*
X173263Y164521D01*
X173768Y164420D01*
X175926D01*
Y167898D01*
D02*
G37*
G36*
X170562D02*
X167084D01*
Y164420D01*
X169241D01*
X169746Y164521D01*
X170175Y164807D01*
X170461Y165236D01*
X170562Y165741D01*
Y167898D01*
D02*
G37*
G36*
X166084D02*
X162605D01*
Y165741D01*
X162706Y165236D01*
X162992Y164807D01*
X163421Y164521D01*
X163926Y164420D01*
X166084D01*
Y167898D01*
D02*
G37*
G36*
X305367Y166724D02*
X299633D01*
Y160991D01*
Y159763D01*
X298175D01*
Y160725D01*
X293425D01*
Y156150D01*
X298175D01*
Y157112D01*
X299633D01*
Y155676D01*
X301075D01*
Y152616D01*
X300987Y152485D01*
X300871Y151900D01*
X300987Y151315D01*
X301319Y150819D01*
X301815Y150487D01*
X302400Y150371D01*
X302985Y150487D01*
X303481Y150819D01*
X303813Y151315D01*
X303929Y151900D01*
X303813Y152485D01*
X303726Y152616D01*
Y155676D01*
X305367D01*
Y160991D01*
Y162277D01*
X306688D01*
X308014Y160951D01*
X308527Y160609D01*
X309131Y160488D01*
X314300D01*
X314905Y160609D01*
X315418Y160951D01*
X315760Y161464D01*
X315880Y162069D01*
X315760Y162673D01*
X315418Y163186D01*
X314905Y163529D01*
X314300Y163649D01*
X309786D01*
X308460Y164975D01*
X307947Y165318D01*
X307343Y165438D01*
X305367D01*
Y166724D01*
D02*
G37*
G36*
X169241Y162534D02*
X167084D01*
Y159056D01*
X170562D01*
Y161213D01*
X170461Y161719D01*
X170175Y162147D01*
X169746Y162434D01*
X169241Y162534D01*
D02*
G37*
G36*
X188926D02*
X186768D01*
Y159056D01*
X190247D01*
Y161213D01*
X190146Y161719D01*
X189860Y162147D01*
X189431Y162434D01*
X188926Y162534D01*
D02*
G37*
G36*
X179083D02*
X176926D01*
Y159056D01*
X180404D01*
Y161213D01*
X180304Y161719D01*
X180017Y162147D01*
X179589Y162434D01*
X179083Y162534D01*
D02*
G37*
G36*
X185768D02*
X183611D01*
X183106Y162434D01*
X182677Y162147D01*
X182391Y161719D01*
X182290Y161213D01*
Y159056D01*
X185768D01*
Y162534D01*
D02*
G37*
G36*
X166084D02*
X163926D01*
X163421Y162434D01*
X162992Y162147D01*
X162706Y161719D01*
X162605Y161213D01*
Y159056D01*
X166084D01*
Y162534D01*
D02*
G37*
G36*
X175926D02*
X173768D01*
X173263Y162434D01*
X172835Y162147D01*
X172548Y161719D01*
X172448Y161213D01*
Y159056D01*
X175926D01*
Y162534D01*
D02*
G37*
G36*
X190247Y158056D02*
X186768D01*
Y154578D01*
X188926D01*
X189431Y154678D01*
X189860Y154965D01*
X190146Y155393D01*
X190247Y155898D01*
Y158056D01*
D02*
G37*
G36*
X185768D02*
X182290D01*
Y155898D01*
X182391Y155393D01*
X182677Y154965D01*
X183106Y154678D01*
X183611Y154578D01*
X185768D01*
Y158056D01*
D02*
G37*
G36*
X180404D02*
X176926D01*
Y154578D01*
X179083D01*
X179589Y154678D01*
X180017Y154965D01*
X180304Y155393D01*
X180404Y155898D01*
Y158056D01*
D02*
G37*
G36*
X175926D02*
X172448D01*
Y155898D01*
X172548Y155393D01*
X172835Y154965D01*
X173263Y154678D01*
X173768Y154578D01*
X175926D01*
Y158056D01*
D02*
G37*
G36*
X170562D02*
X167084D01*
Y154578D01*
X169241D01*
X169746Y154678D01*
X170175Y154965D01*
X170461Y155393D01*
X170562Y155898D01*
Y158056D01*
D02*
G37*
G36*
X166084D02*
X162605D01*
Y155898D01*
X162706Y155393D01*
X162992Y154965D01*
X163421Y154678D01*
X163926Y154578D01*
X166084D01*
Y158056D01*
D02*
G37*
G36*
X291975Y160825D02*
X287225D01*
Y156250D01*
X288020D01*
Y152000D01*
X288140Y151395D01*
X288482Y150882D01*
X288995Y150540D01*
X289600Y150420D01*
X290205Y150540D01*
X290718Y150882D01*
X291060Y151395D01*
X291180Y152000D01*
Y156250D01*
X291975D01*
Y160825D01*
D02*
G37*
G36*
X169241Y152691D02*
X167084D01*
Y149213D01*
X170562D01*
Y151371D01*
X170461Y151876D01*
X170175Y152305D01*
X169746Y152591D01*
X169241Y152691D01*
D02*
G37*
G36*
X188926D02*
X186768D01*
Y149213D01*
X190247D01*
Y151371D01*
X190146Y151876D01*
X189860Y152305D01*
X189431Y152591D01*
X188926Y152691D01*
D02*
G37*
G36*
X179083D02*
X176926D01*
Y149213D01*
X180404D01*
Y151371D01*
X180304Y151876D01*
X180017Y152305D01*
X179589Y152591D01*
X179083Y152691D01*
D02*
G37*
G36*
X185768D02*
X183611D01*
X183106Y152591D01*
X182677Y152305D01*
X182391Y151876D01*
X182290Y151371D01*
Y149213D01*
X185768D01*
Y152691D01*
D02*
G37*
G36*
X166084D02*
X163926D01*
X163421Y152591D01*
X162992Y152305D01*
X162706Y151876D01*
X162605Y151371D01*
Y149213D01*
X166084D01*
Y152691D01*
D02*
G37*
G36*
X175926D02*
X173768D01*
X173263Y152591D01*
X172835Y152305D01*
X172548Y151876D01*
X172448Y151371D01*
Y149213D01*
X175926D01*
Y152691D01*
D02*
G37*
G36*
X166584Y148713D02*
D01*
D01*
D01*
D02*
G37*
G36*
X190247Y148213D02*
X186768D01*
Y144735D01*
X188926D01*
X189431Y144836D01*
X189860Y145122D01*
X190146Y145551D01*
X190247Y146056D01*
Y148213D01*
D02*
G37*
G36*
X185768D02*
X182290D01*
Y146056D01*
X182391Y145551D01*
X182677Y145122D01*
X183106Y144836D01*
X183611Y144735D01*
X185768D01*
Y148213D01*
D02*
G37*
G36*
X180404D02*
X176926D01*
Y144735D01*
X179083D01*
X179589Y144836D01*
X180017Y145122D01*
X180304Y145551D01*
X180404Y146056D01*
Y148213D01*
D02*
G37*
G36*
X175926D02*
X172448D01*
Y146056D01*
X172548Y145551D01*
X172835Y145122D01*
X173263Y144836D01*
X173768Y144735D01*
X175926D01*
Y148213D01*
D02*
G37*
G36*
X170562D02*
X167084D01*
Y144735D01*
X169241D01*
X169746Y144836D01*
X170175Y145122D01*
X170461Y145551D01*
X170562Y146056D01*
Y148213D01*
D02*
G37*
G36*
X166084D02*
X162605D01*
Y146056D01*
X162706Y145551D01*
X162992Y145122D01*
X163421Y144836D01*
X163926Y144735D01*
X166084D01*
Y148213D01*
D02*
G37*
G36*
X326673Y148822D02*
X321727D01*
Y144860D01*
X322775D01*
Y143016D01*
X322687Y142885D01*
X322571Y142300D01*
X322687Y141715D01*
X323019Y141219D01*
X323515Y140887D01*
X324100Y140771D01*
X324685Y140887D01*
X325181Y141219D01*
X325513Y141715D01*
X325629Y142300D01*
X325513Y142885D01*
X325426Y143016D01*
Y144860D01*
X326673D01*
Y148822D01*
D02*
G37*
G36*
X12712Y142318D02*
X10743D01*
X9918Y142209D01*
X9149Y141891D01*
X8488Y141384D01*
X7981Y140723D01*
X7662Y139954D01*
X7554Y139128D01*
X7662Y138303D01*
X7981Y137534D01*
X8488Y136873D01*
X9149Y136366D01*
X9918Y136047D01*
X10743Y135939D01*
X12712D01*
X13537Y136047D01*
X14307Y136366D01*
X14967Y136873D01*
X15474Y137534D01*
X15793Y138303D01*
X15901Y139128D01*
X15793Y139954D01*
X15474Y140723D01*
X14967Y141384D01*
X14307Y141891D01*
X13537Y142209D01*
X12712Y142318D01*
D02*
G37*
G36*
X24444Y140740D02*
X22869D01*
X22147Y140645D01*
X21473Y140366D01*
X20895Y139922D01*
X20451Y139343D01*
X20172Y138670D01*
X20077Y137947D01*
X20172Y137224D01*
X20451Y136551D01*
X20895Y135973D01*
X21473Y135529D01*
X22147Y135250D01*
X22869Y135155D01*
X24444D01*
X25167Y135250D01*
X25840Y135529D01*
X26419Y135973D01*
X26862Y136551D01*
X27141Y137224D01*
X27237Y137947D01*
X27141Y138670D01*
X26862Y139343D01*
X26419Y139922D01*
X25840Y140366D01*
X25167Y140645D01*
X24444Y140740D01*
D02*
G37*
G36*
X178591Y138914D02*
X178501D01*
Y136312D01*
Y133710D01*
X178591D01*
X179135Y133818D01*
X179596Y134126D01*
X180094Y134006D01*
X180560Y133914D01*
X181741D01*
X182207Y134006D01*
X182601Y134270D01*
X182849D01*
X183244Y134006D01*
X183709Y133914D01*
X184891D01*
X185356Y134006D01*
X185751Y134270D01*
X185998D01*
X186393Y134006D01*
X186859Y133914D01*
X188040D01*
X188506Y134006D01*
X188901Y134270D01*
X189148D01*
X189543Y134006D01*
X190009Y133914D01*
X191190D01*
X191656Y134006D01*
X192050Y134270D01*
X192298D01*
X192692Y134006D01*
X193158Y133914D01*
X194339D01*
X194805Y134006D01*
X195200Y134270D01*
X195464Y134665D01*
X195556Y135131D01*
Y137493D01*
X195464Y137959D01*
X195200Y138354D01*
X194805Y138617D01*
X194339Y138710D01*
X193158D01*
X192692Y138617D01*
X192298Y138354D01*
X192050D01*
X191656Y138617D01*
X191190Y138710D01*
X190009D01*
X189543Y138617D01*
X189148Y138354D01*
X188901D01*
X188506Y138617D01*
X188040Y138710D01*
X186859D01*
X186393Y138617D01*
X185998Y138354D01*
X185751D01*
X185356Y138617D01*
X184891Y138710D01*
X183709D01*
X183244Y138617D01*
X182849Y138354D01*
X182601D01*
X182207Y138617D01*
X181741Y138710D01*
X180560D01*
X180094Y138617D01*
X179596Y138498D01*
X179135Y138806D01*
X178591Y138914D01*
D02*
G37*
G36*
X164200Y121543D02*
X161633D01*
Y118976D01*
X164200D01*
Y121543D01*
D02*
G37*
G36*
X204067Y121485D02*
X201500D01*
Y118918D01*
X204067D01*
Y121485D01*
D02*
G37*
G36*
X142204Y117591D02*
X141153D01*
Y116284D01*
X142204D01*
Y117591D01*
D02*
G37*
G36*
X283169Y141941D02*
X281082Y141777D01*
X279046Y141288D01*
X277112Y140487D01*
X275327Y139393D01*
X273735Y138034D01*
X272375Y136442D01*
X271282Y134657D01*
X270480Y132723D01*
X269992Y130687D01*
X269827Y128600D01*
X269992Y126513D01*
X270480Y124477D01*
X271282Y122543D01*
X272375Y120758D01*
X273735Y119166D01*
X275327Y117807D01*
X277112Y116713D01*
X279046Y115912D01*
X281082Y115423D01*
X283169Y115259D01*
X285256Y115423D01*
X287291Y115912D01*
X289225Y116713D01*
X291010Y117807D01*
X292602Y119166D01*
X293962Y120758D01*
X295056Y122543D01*
X295857Y124477D01*
X296345Y126513D01*
X296510Y128600D01*
X296345Y130687D01*
X295857Y132723D01*
X295056Y134657D01*
X293962Y136442D01*
X292602Y138034D01*
X291010Y139393D01*
X289225Y140487D01*
X287291Y141288D01*
X285256Y141777D01*
X283169Y141941D01*
D02*
G37*
G36*
X104232D02*
X102145Y141777D01*
X100109Y141288D01*
X98175Y140487D01*
X96390Y139393D01*
X94798Y138034D01*
X93438Y136442D01*
X92344Y134657D01*
X91543Y132723D01*
X91055Y130687D01*
X90890Y128600D01*
X91055Y126513D01*
X91543Y124477D01*
X92344Y122543D01*
X93438Y120758D01*
X94798Y119166D01*
X96390Y117807D01*
X98175Y116713D01*
X100109Y115912D01*
X102145Y115423D01*
X104232Y115259D01*
X106318Y115423D01*
X108354Y115912D01*
X110288Y116713D01*
X112073Y117807D01*
X113665Y119166D01*
X115025Y120758D01*
X116119Y122543D01*
X116920Y124477D01*
X117408Y126513D01*
X117573Y128600D01*
X117408Y130687D01*
X116920Y132723D01*
X116119Y134657D01*
X115025Y136442D01*
X113665Y138034D01*
X112073Y139393D01*
X110288Y140487D01*
X108354Y141288D01*
X106318Y141777D01*
X104232Y141941D01*
D02*
G37*
G36*
X12712Y120861D02*
X10743D01*
X9918Y120753D01*
X9149Y120434D01*
X8488Y119927D01*
X7981Y119266D01*
X7662Y118497D01*
X7554Y117672D01*
X7662Y116846D01*
X7981Y116077D01*
X8488Y115416D01*
X9149Y114910D01*
X9918Y114591D01*
X10743Y114482D01*
X12712D01*
X13537Y114591D01*
X14307Y114910D01*
X14967Y115416D01*
X15474Y116077D01*
X15793Y116846D01*
X15901Y117672D01*
X15793Y118497D01*
X15474Y119266D01*
X14967Y119927D01*
X14307Y120434D01*
X13537Y120753D01*
X12712Y120861D01*
D02*
G37*
G36*
X52150Y113950D02*
X49800D01*
Y111550D01*
X52150D01*
Y113950D01*
D02*
G37*
G36*
X48800D02*
X46450D01*
Y111550D01*
X48800D01*
Y113950D01*
D02*
G37*
G36*
X379581Y114085D02*
X377900D01*
Y111321D01*
X379581D01*
Y114085D01*
D02*
G37*
G36*
X376900D02*
X375219D01*
Y111321D01*
X376900D01*
Y114085D01*
D02*
G37*
G36*
X379581Y110321D02*
X377900D01*
Y107557D01*
X379581D01*
Y110321D01*
D02*
G37*
G36*
X376900D02*
X375219D01*
Y107557D01*
X376900D01*
Y110321D01*
D02*
G37*
G36*
X370867Y109224D02*
X368300D01*
Y106658D01*
X370867D01*
Y109224D01*
D02*
G37*
G36*
X367300D02*
X364733D01*
Y106658D01*
X367300D01*
Y109224D01*
D02*
G37*
G36*
X141767Y105743D02*
X139200D01*
Y103176D01*
X141767D01*
Y105743D01*
D02*
G37*
G36*
X138200D02*
X135633D01*
Y103176D01*
X138200D01*
Y105743D01*
D02*
G37*
G36*
X52150Y110550D02*
X49300D01*
X46450D01*
Y108767D01*
X46450Y108150D01*
X46650Y107233D01*
Y102450D01*
X51950D01*
Y103420D01*
X54368D01*
X54973Y103540D01*
X55485Y103883D01*
X55828Y104395D01*
X55948Y105000D01*
X55828Y105605D01*
X55485Y106117D01*
X54973Y106460D01*
X54368Y106580D01*
X52622D01*
X52026Y107580D01*
X52150Y108150D01*
X52150Y108767D01*
Y110550D01*
D02*
G37*
G36*
X370867Y105657D02*
X367800D01*
X364733D01*
Y103091D01*
X364933D01*
Y102025D01*
X363016D01*
X362885Y102113D01*
X362300Y102229D01*
X361715Y102113D01*
X361219Y101781D01*
X360887Y101285D01*
X360771Y100700D01*
X360887Y100115D01*
X361219Y99619D01*
X361715Y99287D01*
X362300Y99171D01*
X362885Y99287D01*
X363016Y99375D01*
X364933D01*
Y97976D01*
X370667D01*
Y99253D01*
X371679D01*
Y97915D01*
X375641D01*
Y100356D01*
X375685Y100579D01*
X375641Y100802D01*
Y104042D01*
X371679D01*
X370867Y104497D01*
Y105657D01*
D02*
G37*
G36*
X87367Y98924D02*
X84800D01*
Y96358D01*
X87367D01*
Y98924D01*
D02*
G37*
G36*
X83800D02*
X81233D01*
Y96358D01*
X83800D01*
Y98924D01*
D02*
G37*
G36*
X280842Y97967D02*
X278276D01*
Y95400D01*
X280842D01*
Y97967D01*
D02*
G37*
G36*
X286400Y102331D02*
X285776Y102207D01*
X285246Y101854D01*
X284893Y101324D01*
X284769Y100700D01*
X284820Y100444D01*
Y98797D01*
X284409Y97967D01*
X281842D01*
Y94900D01*
Y91833D01*
X284409D01*
Y92033D01*
X285474D01*
Y90261D01*
X284622D01*
Y86849D01*
X281640D01*
Y88373D01*
X277678D01*
Y83816D01*
X277678Y83427D01*
X278072Y82590D01*
X278072Y82427D01*
Y78935D01*
X280253D01*
Y78435D01*
D01*
Y78935D01*
X282434D01*
X282434Y82979D01*
X282084Y83198D01*
X282372Y84198D01*
X284622D01*
Y83739D01*
X288978D01*
Y86692D01*
Y90261D01*
X288125D01*
Y92033D01*
X289524D01*
Y93279D01*
X292216D01*
Y92879D01*
X298541D01*
Y96841D01*
X292216D01*
Y96440D01*
X289524D01*
Y97767D01*
X287980D01*
Y100444D01*
X288031Y100700D01*
X287907Y101324D01*
X287554Y101854D01*
X287024Y102207D01*
X286400Y102331D01*
D02*
G37*
G36*
X383121Y104042D02*
X379159D01*
Y97915D01*
X379159D01*
X379540Y96915D01*
X378469Y95844D01*
X378315Y95813D01*
X377819Y95481D01*
X377487Y94985D01*
X377371Y94400D01*
X377487Y93815D01*
X377819Y93319D01*
X378315Y92987D01*
X378900Y92871D01*
X379485Y92987D01*
X379981Y93319D01*
X380313Y93815D01*
X380344Y93969D01*
X382490Y96115D01*
X382777Y96545D01*
X382878Y97053D01*
Y97915D01*
X383121D01*
Y100406D01*
X383165Y100471D01*
X383266Y100979D01*
X383165Y101486D01*
X383121Y101551D01*
Y104042D01*
D02*
G37*
G36*
X34725Y94075D02*
X32738D01*
Y92000D01*
X34725D01*
Y94075D01*
D02*
G37*
G36*
X31738D02*
X29750D01*
Y92000D01*
X31738D01*
Y94075D01*
D02*
G37*
G36*
X280842Y94400D02*
X278276D01*
Y91833D01*
X280842D01*
Y94400D01*
D02*
G37*
G36*
X321167Y91642D02*
X318600D01*
Y89076D01*
X321167D01*
Y91642D01*
D02*
G37*
G36*
X317600D02*
X315033D01*
Y89076D01*
X317600D01*
Y91642D01*
D02*
G37*
G36*
X99667Y91624D02*
X97100D01*
Y89057D01*
X99667D01*
Y91624D01*
D02*
G37*
G36*
X96100D02*
X93533D01*
Y89057D01*
X96100D01*
Y91624D01*
D02*
G37*
G36*
X34725Y91000D02*
X32738D01*
Y88925D01*
X34725D01*
Y91000D01*
D02*
G37*
G36*
X31738D02*
X29750D01*
Y88925D01*
X31738D01*
Y91000D01*
D02*
G37*
G36*
X65037Y85163D02*
X61633D01*
Y83777D01*
X65037D01*
Y85163D01*
D02*
G37*
G36*
X186300Y81950D02*
X183800D01*
Y79700D01*
X186300D01*
Y81950D01*
D02*
G37*
G36*
X38943Y79567D02*
X36376D01*
Y77000D01*
X38943D01*
Y79567D01*
D02*
G37*
G36*
X186300Y78700D02*
X183800D01*
Y76450D01*
X186300D01*
Y78700D01*
D02*
G37*
G36*
X276522Y88373D02*
X272560D01*
Y83427D01*
X272560Y83427D01*
X272366Y82779D01*
X272366D01*
X272366Y82507D01*
Y81341D01*
X269869Y78844D01*
X269715Y78813D01*
X269219Y78481D01*
X268887Y77985D01*
X268771Y77400D01*
X268887Y76815D01*
X269219Y76319D01*
X269715Y75987D01*
X270300Y75871D01*
X270885Y75987D01*
X271381Y76319D01*
X272366Y75992D01*
Y74092D01*
X276328D01*
Y82779D01*
X276328Y82779D01*
X276522Y83427D01*
X276522D01*
X276522Y83698D01*
Y88373D01*
D02*
G37*
G36*
X282434Y77935D02*
X280753D01*
Y73892D01*
X282434D01*
Y77935D01*
D02*
G37*
G36*
X279753D02*
X278072D01*
Y73892D01*
X279753D01*
Y77935D01*
D02*
G37*
G36*
X322750Y75875D02*
X320762D01*
Y73800D01*
X322750D01*
Y75875D01*
D02*
G37*
G36*
X319762D02*
X317775D01*
Y73800D01*
X319762D01*
Y75875D01*
D02*
G37*
G36*
X38943Y76000D02*
X36376D01*
Y73433D01*
X38943D01*
Y76000D01*
D02*
G37*
G36*
X189800Y81950D02*
X187300D01*
Y79200D01*
Y76450D01*
X189800D01*
Y76650D01*
X191037D01*
Y75373D01*
X189778D01*
Y72099D01*
X188778Y71359D01*
X188622Y71407D01*
Y75373D01*
X184660D01*
Y74426D01*
X178216D01*
X178085Y74513D01*
X177500Y74629D01*
X176915Y74513D01*
X176419Y74181D01*
X176087Y73685D01*
X175971Y73100D01*
X176087Y72515D01*
X176419Y72019D01*
X176915Y71687D01*
X177500Y71571D01*
X178085Y71687D01*
X178216Y71775D01*
X184660D01*
Y70550D01*
X183850D01*
Y65250D01*
X188750D01*
X189250Y65250D01*
X190152Y65013D01*
Y61587D01*
X185981D01*
Y61787D01*
X184103D01*
Y57834D01*
Y53881D01*
X185981D01*
X186706Y53217D01*
Y47963D01*
X186587Y47785D01*
X186471Y47200D01*
X186587Y46615D01*
X186919Y46119D01*
X187415Y45787D01*
X188000Y45671D01*
X188585Y45787D01*
X189081Y46119D01*
X189413Y46615D01*
X189529Y47200D01*
X189413Y47785D01*
X189357Y47869D01*
Y54081D01*
X196973D01*
Y53881D01*
X198851D01*
Y57834D01*
Y61787D01*
X196973D01*
Y61587D01*
X192803D01*
Y65250D01*
X195150D01*
Y70550D01*
X193740D01*
Y75373D01*
X193688D01*
Y76650D01*
X195200D01*
Y81750D01*
X189800D01*
Y81950D01*
D02*
G37*
G36*
X298241Y75221D02*
X291916D01*
Y71259D01*
X298241D01*
Y75221D01*
D02*
G37*
G36*
X304700Y80629D02*
X304115Y80513D01*
X303619Y80181D01*
X303287Y79685D01*
X303171Y79100D01*
X303287Y78515D01*
X303375Y78384D01*
Y75221D01*
X301759D01*
Y71681D01*
X301559D01*
Y70000D01*
X304921D01*
X308283D01*
Y71681D01*
X309187Y71915D01*
X311850D01*
Y70925D01*
X316425D01*
Y75675D01*
X311850D01*
Y74566D01*
X308084D01*
Y75221D01*
X306026D01*
Y78384D01*
X306113Y78515D01*
X306229Y79100D01*
X306113Y79685D01*
X305781Y80181D01*
X305285Y80513D01*
X304700Y80629D01*
D02*
G37*
G36*
X322750Y72800D02*
X320762D01*
Y70725D01*
X322750D01*
Y72800D01*
D02*
G37*
G36*
X319762D02*
X317775D01*
Y70725D01*
X319762D01*
Y72800D01*
D02*
G37*
G36*
X323224Y68967D02*
X320657D01*
Y66400D01*
X323224D01*
Y68967D01*
D02*
G37*
G36*
Y65400D02*
X320657D01*
Y62833D01*
X323224D01*
Y65400D01*
D02*
G37*
G36*
X308283Y69000D02*
X304921D01*
X301559D01*
Y67319D01*
X301759D01*
Y63779D01*
X308084D01*
Y64434D01*
X311976D01*
Y63033D01*
X313575D01*
Y62016D01*
X313487Y61885D01*
X313371Y61300D01*
X313487Y60715D01*
X313819Y60219D01*
X314315Y59887D01*
X314900Y59771D01*
X315485Y59887D01*
X315981Y60219D01*
X316313Y60715D01*
X316429Y61300D01*
X316313Y61885D01*
X316460Y62132D01*
X317091Y62833D01*
X317091Y62833D01*
X319657D01*
Y65900D01*
Y68967D01*
X317091D01*
Y68767D01*
X311976D01*
Y67085D01*
X309187D01*
X308283Y67319D01*
Y69000D01*
D02*
G37*
G36*
X201729Y61787D02*
X199851D01*
Y58334D01*
X201729D01*
Y61787D01*
D02*
G37*
G36*
X183103D02*
X181225D01*
Y58334D01*
X183103D01*
Y61787D01*
D02*
G37*
G36*
X163800Y61431D02*
X163176Y61307D01*
X162904Y61125D01*
X151900D01*
X151393Y61025D01*
X150963Y60737D01*
X140063Y49837D01*
X139775Y49407D01*
X139674Y48900D01*
Y30230D01*
X139775Y29723D01*
X140063Y29293D01*
X142474Y26882D01*
X142505Y26727D01*
X142836Y26231D01*
X143332Y25900D01*
X143487Y25869D01*
X144551Y24804D01*
X144551Y24804D01*
X152493Y16863D01*
X152923Y16575D01*
X153430Y16475D01*
X157070D01*
X157577Y16575D01*
X158007Y16863D01*
X162077Y20933D01*
X165024D01*
Y23438D01*
X169298D01*
X170202Y23204D01*
Y21326D01*
X178107D01*
Y23204D01*
X177907D01*
Y26522D01*
Y30459D01*
Y34396D01*
Y38133D01*
X178107D01*
Y40011D01*
X170202D01*
Y38133D01*
X170402D01*
Y34396D01*
Y30864D01*
X169423Y30450D01*
X169402Y30450D01*
X168885Y30967D01*
X168455Y31255D01*
X167947Y31355D01*
X165024D01*
Y34467D01*
X163044D01*
X162211Y34884D01*
X162110Y35391D01*
X161823Y35821D01*
X156207Y41437D01*
X155777Y41725D01*
X155270Y41826D01*
X147516D01*
X147385Y41913D01*
X146800Y42029D01*
X146215Y41913D01*
X145719Y41581D01*
X145387Y41085D01*
X145271Y40500D01*
X145387Y39915D01*
X145719Y39419D01*
X146215Y39087D01*
X146800Y38971D01*
X147385Y39087D01*
X147516Y39175D01*
X154721D01*
X158305Y35591D01*
X157922Y34667D01*
X157343D01*
Y31600D01*
Y28533D01*
X159909D01*
Y28733D01*
X164191D01*
X164335Y28705D01*
X167398D01*
X168340Y27763D01*
X168770Y27475D01*
X169277Y27375D01*
X170402D01*
Y26089D01*
X165024D01*
Y26667D01*
X159909D01*
Y26867D01*
X157343D01*
Y23800D01*
X156843D01*
Y23300D01*
X153776D01*
Y20743D01*
X153061Y20043D01*
X146426Y26679D01*
X146426Y26679D01*
X145361Y27743D01*
X145331Y27898D01*
X144999Y28394D01*
X144503Y28725D01*
X144348Y28756D01*
X142325Y30779D01*
Y48351D01*
X152449Y58474D01*
X162904D01*
X163176Y58293D01*
X163496Y58229D01*
X164046Y57680D01*
Y56667D01*
X162009D01*
Y56867D01*
X159442D01*
Y53800D01*
Y50733D01*
X162009D01*
Y50933D01*
X167124D01*
Y54145D01*
X170402D01*
Y50144D01*
Y46826D01*
X170202D01*
Y44948D01*
X178107D01*
Y46826D01*
X177907D01*
Y50144D01*
Y54081D01*
Y58437D01*
X170402D01*
Y56796D01*
X166697D01*
Y58229D01*
X166596Y58736D01*
X166308Y59166D01*
X165371Y60103D01*
X165307Y60424D01*
X164953Y60953D01*
X164424Y61307D01*
X163800Y61431D01*
D02*
G37*
G36*
X158442Y56867D02*
X155876D01*
Y54300D01*
X158442D01*
Y56867D01*
D02*
G37*
G36*
X201729Y57334D02*
X199851D01*
Y53881D01*
X201729D01*
Y57334D01*
D02*
G37*
G36*
X183103D02*
X181225D01*
Y53881D01*
X183103D01*
Y57334D01*
D02*
G37*
G36*
X158442Y53300D02*
X155876D01*
Y50733D01*
X158442D01*
Y53300D01*
D02*
G37*
G36*
X297767Y51143D02*
X295200D01*
Y48576D01*
X297767D01*
Y51143D01*
D02*
G37*
G36*
X294200D02*
X291633D01*
Y48576D01*
X294200D01*
Y51143D01*
D02*
G37*
G36*
X178107Y43948D02*
X170202D01*
Y42070D01*
Y41011D01*
X178107D01*
Y42070D01*
Y43948D01*
D02*
G37*
G36*
X212753Y40011D02*
X204847D01*
Y38133D01*
Y37074D01*
X212753D01*
Y38133D01*
Y40011D01*
D02*
G37*
G36*
X246473Y34740D02*
X244300D01*
Y33059D01*
X246473D01*
Y34740D01*
D02*
G37*
G36*
X243300D02*
X241127D01*
Y33059D01*
X243300D01*
Y34740D01*
D02*
G37*
G36*
X237067Y35524D02*
X234500D01*
Y32958D01*
X237067D01*
Y35524D01*
D02*
G37*
G36*
X233500D02*
X230933D01*
Y32958D01*
X233500D01*
Y35524D01*
D02*
G37*
G36*
X156342Y34667D02*
X153776D01*
Y32100D01*
X156342D01*
Y34667D01*
D02*
G37*
G36*
X87800Y32024D02*
X87069Y31928D01*
X86388Y31646D01*
X85803Y31197D01*
X85354Y30612D01*
X85072Y29931D01*
X85004Y29416D01*
X83996D01*
X83928Y29931D01*
X83646Y30612D01*
X83197Y31197D01*
X82612Y31646D01*
X81931Y31928D01*
X81200Y32024D01*
X80469Y31928D01*
X79788Y31646D01*
X79203Y31197D01*
X78754Y30612D01*
X78472Y29931D01*
X78376Y29200D01*
X78472Y28469D01*
X78754Y27788D01*
X79203Y27203D01*
X79788Y26754D01*
X79983Y26673D01*
X79860Y25673D01*
X79860D01*
Y20727D01*
X83822D01*
Y25673D01*
X82846D01*
Y26934D01*
X83197Y27203D01*
X83646Y27788D01*
X83928Y28469D01*
X83996Y28984D01*
X85004D01*
X85072Y28469D01*
X85354Y27788D01*
X85803Y27203D01*
X86388Y26754D01*
X86475Y26718D01*
Y25673D01*
X84978D01*
Y20727D01*
X88940D01*
Y23900D01*
X89025Y24026D01*
X89126Y24533D01*
Y26718D01*
X89212Y26754D01*
X89797Y27203D01*
X90246Y27788D01*
X90528Y28469D01*
X90624Y29200D01*
X90528Y29931D01*
X90246Y30612D01*
X89797Y31197D01*
X89212Y31646D01*
X88531Y31928D01*
X87800Y32024D01*
D02*
G37*
G36*
X212753Y36074D02*
X204847D01*
Y34196D01*
X205047D01*
Y31078D01*
X204847D01*
Y29200D01*
X212753D01*
Y31078D01*
X212553D01*
Y34196D01*
X212753D01*
Y36074D01*
D02*
G37*
G36*
X156342Y31100D02*
X153776D01*
Y28533D01*
X156342D01*
Y31100D01*
D02*
G37*
G36*
X212753Y28200D02*
X204847D01*
Y26322D01*
Y25263D01*
X212753D01*
Y26322D01*
Y28200D01*
D02*
G37*
G36*
X156342Y26867D02*
X153776D01*
Y24300D01*
X156342D01*
Y26867D01*
D02*
G37*
G36*
X276324Y25267D02*
X273758D01*
Y22700D01*
X276324D01*
Y25267D01*
D02*
G37*
G36*
X287674Y16230D02*
X285107D01*
Y11400D01*
X287674D01*
Y16230D01*
D02*
G37*
G36*
X318600Y22833D02*
X317267Y22702D01*
X315985Y22313D01*
X314804Y21681D01*
X313768Y20832D01*
X312919Y19796D01*
X312287Y18615D01*
X311898Y17333D01*
X311767Y16000D01*
X311898Y14667D01*
X312287Y13385D01*
X312919Y12204D01*
X313768Y11168D01*
X314804Y10319D01*
X315985Y9687D01*
X317267Y9298D01*
X318600Y9167D01*
X319933Y9298D01*
X321215Y9687D01*
X322396Y10319D01*
X323432Y11168D01*
X324281Y12204D01*
X324913Y13385D01*
X325302Y14667D01*
X325433Y16000D01*
X325302Y17333D01*
X324913Y18615D01*
X324281Y19796D01*
X323432Y20832D01*
X322396Y21681D01*
X321215Y22313D01*
X319933Y22702D01*
X318600Y22833D01*
D02*
G37*
G36*
X65900D02*
X64567Y22702D01*
X63285Y22313D01*
X62104Y21681D01*
X61068Y20832D01*
X60219Y19796D01*
X59587Y18615D01*
X59198Y17333D01*
X59067Y16000D01*
X59198Y14667D01*
X59587Y13385D01*
X60219Y12204D01*
X61068Y11168D01*
X62104Y10319D01*
X63285Y9687D01*
X64567Y9298D01*
X65900Y9167D01*
X67233Y9298D01*
X68515Y9687D01*
X69696Y10319D01*
X70732Y11168D01*
X71581Y12204D01*
X72213Y13385D01*
X72602Y14667D01*
X72733Y16000D01*
X72602Y17333D01*
X72213Y18615D01*
X71581Y19796D01*
X70732Y20832D01*
X69696Y21681D01*
X68515Y22313D01*
X67233Y22702D01*
X65900Y22833D01*
D02*
G37*
G36*
X287674Y10400D02*
X285107D01*
Y5570D01*
X287674D01*
Y10400D01*
D02*
G37*
G36*
X284107D02*
X281540D01*
Y5570D01*
X284107D01*
Y10400D01*
D02*
G37*
G36*
X276060D02*
X273493D01*
Y5570D01*
X276060D01*
Y10400D01*
D02*
G37*
G36*
X272493D02*
X269926D01*
Y5570D01*
X272493D01*
Y10400D01*
D02*
G37*
G36*
X212753Y7924D02*
X209300D01*
Y5456D01*
X212753D01*
Y7924D01*
D02*
G37*
G36*
X173654D02*
X170202D01*
Y5456D01*
X173654D01*
Y7924D01*
D02*
G37*
%LPD*%
G36*
X338575Y202851D02*
Y195334D01*
X338529Y195325D01*
X338198Y195103D01*
X337977Y194772D01*
X337899Y194382D01*
X336901D01*
X336823Y194772D01*
X336602Y195103D01*
X336271Y195325D01*
X335880Y195402D01*
X333920D01*
X333529Y195325D01*
X333198Y195103D01*
X332977Y194772D01*
X332899Y194382D01*
X331901D01*
X331823Y194772D01*
X331602Y195103D01*
X331271Y195325D01*
X331225Y195334D01*
Y198076D01*
X332667D01*
Y203391D01*
Y207452D01*
X333591Y207835D01*
X338575Y202851D01*
D02*
G37*
G36*
X337977Y188684D02*
X338198Y188353D01*
X338529Y188132D01*
X338920Y188054D01*
X340880D01*
X341271Y188132D01*
X341489Y188278D01*
X342127Y187501D01*
X337163Y182537D01*
X336875Y182107D01*
X336774Y181600D01*
Y176649D01*
X334071Y173946D01*
X333920D01*
X333529Y173868D01*
X333198Y173647D01*
X332977Y173316D01*
X332899Y172925D01*
X331901D01*
X331823Y173316D01*
X331602Y173647D01*
X331271Y173868D01*
X330880Y173946D01*
X328920D01*
X328529Y173868D01*
X328198Y173647D01*
X327977Y173316D01*
X327910Y172979D01*
X327750Y172873D01*
X326899Y172575D01*
X323566Y175909D01*
Y181053D01*
X325107D01*
Y183874D01*
X330045D01*
X330552Y183975D01*
X330982Y184263D01*
X334774Y188054D01*
X335880D01*
X336271Y188132D01*
X336602Y188353D01*
X336823Y188684D01*
X336901Y189075D01*
X337899D01*
X337977Y188684D01*
D02*
G37*
G36*
X352463Y181243D02*
X353233Y180973D01*
Y175876D01*
X354774D01*
Y173334D01*
X354729Y173325D01*
X354398Y173103D01*
X354177Y172772D01*
X354099Y172382D01*
Y167075D01*
X354177Y166684D01*
X354398Y166353D01*
X354440Y166325D01*
X354136Y165325D01*
X336226D01*
Y166666D01*
X336271Y166675D01*
X336602Y166897D01*
X336823Y167228D01*
X336901Y167618D01*
X337899D01*
X337977Y167228D01*
X338198Y166897D01*
X338529Y166675D01*
X338920Y166598D01*
X340880D01*
X341271Y166675D01*
X341602Y166897D01*
X341823Y167228D01*
X341901Y167618D01*
X342899D01*
X342977Y167228D01*
X343198Y166897D01*
X343529Y166675D01*
X343920Y166598D01*
X345880D01*
X346271Y166675D01*
X346602Y166897D01*
X346823Y167228D01*
X346901Y167618D01*
Y172925D01*
X346823Y173316D01*
X346602Y173647D01*
X346271Y173868D01*
X346226Y173877D01*
Y175251D01*
X352233Y181259D01*
X352463Y181243D01*
D02*
G37*
%LPC*%
G36*
X143367Y139024D02*
X140800D01*
Y136458D01*
X143367D01*
Y139024D01*
D02*
G37*
G36*
X139800D02*
X137233D01*
Y136458D01*
X139800D01*
Y139024D01*
D02*
G37*
%LPD*%
D11*
X8696Y101500D02*
G03*
X5304Y101500I-1696J-3900D01*
G01*
X86959Y23692D02*
X87800Y24533D01*
Y29200D01*
X86959Y23200D02*
Y23692D01*
X81520Y23520D02*
Y28879D01*
X81200Y29200D02*
X81520Y28879D01*
Y23520D02*
X81841Y23200D01*
X61506Y73414D02*
X65914D01*
X71538Y79038D02*
Y90600D01*
X65914Y73414D02*
X71538Y79038D01*
X61133Y73041D02*
X61506Y73414D01*
X91576Y64138D02*
X96100D01*
X96156Y64194D02*
X101194D01*
X101250Y64250D01*
X96100Y64138D02*
X96156Y64194D01*
X35600Y146081D02*
X46188Y156668D01*
X35600Y136400D02*
Y146081D01*
X29200Y130000D02*
X35600Y136400D01*
X132284Y121153D02*
Y173534D01*
X8696Y101500D02*
X15200D01*
X8696D02*
X8696D01*
X4886D02*
X5304D01*
X7000Y87600D02*
X7939Y86661D01*
X6533Y88067D02*
X7000Y87600D01*
X35800Y127800D02*
X39513Y131513D01*
X41313Y144373D02*
X45244Y148304D01*
X48090D01*
X48186Y148207D01*
X41313Y130767D02*
Y144373D01*
X39513Y145118D02*
X44498Y150104D01*
X46955D01*
X47244Y150392D02*
X47441D01*
X39513Y131513D02*
Y145118D01*
X36546Y126000D02*
X41313Y130767D01*
X46955Y150104D02*
X47244Y150392D01*
X136000Y157164D02*
Y165500D01*
X155885Y157405D02*
X155954Y157473D01*
X150200Y157336D02*
X150269Y157405D01*
X155885D01*
X106600Y80600D02*
X111143D01*
X111900Y81358D01*
X56862Y94387D02*
X57850Y95375D01*
X57937D02*
X59062Y96500D01*
X68900D02*
X71500Y99100D01*
X59062Y96500D02*
X68900D01*
X56862Y94300D02*
Y94387D01*
X57850Y95375D02*
X57937D01*
X71500Y99100D02*
Y109981D01*
X77959Y94500D02*
X78161Y94298D01*
X67800Y113681D02*
X71500Y109981D01*
X106600Y76100D02*
X117600D01*
X84317Y75650D02*
X90950D01*
X84267Y75600D02*
X84317Y75650D01*
X90950D02*
X91000Y75700D01*
X90697Y73041D02*
X90838Y72900D01*
X91000D01*
X84267Y73041D02*
X90697D01*
X89391Y78200D02*
X94561D01*
X84267Y78159D02*
X89350D01*
X89391Y78200D01*
X94561D02*
X100761Y72000D01*
X101562Y76100D02*
X106600D01*
X84469Y55669D02*
X92531D01*
X84400Y55738D02*
X84469Y55669D01*
X92531D02*
X92600Y55600D01*
X119600Y74100D02*
Y79630D01*
X114505Y84724D02*
X119600Y79630D01*
X107077Y84724D02*
X114505D01*
X105595Y83242D02*
X107077Y84724D01*
X96600Y83242D02*
X105595D01*
X29200Y115500D02*
Y130000D01*
X15200Y101500D02*
X29200Y115500D01*
X42800Y51600D02*
X127600D01*
X7000Y77600D02*
X16800D01*
X42800Y51600D01*
X7939Y86661D02*
X11739D01*
X32663Y65737D02*
X64575D01*
X11739Y86661D02*
X32663Y65737D01*
X38376Y49800D02*
X128346D01*
X20576Y67600D02*
X38376Y49800D01*
X7000Y67600D02*
X20576D01*
X2747Y99361D02*
X4593Y101207D01*
X4886Y101500D01*
X33600Y128200D02*
X33708D01*
X34108Y127800D01*
X35800D01*
X33600Y125600D02*
X33708D01*
X34108Y126000D02*
X36546D01*
X33708Y125600D02*
X34108Y126000D01*
X121924Y121276D02*
Y122400D01*
Y137514D01*
X124892Y115503D02*
X135355D01*
X136665Y116812D01*
X121924Y121276D02*
X122900Y120300D01*
X131431D01*
X96100Y70262D02*
X99954D01*
X100016Y70200D01*
X100761Y72000D02*
X142909D01*
X100016Y70200D02*
X143654D01*
X198702Y143898D02*
X209200Y133400D01*
X198046Y104600D02*
X211000Y117554D01*
X197300Y106400D02*
X209200Y118300D01*
Y133400D01*
X178054Y104600D02*
X198046D01*
X199973Y147072D02*
X211000Y136046D01*
Y117554D02*
Y136046D01*
X213581Y131319D02*
Y135082D01*
X214263Y135763D02*
X214274D01*
X213581Y135082D02*
X214263Y135763D01*
X341759Y143241D02*
X345800Y139200D01*
Y88900D02*
Y139200D01*
X174851Y132249D02*
Y136312D01*
Y132249D02*
X176000Y131100D01*
X188200D01*
X300115Y99085D02*
X304736D01*
X305221Y98600D01*
X300000Y99200D02*
X300115Y99085D01*
X177309Y106400D02*
X197300D01*
X217400Y94000D02*
Y102800D01*
Y152600D01*
X178800Y102800D02*
X217400D01*
X195742Y127300D02*
X201000D01*
X195500Y127058D02*
X195742Y127300D01*
X201100Y127400D02*
Y131300D01*
X201000Y127300D02*
X201100Y127400D01*
X189800Y127058D02*
X195500D01*
X142909Y72000D02*
X177309Y106400D01*
X127600Y51600D02*
X178800Y102800D01*
X143654Y70200D02*
X178054Y104600D01*
X84308Y70441D02*
X91159D01*
X91269Y70331D02*
X96031D01*
X84267Y70482D02*
X84308Y70441D01*
X91159D02*
X91269Y70331D01*
X96031D02*
X96100Y70262D01*
X197383Y143898D02*
X198702D01*
X196898Y144383D02*
X197383Y143898D01*
X196898Y147532D02*
X197358Y147072D01*
X199973D01*
X185900Y115100D02*
Y123915D01*
X117600Y76100D02*
X119600Y74100D01*
X100668Y76995D02*
X101562Y76100D01*
X94076Y80718D02*
X96600Y83242D01*
X179323Y100778D02*
X213027D01*
X129696Y51150D02*
X179323Y100778D01*
X128346Y49800D02*
X129696Y51150D01*
X201818Y153832D02*
X207250Y148400D01*
X207500D01*
X196898Y153832D02*
X201818D01*
X84267Y80718D02*
X94076D01*
X305221Y102340D02*
X308745D01*
X313243Y97843D01*
X337696Y66196D02*
Y128600D01*
X102769Y156668D02*
X121924Y137514D01*
X46188Y156668D02*
X102769D01*
X131984Y118084D02*
X131988Y118088D01*
X134744D02*
X134747Y118091D01*
X131988Y118088D02*
X134744D01*
X131431Y120300D02*
X132284Y121153D01*
X83894Y75973D02*
X84267Y75600D01*
X83894Y80345D02*
X84267Y80718D01*
X78263Y84506D02*
X84300Y90543D01*
X78263Y63098D02*
X82287Y59075D01*
X78263Y63098D02*
Y84506D01*
X204547Y81147D02*
X217400Y94000D01*
X204547Y54343D02*
Y81147D01*
X214550Y155400D02*
X214600D01*
X217400Y152600D01*
X204547Y54343D02*
X205690Y53200D01*
X207922D01*
X208800Y52322D01*
X214600Y161200D02*
X219400Y156400D01*
X214550Y161200D02*
X214600D01*
X219400Y84228D02*
Y100900D01*
Y156400D01*
X208100Y72928D02*
X219400Y84228D01*
X208100Y58534D02*
Y72928D01*
Y58534D02*
X210375Y56259D01*
X317414Y45500D02*
Y45914D01*
X337696Y66196D01*
X254041Y22392D02*
X287039Y55391D01*
X254041Y21900D02*
Y22392D01*
X287039Y55391D02*
X293133D01*
X254041Y21408D02*
Y21900D01*
X293133Y55391D02*
X294700Y56958D01*
X295079Y57336D01*
X61506Y70109D02*
X64575D01*
X65337Y66499D02*
Y69347D01*
X61133Y70482D02*
X61506Y70109D01*
X64575Y65737D02*
X65337Y66499D01*
X64575Y70109D02*
X65337Y69347D01*
X44500Y81275D02*
X44833Y80942D01*
X44500Y81275D02*
Y85138D01*
X44758Y76500D02*
X44833Y76576D01*
Y80942D01*
X44815Y76442D02*
X52400D01*
X44758Y76500D02*
X44815Y76442D01*
X2747Y95838D02*
Y99361D01*
X6533Y88067D02*
Y92053D01*
X2747Y95838D02*
X6533Y92053D01*
X78161Y90543D02*
X84300D01*
X86513Y59075D02*
X91576Y64138D01*
X82287Y59075D02*
X86513D01*
X78161Y90543D02*
Y94298D01*
Y90102D02*
Y90543D01*
Y90102D02*
X78362Y89900D01*
X72160Y93327D02*
X72841Y94008D01*
X70764Y93327D02*
X72160D01*
X72841Y94008D02*
Y94992D01*
X67393Y89956D02*
X70764Y93327D01*
X67393Y78792D02*
Y89956D01*
X64575Y75973D02*
X67393Y78792D01*
X61506Y75973D02*
X64575D01*
X61133Y75600D02*
X61506Y75973D01*
X60760Y75227D02*
X61133Y75600D01*
X84267Y61995D02*
Y67923D01*
Y61995D02*
X84400Y61862D01*
X84043Y89800D02*
X84267Y89576D01*
Y83277D02*
Y89576D01*
X52400Y81757D02*
Y86542D01*
X50842Y88100D02*
X52400Y86542D01*
X64950Y122000D02*
X67800D01*
Y113681D02*
Y122000D01*
X50738Y88205D02*
Y94300D01*
Y88205D02*
X50842Y88100D01*
X52400Y76442D02*
X54116Y78159D01*
X61133D01*
X52400Y81757D02*
X53439Y80718D01*
X61133D01*
X304921Y73240D02*
X314581D01*
X140400Y169900D02*
Y173450D01*
X47441Y150392D02*
X47679Y150631D01*
X291300Y183370D02*
X296315Y188385D01*
X291300Y166275D02*
Y183370D01*
X289687Y164662D02*
X291300Y166275D01*
X298800Y183700D02*
X304300D01*
X296315Y191486D02*
X309154Y204324D01*
X311686D01*
X341700Y201000D02*
Y204146D01*
Y201000D02*
X347381Y195319D01*
Y188336D02*
Y195319D01*
X296315Y188385D02*
Y191486D01*
X311686Y204324D02*
X318962Y211600D01*
X331700D01*
X289600Y164662D02*
X289687D01*
X361100Y167500D02*
Y169728D01*
X357600Y164000D02*
X361100Y167500D01*
X334700Y164000D02*
X357600D01*
X362300Y134659D02*
X368000D01*
X356400Y134358D02*
X361998D01*
X366100Y146100D02*
Y148272D01*
X361900Y141900D02*
X366100Y146100D01*
X361900Y138630D02*
Y141900D01*
X360609Y137339D02*
X361900Y138630D01*
X361100Y143647D02*
Y148272D01*
X360126Y142673D02*
X361100Y143647D01*
X352522Y142673D02*
X360126D01*
X358539Y137339D02*
X360609D01*
X363600Y128738D02*
Y130241D01*
X362800Y127938D02*
X363600Y128738D01*
X330500Y146239D02*
X330800Y146539D01*
X314161Y170100D02*
X314400Y170339D01*
X303609Y192709D02*
X305000Y194100D01*
X303609Y189267D02*
Y192709D01*
X296150Y181050D02*
X298800Y183700D01*
X294000Y181050D02*
X296150D01*
X294000Y169100D02*
Y175150D01*
X341759Y143241D02*
Y151400D01*
X334900Y170272D02*
Y172900D01*
X338100Y176100D01*
Y181600D01*
X344900Y188400D01*
X339900Y170272D02*
Y180854D01*
X347381Y188336D01*
X344900Y188400D02*
Y191728D01*
X357305Y136105D02*
X358539Y137339D01*
X357305Y135262D02*
Y136105D01*
X350041Y140192D02*
X352522Y142673D01*
X332046Y213800D02*
X341700Y204146D01*
X318616Y213800D02*
X332046D01*
X205785Y175515D02*
X205900Y175400D01*
X197262Y175515D02*
X205785D01*
X196898Y175879D02*
X197262Y175515D01*
X197304Y169985D02*
X205875D01*
X206138Y170248D01*
X70785Y150085D02*
X70900Y150200D01*
X68906Y150085D02*
X70785D01*
X270300Y77400D02*
X274570Y81670D01*
Y85870D01*
X274541Y85900D02*
X274570Y85870D01*
X356430Y86571D02*
X358293Y88434D01*
X355180Y119400D02*
X358293Y116287D01*
Y88434D02*
Y116287D01*
X160886Y33170D02*
X162456Y31600D01*
X253400Y8542D02*
X253731Y8212D01*
X259500D01*
X263863Y11937D02*
Y13463D01*
X261026Y9100D02*
X263863Y11937D01*
X260447Y9100D02*
X261026D01*
X259559Y8212D02*
X260447Y9100D01*
X259500Y8212D02*
X259559D01*
X263863Y13463D02*
X267304Y16904D01*
X278800D01*
X252702Y13160D02*
X253400Y13858D01*
X238859Y13160D02*
X252702D01*
X236587Y23487D02*
X238500Y25400D01*
X236587Y20928D02*
Y23487D01*
X236300Y20640D02*
X236587Y20928D01*
X224800Y20458D02*
X225257Y20000D01*
X224800Y20458D02*
Y24200D01*
X239146Y22207D02*
X243114D01*
X238859Y21920D02*
X239146Y22207D01*
X238859Y20640D02*
Y21920D01*
X218917Y20826D02*
X219742Y20000D01*
X208800Y20826D02*
X218917D01*
X219642Y14000D02*
X219839D01*
X215700D02*
X219642D01*
X212600Y17100D02*
X215700Y14000D01*
X209323Y17100D02*
X212600D01*
X302043Y187700D02*
X303609Y189267D01*
X356700Y124200D02*
Y128338D01*
X356800Y128438D01*
X362800Y124100D02*
Y127938D01*
X361998Y134358D02*
X362300Y134659D01*
X363500Y130341D02*
X363600Y130241D01*
X163765Y53900D02*
X163800Y53935D01*
X367957Y100700D02*
X368200Y100943D01*
X362300Y100700D02*
X367957D01*
X329800Y201139D02*
X329900Y201039D01*
X329561Y200900D02*
X329800Y201139D01*
X329900Y191728D02*
Y201039D01*
X314472Y175333D02*
Y182353D01*
X356100Y178743D02*
Y178939D01*
Y169728D02*
Y178743D01*
X314261Y175400D02*
X314400Y175261D01*
X286200Y96043D02*
X287000Y95243D01*
X314702Y65760D02*
X314900Y65562D01*
X171702Y131256D02*
X175800Y127157D01*
X164700Y127156D02*
X169598D01*
X381553Y100591D02*
X381940Y100979D01*
X381553Y97053D02*
Y100591D01*
X378900Y94400D02*
X381553Y97053D01*
X307161Y187700D02*
X315100D01*
X304300Y183700D02*
X307161Y186561D01*
Y187700D01*
X147700Y125672D02*
Y169900D01*
X147600Y170000D02*
X147700Y169900D01*
X150125Y170036D02*
X150160Y170072D01*
X150125Y170036D02*
X155918D01*
X147636D02*
X150125D01*
X147600Y170000D02*
X147636Y170036D01*
X155918D02*
X155954Y170072D01*
X177500Y73100D02*
X186441D01*
X186641Y72900D01*
Y67991D02*
Y72900D01*
X186550Y67900D02*
X186641Y67991D01*
X165371Y55470D02*
X173365D01*
X165335D02*
X165371D01*
Y58229D01*
Y55435D02*
Y55470D01*
X165335D02*
X165371Y55435D01*
X162456Y23186D02*
Y23800D01*
X163800Y59800D02*
X165371Y58229D01*
X143918Y27312D02*
X145489Y25742D01*
X157070Y17800D02*
X162456Y23186D01*
X191477Y66927D02*
X192450Y67900D01*
X191477Y57834D02*
Y66927D01*
X330500Y142300D02*
Y146239D01*
X324100Y142300D02*
Y146741D01*
X324200Y146841D01*
X355340Y139519D02*
X359781D01*
X350041Y139700D02*
Y140192D01*
X349941Y139600D02*
X350041Y139700D01*
X349941Y119500D02*
Y139600D01*
X349841Y119400D02*
X349941Y119500D01*
X324200Y157114D02*
X325786Y158700D01*
X340660D01*
X341341Y158019D01*
Y157900D02*
Y158019D01*
X324200Y151959D02*
Y157114D01*
Y151959D02*
X330302D01*
X330800Y151461D01*
X330861Y151400D01*
X336641D01*
X342759Y152100D02*
X344700D01*
X342659Y152200D02*
X342759Y152100D01*
X344700D02*
X345722Y151078D01*
X348498D01*
X348600Y150976D01*
X139157Y111100D02*
X144700D01*
X138700Y111557D02*
X139157Y111100D01*
X287687Y203262D02*
X290550Y206124D01*
X310940D02*
X318616Y213800D01*
X290550Y206124D02*
X310940D01*
X302400Y151900D02*
Y158442D01*
X184024Y125791D02*
X185900Y123915D01*
X175800Y127357D02*
X181800D01*
X183367Y125791D02*
X184024D01*
X181800Y127357D02*
X183367Y125791D01*
X189500Y127357D02*
X189800Y127058D01*
X189500Y127357D02*
Y129800D01*
X188200Y131100D02*
X189500Y129800D01*
X175800Y127157D02*
X175898Y127256D01*
X171702Y131256D02*
Y136312D01*
X150200Y173200D02*
X150211Y173211D01*
X155943D01*
X155954Y173221D01*
X150200Y176700D02*
X150315Y176585D01*
X356100Y183861D02*
Y184057D01*
X370092Y179841D02*
X376098D01*
X370773Y170055D02*
X371100Y169728D01*
X370773Y170055D02*
Y179160D01*
X370092Y179841D02*
X370773Y179160D01*
X369600Y179841D02*
X370092D01*
X376098D02*
X376300Y179639D01*
X372400Y161700D02*
X376300Y165600D01*
Y179639D01*
X364100Y161700D02*
X372400D01*
X360300Y157900D02*
X364100Y161700D01*
X346459Y157900D02*
X360300D01*
X329153Y164000D02*
X334700D01*
X334900Y164200D01*
Y170272D01*
X361100Y169728D02*
X366100D01*
X327553Y162400D02*
X329153Y164000D01*
X327500Y162400D02*
X327553D01*
X302395Y158438D02*
X302400Y158442D01*
X302500Y158543D01*
X292633Y201191D02*
X294200Y202758D01*
X291740Y201191D02*
X292633D01*
X287687Y197138D02*
X291740Y201191D01*
X287600Y197138D02*
X287687D01*
X287600Y203262D02*
X287687D01*
X287550Y203312D02*
X287600Y203262D01*
X280750Y203312D02*
X287550D01*
X280700Y203362D02*
X280750Y203312D01*
X294243Y202800D02*
X301700D01*
X294200Y202758D02*
X294243Y202800D01*
X295800Y158438D02*
X302395D01*
X295750Y164612D02*
X295800Y164562D01*
X289650Y164612D02*
X295750D01*
X289600Y164662D02*
X289650Y164612D01*
X339900Y191728D02*
Y203400D01*
X331700Y211600D02*
X339900Y203400D01*
X351886Y182786D02*
X355025D01*
X344900Y175800D02*
X351886Y182786D01*
X344900Y170272D02*
Y175800D01*
X136665Y118040D02*
X136716Y118091D01*
X136665Y116812D02*
Y118040D01*
X134765Y125896D02*
X137845Y128976D01*
X134765Y124526D02*
Y125896D01*
X137845Y128976D02*
X138633D01*
X140300Y130642D01*
X141000Y30230D02*
X143918Y27312D01*
X141000Y30230D02*
Y48900D01*
X145489Y25741D02*
Y25742D01*
Y25741D02*
X153430Y17800D01*
X157070D01*
X151900Y59800D02*
X163800D01*
X141000Y48900D02*
X151900Y59800D01*
X174154Y24763D02*
X174614D01*
X163728D02*
X174154D01*
X138500Y126638D02*
X138633Y126505D01*
Y124560D02*
Y126505D01*
Y124560D02*
X138684Y124509D01*
X136716D02*
X138684D01*
X68879Y150059D02*
X68906Y150085D01*
X68419Y150059D02*
X68879D01*
X67160Y148800D02*
X68419Y150059D01*
X65979Y148800D02*
X67160D01*
X138667Y118109D02*
Y119478D01*
X135878Y122267D02*
X138667Y119478D01*
X151300Y143000D02*
X152575Y141725D01*
X151300Y143000D02*
Y149300D01*
X152575Y141725D02*
X155954D01*
X151300Y149300D02*
X152879Y150879D01*
X155658D02*
X155954Y151174D01*
X142361Y120333D02*
X147700Y125672D01*
X152879Y150879D02*
X155658D01*
X174154Y28700D02*
X174577D01*
X169277D02*
X174154D01*
X286200Y96043D02*
X286400Y96242D01*
X145700Y126218D02*
Y166683D01*
X141784Y122302D02*
X145700Y126218D01*
X145500Y166884D02*
X145700Y166683D01*
X145500Y166884D02*
Y167100D01*
X314472Y182353D02*
X314760Y182641D01*
X314400Y175261D02*
X314472Y175333D01*
X308400Y170100D02*
X314161D01*
X140653Y124509D02*
Y124765D01*
X140784Y124896D01*
Y130158D01*
X308700Y175400D02*
X314261D01*
X322240Y187759D02*
Y191860D01*
X326700Y170900D02*
X329272D01*
X329900Y170272D01*
X322240Y175360D02*
X326700Y170900D01*
X322240Y175360D02*
Y182641D01*
Y185200D02*
X330045D01*
X334900Y190055D01*
Y191728D01*
X140300Y130642D02*
X140784Y130158D01*
X174577Y28700D02*
X174677Y28600D01*
X146800Y40500D02*
X155270D01*
X174614Y24763D02*
X174677Y24700D01*
X228600Y29500D02*
X228762D01*
X136000Y165500D02*
X140400Y169900D01*
X135300Y195200D02*
X135371Y195271D01*
X140229D01*
X140300Y195341D01*
X159900Y188500D02*
X162253Y186147D01*
Y180800D02*
Y186147D01*
X158500Y185000D02*
X159103Y184397D01*
Y180800D02*
Y184397D01*
X141400Y185000D02*
X158500D01*
X141400D02*
X148200Y191800D01*
X140200Y183800D02*
X141400Y185000D01*
X140200Y178650D02*
Y183800D01*
X148200Y191800D02*
Y195241D01*
X132100Y178550D02*
Y184300D01*
X140300Y192500D01*
Y195341D01*
X140200Y200559D02*
X140300Y200459D01*
X140200Y200559D02*
Y206200D01*
X148200Y200359D02*
Y206300D01*
X156000Y200650D02*
X156100Y200750D01*
Y206200D01*
X169100Y128058D02*
Y131300D01*
X168552Y131848D02*
Y136312D01*
Y131848D02*
X169100Y131300D01*
Y128058D02*
X169800Y127357D01*
X369300Y129741D02*
X379341D01*
X162765Y23800D02*
X163728Y24763D01*
X167947Y30030D02*
X169277Y28700D01*
X164335Y30030D02*
X167947D01*
X173365Y55470D02*
X174154Y56259D01*
X188031Y55568D02*
X188063Y55600D01*
X188031Y47232D02*
Y55568D01*
X188000Y47200D02*
X188031Y47232D01*
X155954Y144875D02*
Y148024D01*
X355025Y182786D02*
X356100Y183861D01*
X371200Y155300D02*
X371300Y155400D01*
X371200Y148372D02*
Y155300D01*
X371100Y148272D02*
X371200Y148372D01*
X165402Y180800D02*
Y186950D01*
X150315Y176585D02*
X155739D01*
X155954Y176371D01*
X304700Y73461D02*
Y79100D01*
Y73461D02*
X304921Y73240D01*
X171100Y195039D02*
X171702Y194438D01*
Y180800D02*
Y194438D01*
X167900Y188438D02*
Y188600D01*
Y188438D02*
X168552Y187786D01*
Y180800D02*
Y187786D01*
X163800Y188552D02*
Y188600D01*
Y188552D02*
X165402Y186950D01*
X196898Y169580D02*
X197304Y169985D01*
X140909Y120316D02*
X140926Y120333D01*
X142361D01*
X134747Y124509D02*
X134765Y124526D01*
X134619Y124381D02*
X134747Y124509D01*
X134619Y122412D02*
Y124381D01*
X134491Y122284D02*
X134619Y122412D01*
X66900Y169400D02*
X66955Y169455D01*
Y174876D01*
X67010Y174931D01*
X150500Y160500D02*
X150561Y160561D01*
X150386Y163686D02*
X155867D01*
X155954Y163772D01*
X150561Y160561D02*
X155892D01*
X150300Y163600D02*
X150386Y163686D01*
X155892Y160561D02*
X155954Y160623D01*
X99800Y203900D02*
X100832Y202868D01*
X99800Y203900D02*
X106900D01*
X99500Y204200D02*
X99800Y203900D01*
X165887Y181284D02*
Y182587D01*
X165402Y180800D02*
X165887Y181284D01*
X150211Y167011D02*
X155865D01*
X150200Y167000D02*
X150211Y167011D01*
X150160Y170072D02*
X155954D01*
X155865Y167011D02*
X155954Y166922D01*
X140457Y130800D02*
X143500D01*
X140300Y130642D02*
X140457Y130800D01*
X140926Y122302D02*
X141784D01*
X140909Y122284D02*
X140926Y122302D01*
X138667Y118109D02*
X138684Y118091D01*
X134509Y122267D02*
X135878D01*
X134491Y122284D02*
X134509Y122267D01*
X134474Y120333D02*
X134491Y120316D01*
X133104Y120333D02*
X134474D01*
X132284Y121153D02*
X133104Y120333D01*
X138684Y111573D02*
X138700Y111557D01*
X138684Y111573D02*
Y118091D01*
X160300Y127100D02*
X160328Y127128D01*
X164672D01*
X164700Y127156D01*
X234028Y18219D02*
Y20353D01*
X233741Y20640D02*
X234028Y20353D01*
Y18219D02*
X234974Y17273D01*
X249906D02*
X254041Y21408D01*
X234974Y17273D02*
X249906D01*
X314900Y61300D02*
Y65562D01*
X286658Y94900D02*
X287000Y95243D01*
X356361Y179200D02*
X361000D01*
X356100Y178939D02*
X356361Y179200D01*
X324100Y200900D02*
X329561D01*
X75736Y191531D02*
Y194836D01*
X75475Y191269D02*
X75736Y191531D01*
Y194836D02*
X80500Y199600D01*
X100832Y175831D02*
Y192169D01*
Y202868D01*
X75475Y174931D02*
Y191269D01*
X67010Y174931D02*
Y191269D01*
X67497Y191756D01*
Y203213D01*
X67984Y203700D01*
X368200Y100943D02*
X368564Y100579D01*
X374360D01*
X371100Y168055D02*
Y169728D01*
X348600Y148024D02*
X355852D01*
X356100Y148272D01*
X233741Y27080D02*
X234000Y27339D01*
X233741Y20640D02*
Y27080D01*
X160886Y33170D02*
Y34884D01*
X155270Y40500D02*
X160886Y34884D01*
X162456Y31600D02*
X162765D01*
X244132Y27773D02*
X246973D01*
X243800Y27441D02*
X244132Y27773D01*
X246973D02*
X249000Y29800D01*
X243114Y22207D02*
X243700Y22793D01*
Y27341D01*
X243800Y27441D01*
X229848Y28414D02*
X232925D01*
X234000Y27339D01*
X228762Y29500D02*
X229848Y28414D01*
X162456Y23800D02*
X162765D01*
Y31600D02*
X164335Y30030D01*
X295079Y57336D02*
Y65760D01*
X304921D02*
X314702D01*
X314581Y73240D02*
X314641Y73300D01*
X279659Y85900D02*
X280035Y85524D01*
X286800D01*
X286698Y94860D02*
X286800Y94757D01*
X286658Y94900D02*
X286698Y94860D01*
X286800Y88476D02*
Y94757D01*
X267839Y21900D02*
X268139Y22200D01*
X259159Y21900D02*
X267839D01*
X259159D02*
X259330Y21730D01*
Y12359D02*
Y21730D01*
Y12359D02*
X259500Y12188D01*
X230300Y13000D02*
X233581D01*
X233741Y13160D01*
X229300Y14000D02*
X230300Y13000D01*
X224761Y14000D02*
X229300D01*
X192000Y78100D02*
X192362Y77738D01*
Y72000D02*
Y77738D01*
X169598Y127156D02*
X169800Y127357D01*
X156000Y194750D02*
X156193Y194942D01*
X164100D01*
X164197Y195039D01*
X171100D01*
D19*
X192400Y79200D02*
D03*
X186800D02*
D03*
X214100Y148800D02*
D03*
X208500D02*
D03*
D20*
X156000Y194750D02*
D03*
Y200650D02*
D03*
X294900Y175050D02*
D03*
Y180950D02*
D03*
X140200Y172750D02*
D03*
Y178650D02*
D03*
X132100Y178550D02*
D03*
Y172650D02*
D03*
X49300Y105150D02*
D03*
Y111050D02*
D03*
D21*
X190650Y193300D02*
D03*
X184750D02*
D03*
X191150Y212200D02*
D03*
X185250D02*
D03*
X214550Y155400D02*
D03*
X208650D02*
D03*
X214550Y161200D02*
D03*
X208650D02*
D03*
X192450Y67900D02*
D03*
X186550D02*
D03*
D22*
X356800Y128438D02*
D03*
Y134562D02*
D03*
X287600Y203262D02*
D03*
Y197138D02*
D03*
X280700Y203362D02*
D03*
Y197238D02*
D03*
X295800Y164562D02*
D03*
Y158438D02*
D03*
X289600Y164662D02*
D03*
Y158538D02*
D03*
X84400Y61862D02*
D03*
Y55738D02*
D03*
X96100Y70262D02*
D03*
Y64138D02*
D03*
X44500Y91262D02*
D03*
Y85138D02*
D03*
D23*
X314138Y73300D02*
D03*
X320262D02*
D03*
X56862Y94300D02*
D03*
X50738D02*
D03*
X101562Y76100D02*
D03*
X95438D02*
D03*
X72238Y89900D02*
D03*
X78362D02*
D03*
X32238Y91500D02*
D03*
X38362D02*
D03*
D24*
X84300Y95858D02*
D03*
Y90543D02*
D03*
X111900Y81358D02*
D03*
Y76042D02*
D03*
X96600Y88557D02*
D03*
Y83242D02*
D03*
X52400Y81757D02*
D03*
Y76442D02*
D03*
X318100Y92142D02*
D03*
Y97457D02*
D03*
X329800Y206258D02*
D03*
Y200942D02*
D03*
X253400Y13858D02*
D03*
Y8542D02*
D03*
X234000Y32458D02*
D03*
Y27143D02*
D03*
X330800Y151657D02*
D03*
Y146343D02*
D03*
X376300Y179443D02*
D03*
Y184757D02*
D03*
X171100Y200157D02*
D03*
Y194843D02*
D03*
X201000Y121985D02*
D03*
Y127300D02*
D03*
X181800Y122043D02*
D03*
Y127357D02*
D03*
X164700Y122043D02*
D03*
Y127357D02*
D03*
X138700Y111557D02*
D03*
Y106243D02*
D03*
X362993Y134223D02*
D03*
Y128908D02*
D03*
X302500Y163857D02*
D03*
Y158543D02*
D03*
X294200Y202758D02*
D03*
Y197442D02*
D03*
X314400Y175458D02*
D03*
Y170142D02*
D03*
X356100Y184057D02*
D03*
Y178743D02*
D03*
X294700Y51643D02*
D03*
Y56958D02*
D03*
X367800Y106158D02*
D03*
Y100842D02*
D03*
X140300Y135958D02*
D03*
Y130642D02*
D03*
X195500Y127058D02*
D03*
Y121742D02*
D03*
X189800Y127058D02*
D03*
Y121742D02*
D03*
X175800Y127357D02*
D03*
Y122043D02*
D03*
X170250Y127357D02*
D03*
Y122043D02*
D03*
X164100Y200257D02*
D03*
Y194942D02*
D03*
D25*
X86959Y23200D02*
D03*
X81841D02*
D03*
X350041Y139700D02*
D03*
X355159D02*
D03*
X67984Y203700D02*
D03*
X73102D02*
D03*
X254041Y21900D02*
D03*
X259159D02*
D03*
X349841Y119400D02*
D03*
X354959D02*
D03*
X279659Y85900D02*
D03*
X274541D02*
D03*
X186641Y72900D02*
D03*
X191759D02*
D03*
X341341Y157900D02*
D03*
X346459D02*
D03*
X341759Y151400D02*
D03*
X336641D02*
D03*
D26*
X84267Y67923D02*
D03*
Y70482D02*
D03*
Y73041D02*
D03*
Y75600D02*
D03*
Y78159D02*
D03*
Y80718D02*
D03*
Y83277D02*
D03*
X61133D02*
D03*
Y80718D02*
D03*
Y78159D02*
D03*
Y75600D02*
D03*
Y73041D02*
D03*
Y70482D02*
D03*
Y67923D02*
D03*
D27*
X44758Y76500D02*
D03*
X39443D02*
D03*
X56157Y88100D02*
D03*
X50842D02*
D03*
X302043Y187700D02*
D03*
X307358D02*
D03*
X224957Y14000D02*
D03*
X219642D02*
D03*
X224957Y20000D02*
D03*
X219642D02*
D03*
X273257Y22200D02*
D03*
X267943D02*
D03*
X162157Y23800D02*
D03*
X156843D02*
D03*
X162157Y31600D02*
D03*
X156843D02*
D03*
X158942Y53800D02*
D03*
X164258D02*
D03*
X281343Y94900D02*
D03*
X286658D02*
D03*
X94185Y204200D02*
D03*
X99500D02*
D03*
X320158Y65900D02*
D03*
X314843D02*
D03*
D28*
X64500Y104400D02*
D03*
Y122800D02*
D03*
D29*
X75475Y191269D02*
D03*
Y174931D02*
D03*
X67010Y191269D02*
D03*
Y174931D02*
D03*
X92368Y175831D02*
D03*
Y192169D02*
D03*
X100832Y175831D02*
D03*
Y192169D02*
D03*
D30*
X65979Y152540D02*
D03*
Y148800D02*
D03*
Y145060D02*
D03*
X75821D02*
D03*
Y148800D02*
D03*
Y152540D02*
D03*
X295079Y65760D02*
D03*
Y73240D02*
D03*
X304921D02*
D03*
Y69500D02*
D03*
Y65760D02*
D03*
X295379Y94860D02*
D03*
Y102340D02*
D03*
X305221D02*
D03*
Y98600D02*
D03*
Y94860D02*
D03*
D31*
X322240Y182641D02*
D03*
Y185200D02*
D03*
Y187759D02*
D03*
X314760D02*
D03*
Y182641D02*
D03*
D32*
X233741Y13160D02*
D03*
X236300D02*
D03*
X238859D02*
D03*
Y20640D02*
D03*
X236300D02*
D03*
X233741D02*
D03*
D33*
X280253Y78435D02*
D03*
X274347D02*
D03*
D34*
X292293Y246900D02*
D03*
X303907D02*
D03*
X284607Y10900D02*
D03*
X272993D02*
D03*
D35*
X298100Y240896D02*
D03*
X278800Y16904D02*
D03*
D36*
X191000Y224811D02*
D03*
Y251189D02*
D03*
D37*
X47679Y150631D02*
D03*
Y147969D02*
D03*
X51517D02*
D03*
Y150631D02*
D03*
D38*
X186268Y168398D02*
D03*
Y158556D02*
D03*
Y148713D02*
D03*
X176426Y168398D02*
D03*
Y158556D02*
D03*
Y148713D02*
D03*
X166584Y168398D02*
D03*
Y158556D02*
D03*
Y148713D02*
D03*
D39*
X155954Y176371D02*
D03*
Y173221D02*
D03*
Y170072D02*
D03*
Y166922D02*
D03*
Y163772D02*
D03*
Y160623D02*
D03*
Y157473D02*
D03*
Y154324D02*
D03*
Y151174D02*
D03*
Y148024D02*
D03*
Y144875D02*
D03*
Y141725D02*
D03*
X196898Y141233D02*
D03*
Y144383D02*
D03*
Y147532D02*
D03*
Y150682D02*
D03*
Y153832D02*
D03*
Y156981D02*
D03*
Y160131D02*
D03*
Y163280D02*
D03*
Y166430D02*
D03*
Y169580D02*
D03*
Y172729D02*
D03*
Y175879D02*
D03*
D40*
X159103Y180800D02*
D03*
X162253D02*
D03*
X165402D02*
D03*
X168552D02*
D03*
X171702D02*
D03*
X174851D02*
D03*
X178001D02*
D03*
X181150D02*
D03*
X184300D02*
D03*
X187450D02*
D03*
X190599D02*
D03*
X193749D02*
D03*
Y136312D02*
D03*
X190599D02*
D03*
X187450D02*
D03*
X184300D02*
D03*
X181150D02*
D03*
X178001D02*
D03*
X174851D02*
D03*
X171702D02*
D03*
X168552D02*
D03*
X165402D02*
D03*
X162253D02*
D03*
X159103D02*
D03*
D41*
X355221Y91164D02*
D03*
Y86636D02*
D03*
D42*
X345379Y88900D02*
D03*
D43*
X316900Y118124D02*
D03*
Y121076D02*
D03*
X311300Y91376D02*
D03*
Y88424D02*
D03*
X348600Y150976D02*
D03*
Y148024D02*
D03*
X286800Y85524D02*
D03*
Y88476D02*
D03*
D44*
X243800Y32559D02*
D03*
Y27441D02*
D03*
X324200Y151959D02*
D03*
Y146841D02*
D03*
X191100Y204935D02*
D03*
Y199817D02*
D03*
X368700Y134559D02*
D03*
Y129441D02*
D03*
X140300Y200459D02*
D03*
Y195341D02*
D03*
X148200Y200359D02*
D03*
Y195241D02*
D03*
X214274Y140881D02*
D03*
Y135763D02*
D03*
X369600Y179841D02*
D03*
Y184959D02*
D03*
D45*
X329900Y170272D02*
D03*
X334900D02*
D03*
X339900D02*
D03*
X344900D02*
D03*
X329900Y191728D02*
D03*
X334900D02*
D03*
X339900D02*
D03*
X344900D02*
D03*
X356100Y148272D02*
D03*
X361100D02*
D03*
X366100D02*
D03*
X371100D02*
D03*
X356100Y169728D02*
D03*
X361100D02*
D03*
X366100D02*
D03*
X371100D02*
D03*
D46*
X174154Y56259D02*
D03*
Y52322D02*
D03*
Y48385D02*
D03*
Y44448D02*
D03*
Y40511D02*
D03*
Y36574D02*
D03*
Y32637D02*
D03*
Y28700D02*
D03*
Y24763D02*
D03*
Y20826D02*
D03*
Y16889D02*
D03*
Y12952D02*
D03*
X208800D02*
D03*
Y16889D02*
D03*
Y20826D02*
D03*
Y24763D02*
D03*
Y28700D02*
D03*
Y32637D02*
D03*
Y36574D02*
D03*
Y40511D02*
D03*
Y44448D02*
D03*
Y48385D02*
D03*
Y52322D02*
D03*
Y56259D02*
D03*
D47*
X174154Y8424D02*
D03*
X208800D02*
D03*
D48*
X199351Y57834D02*
D03*
X195414D02*
D03*
X191477D02*
D03*
X187540D02*
D03*
X183603D02*
D03*
D49*
X377400Y110821D02*
D03*
X381140Y100979D02*
D03*
X373660D02*
D03*
D50*
X259500Y8212D02*
D03*
Y12188D02*
D03*
D51*
X134747Y118091D02*
D03*
X136716D02*
D03*
X138684D02*
D03*
X140653D02*
D03*
Y124509D02*
D03*
X138684D02*
D03*
X136716D02*
D03*
X134747D02*
D03*
D52*
X140909Y120316D02*
D03*
Y122284D02*
D03*
X134491D02*
D03*
Y120316D02*
D03*
D97*
X65348Y103600D02*
X67800D01*
X64665Y102917D02*
X65348Y103600D01*
X63000Y98800D02*
X64665Y100465D01*
X49818Y98800D02*
X63000D01*
X64665Y100465D02*
Y102917D01*
X48318Y97300D02*
X49818Y98800D01*
X47000Y97300D02*
X48318D01*
X44500Y94800D02*
X47000Y97300D01*
X44500Y91262D02*
Y94800D01*
X322200Y191900D02*
X322240Y191860D01*
D98*
X37500Y135800D02*
Y145543D01*
X46902Y154945D01*
X30924Y129224D02*
X37500Y135800D01*
X30924Y114786D02*
Y129224D01*
X7000Y97600D02*
X13737D01*
X30924Y114786D01*
X33877Y67923D02*
X61133D01*
X7739Y94061D02*
Y96861D01*
Y94061D02*
X33877Y67923D01*
X7000Y97600D02*
X7739Y96861D01*
X120000Y120395D02*
X124892Y115503D01*
X120000Y120395D02*
Y137000D01*
X102055Y154945D02*
X120000Y137000D01*
X46902Y154945D02*
X102055D01*
D99*
X287800Y76200D02*
X300024Y88424D01*
X303776D01*
X287800Y70500D02*
Y76200D01*
X217400Y166000D02*
X220421Y162979D01*
X203900Y166000D02*
X217400D01*
X201180Y163280D02*
X203900Y166000D01*
X220421Y159304D02*
Y162979D01*
X224069Y155656D02*
X242000Y137725D01*
Y94000D02*
X268300Y67700D01*
X242000Y94000D02*
Y137725D01*
X268300Y67700D02*
X285000D01*
X220421Y159304D02*
X224069Y155656D01*
X285000Y67700D02*
X287800Y70500D01*
X311300Y91376D02*
Y95515D01*
X313243Y97457D02*
X318100D01*
X311300Y95515D02*
X313243Y97457D01*
Y97843D01*
X316900Y98658D02*
X318100Y97457D01*
X303776Y88424D02*
X311300D01*
X305221Y92179D02*
X306024Y91376D01*
X311300D01*
X305221Y92179D02*
Y94860D01*
X316900Y121076D02*
X323074Y127251D01*
X337696D01*
X316900Y98658D02*
Y118124D01*
X49450Y105000D02*
X54368D01*
X376119Y184741D02*
Y192281D01*
Y184741D02*
X376300Y184561D01*
X359781Y139519D02*
X359800Y139500D01*
X355159Y139700D02*
X355340Y139519D01*
X196898Y163280D02*
X201180D01*
X307343Y163857D02*
X309131Y162069D01*
X302500Y163857D02*
X307343D01*
X309131Y162069D02*
X314300D01*
X362181Y190138D02*
Y192281D01*
X362200Y192300D01*
X356100Y184057D02*
X362181Y190138D01*
X376100Y192300D02*
X376119Y192281D01*
X369000Y192300D02*
X369019Y192281D01*
Y185390D02*
Y192281D01*
Y185390D02*
X369450Y184959D01*
X369600D01*
X280600Y190900D02*
X280619Y190919D01*
Y197157D01*
X280700Y197238D01*
X294100Y191500D02*
X294119Y191519D01*
Y197362D01*
X294200Y197442D01*
X289600Y152000D02*
Y158538D01*
X324200Y206200D02*
X324219Y206219D01*
X329762D01*
X329800Y206258D01*
X286400Y96242D02*
Y100700D01*
X49300Y105150D02*
X49450Y105000D01*
X286698Y94860D02*
X295379D01*
D100*
X64798Y152540D02*
X65979D01*
X75821D02*
X77002D01*
X65979D02*
X75821D01*
X79497Y150316D02*
X80100Y149714D01*
Y147886D02*
X80951D01*
X77002Y152540D02*
X78247Y151295D01*
X79497Y147284D02*
X80100Y147886D01*
X80951D02*
X83400Y145437D01*
X80100Y149714D02*
X81708D01*
X78247Y151295D02*
X78728D01*
X83400Y112443D02*
Y145437D01*
X79497Y150316D02*
Y150525D01*
X78728Y151295D02*
X79497Y150525D01*
X85228Y113200D02*
Y146194D01*
X65979Y145060D02*
X75821D01*
X77002D01*
X214100Y141055D02*
X214274Y140881D01*
X214100Y141055D02*
Y148800D01*
X64798Y145060D02*
X65979D01*
X62303Y147075D02*
X63072Y146305D01*
X63553D01*
X64798Y145060D01*
X53127Y148386D02*
X57621D01*
X52934Y148194D02*
X53127Y148386D01*
X58121Y147886D02*
X61700D01*
X51517Y147969D02*
X51741Y148194D01*
X52934D01*
X61700Y147886D02*
X62303Y147284D01*
Y147075D02*
Y147284D01*
X57621Y148386D02*
X58121Y147886D01*
X63553Y151295D02*
X64798Y152540D01*
X63072Y151295D02*
X63553D01*
X62303Y150316D02*
Y150525D01*
X63072Y151295D01*
X52934Y150407D02*
X53127Y150214D01*
X58378D01*
X51517Y150631D02*
X51741Y150407D01*
X52934D01*
X61700Y149714D02*
X62303Y150316D01*
X58878Y149714D02*
X61700D01*
X58378Y150214D02*
X58878Y149714D01*
X161783Y135842D02*
X162253Y136312D01*
X161783Y134482D02*
Y135842D01*
X161592Y134292D02*
X161783Y134482D01*
X161592Y131382D02*
Y134292D01*
X158186Y127976D02*
X161592Y131382D01*
X158186Y107001D02*
Y127976D01*
X145857Y94672D02*
X158186Y107001D01*
X159103Y136312D02*
X159573Y135842D01*
Y134482D02*
Y135842D01*
Y134482D02*
X159764Y134292D01*
Y132139D02*
Y134292D01*
X156358Y128733D02*
X159764Y132139D01*
X156358Y107758D02*
Y128733D01*
X145100Y96500D02*
X156358Y107758D01*
X101171Y94672D02*
X145857D01*
X101928Y96500D02*
X145100D01*
X83400Y112443D02*
X101171Y94672D01*
X85228Y113200D02*
X101928Y96500D01*
X79497Y147075D02*
Y147284D01*
X78728Y146305D02*
X79497Y147075D01*
X78247Y146305D02*
X78728D01*
X77002Y145060D02*
X78247Y146305D01*
X81708Y149714D02*
X85228Y146194D01*
X70900Y147600D02*
X71055D01*
X71588Y148133D02*
X75154D01*
X71055Y147600D02*
X71588Y148133D01*
X75154D02*
X75821Y148800D01*
X196898Y156981D02*
X197143Y156736D01*
X207314D01*
X208650Y155400D01*
X196898Y160131D02*
X207581D01*
X208650Y161200D01*
D101*
X38224Y91262D02*
X44500D01*
D102*
X38162Y91200D02*
X38224Y91262D01*
X58350Y128600D02*
X64950Y122000D01*
X49704Y128600D02*
X58350D01*
D103*
X191100Y199700D02*
X191217Y199817D01*
X190939Y199700D02*
X191100D01*
X286700Y213500D02*
X298100Y224900D01*
X263446Y213500D02*
X286700D01*
X249763Y199817D02*
X263446Y213500D01*
X298100Y224900D02*
Y240896D01*
X190650Y193300D02*
X190875Y193525D01*
X190615Y193265D02*
X190650Y193300D01*
X190875Y199636D02*
X190939Y199700D01*
X191217Y199817D02*
X249763D01*
X190875Y193525D02*
Y199636D01*
X191000Y216150D02*
Y224811D01*
Y213200D02*
Y216150D01*
Y212350D02*
Y213200D01*
X190615Y180816D02*
Y193265D01*
X191000Y212350D02*
X191150Y212200D01*
X191125Y212175D02*
X191150Y212200D01*
X191125Y204960D02*
Y212175D01*
X191100Y204935D02*
X191125Y204960D01*
X190599Y180800D02*
X190615Y180816D01*
D104*
X100883Y247300D02*
X122000D01*
X98295Y249838D02*
Y250036D01*
X99400Y247300D02*
X100833D01*
X98295Y248405D02*
X99400Y247300D01*
X100833D02*
X100883D01*
X98295Y248405D02*
Y250036D01*
X99448Y251189D01*
X183716D01*
X191000D01*
D105*
X87800Y29200D02*
D03*
X81200D02*
D03*
D106*
X283169Y128600D02*
D03*
X104232D02*
D03*
D107*
X49704D02*
D03*
X337696D02*
D03*
D108*
X377800Y129800D02*
D03*
D109*
X11728Y139128D02*
D03*
Y117672D02*
D03*
D110*
X23657Y137947D02*
D03*
Y118853D02*
D03*
D111*
X7000Y97600D02*
D03*
Y77600D02*
D03*
Y87600D02*
D03*
Y178700D02*
D03*
Y168700D02*
D03*
Y188700D02*
D03*
D112*
Y67600D02*
D03*
Y158700D02*
D03*
D113*
X65900Y241900D02*
D03*
X318600Y16000D02*
D03*
X65900D02*
D03*
X318600Y241900D02*
D03*
D114*
X67393Y78792D02*
D03*
X101250Y64250D02*
D03*
X211900Y111700D02*
D03*
X206500Y106900D02*
D03*
X129300Y60600D02*
D03*
X109500Y60700D02*
D03*
X370000Y200000D02*
D03*
Y80000D02*
D03*
X360000Y60000D02*
D03*
X350000Y200000D02*
D03*
X340000Y140000D02*
D03*
Y100000D02*
D03*
X350000Y80000D02*
D03*
X340000Y60000D02*
D03*
X330000Y240000D02*
D03*
X320000Y220000D02*
D03*
Y180000D02*
D03*
Y140000D02*
D03*
X330000Y120000D02*
D03*
Y80000D02*
D03*
X320000Y60000D02*
D03*
X330000Y40000D02*
D03*
X310000Y240000D02*
D03*
Y200000D02*
D03*
X300000Y180000D02*
D03*
Y140000D02*
D03*
X310000Y120000D02*
D03*
Y80000D02*
D03*
X300000Y60000D02*
D03*
X310000Y40000D02*
D03*
X300000Y20000D02*
D03*
X290000Y240000D02*
D03*
X280000Y180000D02*
D03*
Y60000D02*
D03*
X290000Y40000D02*
D03*
X270000Y200000D02*
D03*
X260000Y180000D02*
D03*
X270000Y160000D02*
D03*
X260000Y140000D02*
D03*
X270000Y120000D02*
D03*
X260000Y100000D02*
D03*
Y60000D02*
D03*
X240000Y180000D02*
D03*
X250000Y160000D02*
D03*
Y120000D02*
D03*
Y80000D02*
D03*
X240000Y60000D02*
D03*
X250000Y40000D02*
D03*
X220000Y180000D02*
D03*
X230000Y120000D02*
D03*
Y80000D02*
D03*
Y40000D02*
D03*
X200000Y180000D02*
D03*
X210000Y80000D02*
D03*
X200000Y20000D02*
D03*
X180000Y140000D02*
D03*
X190000Y40000D02*
D03*
X180000Y20000D02*
D03*
X160000Y140000D02*
D03*
Y100000D02*
D03*
X170000Y80000D02*
D03*
X140000Y140000D02*
D03*
X150000Y120000D02*
D03*
X140000Y100000D02*
D03*
Y20000D02*
D03*
X130000Y200000D02*
D03*
X120000Y100000D02*
D03*
X130000Y80000D02*
D03*
Y40000D02*
D03*
X120000Y20000D02*
D03*
X110000Y200000D02*
D03*
Y40000D02*
D03*
X100000Y20000D02*
D03*
X80000Y220000D02*
D03*
X90000Y200000D02*
D03*
Y160000D02*
D03*
X80000Y140000D02*
D03*
X90000Y120000D02*
D03*
Y40000D02*
D03*
X80000Y20000D02*
D03*
X60000Y220000D02*
D03*
X70000Y200000D02*
D03*
Y160000D02*
D03*
X60000Y140000D02*
D03*
Y60000D02*
D03*
X70000Y40000D02*
D03*
X50000Y200000D02*
D03*
Y160000D02*
D03*
X40000Y100000D02*
D03*
Y60000D02*
D03*
X50000Y40000D02*
D03*
X30000Y200000D02*
D03*
Y160000D02*
D03*
X20000Y100000D02*
D03*
X30000Y80000D02*
D03*
X20000Y60000D02*
D03*
X106600Y80600D02*
D03*
X91000Y72900D02*
D03*
Y75700D02*
D03*
X92600Y55600D02*
D03*
X106600Y76100D02*
D03*
X300000Y99200D02*
D03*
X119600Y74100D02*
D03*
X131984Y118084D02*
D03*
X62100Y88700D02*
D03*
X317414Y45500D02*
D03*
X179900Y159800D02*
D03*
X179400Y174700D02*
D03*
X159800D02*
D03*
X187309Y217219D02*
D03*
X186743Y206955D02*
D03*
X195482Y206893D02*
D03*
X195721Y209482D02*
D03*
X195874Y212077D02*
D03*
X195792Y214676D02*
D03*
X194691Y217032D02*
D03*
X297565Y245787D02*
D03*
X293307Y240872D02*
D03*
X293381Y238273D02*
D03*
X294409Y235885D02*
D03*
Y233285D02*
D03*
Y230685D02*
D03*
Y228085D02*
D03*
X293596Y225615D02*
D03*
X291757Y223777D02*
D03*
X289919Y221938D02*
D03*
X288080Y220100D02*
D03*
X283873Y217191D02*
D03*
X281273D02*
D03*
X278673D02*
D03*
X276073D02*
D03*
X273472D02*
D03*
X270872D02*
D03*
X268272D02*
D03*
X265672D02*
D03*
X263073Y217148D02*
D03*
X260736Y216009D02*
D03*
X258897Y214171D02*
D03*
X257059Y212333D02*
D03*
X255220Y210494D02*
D03*
X253382Y208656D02*
D03*
X251543Y206817D02*
D03*
X249705Y204979D02*
D03*
X247561Y203508D02*
D03*
X244961D02*
D03*
X242361D02*
D03*
X239761D02*
D03*
X237161D02*
D03*
X234561D02*
D03*
X231961D02*
D03*
X229361D02*
D03*
X226761D02*
D03*
X224161D02*
D03*
X221561D02*
D03*
X218961D02*
D03*
X216361D02*
D03*
X213761D02*
D03*
X211161D02*
D03*
X208561D02*
D03*
X205961D02*
D03*
X203361D02*
D03*
X200761D02*
D03*
X198161D02*
D03*
X195561D02*
D03*
X187829Y203302D02*
D03*
X186604Y201009D02*
D03*
X186633Y198409D02*
D03*
X186924Y185642D02*
D03*
X194306Y185928D02*
D03*
X195305Y190928D02*
D03*
X195374Y193527D02*
D03*
X195321Y196126D02*
D03*
X197921D02*
D03*
X200521D02*
D03*
X203121D02*
D03*
X205721D02*
D03*
X208321D02*
D03*
X210921D02*
D03*
X213521D02*
D03*
X216121D02*
D03*
X218721D02*
D03*
X221321D02*
D03*
X223921D02*
D03*
X226521D02*
D03*
X229121D02*
D03*
X231721D02*
D03*
X234321D02*
D03*
X236921D02*
D03*
X239521D02*
D03*
X242121D02*
D03*
X244721D02*
D03*
X247321D02*
D03*
X249921Y196134D02*
D03*
X252310Y197159D02*
D03*
X254156Y198991D02*
D03*
X255994Y200829D02*
D03*
X257833Y202668D02*
D03*
X259671Y204506D02*
D03*
X261510Y206345D02*
D03*
X263348Y208183D02*
D03*
X265377Y209809D02*
D03*
X267977D02*
D03*
X270577D02*
D03*
X273177D02*
D03*
X275777D02*
D03*
X278377D02*
D03*
X280977D02*
D03*
X283577D02*
D03*
X286177D02*
D03*
X288704Y210420D02*
D03*
X290609Y212190D02*
D03*
X292448Y214028D02*
D03*
X294286Y215866D02*
D03*
X296125Y217705D02*
D03*
X297963Y219543D02*
D03*
X299801Y221382D02*
D03*
X301457Y223387D02*
D03*
X301791Y225965D02*
D03*
Y228566D02*
D03*
Y231166D02*
D03*
Y233766D02*
D03*
Y236366D02*
D03*
X302879Y238727D02*
D03*
X286400Y100700D02*
D03*
X163800Y59800D02*
D03*
D115*
X224069Y155656D02*
D03*
X150200Y157336D02*
D03*
X136000Y157164D02*
D03*
X33600Y128200D02*
D03*
Y125600D02*
D03*
X124892Y115503D02*
D03*
X213581Y131319D02*
D03*
X201100Y131300D02*
D03*
X185900Y115100D02*
D03*
X121924Y122400D02*
D03*
X213027Y100778D02*
D03*
X219400Y100900D02*
D03*
X54368Y105000D02*
D03*
X305000Y194100D02*
D03*
X347098Y142004D02*
D03*
X350700Y168500D02*
D03*
X350800Y175700D02*
D03*
X335000Y200400D02*
D03*
X328900Y180400D02*
D03*
X205900Y175400D02*
D03*
X206138Y170248D02*
D03*
X70900Y150200D02*
D03*
Y147600D02*
D03*
X270300Y77400D02*
D03*
X238500Y25400D02*
D03*
X224800Y24200D02*
D03*
X362800Y124100D02*
D03*
X356700Y124200D02*
D03*
X362300Y100700D02*
D03*
X378900Y94400D02*
D03*
X192400Y159600D02*
D03*
X147600Y170000D02*
D03*
X177500Y73100D02*
D03*
X330500Y142300D02*
D03*
X359800Y139500D02*
D03*
X324100Y142300D02*
D03*
X139400Y150700D02*
D03*
X144700Y111100D02*
D03*
X314300Y162069D02*
D03*
X302400Y151900D02*
D03*
X150200Y173200D02*
D03*
Y176700D02*
D03*
X362200Y192300D02*
D03*
X376100D02*
D03*
X369000D02*
D03*
X301700Y202800D02*
D03*
X294100Y191500D02*
D03*
X280600Y190900D02*
D03*
X289600Y152000D02*
D03*
X324200Y206200D02*
D03*
X138633Y126505D02*
D03*
X143918Y27312D02*
D03*
X294000Y169100D02*
D03*
X308400Y170100D02*
D03*
Y175400D02*
D03*
X322200Y191900D02*
D03*
X135300Y195200D02*
D03*
X159900Y188600D02*
D03*
X148200Y206300D02*
D03*
X140200D02*
D03*
X188000Y47200D02*
D03*
X371300Y155400D02*
D03*
X304700Y79100D02*
D03*
X156100Y206300D02*
D03*
X167900Y188600D02*
D03*
X163800D02*
D03*
X327500Y162400D02*
D03*
X66900Y169400D02*
D03*
X150200Y160500D02*
D03*
X106900Y203900D02*
D03*
X150200Y163600D02*
D03*
Y167000D02*
D03*
X145500D02*
D03*
X143500Y130800D02*
D03*
X314900Y61300D02*
D03*
X361000Y179200D02*
D03*
X324100Y200900D02*
D03*
X80500Y199600D02*
D03*
X160300Y127100D02*
D03*
X146800Y40500D02*
D03*
X249000Y29800D02*
D03*
X228600Y29500D02*
D03*
M02*
