G04*
G04 #@! TF.GenerationSoftware,Altium Limited,Altium Designer,21.6.1 (37)*
G04*
G04 Layer_Physical_Order=3*
G04 Layer_Color=128*
%FSLAX44Y44*%
%MOMM*%
G71*
G04*
G04 #@! TF.SameCoordinates,8A31D3E6-7417-4931-9B95-E7CF89301AF7*
G04*
G04*
G04 #@! TF.FilePolarity,Negative*
G04*
G01*
G75*
%ADD107C,1.0160*%
%ADD130C,1.7780*%
%ADD131O,2.2160X1.7160*%
%ADD132O,2.0660X1.6660*%
%ADD133C,5.4160*%
%ADD134R,2.2860X4.1660*%
%ADD135C,2.2860*%
%ADD136C,2.0160*%
%ADD137C,4.0640*%
%ADD138C,1.3208*%
%ADD139C,1.4224*%
%ADD140R,50.9778X9.4996*%
%ADD141R,14.0716X7.6200*%
D107*
X130063Y55064D02*
G03*
X60064Y125063I-70000J-0D01*
G01*
X130063Y40064D02*
G03*
X170063Y63I40000J-0D01*
G01*
X810063D02*
G03*
X850063Y40064I-0J40000D01*
G01*
X920063Y125063D02*
G03*
X850063Y55064I0J-70000D01*
G01*
X940063Y125063D02*
G03*
X980064Y165063I0J40000D01*
G01*
Y485064D02*
G03*
X940063Y525064I-40000J-0D01*
G01*
X850063Y595064D02*
G03*
X920064Y525064I70000J0D01*
G01*
X850064Y610064D02*
G03*
X810064Y650063I-40000J0D01*
G01*
X170063Y650063D02*
G03*
X130063Y610064I0J-40000D01*
G01*
X60064Y525064D02*
G03*
X130063Y595064I0J70000D01*
G01*
X40064Y525064D02*
G03*
X63Y485064I-0J-40000D01*
G01*
Y165063D02*
G03*
X40064Y125063I40000J0D01*
G01*
X63Y165063D02*
X63D01*
Y485064D01*
X63D02*
X63D01*
X40064Y525064D02*
X60064D01*
X130063Y595064D02*
Y610064D01*
X170063Y650063D02*
X810063D01*
X810064Y650063D01*
X850063Y610064D02*
X850064Y610064D01*
X850063Y595064D02*
Y610064D01*
X920064Y525064D02*
X940063D01*
X980063Y485064D02*
X980064D01*
X980063Y165063D02*
Y485064D01*
Y165063D02*
X980064D01*
X920063Y125063D02*
X940063D01*
X850063Y40064D02*
Y55064D01*
X170063Y63D02*
X810063D01*
X130063Y40064D02*
Y55064D01*
X40064Y125063D02*
X60064D01*
D130*
X585029Y602488D02*
D03*
D131*
X29788Y298886D02*
D03*
Y353386D02*
D03*
D132*
X60088Y301886D02*
D03*
Y350386D02*
D03*
D133*
X719248Y326644D02*
D03*
X264748D02*
D03*
D134*
X126248D02*
D03*
X857748D02*
D03*
D135*
X959612Y329692D02*
D03*
D136*
X20066Y469900D02*
D03*
Y393700D02*
D03*
Y419100D02*
D03*
Y444500D02*
D03*
Y229108D02*
D03*
Y203708D02*
D03*
Y178308D02*
D03*
Y254508D02*
D03*
D137*
X167386Y614426D02*
D03*
X809244Y40640D02*
D03*
X167386D02*
D03*
X809244Y614426D02*
D03*
D138*
X543052Y639572D02*
D03*
X562356Y639826D02*
D03*
X543052Y569595D02*
D03*
X424634Y639445D02*
D03*
X405003Y639572D02*
D03*
X385282D02*
D03*
X365561D02*
D03*
X345839D02*
D03*
X326027Y639445D02*
D03*
X306397Y639572D02*
D03*
X287093Y569849D02*
D03*
X306397Y569595D02*
D03*
X326118D02*
D03*
X345839D02*
D03*
X365561D02*
D03*
X385282D02*
D03*
X405003D02*
D03*
X424724D02*
D03*
X444446D02*
D03*
X464167D02*
D03*
X483888D02*
D03*
X503610D02*
D03*
X523331D02*
D03*
X444446Y639572D02*
D03*
X464167D02*
D03*
X483888D02*
D03*
X503610D02*
D03*
X523331D02*
D03*
X523334Y418405D02*
D03*
X523240Y433832D02*
D03*
X522986Y449401D02*
D03*
X697522Y244132D02*
D03*
X176530Y172720D02*
D03*
X310896Y186690D02*
D03*
X86530Y183642D02*
D03*
X287782Y189738D02*
D03*
X152400Y152400D02*
D03*
X203200Y254000D02*
D03*
X50800D02*
D03*
X939800Y508000D02*
D03*
Y406400D02*
D03*
Y304800D02*
D03*
Y203200D02*
D03*
X914400Y152400D02*
D03*
X889000Y508000D02*
D03*
X863600Y254000D02*
D03*
X889000Y203200D02*
D03*
X863600Y152400D02*
D03*
X838200Y609600D02*
D03*
X812800Y558800D02*
D03*
X838200Y406400D02*
D03*
X812800Y355600D02*
D03*
X838200Y304800D02*
D03*
Y101600D02*
D03*
X787400Y609600D02*
D03*
Y508000D02*
D03*
X762000Y457200D02*
D03*
Y355600D02*
D03*
X787400Y304800D02*
D03*
X762000Y254000D02*
D03*
X787400Y203200D02*
D03*
X762000Y152400D02*
D03*
X787400Y101600D02*
D03*
X762000Y50800D02*
D03*
X736600Y609600D02*
D03*
X711200Y254000D02*
D03*
X736600Y203200D02*
D03*
Y101600D02*
D03*
X711200Y50800D02*
D03*
X685800Y508000D02*
D03*
X660400Y457200D02*
D03*
X685800Y406400D02*
D03*
X660400Y355600D02*
D03*
Y254000D02*
D03*
Y152400D02*
D03*
X685800Y101600D02*
D03*
X609600Y457200D02*
D03*
X635000Y406400D02*
D03*
X609600Y355600D02*
D03*
Y254000D02*
D03*
Y152400D02*
D03*
X635000Y101600D02*
D03*
X609600Y50800D02*
D03*
X558800Y457200D02*
D03*
X584200Y406400D02*
D03*
Y304800D02*
D03*
X558800Y152400D02*
D03*
X584200Y101600D02*
D03*
X508000Y457200D02*
D03*
X533400Y304800D02*
D03*
X508000Y254000D02*
D03*
X533400Y203200D02*
D03*
X508000Y152400D02*
D03*
X457200Y355600D02*
D03*
Y254000D02*
D03*
Y152400D02*
D03*
X482600Y101600D02*
D03*
X406400Y355600D02*
D03*
Y254000D02*
D03*
Y152400D02*
D03*
X355600Y355600D02*
D03*
Y254000D02*
D03*
X381000Y203200D02*
D03*
X355600Y152400D02*
D03*
X381000Y101600D02*
D03*
X355600Y50800D02*
D03*
X330200Y508000D02*
D03*
X304800Y457200D02*
D03*
Y355600D02*
D03*
X330200Y304800D02*
D03*
X304800Y254000D02*
D03*
Y152400D02*
D03*
X330200Y101600D02*
D03*
X304800Y50800D02*
D03*
X279400Y508000D02*
D03*
Y406400D02*
D03*
X254000Y152400D02*
D03*
X279400Y101600D02*
D03*
X254000Y50800D02*
D03*
X203200Y558800D02*
D03*
X228600Y508000D02*
D03*
X203200Y457200D02*
D03*
X228600Y406400D02*
D03*
X203200Y355600D02*
D03*
X228600Y304800D02*
D03*
Y101600D02*
D03*
X203200Y50800D02*
D03*
X152400Y558800D02*
D03*
X177800Y508000D02*
D03*
X152400Y457200D02*
D03*
X177800Y406400D02*
D03*
X152400Y355600D02*
D03*
X177800Y304800D02*
D03*
Y203200D02*
D03*
Y101600D02*
D03*
X127000Y508000D02*
D03*
X101600Y457200D02*
D03*
X127000Y406400D02*
D03*
Y203200D02*
D03*
X101600Y152400D02*
D03*
X127000Y101600D02*
D03*
X76200Y508000D02*
D03*
X50800Y457200D02*
D03*
X76200Y406400D02*
D03*
Y304800D02*
D03*
X50800Y152400D02*
D03*
X298994Y285206D02*
D03*
X158242Y262890D02*
D03*
X310642Y202438D02*
D03*
X227584Y185420D02*
D03*
X227838Y198374D02*
D03*
X152146Y378714D02*
D03*
X178816Y368142D02*
D03*
X335240Y299934D02*
D03*
X345440Y384940D02*
D03*
X369512Y425030D02*
D03*
X381508Y407670D02*
D03*
X354076Y382778D02*
D03*
X381508Y424180D02*
D03*
X378121Y431891D02*
D03*
X335788Y337058D02*
D03*
X456946Y405892D02*
D03*
X488696Y405384D02*
D03*
X524510Y271526D02*
D03*
X538226Y283718D02*
D03*
X474472Y120904D02*
D03*
X169926Y430276D02*
D03*
X176530Y179578D02*
D03*
X85344Y319024D02*
D03*
Y325628D02*
D03*
X852170Y359664D02*
D03*
X591312Y61214D02*
D03*
X565658Y74422D02*
D03*
X787400Y211074D02*
D03*
X957834Y235712D02*
D03*
X807212Y151638D02*
D03*
X785368Y250190D02*
D03*
X328422Y153924D02*
D03*
X278130Y154178D02*
D03*
X381508Y399633D02*
D03*
X455676Y443738D02*
D03*
X405892D02*
D03*
X745001Y611814D02*
D03*
X745187Y605213D02*
D03*
X747799Y599147D02*
D03*
Y592543D02*
D03*
Y585939D02*
D03*
Y579336D02*
D03*
X745733Y573063D02*
D03*
X741064Y568393D02*
D03*
X736394Y563724D02*
D03*
X731724Y559054D02*
D03*
X721036Y551665D02*
D03*
X714432D02*
D03*
X707828D02*
D03*
X701224D02*
D03*
X694620D02*
D03*
X688016D02*
D03*
X681412D02*
D03*
X674808D02*
D03*
X668205Y551557D02*
D03*
X662268Y548664D02*
D03*
X657598Y543994D02*
D03*
X652929Y539325D02*
D03*
X648259Y534655D02*
D03*
X643589Y529985D02*
D03*
X638919Y525316D02*
D03*
X634250Y520646D02*
D03*
X628804Y516910D02*
D03*
X622200D02*
D03*
X615596D02*
D03*
X608992D02*
D03*
X602388D02*
D03*
X595784D02*
D03*
X589180D02*
D03*
X582576D02*
D03*
X575972D02*
D03*
X569368D02*
D03*
X562764D02*
D03*
X556160D02*
D03*
X549556D02*
D03*
X542952D02*
D03*
X536348D02*
D03*
X529744D02*
D03*
X523140D02*
D03*
X516536D02*
D03*
X509932D02*
D03*
X503328D02*
D03*
X496724D02*
D03*
X477086Y516387D02*
D03*
X473974Y510562D02*
D03*
X474047Y503958D02*
D03*
X474787Y471531D02*
D03*
X493537Y472256D02*
D03*
X496076Y484957D02*
D03*
X496250Y491558D02*
D03*
X496115Y498161D02*
D03*
X502719D02*
D03*
X509323D02*
D03*
X515927D02*
D03*
X522531D02*
D03*
X529135D02*
D03*
X535739D02*
D03*
X542343D02*
D03*
X548947D02*
D03*
X555551D02*
D03*
X562155D02*
D03*
X568759D02*
D03*
X575363D02*
D03*
X581967D02*
D03*
X588571D02*
D03*
X595175D02*
D03*
X601779D02*
D03*
X608383D02*
D03*
X614987D02*
D03*
X621591D02*
D03*
X628195D02*
D03*
X634799Y498181D02*
D03*
X640867Y500785D02*
D03*
X645556Y505436D02*
D03*
X650225Y510106D02*
D03*
X654895Y514776D02*
D03*
X659565Y519445D02*
D03*
X664235Y524115D02*
D03*
X668904Y528785D02*
D03*
X674057Y532915D02*
D03*
X680661D02*
D03*
X687265D02*
D03*
X693869D02*
D03*
X700473D02*
D03*
X707077D02*
D03*
X713681D02*
D03*
X720285D02*
D03*
X726889D02*
D03*
X733308Y534467D02*
D03*
X738147Y538961D02*
D03*
X742817Y543631D02*
D03*
X747487Y548301D02*
D03*
X752156Y552971D02*
D03*
X756826Y557640D02*
D03*
X761496Y562310D02*
D03*
X765700Y567403D02*
D03*
X766549Y573952D02*
D03*
Y580556D02*
D03*
Y587160D02*
D03*
Y593764D02*
D03*
Y600368D02*
D03*
X769313Y606366D02*
D03*
X774700Y493014D02*
D03*
X890778Y427990D02*
D03*
X891032Y446278D02*
D03*
X850900Y509016D02*
D03*
X835406Y458216D02*
D03*
X562102Y60960D02*
D03*
X921512Y315214D02*
D03*
X906018Y315468D02*
D03*
X446786Y185166D02*
D03*
X913892Y354330D02*
D03*
X835914Y359664D02*
D03*
X798322Y411654D02*
D03*
X381508Y439928D02*
D03*
Y448818D02*
D03*
X919988Y488442D02*
D03*
X747014Y486410D02*
D03*
X712724Y484886D02*
D03*
X735584Y386080D02*
D03*
X823468Y523748D02*
D03*
X352128Y321322D02*
D03*
X746760Y429514D02*
D03*
X783336Y432054D02*
D03*
X818388Y487426D02*
D03*
X343662Y495808D02*
D03*
X406146Y479044D02*
D03*
X943102Y394716D02*
D03*
X426466Y479044D02*
D03*
X416052D02*
D03*
X831850Y412496D02*
D03*
X271526Y517906D02*
D03*
X381508Y415544D02*
D03*
X623570Y75184D02*
D03*
D139*
X412496Y95504D02*
D03*
D140*
X467995Y609092D02*
D03*
D141*
X488696Y38100D02*
D03*
M02*
