G04*
G04 #@! TF.GenerationSoftware,Altium Limited,Altium Designer,21.6.1 (37)*
G04*
G04 Layer_Color=0*
%FSLAX44Y44*%
%MOMM*%
G71*
G04*
G04 #@! TF.SameCoordinates,1A0BCF72-60D2-4BA0-9B7A-98A30DA12748*
G04*
G04*
G04 #@! TF.FilePolarity,Positive*
G04*
G01*
G75*
%ADD12C,0.1000*%
%ADD16C,0.1524*%
D12*
X180956Y460074D02*
Y470074D01*
X175956Y465074D02*
X185956D01*
X244094Y459820D02*
Y469820D01*
X239094Y464820D02*
X249094D01*
D16*
X972502Y227966D02*
Y243966D01*
X964502Y227966D02*
X972502D01*
X964502D02*
Y243966D01*
X972502D01*
X961962Y221870D02*
Y250062D01*
Y221870D02*
X975042D01*
Y250062D01*
X961962D02*
X975042D01*
X834517Y262509D02*
X849503D01*
X834517D02*
Y285623D01*
X849503D01*
Y262509D02*
Y285623D01*
X852043Y288163D02*
Y292481D01*
Y259969D02*
Y288163D01*
Y255651D02*
Y259969D01*
X831977Y292481D02*
X852043D01*
X831977Y288163D02*
Y292481D01*
Y259969D02*
Y288163D01*
Y255651D02*
Y259969D01*
Y255651D02*
X852043D01*
X319152Y207200D02*
X335152D01*
Y199200D02*
Y207200D01*
X319152Y199200D02*
X335152D01*
X319152D02*
Y207200D01*
X313056Y196660D02*
X341248D01*
Y209740D01*
X313056D02*
X341248D01*
X313056Y196660D02*
Y209740D01*
X319152Y192722D02*
X335152D01*
Y184722D02*
Y192722D01*
X319152Y184722D02*
X335152D01*
X319152D02*
Y192722D01*
X313056Y182182D02*
X341248D01*
Y195262D01*
X313056D02*
X341248D01*
X313056Y182182D02*
Y195262D01*
X319152Y178244D02*
X335152D01*
Y170244D02*
Y178244D01*
X319152Y170244D02*
X335152D01*
X319152D02*
Y178244D01*
X313056Y167704D02*
X341248D01*
Y180784D01*
X313056D02*
X341248D01*
X313056Y167704D02*
Y180784D01*
X370142Y360554D02*
X383222D01*
X370142D02*
Y388746D01*
X383222D01*
Y360554D02*
Y388746D01*
X372682Y366650D02*
X380682D01*
Y382650D01*
X372682D02*
X380682D01*
X372682Y366650D02*
Y382650D01*
X767906Y188850D02*
X780986D01*
X767906D02*
Y217042D01*
X780986D01*
Y188850D02*
Y217042D01*
X770446Y194946D02*
X778446D01*
Y210946D01*
X770446D02*
X778446D01*
X770446Y194946D02*
Y210946D01*
X358712Y360300D02*
X371792D01*
X358712D02*
Y388492D01*
X371792D01*
Y360300D02*
Y388492D01*
X361252Y366396D02*
X369252D01*
Y382396D01*
X361252D02*
X369252D01*
X361252Y366396D02*
Y382396D01*
X389001Y487299D02*
X403479D01*
X389001D02*
Y517017D01*
X403479D01*
Y487299D02*
Y517017D01*
X391541Y493395D02*
X400939D01*
Y510921D01*
X391541D02*
X400939D01*
X391541Y493395D02*
Y510921D01*
X492887Y483743D02*
Y498221D01*
X463169Y483743D02*
X492887D01*
X463169D02*
Y498221D01*
X492887D01*
X486791Y486283D02*
Y495681D01*
X469265D02*
X486791D01*
X469265Y486283D02*
Y495681D01*
Y486283D02*
X486791D01*
X492887Y531749D02*
Y546227D01*
X463169Y531749D02*
X492887D01*
X463169D02*
Y546227D01*
X492887D01*
X486791Y534289D02*
Y543687D01*
X469265D02*
X486791D01*
X469265Y534289D02*
Y543687D01*
Y534289D02*
X486791D01*
X554101Y387477D02*
Y401955D01*
X524383Y387477D02*
X554101D01*
X524383D02*
Y401955D01*
X554101D01*
X548005Y390017D02*
Y399415D01*
X530479D02*
X548005D01*
X530479Y390017D02*
Y399415D01*
Y390017D02*
X548005D01*
X554101Y402209D02*
Y416687D01*
X524383Y402209D02*
X554101D01*
X524383D02*
Y416687D01*
X554101D01*
X548005Y404749D02*
Y414147D01*
X530479D02*
X548005D01*
X530479Y404749D02*
Y414147D01*
Y404749D02*
X548005D01*
X492125Y164719D02*
Y179197D01*
X462407Y164719D02*
X492125D01*
X462407D02*
Y179197D01*
X492125D01*
X486029Y167259D02*
Y176657D01*
X468503D02*
X486029D01*
X468503Y167259D02*
Y176657D01*
Y167259D02*
X486029D01*
X741807Y437261D02*
X756285D01*
X741807D02*
Y466979D01*
X756285D01*
Y437261D02*
Y466979D01*
X744347Y443357D02*
X753745D01*
Y460883D01*
X744347D02*
X753745D01*
X744347Y443357D02*
Y460883D01*
X348869Y431419D02*
X363347D01*
X348869D02*
Y461137D01*
X363347D01*
Y431419D02*
Y461137D01*
X351409Y437515D02*
X360807D01*
Y455041D01*
X351409D02*
X360807D01*
X351409Y437515D02*
Y455041D01*
X328295Y460883D02*
X342773D01*
Y431165D02*
Y460883D01*
X328295Y431165D02*
X342773D01*
X328295D02*
Y460883D01*
X330835Y454787D02*
X340233D01*
X330835Y437261D02*
Y454787D01*
Y437261D02*
X340233D01*
Y454787D01*
X152273Y255143D02*
Y269621D01*
X122555Y255143D02*
X152273D01*
X122555D02*
Y269621D01*
X152273D01*
X146177Y257683D02*
Y267081D01*
X128651D02*
X146177D01*
X128651Y257683D02*
Y267081D01*
Y257683D02*
X146177D01*
X902272Y326010D02*
Y342010D01*
X910272D01*
Y326010D02*
Y342010D01*
X902272Y326010D02*
X910272D01*
X912812Y319914D02*
Y348106D01*
X899732D02*
X912812D01*
X899732Y319914D02*
Y348106D01*
Y319914D02*
X912812D01*
X819784Y179642D02*
Y192722D01*
X791592Y179642D02*
X819784D01*
X791592D02*
Y192722D01*
X819784D01*
X813688Y182182D02*
Y190182D01*
X797688D02*
X813688D01*
X797688Y182182D02*
Y190182D01*
Y182182D02*
X813688D01*
X734504Y500508D02*
Y516508D01*
X726504Y500508D02*
X734504D01*
X726504D02*
Y516508D01*
X734504D01*
X723964Y494412D02*
Y522604D01*
Y494412D02*
X737044D01*
Y522604D01*
X723964D02*
X737044D01*
X706438Y494666D02*
X719518D01*
X706438D02*
Y522858D01*
X719518D01*
Y494666D02*
Y522858D01*
X708978Y500762D02*
X716978D01*
Y516762D01*
X708978D02*
X716978D01*
X708978Y500762D02*
Y516762D01*
X755332Y402210D02*
Y418210D01*
X747332Y402210D02*
X755332D01*
X747332D02*
Y418210D01*
X755332D01*
X744792Y396114D02*
Y424306D01*
Y396114D02*
X757872D01*
Y424306D01*
X744792D02*
X757872D01*
X729044Y396368D02*
X742124D01*
X729044D02*
Y424560D01*
X742124D01*
Y396368D02*
Y424560D01*
X731584Y402464D02*
X739584D01*
Y418464D01*
X731584D02*
X739584D01*
X731584Y402464D02*
Y418464D01*
X88520Y214058D02*
X104520D01*
Y206058D02*
Y214058D01*
X88520Y206058D02*
X104520D01*
X88520D02*
Y214058D01*
X82424Y203518D02*
X110616D01*
Y216598D01*
X82424D02*
X110616D01*
X82424Y203518D02*
Y216598D01*
X239458Y161926D02*
Y177926D01*
X231458Y161926D02*
X239458D01*
X231458D02*
Y177926D01*
X239458D01*
X228918Y155830D02*
Y184022D01*
Y155830D02*
X241998D01*
Y184022D01*
X228918D02*
X241998D01*
X89028Y199580D02*
X105028D01*
Y191580D02*
Y199580D01*
X89028Y191580D02*
X105028D01*
X89028D02*
Y199580D01*
X82932Y189040D02*
X111124D01*
Y202120D01*
X82932D02*
X111124D01*
X82932Y189040D02*
Y202120D01*
M02*
