G04*
G04 #@! TF.GenerationSoftware,Altium Limited,Altium Designer,21.6.4 (81)*
G04*
G04 Layer_Physical_Order=3*
G04 Layer_Color=128*
%FSLAX25Y25*%
%MOIN*%
G70*
G04*
G04 #@! TF.SameCoordinates,D92126B2-5F21-4161-9152-1B55B43E0DBD*
G04*
G04*
G04 #@! TF.FilePolarity,Negative*
G04*
G01*
G75*
%ADD116C,0.04000*%
%ADD117C,0.06000*%
%ADD118C,0.20000*%
%ADD119R,0.09000X0.16402*%
%ADD120C,0.09000*%
%ADD121O,0.08724X0.06756*%
%ADD122O,0.08134X0.06559*%
%ADD123C,0.07937*%
%ADD124C,0.16000*%
%ADD125C,0.05200*%
%ADD126C,0.05600*%
D116*
X51206Y21679D02*
G03*
X23647Y49238I-27559J-0D01*
G01*
X51206Y15773D02*
G03*
X66954Y25I15748J-0D01*
G01*
X318923D02*
G03*
X334671Y15773I-0J15748D01*
G01*
X362230Y49238D02*
G03*
X334671Y21678I0J-27559D01*
G01*
X370104Y49238D02*
G03*
X385852Y64986I0J15748D01*
G01*
Y190970D02*
G03*
X370104Y206718I-15748J-0D01*
G01*
X334671Y234277D02*
G03*
X362230Y206718I27559J0D01*
G01*
X334671Y240182D02*
G03*
X318923Y255930I-15748J0D01*
G01*
X66954Y255930D02*
G03*
X51206Y240182I0J-15748D01*
G01*
X23647Y206718D02*
G03*
X51206Y234277I0J27559D01*
G01*
X15773Y206718D02*
G03*
X25Y190970I-0J-15748D01*
G01*
Y64986D02*
G03*
X15773Y49238I15748J0D01*
G01*
X25Y64986D02*
X25D01*
Y190970D01*
X25D02*
X25D01*
X15773Y206718D02*
X23647D01*
X51206Y234277D02*
Y240182D01*
X66954Y255930D02*
X318923D01*
X318923Y255930D01*
X334671Y240182D02*
X334671Y240182D01*
X334671Y234277D02*
Y240182D01*
X362230Y206718D02*
X370104D01*
X385852Y190970D02*
X385852D01*
X385852Y64986D02*
Y190970D01*
Y64986D02*
X385852D01*
X362230Y49238D02*
X370104D01*
X334671Y15773D02*
Y21678D01*
X66954Y25D02*
X318923D01*
X51206Y15773D02*
Y21679D01*
X15773Y49238D02*
X23647D01*
D117*
X87800Y29200D02*
D03*
X81200D02*
D03*
D118*
X283169Y128600D02*
D03*
X104232D02*
D03*
D119*
X49704D02*
D03*
X337696D02*
D03*
D120*
X377800Y129800D02*
D03*
D121*
X11728Y139128D02*
D03*
Y117672D02*
D03*
D122*
X23657Y137947D02*
D03*
Y118853D02*
D03*
D123*
X7000Y97600D02*
D03*
Y67600D02*
D03*
Y77600D02*
D03*
Y87600D02*
D03*
Y178700D02*
D03*
Y158700D02*
D03*
Y188700D02*
D03*
D124*
X65900Y241900D02*
D03*
X318600Y16000D02*
D03*
X65900D02*
D03*
X318600Y241900D02*
D03*
D125*
X67393Y78792D02*
D03*
X101250Y64250D02*
D03*
X211900Y111700D02*
D03*
X206500Y106900D02*
D03*
X129300Y60600D02*
D03*
X109500Y60700D02*
D03*
X370000Y200000D02*
D03*
Y80000D02*
D03*
X360000Y60000D02*
D03*
X350000Y200000D02*
D03*
X340000Y140000D02*
D03*
Y100000D02*
D03*
X350000Y80000D02*
D03*
X340000Y60000D02*
D03*
X330000Y240000D02*
D03*
X320000Y220000D02*
D03*
Y180000D02*
D03*
Y140000D02*
D03*
X330000Y120000D02*
D03*
Y80000D02*
D03*
X320000Y60000D02*
D03*
X330000Y40000D02*
D03*
X310000Y240000D02*
D03*
Y200000D02*
D03*
X300000Y180000D02*
D03*
Y140000D02*
D03*
X310000Y120000D02*
D03*
Y80000D02*
D03*
X300000Y60000D02*
D03*
X310000Y40000D02*
D03*
X300000Y20000D02*
D03*
X290000Y240000D02*
D03*
X280000Y180000D02*
D03*
Y60000D02*
D03*
X290000Y40000D02*
D03*
X270000Y200000D02*
D03*
X260000Y180000D02*
D03*
X270000Y160000D02*
D03*
X260000Y140000D02*
D03*
X270000Y120000D02*
D03*
X260000Y100000D02*
D03*
Y60000D02*
D03*
X240000Y180000D02*
D03*
X250000Y160000D02*
D03*
Y120000D02*
D03*
Y80000D02*
D03*
X240000Y60000D02*
D03*
X250000Y40000D02*
D03*
X220000Y180000D02*
D03*
X230000Y120000D02*
D03*
Y80000D02*
D03*
Y40000D02*
D03*
X200000Y180000D02*
D03*
X210000Y80000D02*
D03*
X200000Y20000D02*
D03*
X180000Y140000D02*
D03*
X190000Y40000D02*
D03*
X180000Y20000D02*
D03*
X160000Y140000D02*
D03*
Y100000D02*
D03*
X170000Y80000D02*
D03*
X140000Y140000D02*
D03*
X150000Y120000D02*
D03*
X140000Y100000D02*
D03*
Y20000D02*
D03*
X130000Y200000D02*
D03*
X120000Y100000D02*
D03*
X130000Y80000D02*
D03*
Y40000D02*
D03*
X120000Y20000D02*
D03*
X110000Y200000D02*
D03*
Y40000D02*
D03*
X100000Y20000D02*
D03*
X80000Y220000D02*
D03*
X90000Y200000D02*
D03*
Y160000D02*
D03*
X80000Y140000D02*
D03*
X90000Y120000D02*
D03*
Y40000D02*
D03*
X80000Y20000D02*
D03*
X60000Y220000D02*
D03*
X70000Y200000D02*
D03*
Y160000D02*
D03*
X60000Y140000D02*
D03*
Y60000D02*
D03*
X70000Y40000D02*
D03*
X50000Y200000D02*
D03*
Y160000D02*
D03*
X40000Y100000D02*
D03*
Y60000D02*
D03*
X50000Y40000D02*
D03*
X30000Y200000D02*
D03*
Y160000D02*
D03*
X20000Y100000D02*
D03*
X30000Y80000D02*
D03*
X20000Y60000D02*
D03*
X224069Y155656D02*
D03*
X150200Y157336D02*
D03*
X136000Y157164D02*
D03*
X106600Y80600D02*
D03*
X91000Y72900D02*
D03*
Y75700D02*
D03*
X92600Y55600D02*
D03*
X106600Y76100D02*
D03*
X33600Y128200D02*
D03*
Y125600D02*
D03*
X124892Y115503D02*
D03*
X300000Y99200D02*
D03*
X119600Y74100D02*
D03*
X121924Y122400D02*
D03*
X131984Y118084D02*
D03*
X62100Y88700D02*
D03*
X213027Y100778D02*
D03*
X219400Y100900D02*
D03*
X317414Y45500D02*
D03*
X54368Y105000D02*
D03*
X179900Y159800D02*
D03*
X179400Y174700D02*
D03*
X159800D02*
D03*
X187309Y217219D02*
D03*
X186743Y206955D02*
D03*
X195482Y206893D02*
D03*
X195721Y209482D02*
D03*
X195874Y212077D02*
D03*
X195792Y214676D02*
D03*
X194691Y217032D02*
D03*
X297565Y245787D02*
D03*
X293307Y240872D02*
D03*
X293381Y238273D02*
D03*
X294409Y235885D02*
D03*
Y233285D02*
D03*
Y230685D02*
D03*
Y228085D02*
D03*
X293596Y225615D02*
D03*
X291757Y223777D02*
D03*
X289919Y221938D02*
D03*
X288080Y220100D02*
D03*
X283873Y217191D02*
D03*
X281273D02*
D03*
X278673D02*
D03*
X276073D02*
D03*
X273472D02*
D03*
X270872D02*
D03*
X268272D02*
D03*
X265672D02*
D03*
X263073Y217148D02*
D03*
X260736Y216009D02*
D03*
X258897Y214171D02*
D03*
X257059Y212333D02*
D03*
X255220Y210494D02*
D03*
X253382Y208656D02*
D03*
X251543Y206817D02*
D03*
X249705Y204979D02*
D03*
X247561Y203508D02*
D03*
X244961D02*
D03*
X242361D02*
D03*
X239761D02*
D03*
X237161D02*
D03*
X234561D02*
D03*
X231961D02*
D03*
X229361D02*
D03*
X226761D02*
D03*
X224161D02*
D03*
X221561D02*
D03*
X218961D02*
D03*
X216361D02*
D03*
X213761D02*
D03*
X211161D02*
D03*
X208561D02*
D03*
X205961D02*
D03*
X203361D02*
D03*
X200761D02*
D03*
X198161D02*
D03*
X195561D02*
D03*
X187829Y203302D02*
D03*
X186604Y201009D02*
D03*
X186633Y198409D02*
D03*
X186924Y185642D02*
D03*
X194306Y185928D02*
D03*
X195305Y190928D02*
D03*
X195374Y193527D02*
D03*
X195321Y196126D02*
D03*
X197921D02*
D03*
X200521D02*
D03*
X203121D02*
D03*
X205721D02*
D03*
X208321D02*
D03*
X210921D02*
D03*
X213521D02*
D03*
X216121D02*
D03*
X218721D02*
D03*
X221321D02*
D03*
X223921D02*
D03*
X226521D02*
D03*
X229121D02*
D03*
X231721D02*
D03*
X234321D02*
D03*
X236921D02*
D03*
X239521D02*
D03*
X242121D02*
D03*
X244721D02*
D03*
X247321D02*
D03*
X249921Y196134D02*
D03*
X252310Y197159D02*
D03*
X254156Y198991D02*
D03*
X255994Y200829D02*
D03*
X257833Y202668D02*
D03*
X259671Y204506D02*
D03*
X261510Y206345D02*
D03*
X263348Y208183D02*
D03*
X265377Y209809D02*
D03*
X267977D02*
D03*
X270577D02*
D03*
X273177D02*
D03*
X275777D02*
D03*
X278377D02*
D03*
X280977D02*
D03*
X283577D02*
D03*
X286177D02*
D03*
X288704Y210420D02*
D03*
X290609Y212190D02*
D03*
X292448Y214028D02*
D03*
X294286Y215866D02*
D03*
X296125Y217705D02*
D03*
X297963Y219543D02*
D03*
X299801Y221382D02*
D03*
X301457Y223387D02*
D03*
X301791Y225965D02*
D03*
Y228566D02*
D03*
Y231166D02*
D03*
Y233766D02*
D03*
Y236366D02*
D03*
X302879Y238727D02*
D03*
X305000Y194100D02*
D03*
X347098Y142004D02*
D03*
X350700Y168500D02*
D03*
X350800Y175700D02*
D03*
X335000Y200400D02*
D03*
X328900Y180400D02*
D03*
X205900Y175400D02*
D03*
X206138Y170248D02*
D03*
X70900Y150200D02*
D03*
Y147600D02*
D03*
X270300Y77400D02*
D03*
X238500Y25400D02*
D03*
X224800Y24200D02*
D03*
X362800Y124100D02*
D03*
X356700Y124200D02*
D03*
X378900Y94400D02*
D03*
X192400Y159600D02*
D03*
X147600Y170000D02*
D03*
X177500Y73100D02*
D03*
X330500Y142300D02*
D03*
X359800Y139500D02*
D03*
X324100Y142300D02*
D03*
X139400Y150700D02*
D03*
X314300Y162069D02*
D03*
X150200Y173200D02*
D03*
Y176700D02*
D03*
X362200Y192300D02*
D03*
X376100D02*
D03*
X369000D02*
D03*
X294100Y191500D02*
D03*
X280600Y190900D02*
D03*
X289600Y152000D02*
D03*
X324200Y206200D02*
D03*
X138633Y126505D02*
D03*
X143918Y27312D02*
D03*
X294000Y169100D02*
D03*
X308400Y170100D02*
D03*
X322200Y191900D02*
D03*
X135300Y195200D02*
D03*
X159900Y188600D02*
D03*
X188000Y47200D02*
D03*
X371300Y155400D02*
D03*
X304700Y79100D02*
D03*
X167900Y188600D02*
D03*
X163800D02*
D03*
X327500Y162400D02*
D03*
X66900Y169400D02*
D03*
X150200Y160500D02*
D03*
X106900Y203900D02*
D03*
X150200Y163600D02*
D03*
Y167000D02*
D03*
X145500D02*
D03*
X146800Y40500D02*
D03*
X249000Y29800D02*
D03*
X228600Y29500D02*
D03*
D126*
X163800Y59800D02*
D03*
M02*
