G04*
G04 #@! TF.GenerationSoftware,Altium Limited,Altium Designer,21.6.1 (37)*
G04*
G04 Layer_Color=16711935*
%FSLAX44Y44*%
%MOMM*%
G71*
G04*
G04 #@! TF.SameCoordinates,8A31D3E6-7417-4931-9B95-E7CF89301AF7*
G04*
G04*
G04 #@! TF.FilePolarity,Positive*
G04*
G01*
G75*
%ADD12C,0.1000*%
%ADD149C,0.0127*%
%ADD150C,0.0254*%
%ADD151C,0.1500*%
D12*
X12788Y268386D02*
Y387386D01*
X853188Y445770D02*
X858478D01*
X859536Y446828D01*
Y448944D01*
X858478Y450002D01*
X853188D01*
X854246Y452118D02*
X853188Y453176D01*
Y455292D01*
X854246Y456350D01*
X855304D01*
X856362Y455292D01*
Y454234D01*
Y455292D01*
X857420Y456350D01*
X858478D01*
X859536Y455292D01*
Y453176D01*
X858478Y452118D01*
X919736Y389890D02*
X925026D01*
X926084Y390948D01*
Y393064D01*
X925026Y394122D01*
X919736D01*
X926084Y400470D02*
Y396238D01*
X921852Y400470D01*
X920794D01*
X919736Y399412D01*
Y397296D01*
X920794Y396238D01*
D149*
X750063Y325064D02*
G03*
X750063Y325064I-30000J0D01*
G01*
X290063D02*
G03*
X290063Y325064I-30000J0D01*
G01*
X850063Y610064D02*
G03*
X810063Y650063I-40000J0D01*
G01*
X170063D02*
G03*
X130063Y610064I0J-40000D01*
G01*
X60064Y525064D02*
G03*
X130063Y595064I0J70000D01*
G01*
X40064Y525064D02*
G03*
X63Y485064I-0J-40000D01*
G01*
Y165063D02*
G03*
X40064Y125063I40000J0D01*
G01*
X130063Y55064D02*
G03*
X60064Y125063I-70000J-0D01*
G01*
X130063Y40064D02*
G03*
X170063Y63I40000J-0D01*
G01*
X810063D02*
G03*
X850063Y40064I-0J40000D01*
G01*
X920063Y125063D02*
G03*
X850063Y55064I0J-70000D01*
G01*
X940063Y125063D02*
G03*
X980064Y165063I0J40000D01*
G01*
Y485064D02*
G03*
X940063Y525064I-40000J-0D01*
G01*
X849884Y594868D02*
G03*
X919884Y524868I70000J0D01*
G01*
X750063Y325064D02*
G03*
X750063Y325064I-30000J0D01*
G01*
X290063D02*
G03*
X290063Y325064I-30000J0D01*
G01*
X939868Y524868D02*
X940063Y525064D01*
X919884Y524868D02*
X939868D01*
X170063Y650063D02*
X810063D01*
X130063Y595064D02*
Y610064D01*
X40064Y525064D02*
X60064D01*
X63Y165063D02*
Y485064D01*
X40064Y125063D02*
X60064D01*
X130063Y40064D02*
Y55064D01*
X170063Y63D02*
X810063D01*
X850063Y40064D02*
Y55064D01*
X920063Y125063D02*
X940063D01*
X980063Y165063D02*
Y485064D01*
X543382Y389381D02*
X563382D01*
X850063Y595064D02*
Y610064D01*
D150*
X964502Y243966D02*
X972502D01*
Y227966D02*
Y243966D01*
X964502Y227966D02*
X972502D01*
X964502D02*
Y243966D01*
X972502Y227966D02*
Y231966D01*
X964502Y227966D02*
X972502D01*
X964502D02*
Y231966D01*
X972502D01*
X964502Y239966D02*
Y243966D01*
X972502D01*
Y239966D02*
Y243966D01*
X964502Y239966D02*
X972502D01*
X834517Y262509D02*
X849503D01*
X834517D02*
Y285623D01*
X849503D01*
Y262509D02*
Y285623D01*
X319152Y199200D02*
Y207200D01*
X335152D01*
Y199200D02*
Y207200D01*
X319152Y199200D02*
X335152D01*
X331152Y207200D02*
X335152D01*
Y199200D02*
Y207200D01*
X331152Y199200D02*
X335152D01*
X331152D02*
Y207200D01*
X319152Y199200D02*
X323152D01*
X319152D02*
Y207200D01*
X323152D01*
Y199200D02*
Y207200D01*
X319152Y184722D02*
Y192722D01*
X335152D01*
Y184722D02*
Y192722D01*
X319152Y184722D02*
X335152D01*
X331152Y192722D02*
X335152D01*
Y184722D02*
Y192722D01*
X331152Y184722D02*
X335152D01*
X331152D02*
Y192722D01*
X319152Y184722D02*
X323152D01*
X319152D02*
Y192722D01*
X323152D01*
Y184722D02*
Y192722D01*
X319152Y170244D02*
Y178244D01*
X335152D01*
Y170244D02*
Y178244D01*
X319152Y170244D02*
X335152D01*
X331152Y178244D02*
X335152D01*
Y170244D02*
Y178244D01*
X331152Y170244D02*
X335152D01*
X331152D02*
Y178244D01*
X319152Y170244D02*
X323152D01*
X319152D02*
Y178244D01*
X323152D01*
Y170244D02*
Y178244D01*
X372682Y370650D02*
X380682D01*
X372682Y366650D02*
Y370650D01*
Y366650D02*
X380682D01*
Y370650D01*
X372682Y378650D02*
X380682D01*
Y382650D01*
X372682D02*
X380682D01*
X372682Y378650D02*
Y382650D01*
X380682Y366650D02*
Y382650D01*
X372682D02*
X380682D01*
X372682Y366650D02*
Y382650D01*
Y366650D02*
X380682D01*
X770446Y198946D02*
X778446D01*
X770446Y194946D02*
Y198946D01*
Y194946D02*
X778446D01*
Y198946D01*
X770446Y206946D02*
X778446D01*
Y210946D01*
X770446D02*
X778446D01*
X770446Y206946D02*
Y210946D01*
X778446Y194946D02*
Y210946D01*
X770446D02*
X778446D01*
X770446Y194946D02*
Y210946D01*
Y194946D02*
X778446D01*
X361252Y370396D02*
X369252D01*
X361252Y366396D02*
Y370396D01*
Y366396D02*
X369252D01*
Y370396D01*
X361252Y378396D02*
X369252D01*
Y382396D01*
X361252D02*
X369252D01*
X361252Y378396D02*
Y382396D01*
X369252Y366396D02*
Y382396D01*
X361252D02*
X369252D01*
X361252Y366396D02*
Y382396D01*
Y366396D02*
X369252D01*
X447284Y200406D02*
X459984D01*
X449824Y194056D02*
Y206756D01*
Y200406D02*
X457444Y206756D01*
X449824Y200406D02*
X457444Y205486D01*
X449824Y200406D02*
X457444Y204216D01*
X449824Y200406D02*
X457444Y202946D01*
X449824Y200406D02*
X457444Y201676D01*
X449824Y200406D02*
X457444Y194056D01*
X449824Y200406D02*
X457444Y195326D01*
X449824Y200406D02*
X457444Y196596D01*
X449824Y200406D02*
X457444Y197866D01*
X449824Y200406D02*
X457444Y199136D01*
Y194056D02*
Y206756D01*
X506466Y377698D02*
X519166D01*
X509006Y371348D02*
Y384048D01*
Y377698D02*
X516626Y384048D01*
X509006Y377698D02*
X516626Y382778D01*
X509006Y377698D02*
X516626Y381508D01*
X509006Y377698D02*
X516626Y380238D01*
X509006Y377698D02*
X516626Y378968D01*
X509006Y377698D02*
X516626Y371348D01*
X509006Y377698D02*
X516626Y372618D01*
X509006Y377698D02*
X516626Y373888D01*
X509006Y377698D02*
X516626Y375158D01*
X509006Y377698D02*
X516626Y376428D01*
Y371348D02*
Y384048D01*
X391541Y499491D02*
X400939D01*
X391541Y493395D02*
Y499491D01*
Y493395D02*
X400939D01*
Y499491D01*
X391541Y504825D02*
X400939D01*
Y510921D01*
X391541D02*
X400939D01*
X391541Y504825D02*
Y510921D01*
X400939Y493395D02*
Y510921D01*
X391541D02*
X400939D01*
X391541Y493395D02*
Y510921D01*
Y493395D02*
X400939D01*
X480695Y486283D02*
Y495681D01*
Y486283D02*
X486791D01*
Y495681D01*
X480695D02*
X486791D01*
X475361Y486283D02*
Y495681D01*
X469265D02*
X475361D01*
X469265Y486283D02*
Y495681D01*
Y486283D02*
X475361D01*
X469265Y495681D02*
X486791D01*
X469265Y486283D02*
Y495681D01*
Y486283D02*
X486791D01*
Y495681D01*
X480695Y534289D02*
Y543687D01*
Y534289D02*
X486791D01*
Y543687D01*
X480695D02*
X486791D01*
X475361Y534289D02*
Y543687D01*
X469265D02*
X475361D01*
X469265Y534289D02*
Y543687D01*
Y534289D02*
X475361D01*
X469265Y543687D02*
X486791D01*
X469265Y534289D02*
Y543687D01*
Y534289D02*
X486791D01*
Y543687D01*
X52705Y377571D02*
Y386969D01*
X46609Y377571D02*
X52705D01*
X46609D02*
Y386969D01*
X52705D01*
X58039Y377571D02*
Y386969D01*
X64135D01*
Y377571D02*
Y386969D01*
X58039Y377571D02*
X64135D01*
X46609Y386969D02*
X64135D01*
Y377571D02*
Y386969D01*
X46609Y377571D02*
X64135D01*
X46609D02*
Y386969D01*
X541909Y390017D02*
Y399415D01*
Y390017D02*
X548005D01*
Y399415D01*
X541909D02*
X548005D01*
X536575Y390017D02*
Y399415D01*
X530479D02*
X536575D01*
X530479Y390017D02*
Y399415D01*
Y390017D02*
X536575D01*
X530479Y399415D02*
X548005D01*
X530479Y390017D02*
Y399415D01*
Y390017D02*
X548005D01*
Y399415D01*
X541909Y404749D02*
Y414147D01*
Y404749D02*
X548005D01*
Y414147D01*
X541909D02*
X548005D01*
X536575Y404749D02*
Y414147D01*
X530479D02*
X536575D01*
X530479Y404749D02*
Y414147D01*
Y404749D02*
X536575D01*
X530479Y414147D02*
X548005D01*
X530479Y404749D02*
Y414147D01*
Y404749D02*
X548005D01*
Y414147D01*
X479933Y167259D02*
Y176657D01*
Y167259D02*
X486029D01*
Y176657D01*
X479933D02*
X486029D01*
X474599Y167259D02*
Y176657D01*
X468503D02*
X474599D01*
X468503Y167259D02*
Y176657D01*
Y167259D02*
X474599D01*
X468503Y176657D02*
X486029D01*
X468503Y167259D02*
Y176657D01*
Y167259D02*
X486029D01*
Y176657D01*
X744347Y449453D02*
X753745D01*
X744347Y443357D02*
Y449453D01*
Y443357D02*
X753745D01*
Y449453D01*
X744347Y454787D02*
X753745D01*
Y460883D01*
X744347D02*
X753745D01*
X744347Y454787D02*
Y460883D01*
X753745Y443357D02*
Y460883D01*
X744347D02*
X753745D01*
X744347Y443357D02*
Y460883D01*
Y443357D02*
X753745D01*
X351409Y443611D02*
X360807D01*
X351409Y437515D02*
Y443611D01*
Y437515D02*
X360807D01*
Y443611D01*
X351409Y448945D02*
X360807D01*
Y455041D01*
X351409D02*
X360807D01*
X351409Y448945D02*
Y455041D01*
X360807Y437515D02*
Y455041D01*
X351409D02*
X360807D01*
X351409Y437515D02*
Y455041D01*
Y437515D02*
X360807D01*
X330835Y448691D02*
X340233D01*
Y454787D01*
X330835D02*
X340233D01*
X330835Y448691D02*
Y454787D01*
Y443357D02*
X340233D01*
X330835Y437261D02*
Y443357D01*
Y437261D02*
X340233D01*
Y443357D01*
X330835Y437261D02*
Y454787D01*
Y437261D02*
X340233D01*
Y454787D01*
X330835D02*
X340233D01*
X140081Y257683D02*
Y267081D01*
Y257683D02*
X146177D01*
Y267081D01*
X140081D02*
X146177D01*
X134747Y257683D02*
Y267081D01*
X128651D02*
X134747D01*
X128651Y257683D02*
Y267081D01*
Y257683D02*
X134747D01*
X128651Y267081D02*
X146177D01*
X128651Y257683D02*
Y267081D01*
Y257683D02*
X146177D01*
Y267081D01*
X902272Y326010D02*
X910272D01*
X902272D02*
Y342010D01*
X910272D01*
Y326010D02*
Y342010D01*
X902272Y338010D02*
Y342010D01*
X910272D01*
Y338010D02*
Y342010D01*
X902272Y338010D02*
X910272D01*
Y326010D02*
Y330010D01*
X902272Y326010D02*
X910272D01*
X902272D02*
Y330010D01*
X910272D01*
X809688Y182182D02*
Y190182D01*
Y182182D02*
X813688D01*
Y190182D01*
X809688D02*
X813688D01*
X801688Y182182D02*
Y190182D01*
X797688D02*
X801688D01*
X797688Y182182D02*
Y190182D01*
Y182182D02*
X801688D01*
X797688Y190182D02*
X813688D01*
X797688Y182182D02*
Y190182D01*
Y182182D02*
X813688D01*
Y190182D01*
X726504Y516508D02*
X734504D01*
Y500508D02*
Y516508D01*
X726504Y500508D02*
X734504D01*
X726504D02*
Y516508D01*
X734504Y500508D02*
Y504508D01*
X726504Y500508D02*
X734504D01*
X726504D02*
Y504508D01*
X734504D01*
X726504Y512508D02*
Y516508D01*
X734504D01*
Y512508D02*
Y516508D01*
X726504Y512508D02*
X734504D01*
X708978Y504762D02*
X716978D01*
X708978Y500762D02*
Y504762D01*
Y500762D02*
X716978D01*
Y504762D01*
X708978Y512762D02*
X716978D01*
Y516762D01*
X708978D02*
X716978D01*
X708978Y512762D02*
Y516762D01*
X716978Y500762D02*
Y516762D01*
X708978D02*
X716978D01*
X708978Y500762D02*
Y516762D01*
Y500762D02*
X716978D01*
X747332Y418210D02*
X755332D01*
Y402210D02*
Y418210D01*
X747332Y402210D02*
X755332D01*
X747332D02*
Y418210D01*
X755332Y402210D02*
Y406210D01*
X747332Y402210D02*
X755332D01*
X747332D02*
Y406210D01*
X755332D01*
X747332Y414210D02*
Y418210D01*
X755332D01*
Y414210D02*
Y418210D01*
X747332Y414210D02*
X755332D01*
X731584Y406464D02*
X739584D01*
X731584Y402464D02*
Y406464D01*
Y402464D02*
X739584D01*
Y406464D01*
X731584Y414464D02*
X739584D01*
Y418464D01*
X731584D02*
X739584D01*
X731584Y414464D02*
Y418464D01*
X739584Y402464D02*
Y418464D01*
X731584D02*
X739584D01*
X731584Y402464D02*
Y418464D01*
Y402464D02*
X739584D01*
X88520Y206058D02*
Y214058D01*
X104520D01*
Y206058D02*
Y214058D01*
X88520Y206058D02*
X104520D01*
X100520Y214058D02*
X104520D01*
Y206058D02*
Y214058D01*
X100520Y206058D02*
X104520D01*
X100520D02*
Y214058D01*
X88520Y206058D02*
X92520D01*
X88520D02*
Y214058D01*
X92520D01*
Y206058D02*
Y214058D01*
X231458Y177926D02*
X239458D01*
Y161926D02*
Y177926D01*
X231458Y161926D02*
X239458D01*
X231458D02*
Y177926D01*
X239458Y161926D02*
Y165926D01*
X231458Y161926D02*
X239458D01*
X231458D02*
Y165926D01*
X239458D01*
X231458Y173926D02*
Y177926D01*
X239458D01*
Y173926D02*
Y177926D01*
X231458Y173926D02*
X239458D01*
X89028Y191580D02*
Y199580D01*
X105028D01*
Y191580D02*
Y199580D01*
X89028Y191580D02*
X105028D01*
X101028Y199580D02*
X105028D01*
Y191580D02*
Y199580D01*
X101028Y191580D02*
X105028D01*
X101028D02*
Y199580D01*
X89028Y191580D02*
X93028D01*
X89028D02*
Y199580D01*
X93028D01*
Y191580D02*
Y199580D01*
D151*
X15388Y370386D02*
X21736D01*
Y373560D01*
X20678Y374618D01*
X18562D01*
X17504Y373560D01*
Y370386D01*
X20678Y380966D02*
X21736Y379908D01*
Y377792D01*
X20678Y376734D01*
X16446D01*
X15388Y377792D01*
Y379908D01*
X16446Y380966D01*
X21736Y383082D02*
X15388D01*
Y386256D01*
X16446Y387314D01*
X17504D01*
X18562Y386256D01*
Y383082D01*
Y386256D01*
X19620Y387314D01*
X20678D01*
X21736Y386256D01*
Y383082D01*
Y400010D02*
Y395778D01*
X15388D01*
Y400010D01*
X18562Y395778D02*
Y397894D01*
X21736Y406358D02*
X15388D01*
Y403184D01*
X16446Y402126D01*
X18562D01*
X19620Y403184D01*
Y406358D01*
X13272Y410590D02*
Y411648D01*
X14330Y412706D01*
X19620D01*
Y409532D01*
X18562Y408474D01*
X16446D01*
X15388Y409532D01*
Y412706D01*
Y417996D02*
Y415880D01*
X16446Y414822D01*
X18562D01*
X19620Y415880D01*
Y417996D01*
X18562Y419054D01*
X17504D01*
Y414822D01*
M02*
