G04*
G04 #@! TF.GenerationSoftware,Altium Limited,Altium Designer,21.6.4 (81)*
G04*
G04 Layer_Color=16711935*
%FSLAX25Y25*%
%MOIN*%
G70*
G04*
G04 #@! TF.SameCoordinates,D92126B2-5F21-4161-9152-1B55B43E0DBD*
G04*
G04*
G04 #@! TF.FilePolarity,Positive*
G04*
G01*
G75*
%ADD11C,0.01000*%
%ADD12C,0.00394*%
%ADD15C,0.00500*%
%ADD17C,0.00787*%
D11*
X210375Y4291D02*
Y59409D01*
X172580Y4291D02*
X210375D01*
X172580D02*
Y59409D01*
X210375D01*
D12*
X333069Y176669D02*
G03*
X333069Y176669I-1969J0D01*
G01*
X359269Y154669D02*
G03*
X359269Y154669I-1969J0D01*
G01*
X82528Y96547D02*
X86072D01*
X82528Y89854D02*
X86072D01*
Y96547D01*
X82528Y89854D02*
Y96547D01*
X110128Y82047D02*
X113672D01*
X110128Y75353D02*
X113672D01*
Y82047D01*
X110128Y75353D02*
Y82047D01*
X94828Y89246D02*
X98372D01*
X94828Y82553D02*
X98372D01*
Y89246D01*
X94828Y82553D02*
Y89246D01*
X81054Y21330D02*
X87747D01*
X81054Y25070D02*
X87747D01*
Y21330D02*
Y25070D01*
X81054Y21330D02*
Y25070D01*
X64039Y65758D02*
X81361D01*
X64039D02*
Y85443D01*
X81361D01*
Y65758D02*
Y85443D01*
X78802Y65758D02*
X81361Y68317D01*
X45447Y74728D02*
Y78272D01*
X38754Y74728D02*
Y78272D01*
Y74728D02*
X45447D01*
X38754Y78272D02*
X45447D01*
X50628Y82446D02*
X54172D01*
X50628Y75753D02*
X54172D01*
Y82446D01*
X50628Y75753D02*
Y82446D01*
X56846Y86328D02*
Y89872D01*
X50153Y86328D02*
Y89872D01*
Y86328D02*
X56846D01*
X50153Y89872D02*
X56846D01*
X316328Y91453D02*
Y98146D01*
X319872Y91453D02*
Y98146D01*
X316328Y91453D02*
X319872D01*
X316328Y98146D02*
X319872D01*
X331572Y200254D02*
Y206946D01*
X328028Y200254D02*
Y206946D01*
X331572D01*
X328028Y200254D02*
X331572D01*
X301354Y189472D02*
X308047D01*
X301354Y185928D02*
X308047D01*
X301354D02*
Y189472D01*
X308047Y185928D02*
Y189472D01*
X67703Y154556D02*
X74097D01*
Y143044D02*
Y154556D01*
X67703Y143044D02*
X74097D01*
X67703D02*
Y154556D01*
Y150816D02*
X71443Y154556D01*
X299410Y63791D02*
X303150Y67532D01*
Y63791D02*
Y75209D01*
X296850D02*
X303150D01*
X296850Y63791D02*
Y75209D01*
Y63791D02*
X303150D01*
X299710Y92891D02*
X303450Y96631D01*
Y92891D02*
Y104309D01*
X297150D02*
X303450D01*
X297150Y92891D02*
Y104309D01*
Y92891D02*
X303450D01*
X316039Y181165D02*
X320961D01*
X316039D02*
Y189235D01*
X320961D01*
Y181165D02*
Y189235D01*
X318402Y181165D02*
X320961Y183724D01*
X232265Y14439D02*
Y19361D01*
X240335D01*
Y14439D02*
Y19361D01*
X232265Y14439D02*
X240335D01*
X232265Y16998D02*
X234824Y14439D01*
X187063Y224220D02*
Y251780D01*
X194937D01*
Y224220D02*
Y251780D01*
X187063Y224220D02*
X194937D01*
X187063Y226583D02*
X189425Y224220D01*
X349254Y141570D02*
X355946D01*
X349254Y137830D02*
X355946D01*
X349254D02*
Y141570D01*
X355946Y137830D02*
Y141570D01*
X67196Y205570D02*
X73889D01*
X67196Y201830D02*
X73889D01*
X67196D02*
Y205570D01*
X73889Y201830D02*
Y205570D01*
X253254Y23770D02*
X259946D01*
X253254Y20030D02*
X259946D01*
X253254D02*
Y23770D01*
X259946Y20030D02*
Y23770D01*
X245670Y26654D02*
Y33346D01*
X241930Y26654D02*
Y33346D01*
X245670D01*
X241930Y26654D02*
X245670D01*
X326070Y146054D02*
Y152746D01*
X322330Y146054D02*
Y152746D01*
X326070D01*
X322330Y146054D02*
X326070D01*
X349054Y121270D02*
X355747D01*
X349054Y117530D02*
X355747D01*
X349054D02*
Y121270D01*
X355747Y117530D02*
Y121270D01*
X273753Y84030D02*
X280447D01*
X273753Y87770D02*
X280447D01*
Y84030D02*
Y87770D01*
X273753Y84030D02*
Y87770D01*
X185854Y74770D02*
X192546D01*
X185854Y71030D02*
X192546D01*
X185854D02*
Y74770D01*
X192546Y71030D02*
Y74770D01*
X340553Y159770D02*
X347247D01*
X340553Y156030D02*
X347247D01*
X340553D02*
Y159770D01*
X347247Y156030D02*
Y159770D01*
X192970Y199030D02*
Y205723D01*
X189230Y199030D02*
Y205723D01*
X192970D01*
X189230Y199030D02*
X192970D01*
X370570Y128654D02*
Y135346D01*
X366830Y128654D02*
Y135346D01*
X370570D01*
X366830Y128654D02*
X370570D01*
X142170Y194553D02*
Y201247D01*
X138430Y194553D02*
Y201247D01*
X142170D01*
X138430Y194553D02*
X142170D01*
X150070Y194454D02*
Y201147D01*
X146330Y194454D02*
Y201147D01*
X150070D01*
X146330Y194454D02*
X150070D01*
X216144Y134976D02*
Y141668D01*
X212404Y134976D02*
Y141668D01*
X216144D01*
X212404Y134976D02*
X216144D01*
X367730Y179053D02*
Y185747D01*
X371470Y179053D02*
Y185747D01*
X367730Y179053D02*
X371470D01*
X367730Y185747D02*
X371470D01*
X335854Y149530D02*
X342547D01*
X335854Y153270D02*
X342547D01*
Y149530D02*
Y153270D01*
X335854Y149530D02*
Y153270D01*
X327557Y173126D02*
X347242D01*
X327557Y188874D02*
X347242D01*
X327557Y173126D02*
Y188874D01*
X347242Y173126D02*
Y188874D01*
X353758Y151126D02*
X373443D01*
X353758Y166874D02*
X373443D01*
X353758Y151126D02*
Y166874D01*
X373443Y151126D02*
Y166874D01*
X22751Y112573D02*
Y144227D01*
X625Y112573D02*
X22751D01*
X625D02*
Y144227D01*
X22751D01*
X225646Y12228D02*
Y15772D01*
X218953Y12228D02*
Y15772D01*
Y12228D02*
X225646D01*
X218953Y15772D02*
X225646D01*
Y18228D02*
Y21772D01*
X218953Y18228D02*
Y21772D01*
Y18228D02*
X225646D01*
X218953Y21772D02*
X225646D01*
X251628Y14547D02*
X255172D01*
X251628Y7853D02*
X255172D01*
Y14547D01*
X251628Y7853D02*
Y14547D01*
X232228Y33147D02*
X235772D01*
X232228Y26454D02*
X235772D01*
Y33147D01*
X232228Y26454D02*
Y33147D01*
X273946Y20428D02*
Y23972D01*
X267253Y20428D02*
Y23972D01*
Y20428D02*
X273946D01*
X267253Y23972D02*
X273946D01*
X162847Y22028D02*
Y25572D01*
X156154Y22028D02*
Y25572D01*
Y22028D02*
X162847D01*
X156154Y25572D02*
X162847D01*
Y29828D02*
Y33372D01*
X156154Y29828D02*
Y33372D01*
Y29828D02*
X162847D01*
X156154Y33372D02*
X162847D01*
X158254Y52028D02*
Y55572D01*
X164946Y52028D02*
Y55572D01*
X158254D02*
X164946D01*
X158254Y52028D02*
X164946D01*
X329028Y152347D02*
X332572D01*
X329028Y145653D02*
X332572D01*
Y152347D01*
X329028Y145653D02*
Y152347D01*
X374528Y178753D02*
X378072D01*
X374528Y185447D02*
X378072D01*
X374528Y178753D02*
Y185447D01*
X378072Y178753D02*
Y185447D01*
X169328Y200847D02*
X172872D01*
X169328Y194153D02*
X172872D01*
Y200847D01*
X169328Y194153D02*
Y200847D01*
X199228Y121296D02*
X202772D01*
X199228Y127989D02*
X202772D01*
X199228Y121296D02*
Y127989D01*
X202772Y121296D02*
Y127989D01*
X180028Y121353D02*
X183572D01*
X180028Y128047D02*
X183572D01*
X180028Y121353D02*
Y128047D01*
X183572Y121353D02*
Y128047D01*
X162928Y121353D02*
X166472D01*
X162928Y128047D02*
X166472D01*
X162928Y121353D02*
Y128047D01*
X166472Y121353D02*
Y128047D01*
X140472Y105553D02*
Y112247D01*
X136928Y105553D02*
Y112247D01*
X140472D01*
X136928Y105553D02*
X140472D01*
X361221Y134912D02*
X364764D01*
X361221Y128219D02*
X364764D01*
Y134912D01*
X361221Y128219D02*
Y134912D01*
X300728Y164547D02*
X304272D01*
X300728Y157853D02*
X304272D01*
Y164547D01*
X300728Y157853D02*
Y164547D01*
X292428Y203447D02*
X295972D01*
X292428Y196754D02*
X295972D01*
Y203447D01*
X292428Y196754D02*
Y203447D01*
X312628Y176146D02*
X316172D01*
X312628Y169454D02*
X316172D01*
Y176146D01*
X312628Y169454D02*
Y176146D01*
X354328Y184747D02*
X357872D01*
X354328Y178053D02*
X357872D01*
Y184747D01*
X354328Y178053D02*
Y184747D01*
X280654Y96672D02*
X287347D01*
X280654Y93128D02*
X287347D01*
X280654D02*
Y96672D01*
X287347Y93128D02*
Y96672D01*
X292928Y50954D02*
Y57647D01*
X296472Y50954D02*
Y57647D01*
X292928Y50954D02*
X296472D01*
X292928Y57647D02*
X296472D01*
X93496Y205972D02*
X100189D01*
X93496Y202428D02*
X100189D01*
X93496D02*
Y205972D01*
X100189Y202428D02*
Y205972D01*
X369572Y100154D02*
Y106846D01*
X366028Y100154D02*
Y106846D01*
X369572D01*
X366028Y100154D02*
X369572D01*
X371691Y106491D02*
X375431Y102750D01*
X371691D02*
X383109D01*
Y109050D01*
X371691D02*
X383109D01*
X371691Y102750D02*
Y109050D01*
X258417Y8133D02*
X260583D01*
X258417Y12267D02*
X260583D01*
X258417Y8133D02*
Y12267D01*
X260583Y8133D02*
Y12267D01*
X314154Y64128D02*
X320847D01*
X314154Y67672D02*
X320847D01*
Y64128D02*
Y67672D01*
X314154Y64128D02*
Y67672D01*
X138528Y136646D02*
X142072D01*
X138528Y129954D02*
X142072D01*
Y136646D01*
X138528Y129954D02*
Y136646D01*
X197272Y121054D02*
Y127746D01*
X193728Y121054D02*
Y127746D01*
X197272D01*
X193728Y121054D02*
X197272D01*
X191572D02*
Y127746D01*
X188028Y121054D02*
Y127746D01*
X191572D01*
X188028Y121054D02*
X191572D01*
X177572Y121353D02*
Y128047D01*
X174028Y121353D02*
Y128047D01*
X177572D01*
X174028Y121353D02*
X177572D01*
X172022D02*
Y128047D01*
X168478Y121353D02*
Y128047D01*
X172022D01*
X168478Y121353D02*
X172022D01*
X165872Y194254D02*
Y200946D01*
X162328Y194254D02*
Y200946D01*
X165872D01*
X162328Y194254D02*
X165872D01*
D15*
X350688Y55608D02*
Y201592D01*
X36712Y55608D02*
X350688D01*
X36712D02*
Y201592D01*
X350688D01*
D17*
X77542Y174832D02*
Y191368D01*
X64943Y174832D02*
X77542D01*
X64943D02*
Y191368D01*
X77542D01*
X90301Y175732D02*
Y192268D01*
X102899D01*
Y175732D02*
Y192268D01*
X90301Y175732D02*
X102899D01*
X51569Y147332D02*
Y151268D01*
X47631Y147332D02*
X51569D01*
X47631D02*
Y151268D01*
X51569D01*
X344788Y83979D02*
X355812D01*
Y93821D01*
X344788D02*
X355812D01*
X344788Y83979D02*
Y93821D01*
X315719Y117631D02*
Y121569D01*
X318081D01*
Y117631D02*
Y121569D01*
X315719Y117631D02*
X318081D01*
X312481Y87932D02*
Y91869D01*
X310119Y87932D02*
X312481D01*
X310119D02*
Y91869D01*
X312481D01*
X349781Y147531D02*
Y151469D01*
X347419Y147531D02*
X349781D01*
X347419D02*
Y151469D01*
X349781D01*
X285619Y85031D02*
Y88968D01*
X287981D01*
Y85031D02*
Y88968D01*
X285619Y85031D02*
X287981D01*
X133763Y117363D02*
Y125237D01*
X141637D01*
Y117363D02*
Y125237D01*
X133763Y117363D02*
X141637D01*
M02*
