%TF.GenerationSoftware,Altium Limited,Altium Designer,19.1.9 (167)*%
G04 Layer_Color=16711935*
%FSLAX26Y26*%
%MOIN*%
%TF.FileFunction,Soldermask,Bot*%
%TF.Part,Single*%
G01*
G75*
%TA.AperFunction,SMDPad,CuDef*%
%ADD77R,0.076898X0.023748*%
%ADD78R,0.106425X0.064102*%
%ADD79R,0.046000X0.045000*%
%TA.AperFunction,Conductor*%
%ADD80R,0.065480X0.086740*%
%TA.AperFunction,ComponentPad*%
%ADD81C,0.258000*%
%ADD82O,0.108000X0.208000*%
%ADD83R,0.088000X0.088000*%
%ADD84O,0.074929X0.055244*%
%ADD85O,0.063118X0.047370*%
%ADD86C,0.067055*%
%ADD87R,0.067055X0.067055*%
%TA.AperFunction,ViaPad*%
%ADD88C,0.128000*%
%ADD89C,0.026000*%
%ADD90C,0.024000*%
%ADD91C,0.040000*%
G36*
X198507Y1206281D02*
X199022Y1206179D01*
X199518Y1206011D01*
X199989Y1205779D01*
X200425Y1205487D01*
X200819Y1205142D01*
X201165Y1204747D01*
X201456Y1204311D01*
X201688Y1203841D01*
X201856Y1203345D01*
X201959Y1202830D01*
X201993Y1202307D01*
Y1130457D01*
X201959Y1129934D01*
X201856Y1129419D01*
X201688Y1128923D01*
X201456Y1128453D01*
X201165Y1128017D01*
X200819Y1127622D01*
X200425Y1127277D01*
X199989Y1126985D01*
X199518Y1126753D01*
X199022Y1126585D01*
X198507Y1126483D01*
X197984Y1126448D01*
X170425D01*
X169902Y1126483D01*
X169388Y1126585D01*
X168891Y1126753D01*
X168421Y1126985D01*
X167985Y1127277D01*
X167591Y1127622D01*
X167245Y1128017D01*
X166954Y1128453D01*
X166722Y1128923D01*
X166553Y1129419D01*
X166451Y1129934D01*
X166417Y1130457D01*
Y1147117D01*
X89716D01*
X89614Y1147124D01*
X89511Y1147123D01*
X87976Y1147201D01*
X87870Y1147214D01*
X87761Y1147218D01*
X86265Y1147376D01*
X86248Y1147379D01*
X86231Y1147379D01*
X85993Y1147422D01*
X85749Y1147465D01*
X85732Y1147470D01*
X85715Y1147473D01*
X85012Y1147648D01*
X84913Y1147680D01*
X84810Y1147704D01*
X84096Y1147922D01*
X84096Y1147922D01*
X82679Y1148355D01*
X82611Y1148381D01*
X82541Y1148400D01*
X82367Y1148474D01*
X82189Y1148541D01*
X82124Y1148576D01*
X82058Y1148604D01*
X80562Y1149352D01*
X80429Y1149429D01*
X80292Y1149500D01*
X78914Y1150326D01*
X78744Y1150444D01*
X78571Y1150557D01*
X77311Y1151502D01*
X77204Y1151594D01*
X77091Y1151679D01*
X75910Y1152703D01*
X75897Y1152716D01*
X75882Y1152727D01*
X75711Y1152900D01*
X75537Y1153072D01*
X75526Y1153086D01*
X75513Y1153100D01*
X74450Y1154320D01*
X74367Y1154428D01*
X74277Y1154532D01*
X73293Y1155831D01*
X73281Y1155849D01*
X73268Y1155864D01*
X73138Y1156066D01*
X73004Y1156269D01*
X72995Y1156288D01*
X72984Y1156305D01*
X72197Y1157723D01*
X72150Y1157821D01*
X72096Y1157916D01*
X71388Y1159372D01*
X71376Y1159400D01*
X71362Y1159426D01*
X71278Y1159641D01*
X71189Y1159858D01*
X71182Y1159887D01*
X71171Y1159915D01*
X70659Y1161529D01*
X70604Y1161751D01*
X70545Y1161978D01*
X70308Y1163199D01*
X70294Y1163312D01*
X70272Y1163424D01*
X70075Y1164880D01*
X70064Y1165041D01*
X70044Y1165201D01*
X69966Y1166658D01*
X69967Y1166766D01*
X69960Y1166874D01*
Y1186559D01*
X69966Y1186652D01*
X69964Y1186745D01*
X70043Y1188438D01*
X70067Y1188655D01*
X70087Y1188872D01*
X70343Y1190506D01*
X70389Y1190710D01*
X70429Y1190916D01*
X70842Y1192471D01*
X70911Y1192674D01*
X70975Y1192880D01*
X71566Y1194416D01*
X71668Y1194637D01*
X71767Y1194857D01*
X72436Y1196117D01*
X72476Y1196181D01*
X72510Y1196249D01*
X73218Y1197469D01*
X73352Y1197669D01*
X73484Y1197870D01*
X74449Y1199149D01*
X74460Y1199162D01*
X74469Y1199177D01*
X74631Y1199361D01*
X74791Y1199546D01*
X74804Y1199558D01*
X74815Y1199571D01*
X75858Y1200614D01*
X75914Y1200663D01*
X75965Y1200717D01*
X77068Y1201741D01*
X77078Y1201749D01*
X77088Y1201759D01*
X77283Y1201916D01*
X77474Y1202072D01*
X77486Y1202078D01*
X77497Y1202087D01*
X78678Y1202914D01*
X78763Y1202966D01*
X78843Y1203024D01*
X80221Y1203890D01*
X80242Y1203901D01*
X80262Y1203915D01*
X80472Y1204026D01*
X80682Y1204139D01*
X80705Y1204148D01*
X80726Y1204159D01*
X82144Y1204789D01*
X82256Y1204830D01*
X82364Y1204879D01*
X83624Y1205352D01*
X83763Y1205394D01*
X83900Y1205444D01*
X84570Y1205641D01*
X84678Y1205665D01*
X84783Y1205697D01*
X85452Y1205855D01*
X85519Y1205866D01*
X85584Y1205884D01*
X86372Y1206041D01*
X86389Y1206043D01*
X86407Y1206048D01*
X87234Y1206206D01*
X87258Y1206208D01*
X87281Y1206214D01*
X87517Y1206240D01*
X87754Y1206270D01*
X87778Y1206270D01*
X87802Y1206272D01*
X88668Y1206312D01*
X88760Y1206310D01*
X88850Y1206316D01*
X197984D01*
X198507Y1206281D01*
D02*
G37*
G36*
X198508Y1441517D02*
X199022Y1441415D01*
X199518Y1441247D01*
X199989Y1441015D01*
X200425Y1440723D01*
X200819Y1440378D01*
X201165Y1439983D01*
X201456Y1439547D01*
X201688Y1439077D01*
X201856Y1438581D01*
X201959Y1438066D01*
X201993Y1437543D01*
Y1365693D01*
X201959Y1365170D01*
X201856Y1364655D01*
X201688Y1364159D01*
X201456Y1363689D01*
X201165Y1363253D01*
X200819Y1362858D01*
X200425Y1362513D01*
X199989Y1362221D01*
X199518Y1361989D01*
X199022Y1361821D01*
X198508Y1361719D01*
X197984Y1361684D01*
X88850D01*
X88760Y1361690D01*
X88668Y1361688D01*
X87802Y1361728D01*
X87778Y1361730D01*
X87754Y1361730D01*
X87517Y1361760D01*
X87281Y1361786D01*
X87258Y1361792D01*
X87234Y1361794D01*
X86407Y1361952D01*
X86389Y1361957D01*
X86372Y1361959D01*
X85584Y1362116D01*
X85519Y1362134D01*
X85452Y1362145D01*
X84783Y1362303D01*
X84678Y1362335D01*
X84570Y1362359D01*
X83900Y1362556D01*
X83763Y1362606D01*
X83624Y1362648D01*
X82364Y1363121D01*
X82256Y1363170D01*
X82144Y1363211D01*
X80726Y1363841D01*
X80705Y1363852D01*
X80682Y1363861D01*
X80472Y1363974D01*
X80262Y1364085D01*
X80242Y1364099D01*
X80221Y1364110D01*
X78843Y1364976D01*
X78763Y1365034D01*
X78678Y1365086D01*
X77497Y1365913D01*
X77486Y1365922D01*
X77474Y1365928D01*
X77283Y1366084D01*
X77088Y1366241D01*
X77079Y1366251D01*
X77068Y1366259D01*
X75965Y1367283D01*
X75914Y1367337D01*
X75859Y1367386D01*
X74815Y1368429D01*
X74804Y1368442D01*
X74791Y1368454D01*
X74631Y1368639D01*
X74469Y1368823D01*
X74460Y1368838D01*
X74449Y1368851D01*
X73484Y1370130D01*
X73352Y1370331D01*
X73218Y1370531D01*
X72510Y1371751D01*
X72476Y1371819D01*
X72436Y1371883D01*
X71767Y1373143D01*
X71668Y1373363D01*
X71566Y1373584D01*
X70975Y1375120D01*
X70911Y1375326D01*
X70843Y1375529D01*
X70429Y1377084D01*
X70389Y1377290D01*
X70343Y1377494D01*
X70087Y1379128D01*
X70067Y1379345D01*
X70043Y1379562D01*
X69964Y1381255D01*
X69966Y1381348D01*
X69960Y1381441D01*
Y1401126D01*
X69967Y1401234D01*
X69966Y1401342D01*
X70044Y1402799D01*
X70064Y1402959D01*
X70075Y1403120D01*
X70272Y1404576D01*
X70294Y1404688D01*
X70309Y1404801D01*
X70545Y1406022D01*
X70605Y1406249D01*
X70659Y1406471D01*
X71171Y1408085D01*
X71182Y1408113D01*
X71189Y1408142D01*
X71278Y1408359D01*
X71362Y1408574D01*
X71376Y1408600D01*
X71388Y1408628D01*
X72096Y1410084D01*
X72150Y1410179D01*
X72197Y1410277D01*
X72984Y1411695D01*
X72995Y1411712D01*
X73004Y1411731D01*
X73138Y1411934D01*
X73268Y1412136D01*
X73282Y1412151D01*
X73293Y1412169D01*
X74277Y1413468D01*
X74367Y1413572D01*
X74450Y1413680D01*
X75513Y1414900D01*
X75526Y1414914D01*
X75537Y1414928D01*
X75711Y1415100D01*
X75882Y1415273D01*
X75897Y1415284D01*
X75910Y1415297D01*
X77091Y1416321D01*
X77204Y1416406D01*
X77311Y1416498D01*
X78571Y1417443D01*
X78744Y1417556D01*
X78914Y1417674D01*
X80292Y1418500D01*
X80429Y1418571D01*
X80562Y1418648D01*
X82058Y1419396D01*
X82124Y1419424D01*
X82189Y1419459D01*
X82367Y1419526D01*
X82541Y1419600D01*
X82611Y1419619D01*
X82679Y1419645D01*
X84096Y1420078D01*
X84096Y1420078D01*
X84810Y1420296D01*
X84913Y1420320D01*
X85012Y1420352D01*
X85715Y1420527D01*
X85732Y1420530D01*
X85749Y1420535D01*
X85993Y1420578D01*
X86231Y1420621D01*
X86248Y1420621D01*
X86265Y1420624D01*
X87761Y1420782D01*
X87870Y1420786D01*
X87976Y1420799D01*
X89511Y1420877D01*
X89614Y1420876D01*
X89717Y1420883D01*
X166417D01*
Y1437543D01*
X166451Y1438066D01*
X166553Y1438581D01*
X166722Y1439077D01*
X166954Y1439547D01*
X167245Y1439983D01*
X167591Y1440378D01*
X167985Y1440723D01*
X168421Y1441015D01*
X168891Y1441247D01*
X169388Y1441415D01*
X169902Y1441517D01*
X170425Y1441552D01*
X197984D01*
X198508Y1441517D01*
D02*
G37*
D77*
X228496Y1284000D02*
D03*
Y1258409D02*
D03*
Y1232819D02*
D03*
Y1309591D02*
D03*
Y1335181D02*
D03*
D78*
X107433Y1246106D02*
D03*
Y1321894D02*
D03*
D79*
X259000Y1510000D02*
D03*
X200000D02*
D03*
D80*
X236566Y1398173D02*
D03*
X236565Y1169828D02*
D03*
D81*
X2831685Y1286000D02*
D03*
X1042315D02*
D03*
D82*
X497039D02*
D03*
X3376961D02*
D03*
D83*
X3778000Y1298000D02*
D03*
D84*
X117276Y1391284D02*
D03*
Y1176716D02*
D03*
D85*
X236567Y1379472D02*
D03*
Y1188528D02*
D03*
D86*
X70000Y976000D02*
D03*
Y776000D02*
D03*
Y876000D02*
D03*
Y1787000D02*
D03*
Y1687000D02*
D03*
Y1887000D02*
D03*
D87*
Y676000D02*
D03*
Y1587000D02*
D03*
D88*
X659000Y2419000D02*
D03*
X3186000Y160000D02*
D03*
X659000D02*
D03*
X3186000Y2419000D02*
D03*
D89*
X3600000Y2000000D02*
D03*
Y800000D02*
D03*
Y600000D02*
D03*
X3400000Y800000D02*
D03*
Y600000D02*
D03*
X3200000Y2200000D02*
D03*
Y2000000D02*
D03*
Y800000D02*
D03*
Y600000D02*
D03*
Y400000D02*
D03*
X3000000Y2000000D02*
D03*
Y1800000D02*
D03*
Y800000D02*
D03*
Y600000D02*
D03*
Y400000D02*
D03*
Y200000D02*
D03*
X2800000Y1000000D02*
D03*
Y600000D02*
D03*
Y400000D02*
D03*
X2600000Y2000000D02*
D03*
Y1000000D02*
D03*
Y800000D02*
D03*
Y600000D02*
D03*
Y400000D02*
D03*
X2400000Y1600000D02*
D03*
Y1200000D02*
D03*
Y1000000D02*
D03*
Y800000D02*
D03*
Y600000D02*
D03*
X2200000Y800000D02*
D03*
Y600000D02*
D03*
Y400000D02*
D03*
X2000000Y800000D02*
D03*
Y400000D02*
D03*
Y200000D02*
D03*
X1800000Y2000000D02*
D03*
Y1400000D02*
D03*
Y800000D02*
D03*
Y600000D02*
D03*
Y400000D02*
D03*
Y200000D02*
D03*
X1600000Y2000000D02*
D03*
Y1600000D02*
D03*
Y1400000D02*
D03*
Y1000000D02*
D03*
Y400000D02*
D03*
X1400000Y1400000D02*
D03*
Y1000000D02*
D03*
Y800000D02*
D03*
Y600000D02*
D03*
Y200000D02*
D03*
X1200000Y2000000D02*
D03*
Y1400000D02*
D03*
Y800000D02*
D03*
Y600000D02*
D03*
Y400000D02*
D03*
Y200000D02*
D03*
X1000000Y1600000D02*
D03*
Y800000D02*
D03*
Y600000D02*
D03*
Y400000D02*
D03*
Y200000D02*
D03*
X800000Y2400000D02*
D03*
Y2200000D02*
D03*
Y1600000D02*
D03*
Y1400000D02*
D03*
Y1200000D02*
D03*
Y1000000D02*
D03*
Y800000D02*
D03*
Y600000D02*
D03*
Y400000D02*
D03*
Y200000D02*
D03*
X600000Y2200000D02*
D03*
Y2000000D02*
D03*
Y1600000D02*
D03*
Y1400000D02*
D03*
Y1000000D02*
D03*
Y800000D02*
D03*
Y600000D02*
D03*
Y400000D02*
D03*
X400000Y2000000D02*
D03*
Y1600000D02*
D03*
Y1000000D02*
D03*
Y800000D02*
D03*
Y600000D02*
D03*
X200000Y2000000D02*
D03*
Y1600000D02*
D03*
Y1000000D02*
D03*
Y800000D02*
D03*
Y600000D02*
D03*
D90*
X2975650Y2457872D02*
D03*
X2933073Y2408717D02*
D03*
X2933806Y2382727D02*
D03*
X2944092Y2358849D02*
D03*
Y2332849D02*
D03*
Y2306849D02*
D03*
Y2280849D02*
D03*
X2935958Y2256154D02*
D03*
X2917573Y2237769D02*
D03*
X2899188Y2219384D02*
D03*
X2880803Y2200999D02*
D03*
X2838725Y2171908D02*
D03*
X2812725D02*
D03*
X2786725D02*
D03*
X2760725D02*
D03*
X2734725D02*
D03*
X2708725D02*
D03*
X2682725D02*
D03*
X2656725D02*
D03*
X2630729Y2171482D02*
D03*
X2607355Y2160095D02*
D03*
X2588970Y2141710D02*
D03*
X2570586Y2123326D02*
D03*
X2552201Y2104941D02*
D03*
X2533816Y2086556D02*
D03*
X2515431Y2068171D02*
D03*
X2497046Y2049787D02*
D03*
X2475606Y2035080D02*
D03*
X2449606D02*
D03*
X2423606D02*
D03*
X2397606D02*
D03*
X2371606D02*
D03*
X2345606D02*
D03*
X2319606D02*
D03*
X2293606D02*
D03*
X2267606D02*
D03*
X2241606D02*
D03*
X2215606D02*
D03*
X2189606D02*
D03*
X2163606D02*
D03*
X2137606D02*
D03*
X2111606D02*
D03*
X2085606D02*
D03*
X2059606D02*
D03*
X2033606D02*
D03*
X2007606D02*
D03*
X1981606D02*
D03*
X1866325Y1984088D02*
D03*
X1869242Y1856420D02*
D03*
X1943058Y1859276D02*
D03*
X1953054Y1909278D02*
D03*
X1953742Y1935269D02*
D03*
X1953207Y1961263D02*
D03*
X1979207D02*
D03*
X2005207D02*
D03*
X2031207D02*
D03*
X2057207D02*
D03*
X2083207D02*
D03*
X2109207D02*
D03*
X2135207D02*
D03*
X2161207D02*
D03*
X2187207D02*
D03*
X2213207D02*
D03*
X2239207D02*
D03*
X2265207D02*
D03*
X2291207D02*
D03*
X2317207D02*
D03*
X2343207D02*
D03*
X2369207D02*
D03*
X2395207D02*
D03*
X2421207D02*
D03*
X2447207D02*
D03*
X2473207D02*
D03*
X2499207Y1961341D02*
D03*
X2523101Y1971594D02*
D03*
X2541558Y1989906D02*
D03*
X2559943Y2008291D02*
D03*
X2578327Y2026676D02*
D03*
X2596712Y2045061D02*
D03*
X2615097Y2063445D02*
D03*
X2633482Y2081830D02*
D03*
X2653769Y2098092D02*
D03*
X2679769D02*
D03*
X2705769D02*
D03*
X2731769D02*
D03*
X2757769D02*
D03*
X2783769D02*
D03*
X2809769D02*
D03*
X2835769D02*
D03*
X2861769D02*
D03*
X2887040Y2104202D02*
D03*
X2906091Y2121896D02*
D03*
X2924476Y2140280D02*
D03*
X2942861Y2158665D02*
D03*
X2961246Y2177050D02*
D03*
X2979630Y2195434D02*
D03*
X2998015Y2213819D02*
D03*
X3014566Y2233871D02*
D03*
X3017908Y2259655D02*
D03*
Y2285655D02*
D03*
Y2311655D02*
D03*
Y2337655D02*
D03*
Y2363655D02*
D03*
X3028792Y2387267D02*
D03*
X1873092Y2172193D02*
D03*
X1867433Y2069547D02*
D03*
X1866026Y2043585D02*
D03*
X1873456Y2018669D02*
D03*
X1955974Y2042955D02*
D03*
X1954822Y2068930D02*
D03*
X1957211Y2094820D02*
D03*
X1958742Y2120775D02*
D03*
X1957917Y2146762D02*
D03*
X1946908Y2170316D02*
D03*
X709000Y1502000D02*
D03*
Y1476000D02*
D03*
X2703000Y774000D02*
D03*
X336000Y1282000D02*
D03*
Y1256000D02*
D03*
X2385000Y254000D02*
D03*
X2248000Y242000D02*
D03*
X3628000Y1241000D02*
D03*
X3567000Y1242000D02*
D03*
X2185000Y1005000D02*
D03*
X2130269Y1007778D02*
D03*
X3623000Y1007000D02*
D03*
X3789000Y944000D02*
D03*
X1923000Y1641000D02*
D03*
X1476000Y1700000D02*
D03*
X1775000Y731000D02*
D03*
X3305000Y1423000D02*
D03*
X3598000Y1395000D02*
D03*
X3241000Y1423000D02*
D03*
X1404000D02*
D03*
X1447000Y1111000D02*
D03*
X3143000Y1620687D02*
D03*
X3024000Y1519000D02*
D03*
X1859000Y1151000D02*
D03*
X2059000Y1273000D02*
D03*
X2063000Y1735121D02*
D03*
X1502000Y1732000D02*
D03*
Y1767000D02*
D03*
X2063000Y1689000D02*
D03*
X3622000Y1923000D02*
D03*
X3761000D02*
D03*
X3690000D02*
D03*
X3017000Y2028000D02*
D03*
X2941000Y1915000D02*
D03*
X2806000Y1909000D02*
D03*
X2896000Y1520000D02*
D03*
X2125000Y1324000D02*
D03*
X3242000Y2062000D02*
D03*
X1258000Y1167000D02*
D03*
X1209000Y1224000D02*
D03*
X1386331Y1265046D02*
D03*
X1439176Y273125D02*
D03*
X2063000Y1781243D02*
D03*
X2940000Y1691000D02*
D03*
X3084000Y1701000D02*
D03*
Y1754000D02*
D03*
X3222000Y1919000D02*
D03*
X554000Y1050000D02*
D03*
X1360000Y1574000D02*
D03*
X1353000Y1952000D02*
D03*
X1599000Y1886000D02*
D03*
X1482000Y2063000D02*
D03*
X1402000D02*
D03*
X1880000Y472000D02*
D03*
X3074000Y1934000D02*
D03*
X3713000Y1554000D02*
D03*
X3047000Y791000D02*
D03*
X1561000Y2063000D02*
D03*
X1679000Y1886000D02*
D03*
X1638000D02*
D03*
X3275000Y1624000D02*
D03*
X2245000Y1571000D02*
D03*
X669000Y1694000D02*
D03*
X1502000Y1605000D02*
D03*
Y1571000D02*
D03*
X1069000Y2039000D02*
D03*
X1502000Y1636000D02*
D03*
Y1670000D02*
D03*
X1455000D02*
D03*
X1435000Y1308000D02*
D03*
X3149000Y613000D02*
D03*
X3610000Y1792000D02*
D03*
X3241000Y2009000D02*
D03*
X805000Y1996000D02*
D03*
X1603000Y1271000D02*
D03*
X1468000Y405000D02*
D03*
X2490000Y298000D02*
D03*
X2286000Y295000D02*
D03*
D91*
X2864000Y1007000D02*
D03*
X1638000Y598000D02*
D03*
%TF.MD5,8671cc17cd0675407ae9ae66a70c95c9*%
M02*
