G04*
G04 #@! TF.GenerationSoftware,Altium Limited,Altium Designer,21.6.1 (37)*
G04*
G04 Layer_Color=16711935*
%FSLAX44Y44*%
%MOMM*%
G71*
G04*
G04 #@! TF.SameCoordinates,1A0BCF72-60D2-4BA0-9B7A-98A30DA12748*
G04*
G04*
G04 #@! TF.FilePolarity,Negative*
G04*
G01*
G75*
%ADD71R,1.1684X1.1430*%
%ADD95O,1.9032X1.4032*%
%ADD96O,1.6032X1.2032*%
%ADD97C,7.5692*%
%ADD98O,2.7432X5.2832*%
%ADD99R,2.2352X2.2352*%
%ADD100C,1.7032*%
%ADD101R,1.7032X1.7032*%
%ADD102C,3.2512*%
%ADD103C,0.5588*%
%ADD104C,0.6096*%
%ADD105C,0.6604*%
%ADD145R,2.7032X1.6282*%
%ADD146R,1.9532X0.6032*%
%ADD147R,1.6632X2.2032*%
G36*
X50421Y306395D02*
X50552Y306369D01*
X50678Y306327D01*
X50797Y306268D01*
X50908Y306194D01*
X51008Y306106D01*
X51096Y306006D01*
X51170Y305895D01*
X51229Y305776D01*
X51272Y305650D01*
X51297Y305519D01*
X51306Y305386D01*
Y287136D01*
X51297Y287003D01*
X51272Y286873D01*
X51229Y286746D01*
X51170Y286627D01*
X51096Y286516D01*
X51008Y286416D01*
X50908Y286328D01*
X50797Y286254D01*
X50678Y286195D01*
X50552Y286153D01*
X50421Y286127D01*
X50288Y286118D01*
X43288D01*
X43155Y286127D01*
X43025Y286153D01*
X42898Y286195D01*
X42779Y286254D01*
X42668Y286328D01*
X42568Y286416D01*
X42480Y286516D01*
X42406Y286627D01*
X42347Y286746D01*
X42305Y286873D01*
X42278Y287003D01*
X42270Y287136D01*
Y291368D01*
X22788D01*
X22762Y291369D01*
X22736Y291369D01*
X22346Y291389D01*
X22319Y291392D01*
X22291Y291393D01*
X21911Y291433D01*
X21907Y291434D01*
X21903Y291434D01*
X21842Y291445D01*
X21780Y291456D01*
X21776Y291457D01*
X21772Y291458D01*
X21593Y291503D01*
X21568Y291511D01*
X21542Y291517D01*
X21360Y291572D01*
X21360Y291572D01*
X21000Y291682D01*
X20983Y291689D01*
X20965Y291694D01*
X20921Y291712D01*
X20876Y291729D01*
X20860Y291738D01*
X20843Y291745D01*
X20463Y291935D01*
X20429Y291955D01*
X20394Y291973D01*
X20044Y292183D01*
X20001Y292213D01*
X19957Y292241D01*
X19637Y292481D01*
X19610Y292505D01*
X19581Y292527D01*
X19281Y292787D01*
X19278Y292790D01*
X19274Y292793D01*
X19231Y292836D01*
X19186Y292880D01*
X19183Y292884D01*
X19180Y292887D01*
X18910Y293197D01*
X18889Y293225D01*
X18866Y293251D01*
X18616Y293581D01*
X18614Y293586D01*
X18610Y293590D01*
X18577Y293641D01*
X18543Y293692D01*
X18541Y293697D01*
X18538Y293701D01*
X18338Y294062D01*
X18326Y294086D01*
X18312Y294111D01*
X18132Y294481D01*
X18130Y294487D01*
X18126Y294494D01*
X18105Y294549D01*
X18082Y294604D01*
X18080Y294611D01*
X18077Y294618D01*
X17947Y295028D01*
X17933Y295085D01*
X17918Y295142D01*
X17858Y295452D01*
X17855Y295481D01*
X17849Y295510D01*
X17799Y295880D01*
X17796Y295920D01*
X17791Y295961D01*
X17771Y296331D01*
X17772Y296359D01*
X17770Y296386D01*
Y301386D01*
X17771Y301410D01*
X17771Y301433D01*
X17791Y301863D01*
X17797Y301919D01*
X17802Y301974D01*
X17867Y302388D01*
X17879Y302440D01*
X17889Y302493D01*
X17994Y302888D01*
X18011Y302939D01*
X18028Y302992D01*
X18178Y303382D01*
X18204Y303438D01*
X18229Y303494D01*
X18399Y303814D01*
X18409Y303830D01*
X18418Y303847D01*
X18597Y304157D01*
X18632Y304208D01*
X18665Y304259D01*
X18910Y304584D01*
X18913Y304587D01*
X18915Y304591D01*
X18956Y304638D01*
X18997Y304685D01*
X19000Y304688D01*
X19003Y304691D01*
X19268Y304956D01*
X19282Y304968D01*
X19295Y304982D01*
X19575Y305242D01*
X19578Y305244D01*
X19580Y305247D01*
X19630Y305287D01*
X19678Y305326D01*
X19681Y305328D01*
X19684Y305330D01*
X19984Y305540D01*
X20006Y305553D01*
X20026Y305568D01*
X20376Y305788D01*
X20382Y305791D01*
X20387Y305795D01*
X20440Y305823D01*
X20493Y305851D01*
X20499Y305854D01*
X20505Y305856D01*
X20865Y306016D01*
X20893Y306027D01*
X20921Y306039D01*
X21240Y306159D01*
X21276Y306170D01*
X21311Y306183D01*
X21481Y306233D01*
X21508Y306239D01*
X21535Y306247D01*
X21705Y306287D01*
X21722Y306290D01*
X21738Y306294D01*
X21938Y306334D01*
X21943Y306335D01*
X21948Y306336D01*
X22157Y306376D01*
X22164Y306377D01*
X22169Y306378D01*
X22229Y306385D01*
X22290Y306392D01*
X22296Y306392D01*
X22302Y306393D01*
X22522Y306403D01*
X22545Y306403D01*
X22568Y306404D01*
X50288D01*
X50421Y306395D01*
D02*
G37*
G36*
X50421Y366145D02*
X50552Y366119D01*
X50678Y366077D01*
X50797Y366018D01*
X50908Y365944D01*
X51008Y365856D01*
X51096Y365756D01*
X51170Y365645D01*
X51229Y365526D01*
X51272Y365400D01*
X51297Y365269D01*
X51306Y365136D01*
Y346886D01*
X51297Y346753D01*
X51272Y346623D01*
X51229Y346496D01*
X51170Y346377D01*
X51096Y346266D01*
X51008Y346166D01*
X50908Y346078D01*
X50797Y346004D01*
X50678Y345945D01*
X50552Y345902D01*
X50421Y345877D01*
X50288Y345868D01*
X22568D01*
X22545Y345869D01*
X22522Y345869D01*
X22302Y345879D01*
X22296Y345880D01*
X22290Y345880D01*
X22229Y345887D01*
X22169Y345894D01*
X22164Y345895D01*
X22157Y345896D01*
X21948Y345936D01*
X21943Y345937D01*
X21939Y345938D01*
X21738Y345978D01*
X21722Y345982D01*
X21705Y345985D01*
X21535Y346025D01*
X21508Y346033D01*
X21481Y346039D01*
X21311Y346089D01*
X21276Y346102D01*
X21241Y346113D01*
X20921Y346233D01*
X20893Y346245D01*
X20865Y346256D01*
X20505Y346416D01*
X20499Y346418D01*
X20493Y346421D01*
X20440Y346450D01*
X20387Y346478D01*
X20382Y346481D01*
X20376Y346484D01*
X20026Y346704D01*
X20006Y346719D01*
X19984Y346732D01*
X19684Y346942D01*
X19681Y346944D01*
X19678Y346946D01*
X19630Y346985D01*
X19580Y347025D01*
X19578Y347028D01*
X19575Y347030D01*
X19295Y347290D01*
X19282Y347304D01*
X19268Y347316D01*
X19003Y347581D01*
X19000Y347584D01*
X18997Y347587D01*
X18956Y347634D01*
X18915Y347681D01*
X18913Y347685D01*
X18910Y347688D01*
X18665Y348013D01*
X18632Y348064D01*
X18598Y348115D01*
X18418Y348425D01*
X18409Y348442D01*
X18399Y348458D01*
X18229Y348778D01*
X18204Y348834D01*
X18178Y348890D01*
X18028Y349281D01*
X18011Y349333D01*
X17994Y349384D01*
X17889Y349779D01*
X17879Y349832D01*
X17867Y349883D01*
X17802Y350298D01*
X17797Y350354D01*
X17791Y350409D01*
X17771Y350839D01*
X17771Y350862D01*
X17770Y350886D01*
Y355886D01*
X17772Y355913D01*
X17771Y355941D01*
X17791Y356311D01*
X17796Y356352D01*
X17799Y356392D01*
X17849Y356762D01*
X17855Y356791D01*
X17858Y356819D01*
X17918Y357130D01*
X17933Y357187D01*
X17947Y357244D01*
X18077Y357654D01*
X18080Y357661D01*
X18082Y357668D01*
X18105Y357723D01*
X18126Y357778D01*
X18130Y357785D01*
X18132Y357791D01*
X18312Y358161D01*
X18326Y358186D01*
X18338Y358210D01*
X18538Y358571D01*
X18541Y358575D01*
X18543Y358580D01*
X18577Y358631D01*
X18610Y358682D01*
X18614Y358686D01*
X18616Y358691D01*
X18866Y359021D01*
X18889Y359047D01*
X18910Y359075D01*
X19180Y359385D01*
X19184Y359388D01*
X19187Y359392D01*
X19231Y359436D01*
X19274Y359479D01*
X19278Y359482D01*
X19281Y359485D01*
X19581Y359745D01*
X19610Y359767D01*
X19637Y359790D01*
X19957Y360031D01*
X20001Y360059D01*
X20044Y360089D01*
X20394Y360299D01*
X20429Y360317D01*
X20463Y360337D01*
X20843Y360527D01*
X20860Y360534D01*
X20876Y360543D01*
X20921Y360560D01*
X20965Y360578D01*
X20983Y360583D01*
X21000Y360590D01*
X21360Y360700D01*
X21360Y360700D01*
X21542Y360755D01*
X21568Y360761D01*
X21593Y360769D01*
X21772Y360814D01*
X21776Y360815D01*
X21780Y360816D01*
X21842Y360827D01*
X21903Y360838D01*
X21907Y360838D01*
X21911Y360839D01*
X22291Y360879D01*
X22319Y360880D01*
X22346Y360883D01*
X22736Y360903D01*
X22762Y360902D01*
X22788Y360904D01*
X42270D01*
Y365136D01*
X42279Y365269D01*
X42305Y365400D01*
X42347Y365526D01*
X42406Y365645D01*
X42480Y365756D01*
X42568Y365856D01*
X42668Y365944D01*
X42779Y366018D01*
X42898Y366077D01*
X43025Y366119D01*
X43155Y366145D01*
X43288Y366154D01*
X50288D01*
X50421Y366145D01*
D02*
G37*
D71*
X47879Y382270D02*
D03*
X62865D02*
D03*
D95*
X29788Y298886D02*
D03*
Y353386D02*
D03*
D96*
X60088Y301886D02*
D03*
Y350386D02*
D03*
D97*
X719248Y326644D02*
D03*
X264748D02*
D03*
D98*
X126248D02*
D03*
X857748D02*
D03*
D99*
X959612Y329692D02*
D03*
D100*
X20066Y469900D02*
D03*
Y419100D02*
D03*
Y444500D02*
D03*
Y229108D02*
D03*
Y203708D02*
D03*
Y254508D02*
D03*
D101*
Y393700D02*
D03*
Y178308D02*
D03*
D102*
X167386Y614426D02*
D03*
X809244Y40640D02*
D03*
X167386D02*
D03*
X809244Y614426D02*
D03*
D103*
X176530Y172720D02*
D03*
X298994Y285206D02*
D03*
X158242Y262890D02*
D03*
X152146Y378714D02*
D03*
X178816Y368142D02*
D03*
X355770Y282194D02*
D03*
X407162Y322834D02*
D03*
X345440Y384940D02*
D03*
X369512Y425030D02*
D03*
X381508Y407670D02*
D03*
X354076Y382778D02*
D03*
X381508Y424180D02*
D03*
X378121Y431891D02*
D03*
X335788Y337058D02*
D03*
X472186Y292354D02*
D03*
X488696Y405384D02*
D03*
X510794Y333502D02*
D03*
X542506Y333545D02*
D03*
X474472Y120904D02*
D03*
X169926Y430276D02*
D03*
X176530Y179578D02*
D03*
X85344Y319024D02*
D03*
Y325628D02*
D03*
X852170Y359664D02*
D03*
X591312Y61214D02*
D03*
X565658Y74422D02*
D03*
X787400Y211074D02*
D03*
X364490Y332232D02*
D03*
X957834Y235712D02*
D03*
X381508Y399633D02*
D03*
X774700Y493014D02*
D03*
X890778Y427990D02*
D03*
X891032Y446278D02*
D03*
X850900Y509016D02*
D03*
X835406Y458216D02*
D03*
X522986Y445516D02*
D03*
X523590Y432431D02*
D03*
X562102Y60960D02*
D03*
X921512Y315214D02*
D03*
X906018Y315468D02*
D03*
X920242Y255778D02*
D03*
X446786Y185166D02*
D03*
X913892Y354330D02*
D03*
X835914Y359664D02*
D03*
X798322Y411654D02*
D03*
X768096Y385826D02*
D03*
X381508Y439928D02*
D03*
Y448818D02*
D03*
X919988Y488442D02*
D03*
X766318Y515112D02*
D03*
X747014Y486410D02*
D03*
X712724Y484886D02*
D03*
X735584Y386080D02*
D03*
X823468Y523748D02*
D03*
X352128Y321322D02*
D03*
X746760Y429514D02*
D03*
X783336Y432054D02*
D03*
Y445516D02*
D03*
X818388Y487426D02*
D03*
X343662Y495808D02*
D03*
X406146Y479044D02*
D03*
X376428Y524002D02*
D03*
X356108D02*
D03*
X943102Y394716D02*
D03*
X396494Y524002D02*
D03*
X426466Y479044D02*
D03*
X416052D02*
D03*
X831850Y412496D02*
D03*
X271526Y517906D02*
D03*
X381508Y415544D02*
D03*
X916940Y455168D02*
D03*
X823214Y510286D02*
D03*
X204470Y506984D02*
D03*
X623570Y75184D02*
D03*
D104*
X310896Y186690D02*
D03*
X86530Y183642D02*
D03*
X287782Y189738D02*
D03*
X698335Y244945D02*
D03*
X412496Y95504D02*
D03*
X310642Y202438D02*
D03*
X227584Y185420D02*
D03*
X227838Y198374D02*
D03*
X335240Y299934D02*
D03*
X456946Y405892D02*
D03*
X524510Y271526D02*
D03*
X538226Y283718D02*
D03*
X807212Y151638D02*
D03*
X785368Y250190D02*
D03*
X328422Y153924D02*
D03*
X278130Y154178D02*
D03*
X455676Y443738D02*
D03*
X405892D02*
D03*
X475765Y551737D02*
D03*
X474328Y525665D02*
D03*
X496525Y525508D02*
D03*
X497132Y532084D02*
D03*
X497520Y538677D02*
D03*
X497311Y545277D02*
D03*
X494515Y551260D02*
D03*
X745001Y611814D02*
D03*
X745187Y605213D02*
D03*
X747799Y599147D02*
D03*
Y592543D02*
D03*
Y585939D02*
D03*
Y579336D02*
D03*
X745733Y573063D02*
D03*
X741064Y568393D02*
D03*
X736394Y563724D02*
D03*
X731724Y559054D02*
D03*
X721036Y551665D02*
D03*
X714432D02*
D03*
X707828D02*
D03*
X701224D02*
D03*
X694620D02*
D03*
X688016D02*
D03*
X681412D02*
D03*
X674808D02*
D03*
X668205Y551557D02*
D03*
X662268Y548664D02*
D03*
X657598Y543994D02*
D03*
X652929Y539325D02*
D03*
X648259Y534655D02*
D03*
X643589Y529985D02*
D03*
X638919Y525316D02*
D03*
X634250Y520646D02*
D03*
X628804Y516910D02*
D03*
X622200D02*
D03*
X615596D02*
D03*
X608992D02*
D03*
X602388D02*
D03*
X595784D02*
D03*
X589180D02*
D03*
X582576D02*
D03*
X575972D02*
D03*
X569368D02*
D03*
X562764D02*
D03*
X556160D02*
D03*
X549556D02*
D03*
X542952D02*
D03*
X536348D02*
D03*
X529744D02*
D03*
X523140D02*
D03*
X516536D02*
D03*
X509932D02*
D03*
X503328D02*
D03*
X496724D02*
D03*
X477086Y516387D02*
D03*
X473974Y510562D02*
D03*
X474047Y503958D02*
D03*
X474787Y471531D02*
D03*
X493537Y472256D02*
D03*
X496076Y484957D02*
D03*
X496250Y491558D02*
D03*
X496115Y498161D02*
D03*
X502719D02*
D03*
X509323D02*
D03*
X515927D02*
D03*
X522531D02*
D03*
X529135D02*
D03*
X535739D02*
D03*
X542343D02*
D03*
X548947D02*
D03*
X555551D02*
D03*
X562155D02*
D03*
X568759D02*
D03*
X575363D02*
D03*
X581967D02*
D03*
X588571D02*
D03*
X595175D02*
D03*
X601779D02*
D03*
X608383D02*
D03*
X614987D02*
D03*
X621591D02*
D03*
X628195D02*
D03*
X634799Y498181D02*
D03*
X640867Y500785D02*
D03*
X645556Y505436D02*
D03*
X650225Y510106D02*
D03*
X654895Y514776D02*
D03*
X659565Y519445D02*
D03*
X664235Y524115D02*
D03*
X668904Y528785D02*
D03*
X674057Y532915D02*
D03*
X680661D02*
D03*
X687265D02*
D03*
X693869D02*
D03*
X700473D02*
D03*
X707077D02*
D03*
X713681D02*
D03*
X720285D02*
D03*
X726889D02*
D03*
X733308Y534467D02*
D03*
X738147Y538961D02*
D03*
X742817Y543631D02*
D03*
X747487Y548301D02*
D03*
X752156Y552971D02*
D03*
X756826Y557640D02*
D03*
X761496Y562310D02*
D03*
X765700Y567403D02*
D03*
X766549Y573952D02*
D03*
Y580556D02*
D03*
Y587160D02*
D03*
Y593764D02*
D03*
Y600368D02*
D03*
X769313Y606366D02*
D03*
X727456Y255778D02*
D03*
D105*
X152400Y152400D02*
D03*
X203200Y254000D02*
D03*
X50800D02*
D03*
X939800Y508000D02*
D03*
Y406400D02*
D03*
Y304800D02*
D03*
Y203200D02*
D03*
X914400Y152400D02*
D03*
X889000Y508000D02*
D03*
X863600Y254000D02*
D03*
X889000Y203200D02*
D03*
X863600Y152400D02*
D03*
X838200Y609600D02*
D03*
X812800Y558800D02*
D03*
X838200Y406400D02*
D03*
X812800Y355600D02*
D03*
X838200Y304800D02*
D03*
Y101600D02*
D03*
X787400Y609600D02*
D03*
Y508000D02*
D03*
X762000Y457200D02*
D03*
Y355600D02*
D03*
X787400Y304800D02*
D03*
X762000Y254000D02*
D03*
X787400Y203200D02*
D03*
X762000Y152400D02*
D03*
X787400Y101600D02*
D03*
X762000Y50800D02*
D03*
X736600Y609600D02*
D03*
X711200Y254000D02*
D03*
X736600Y203200D02*
D03*
Y101600D02*
D03*
X711200Y50800D02*
D03*
X685800Y508000D02*
D03*
X660400Y457200D02*
D03*
X685800Y406400D02*
D03*
X660400Y355600D02*
D03*
Y254000D02*
D03*
Y152400D02*
D03*
X685800Y101600D02*
D03*
X609600Y457200D02*
D03*
X635000Y406400D02*
D03*
X609600Y355600D02*
D03*
Y254000D02*
D03*
Y152400D02*
D03*
X635000Y101600D02*
D03*
X609600Y50800D02*
D03*
X558800Y457200D02*
D03*
X584200Y406400D02*
D03*
Y304800D02*
D03*
X558800Y152400D02*
D03*
X584200Y101600D02*
D03*
X508000Y457200D02*
D03*
X533400Y304800D02*
D03*
X508000Y254000D02*
D03*
X533400Y203200D02*
D03*
X508000Y152400D02*
D03*
X457200Y355600D02*
D03*
Y254000D02*
D03*
Y152400D02*
D03*
X482600Y101600D02*
D03*
X406400Y355600D02*
D03*
Y254000D02*
D03*
Y152400D02*
D03*
X355600Y355600D02*
D03*
Y254000D02*
D03*
X381000Y203200D02*
D03*
X355600Y152400D02*
D03*
X381000Y101600D02*
D03*
X355600Y50800D02*
D03*
X330200Y508000D02*
D03*
X304800Y457200D02*
D03*
Y355600D02*
D03*
X330200Y304800D02*
D03*
X304800Y254000D02*
D03*
Y152400D02*
D03*
X330200Y101600D02*
D03*
X304800Y50800D02*
D03*
X279400Y508000D02*
D03*
Y406400D02*
D03*
X254000Y152400D02*
D03*
X279400Y101600D02*
D03*
X254000Y50800D02*
D03*
X203200Y558800D02*
D03*
X228600Y508000D02*
D03*
X203200Y457200D02*
D03*
X228600Y406400D02*
D03*
X203200Y355600D02*
D03*
X228600Y304800D02*
D03*
Y101600D02*
D03*
X203200Y50800D02*
D03*
X152400Y558800D02*
D03*
X177800Y508000D02*
D03*
X152400Y457200D02*
D03*
X177800Y406400D02*
D03*
X152400Y355600D02*
D03*
X177800Y304800D02*
D03*
Y203200D02*
D03*
Y101600D02*
D03*
X127000Y508000D02*
D03*
X101600Y457200D02*
D03*
X127000Y406400D02*
D03*
Y203200D02*
D03*
X101600Y152400D02*
D03*
X127000Y101600D02*
D03*
X76200Y508000D02*
D03*
X50800Y457200D02*
D03*
X76200Y406400D02*
D03*
Y304800D02*
D03*
X50800Y152400D02*
D03*
D145*
X27288Y335761D02*
D03*
Y316511D02*
D03*
D146*
X58038Y339136D02*
D03*
Y332636D02*
D03*
Y313136D02*
D03*
Y319636D02*
D03*
Y326136D02*
D03*
D147*
X60087Y297136D02*
D03*
X60088Y355136D02*
D03*
M02*
