G04*
G04 #@! TF.GenerationSoftware,Altium Limited,Altium Designer,21.6.1 (37)*
G04*
G04 Layer_Color=16711935*
%FSLAX44Y44*%
%MOMM*%
G71*
G04*
G04 #@! TF.SameCoordinates,1A0BCF72-60D2-4BA0-9B7A-98A30DA12748*
G04*
G04*
G04 #@! TF.FilePolarity,Positive*
G04*
G01*
G75*
%ADD11C,0.2000*%
%ADD12C,0.1000*%
%ADD15C,0.2540*%
%ADD17C,0.1270*%
D11*
X886444Y396240D02*
G03*
X886444Y396240I-1000J0D01*
G01*
X339758Y298102D02*
X359758D01*
Y318102D01*
X339758D02*
X359758D01*
X339758Y298102D02*
Y318102D01*
X196956Y444074D02*
Y486074D01*
X164956Y444074D02*
X196956D01*
X164956D02*
Y486074D01*
X196956D01*
X228094Y443820D02*
Y485820D01*
X260094D01*
Y443820D02*
Y485820D01*
X228094Y443820D02*
X260094D01*
X130984Y374222D02*
Y384222D01*
X120984Y374222D02*
X130984D01*
X120984D02*
Y384222D01*
X130984D01*
X875762Y213306D02*
X903762D01*
Y238306D01*
X875762D02*
X903762D01*
X875762Y213306D02*
Y238306D01*
D12*
X845996Y448740D02*
G03*
X845996Y448740I-5000J0D01*
G01*
X912544Y392860D02*
G03*
X912544Y392860I-5000J0D01*
G01*
X158560Y374222D02*
Y384222D01*
X166560D01*
Y374222D02*
Y384222D01*
X158560Y374222D02*
X166560D01*
X158560Y376722D02*
X161060Y374222D01*
X848432Y368182D02*
Y385182D01*
X857432Y368182D02*
Y385182D01*
X848432Y368182D02*
X857432D01*
X848432Y385182D02*
X857432D01*
X347798Y330082D02*
Y347082D01*
X356798Y330082D02*
Y347082D01*
X347798Y330082D02*
X356798D01*
X347798Y347082D02*
X356798D01*
X515040Y308092D02*
Y325092D01*
X506040Y308092D02*
Y325092D01*
X515040D01*
X506040Y308092D02*
X515040D01*
X492070Y307476D02*
X501070D01*
X492070Y324476D02*
X501070D01*
X492070Y307476D02*
Y324476D01*
X501070Y307476D02*
Y324476D01*
X1588Y366336D02*
X57788D01*
X1588Y285936D02*
Y366336D01*
Y285936D02*
X57788D01*
Y366336D01*
X60334Y237414D02*
X77334D01*
X60334Y227914D02*
X77334D01*
X60334D02*
Y237414D01*
X77334Y227914D02*
Y237414D01*
X209876Y226704D02*
X218876D01*
X209876Y243704D02*
X218876D01*
X209876Y226704D02*
Y243704D01*
X218876Y226704D02*
Y243704D01*
X252340Y186762D02*
Y195762D01*
X235340Y186762D02*
Y195762D01*
Y186762D02*
X252340D01*
X235340Y195762D02*
X252340D01*
X231720Y229734D02*
X240720D01*
X231720Y212734D02*
X240720D01*
Y229734D01*
X231720Y212734D02*
Y229734D01*
X162658Y167024D02*
X206658D01*
X162658D02*
Y217024D01*
X206658D01*
Y167024D02*
Y217024D01*
X200158Y167024D02*
X206658Y173524D01*
X112594Y197222D02*
X121594D01*
X112594Y180222D02*
X121594D01*
Y197222D01*
X112594Y180222D02*
Y197222D01*
X132406Y211446D02*
X141406D01*
X132406Y194446D02*
X141406D01*
Y211446D01*
X132406Y194446D02*
Y211446D01*
X113356Y225670D02*
X122356D01*
X113356Y208670D02*
X122356D01*
Y225670D01*
X113356Y208670D02*
Y225670D01*
X803474Y232292D02*
Y249292D01*
X812474Y232292D02*
Y249292D01*
X803474Y232292D02*
X812474D01*
X803474Y249292D02*
X812474D01*
X842192Y508644D02*
Y525644D01*
X833192Y508644D02*
Y525644D01*
X842192D01*
X833192Y508644D02*
X842192D01*
X765438Y481258D02*
X782438D01*
X765438Y472258D02*
X782438D01*
X765438D02*
Y481258D01*
X782438Y472258D02*
Y481258D01*
X760500Y162030D02*
X770000Y171530D01*
Y162030D02*
Y191030D01*
X754000D02*
X770000D01*
X754000Y162030D02*
Y191030D01*
Y162030D02*
X770000D01*
X761262Y235944D02*
X770762Y245444D01*
Y235944D02*
Y264944D01*
X754762D02*
X770762D01*
X754762Y235944D02*
Y264944D01*
Y235944D02*
X770762D01*
X802740Y460158D02*
X815240D01*
X802740D02*
Y480658D01*
X815240D01*
Y460158D02*
Y480658D01*
X808740Y460158D02*
X815240Y466658D01*
X581062Y36168D02*
Y48668D01*
X601562D01*
Y36168D02*
Y48668D01*
X581062Y36168D02*
X601562D01*
X581062Y42668D02*
X587562Y36168D01*
X475140Y569520D02*
Y639520D01*
X495140D01*
Y569520D02*
Y639520D01*
X475140Y569520D02*
X495140D01*
X475140Y575520D02*
X481140Y569520D01*
X887104Y359588D02*
X904104D01*
X887104Y350088D02*
X904104D01*
X887104D02*
Y359588D01*
X904104Y350088D02*
Y359588D01*
X170678Y522148D02*
X187678D01*
X170678Y512648D02*
X187678D01*
X170678D02*
Y522148D01*
X187678Y512648D02*
Y522148D01*
X644322Y65414D02*
Y82414D01*
X634822Y65414D02*
Y82414D01*
X644322D01*
X634822Y65414D02*
X644322D01*
X615112Y67192D02*
Y84192D01*
X605612Y67192D02*
Y84192D01*
X615112D01*
X605612Y67192D02*
X615112D01*
X840918Y369198D02*
Y386198D01*
X831418Y369198D02*
Y386198D01*
X840918D01*
X831418Y369198D02*
X840918D01*
X886596Y308026D02*
X903596D01*
X886596Y298526D02*
X903596D01*
X886596D02*
Y308026D01*
X903596Y298526D02*
Y308026D01*
X468004Y189408D02*
X485004D01*
X468004Y179908D02*
X485004D01*
X468004D02*
Y189408D01*
X485004Y179908D02*
Y189408D01*
X865006Y405816D02*
X882006D01*
X865006Y396316D02*
X882006D01*
X865006D02*
Y405816D01*
X882006Y396316D02*
Y405816D01*
X490144Y505536D02*
Y522536D01*
X480644Y505536D02*
Y522536D01*
X490144D01*
X480644Y505536D02*
X490144D01*
X941248Y326780D02*
Y343780D01*
X931748Y326780D02*
Y343780D01*
X941248D01*
X931748Y326780D02*
X941248D01*
X361112Y494166D02*
Y511166D01*
X351612Y494166D02*
Y511166D01*
X361112D01*
X351612Y494166D02*
X361112D01*
X381178Y493912D02*
Y510912D01*
X371678Y493912D02*
Y510912D01*
X381178D01*
X371678Y493912D02*
X381178D01*
X549005Y342838D02*
Y359838D01*
X539505Y342838D02*
Y359838D01*
X549005D01*
X539505Y342838D02*
X549005D01*
X831996Y439740D02*
X881996D01*
X831996Y479740D02*
X881996D01*
X831996Y439740D02*
Y479740D01*
X881996Y439740D02*
Y479740D01*
X898544Y383860D02*
X948544D01*
X898544Y423860D02*
X948544D01*
X898544Y383860D02*
Y423860D01*
X948544Y383860D02*
Y423860D01*
X563236Y26488D02*
Y35488D01*
X546236Y26488D02*
Y35488D01*
Y26488D02*
X563236D01*
X546236Y35488D02*
X563236D01*
Y40966D02*
Y49966D01*
X546236Y40966D02*
Y49966D01*
Y40966D02*
X563236D01*
X546236Y49966D02*
X563236D01*
X612530Y27504D02*
Y36504D01*
X629530Y27504D02*
Y36504D01*
X612530D02*
X629530D01*
X612530Y27504D02*
X629530D01*
X574366Y83430D02*
X583366D01*
X574366Y66430D02*
X583366D01*
Y83430D01*
X574366Y66430D02*
Y83430D01*
X672202Y63318D02*
Y72318D01*
X655202Y63318D02*
Y72318D01*
Y63318D02*
X672202D01*
X655202Y72318D02*
X672202D01*
X413630Y55952D02*
Y64952D01*
X396630Y55952D02*
Y64952D01*
Y55952D02*
X413630D01*
X396630Y64952D02*
X413630D01*
Y74494D02*
Y83494D01*
X396630Y74494D02*
Y83494D01*
Y74494D02*
X413630D01*
X396630Y83494D02*
X413630D01*
X396630Y128596D02*
Y137596D01*
X413630Y128596D02*
Y137596D01*
X396630D02*
X413630D01*
X396630Y128596D02*
X413630D01*
X430094Y510150D02*
X439094D01*
X430094Y493150D02*
X439094D01*
Y510150D01*
X430094Y493150D02*
Y510150D01*
X457272Y308238D02*
X466272D01*
X457272Y325238D02*
X466272D01*
X457272Y308238D02*
Y325238D01*
X466272Y308238D02*
Y325238D01*
X413838Y308238D02*
X422838D01*
X413838Y325238D02*
X422838D01*
X413838Y308238D02*
Y325238D01*
X422838Y308238D02*
Y325238D01*
X356798Y268106D02*
Y285106D01*
X347798Y268106D02*
Y285106D01*
X356798D01*
X347798Y268106D02*
X356798D01*
X917502Y342676D02*
X926502D01*
X917502Y325676D02*
X926502D01*
Y342676D01*
X917502Y325676D02*
Y342676D01*
X763850Y417948D02*
X772850D01*
X763850Y400948D02*
X772850D01*
Y417948D01*
X763850Y400948D02*
Y417948D01*
X742768Y516754D02*
X751768D01*
X742768Y499754D02*
X751768D01*
Y516754D01*
X742768Y499754D02*
Y516754D01*
X794076Y447412D02*
X803076D01*
X794076Y430412D02*
X803076D01*
Y447412D01*
X794076Y430412D02*
Y447412D01*
X899994Y469256D02*
X908994D01*
X899994Y452256D02*
X908994D01*
Y469256D01*
X899994Y452256D02*
Y469256D01*
X712860Y245546D02*
X729860D01*
X712860Y236546D02*
X729860D01*
X712860D02*
Y245546D01*
X729860Y236546D02*
Y245546D01*
X712860Y171886D02*
X729860D01*
X712860Y162886D02*
X729860D01*
X712860D02*
Y171886D01*
X729860Y162886D02*
Y171886D01*
X237480Y521914D02*
X254480D01*
X237480Y512914D02*
X254480D01*
X237480D02*
Y521914D01*
X254480Y512914D02*
Y521914D01*
X938712Y254390D02*
Y271390D01*
X929712Y254390D02*
Y271390D01*
X938712D01*
X929712Y254390D02*
X938712D01*
X944096Y270486D02*
X953596Y260986D01*
X944096D02*
X973096D01*
Y276986D01*
X944096D02*
X973096D01*
X944096Y260986D02*
Y276986D01*
X625392Y47582D02*
X630892D01*
X625392Y58082D02*
X630892D01*
X625392Y47582D02*
Y58082D01*
X630892Y47582D02*
Y58082D01*
X797950Y162886D02*
X814950D01*
X797950Y171886D02*
X814950D01*
Y162886D02*
Y171886D01*
X797950Y162886D02*
Y171886D01*
X486592Y307476D02*
Y324476D01*
X477592Y307476D02*
Y324476D01*
X486592D01*
X477592Y307476D02*
X486592D01*
X451032Y308238D02*
Y325238D01*
X442032Y308238D02*
Y325238D01*
X451032D01*
X442032Y308238D02*
X451032D01*
X436935D02*
Y325238D01*
X427935Y308238D02*
Y325238D01*
X436935D01*
X427935Y308238D02*
X436935D01*
X421314Y493404D02*
Y510404D01*
X412314Y493404D02*
Y510404D01*
X421314D01*
X412314Y493404D02*
X421314D01*
D15*
X532436Y1270D02*
Y141270D01*
X436436Y1270D02*
X532436D01*
X436436D02*
Y141270D01*
X532436D01*
D17*
X882444Y383730D02*
X888444D01*
X882444Y375730D02*
Y383730D01*
Y375730D02*
X888444D01*
Y383730D01*
X85256Y253316D02*
X99656D01*
X85256Y231316D02*
X99656D01*
Y253316D01*
X85256Y231316D02*
Y253316D01*
X890748Y141244D02*
Y512044D01*
X93248Y141244D02*
X890748D01*
X93248D02*
Y512044D01*
X890748D01*
M02*
