G04*
G04 #@! TF.GenerationSoftware,Altium Limited,Altium Designer,21.6.1 (37)*
G04*
G04 Layer_Color=2752767*
%FSLAX44Y44*%
%MOMM*%
G71*
G04*
G04 #@! TF.SameCoordinates,8A31D3E6-7417-4931-9B95-E7CF89301AF7*
G04*
G04*
G04 #@! TF.FilePolarity,Positive*
G04*
G01*
G75*
%ADD155C,0.0508*%
%ADD156C,0.0677*%
%ADD157C,0.0339*%
D155*
X582997Y600456D02*
Y604520D01*
X587061D01*
Y600456D01*
X582997D01*
X60088Y299854D02*
X58056Y303918D01*
X62120D01*
X60088Y299854D01*
Y348354D02*
X58056Y352418D01*
X62120D01*
X60088Y348354D01*
X719248Y324612D02*
X720264Y325628D01*
X721280D01*
X720264Y326644D01*
X721280Y327660D01*
X720264D01*
X719248Y328676D01*
X718232Y327660D01*
X717216D01*
X718232Y326644D01*
X717216Y325628D01*
X718232D01*
X719248Y324612D01*
X124216D02*
X125232Y326644D01*
X124216Y328676D01*
X126248Y327660D01*
X128280Y328676D01*
X127264Y326644D01*
X128280Y324612D01*
X126248Y325628D01*
X124216Y324612D01*
X855716D02*
X856732Y326644D01*
X855716Y328676D01*
X857748Y327660D01*
X859780Y328676D01*
X858764Y326644D01*
X859780Y324612D01*
X857748Y325628D01*
X855716Y324612D01*
X264748D02*
X265764Y325628D01*
X266780D01*
X265764Y326644D01*
X266780Y327660D01*
X265764D01*
X264748Y328676D01*
X263732Y327660D01*
X262716D01*
X263732Y326644D01*
X262716Y325628D01*
X263732D01*
X264748Y324612D01*
X958596Y328676D02*
Y327660D01*
X960628D01*
Y328676D01*
X961644D01*
Y330708D01*
X960628D01*
Y331724D01*
X958596D01*
Y330708D01*
X957580D01*
Y328676D01*
X958596D01*
X18034Y467868D02*
X19050D01*
X20066Y468884D01*
X21082Y467868D01*
X22098D01*
Y468884D01*
X21082Y469900D01*
X22098Y470916D01*
Y471932D01*
X21082D01*
X20066Y470916D01*
X19050Y471932D01*
X18034D01*
Y470916D01*
X19050Y469900D01*
X18034Y468884D01*
Y467868D01*
Y391668D02*
X19050D01*
X20066Y392684D01*
X21082Y391668D01*
X22098D01*
Y392684D01*
X21082Y393700D01*
X22098Y394716D01*
Y395732D01*
X21082D01*
X20066Y394716D01*
X19050Y395732D01*
X18034D01*
Y394716D01*
X19050Y393700D01*
X18034Y392684D01*
Y391668D01*
Y417068D02*
X19050D01*
X20066Y418084D01*
X21082Y417068D01*
X22098D01*
Y418084D01*
X21082Y419100D01*
X22098Y420116D01*
Y421132D01*
X21082D01*
X20066Y420116D01*
X19050Y421132D01*
X18034D01*
Y420116D01*
X19050Y419100D01*
X18034Y418084D01*
Y417068D01*
Y442468D02*
X19050D01*
X20066Y443484D01*
X21082Y442468D01*
X22098D01*
Y443484D01*
X21082Y444500D01*
X22098Y445516D01*
Y446532D01*
X21082D01*
X20066Y445516D01*
X19050Y446532D01*
X18034D01*
Y445516D01*
X19050Y444500D01*
X18034Y443484D01*
Y442468D01*
Y227076D02*
X19050D01*
X20066Y228092D01*
X21082Y227076D01*
X22098D01*
Y228092D01*
X21082Y229108D01*
X22098Y230124D01*
Y231140D01*
X21082D01*
X20066Y230124D01*
X19050Y231140D01*
X18034D01*
Y230124D01*
X19050Y229108D01*
X18034Y228092D01*
Y227076D01*
Y201676D02*
X19050D01*
X20066Y202692D01*
X21082Y201676D01*
X22098D01*
Y202692D01*
X21082Y203708D01*
X22098Y204724D01*
Y205740D01*
X21082D01*
X20066Y204724D01*
X19050Y205740D01*
X18034D01*
Y204724D01*
X19050Y203708D01*
X18034Y202692D01*
Y201676D01*
Y176276D02*
X19050D01*
X20066Y177292D01*
X21082Y176276D01*
X22098D01*
Y177292D01*
X21082Y178308D01*
X22098Y179324D01*
Y180340D01*
X21082D01*
X20066Y179324D01*
X19050Y180340D01*
X18034D01*
Y179324D01*
X19050Y178308D01*
X18034Y177292D01*
Y176276D01*
Y252476D02*
X19050D01*
X20066Y253492D01*
X21082Y252476D01*
X22098D01*
Y253492D01*
X21082Y254508D01*
X22098Y255524D01*
Y256540D01*
X21082D01*
X20066Y255524D01*
X19050Y256540D01*
X18034D01*
Y255524D01*
X19050Y254508D01*
X18034Y253492D01*
Y252476D01*
X165354Y614426D02*
X167386Y616458D01*
X169418Y614426D01*
X167386Y612394D01*
X165354Y614426D01*
X807212Y40640D02*
X809244Y42672D01*
X811276Y40640D01*
X809244Y38608D01*
X807212Y40640D01*
X165354D02*
X167386Y42672D01*
X169418Y40640D01*
X167386Y38608D01*
X165354Y40640D01*
X807212Y614426D02*
X809244Y616458D01*
X811276Y614426D01*
X809244Y612394D01*
X807212Y614426D01*
X541020Y637540D02*
Y641604D01*
X545084D01*
Y637540D01*
X541020D01*
X542036Y638556D02*
Y640588D01*
X544068D01*
Y638556D01*
X542036D01*
X560324Y637794D02*
Y641858D01*
X564388D01*
Y637794D01*
X560324D01*
X561340Y638810D02*
Y640842D01*
X563372D01*
Y638810D01*
X561340D01*
X541020Y567563D02*
Y571627D01*
X545084D01*
Y567563D01*
X541020D01*
X542036Y568579D02*
Y570611D01*
X544068D01*
Y568579D01*
X542036D01*
X422602Y637413D02*
Y641477D01*
X426666D01*
Y637413D01*
X422602D01*
X423618Y638429D02*
Y640461D01*
X425650D01*
Y638429D01*
X423618D01*
X402971Y637540D02*
Y641604D01*
X407035D01*
Y637540D01*
X402971D01*
X403987Y638556D02*
Y640588D01*
X406019D01*
Y638556D01*
X403987D01*
X383250Y637540D02*
Y641604D01*
X387314D01*
Y637540D01*
X383250D01*
X384266Y638556D02*
Y640588D01*
X386298D01*
Y638556D01*
X384266D01*
X363529Y637540D02*
Y641604D01*
X367593D01*
Y637540D01*
X363529D01*
X364545Y638556D02*
Y640588D01*
X366577D01*
Y638556D01*
X364545D01*
X343807Y637540D02*
Y641604D01*
X347871D01*
Y637540D01*
X343807D01*
X344823Y638556D02*
Y640588D01*
X346855D01*
Y638556D01*
X344823D01*
X323996Y637413D02*
Y641477D01*
X328060D01*
Y637413D01*
X323996D01*
X325011Y638429D02*
Y640461D01*
X327043D01*
Y638429D01*
X325011D01*
X304365Y637540D02*
Y641604D01*
X308429D01*
Y637540D01*
X304365D01*
X305381Y638556D02*
Y640588D01*
X307413D01*
Y638556D01*
X305381D01*
X285061Y567817D02*
Y571881D01*
X289125D01*
Y567817D01*
X285061D01*
X286077Y568833D02*
Y570865D01*
X288109D01*
Y568833D01*
X286077D01*
X304365Y567563D02*
Y571627D01*
X308429D01*
Y567563D01*
X304365D01*
X305381Y568579D02*
Y570611D01*
X307413D01*
Y568579D01*
X305381D01*
X324086Y567563D02*
Y571627D01*
X328150D01*
Y567563D01*
X324086D01*
X325102Y568579D02*
Y570611D01*
X327134D01*
Y568579D01*
X325102D01*
X343807Y567563D02*
Y571627D01*
X347871D01*
Y567563D01*
X343807D01*
X344823Y568579D02*
Y570611D01*
X346855D01*
Y568579D01*
X344823D01*
X363529Y567563D02*
Y571627D01*
X367593D01*
Y567563D01*
X363529D01*
X364545Y568579D02*
Y570611D01*
X366577D01*
Y568579D01*
X364545D01*
X383250Y567563D02*
Y571627D01*
X387314D01*
Y567563D01*
X383250D01*
X384266Y568579D02*
Y570611D01*
X386298D01*
Y568579D01*
X384266D01*
X402971Y567563D02*
Y571627D01*
X407035D01*
Y567563D01*
X402971D01*
X403987Y568579D02*
Y570611D01*
X406019D01*
Y568579D01*
X403987D01*
X422692Y567563D02*
Y571627D01*
X426756D01*
Y567563D01*
X422692D01*
X423708Y568579D02*
Y570611D01*
X425740D01*
Y568579D01*
X423708D01*
X442414Y567563D02*
Y571627D01*
X446478D01*
Y567563D01*
X442414D01*
X443430Y568579D02*
Y570611D01*
X445462D01*
Y568579D01*
X443430D01*
X462135Y567563D02*
Y571627D01*
X466199D01*
Y567563D01*
X462135D01*
X463151Y568579D02*
Y570611D01*
X465183D01*
Y568579D01*
X463151D01*
X481856Y567563D02*
Y571627D01*
X485920D01*
Y567563D01*
X481856D01*
X482872Y568579D02*
Y570611D01*
X484904D01*
Y568579D01*
X482872D01*
X501577Y567563D02*
Y571627D01*
X505642D01*
Y567563D01*
X501577D01*
X502593Y568579D02*
Y570611D01*
X504626D01*
Y568579D01*
X502593D01*
X521299Y567563D02*
Y571627D01*
X525363D01*
Y567563D01*
X521299D01*
X522315Y568579D02*
Y570611D01*
X524347D01*
Y568579D01*
X522315D01*
X442414Y637540D02*
Y641604D01*
X446478D01*
Y637540D01*
X442414D01*
X443430Y638556D02*
Y640588D01*
X445462D01*
Y638556D01*
X443430D01*
X462135Y637540D02*
Y641604D01*
X466199D01*
Y637540D01*
X462135D01*
X463151Y638556D02*
Y640588D01*
X465183D01*
Y638556D01*
X463151D01*
X481856Y637540D02*
Y641604D01*
X485920D01*
Y637540D01*
X481856D01*
X482872Y638556D02*
Y640588D01*
X484904D01*
Y638556D01*
X482872D01*
X501577Y637540D02*
Y641604D01*
X505642D01*
Y637540D01*
X501577D01*
X502593Y638556D02*
Y640588D01*
X504626D01*
Y638556D01*
X502593D01*
X521299Y637540D02*
Y641604D01*
X525363D01*
Y637540D01*
X521299D01*
X522315Y638556D02*
Y640588D01*
X524347D01*
Y638556D01*
X522315D01*
X521302Y416373D02*
Y420437D01*
X525366D01*
Y416373D01*
X521302D01*
X522318Y417389D02*
Y419421D01*
X524350D01*
Y417389D01*
X522318D01*
X521208Y431800D02*
Y435864D01*
X525272D01*
Y431800D01*
X521208D01*
X522224Y432816D02*
Y434848D01*
X524256D01*
Y432816D01*
X522224D01*
X520954Y447369D02*
Y451433D01*
X525018D01*
Y447369D01*
X520954D01*
X521970Y448385D02*
Y450417D01*
X524002D01*
Y448385D01*
X521970D01*
X695490Y242100D02*
Y246164D01*
X699554D01*
Y242100D01*
X695490D01*
X696506Y243116D02*
Y245148D01*
X698538D01*
Y243116D01*
X696506D01*
X174498Y170688D02*
Y174752D01*
X178562D01*
Y170688D01*
X174498D01*
X175514Y171704D02*
Y173736D01*
X177546D01*
Y171704D01*
X175514D01*
X308864Y184658D02*
Y188722D01*
X312928D01*
Y184658D01*
X308864D01*
X309880Y185674D02*
Y187706D01*
X311912D01*
Y185674D01*
X309880D01*
X84498Y181610D02*
Y185674D01*
X88562D01*
Y181610D01*
X84498D01*
X85514Y182626D02*
Y184658D01*
X87546D01*
Y182626D01*
X85514D01*
X285750Y187706D02*
Y191770D01*
X289814D01*
Y187706D01*
X285750D01*
X286766Y188722D02*
Y190754D01*
X288798D01*
Y188722D01*
X286766D01*
X150368Y150368D02*
Y154432D01*
X154432D01*
Y150368D01*
X150368D01*
X151384Y151384D02*
Y153416D01*
X153416D01*
Y151384D01*
X151384D01*
X201168Y251968D02*
Y256032D01*
X205232D01*
Y251968D01*
X201168D01*
X202184Y252984D02*
Y255016D01*
X204216D01*
Y252984D01*
X202184D01*
X48768Y251968D02*
Y256032D01*
X52832D01*
Y251968D01*
X48768D01*
X49784Y252984D02*
Y255016D01*
X51816D01*
Y252984D01*
X49784D01*
X937768Y505968D02*
Y510032D01*
X941832D01*
Y505968D01*
X937768D01*
X938784Y506984D02*
Y509016D01*
X940816D01*
Y506984D01*
X938784D01*
X937768Y404368D02*
Y408432D01*
X941832D01*
Y404368D01*
X937768D01*
X938784Y405384D02*
Y407416D01*
X940816D01*
Y405384D01*
X938784D01*
X937768Y302768D02*
Y306832D01*
X941832D01*
Y302768D01*
X937768D01*
X938784Y303784D02*
Y305816D01*
X940816D01*
Y303784D01*
X938784D01*
X937768Y201168D02*
Y205232D01*
X941832D01*
Y201168D01*
X937768D01*
X938784Y202184D02*
Y204216D01*
X940816D01*
Y202184D01*
X938784D01*
X912368Y150368D02*
Y154432D01*
X916432D01*
Y150368D01*
X912368D01*
X913384Y151384D02*
Y153416D01*
X915416D01*
Y151384D01*
X913384D01*
X886968Y505968D02*
Y510032D01*
X891032D01*
Y505968D01*
X886968D01*
X887984Y506984D02*
Y509016D01*
X890016D01*
Y506984D01*
X887984D01*
X861568Y251968D02*
Y256032D01*
X865632D01*
Y251968D01*
X861568D01*
X862584Y252984D02*
Y255016D01*
X864616D01*
Y252984D01*
X862584D01*
X886968Y201168D02*
Y205232D01*
X891032D01*
Y201168D01*
X886968D01*
X887984Y202184D02*
Y204216D01*
X890016D01*
Y202184D01*
X887984D01*
X861568Y150368D02*
Y154432D01*
X865632D01*
Y150368D01*
X861568D01*
X862584Y151384D02*
Y153416D01*
X864616D01*
Y151384D01*
X862584D01*
X836168Y607568D02*
Y611632D01*
X840232D01*
Y607568D01*
X836168D01*
X837184Y608584D02*
Y610616D01*
X839216D01*
Y608584D01*
X837184D01*
X810768Y556768D02*
Y560832D01*
X814832D01*
Y556768D01*
X810768D01*
X811784Y557784D02*
Y559816D01*
X813816D01*
Y557784D01*
X811784D01*
X836168Y404368D02*
Y408432D01*
X840232D01*
Y404368D01*
X836168D01*
X837184Y405384D02*
Y407416D01*
X839216D01*
Y405384D01*
X837184D01*
X810768Y353568D02*
Y357632D01*
X814832D01*
Y353568D01*
X810768D01*
X811784Y354584D02*
Y356616D01*
X813816D01*
Y354584D01*
X811784D01*
X836168Y302768D02*
Y306832D01*
X840232D01*
Y302768D01*
X836168D01*
X837184Y303784D02*
Y305816D01*
X839216D01*
Y303784D01*
X837184D01*
X836168Y99568D02*
Y103632D01*
X840232D01*
Y99568D01*
X836168D01*
X837184Y100584D02*
Y102616D01*
X839216D01*
Y100584D01*
X837184D01*
X785368Y607568D02*
Y611632D01*
X789432D01*
Y607568D01*
X785368D01*
X786384Y608584D02*
Y610616D01*
X788416D01*
Y608584D01*
X786384D01*
X785368Y505968D02*
Y510032D01*
X789432D01*
Y505968D01*
X785368D01*
X786384Y506984D02*
Y509016D01*
X788416D01*
Y506984D01*
X786384D01*
X759968Y455168D02*
Y459232D01*
X764032D01*
Y455168D01*
X759968D01*
X760984Y456184D02*
Y458216D01*
X763016D01*
Y456184D01*
X760984D01*
X759968Y353568D02*
Y357632D01*
X764032D01*
Y353568D01*
X759968D01*
X760984Y354584D02*
Y356616D01*
X763016D01*
Y354584D01*
X760984D01*
X785368Y302768D02*
Y306832D01*
X789432D01*
Y302768D01*
X785368D01*
X786384Y303784D02*
Y305816D01*
X788416D01*
Y303784D01*
X786384D01*
X759968Y251968D02*
Y256032D01*
X764032D01*
Y251968D01*
X759968D01*
X760984Y252984D02*
Y255016D01*
X763016D01*
Y252984D01*
X760984D01*
X785368Y201168D02*
Y205232D01*
X789432D01*
Y201168D01*
X785368D01*
X786384Y202184D02*
Y204216D01*
X788416D01*
Y202184D01*
X786384D01*
X759968Y150368D02*
Y154432D01*
X764032D01*
Y150368D01*
X759968D01*
X760984Y151384D02*
Y153416D01*
X763016D01*
Y151384D01*
X760984D01*
X785368Y99568D02*
Y103632D01*
X789432D01*
Y99568D01*
X785368D01*
X786384Y100584D02*
Y102616D01*
X788416D01*
Y100584D01*
X786384D01*
X759968Y48768D02*
Y52832D01*
X764032D01*
Y48768D01*
X759968D01*
X760984Y49784D02*
Y51816D01*
X763016D01*
Y49784D01*
X760984D01*
X734568Y607568D02*
Y611632D01*
X738632D01*
Y607568D01*
X734568D01*
X735584Y608584D02*
Y610616D01*
X737616D01*
Y608584D01*
X735584D01*
X709168Y251968D02*
Y256032D01*
X713232D01*
Y251968D01*
X709168D01*
X710184Y252984D02*
Y255016D01*
X712216D01*
Y252984D01*
X710184D01*
X734568Y201168D02*
Y205232D01*
X738632D01*
Y201168D01*
X734568D01*
X735584Y202184D02*
Y204216D01*
X737616D01*
Y202184D01*
X735584D01*
X734568Y99568D02*
Y103632D01*
X738632D01*
Y99568D01*
X734568D01*
X735584Y100584D02*
Y102616D01*
X737616D01*
Y100584D01*
X735584D01*
X709168Y48768D02*
Y52832D01*
X713232D01*
Y48768D01*
X709168D01*
X710184Y49784D02*
Y51816D01*
X712216D01*
Y49784D01*
X710184D01*
X683768Y505968D02*
Y510032D01*
X687832D01*
Y505968D01*
X683768D01*
X684784Y506984D02*
Y509016D01*
X686816D01*
Y506984D01*
X684784D01*
X658368Y455168D02*
Y459232D01*
X662432D01*
Y455168D01*
X658368D01*
X659384Y456184D02*
Y458216D01*
X661416D01*
Y456184D01*
X659384D01*
X683768Y404368D02*
Y408432D01*
X687832D01*
Y404368D01*
X683768D01*
X684784Y405384D02*
Y407416D01*
X686816D01*
Y405384D01*
X684784D01*
X658368Y353568D02*
Y357632D01*
X662432D01*
Y353568D01*
X658368D01*
X659384Y354584D02*
Y356616D01*
X661416D01*
Y354584D01*
X659384D01*
X658368Y251968D02*
Y256032D01*
X662432D01*
Y251968D01*
X658368D01*
X659384Y252984D02*
Y255016D01*
X661416D01*
Y252984D01*
X659384D01*
X658368Y150368D02*
Y154432D01*
X662432D01*
Y150368D01*
X658368D01*
X659384Y151384D02*
Y153416D01*
X661416D01*
Y151384D01*
X659384D01*
X683768Y99568D02*
Y103632D01*
X687832D01*
Y99568D01*
X683768D01*
X684784Y100584D02*
Y102616D01*
X686816D01*
Y100584D01*
X684784D01*
X607568Y455168D02*
Y459232D01*
X611632D01*
Y455168D01*
X607568D01*
X608584Y456184D02*
Y458216D01*
X610616D01*
Y456184D01*
X608584D01*
X632968Y404368D02*
Y408432D01*
X637032D01*
Y404368D01*
X632968D01*
X633984Y405384D02*
Y407416D01*
X636016D01*
Y405384D01*
X633984D01*
X607568Y353568D02*
Y357632D01*
X611632D01*
Y353568D01*
X607568D01*
X608584Y354584D02*
Y356616D01*
X610616D01*
Y354584D01*
X608584D01*
X607568Y251968D02*
Y256032D01*
X611632D01*
Y251968D01*
X607568D01*
X608584Y252984D02*
Y255016D01*
X610616D01*
Y252984D01*
X608584D01*
X607568Y150368D02*
Y154432D01*
X611632D01*
Y150368D01*
X607568D01*
X608584Y151384D02*
Y153416D01*
X610616D01*
Y151384D01*
X608584D01*
X632968Y99568D02*
Y103632D01*
X637032D01*
Y99568D01*
X632968D01*
X633984Y100584D02*
Y102616D01*
X636016D01*
Y100584D01*
X633984D01*
X607568Y48768D02*
Y52832D01*
X611632D01*
Y48768D01*
X607568D01*
X608584Y49784D02*
Y51816D01*
X610616D01*
Y49784D01*
X608584D01*
X556768Y455168D02*
Y459232D01*
X560832D01*
Y455168D01*
X556768D01*
X557784Y456184D02*
Y458216D01*
X559816D01*
Y456184D01*
X557784D01*
X582168Y404368D02*
Y408432D01*
X586232D01*
Y404368D01*
X582168D01*
X583184Y405384D02*
Y407416D01*
X585216D01*
Y405384D01*
X583184D01*
X582168Y302768D02*
Y306832D01*
X586232D01*
Y302768D01*
X582168D01*
X583184Y303784D02*
Y305816D01*
X585216D01*
Y303784D01*
X583184D01*
X556768Y150368D02*
Y154432D01*
X560832D01*
Y150368D01*
X556768D01*
X557784Y151384D02*
Y153416D01*
X559816D01*
Y151384D01*
X557784D01*
X582168Y99568D02*
Y103632D01*
X586232D01*
Y99568D01*
X582168D01*
X583184Y100584D02*
Y102616D01*
X585216D01*
Y100584D01*
X583184D01*
X505968Y455168D02*
Y459232D01*
X510032D01*
Y455168D01*
X505968D01*
X506984Y456184D02*
Y458216D01*
X509016D01*
Y456184D01*
X506984D01*
X531368Y302768D02*
Y306832D01*
X535432D01*
Y302768D01*
X531368D01*
X532384Y303784D02*
Y305816D01*
X534416D01*
Y303784D01*
X532384D01*
X505968Y251968D02*
Y256032D01*
X510032D01*
Y251968D01*
X505968D01*
X506984Y252984D02*
Y255016D01*
X509016D01*
Y252984D01*
X506984D01*
X531368Y201168D02*
Y205232D01*
X535432D01*
Y201168D01*
X531368D01*
X532384Y202184D02*
Y204216D01*
X534416D01*
Y202184D01*
X532384D01*
X505968Y150368D02*
Y154432D01*
X510032D01*
Y150368D01*
X505968D01*
X506984Y151384D02*
Y153416D01*
X509016D01*
Y151384D01*
X506984D01*
X455168Y353568D02*
Y357632D01*
X459232D01*
Y353568D01*
X455168D01*
X456184Y354584D02*
Y356616D01*
X458216D01*
Y354584D01*
X456184D01*
X455168Y251968D02*
Y256032D01*
X459232D01*
Y251968D01*
X455168D01*
X456184Y252984D02*
Y255016D01*
X458216D01*
Y252984D01*
X456184D01*
X455168Y150368D02*
Y154432D01*
X459232D01*
Y150368D01*
X455168D01*
X456184Y151384D02*
Y153416D01*
X458216D01*
Y151384D01*
X456184D01*
X480568Y99568D02*
Y103632D01*
X484632D01*
Y99568D01*
X480568D01*
X481584Y100584D02*
Y102616D01*
X483616D01*
Y100584D01*
X481584D01*
X404368Y353568D02*
Y357632D01*
X408432D01*
Y353568D01*
X404368D01*
X405384Y354584D02*
Y356616D01*
X407416D01*
Y354584D01*
X405384D01*
X404368Y251968D02*
Y256032D01*
X408432D01*
Y251968D01*
X404368D01*
X405384Y252984D02*
Y255016D01*
X407416D01*
Y252984D01*
X405384D01*
X404368Y150368D02*
Y154432D01*
X408432D01*
Y150368D01*
X404368D01*
X405384Y151384D02*
Y153416D01*
X407416D01*
Y151384D01*
X405384D01*
X353568Y353568D02*
Y357632D01*
X357632D01*
Y353568D01*
X353568D01*
X354584Y354584D02*
Y356616D01*
X356616D01*
Y354584D01*
X354584D01*
X353568Y251968D02*
Y256032D01*
X357632D01*
Y251968D01*
X353568D01*
X354584Y252984D02*
Y255016D01*
X356616D01*
Y252984D01*
X354584D01*
X378968Y201168D02*
Y205232D01*
X383032D01*
Y201168D01*
X378968D01*
X379984Y202184D02*
Y204216D01*
X382016D01*
Y202184D01*
X379984D01*
X353568Y150368D02*
Y154432D01*
X357632D01*
Y150368D01*
X353568D01*
X354584Y151384D02*
Y153416D01*
X356616D01*
Y151384D01*
X354584D01*
X378968Y99568D02*
Y103632D01*
X383032D01*
Y99568D01*
X378968D01*
X379984Y100584D02*
Y102616D01*
X382016D01*
Y100584D01*
X379984D01*
X353568Y48768D02*
Y52832D01*
X357632D01*
Y48768D01*
X353568D01*
X354584Y49784D02*
Y51816D01*
X356616D01*
Y49784D01*
X354584D01*
X328168Y505968D02*
Y510032D01*
X332232D01*
Y505968D01*
X328168D01*
X329184Y506984D02*
Y509016D01*
X331216D01*
Y506984D01*
X329184D01*
X302768Y455168D02*
Y459232D01*
X306832D01*
Y455168D01*
X302768D01*
X303784Y456184D02*
Y458216D01*
X305816D01*
Y456184D01*
X303784D01*
X302768Y353568D02*
Y357632D01*
X306832D01*
Y353568D01*
X302768D01*
X303784Y354584D02*
Y356616D01*
X305816D01*
Y354584D01*
X303784D01*
X328168Y302768D02*
Y306832D01*
X332232D01*
Y302768D01*
X328168D01*
X329184Y303784D02*
Y305816D01*
X331216D01*
Y303784D01*
X329184D01*
X302768Y251968D02*
Y256032D01*
X306832D01*
Y251968D01*
X302768D01*
X303784Y252984D02*
Y255016D01*
X305816D01*
Y252984D01*
X303784D01*
X302768Y150368D02*
Y154432D01*
X306832D01*
Y150368D01*
X302768D01*
X303784Y151384D02*
Y153416D01*
X305816D01*
Y151384D01*
X303784D01*
X328168Y99568D02*
Y103632D01*
X332232D01*
Y99568D01*
X328168D01*
X329184Y100584D02*
Y102616D01*
X331216D01*
Y100584D01*
X329184D01*
X302768Y48768D02*
Y52832D01*
X306832D01*
Y48768D01*
X302768D01*
X303784Y49784D02*
Y51816D01*
X305816D01*
Y49784D01*
X303784D01*
X277368Y505968D02*
Y510032D01*
X281432D01*
Y505968D01*
X277368D01*
X278384Y506984D02*
Y509016D01*
X280416D01*
Y506984D01*
X278384D01*
X277368Y404368D02*
Y408432D01*
X281432D01*
Y404368D01*
X277368D01*
X278384Y405384D02*
Y407416D01*
X280416D01*
Y405384D01*
X278384D01*
X251968Y150368D02*
Y154432D01*
X256032D01*
Y150368D01*
X251968D01*
X252984Y151384D02*
Y153416D01*
X255016D01*
Y151384D01*
X252984D01*
X277368Y99568D02*
Y103632D01*
X281432D01*
Y99568D01*
X277368D01*
X278384Y100584D02*
Y102616D01*
X280416D01*
Y100584D01*
X278384D01*
X251968Y48768D02*
Y52832D01*
X256032D01*
Y48768D01*
X251968D01*
X252984Y49784D02*
Y51816D01*
X255016D01*
Y49784D01*
X252984D01*
X201168Y556768D02*
Y560832D01*
X205232D01*
Y556768D01*
X201168D01*
X202184Y557784D02*
Y559816D01*
X204216D01*
Y557784D01*
X202184D01*
X226568Y505968D02*
Y510032D01*
X230632D01*
Y505968D01*
X226568D01*
X227584Y506984D02*
Y509016D01*
X229616D01*
Y506984D01*
X227584D01*
X201168Y455168D02*
Y459232D01*
X205232D01*
Y455168D01*
X201168D01*
X202184Y456184D02*
Y458216D01*
X204216D01*
Y456184D01*
X202184D01*
X226568Y404368D02*
Y408432D01*
X230632D01*
Y404368D01*
X226568D01*
X227584Y405384D02*
Y407416D01*
X229616D01*
Y405384D01*
X227584D01*
X201168Y353568D02*
Y357632D01*
X205232D01*
Y353568D01*
X201168D01*
X202184Y354584D02*
Y356616D01*
X204216D01*
Y354584D01*
X202184D01*
X226568Y302768D02*
Y306832D01*
X230632D01*
Y302768D01*
X226568D01*
X227584Y303784D02*
Y305816D01*
X229616D01*
Y303784D01*
X227584D01*
X226568Y99568D02*
Y103632D01*
X230632D01*
Y99568D01*
X226568D01*
X227584Y100584D02*
Y102616D01*
X229616D01*
Y100584D01*
X227584D01*
X201168Y48768D02*
Y52832D01*
X205232D01*
Y48768D01*
X201168D01*
X202184Y49784D02*
Y51816D01*
X204216D01*
Y49784D01*
X202184D01*
X150368Y556768D02*
Y560832D01*
X154432D01*
Y556768D01*
X150368D01*
X151384Y557784D02*
Y559816D01*
X153416D01*
Y557784D01*
X151384D01*
X175768Y505968D02*
Y510032D01*
X179832D01*
Y505968D01*
X175768D01*
X176784Y506984D02*
Y509016D01*
X178816D01*
Y506984D01*
X176784D01*
X150368Y455168D02*
Y459232D01*
X154432D01*
Y455168D01*
X150368D01*
X151384Y456184D02*
Y458216D01*
X153416D01*
Y456184D01*
X151384D01*
X175768Y404368D02*
Y408432D01*
X179832D01*
Y404368D01*
X175768D01*
X176784Y405384D02*
Y407416D01*
X178816D01*
Y405384D01*
X176784D01*
X150368Y353568D02*
Y357632D01*
X154432D01*
Y353568D01*
X150368D01*
X151384Y354584D02*
Y356616D01*
X153416D01*
Y354584D01*
X151384D01*
X175768Y302768D02*
Y306832D01*
X179832D01*
Y302768D01*
X175768D01*
X176784Y303784D02*
Y305816D01*
X178816D01*
Y303784D01*
X176784D01*
X175768Y201168D02*
Y205232D01*
X179832D01*
Y201168D01*
X175768D01*
X176784Y202184D02*
Y204216D01*
X178816D01*
Y202184D01*
X176784D01*
X175768Y99568D02*
Y103632D01*
X179832D01*
Y99568D01*
X175768D01*
X176784Y100584D02*
Y102616D01*
X178816D01*
Y100584D01*
X176784D01*
X124968Y505968D02*
Y510032D01*
X129032D01*
Y505968D01*
X124968D01*
X125984Y506984D02*
Y509016D01*
X128016D01*
Y506984D01*
X125984D01*
X99568Y455168D02*
Y459232D01*
X103632D01*
Y455168D01*
X99568D01*
X100584Y456184D02*
Y458216D01*
X102616D01*
Y456184D01*
X100584D01*
X124968Y404368D02*
Y408432D01*
X129032D01*
Y404368D01*
X124968D01*
X125984Y405384D02*
Y407416D01*
X128016D01*
Y405384D01*
X125984D01*
X124968Y201168D02*
Y205232D01*
X129032D01*
Y201168D01*
X124968D01*
X125984Y202184D02*
Y204216D01*
X128016D01*
Y202184D01*
X125984D01*
X99568Y150368D02*
Y154432D01*
X103632D01*
Y150368D01*
X99568D01*
X100584Y151384D02*
Y153416D01*
X102616D01*
Y151384D01*
X100584D01*
X124968Y99568D02*
Y103632D01*
X129032D01*
Y99568D01*
X124968D01*
X125984Y100584D02*
Y102616D01*
X128016D01*
Y100584D01*
X125984D01*
X74168Y505968D02*
Y510032D01*
X78232D01*
Y505968D01*
X74168D01*
X75184Y506984D02*
Y509016D01*
X77216D01*
Y506984D01*
X75184D01*
X48768Y455168D02*
Y459232D01*
X52832D01*
Y455168D01*
X48768D01*
X49784Y456184D02*
Y458216D01*
X51816D01*
Y456184D01*
X49784D01*
X74168Y404368D02*
Y408432D01*
X78232D01*
Y404368D01*
X74168D01*
X75184Y405384D02*
Y407416D01*
X77216D01*
Y405384D01*
X75184D01*
X74168Y302768D02*
Y306832D01*
X78232D01*
Y302768D01*
X74168D01*
X75184Y303784D02*
Y305816D01*
X77216D01*
Y303784D01*
X75184D01*
X48768Y150368D02*
Y154432D01*
X52832D01*
Y150368D01*
X48768D01*
X49784Y151384D02*
Y153416D01*
X51816D01*
Y151384D01*
X49784D01*
X296962Y283174D02*
Y287238D01*
X301026D01*
Y283174D01*
X296962D01*
X297978Y284190D02*
Y286222D01*
X300010D01*
Y284190D01*
X297978D01*
X156210Y260858D02*
Y264922D01*
X160274D01*
Y260858D01*
X156210D01*
X157226Y261874D02*
Y263906D01*
X159258D01*
Y261874D01*
X157226D01*
X308610Y200406D02*
Y204470D01*
X312674D01*
Y200406D01*
X308610D01*
X309626Y201422D02*
Y203454D01*
X311658D01*
Y201422D01*
X309626D01*
X225552Y183388D02*
Y187452D01*
X229616D01*
Y183388D01*
X225552D01*
X226568Y184404D02*
Y186436D01*
X228600D01*
Y184404D01*
X226568D01*
X225806Y196342D02*
Y200406D01*
X229870D01*
Y196342D01*
X225806D01*
X226822Y197358D02*
Y199390D01*
X228854D01*
Y197358D01*
X226822D01*
X150114Y376682D02*
Y380746D01*
X154178D01*
Y376682D01*
X150114D01*
X151130Y377698D02*
Y379730D01*
X153162D01*
Y377698D01*
X151130D01*
X176784Y366110D02*
Y370174D01*
X180848D01*
Y366110D01*
X176784D01*
X177800Y367126D02*
Y369158D01*
X179832D01*
Y367126D01*
X177800D01*
X353738Y280162D02*
Y284226D01*
X357802D01*
Y280162D01*
X353738D01*
X354754Y281178D02*
Y283210D01*
X356786D01*
Y281178D01*
X354754D01*
X405130Y320802D02*
Y324866D01*
X409194D01*
Y320802D01*
X405130D01*
X406146Y321818D02*
Y323850D01*
X408178D01*
Y321818D01*
X406146D01*
X333208Y297902D02*
Y301966D01*
X337272D01*
Y297902D01*
X333208D01*
X334224Y298918D02*
Y300950D01*
X336256D01*
Y298918D01*
X334224D01*
X343408Y382908D02*
Y386972D01*
X347472D01*
Y382908D01*
X343408D01*
X344424Y383924D02*
Y385956D01*
X346456D01*
Y383924D01*
X344424D01*
X367480Y422998D02*
Y427062D01*
X371544D01*
Y422998D01*
X367480D01*
X368496Y424014D02*
Y426046D01*
X370528D01*
Y424014D01*
X368496D01*
X379476Y405638D02*
Y409702D01*
X383540D01*
Y405638D01*
X379476D01*
X380492Y406654D02*
Y408686D01*
X382524D01*
Y406654D01*
X380492D01*
X352044Y380746D02*
Y384810D01*
X356108D01*
Y380746D01*
X352044D01*
X353060Y381762D02*
Y383794D01*
X355092D01*
Y381762D01*
X353060D01*
X379476Y422148D02*
Y426212D01*
X383540D01*
Y422148D01*
X379476D01*
X380492Y423164D02*
Y425196D01*
X382524D01*
Y423164D01*
X380492D01*
X376089Y429859D02*
Y433923D01*
X380153D01*
Y429859D01*
X376089D01*
X377105Y430875D02*
Y432907D01*
X379137D01*
Y430875D01*
X377105D01*
X333756Y335026D02*
Y339090D01*
X337820D01*
Y335026D01*
X333756D01*
X334772Y336042D02*
Y338074D01*
X336804D01*
Y336042D01*
X334772D01*
X454914Y403860D02*
Y407924D01*
X458978D01*
Y403860D01*
X454914D01*
X455930Y404876D02*
Y406908D01*
X457962D01*
Y404876D01*
X455930D01*
X470154Y290322D02*
Y294386D01*
X474218D01*
Y290322D01*
X470154D01*
X471170Y291338D02*
Y293370D01*
X473202D01*
Y291338D01*
X471170D01*
X486664Y403352D02*
Y407416D01*
X490728D01*
Y403352D01*
X486664D01*
X487680Y404368D02*
Y406400D01*
X489712D01*
Y404368D01*
X487680D01*
X508762Y331470D02*
Y335534D01*
X512826D01*
Y331470D01*
X508762D01*
X509778Y332486D02*
Y334518D01*
X511810D01*
Y332486D01*
X509778D01*
X522478Y269494D02*
Y273558D01*
X526542D01*
Y269494D01*
X522478D01*
X523494Y270510D02*
Y272542D01*
X525526D01*
Y270510D01*
X523494D01*
X536194Y281686D02*
Y285750D01*
X540258D01*
Y281686D01*
X536194D01*
X537210Y282702D02*
Y284734D01*
X539242D01*
Y282702D01*
X537210D01*
X540474Y331513D02*
Y335577D01*
X544538D01*
Y331513D01*
X540474D01*
X541490Y332529D02*
Y334561D01*
X543522D01*
Y332529D01*
X541490D01*
X472440Y118872D02*
Y122936D01*
X476504D01*
Y118872D01*
X472440D01*
X473456Y119888D02*
Y121920D01*
X475488D01*
Y119888D01*
X473456D01*
X167894Y428244D02*
Y432308D01*
X171958D01*
Y428244D01*
X167894D01*
X168910Y429260D02*
Y431292D01*
X170942D01*
Y429260D01*
X168910D01*
X174498Y177546D02*
Y181610D01*
X178562D01*
Y177546D01*
X174498D01*
X175514Y178562D02*
Y180594D01*
X177546D01*
Y178562D01*
X175514D01*
X83312Y316992D02*
Y321056D01*
X87376D01*
Y316992D01*
X83312D01*
X84328Y318008D02*
Y320040D01*
X86360D01*
Y318008D01*
X84328D01*
X83312Y323596D02*
Y327660D01*
X87376D01*
Y323596D01*
X83312D01*
X84328Y324612D02*
Y326644D01*
X86360D01*
Y324612D01*
X84328D01*
X850138Y357632D02*
Y361696D01*
X854202D01*
Y357632D01*
X850138D01*
X851154Y358648D02*
Y360680D01*
X853186D01*
Y358648D01*
X851154D01*
X589280Y59182D02*
Y63246D01*
X593344D01*
Y59182D01*
X589280D01*
X590296Y60198D02*
Y62230D01*
X592328D01*
Y60198D01*
X590296D01*
X563626Y72390D02*
Y76454D01*
X567690D01*
Y72390D01*
X563626D01*
X564642Y73406D02*
Y75438D01*
X566674D01*
Y73406D01*
X564642D01*
X785368Y209042D02*
Y213106D01*
X789432D01*
Y209042D01*
X785368D01*
X786384Y210058D02*
Y212090D01*
X788416D01*
Y210058D01*
X786384D01*
X362458Y330200D02*
Y334264D01*
X366522D01*
Y330200D01*
X362458D01*
X363474Y331216D02*
Y333248D01*
X365506D01*
Y331216D01*
X363474D01*
X955802Y233680D02*
Y237744D01*
X959866D01*
Y233680D01*
X955802D01*
X956818Y234696D02*
Y236728D01*
X958850D01*
Y234696D01*
X956818D01*
X805180Y149606D02*
Y153670D01*
X809244D01*
Y149606D01*
X805180D01*
X806196Y150622D02*
Y152654D01*
X808228D01*
Y150622D01*
X806196D01*
X783336Y248158D02*
Y252222D01*
X787400D01*
Y248158D01*
X783336D01*
X784352Y249174D02*
Y251206D01*
X786384D01*
Y249174D01*
X784352D01*
X326390Y151892D02*
Y155956D01*
X330454D01*
Y151892D01*
X326390D01*
X327406Y152908D02*
Y154940D01*
X329438D01*
Y152908D01*
X327406D01*
X276098Y152146D02*
Y156210D01*
X280162D01*
Y152146D01*
X276098D01*
X277114Y153162D02*
Y155194D01*
X279146D01*
Y153162D01*
X277114D01*
X379476Y397602D02*
Y401665D01*
X383540D01*
Y397602D01*
X379476D01*
X380492Y398618D02*
Y400649D01*
X382524D01*
Y398618D01*
X380492D01*
X453644Y441706D02*
Y445770D01*
X457708D01*
Y441706D01*
X453644D01*
X454660Y442722D02*
Y444754D01*
X456692D01*
Y442722D01*
X454660D01*
X403860Y441706D02*
Y445770D01*
X407924D01*
Y441706D01*
X403860D01*
X404876Y442722D02*
Y444754D01*
X406908D01*
Y442722D01*
X404876D01*
X742969Y609782D02*
Y613846D01*
X747033D01*
Y609782D01*
X742969D01*
X743985Y610798D02*
Y612830D01*
X746017D01*
Y610798D01*
X743985D01*
X743155Y603181D02*
Y607245D01*
X747219D01*
Y603181D01*
X743155D01*
X744171Y604197D02*
Y606229D01*
X746203D01*
Y604197D01*
X744171D01*
X745767Y597116D02*
Y601180D01*
X749831D01*
Y597116D01*
X745767D01*
X746783Y598131D02*
Y600163D01*
X748815D01*
Y598131D01*
X746783D01*
X745767Y590512D02*
Y594576D01*
X749831D01*
Y590512D01*
X745767D01*
X746783Y591527D02*
Y593559D01*
X748815D01*
Y591527D01*
X746783D01*
X745767Y583908D02*
Y587971D01*
X749831D01*
Y583908D01*
X745767D01*
X746783Y584924D02*
Y586955D01*
X748815D01*
Y584924D01*
X746783D01*
X745767Y577304D02*
Y581367D01*
X749831D01*
Y577304D01*
X745767D01*
X746783Y578320D02*
Y580351D01*
X748815D01*
Y578320D01*
X746783D01*
X743701Y571031D02*
Y575095D01*
X747765D01*
Y571031D01*
X743701D01*
X744717Y572047D02*
Y574079D01*
X746749D01*
Y572047D01*
X744717D01*
X739032Y566361D02*
Y570425D01*
X743095D01*
Y566361D01*
X739032D01*
X740048Y567377D02*
Y569409D01*
X742079D01*
Y567377D01*
X740048D01*
X734362Y561692D02*
Y565756D01*
X738426D01*
Y561692D01*
X734362D01*
X735378Y562708D02*
Y564740D01*
X737410D01*
Y562708D01*
X735378D01*
X729692Y557022D02*
Y561086D01*
X733756D01*
Y557022D01*
X729692D01*
X730708Y558038D02*
Y560070D01*
X732740D01*
Y558038D01*
X730708D01*
X719004Y549633D02*
Y553697D01*
X723068D01*
Y549633D01*
X719004D01*
X720020Y550649D02*
Y552681D01*
X722052D01*
Y550649D01*
X720020D01*
X712400Y549633D02*
Y553697D01*
X716464D01*
Y549633D01*
X712400D01*
X713416Y550649D02*
Y552681D01*
X715448D01*
Y550649D01*
X713416D01*
X705796Y549633D02*
Y553697D01*
X709860D01*
Y549633D01*
X705796D01*
X706812Y550649D02*
Y552681D01*
X708844D01*
Y550649D01*
X706812D01*
X699192Y549633D02*
Y553697D01*
X703256D01*
Y549633D01*
X699192D01*
X700208Y550649D02*
Y552681D01*
X702240D01*
Y550649D01*
X700208D01*
X692588Y549633D02*
Y553697D01*
X696652D01*
Y549633D01*
X692588D01*
X693604Y550649D02*
Y552681D01*
X695636D01*
Y550649D01*
X693604D01*
X685984Y549633D02*
Y553697D01*
X690048D01*
Y549633D01*
X685984D01*
X687000Y550649D02*
Y552681D01*
X689032D01*
Y550649D01*
X687000D01*
X679380Y549633D02*
Y553697D01*
X683444D01*
Y549633D01*
X679380D01*
X680396Y550649D02*
Y552681D01*
X682428D01*
Y550649D01*
X680396D01*
X672776Y549633D02*
Y553697D01*
X676840D01*
Y549633D01*
X672776D01*
X673792Y550649D02*
Y552681D01*
X675824D01*
Y550649D01*
X673792D01*
X666173Y549524D02*
Y553588D01*
X670237D01*
Y549524D01*
X666173D01*
X667189Y550541D02*
Y552573D01*
X669221D01*
Y550541D01*
X667189D01*
X660236Y546632D02*
Y550696D01*
X664300D01*
Y546632D01*
X660236D01*
X661252Y547648D02*
Y549680D01*
X663284D01*
Y547648D01*
X661252D01*
X655566Y541962D02*
Y546026D01*
X659631D01*
Y541962D01*
X655566D01*
X656582Y542978D02*
Y545010D01*
X658615D01*
Y542978D01*
X656582D01*
X650897Y537293D02*
Y541357D01*
X654961D01*
Y537293D01*
X650897D01*
X651913Y538309D02*
Y540341D01*
X653945D01*
Y538309D01*
X651913D01*
X646227Y532623D02*
Y536687D01*
X650291D01*
Y532623D01*
X646227D01*
X647243Y533639D02*
Y535671D01*
X649275D01*
Y533639D01*
X647243D01*
X641557Y527953D02*
Y532017D01*
X645621D01*
Y527953D01*
X641557D01*
X642573Y528969D02*
Y531001D01*
X644605D01*
Y528969D01*
X642573D01*
X636888Y523284D02*
Y527347D01*
X640952D01*
Y523284D01*
X636888D01*
X637904Y524300D02*
Y526331D01*
X639935D01*
Y524300D01*
X637904D01*
X632218Y518614D02*
Y522678D01*
X636282D01*
Y518614D01*
X632218D01*
X633234Y519630D02*
Y521662D01*
X635266D01*
Y519630D01*
X633234D01*
X626772Y514878D02*
Y518942D01*
X630836D01*
Y514878D01*
X626772D01*
X627788Y515894D02*
Y517926D01*
X629820D01*
Y515894D01*
X627788D01*
X620168Y514878D02*
Y518942D01*
X624232D01*
Y514878D01*
X620168D01*
X621184Y515894D02*
Y517926D01*
X623216D01*
Y515894D01*
X621184D01*
X613564Y514878D02*
Y518942D01*
X617628D01*
Y514878D01*
X613564D01*
X614580Y515894D02*
Y517926D01*
X616612D01*
Y515894D01*
X614580D01*
X606960Y514878D02*
Y518942D01*
X611024D01*
Y514878D01*
X606960D01*
X607976Y515894D02*
Y517926D01*
X610008D01*
Y515894D01*
X607976D01*
X600356Y514878D02*
Y518942D01*
X604420D01*
Y514878D01*
X600356D01*
X601372Y515894D02*
Y517926D01*
X603404D01*
Y515894D01*
X601372D01*
X593752Y514878D02*
Y518942D01*
X597816D01*
Y514878D01*
X593752D01*
X594768Y515894D02*
Y517926D01*
X596800D01*
Y515894D01*
X594768D01*
X587148Y514878D02*
Y518942D01*
X591212D01*
Y514878D01*
X587148D01*
X588164Y515894D02*
Y517926D01*
X590196D01*
Y515894D01*
X588164D01*
X580544Y514878D02*
Y518942D01*
X584608D01*
Y514878D01*
X580544D01*
X581560Y515894D02*
Y517926D01*
X583592D01*
Y515894D01*
X581560D01*
X573940Y514878D02*
Y518942D01*
X578004D01*
Y514878D01*
X573940D01*
X574956Y515894D02*
Y517926D01*
X576988D01*
Y515894D01*
X574956D01*
X567336Y514878D02*
Y518942D01*
X571400D01*
Y514878D01*
X567336D01*
X568352Y515894D02*
Y517926D01*
X570384D01*
Y515894D01*
X568352D01*
X560732Y514878D02*
Y518942D01*
X564796D01*
Y514878D01*
X560732D01*
X561748Y515894D02*
Y517926D01*
X563780D01*
Y515894D01*
X561748D01*
X554128Y514878D02*
Y518942D01*
X558192D01*
Y514878D01*
X554128D01*
X555144Y515894D02*
Y517926D01*
X557176D01*
Y515894D01*
X555144D01*
X547524Y514878D02*
Y518942D01*
X551588D01*
Y514878D01*
X547524D01*
X548540Y515894D02*
Y517926D01*
X550572D01*
Y515894D01*
X548540D01*
X540920Y514878D02*
Y518942D01*
X544984D01*
Y514878D01*
X540920D01*
X541936Y515894D02*
Y517926D01*
X543968D01*
Y515894D01*
X541936D01*
X534316Y514878D02*
Y518942D01*
X538380D01*
Y514878D01*
X534316D01*
X535332Y515894D02*
Y517926D01*
X537364D01*
Y515894D01*
X535332D01*
X527712Y514878D02*
Y518942D01*
X531776D01*
Y514878D01*
X527712D01*
X528728Y515894D02*
Y517926D01*
X530760D01*
Y515894D01*
X528728D01*
X521108Y514878D02*
Y518942D01*
X525172D01*
Y514878D01*
X521108D01*
X522124Y515894D02*
Y517926D01*
X524156D01*
Y515894D01*
X522124D01*
X514504Y514878D02*
Y518942D01*
X518568D01*
Y514878D01*
X514504D01*
X515520Y515894D02*
Y517926D01*
X517552D01*
Y515894D01*
X515520D01*
X507900Y514878D02*
Y518942D01*
X511964D01*
Y514878D01*
X507900D01*
X508916Y515894D02*
Y517926D01*
X510948D01*
Y515894D01*
X508916D01*
X501296Y514878D02*
Y518942D01*
X505360D01*
Y514878D01*
X501296D01*
X502312Y515894D02*
Y517926D01*
X504344D01*
Y515894D01*
X502312D01*
X494692Y514878D02*
Y518942D01*
X498756D01*
Y514878D01*
X494692D01*
X495708Y515894D02*
Y517926D01*
X497740D01*
Y515894D01*
X495708D01*
X475055Y514355D02*
Y518419D01*
X479118D01*
Y514355D01*
X475055D01*
X476071Y515371D02*
Y517403D01*
X478102D01*
Y515371D01*
X476071D01*
X471942Y508530D02*
Y512594D01*
X476006D01*
Y508530D01*
X471942D01*
X472958Y509546D02*
Y511578D01*
X474990D01*
Y509546D01*
X472958D01*
X472015Y501926D02*
Y505990D01*
X476079D01*
Y501926D01*
X472015D01*
X473031Y502942D02*
Y504974D01*
X475063D01*
Y502942D01*
X473031D01*
X472755Y469499D02*
Y473563D01*
X476819D01*
Y469499D01*
X472755D01*
X473771Y470515D02*
Y472547D01*
X475803D01*
Y470515D01*
X473771D01*
X491505Y470224D02*
Y474288D01*
X495569D01*
Y470224D01*
X491505D01*
X492521Y471240D02*
Y473272D01*
X494553D01*
Y471240D01*
X492521D01*
X494044Y482925D02*
Y486989D01*
X498108D01*
Y482925D01*
X494044D01*
X495060Y483941D02*
Y485973D01*
X497092D01*
Y483941D01*
X495060D01*
X494218Y489526D02*
Y493590D01*
X498282D01*
Y489526D01*
X494218D01*
X495234Y490542D02*
Y492574D01*
X497266D01*
Y490542D01*
X495234D01*
X494083Y496129D02*
Y500193D01*
X498147D01*
Y496129D01*
X494083D01*
X495099Y497145D02*
Y499177D01*
X497131D01*
Y497145D01*
X495099D01*
X500687Y496129D02*
Y500193D01*
X504751D01*
Y496129D01*
X500687D01*
X501703Y497145D02*
Y499177D01*
X503735D01*
Y497145D01*
X501703D01*
X507291Y496129D02*
Y500193D01*
X511355D01*
Y496129D01*
X507291D01*
X508307Y497145D02*
Y499177D01*
X510339D01*
Y497145D01*
X508307D01*
X513895Y496129D02*
Y500193D01*
X517959D01*
Y496129D01*
X513895D01*
X514911Y497145D02*
Y499177D01*
X516943D01*
Y497145D01*
X514911D01*
X520499Y496129D02*
Y500193D01*
X524563D01*
Y496129D01*
X520499D01*
X521515Y497145D02*
Y499177D01*
X523547D01*
Y497145D01*
X521515D01*
X527103Y496129D02*
Y500193D01*
X531167D01*
Y496129D01*
X527103D01*
X528119Y497145D02*
Y499177D01*
X530151D01*
Y497145D01*
X528119D01*
X533707Y496129D02*
Y500193D01*
X537771D01*
Y496129D01*
X533707D01*
X534723Y497145D02*
Y499177D01*
X536755D01*
Y497145D01*
X534723D01*
X540311Y496129D02*
Y500193D01*
X544375D01*
Y496129D01*
X540311D01*
X541327Y497145D02*
Y499177D01*
X543359D01*
Y497145D01*
X541327D01*
X546915Y496129D02*
Y500193D01*
X550979D01*
Y496129D01*
X546915D01*
X547931Y497145D02*
Y499177D01*
X549963D01*
Y497145D01*
X547931D01*
X553519Y496129D02*
Y500193D01*
X557583D01*
Y496129D01*
X553519D01*
X554535Y497145D02*
Y499177D01*
X556567D01*
Y497145D01*
X554535D01*
X560123Y496129D02*
Y500193D01*
X564187D01*
Y496129D01*
X560123D01*
X561139Y497145D02*
Y499177D01*
X563171D01*
Y497145D01*
X561139D01*
X566727Y496129D02*
Y500193D01*
X570791D01*
Y496129D01*
X566727D01*
X567743Y497145D02*
Y499177D01*
X569775D01*
Y497145D01*
X567743D01*
X573331Y496129D02*
Y500193D01*
X577395D01*
Y496129D01*
X573331D01*
X574347Y497145D02*
Y499177D01*
X576379D01*
Y497145D01*
X574347D01*
X579935Y496129D02*
Y500193D01*
X583999D01*
Y496129D01*
X579935D01*
X580951Y497145D02*
Y499177D01*
X582983D01*
Y497145D01*
X580951D01*
X586539Y496129D02*
Y500193D01*
X590603D01*
Y496129D01*
X586539D01*
X587555Y497145D02*
Y499177D01*
X589587D01*
Y497145D01*
X587555D01*
X593143Y496129D02*
Y500193D01*
X597207D01*
Y496129D01*
X593143D01*
X594159Y497145D02*
Y499177D01*
X596191D01*
Y497145D01*
X594159D01*
X599747Y496129D02*
Y500193D01*
X603811D01*
Y496129D01*
X599747D01*
X600763Y497145D02*
Y499177D01*
X602795D01*
Y497145D01*
X600763D01*
X606351Y496129D02*
Y500193D01*
X610415D01*
Y496129D01*
X606351D01*
X607367Y497145D02*
Y499177D01*
X609399D01*
Y497145D01*
X607367D01*
X612955Y496129D02*
Y500193D01*
X617019D01*
Y496129D01*
X612955D01*
X613971Y497145D02*
Y499177D01*
X616003D01*
Y497145D01*
X613971D01*
X619559Y496129D02*
Y500193D01*
X623623D01*
Y496129D01*
X619559D01*
X620575Y497145D02*
Y499177D01*
X622607D01*
Y497145D01*
X620575D01*
X626163Y496129D02*
Y500193D01*
X630227D01*
Y496129D01*
X626163D01*
X627179Y497145D02*
Y499177D01*
X629211D01*
Y497145D01*
X627179D01*
X632767Y496149D02*
Y500213D01*
X636831D01*
Y496149D01*
X632767D01*
X633783Y497165D02*
Y499197D01*
X635815D01*
Y497165D01*
X633783D01*
X638835Y498753D02*
Y502817D01*
X642899D01*
Y498753D01*
X638835D01*
X639851Y499769D02*
Y501801D01*
X641883D01*
Y499769D01*
X639851D01*
X643524Y503404D02*
Y507468D01*
X647588D01*
Y503404D01*
X643524D01*
X644540Y504420D02*
Y506452D01*
X646572D01*
Y504420D01*
X644540D01*
X648193Y508074D02*
Y512138D01*
X652257D01*
Y508074D01*
X648193D01*
X649209Y509090D02*
Y511122D01*
X651241D01*
Y509090D01*
X649209D01*
X652863Y512744D02*
Y516808D01*
X656927D01*
Y512744D01*
X652863D01*
X653879Y513760D02*
Y515792D01*
X655911D01*
Y513760D01*
X653879D01*
X657533Y517413D02*
Y521477D01*
X661597D01*
Y517413D01*
X657533D01*
X658549Y518429D02*
Y520461D01*
X660581D01*
Y518429D01*
X658549D01*
X662203Y522083D02*
Y526147D01*
X666267D01*
Y522083D01*
X662203D01*
X663219Y523099D02*
Y525131D01*
X665251D01*
Y523099D01*
X663219D01*
X666872Y526753D02*
Y530817D01*
X670936D01*
Y526753D01*
X666872D01*
X667888Y527769D02*
Y529801D01*
X669920D01*
Y527769D01*
X667888D01*
X672025Y530883D02*
Y534947D01*
X676089D01*
Y530883D01*
X672025D01*
X673041Y531899D02*
Y533931D01*
X675073D01*
Y531899D01*
X673041D01*
X678629Y530883D02*
Y534947D01*
X682693D01*
Y530883D01*
X678629D01*
X679645Y531899D02*
Y533931D01*
X681677D01*
Y531899D01*
X679645D01*
X685233Y530883D02*
Y534947D01*
X689297D01*
Y530883D01*
X685233D01*
X686249Y531899D02*
Y533931D01*
X688281D01*
Y531899D01*
X686249D01*
X691837Y530883D02*
Y534947D01*
X695901D01*
Y530883D01*
X691837D01*
X692853Y531899D02*
Y533931D01*
X694885D01*
Y531899D01*
X692853D01*
X698441Y530883D02*
Y534947D01*
X702505D01*
Y530883D01*
X698441D01*
X699457Y531899D02*
Y533931D01*
X701489D01*
Y531899D01*
X699457D01*
X705045Y530883D02*
Y534947D01*
X709109D01*
Y530883D01*
X705045D01*
X706061Y531899D02*
Y533931D01*
X708093D01*
Y531899D01*
X706061D01*
X711649Y530883D02*
Y534947D01*
X715713D01*
Y530883D01*
X711649D01*
X712665Y531899D02*
Y533931D01*
X714697D01*
Y531899D01*
X712665D01*
X718253Y530883D02*
Y534947D01*
X722317D01*
Y530883D01*
X718253D01*
X719269Y531899D02*
Y533931D01*
X721301D01*
Y531899D01*
X719269D01*
X724857Y530883D02*
Y534947D01*
X728921D01*
Y530883D01*
X724857D01*
X725873Y531899D02*
Y533931D01*
X727905D01*
Y531899D01*
X725873D01*
X731276Y532435D02*
Y536499D01*
X735340D01*
Y532435D01*
X731276D01*
X732292Y533451D02*
Y535483D01*
X734324D01*
Y533451D01*
X732292D01*
X736115Y536930D02*
Y540993D01*
X740179D01*
Y536930D01*
X736115D01*
X737131Y537946D02*
Y539977D01*
X739163D01*
Y537946D01*
X737131D01*
X740785Y541599D02*
Y545663D01*
X744849D01*
Y541599D01*
X740785D01*
X741801Y542615D02*
Y544647D01*
X743833D01*
Y542615D01*
X741801D01*
X745455Y546269D02*
Y550333D01*
X749519D01*
Y546269D01*
X745455D01*
X746471Y547285D02*
Y549317D01*
X748503D01*
Y547285D01*
X746471D01*
X750124Y550939D02*
Y555003D01*
X754188D01*
Y550939D01*
X750124D01*
X751140Y551955D02*
Y553987D01*
X753172D01*
Y551955D01*
X751140D01*
X754794Y555608D02*
Y559672D01*
X758858D01*
Y555608D01*
X754794D01*
X755810Y556624D02*
Y558656D01*
X757842D01*
Y556624D01*
X755810D01*
X759464Y560278D02*
Y564342D01*
X763528D01*
Y560278D01*
X759464D01*
X760480Y561294D02*
Y563326D01*
X762512D01*
Y561294D01*
X760480D01*
X763668Y565371D02*
Y569435D01*
X767732D01*
Y565371D01*
X763668D01*
X764684Y566387D02*
Y568419D01*
X766716D01*
Y566387D01*
X764684D01*
X764517Y571920D02*
Y575984D01*
X768581D01*
Y571920D01*
X764517D01*
X765533Y572936D02*
Y574968D01*
X767565D01*
Y572936D01*
X765533D01*
X764517Y578524D02*
Y582588D01*
X768581D01*
Y578524D01*
X764517D01*
X765533Y579540D02*
Y581572D01*
X767565D01*
Y579540D01*
X765533D01*
X764517Y585128D02*
Y589192D01*
X768581D01*
Y585128D01*
X764517D01*
X765533Y586144D02*
Y588176D01*
X767565D01*
Y586144D01*
X765533D01*
X764517Y591732D02*
Y595796D01*
X768581D01*
Y591732D01*
X764517D01*
X765533Y592748D02*
Y594780D01*
X767565D01*
Y592748D01*
X765533D01*
X764517Y598336D02*
Y602400D01*
X768581D01*
Y598336D01*
X764517D01*
X765533Y599352D02*
Y601384D01*
X767565D01*
Y599352D01*
X765533D01*
X767281Y604334D02*
Y608398D01*
X771345D01*
Y604334D01*
X767281D01*
X768297Y605350D02*
Y607382D01*
X770329D01*
Y605350D01*
X768297D01*
X772668Y490982D02*
Y495046D01*
X776732D01*
Y490982D01*
X772668D01*
X773684Y491998D02*
Y494030D01*
X775716D01*
Y491998D01*
X773684D01*
X888746Y425958D02*
Y430022D01*
X892810D01*
Y425958D01*
X888746D01*
X889762Y426974D02*
Y429006D01*
X891794D01*
Y426974D01*
X889762D01*
X889000Y444246D02*
Y448310D01*
X893064D01*
Y444246D01*
X889000D01*
X890016Y445262D02*
Y447294D01*
X892048D01*
Y445262D01*
X890016D01*
X848868Y506984D02*
Y511048D01*
X852932D01*
Y506984D01*
X848868D01*
X849884Y508000D02*
Y510032D01*
X851916D01*
Y508000D01*
X849884D01*
X833374Y456184D02*
Y460248D01*
X837438D01*
Y456184D01*
X833374D01*
X834390Y457200D02*
Y459232D01*
X836422D01*
Y457200D01*
X834390D01*
X560070Y58928D02*
Y62992D01*
X564134D01*
Y58928D01*
X560070D01*
X561086Y59944D02*
Y61976D01*
X563118D01*
Y59944D01*
X561086D01*
X919480Y313182D02*
Y317246D01*
X923544D01*
Y313182D01*
X919480D01*
X920496Y314198D02*
Y316230D01*
X922528D01*
Y314198D01*
X920496D01*
X903986Y313436D02*
Y317500D01*
X908050D01*
Y313436D01*
X903986D01*
X905002Y314452D02*
Y316484D01*
X907034D01*
Y314452D01*
X905002D01*
X918210Y253746D02*
Y257810D01*
X922274D01*
Y253746D01*
X918210D01*
X919226Y254762D02*
Y256794D01*
X921258D01*
Y254762D01*
X919226D01*
X444754Y183134D02*
Y187198D01*
X448818D01*
Y183134D01*
X444754D01*
X445770Y184150D02*
Y186182D01*
X447802D01*
Y184150D01*
X445770D01*
X911860Y352298D02*
Y356362D01*
X915924D01*
Y352298D01*
X911860D01*
X912876Y353314D02*
Y355346D01*
X914908D01*
Y353314D01*
X912876D01*
X833882Y357632D02*
Y361696D01*
X837946D01*
Y357632D01*
X833882D01*
X834898Y358648D02*
Y360680D01*
X836930D01*
Y358648D01*
X834898D01*
X796290Y409622D02*
Y413686D01*
X800354D01*
Y409622D01*
X796290D01*
X797306Y410638D02*
Y412670D01*
X799338D01*
Y410638D01*
X797306D01*
X766064Y383794D02*
Y387858D01*
X770128D01*
Y383794D01*
X766064D01*
X767080Y384810D02*
Y386842D01*
X769112D01*
Y384810D01*
X767080D01*
X379476Y437896D02*
Y441960D01*
X383540D01*
Y437896D01*
X379476D01*
X380492Y438912D02*
Y440944D01*
X382524D01*
Y438912D01*
X380492D01*
X379476Y446786D02*
Y450850D01*
X383540D01*
Y446786D01*
X379476D01*
X380492Y447802D02*
Y449834D01*
X382524D01*
Y447802D01*
X380492D01*
X917956Y486410D02*
Y490474D01*
X922020D01*
Y486410D01*
X917956D01*
X918972Y487426D02*
Y489458D01*
X921004D01*
Y487426D01*
X918972D01*
X764286Y513080D02*
Y517144D01*
X768350D01*
Y513080D01*
X764286D01*
X765302Y514096D02*
Y516128D01*
X767334D01*
Y514096D01*
X765302D01*
X744982Y484378D02*
Y488442D01*
X749046D01*
Y484378D01*
X744982D01*
X745998Y485394D02*
Y487426D01*
X748030D01*
Y485394D01*
X745998D01*
X710692Y482854D02*
Y486918D01*
X714756D01*
Y482854D01*
X710692D01*
X711708Y483870D02*
Y485902D01*
X713740D01*
Y483870D01*
X711708D01*
X733552Y384048D02*
Y388112D01*
X737616D01*
Y384048D01*
X733552D01*
X734568Y385064D02*
Y387096D01*
X736600D01*
Y385064D01*
X734568D01*
X821436Y521716D02*
Y525780D01*
X825500D01*
Y521716D01*
X821436D01*
X822452Y522732D02*
Y524764D01*
X824484D01*
Y522732D01*
X822452D01*
X350096Y319290D02*
Y323354D01*
X354160D01*
Y319290D01*
X350096D01*
X351112Y320306D02*
Y322338D01*
X353144D01*
Y320306D01*
X351112D01*
X744728Y427482D02*
Y431546D01*
X748792D01*
Y427482D01*
X744728D01*
X745744Y428498D02*
Y430530D01*
X747776D01*
Y428498D01*
X745744D01*
X781304Y430022D02*
Y434086D01*
X785368D01*
Y430022D01*
X781304D01*
X782320Y431038D02*
Y433070D01*
X784352D01*
Y431038D01*
X782320D01*
X781304Y443484D02*
Y447548D01*
X785368D01*
Y443484D01*
X781304D01*
X782320Y444500D02*
Y446532D01*
X784352D01*
Y444500D01*
X782320D01*
X816356Y485394D02*
Y489458D01*
X820420D01*
Y485394D01*
X816356D01*
X817372Y486410D02*
Y488442D01*
X819404D01*
Y486410D01*
X817372D01*
X341630Y493776D02*
Y497840D01*
X345694D01*
Y493776D01*
X341630D01*
X342646Y494792D02*
Y496824D01*
X344678D01*
Y494792D01*
X342646D01*
X404114Y477012D02*
Y481076D01*
X408178D01*
Y477012D01*
X404114D01*
X405130Y478028D02*
Y480060D01*
X407162D01*
Y478028D01*
X405130D01*
X374396Y521970D02*
Y526034D01*
X378460D01*
Y521970D01*
X374396D01*
X375412Y522986D02*
Y525018D01*
X377444D01*
Y522986D01*
X375412D01*
X354076Y521970D02*
Y526034D01*
X358140D01*
Y521970D01*
X354076D01*
X355092Y522986D02*
Y525018D01*
X357124D01*
Y522986D01*
X355092D01*
X941070Y392684D02*
Y396748D01*
X945134D01*
Y392684D01*
X941070D01*
X942086Y393700D02*
Y395732D01*
X944118D01*
Y393700D01*
X942086D01*
X394462Y521970D02*
Y526034D01*
X398526D01*
Y521970D01*
X394462D01*
X395478Y522986D02*
Y525018D01*
X397510D01*
Y522986D01*
X395478D01*
X424434Y477012D02*
Y481076D01*
X428498D01*
Y477012D01*
X424434D01*
X425450Y478028D02*
Y480060D01*
X427482D01*
Y478028D01*
X425450D01*
X414020Y477012D02*
Y481076D01*
X418084D01*
Y477012D01*
X414020D01*
X415036Y478028D02*
Y480060D01*
X417068D01*
Y478028D01*
X415036D01*
X829818Y410464D02*
Y414528D01*
X833882D01*
Y410464D01*
X829818D01*
X830834Y411480D02*
Y413512D01*
X832866D01*
Y411480D01*
X830834D01*
X269494Y515874D02*
Y519938D01*
X273558D01*
Y515874D01*
X269494D01*
X270510Y516890D02*
Y518922D01*
X272542D01*
Y516890D01*
X270510D01*
X379476Y413512D02*
Y417576D01*
X383540D01*
Y413512D01*
X379476D01*
X380492Y414528D02*
Y416560D01*
X382524D01*
Y414528D01*
X380492D01*
X914908Y453136D02*
Y457200D01*
X918972D01*
Y453136D01*
X914908D01*
X915924Y454152D02*
Y456184D01*
X917956D01*
Y454152D01*
X915924D01*
X821182Y508254D02*
Y512318D01*
X825246D01*
Y508254D01*
X821182D01*
X822198Y509270D02*
Y511302D01*
X824230D01*
Y509270D01*
X822198D01*
X202438Y504952D02*
Y509016D01*
X206502D01*
Y504952D01*
X202438D01*
X203454Y505968D02*
Y508000D01*
X205486D01*
Y505968D01*
X203454D01*
X621538Y73152D02*
Y77216D01*
X625602D01*
Y73152D01*
X621538D01*
X622554Y74168D02*
Y76200D01*
X624586D01*
Y74168D01*
X622554D01*
D156*
X31820Y298886D02*
G03*
X31820Y298886I-2032J0D01*
G01*
Y353386D02*
G03*
X31820Y353386I-2032J0D01*
G01*
X414528Y95504D02*
G03*
X414528Y95504I-2032J0D01*
G01*
X729488Y255778D02*
G03*
X729488Y255778I-2032J0D01*
G01*
D157*
X413512Y95504D02*
G03*
X413512Y95504I-1016J0D01*
G01*
X728472Y255778D02*
G03*
X728472Y255778I-1016J0D01*
G01*
M02*
