G04*
G04 #@! TF.GenerationSoftware,Altium Limited,Altium Designer,21.6.1 (37)*
G04*
G04 Layer_Color=8388736*
%FSLAX44Y44*%
%MOMM*%
G71*
G04*
G04 #@! TF.SameCoordinates,8A31D3E6-7417-4931-9B95-E7CF89301AF7*
G04*
G04*
G04 #@! TF.FilePolarity,Negative*
G04*
G01*
G75*
%ADD35R,0.6500X1.0500*%
%ADD56R,1.0032X0.9588*%
%ADD57R,1.7018X1.1938*%
%ADD58R,0.9588X1.0032*%
%ADD59R,0.4032X0.7532*%
%ADD60R,0.8532X0.4532*%
%ADD61R,0.4032X1.1432*%
%ADD62R,1.2532X1.2532*%
%ADD63R,1.6732X1.2432*%
%ADD64R,0.8032X1.0532*%
%ADD65R,0.6132X0.4832*%
%ADD66R,0.4832X0.6132*%
%ADD67R,1.2192X1.0922*%
%ADD68R,1.1430X1.1684*%
%ADD69R,1.1684X1.1430*%
%ADD70R,1.2532X1.2532*%
%ADD71R,1.6782X0.6532*%
%ADD72R,1.4032X0.8032*%
%ADD73R,1.2532X0.6032*%
%ADD74R,0.6032X1.2532*%
%ADD75R,1.2532X2.4031*%
%ADD76R,1.2032X1.2532*%
%ADD77R,2.4031X1.2532*%
%ADD78R,1.2532X1.2032*%
%ADD79R,0.6782X0.5782*%
G04:AMPARAMS|DCode=80|XSize=1.7032mm|YSize=1.7032mm|CornerRadius=0.1766mm|HoleSize=0mm|Usage=FLASHONLY|Rotation=180.000|XOffset=0mm|YOffset=0mm|HoleType=Round|Shape=RoundedRectangle|*
%AMROUNDEDRECTD80*
21,1,1.7032,1.3500,0,0,180.0*
21,1,1.3500,1.7032,0,0,180.0*
1,1,0.3532,-0.6750,0.6750*
1,1,0.3532,0.6750,0.6750*
1,1,0.3532,0.6750,-0.6750*
1,1,0.3532,-0.6750,-0.6750*
%
%ADD80ROUNDEDRECTD80*%
G04:AMPARAMS|DCode=81|XSize=0.7032mm|YSize=1.0032mm|CornerRadius=0.2016mm|HoleSize=0mm|Usage=FLASHONLY|Rotation=270.000|XOffset=0mm|YOffset=0mm|HoleType=Round|Shape=RoundedRectangle|*
%AMROUNDEDRECTD81*
21,1,0.7032,0.6000,0,0,270.0*
21,1,0.3000,1.0032,0,0,270.0*
1,1,0.4032,-0.3000,-0.1500*
1,1,0.4032,-0.3000,0.1500*
1,1,0.4032,0.3000,0.1500*
1,1,0.4032,0.3000,-0.1500*
%
%ADD81ROUNDEDRECTD81*%
G04:AMPARAMS|DCode=82|XSize=0.7032mm|YSize=1.0032mm|CornerRadius=0.2016mm|HoleSize=0mm|Usage=FLASHONLY|Rotation=180.000|XOffset=0mm|YOffset=0mm|HoleType=Round|Shape=RoundedRectangle|*
%AMROUNDEDRECTD82*
21,1,0.7032,0.6000,0,0,180.0*
21,1,0.3000,1.0032,0,0,180.0*
1,1,0.4032,-0.1500,0.3000*
1,1,0.4032,0.1500,0.3000*
1,1,0.4032,0.1500,-0.3000*
1,1,0.4032,-0.1500,-0.3000*
%
%ADD82ROUNDEDRECTD82*%
%ADD83R,1.1032X0.8532*%
%ADD84R,1.1032X1.2032*%
%ADD85R,1.0532X0.8032*%
G04:AMPARAMS|DCode=86|XSize=0.8032mm|YSize=1.6532mm|CornerRadius=0.1526mm|HoleSize=0mm|Usage=FLASHONLY|Rotation=180.000|XOffset=0mm|YOffset=0mm|HoleType=Round|Shape=RoundedRectangle|*
%AMROUNDEDRECTD86*
21,1,0.8032,1.3480,0,0,180.0*
21,1,0.4980,1.6532,0,0,180.0*
1,1,0.3052,-0.2490,0.6740*
1,1,0.3052,0.2490,0.6740*
1,1,0.3052,0.2490,-0.6740*
1,1,0.3052,-0.2490,-0.6740*
%
%ADD86ROUNDEDRECTD86*%
%ADD87R,1.7032X0.9032*%
%ADD88R,1.7032X1.2032*%
%ADD89R,0.9032X1.7032*%
%ADD90R,0.8032X1.3532*%
%ADD91R,0.9232X0.8932*%
%ADD92C,1.2192*%
%ADD93O,1.9032X1.4032*%
%ADD94O,1.6032X1.2032*%
%ADD95C,7.5692*%
%ADD96O,2.7432X5.2832*%
%ADD97R,2.2352X2.2352*%
%ADD98C,1.7032*%
%ADD99R,1.7032X1.7032*%
%ADD100C,3.2512*%
%ADD101C,0.5588*%
%ADD102C,0.6096*%
%ADD103C,0.6604*%
D35*
X191706Y485824D02*
D03*
Y444324D02*
D03*
X170206Y485824D02*
D03*
Y444324D02*
D03*
X233344Y444070D02*
D03*
Y485570D02*
D03*
X254844Y444070D02*
D03*
Y485570D02*
D03*
D56*
X968502Y243744D02*
D03*
Y228188D02*
D03*
X376682Y382428D02*
D03*
Y366872D02*
D03*
X774446Y210724D02*
D03*
Y195168D02*
D03*
X365252Y382174D02*
D03*
Y366618D02*
D03*
X906272Y326232D02*
D03*
Y341788D02*
D03*
X730504Y516286D02*
D03*
Y500730D02*
D03*
X712978Y516540D02*
D03*
Y500984D02*
D03*
X751332Y417988D02*
D03*
Y402432D02*
D03*
X735584Y418242D02*
D03*
Y402686D02*
D03*
X235458Y177704D02*
D03*
Y162148D02*
D03*
D57*
X842010Y284988D02*
D03*
Y263144D02*
D03*
D58*
X319374Y203200D02*
D03*
X334930D02*
D03*
X319374Y188722D02*
D03*
X334930D02*
D03*
X319374Y174244D02*
D03*
X334930D02*
D03*
X797910Y186182D02*
D03*
X813466D02*
D03*
X88742Y210058D02*
D03*
X104298D02*
D03*
X89250Y195580D02*
D03*
X104806D02*
D03*
D59*
X160560Y385222D02*
D03*
Y373222D02*
D03*
X164560D02*
D03*
Y385222D02*
D03*
D60*
X162560Y379222D02*
D03*
D61*
X885444Y373930D02*
D03*
Y385530D02*
D03*
D62*
X852932Y369932D02*
D03*
Y383432D02*
D03*
X352298Y331832D02*
D03*
Y345332D02*
D03*
X510540Y323342D02*
D03*
Y309842D02*
D03*
X496570Y309226D02*
D03*
Y322726D02*
D03*
X214376Y228454D02*
D03*
Y241954D02*
D03*
X236220Y227984D02*
D03*
Y214484D02*
D03*
X117094Y195472D02*
D03*
Y181972D02*
D03*
X136906Y209696D02*
D03*
Y196196D02*
D03*
X117856Y223920D02*
D03*
Y210420D02*
D03*
X807974Y234042D02*
D03*
Y247542D02*
D03*
X837692Y523894D02*
D03*
Y510394D02*
D03*
X578866Y81680D02*
D03*
Y68180D02*
D03*
X434594Y508400D02*
D03*
Y494900D02*
D03*
X461772Y309988D02*
D03*
Y323488D02*
D03*
X418338Y309988D02*
D03*
Y323488D02*
D03*
X352298Y283356D02*
D03*
Y269856D02*
D03*
X922002Y340926D02*
D03*
Y327426D02*
D03*
X768350Y416198D02*
D03*
Y402698D02*
D03*
X747268Y515004D02*
D03*
Y501504D02*
D03*
X798576Y445662D02*
D03*
Y432162D02*
D03*
X904494Y467506D02*
D03*
Y454006D02*
D03*
X934212Y269640D02*
D03*
Y256140D02*
D03*
X482092Y322726D02*
D03*
Y309226D02*
D03*
X446532Y323488D02*
D03*
Y309988D02*
D03*
X432435Y323488D02*
D03*
Y309988D02*
D03*
X416814Y508654D02*
D03*
Y495154D02*
D03*
D63*
X92456Y232916D02*
D03*
Y251716D02*
D03*
D64*
X62334Y232664D02*
D03*
X75334D02*
D03*
X889104Y354838D02*
D03*
X902104D02*
D03*
X172678Y517398D02*
D03*
X185678D02*
D03*
X888596Y303276D02*
D03*
X901596D02*
D03*
X470004Y184658D02*
D03*
X483004D02*
D03*
X867006Y401066D02*
D03*
X880006D02*
D03*
D65*
X341608Y305602D02*
D03*
Y310602D02*
D03*
X357908D02*
D03*
Y305602D02*
D03*
D66*
X342258Y316252D02*
D03*
X347258D02*
D03*
X352258D02*
D03*
X357258D02*
D03*
Y299952D02*
D03*
X352258D02*
D03*
X347258D02*
D03*
X342258D02*
D03*
D67*
X484632Y200660D02*
D03*
X470408D02*
D03*
X543814Y377952D02*
D03*
X529590D02*
D03*
D68*
X396240Y494665D02*
D03*
Y509651D02*
D03*
X749046Y444627D02*
D03*
Y459613D02*
D03*
X356108Y438785D02*
D03*
Y453771D02*
D03*
X335534Y453517D02*
D03*
Y438531D02*
D03*
D69*
X485521Y490982D02*
D03*
X470535D02*
D03*
X485521Y538988D02*
D03*
X470535D02*
D03*
X546735Y394716D02*
D03*
X531749D02*
D03*
X546735Y409448D02*
D03*
X531749D02*
D03*
X484759Y171958D02*
D03*
X469773D02*
D03*
X144907Y262382D02*
D03*
X129921D02*
D03*
D70*
X250590Y191262D02*
D03*
X237090D02*
D03*
X767188Y476758D02*
D03*
X780688D02*
D03*
X561486Y30988D02*
D03*
X547986D02*
D03*
X561486Y45466D02*
D03*
X547986D02*
D03*
X614280Y32004D02*
D03*
X627780D02*
D03*
X670452Y67818D02*
D03*
X656952D02*
D03*
X411880Y60452D02*
D03*
X398380D02*
D03*
X411880Y78994D02*
D03*
X398380D02*
D03*
Y133096D02*
D03*
X411880D02*
D03*
X714610Y241046D02*
D03*
X728110D02*
D03*
X714610Y167386D02*
D03*
X728110D02*
D03*
X239230Y517414D02*
D03*
X252730D02*
D03*
X813200Y167386D02*
D03*
X799700D02*
D03*
D71*
X214038Y172524D02*
D03*
Y179024D02*
D03*
Y185524D02*
D03*
Y192024D02*
D03*
Y198524D02*
D03*
Y205024D02*
D03*
Y211524D02*
D03*
X155278D02*
D03*
Y205024D02*
D03*
Y198524D02*
D03*
Y192024D02*
D03*
Y185524D02*
D03*
Y179024D02*
D03*
Y172524D02*
D03*
D72*
X749500Y167030D02*
D03*
Y186030D02*
D03*
X774500D02*
D03*
Y176530D02*
D03*
Y167030D02*
D03*
X750262Y240944D02*
D03*
Y259944D02*
D03*
X775262D02*
D03*
Y250444D02*
D03*
Y240944D02*
D03*
D73*
X818490Y463908D02*
D03*
Y470408D02*
D03*
Y476908D02*
D03*
X799490D02*
D03*
Y463908D02*
D03*
D74*
X584812Y32918D02*
D03*
X591312D02*
D03*
X597812D02*
D03*
Y51918D02*
D03*
X591312D02*
D03*
X584812D02*
D03*
D75*
X742424Y627126D02*
D03*
X771924D02*
D03*
D76*
X757174Y611876D02*
D03*
D77*
X665226Y45484D02*
D03*
Y15984D02*
D03*
D78*
X649976Y30734D02*
D03*
D79*
X121104Y382602D02*
D03*
Y375842D02*
D03*
X130854D02*
D03*
Y382602D02*
D03*
D80*
X473122Y427732D02*
D03*
Y402732D02*
D03*
Y377732D02*
D03*
X448122Y427732D02*
D03*
Y402732D02*
D03*
Y377732D02*
D03*
X423122Y427732D02*
D03*
Y402732D02*
D03*
Y377732D02*
D03*
D81*
X396122Y447982D02*
D03*
Y439982D02*
D03*
Y431982D02*
D03*
Y423982D02*
D03*
Y415982D02*
D03*
Y407982D02*
D03*
Y399982D02*
D03*
Y391982D02*
D03*
Y383982D02*
D03*
Y375982D02*
D03*
Y367982D02*
D03*
Y359982D02*
D03*
X500122Y358732D02*
D03*
Y366732D02*
D03*
Y374732D02*
D03*
Y382732D02*
D03*
Y390732D02*
D03*
Y398732D02*
D03*
Y406732D02*
D03*
Y414732D02*
D03*
Y422732D02*
D03*
Y430732D02*
D03*
Y438732D02*
D03*
Y446732D02*
D03*
D82*
X404122Y459232D02*
D03*
X412122D02*
D03*
X420122D02*
D03*
X428122D02*
D03*
X436122D02*
D03*
X444122D02*
D03*
X452122D02*
D03*
X460122D02*
D03*
X468122D02*
D03*
X476122D02*
D03*
X484122D02*
D03*
X492122D02*
D03*
Y346232D02*
D03*
X484122D02*
D03*
X476122D02*
D03*
X468122D02*
D03*
X460122D02*
D03*
X452122D02*
D03*
X444122D02*
D03*
X436122D02*
D03*
X428122D02*
D03*
X420122D02*
D03*
X412122D02*
D03*
X404122D02*
D03*
D83*
X902262Y231556D02*
D03*
Y220056D02*
D03*
D84*
X877262Y225806D02*
D03*
D85*
X639572Y80414D02*
D03*
Y67414D02*
D03*
X610362Y82192D02*
D03*
Y69192D02*
D03*
X836168Y384198D02*
D03*
Y371198D02*
D03*
X485394Y520536D02*
D03*
Y507536D02*
D03*
X936498Y341780D02*
D03*
Y328780D02*
D03*
X356362Y509166D02*
D03*
Y496166D02*
D03*
X376428Y508912D02*
D03*
Y495912D02*
D03*
X544255Y357838D02*
D03*
Y344838D02*
D03*
D86*
X837946Y432490D02*
D03*
X850646D02*
D03*
X863346D02*
D03*
X876046D02*
D03*
X837946Y486990D02*
D03*
X850646D02*
D03*
X863346D02*
D03*
X876046D02*
D03*
X904494Y376610D02*
D03*
X917194D02*
D03*
X929894D02*
D03*
X942594D02*
D03*
X904494Y431110D02*
D03*
X917194D02*
D03*
X929894D02*
D03*
X942594D02*
D03*
D87*
X440436Y133270D02*
D03*
Y123270D02*
D03*
Y113270D02*
D03*
Y103270D02*
D03*
Y93270D02*
D03*
Y83270D02*
D03*
Y73270D02*
D03*
Y63270D02*
D03*
Y53270D02*
D03*
Y43270D02*
D03*
Y33270D02*
D03*
Y23270D02*
D03*
X528436D02*
D03*
Y33270D02*
D03*
Y43270D02*
D03*
Y53270D02*
D03*
Y63270D02*
D03*
Y73270D02*
D03*
Y83270D02*
D03*
Y93270D02*
D03*
Y103270D02*
D03*
Y113270D02*
D03*
Y123270D02*
D03*
Y133270D02*
D03*
D88*
X440436Y11770D02*
D03*
X528436D02*
D03*
D89*
X504436Y137270D02*
D03*
X494436D02*
D03*
X484436D02*
D03*
X474436D02*
D03*
X464436D02*
D03*
D90*
X958596Y281486D02*
D03*
X968096Y256486D02*
D03*
X949096D02*
D03*
D91*
X628142Y47782D02*
D03*
Y57882D02*
D03*
D92*
X585029Y602488D02*
D03*
D93*
X29788Y298886D02*
D03*
Y353386D02*
D03*
D94*
X60088Y301886D02*
D03*
Y350386D02*
D03*
D95*
X719248Y326644D02*
D03*
X264748D02*
D03*
D96*
X126248D02*
D03*
X857748D02*
D03*
D97*
X959612Y329692D02*
D03*
D98*
X20066Y469900D02*
D03*
Y419100D02*
D03*
Y444500D02*
D03*
Y229108D02*
D03*
Y203708D02*
D03*
Y254508D02*
D03*
D99*
Y393700D02*
D03*
Y178308D02*
D03*
D100*
X167386Y614426D02*
D03*
X809244Y40640D02*
D03*
X167386D02*
D03*
X809244Y614426D02*
D03*
D101*
X543052Y639572D02*
D03*
X562356Y639826D02*
D03*
X543052Y569595D02*
D03*
X424634Y639445D02*
D03*
X405003Y639572D02*
D03*
X385282D02*
D03*
X365561D02*
D03*
X345839D02*
D03*
X326027Y639445D02*
D03*
X306397Y639572D02*
D03*
X287093Y569849D02*
D03*
X306397Y569595D02*
D03*
X326118D02*
D03*
X345839D02*
D03*
X365561D02*
D03*
X385282D02*
D03*
X405003D02*
D03*
X424724D02*
D03*
X444446D02*
D03*
X464167D02*
D03*
X483888D02*
D03*
X503610D02*
D03*
X523331D02*
D03*
X444446Y639572D02*
D03*
X464167D02*
D03*
X483888D02*
D03*
X503610D02*
D03*
X523331D02*
D03*
X523334Y418405D02*
D03*
X523240Y433832D02*
D03*
X522986Y449401D02*
D03*
X176530Y172720D02*
D03*
X298994Y285206D02*
D03*
X158242Y262890D02*
D03*
X152146Y378714D02*
D03*
X178816Y368142D02*
D03*
X355770Y282194D02*
D03*
X407162Y322834D02*
D03*
X345440Y384940D02*
D03*
X369512Y425030D02*
D03*
X381508Y407670D02*
D03*
X354076Y382778D02*
D03*
X381508Y424180D02*
D03*
X378121Y431891D02*
D03*
X335788Y337058D02*
D03*
X472186Y292354D02*
D03*
X488696Y405384D02*
D03*
X510794Y333502D02*
D03*
X542506Y333545D02*
D03*
X474472Y120904D02*
D03*
X169926Y430276D02*
D03*
X176530Y179578D02*
D03*
X85344Y319024D02*
D03*
Y325628D02*
D03*
X852170Y359664D02*
D03*
X591312Y61214D02*
D03*
X565658Y74422D02*
D03*
X787400Y211074D02*
D03*
X364490Y332232D02*
D03*
X957834Y235712D02*
D03*
X381508Y399633D02*
D03*
X774700Y493014D02*
D03*
X890778Y427990D02*
D03*
X891032Y446278D02*
D03*
X850900Y509016D02*
D03*
X835406Y458216D02*
D03*
X562102Y60960D02*
D03*
X921512Y315214D02*
D03*
X906018Y315468D02*
D03*
X920242Y255778D02*
D03*
X446786Y185166D02*
D03*
X913892Y354330D02*
D03*
X835914Y359664D02*
D03*
X798322Y411654D02*
D03*
X768096Y385826D02*
D03*
X381508Y439928D02*
D03*
Y448818D02*
D03*
X919988Y488442D02*
D03*
X766318Y515112D02*
D03*
X747014Y486410D02*
D03*
X712724Y484886D02*
D03*
X735584Y386080D02*
D03*
X823468Y523748D02*
D03*
X352128Y321322D02*
D03*
X746760Y429514D02*
D03*
X783336Y432054D02*
D03*
Y445516D02*
D03*
X818388Y487426D02*
D03*
X343662Y495808D02*
D03*
X406146Y479044D02*
D03*
X376428Y524002D02*
D03*
X356108D02*
D03*
X943102Y394716D02*
D03*
X396494Y524002D02*
D03*
X426466Y479044D02*
D03*
X416052D02*
D03*
X831850Y412496D02*
D03*
X271526Y517906D02*
D03*
X381508Y415544D02*
D03*
X916940Y455168D02*
D03*
X823214Y510286D02*
D03*
X204470Y506984D02*
D03*
X623570Y75184D02*
D03*
D102*
X697522Y244132D02*
D03*
X310896Y186690D02*
D03*
X86530Y183642D02*
D03*
X287782Y189738D02*
D03*
X412496Y95504D02*
D03*
X310642Y202438D02*
D03*
X227584Y185420D02*
D03*
X227838Y198374D02*
D03*
X335240Y299934D02*
D03*
X456946Y405892D02*
D03*
X524510Y271526D02*
D03*
X538226Y283718D02*
D03*
X807212Y151638D02*
D03*
X785368Y250190D02*
D03*
X328422Y153924D02*
D03*
X278130Y154178D02*
D03*
X455676Y443738D02*
D03*
X405892D02*
D03*
X745001Y611814D02*
D03*
X745187Y605213D02*
D03*
X747799Y599147D02*
D03*
Y592543D02*
D03*
Y585939D02*
D03*
Y579336D02*
D03*
X745733Y573063D02*
D03*
X741064Y568393D02*
D03*
X736394Y563724D02*
D03*
X731724Y559054D02*
D03*
X721036Y551665D02*
D03*
X714432D02*
D03*
X707828D02*
D03*
X701224D02*
D03*
X694620D02*
D03*
X688016D02*
D03*
X681412D02*
D03*
X674808D02*
D03*
X668205Y551557D02*
D03*
X662268Y548664D02*
D03*
X657598Y543994D02*
D03*
X652929Y539325D02*
D03*
X648259Y534655D02*
D03*
X643589Y529985D02*
D03*
X638919Y525316D02*
D03*
X634250Y520646D02*
D03*
X628804Y516910D02*
D03*
X622200D02*
D03*
X615596D02*
D03*
X608992D02*
D03*
X602388D02*
D03*
X595784D02*
D03*
X589180D02*
D03*
X582576D02*
D03*
X575972D02*
D03*
X569368D02*
D03*
X562764D02*
D03*
X556160D02*
D03*
X549556D02*
D03*
X542952D02*
D03*
X536348D02*
D03*
X529744D02*
D03*
X523140D02*
D03*
X516536D02*
D03*
X509932D02*
D03*
X503328D02*
D03*
X496724D02*
D03*
X477086Y516387D02*
D03*
X473974Y510562D02*
D03*
X474047Y503958D02*
D03*
X474787Y471531D02*
D03*
X493537Y472256D02*
D03*
X496076Y484957D02*
D03*
X496250Y491558D02*
D03*
X496115Y498161D02*
D03*
X502719D02*
D03*
X509323D02*
D03*
X515927D02*
D03*
X522531D02*
D03*
X529135D02*
D03*
X535739D02*
D03*
X542343D02*
D03*
X548947D02*
D03*
X555551D02*
D03*
X562155D02*
D03*
X568759D02*
D03*
X575363D02*
D03*
X581967D02*
D03*
X588571D02*
D03*
X595175D02*
D03*
X601779D02*
D03*
X608383D02*
D03*
X614987D02*
D03*
X621591D02*
D03*
X628195D02*
D03*
X634799Y498181D02*
D03*
X640867Y500785D02*
D03*
X645556Y505436D02*
D03*
X650225Y510106D02*
D03*
X654895Y514776D02*
D03*
X659565Y519445D02*
D03*
X664235Y524115D02*
D03*
X668904Y528785D02*
D03*
X674057Y532915D02*
D03*
X680661D02*
D03*
X687265D02*
D03*
X693869D02*
D03*
X700473D02*
D03*
X707077D02*
D03*
X713681D02*
D03*
X720285D02*
D03*
X726889D02*
D03*
X733308Y534467D02*
D03*
X738147Y538961D02*
D03*
X742817Y543631D02*
D03*
X747487Y548301D02*
D03*
X752156Y552971D02*
D03*
X756826Y557640D02*
D03*
X761496Y562310D02*
D03*
X765700Y567403D02*
D03*
X766549Y573952D02*
D03*
Y580556D02*
D03*
Y587160D02*
D03*
Y593764D02*
D03*
Y600368D02*
D03*
X769313Y606366D02*
D03*
X727456Y255778D02*
D03*
D103*
X152400Y152400D02*
D03*
X203200Y254000D02*
D03*
X50800D02*
D03*
X939800Y508000D02*
D03*
Y406400D02*
D03*
Y304800D02*
D03*
Y203200D02*
D03*
X914400Y152400D02*
D03*
X889000Y508000D02*
D03*
X863600Y254000D02*
D03*
X889000Y203200D02*
D03*
X863600Y152400D02*
D03*
X838200Y609600D02*
D03*
X812800Y558800D02*
D03*
X838200Y406400D02*
D03*
X812800Y355600D02*
D03*
X838200Y304800D02*
D03*
Y101600D02*
D03*
X787400Y609600D02*
D03*
Y508000D02*
D03*
X762000Y457200D02*
D03*
Y355600D02*
D03*
X787400Y304800D02*
D03*
X762000Y254000D02*
D03*
X787400Y203200D02*
D03*
X762000Y152400D02*
D03*
X787400Y101600D02*
D03*
X762000Y50800D02*
D03*
X736600Y609600D02*
D03*
X711200Y254000D02*
D03*
X736600Y203200D02*
D03*
Y101600D02*
D03*
X711200Y50800D02*
D03*
X685800Y508000D02*
D03*
X660400Y457200D02*
D03*
X685800Y406400D02*
D03*
X660400Y355600D02*
D03*
Y254000D02*
D03*
Y152400D02*
D03*
X685800Y101600D02*
D03*
X609600Y457200D02*
D03*
X635000Y406400D02*
D03*
X609600Y355600D02*
D03*
Y254000D02*
D03*
Y152400D02*
D03*
X635000Y101600D02*
D03*
X609600Y50800D02*
D03*
X558800Y457200D02*
D03*
X584200Y406400D02*
D03*
Y304800D02*
D03*
X558800Y152400D02*
D03*
X584200Y101600D02*
D03*
X508000Y457200D02*
D03*
X533400Y304800D02*
D03*
X508000Y254000D02*
D03*
X533400Y203200D02*
D03*
X508000Y152400D02*
D03*
X457200Y355600D02*
D03*
Y254000D02*
D03*
Y152400D02*
D03*
X482600Y101600D02*
D03*
X406400Y355600D02*
D03*
Y254000D02*
D03*
Y152400D02*
D03*
X355600Y355600D02*
D03*
Y254000D02*
D03*
X381000Y203200D02*
D03*
X355600Y152400D02*
D03*
X381000Y101600D02*
D03*
X355600Y50800D02*
D03*
X330200Y508000D02*
D03*
X304800Y457200D02*
D03*
Y355600D02*
D03*
X330200Y304800D02*
D03*
X304800Y254000D02*
D03*
Y152400D02*
D03*
X330200Y101600D02*
D03*
X304800Y50800D02*
D03*
X279400Y508000D02*
D03*
Y406400D02*
D03*
X254000Y152400D02*
D03*
X279400Y101600D02*
D03*
X254000Y50800D02*
D03*
X203200Y558800D02*
D03*
X228600Y508000D02*
D03*
X203200Y457200D02*
D03*
X228600Y406400D02*
D03*
X203200Y355600D02*
D03*
X228600Y304800D02*
D03*
Y101600D02*
D03*
X203200Y50800D02*
D03*
X152400Y558800D02*
D03*
X177800Y508000D02*
D03*
X152400Y457200D02*
D03*
X177800Y406400D02*
D03*
X152400Y355600D02*
D03*
X177800Y304800D02*
D03*
Y203200D02*
D03*
Y101600D02*
D03*
X127000Y508000D02*
D03*
X101600Y457200D02*
D03*
X127000Y406400D02*
D03*
Y203200D02*
D03*
X101600Y152400D02*
D03*
X127000Y101600D02*
D03*
X76200Y508000D02*
D03*
X50800Y457200D02*
D03*
X76200Y406400D02*
D03*
Y304800D02*
D03*
X50800Y152400D02*
D03*
M02*
