G04*
G04 #@! TF.GenerationSoftware,Altium Limited,Altium Designer,21.6.1 (37)*
G04*
G04 Layer_Color=16711935*
%FSLAX44Y44*%
%MOMM*%
G71*
G04*
G04 #@! TF.SameCoordinates,8A31D3E6-7417-4931-9B95-E7CF89301AF7*
G04*
G04*
G04 #@! TF.FilePolarity,Positive*
G04*
G01*
G75*
%ADD11C,0.2000*%
%ADD12C,0.1000*%
G36*
X79334Y230604D02*
X77451D01*
X77404Y230610D01*
X77351D01*
X77228Y230616D01*
X77098Y230633D01*
X76958Y230651D01*
X76829Y230680D01*
X76764Y230698D01*
X76711Y230715D01*
X76705D01*
X76700Y230721D01*
X76664Y230739D01*
X76611Y230762D01*
X76547Y230803D01*
X76477Y230856D01*
X76400Y230926D01*
X76330Y231009D01*
X76259Y231103D01*
Y231108D01*
X76254Y231114D01*
X76230Y231149D01*
X76207Y231208D01*
X76171Y231284D01*
X76142Y231372D01*
X76113Y231478D01*
X76095Y231590D01*
X76089Y231713D01*
Y231719D01*
Y231730D01*
Y231754D01*
X76095Y231783D01*
Y231824D01*
X76101Y231865D01*
X76125Y231965D01*
X76160Y232082D01*
X76207Y232206D01*
X76277Y232329D01*
X76324Y232387D01*
X76371Y232446D01*
X76377Y232452D01*
X76383Y232458D01*
X76400Y232475D01*
X76424Y232493D01*
X76453Y232516D01*
X76488Y232540D01*
X76535Y232569D01*
X76582Y232605D01*
X76641Y232634D01*
X76705Y232663D01*
X76776Y232698D01*
X76852Y232728D01*
X76940Y232751D01*
X77028Y232781D01*
X77128Y232798D01*
X77234Y232816D01*
X77222Y232822D01*
X77198Y232833D01*
X77163Y232857D01*
X77116Y232880D01*
X77010Y232945D01*
X76958Y232986D01*
X76911Y233021D01*
X76899Y233033D01*
X76870Y233062D01*
X76823Y233109D01*
X76764Y233168D01*
X76700Y233250D01*
X76623Y233338D01*
X76547Y233444D01*
X76465Y233561D01*
X75767Y234664D01*
X76435D01*
X76969Y233819D01*
Y233813D01*
X76981Y233801D01*
X76993Y233784D01*
X77010Y233760D01*
X77052Y233696D01*
X77104Y233614D01*
X77169Y233526D01*
X77234Y233432D01*
X77298Y233344D01*
X77357Y233262D01*
X77363Y233256D01*
X77380Y233232D01*
X77410Y233197D01*
X77451Y233156D01*
X77539Y233068D01*
X77586Y233027D01*
X77632Y232992D01*
X77638Y232986D01*
X77650Y232980D01*
X77674Y232968D01*
X77709Y232951D01*
X77744Y232933D01*
X77785Y232915D01*
X77879Y232886D01*
X77885D01*
X77896Y232880D01*
X77920D01*
X77949Y232874D01*
X77990Y232869D01*
X78037D01*
X78102Y232863D01*
X78794D01*
Y234664D01*
X79334D01*
Y230604D01*
D02*
G37*
G36*
X74071Y231490D02*
X74077Y231496D01*
X74106Y231519D01*
X74141Y231554D01*
X74200Y231595D01*
X74265Y231648D01*
X74347Y231707D01*
X74441Y231771D01*
X74546Y231836D01*
X74552D01*
X74558Y231842D01*
X74593Y231865D01*
X74652Y231895D01*
X74722Y231930D01*
X74804Y231971D01*
X74892Y232012D01*
X74980Y232053D01*
X75068Y232088D01*
Y231607D01*
X75062D01*
X75051Y231595D01*
X75027Y231590D01*
X74998Y231572D01*
X74963Y231554D01*
X74922Y231531D01*
X74822Y231472D01*
X74705Y231408D01*
X74587Y231325D01*
X74464Y231232D01*
X74341Y231132D01*
X74335Y231126D01*
X74329Y231120D01*
X74311Y231103D01*
X74288Y231085D01*
X74235Y231026D01*
X74165Y230956D01*
X74094Y230874D01*
X74018Y230780D01*
X73954Y230686D01*
X73895Y230586D01*
X73572D01*
Y234664D01*
X74071D01*
Y231490D01*
D02*
G37*
G36*
X906104Y352778D02*
X904221D01*
X904174Y352784D01*
X904121D01*
X903998Y352789D01*
X903868Y352807D01*
X903728Y352825D01*
X903599Y352854D01*
X903534Y352872D01*
X903481Y352889D01*
X903475D01*
X903469Y352895D01*
X903434Y352913D01*
X903382Y352936D01*
X903317Y352977D01*
X903247Y353030D01*
X903170Y353101D01*
X903100Y353183D01*
X903029Y353276D01*
Y353282D01*
X903024Y353288D01*
X903000Y353323D01*
X902977Y353382D01*
X902942Y353458D01*
X902912Y353546D01*
X902883Y353652D01*
X902865Y353764D01*
X902859Y353887D01*
Y353893D01*
Y353904D01*
Y353928D01*
X902865Y353957D01*
Y353998D01*
X902871Y354039D01*
X902895Y354139D01*
X902930Y354256D01*
X902977Y354380D01*
X903047Y354503D01*
X903094Y354561D01*
X903141Y354620D01*
X903147Y354626D01*
X903153Y354632D01*
X903170Y354650D01*
X903194Y354667D01*
X903223Y354691D01*
X903258Y354714D01*
X903305Y354743D01*
X903352Y354779D01*
X903411Y354808D01*
X903475Y354837D01*
X903546Y354872D01*
X903622Y354902D01*
X903710Y354925D01*
X903798Y354955D01*
X903898Y354972D01*
X904004Y354990D01*
X903992Y354996D01*
X903968Y355007D01*
X903933Y355031D01*
X903886Y355054D01*
X903781Y355119D01*
X903728Y355160D01*
X903681Y355195D01*
X903669Y355207D01*
X903640Y355236D01*
X903593Y355283D01*
X903534Y355342D01*
X903469Y355424D01*
X903393Y355512D01*
X903317Y355618D01*
X903235Y355735D01*
X902537Y356838D01*
X903205D01*
X903739Y355993D01*
Y355987D01*
X903751Y355975D01*
X903763Y355958D01*
X903781Y355934D01*
X903822Y355870D01*
X903874Y355788D01*
X903939Y355700D01*
X904004Y355606D01*
X904068Y355518D01*
X904127Y355436D01*
X904133Y355430D01*
X904150Y355406D01*
X904180Y355371D01*
X904221Y355330D01*
X904309Y355242D01*
X904355Y355201D01*
X904402Y355166D01*
X904408Y355160D01*
X904420Y355154D01*
X904444Y355142D01*
X904479Y355125D01*
X904514Y355107D01*
X904555Y355089D01*
X904649Y355060D01*
X904655D01*
X904667Y355054D01*
X904690D01*
X904719Y355048D01*
X904760Y355043D01*
X904807D01*
X904872Y355037D01*
X905564D01*
Y356838D01*
X906104D01*
Y352778D01*
D02*
G37*
G36*
X900841Y353664D02*
X900847Y353670D01*
X900876Y353693D01*
X900911Y353728D01*
X900970Y353769D01*
X901035Y353822D01*
X901117Y353881D01*
X901211Y353945D01*
X901316Y354010D01*
X901322D01*
X901328Y354016D01*
X901363Y354039D01*
X901422Y354069D01*
X901492Y354104D01*
X901574Y354145D01*
X901662Y354186D01*
X901750Y354227D01*
X901838Y354262D01*
Y353781D01*
X901833D01*
X901821Y353769D01*
X901797Y353764D01*
X901768Y353746D01*
X901733Y353728D01*
X901692Y353705D01*
X901592Y353646D01*
X901475Y353582D01*
X901357Y353499D01*
X901234Y353406D01*
X901111Y353306D01*
X901105Y353300D01*
X901099Y353294D01*
X901081Y353276D01*
X901058Y353259D01*
X901005Y353200D01*
X900935Y353130D01*
X900864Y353048D01*
X900788Y352954D01*
X900724Y352860D01*
X900665Y352760D01*
X900342D01*
Y356838D01*
X900841D01*
Y353664D01*
D02*
G37*
G36*
X899134Y356832D02*
Y356809D01*
Y356773D01*
X899128Y356726D01*
X899122Y356674D01*
X899110Y356615D01*
X899098Y356556D01*
X899075Y356492D01*
Y356486D01*
X899069Y356480D01*
X899057Y356445D01*
X899034Y356392D01*
X898999Y356322D01*
X898952Y356240D01*
X898893Y356146D01*
X898828Y356052D01*
X898746Y355952D01*
Y355946D01*
X898735Y355940D01*
X898705Y355905D01*
X898652Y355852D01*
X898576Y355776D01*
X898488Y355688D01*
X898377Y355582D01*
X898242Y355465D01*
X898095Y355342D01*
X898089Y355336D01*
X898066Y355318D01*
X898030Y355289D01*
X897989Y355254D01*
X897937Y355207D01*
X897872Y355154D01*
X897807Y355095D01*
X897731Y355031D01*
X897585Y354890D01*
X897438Y354749D01*
X897367Y354679D01*
X897303Y354608D01*
X897244Y354544D01*
X897197Y354479D01*
Y354473D01*
X897186Y354468D01*
X897174Y354450D01*
X897162Y354426D01*
X897121Y354362D01*
X897074Y354286D01*
X897033Y354192D01*
X896992Y354092D01*
X896969Y353981D01*
X896957Y353875D01*
Y353869D01*
Y353863D01*
X896963Y353828D01*
X896969Y353769D01*
X896986Y353705D01*
X897010Y353623D01*
X897051Y353540D01*
X897103Y353458D01*
X897174Y353376D01*
X897186Y353364D01*
X897215Y353341D01*
X897256Y353312D01*
X897320Y353271D01*
X897403Y353235D01*
X897496Y353200D01*
X897608Y353177D01*
X897731Y353171D01*
X897766D01*
X897790Y353177D01*
X897860Y353183D01*
X897943Y353200D01*
X898030Y353224D01*
X898130Y353265D01*
X898224Y353318D01*
X898312Y353388D01*
X898324Y353400D01*
X898347Y353429D01*
X898382Y353476D01*
X898418Y353546D01*
X898459Y353629D01*
X898494Y353734D01*
X898518Y353852D01*
X898529Y353986D01*
X899040Y353934D01*
Y353928D01*
X899034Y353910D01*
Y353881D01*
X899028Y353840D01*
X899016Y353793D01*
X899005Y353740D01*
X898987Y353675D01*
X898969Y353611D01*
X898922Y353470D01*
X898852Y353329D01*
X898811Y353259D01*
X898758Y353189D01*
X898705Y353124D01*
X898646Y353065D01*
X898641Y353059D01*
X898629Y353054D01*
X898611Y353036D01*
X898582Y353018D01*
X898547Y352995D01*
X898506Y352971D01*
X898459Y352942D01*
X898400Y352913D01*
X898336Y352883D01*
X898265Y352854D01*
X898189Y352831D01*
X898107Y352807D01*
X898019Y352789D01*
X897925Y352772D01*
X897825Y352766D01*
X897719Y352760D01*
X897661D01*
X897620Y352766D01*
X897573Y352772D01*
X897514Y352778D01*
X897450Y352789D01*
X897385Y352801D01*
X897233Y352842D01*
X897080Y352901D01*
X897004Y352936D01*
X896927Y352977D01*
X896857Y353030D01*
X896792Y353089D01*
X896787Y353095D01*
X896775Y353101D01*
X896763Y353124D01*
X896740Y353147D01*
X896710Y353177D01*
X896681Y353218D01*
X896652Y353259D01*
X896616Y353312D01*
X896558Y353423D01*
X896499Y353564D01*
X896476Y353634D01*
X896464Y353717D01*
X896452Y353799D01*
X896446Y353887D01*
Y353898D01*
Y353928D01*
X896452Y353975D01*
X896458Y354039D01*
X896470Y354110D01*
X896493Y354192D01*
X896517Y354280D01*
X896552Y354368D01*
X896558Y354380D01*
X896570Y354409D01*
X896593Y354456D01*
X896628Y354520D01*
X896675Y354591D01*
X896734Y354679D01*
X896804Y354767D01*
X896886Y354866D01*
X896898Y354878D01*
X896927Y354913D01*
X896957Y354943D01*
X896986Y354972D01*
X897021Y355007D01*
X897068Y355054D01*
X897115Y355101D01*
X897174Y355154D01*
X897233Y355213D01*
X897303Y355277D01*
X897379Y355342D01*
X897461Y355418D01*
X897555Y355494D01*
X897649Y355577D01*
X897655Y355582D01*
X897667Y355594D01*
X897690Y355612D01*
X897719Y355635D01*
X897755Y355670D01*
X897796Y355706D01*
X897890Y355782D01*
X897989Y355870D01*
X898083Y355958D01*
X898165Y356034D01*
X898201Y356063D01*
X898230Y356093D01*
X898236Y356099D01*
X898253Y356116D01*
X898277Y356140D01*
X898306Y356175D01*
X898336Y356216D01*
X898371Y356257D01*
X898441Y356357D01*
X896440D01*
Y356838D01*
X899134D01*
Y356832D01*
D02*
G37*
G36*
X189678Y515338D02*
X187795D01*
X187748Y515344D01*
X187695D01*
X187572Y515350D01*
X187442Y515367D01*
X187302Y515385D01*
X187173Y515414D01*
X187108Y515432D01*
X187055Y515449D01*
X187049D01*
X187043Y515455D01*
X187008Y515473D01*
X186956Y515496D01*
X186891Y515537D01*
X186821Y515590D01*
X186744Y515661D01*
X186674Y515743D01*
X186604Y515836D01*
Y515842D01*
X186598Y515848D01*
X186574Y515883D01*
X186551Y515942D01*
X186516Y516018D01*
X186486Y516106D01*
X186457Y516212D01*
X186439Y516324D01*
X186433Y516447D01*
Y516453D01*
Y516464D01*
Y516488D01*
X186439Y516517D01*
Y516558D01*
X186445Y516599D01*
X186469Y516699D01*
X186504Y516816D01*
X186551Y516940D01*
X186621Y517063D01*
X186668Y517121D01*
X186715Y517180D01*
X186721Y517186D01*
X186727Y517192D01*
X186744Y517210D01*
X186768Y517227D01*
X186797Y517251D01*
X186832Y517274D01*
X186879Y517303D01*
X186926Y517338D01*
X186985Y517368D01*
X187049Y517397D01*
X187120Y517432D01*
X187196Y517462D01*
X187284Y517485D01*
X187372Y517515D01*
X187472Y517532D01*
X187577Y517550D01*
X187566Y517556D01*
X187542Y517567D01*
X187507Y517591D01*
X187460Y517614D01*
X187355Y517679D01*
X187302Y517720D01*
X187255Y517755D01*
X187243Y517767D01*
X187214Y517796D01*
X187167Y517843D01*
X187108Y517902D01*
X187043Y517984D01*
X186967Y518072D01*
X186891Y518178D01*
X186809Y518295D01*
X186111Y519398D01*
X186779D01*
X187313Y518553D01*
Y518547D01*
X187325Y518535D01*
X187337Y518518D01*
X187355Y518494D01*
X187396Y518430D01*
X187448Y518348D01*
X187513Y518260D01*
X187577Y518166D01*
X187642Y518078D01*
X187701Y517996D01*
X187707Y517990D01*
X187724Y517966D01*
X187754Y517931D01*
X187795Y517890D01*
X187883Y517802D01*
X187929Y517761D01*
X187976Y517726D01*
X187982Y517720D01*
X187994Y517714D01*
X188018Y517702D01*
X188053Y517685D01*
X188088Y517667D01*
X188129Y517649D01*
X188223Y517620D01*
X188229D01*
X188241Y517614D01*
X188264D01*
X188293Y517608D01*
X188334Y517603D01*
X188381D01*
X188446Y517597D01*
X189138D01*
Y519398D01*
X189678D01*
Y515338D01*
D02*
G37*
G36*
X184468Y519463D02*
X184515D01*
X184568Y519457D01*
X184626Y519445D01*
X184697Y519427D01*
X184767Y519410D01*
X184849Y519386D01*
X184931Y519357D01*
X185013Y519322D01*
X185101Y519275D01*
X185184Y519222D01*
X185266Y519163D01*
X185348Y519093D01*
X185424Y519011D01*
X185430Y519005D01*
X185442Y518987D01*
X185459Y518964D01*
X185483Y518923D01*
X185518Y518870D01*
X185547Y518811D01*
X185583Y518735D01*
X185618Y518653D01*
X185659Y518553D01*
X185694Y518442D01*
X185723Y518318D01*
X185753Y518183D01*
X185782Y518031D01*
X185800Y517867D01*
X185811Y517691D01*
X185817Y517503D01*
Y517497D01*
Y517491D01*
Y517473D01*
Y517450D01*
X185811Y517391D01*
Y517309D01*
X185805Y517215D01*
X185794Y517104D01*
X185782Y516981D01*
X185764Y516846D01*
X185741Y516711D01*
X185712Y516564D01*
X185676Y516423D01*
X185635Y516282D01*
X185583Y516147D01*
X185524Y516018D01*
X185459Y515895D01*
X185383Y515789D01*
X185377Y515784D01*
X185366Y515772D01*
X185342Y515748D01*
X185313Y515713D01*
X185278Y515678D01*
X185231Y515643D01*
X185172Y515596D01*
X185113Y515555D01*
X185043Y515514D01*
X184967Y515467D01*
X184879Y515432D01*
X184790Y515391D01*
X184691Y515361D01*
X184585Y515338D01*
X184474Y515326D01*
X184356Y515320D01*
X184309D01*
X184274Y515326D01*
X184233D01*
X184186Y515332D01*
X184075Y515355D01*
X183951Y515385D01*
X183822Y515432D01*
X183693Y515502D01*
X183629Y515543D01*
X183570Y515590D01*
X183564Y515596D01*
X183558Y515602D01*
X183541Y515619D01*
X183523Y515637D01*
X183494Y515666D01*
X183470Y515701D01*
X183406Y515784D01*
X183341Y515889D01*
X183283Y516018D01*
X183230Y516165D01*
X183195Y516329D01*
X183693Y516370D01*
Y516365D01*
X183699Y516359D01*
X183705Y516324D01*
X183723Y516271D01*
X183746Y516206D01*
X183769Y516136D01*
X183805Y516065D01*
X183846Y516001D01*
X183887Y515948D01*
X183899Y515936D01*
X183922Y515913D01*
X183963Y515878D01*
X184022Y515836D01*
X184098Y515801D01*
X184180Y515766D01*
X184280Y515743D01*
X184386Y515731D01*
X184427D01*
X184474Y515737D01*
X184526Y515748D01*
X184597Y515766D01*
X184667Y515789D01*
X184738Y515819D01*
X184808Y515866D01*
X184820Y515872D01*
X184849Y515895D01*
X184890Y515936D01*
X184943Y515995D01*
X185002Y516065D01*
X185066Y516147D01*
X185125Y516253D01*
X185184Y516370D01*
Y516376D01*
X185189Y516388D01*
X185195Y516406D01*
X185207Y516429D01*
X185213Y516464D01*
X185225Y516505D01*
X185236Y516552D01*
X185248Y516611D01*
X185266Y516675D01*
X185278Y516746D01*
X185289Y516822D01*
X185295Y516904D01*
X185307Y516998D01*
X185313Y517092D01*
X185319Y517198D01*
Y517303D01*
X185313Y517298D01*
X185289Y517262D01*
X185248Y517215D01*
X185195Y517157D01*
X185137Y517086D01*
X185060Y517022D01*
X184978Y516957D01*
X184884Y516898D01*
X184879D01*
X184873Y516893D01*
X184837Y516875D01*
X184785Y516857D01*
X184714Y516828D01*
X184632Y516805D01*
X184538Y516787D01*
X184438Y516769D01*
X184333Y516763D01*
X184286D01*
X184251Y516769D01*
X184204Y516775D01*
X184157Y516781D01*
X184098Y516793D01*
X184039Y516810D01*
X183904Y516852D01*
X183834Y516881D01*
X183764Y516922D01*
X183693Y516963D01*
X183617Y517010D01*
X183547Y517069D01*
X183482Y517133D01*
X183476Y517139D01*
X183464Y517151D01*
X183447Y517168D01*
X183429Y517198D01*
X183400Y517239D01*
X183371Y517280D01*
X183341Y517333D01*
X183306Y517391D01*
X183271Y517456D01*
X183242Y517526D01*
X183212Y517608D01*
X183183Y517691D01*
X183165Y517779D01*
X183148Y517878D01*
X183136Y517978D01*
X183130Y518084D01*
Y518090D01*
Y518101D01*
Y518119D01*
Y518148D01*
X183136Y518183D01*
Y518219D01*
X183153Y518312D01*
X183171Y518424D01*
X183200Y518541D01*
X183242Y518670D01*
X183300Y518794D01*
Y518800D01*
X183306Y518805D01*
X183318Y518823D01*
X183330Y518847D01*
X183365Y518905D01*
X183417Y518981D01*
X183482Y519064D01*
X183558Y519146D01*
X183652Y519228D01*
X183752Y519298D01*
X183758D01*
X183764Y519304D01*
X183781Y519316D01*
X183805Y519322D01*
X183863Y519351D01*
X183940Y519380D01*
X184039Y519416D01*
X184151Y519439D01*
X184274Y519463D01*
X184409Y519468D01*
X184438D01*
X184468Y519463D01*
D02*
G37*
G36*
X641572Y71834D02*
X638398D01*
X638404Y71828D01*
X638427Y71799D01*
X638462Y71763D01*
X638503Y71705D01*
X638556Y71640D01*
X638615Y71558D01*
X638679Y71464D01*
X638744Y71358D01*
Y71353D01*
X638750Y71347D01*
X638773Y71311D01*
X638803Y71253D01*
X638838Y71182D01*
X638879Y71100D01*
X638920Y71012D01*
X638961Y70924D01*
X638996Y70836D01*
X638515D01*
Y70842D01*
X638503Y70854D01*
X638498Y70877D01*
X638480Y70907D01*
X638462Y70942D01*
X638439Y70983D01*
X638380Y71083D01*
X638316Y71200D01*
X638233Y71317D01*
X638140Y71441D01*
X638040Y71564D01*
X638034Y71570D01*
X638028Y71575D01*
X638010Y71593D01*
X637993Y71617D01*
X637934Y71669D01*
X637864Y71740D01*
X637782Y71810D01*
X637688Y71887D01*
X637594Y71951D01*
X637494Y72010D01*
Y72332D01*
X641572D01*
Y71834D01*
D02*
G37*
G36*
Y68677D02*
X638398D01*
X638404Y68671D01*
X638427Y68642D01*
X638462Y68607D01*
X638503Y68548D01*
X638556Y68483D01*
X638615Y68401D01*
X638679Y68307D01*
X638744Y68202D01*
Y68196D01*
X638750Y68190D01*
X638773Y68155D01*
X638803Y68096D01*
X638838Y68026D01*
X638879Y67944D01*
X638920Y67856D01*
X638961Y67768D01*
X638996Y67680D01*
X638515D01*
Y67685D01*
X638503Y67697D01*
X638498Y67721D01*
X638480Y67750D01*
X638462Y67785D01*
X638439Y67826D01*
X638380Y67926D01*
X638316Y68043D01*
X638233Y68161D01*
X638140Y68284D01*
X638040Y68407D01*
X638034Y68413D01*
X638028Y68419D01*
X638010Y68436D01*
X637993Y68460D01*
X637934Y68513D01*
X637864Y68583D01*
X637782Y68654D01*
X637688Y68730D01*
X637594Y68794D01*
X637494Y68853D01*
Y69176D01*
X641572D01*
Y68677D01*
D02*
G37*
G36*
Y66312D02*
X640727Y65779D01*
X640721D01*
X640710Y65767D01*
X640692Y65755D01*
X640668Y65738D01*
X640604Y65696D01*
X640522Y65644D01*
X640434Y65579D01*
X640340Y65514D01*
X640252Y65450D01*
X640170Y65391D01*
X640164Y65385D01*
X640140Y65368D01*
X640105Y65339D01*
X640064Y65297D01*
X639976Y65209D01*
X639935Y65163D01*
X639900Y65115D01*
X639894Y65110D01*
X639888Y65098D01*
X639876Y65075D01*
X639859Y65039D01*
X639841Y65004D01*
X639823Y64963D01*
X639794Y64869D01*
Y64863D01*
X639788Y64851D01*
Y64828D01*
X639782Y64799D01*
X639777Y64758D01*
Y64711D01*
X639771Y64646D01*
Y63954D01*
X641572D01*
Y63414D01*
X637512D01*
Y65297D01*
X637518Y65344D01*
Y65397D01*
X637523Y65520D01*
X637541Y65649D01*
X637559Y65790D01*
X637588Y65919D01*
X637606Y65984D01*
X637623Y66037D01*
Y66043D01*
X637629Y66048D01*
X637647Y66084D01*
X637670Y66136D01*
X637711Y66201D01*
X637764Y66271D01*
X637835Y66348D01*
X637917Y66418D01*
X638010Y66488D01*
X638016D01*
X638022Y66494D01*
X638057Y66518D01*
X638116Y66541D01*
X638192Y66576D01*
X638280Y66606D01*
X638386Y66635D01*
X638498Y66653D01*
X638621Y66659D01*
X638627D01*
X638638D01*
X638662D01*
X638691Y66653D01*
X638732D01*
X638773Y66647D01*
X638873Y66624D01*
X638990Y66588D01*
X639114Y66541D01*
X639237Y66471D01*
X639295Y66424D01*
X639354Y66377D01*
X639360Y66371D01*
X639366Y66365D01*
X639384Y66348D01*
X639401Y66324D01*
X639425Y66295D01*
X639448Y66260D01*
X639477Y66213D01*
X639512Y66166D01*
X639542Y66107D01*
X639571Y66043D01*
X639606Y65972D01*
X639636Y65896D01*
X639659Y65808D01*
X639689Y65720D01*
X639706Y65620D01*
X639724Y65514D01*
X639730Y65526D01*
X639741Y65550D01*
X639765Y65585D01*
X639788Y65632D01*
X639853Y65738D01*
X639894Y65790D01*
X639929Y65837D01*
X639941Y65849D01*
X639970Y65878D01*
X640017Y65925D01*
X640076Y65984D01*
X640158Y66048D01*
X640246Y66125D01*
X640352Y66201D01*
X640469Y66283D01*
X641572Y66981D01*
Y66312D01*
D02*
G37*
G36*
X610543Y74879D02*
X610614D01*
X610690Y74873D01*
X610772Y74867D01*
X610960Y74850D01*
X611153Y74820D01*
X611341Y74785D01*
X611429Y74762D01*
X611517Y74732D01*
X611523D01*
X611535Y74727D01*
X611558Y74715D01*
X611587Y74703D01*
X611629Y74691D01*
X611670Y74668D01*
X611769Y74621D01*
X611875Y74562D01*
X611992Y74486D01*
X612098Y74398D01*
X612198Y74292D01*
Y74286D01*
X612209Y74281D01*
X612221Y74263D01*
X612233Y74240D01*
X612251Y74210D01*
X612274Y74181D01*
X612315Y74093D01*
X612356Y73987D01*
X612397Y73864D01*
X612421Y73717D01*
X612432Y73559D01*
Y73500D01*
X612426Y73459D01*
X612421Y73412D01*
X612409Y73354D01*
X612397Y73289D01*
X612380Y73219D01*
X612356Y73148D01*
X612333Y73072D01*
X612298Y72996D01*
X612256Y72919D01*
X612209Y72843D01*
X612151Y72767D01*
X612086Y72696D01*
X612016Y72632D01*
X612010Y72626D01*
X611992Y72614D01*
X611963Y72597D01*
X611916Y72567D01*
X611863Y72538D01*
X611793Y72509D01*
X611711Y72468D01*
X611617Y72432D01*
X611511Y72397D01*
X611388Y72362D01*
X611253Y72327D01*
X611101Y72297D01*
X610936Y72268D01*
X610760Y72250D01*
X610567Y72239D01*
X610361Y72233D01*
X610355D01*
X610332D01*
X610291D01*
X610244D01*
X610179Y72239D01*
X610109D01*
X610033Y72245D01*
X609945Y72250D01*
X609763Y72268D01*
X609569Y72297D01*
X609375Y72333D01*
X609287Y72356D01*
X609199Y72380D01*
X609194D01*
X609182Y72385D01*
X609158Y72397D01*
X609129Y72409D01*
X609088Y72421D01*
X609047Y72444D01*
X608947Y72491D01*
X608842Y72550D01*
X608730Y72626D01*
X608619Y72714D01*
X608525Y72820D01*
Y72825D01*
X608513Y72831D01*
X608501Y72849D01*
X608489Y72872D01*
X608466Y72902D01*
X608448Y72937D01*
X608401Y73025D01*
X608360Y73131D01*
X608319Y73254D01*
X608296Y73401D01*
X608284Y73559D01*
Y73612D01*
X608290Y73676D01*
X608302Y73752D01*
X608319Y73840D01*
X608343Y73934D01*
X608372Y74034D01*
X608419Y74128D01*
Y74134D01*
X608425Y74140D01*
X608443Y74169D01*
X608472Y74216D01*
X608513Y74275D01*
X608572Y74339D01*
X608636Y74410D01*
X608713Y74474D01*
X608801Y74539D01*
X608812Y74545D01*
X608842Y74568D01*
X608894Y74592D01*
X608971Y74633D01*
X609059Y74668D01*
X609158Y74715D01*
X609276Y74756D01*
X609405Y74791D01*
X609411D01*
X609422Y74797D01*
X609440Y74803D01*
X609469Y74809D01*
X609505Y74815D01*
X609546Y74820D01*
X609599Y74832D01*
X609657Y74838D01*
X609722Y74850D01*
X609792Y74856D01*
X609874Y74861D01*
X609956Y74873D01*
X610050Y74879D01*
X610144D01*
X610250Y74885D01*
X610361D01*
X610367D01*
X610391D01*
X610432D01*
X610479D01*
X610543Y74879D01*
D02*
G37*
G36*
X612362Y70455D02*
X609188D01*
X609194Y70449D01*
X609217Y70420D01*
X609252Y70385D01*
X609293Y70326D01*
X609346Y70261D01*
X609405Y70179D01*
X609469Y70085D01*
X609534Y69980D01*
Y69974D01*
X609540Y69968D01*
X609563Y69933D01*
X609593Y69874D01*
X609628Y69804D01*
X609669Y69722D01*
X609710Y69634D01*
X609751Y69546D01*
X609786Y69458D01*
X609305D01*
Y69464D01*
X609293Y69475D01*
X609287Y69499D01*
X609270Y69528D01*
X609252Y69563D01*
X609229Y69604D01*
X609170Y69704D01*
X609106Y69821D01*
X609023Y69939D01*
X608930Y70062D01*
X608830Y70185D01*
X608824Y70191D01*
X608818Y70197D01*
X608801Y70215D01*
X608783Y70238D01*
X608724Y70291D01*
X608654Y70361D01*
X608572Y70432D01*
X608478Y70508D01*
X608384Y70572D01*
X608284Y70631D01*
Y70954D01*
X612362D01*
Y70455D01*
D02*
G37*
G36*
Y68091D02*
X611517Y67557D01*
X611511D01*
X611499Y67545D01*
X611482Y67533D01*
X611458Y67516D01*
X611394Y67474D01*
X611312Y67422D01*
X611224Y67357D01*
X611130Y67292D01*
X611042Y67228D01*
X610960Y67169D01*
X610954Y67163D01*
X610930Y67146D01*
X610895Y67116D01*
X610854Y67075D01*
X610766Y66987D01*
X610725Y66940D01*
X610690Y66894D01*
X610684Y66888D01*
X610678Y66876D01*
X610666Y66852D01*
X610649Y66817D01*
X610631Y66782D01*
X610614Y66741D01*
X610584Y66647D01*
Y66641D01*
X610578Y66630D01*
Y66606D01*
X610572Y66577D01*
X610567Y66536D01*
Y66489D01*
X610561Y66424D01*
Y65732D01*
X612362D01*
Y65192D01*
X608302D01*
Y67075D01*
X608308Y67122D01*
Y67175D01*
X608313Y67298D01*
X608331Y67428D01*
X608349Y67568D01*
X608378Y67697D01*
X608396Y67762D01*
X608413Y67815D01*
Y67821D01*
X608419Y67826D01*
X608437Y67862D01*
X608460Y67915D01*
X608501Y67979D01*
X608554Y68049D01*
X608624Y68126D01*
X608707Y68196D01*
X608801Y68267D01*
X608806D01*
X608812Y68272D01*
X608847Y68296D01*
X608906Y68319D01*
X608982Y68355D01*
X609070Y68384D01*
X609176Y68413D01*
X609287Y68431D01*
X609411Y68437D01*
X609417D01*
X609428D01*
X609452D01*
X609481Y68431D01*
X609522D01*
X609563Y68425D01*
X609663Y68401D01*
X609780Y68366D01*
X609904Y68319D01*
X610027Y68249D01*
X610085Y68202D01*
X610144Y68155D01*
X610150Y68149D01*
X610156Y68143D01*
X610173Y68126D01*
X610191Y68102D01*
X610215Y68073D01*
X610238Y68038D01*
X610267Y67991D01*
X610303Y67944D01*
X610332Y67885D01*
X610361Y67821D01*
X610396Y67750D01*
X610426Y67674D01*
X610449Y67586D01*
X610479Y67498D01*
X610496Y67398D01*
X610514Y67292D01*
X610520Y67304D01*
X610531Y67328D01*
X610555Y67363D01*
X610578Y67410D01*
X610643Y67516D01*
X610684Y67568D01*
X610719Y67615D01*
X610731Y67627D01*
X610760Y67656D01*
X610807Y67703D01*
X610866Y67762D01*
X610948Y67826D01*
X611036Y67903D01*
X611142Y67979D01*
X611259Y68061D01*
X612362Y68759D01*
Y68091D01*
D02*
G37*
G36*
X834559Y376897D02*
X834571Y376885D01*
X834595Y376862D01*
X834630Y376838D01*
X834671Y376803D01*
X834718Y376756D01*
X834777Y376709D01*
X834847Y376656D01*
X834918Y376603D01*
X835000Y376539D01*
X835094Y376474D01*
X835187Y376410D01*
X835293Y376339D01*
X835405Y376269D01*
X835528Y376199D01*
X835651Y376128D01*
X835657Y376122D01*
X835680Y376111D01*
X835715Y376093D01*
X835768Y376064D01*
X835833Y376034D01*
X835903Y375999D01*
X835985Y375958D01*
X836079Y375917D01*
X836185Y375870D01*
X836290Y375817D01*
X836408Y375770D01*
X836531Y375723D01*
X836783Y375629D01*
X837053Y375541D01*
X837059D01*
X837077Y375536D01*
X837106Y375530D01*
X837141Y375518D01*
X837188Y375506D01*
X837247Y375494D01*
X837311Y375477D01*
X837382Y375465D01*
X837464Y375448D01*
X837552Y375430D01*
X837740Y375401D01*
X837945Y375371D01*
X838168Y375354D01*
Y374843D01*
X838162D01*
X838145D01*
X838121D01*
X838086Y374849D01*
X838039D01*
X837980Y374855D01*
X837916Y374861D01*
X837845Y374867D01*
X837763Y374878D01*
X837681Y374890D01*
X837581Y374908D01*
X837482Y374925D01*
X837376Y374943D01*
X837259Y374966D01*
X837018Y375025D01*
X837012D01*
X836989Y375031D01*
X836953Y375043D01*
X836901Y375060D01*
X836842Y375078D01*
X836772Y375101D01*
X836689Y375125D01*
X836601Y375160D01*
X836502Y375195D01*
X836402Y375230D01*
X836179Y375318D01*
X835944Y375424D01*
X835710Y375541D01*
X835704Y375547D01*
X835680Y375559D01*
X835651Y375577D01*
X835604Y375600D01*
X835551Y375629D01*
X835487Y375671D01*
X835416Y375712D01*
X835340Y375759D01*
X835170Y375870D01*
X834994Y375987D01*
X834812Y376122D01*
X834642Y376263D01*
Y374274D01*
X834161D01*
Y376903D01*
X834554D01*
X834559Y376897D01*
D02*
G37*
G36*
X838168Y372461D02*
X834994D01*
X835000Y372455D01*
X835023Y372426D01*
X835058Y372391D01*
X835099Y372332D01*
X835152Y372267D01*
X835211Y372185D01*
X835275Y372091D01*
X835340Y371986D01*
Y371980D01*
X835346Y371974D01*
X835369Y371939D01*
X835399Y371880D01*
X835434Y371810D01*
X835475Y371728D01*
X835516Y371640D01*
X835557Y371552D01*
X835592Y371464D01*
X835111D01*
Y371469D01*
X835099Y371481D01*
X835094Y371505D01*
X835076Y371534D01*
X835058Y371569D01*
X835035Y371610D01*
X834976Y371710D01*
X834912Y371827D01*
X834829Y371945D01*
X834736Y372068D01*
X834636Y372191D01*
X834630Y372197D01*
X834624Y372203D01*
X834606Y372220D01*
X834589Y372244D01*
X834530Y372297D01*
X834460Y372367D01*
X834378Y372438D01*
X834284Y372514D01*
X834190Y372578D01*
X834090Y372637D01*
Y372960D01*
X838168D01*
Y372461D01*
D02*
G37*
G36*
Y370097D02*
X837323Y369563D01*
X837317D01*
X837306Y369551D01*
X837288Y369539D01*
X837264Y369521D01*
X837200Y369480D01*
X837118Y369428D01*
X837030Y369363D01*
X836936Y369299D01*
X836848Y369234D01*
X836766Y369175D01*
X836760Y369169D01*
X836736Y369152D01*
X836701Y369123D01*
X836660Y369081D01*
X836572Y368993D01*
X836531Y368946D01*
X836496Y368899D01*
X836490Y368894D01*
X836484Y368882D01*
X836472Y368858D01*
X836455Y368823D01*
X836437Y368788D01*
X836420Y368747D01*
X836390Y368653D01*
Y368647D01*
X836384Y368635D01*
Y368612D01*
X836378Y368583D01*
X836373Y368542D01*
Y368495D01*
X836367Y368430D01*
Y367738D01*
X838168D01*
Y367198D01*
X834108D01*
Y369081D01*
X834114Y369128D01*
Y369181D01*
X834119Y369304D01*
X834137Y369434D01*
X834155Y369574D01*
X834184Y369703D01*
X834202Y369768D01*
X834219Y369821D01*
Y369827D01*
X834225Y369832D01*
X834243Y369868D01*
X834266Y369921D01*
X834307Y369985D01*
X834360Y370055D01*
X834430Y370132D01*
X834513Y370202D01*
X834606Y370272D01*
X834612D01*
X834618Y370278D01*
X834653Y370302D01*
X834712Y370325D01*
X834788Y370360D01*
X834876Y370390D01*
X834982Y370419D01*
X835094Y370437D01*
X835217Y370443D01*
X835223D01*
X835234D01*
X835258D01*
X835287Y370437D01*
X835328D01*
X835369Y370431D01*
X835469Y370407D01*
X835586Y370372D01*
X835710Y370325D01*
X835833Y370255D01*
X835891Y370208D01*
X835950Y370161D01*
X835956Y370155D01*
X835962Y370149D01*
X835980Y370132D01*
X835997Y370108D01*
X836021Y370079D01*
X836044Y370044D01*
X836073Y369997D01*
X836108Y369950D01*
X836138Y369891D01*
X836167Y369827D01*
X836202Y369756D01*
X836232Y369680D01*
X836255Y369592D01*
X836285Y369504D01*
X836302Y369404D01*
X836320Y369299D01*
X836326Y369310D01*
X836337Y369334D01*
X836361Y369369D01*
X836384Y369416D01*
X836449Y369521D01*
X836490Y369574D01*
X836525Y369621D01*
X836537Y369633D01*
X836566Y369662D01*
X836613Y369709D01*
X836672Y369768D01*
X836754Y369832D01*
X836842Y369909D01*
X836948Y369985D01*
X837065Y370067D01*
X838168Y370765D01*
Y370097D01*
D02*
G37*
G36*
X897352Y305340D02*
X897399Y305335D01*
X897452Y305329D01*
X897511Y305317D01*
X897575Y305305D01*
X897716Y305270D01*
X897863Y305212D01*
X897939Y305176D01*
X898009Y305135D01*
X898080Y305082D01*
X898150Y305030D01*
X898156Y305024D01*
X898168Y305012D01*
X898186Y304994D01*
X898203Y304971D01*
X898232Y304942D01*
X898262Y304900D01*
X898297Y304859D01*
X898332Y304807D01*
X898367Y304748D01*
X898403Y304689D01*
X898467Y304548D01*
X898520Y304384D01*
X898538Y304296D01*
X898549Y304202D01*
X898051Y304138D01*
Y304144D01*
X898045Y304155D01*
X898039Y304179D01*
X898033Y304208D01*
X898027Y304243D01*
X898015Y304284D01*
X897986Y304372D01*
X897945Y304478D01*
X897892Y304578D01*
X897833Y304672D01*
X897763Y304754D01*
X897751Y304760D01*
X897728Y304783D01*
X897681Y304813D01*
X897622Y304842D01*
X897552Y304877D01*
X897464Y304906D01*
X897364Y304930D01*
X897258Y304936D01*
X897223D01*
X897200Y304930D01*
X897135Y304924D01*
X897053Y304906D01*
X896959Y304877D01*
X896859Y304836D01*
X896760Y304777D01*
X896666Y304695D01*
X896654Y304683D01*
X896625Y304648D01*
X896590Y304595D01*
X896543Y304525D01*
X896496Y304437D01*
X896460Y304337D01*
X896431Y304220D01*
X896419Y304091D01*
Y304085D01*
Y304073D01*
Y304056D01*
X896425Y304032D01*
X896431Y303968D01*
X896449Y303891D01*
X896472Y303797D01*
X896513Y303703D01*
X896572Y303610D01*
X896648Y303522D01*
X896660Y303510D01*
X896689Y303486D01*
X896736Y303451D01*
X896801Y303410D01*
X896883Y303369D01*
X896983Y303334D01*
X897094Y303310D01*
X897217Y303299D01*
X897270D01*
X897311Y303305D01*
X897364Y303310D01*
X897423Y303322D01*
X897493Y303334D01*
X897569Y303351D01*
X897511Y302911D01*
X897481D01*
X897458Y302917D01*
X897382D01*
X897317Y302906D01*
X897241Y302894D01*
X897153Y302876D01*
X897053Y302847D01*
X896959Y302806D01*
X896859Y302753D01*
X896854D01*
X896848Y302747D01*
X896818Y302724D01*
X896777Y302683D01*
X896730Y302630D01*
X896683Y302554D01*
X896642Y302465D01*
X896613Y302366D01*
X896601Y302307D01*
Y302243D01*
Y302237D01*
Y302231D01*
Y302196D01*
X896613Y302149D01*
X896625Y302084D01*
X896648Y302014D01*
X896678Y301937D01*
X896724Y301861D01*
X896789Y301791D01*
X896795Y301785D01*
X896824Y301761D01*
X896865Y301732D01*
X896918Y301697D01*
X896989Y301667D01*
X897071Y301638D01*
X897165Y301615D01*
X897270Y301609D01*
X897317D01*
X897370Y301621D01*
X897440Y301632D01*
X897517Y301656D01*
X897593Y301685D01*
X897675Y301732D01*
X897751Y301791D01*
X897757Y301797D01*
X897781Y301826D01*
X897816Y301867D01*
X897857Y301926D01*
X897898Y302002D01*
X897939Y302096D01*
X897974Y302207D01*
X897998Y302336D01*
X898496Y302248D01*
Y302243D01*
X898491Y302225D01*
X898485Y302201D01*
X898479Y302166D01*
X898467Y302125D01*
X898449Y302078D01*
X898414Y301967D01*
X898356Y301838D01*
X898285Y301709D01*
X898197Y301585D01*
X898086Y301474D01*
X898080Y301468D01*
X898068Y301462D01*
X898051Y301451D01*
X898027Y301433D01*
X897998Y301409D01*
X897957Y301386D01*
X897916Y301362D01*
X897863Y301333D01*
X897745Y301286D01*
X897610Y301239D01*
X897452Y301210D01*
X897370Y301198D01*
X897223D01*
X897159Y301204D01*
X897082Y301216D01*
X896989Y301233D01*
X896883Y301263D01*
X896777Y301298D01*
X896672Y301345D01*
X896666D01*
X896660Y301351D01*
X896625Y301368D01*
X896572Y301404D01*
X896513Y301445D01*
X896443Y301503D01*
X896373Y301568D01*
X896302Y301644D01*
X896243Y301732D01*
X896237Y301744D01*
X896220Y301773D01*
X896196Y301826D01*
X896167Y301891D01*
X896138Y301967D01*
X896114Y302055D01*
X896097Y302155D01*
X896091Y302254D01*
Y302266D01*
Y302301D01*
X896097Y302348D01*
X896108Y302413D01*
X896126Y302489D01*
X896155Y302571D01*
X896191Y302653D01*
X896237Y302735D01*
X896243Y302747D01*
X896261Y302771D01*
X896296Y302812D01*
X896343Y302859D01*
X896402Y302911D01*
X896472Y302970D01*
X896554Y303023D01*
X896654Y303076D01*
X896648D01*
X896637Y303082D01*
X896619Y303088D01*
X896595Y303093D01*
X896531Y303117D01*
X896449Y303152D01*
X896355Y303199D01*
X896261Y303258D01*
X896173Y303334D01*
X896091Y303422D01*
X896085Y303434D01*
X896061Y303469D01*
X896026Y303528D01*
X895991Y303604D01*
X895956Y303698D01*
X895921Y303809D01*
X895897Y303938D01*
X895891Y304079D01*
Y304085D01*
Y304102D01*
Y304132D01*
X895897Y304167D01*
X895903Y304214D01*
X895915Y304267D01*
X895927Y304326D01*
X895938Y304390D01*
X895985Y304531D01*
X896020Y304607D01*
X896056Y304678D01*
X896103Y304754D01*
X896155Y304830D01*
X896214Y304906D01*
X896284Y304977D01*
X896290Y304983D01*
X896302Y304994D01*
X896326Y305012D01*
X896355Y305035D01*
X896390Y305065D01*
X896437Y305094D01*
X896490Y305129D01*
X896554Y305159D01*
X896619Y305194D01*
X896695Y305229D01*
X896771Y305258D01*
X896859Y305288D01*
X896953Y305311D01*
X897053Y305329D01*
X897153Y305340D01*
X897264Y305346D01*
X897317D01*
X897352Y305340D01*
D02*
G37*
G36*
X905596Y301216D02*
X903713D01*
X903666Y301222D01*
X903613D01*
X903490Y301227D01*
X903361Y301245D01*
X903220Y301263D01*
X903091Y301292D01*
X903026Y301310D01*
X902973Y301327D01*
X902967D01*
X902962Y301333D01*
X902926Y301351D01*
X902874Y301374D01*
X902809Y301415D01*
X902739Y301468D01*
X902662Y301539D01*
X902592Y301621D01*
X902522Y301714D01*
Y301720D01*
X902516Y301726D01*
X902492Y301761D01*
X902469Y301820D01*
X902433Y301896D01*
X902404Y301984D01*
X902375Y302090D01*
X902357Y302201D01*
X902351Y302325D01*
Y302331D01*
Y302342D01*
Y302366D01*
X902357Y302395D01*
Y302436D01*
X902363Y302477D01*
X902386Y302577D01*
X902422Y302694D01*
X902469Y302818D01*
X902539Y302941D01*
X902586Y302999D01*
X902633Y303058D01*
X902639Y303064D01*
X902645Y303070D01*
X902662Y303088D01*
X902686Y303105D01*
X902715Y303129D01*
X902750Y303152D01*
X902797Y303181D01*
X902844Y303216D01*
X902903Y303246D01*
X902967Y303275D01*
X903038Y303310D01*
X903114Y303340D01*
X903202Y303363D01*
X903290Y303393D01*
X903390Y303410D01*
X903495Y303428D01*
X903484Y303434D01*
X903460Y303445D01*
X903425Y303469D01*
X903378Y303492D01*
X903272Y303557D01*
X903220Y303598D01*
X903173Y303633D01*
X903161Y303645D01*
X903132Y303674D01*
X903085Y303721D01*
X903026Y303780D01*
X902962Y303862D01*
X902885Y303950D01*
X902809Y304056D01*
X902727Y304173D01*
X902029Y305276D01*
X902698D01*
X903231Y304431D01*
Y304425D01*
X903243Y304414D01*
X903255Y304396D01*
X903272Y304372D01*
X903314Y304308D01*
X903366Y304226D01*
X903431Y304138D01*
X903495Y304044D01*
X903560Y303956D01*
X903619Y303874D01*
X903625Y303868D01*
X903642Y303844D01*
X903671Y303809D01*
X903713Y303768D01*
X903801Y303680D01*
X903848Y303639D01*
X903895Y303604D01*
X903900Y303598D01*
X903912Y303592D01*
X903935Y303580D01*
X903971Y303563D01*
X904006Y303545D01*
X904047Y303528D01*
X904141Y303498D01*
X904147D01*
X904158Y303492D01*
X904182D01*
X904211Y303486D01*
X904252Y303481D01*
X904299D01*
X904364Y303475D01*
X905056D01*
Y305276D01*
X905596D01*
Y301216D01*
D02*
G37*
G36*
X900333Y302102D02*
X900339Y302108D01*
X900368Y302131D01*
X900403Y302166D01*
X900462Y302207D01*
X900527Y302260D01*
X900609Y302319D01*
X900703Y302383D01*
X900808Y302448D01*
X900814D01*
X900820Y302454D01*
X900855Y302477D01*
X900914Y302507D01*
X900984Y302542D01*
X901066Y302583D01*
X901154Y302624D01*
X901242Y302665D01*
X901330Y302700D01*
Y302219D01*
X901324D01*
X901313Y302207D01*
X901289Y302201D01*
X901260Y302184D01*
X901225Y302166D01*
X901184Y302143D01*
X901084Y302084D01*
X900967Y302020D01*
X900849Y301937D01*
X900726Y301844D01*
X900603Y301744D01*
X900597Y301738D01*
X900591Y301732D01*
X900574Y301714D01*
X900550Y301697D01*
X900497Y301638D01*
X900427Y301568D01*
X900356Y301486D01*
X900280Y301392D01*
X900216Y301298D01*
X900157Y301198D01*
X899834D01*
Y305276D01*
X900333D01*
Y302102D01*
D02*
G37*
G36*
X481982Y186723D02*
X482023D01*
X482070Y186717D01*
X482181Y186693D01*
X482304Y186664D01*
X482433Y186617D01*
X482562Y186552D01*
X482627Y186511D01*
X482686Y186464D01*
X482691Y186458D01*
X482697Y186453D01*
X482715Y186435D01*
X482733Y186417D01*
X482756Y186388D01*
X482785Y186353D01*
X482844Y186271D01*
X482903Y186165D01*
X482961Y186036D01*
X483008Y185889D01*
X483044Y185719D01*
X482562Y185678D01*
Y185684D01*
X482556Y185696D01*
Y185707D01*
X482551Y185731D01*
X482533Y185795D01*
X482510Y185866D01*
X482480Y185948D01*
X482439Y186030D01*
X482392Y186106D01*
X482334Y186171D01*
X482328Y186177D01*
X482304Y186194D01*
X482263Y186218D01*
X482216Y186241D01*
X482152Y186271D01*
X482075Y186294D01*
X481987Y186312D01*
X481894Y186318D01*
X481852D01*
X481811Y186312D01*
X481758Y186306D01*
X481694Y186294D01*
X481629Y186277D01*
X481559Y186253D01*
X481494Y186218D01*
X481489Y186212D01*
X481465Y186200D01*
X481430Y186177D01*
X481395Y186142D01*
X481348Y186101D01*
X481301Y186054D01*
X481254Y186001D01*
X481207Y185936D01*
X481201Y185930D01*
X481189Y185901D01*
X481166Y185860D01*
X481143Y185807D01*
X481113Y185737D01*
X481084Y185655D01*
X481054Y185561D01*
X481025Y185455D01*
Y185449D01*
X481019Y185443D01*
Y185426D01*
X481013Y185402D01*
X481002Y185344D01*
X480984Y185267D01*
X480972Y185173D01*
X480961Y185074D01*
X480955Y184962D01*
X480949Y184845D01*
Y184839D01*
Y184821D01*
Y184792D01*
Y184745D01*
X480955Y184757D01*
X480978Y184786D01*
X481013Y184827D01*
X481054Y184886D01*
X481113Y184945D01*
X481184Y185009D01*
X481266Y185074D01*
X481360Y185133D01*
X481371Y185138D01*
X481407Y185156D01*
X481459Y185179D01*
X481524Y185203D01*
X481612Y185232D01*
X481706Y185256D01*
X481811Y185273D01*
X481923Y185279D01*
X481970D01*
X482005Y185273D01*
X482052Y185267D01*
X482099Y185262D01*
X482158Y185250D01*
X482216Y185232D01*
X482351Y185191D01*
X482422Y185162D01*
X482492Y185127D01*
X482568Y185086D01*
X482639Y185033D01*
X482709Y184980D01*
X482774Y184915D01*
X482780Y184909D01*
X482791Y184898D01*
X482803Y184880D01*
X482826Y184851D01*
X482856Y184810D01*
X482885Y184769D01*
X482914Y184716D01*
X482944Y184657D01*
X482979Y184593D01*
X483008Y184522D01*
X483038Y184440D01*
X483067Y184358D01*
X483090Y184264D01*
X483102Y184164D01*
X483114Y184065D01*
X483120Y183953D01*
Y183947D01*
Y183924D01*
Y183895D01*
X483114Y183853D01*
X483108Y183801D01*
X483102Y183736D01*
X483090Y183671D01*
X483073Y183595D01*
X483032Y183443D01*
X483002Y183361D01*
X482967Y183272D01*
X482926Y183190D01*
X482873Y183114D01*
X482821Y183032D01*
X482756Y182962D01*
X482750Y182956D01*
X482738Y182944D01*
X482721Y182926D01*
X482691Y182903D01*
X482656Y182873D01*
X482609Y182838D01*
X482562Y182809D01*
X482504Y182768D01*
X482445Y182733D01*
X482375Y182703D01*
X482216Y182639D01*
X482134Y182615D01*
X482040Y182598D01*
X481946Y182586D01*
X481847Y182580D01*
X481805D01*
X481776Y182586D01*
X481747D01*
X481706Y182592D01*
X481606Y182610D01*
X481494Y182633D01*
X481371Y182674D01*
X481248Y182727D01*
X481125Y182797D01*
X481119D01*
X481113Y182809D01*
X481096Y182821D01*
X481072Y182838D01*
X481013Y182885D01*
X480937Y182950D01*
X480861Y183038D01*
X480773Y183143D01*
X480696Y183267D01*
X480626Y183407D01*
Y183413D01*
X480620Y183425D01*
X480608Y183449D01*
X480597Y183478D01*
X480585Y183519D01*
X480568Y183572D01*
X480556Y183630D01*
X480538Y183695D01*
X480521Y183771D01*
X480503Y183859D01*
X480491Y183953D01*
X480480Y184053D01*
X480468Y184164D01*
X480456Y184282D01*
X480450Y184411D01*
Y184546D01*
Y184552D01*
Y184581D01*
Y184622D01*
Y184675D01*
X480456Y184739D01*
Y184816D01*
X480462Y184904D01*
X480474Y184992D01*
X480491Y185191D01*
X480521Y185402D01*
X480562Y185602D01*
X480591Y185702D01*
X480620Y185790D01*
Y185795D01*
X480626Y185807D01*
X480638Y185831D01*
X480650Y185866D01*
X480667Y185901D01*
X480691Y185948D01*
X480749Y186048D01*
X480820Y186159D01*
X480902Y186277D01*
X481007Y186388D01*
X481125Y186488D01*
X481131D01*
X481143Y186500D01*
X481160Y186511D01*
X481184Y186523D01*
X481219Y186541D01*
X481254Y186564D01*
X481301Y186588D01*
X481348Y186605D01*
X481459Y186652D01*
X481594Y186693D01*
X481741Y186717D01*
X481905Y186728D01*
X481952D01*
X481982Y186723D01*
D02*
G37*
G36*
X487004Y182598D02*
X485121D01*
X485074Y182604D01*
X485021D01*
X484898Y182610D01*
X484768Y182627D01*
X484628Y182645D01*
X484499Y182674D01*
X484434Y182692D01*
X484381Y182709D01*
X484375D01*
X484370Y182715D01*
X484334Y182733D01*
X484282Y182756D01*
X484217Y182797D01*
X484147Y182850D01*
X484070Y182920D01*
X484000Y183003D01*
X483929Y183097D01*
Y183102D01*
X483924Y183108D01*
X483900Y183143D01*
X483877Y183202D01*
X483842Y183278D01*
X483812Y183366D01*
X483783Y183472D01*
X483765Y183584D01*
X483759Y183707D01*
Y183713D01*
Y183724D01*
Y183748D01*
X483765Y183777D01*
Y183818D01*
X483771Y183859D01*
X483795Y183959D01*
X483830Y184076D01*
X483877Y184200D01*
X483947Y184323D01*
X483994Y184381D01*
X484041Y184440D01*
X484047Y184446D01*
X484053Y184452D01*
X484070Y184470D01*
X484094Y184487D01*
X484123Y184510D01*
X484158Y184534D01*
X484205Y184563D01*
X484252Y184599D01*
X484311Y184628D01*
X484375Y184657D01*
X484446Y184692D01*
X484522Y184722D01*
X484610Y184745D01*
X484698Y184775D01*
X484798Y184792D01*
X484903Y184810D01*
X484892Y184816D01*
X484868Y184827D01*
X484833Y184851D01*
X484786Y184874D01*
X484680Y184939D01*
X484628Y184980D01*
X484581Y185015D01*
X484569Y185027D01*
X484540Y185056D01*
X484493Y185103D01*
X484434Y185162D01*
X484370Y185244D01*
X484293Y185332D01*
X484217Y185438D01*
X484135Y185555D01*
X483437Y186658D01*
X484105D01*
X484639Y185813D01*
Y185807D01*
X484651Y185795D01*
X484663Y185778D01*
X484680Y185754D01*
X484722Y185690D01*
X484774Y185608D01*
X484839Y185520D01*
X484903Y185426D01*
X484968Y185338D01*
X485027Y185256D01*
X485033Y185250D01*
X485050Y185226D01*
X485079Y185191D01*
X485121Y185150D01*
X485209Y185062D01*
X485256Y185021D01*
X485303Y184986D01*
X485308Y184980D01*
X485320Y184974D01*
X485344Y184962D01*
X485379Y184945D01*
X485414Y184927D01*
X485455Y184909D01*
X485549Y184880D01*
X485555D01*
X485566Y184874D01*
X485590D01*
X485619Y184868D01*
X485660Y184863D01*
X485707D01*
X485772Y184857D01*
X486464D01*
Y186658D01*
X487004D01*
Y182598D01*
D02*
G37*
G36*
X884006Y399006D02*
X882123D01*
X882076Y399012D01*
X882023D01*
X881900Y399017D01*
X881770Y399035D01*
X881630Y399053D01*
X881501Y399082D01*
X881436Y399100D01*
X881383Y399117D01*
X881377D01*
X881372Y399123D01*
X881336Y399141D01*
X881283Y399164D01*
X881219Y399205D01*
X881149Y399258D01*
X881072Y399328D01*
X881002Y399411D01*
X880931Y399505D01*
Y399510D01*
X880926Y399516D01*
X880902Y399551D01*
X880879Y399610D01*
X880844Y399686D01*
X880814Y399774D01*
X880785Y399880D01*
X880767Y399991D01*
X880761Y400115D01*
Y400121D01*
Y400132D01*
Y400156D01*
X880767Y400185D01*
Y400226D01*
X880773Y400267D01*
X880797Y400367D01*
X880832Y400484D01*
X880879Y400608D01*
X880949Y400731D01*
X880996Y400789D01*
X881043Y400848D01*
X881049Y400854D01*
X881055Y400860D01*
X881072Y400877D01*
X881096Y400895D01*
X881125Y400919D01*
X881160Y400942D01*
X881207Y400971D01*
X881254Y401007D01*
X881313Y401036D01*
X881377Y401065D01*
X881448Y401100D01*
X881524Y401130D01*
X881612Y401153D01*
X881700Y401183D01*
X881800Y401200D01*
X881906Y401218D01*
X881894Y401224D01*
X881870Y401235D01*
X881835Y401259D01*
X881788Y401282D01*
X881683Y401347D01*
X881630Y401388D01*
X881583Y401423D01*
X881571Y401435D01*
X881542Y401464D01*
X881495Y401511D01*
X881436Y401570D01*
X881372Y401652D01*
X881295Y401740D01*
X881219Y401846D01*
X881137Y401963D01*
X880439Y403066D01*
X881107D01*
X881641Y402221D01*
Y402215D01*
X881653Y402203D01*
X881665Y402186D01*
X881683Y402162D01*
X881724Y402098D01*
X881776Y402016D01*
X881841Y401928D01*
X881906Y401834D01*
X881970Y401746D01*
X882029Y401664D01*
X882035Y401658D01*
X882052Y401634D01*
X882082Y401599D01*
X882123Y401558D01*
X882211Y401470D01*
X882258Y401429D01*
X882305Y401394D01*
X882310Y401388D01*
X882322Y401382D01*
X882346Y401370D01*
X882381Y401353D01*
X882416Y401335D01*
X882457Y401317D01*
X882551Y401288D01*
X882557D01*
X882569Y401282D01*
X882592D01*
X882621Y401276D01*
X882662Y401271D01*
X882709D01*
X882774Y401265D01*
X883466D01*
Y403066D01*
X884006D01*
Y399006D01*
D02*
G37*
G36*
X875369Y402092D02*
X877135D01*
Y401634D01*
X875275Y399006D01*
X874871D01*
Y401634D01*
X874319D01*
Y402092D01*
X874871D01*
Y403066D01*
X875369D01*
Y402092D01*
D02*
G37*
G36*
X878743Y399892D02*
X878749Y399898D01*
X878778Y399921D01*
X878813Y399956D01*
X878872Y399997D01*
X878937Y400050D01*
X879019Y400109D01*
X879113Y400173D01*
X879218Y400238D01*
X879224D01*
X879230Y400244D01*
X879265Y400267D01*
X879324Y400297D01*
X879394Y400332D01*
X879476Y400373D01*
X879564Y400414D01*
X879652Y400455D01*
X879740Y400490D01*
Y400009D01*
X879734D01*
X879723Y399997D01*
X879699Y399991D01*
X879670Y399974D01*
X879635Y399956D01*
X879594Y399933D01*
X879494Y399874D01*
X879377Y399810D01*
X879259Y399727D01*
X879136Y399634D01*
X879013Y399534D01*
X879007Y399528D01*
X879001Y399522D01*
X878984Y399505D01*
X878960Y399487D01*
X878907Y399428D01*
X878837Y399358D01*
X878766Y399276D01*
X878690Y399182D01*
X878626Y399088D01*
X878567Y398988D01*
X878244D01*
Y403066D01*
X878743D01*
Y399892D01*
D02*
G37*
G36*
X486285Y510078D02*
X486332Y510072D01*
X486385Y510060D01*
X486443Y510048D01*
X486508Y510037D01*
X486649Y509990D01*
X486725Y509954D01*
X486796Y509919D01*
X486872Y509872D01*
X486948Y509819D01*
X487024Y509761D01*
X487095Y509690D01*
X487101Y509685D01*
X487112Y509673D01*
X487130Y509649D01*
X487153Y509620D01*
X487183Y509585D01*
X487212Y509538D01*
X487247Y509485D01*
X487277Y509421D01*
X487312Y509356D01*
X487347Y509280D01*
X487376Y509203D01*
X487406Y509115D01*
X487429Y509022D01*
X487447Y508922D01*
X487458Y508822D01*
X487464Y508711D01*
Y508658D01*
X487458Y508623D01*
X487453Y508576D01*
X487447Y508523D01*
X487435Y508464D01*
X487423Y508400D01*
X487388Y508259D01*
X487329Y508112D01*
X487294Y508036D01*
X487253Y507965D01*
X487200Y507895D01*
X487148Y507825D01*
X487142Y507819D01*
X487130Y507807D01*
X487112Y507789D01*
X487089Y507772D01*
X487060Y507743D01*
X487019Y507713D01*
X486977Y507678D01*
X486925Y507643D01*
X486866Y507607D01*
X486807Y507572D01*
X486666Y507508D01*
X486502Y507455D01*
X486414Y507437D01*
X486320Y507426D01*
X486256Y507924D01*
X486262D01*
X486273Y507930D01*
X486297Y507936D01*
X486326Y507942D01*
X486361Y507948D01*
X486402Y507960D01*
X486490Y507989D01*
X486596Y508030D01*
X486696Y508083D01*
X486790Y508142D01*
X486872Y508212D01*
X486878Y508224D01*
X486901Y508247D01*
X486931Y508294D01*
X486960Y508353D01*
X486995Y508423D01*
X487024Y508511D01*
X487048Y508611D01*
X487054Y508717D01*
Y508752D01*
X487048Y508775D01*
X487042Y508840D01*
X487024Y508922D01*
X486995Y509016D01*
X486954Y509115D01*
X486895Y509215D01*
X486813Y509309D01*
X486801Y509321D01*
X486766Y509350D01*
X486713Y509385D01*
X486643Y509432D01*
X486555Y509479D01*
X486455Y509514D01*
X486338Y509544D01*
X486209Y509556D01*
X486203D01*
X486191D01*
X486174D01*
X486150Y509550D01*
X486086Y509544D01*
X486009Y509526D01*
X485915Y509503D01*
X485821Y509462D01*
X485728Y509403D01*
X485640Y509327D01*
X485628Y509315D01*
X485604Y509286D01*
X485569Y509239D01*
X485528Y509174D01*
X485487Y509092D01*
X485452Y508992D01*
X485428Y508881D01*
X485417Y508758D01*
Y508705D01*
X485423Y508664D01*
X485428Y508611D01*
X485440Y508552D01*
X485452Y508482D01*
X485470Y508405D01*
X485029Y508464D01*
Y508493D01*
X485035Y508517D01*
Y508593D01*
X485024Y508658D01*
X485012Y508734D01*
X484994Y508822D01*
X484965Y508922D01*
X484924Y509016D01*
X484871Y509115D01*
Y509121D01*
X484865Y509127D01*
X484842Y509156D01*
X484801Y509198D01*
X484748Y509244D01*
X484672Y509291D01*
X484584Y509333D01*
X484484Y509362D01*
X484425Y509374D01*
X484361D01*
X484355D01*
X484349D01*
X484314D01*
X484267Y509362D01*
X484202Y509350D01*
X484132Y509327D01*
X484055Y509297D01*
X483979Y509250D01*
X483909Y509186D01*
X483903Y509180D01*
X483879Y509151D01*
X483850Y509110D01*
X483815Y509057D01*
X483786Y508986D01*
X483756Y508904D01*
X483733Y508810D01*
X483727Y508705D01*
Y508658D01*
X483739Y508605D01*
X483750Y508535D01*
X483774Y508458D01*
X483803Y508382D01*
X483850Y508300D01*
X483909Y508224D01*
X483915Y508218D01*
X483944Y508194D01*
X483985Y508159D01*
X484044Y508118D01*
X484120Y508077D01*
X484214Y508036D01*
X484325Y508001D01*
X484454Y507977D01*
X484366Y507478D01*
X484361D01*
X484343Y507484D01*
X484319Y507490D01*
X484284Y507496D01*
X484243Y507508D01*
X484196Y507525D01*
X484085Y507561D01*
X483956Y507619D01*
X483827Y507690D01*
X483703Y507778D01*
X483592Y507889D01*
X483586Y507895D01*
X483580Y507907D01*
X483568Y507924D01*
X483551Y507948D01*
X483527Y507977D01*
X483504Y508018D01*
X483480Y508059D01*
X483451Y508112D01*
X483404Y508229D01*
X483357Y508364D01*
X483328Y508523D01*
X483316Y508605D01*
Y508752D01*
X483322Y508816D01*
X483334Y508893D01*
X483351Y508986D01*
X483381Y509092D01*
X483416Y509198D01*
X483463Y509303D01*
Y509309D01*
X483469Y509315D01*
X483486Y509350D01*
X483521Y509403D01*
X483563Y509462D01*
X483621Y509532D01*
X483686Y509602D01*
X483762Y509673D01*
X483850Y509731D01*
X483862Y509737D01*
X483891Y509755D01*
X483944Y509779D01*
X484008Y509808D01*
X484085Y509837D01*
X484173Y509861D01*
X484272Y509878D01*
X484372Y509884D01*
X484384D01*
X484419D01*
X484466Y509878D01*
X484531Y509866D01*
X484607Y509849D01*
X484689Y509819D01*
X484771Y509784D01*
X484853Y509737D01*
X484865Y509731D01*
X484889Y509714D01*
X484930Y509679D01*
X484977Y509632D01*
X485029Y509573D01*
X485088Y509503D01*
X485141Y509421D01*
X485194Y509321D01*
Y509327D01*
X485200Y509338D01*
X485205Y509356D01*
X485211Y509380D01*
X485235Y509444D01*
X485270Y509526D01*
X485317Y509620D01*
X485376Y509714D01*
X485452Y509802D01*
X485540Y509884D01*
X485552Y509890D01*
X485587Y509913D01*
X485645Y509949D01*
X485722Y509984D01*
X485816Y510019D01*
X485927Y510054D01*
X486056Y510078D01*
X486197Y510084D01*
X486203D01*
X486221D01*
X486250D01*
X486285Y510078D01*
D02*
G37*
G36*
X487394Y506434D02*
X486549Y505900D01*
X486543D01*
X486531Y505888D01*
X486514Y505877D01*
X486490Y505859D01*
X486426Y505818D01*
X486344Y505765D01*
X486256Y505701D01*
X486162Y505636D01*
X486074Y505572D01*
X485992Y505513D01*
X485986Y505507D01*
X485962Y505489D01*
X485927Y505460D01*
X485886Y505419D01*
X485798Y505331D01*
X485757Y505284D01*
X485722Y505237D01*
X485716Y505231D01*
X485710Y505219D01*
X485698Y505196D01*
X485681Y505161D01*
X485663Y505126D01*
X485645Y505084D01*
X485616Y504991D01*
Y504985D01*
X485610Y504973D01*
Y504950D01*
X485604Y504920D01*
X485599Y504879D01*
Y504832D01*
X485593Y504768D01*
Y504075D01*
X487394D01*
Y503535D01*
X483334D01*
Y505419D01*
X483340Y505466D01*
Y505519D01*
X483345Y505642D01*
X483363Y505771D01*
X483381Y505912D01*
X483410Y506041D01*
X483428Y506105D01*
X483445Y506158D01*
Y506164D01*
X483451Y506170D01*
X483469Y506205D01*
X483492Y506258D01*
X483533Y506323D01*
X483586Y506393D01*
X483657Y506469D01*
X483739Y506540D01*
X483833Y506610D01*
X483838D01*
X483844Y506616D01*
X483879Y506639D01*
X483938Y506663D01*
X484014Y506698D01*
X484102Y506727D01*
X484208Y506757D01*
X484319Y506774D01*
X484443Y506780D01*
X484449D01*
X484460D01*
X484484D01*
X484513Y506774D01*
X484554D01*
X484595Y506768D01*
X484695Y506745D01*
X484812Y506710D01*
X484936Y506663D01*
X485059Y506592D01*
X485117Y506545D01*
X485176Y506499D01*
X485182Y506493D01*
X485188Y506487D01*
X485205Y506469D01*
X485223Y506446D01*
X485247Y506416D01*
X485270Y506381D01*
X485299Y506334D01*
X485335Y506287D01*
X485364Y506229D01*
X485393Y506164D01*
X485428Y506094D01*
X485458Y506017D01*
X485481Y505929D01*
X485511Y505841D01*
X485528Y505742D01*
X485546Y505636D01*
X485552Y505648D01*
X485563Y505671D01*
X485587Y505706D01*
X485610Y505753D01*
X485675Y505859D01*
X485716Y505912D01*
X485751Y505959D01*
X485763Y505970D01*
X485792Y506000D01*
X485839Y506047D01*
X485898Y506105D01*
X485980Y506170D01*
X486068Y506246D01*
X486174Y506323D01*
X486291Y506405D01*
X487394Y507103D01*
Y506434D01*
D02*
G37*
G36*
X937219Y334508D02*
X937266Y334502D01*
X937319Y334496D01*
X937383Y334485D01*
X937448Y334473D01*
X937600Y334438D01*
X937759Y334379D01*
X937841Y334344D01*
X937917Y334297D01*
X937999Y334250D01*
X938075Y334191D01*
X938081Y334185D01*
X938099Y334174D01*
X938122Y334150D01*
X938152Y334121D01*
X938187Y334080D01*
X938234Y334033D01*
X938275Y333974D01*
X938322Y333910D01*
X938369Y333839D01*
X938410Y333757D01*
X938451Y333669D01*
X938492Y333575D01*
X938521Y333475D01*
X938545Y333364D01*
X938562Y333247D01*
X938568Y333123D01*
Y333071D01*
X938562Y333030D01*
X938557Y332983D01*
X938551Y332930D01*
X938545Y332865D01*
X938527Y332801D01*
X938492Y332654D01*
X938439Y332507D01*
X938404Y332431D01*
X938363Y332355D01*
X938316Y332284D01*
X938263Y332214D01*
X938257Y332208D01*
X938252Y332196D01*
X938228Y332185D01*
X938205Y332161D01*
X938175Y332132D01*
X938140Y332103D01*
X938093Y332067D01*
X938040Y332038D01*
X937988Y332003D01*
X937923Y331968D01*
X937782Y331903D01*
X937618Y331850D01*
X937530Y331833D01*
X937436Y331821D01*
X937395Y332343D01*
X937401D01*
X937412D01*
X937430Y332349D01*
X937459Y332355D01*
X937524Y332372D01*
X937612Y332396D01*
X937700Y332431D01*
X937800Y332478D01*
X937888Y332537D01*
X937970Y332607D01*
X937976Y332619D01*
X937999Y332642D01*
X938029Y332689D01*
X938064Y332754D01*
X938099Y332824D01*
X938128Y332912D01*
X938152Y333012D01*
X938158Y333123D01*
Y333159D01*
X938152Y333182D01*
X938146Y333252D01*
X938122Y333335D01*
X938093Y333434D01*
X938046Y333534D01*
X937976Y333640D01*
X937935Y333687D01*
X937888Y333734D01*
X937882Y333740D01*
X937876Y333745D01*
X937858Y333757D01*
X937841Y333775D01*
X937776Y333816D01*
X937694Y333863D01*
X937594Y333904D01*
X937471Y333945D01*
X937325Y333974D01*
X937248Y333986D01*
X937166D01*
X937160D01*
X937149D01*
X937125D01*
X937096Y333980D01*
X937060D01*
X937019Y333974D01*
X936926Y333957D01*
X936814Y333927D01*
X936703Y333886D01*
X936597Y333828D01*
X936497Y333745D01*
X936491D01*
X936486Y333734D01*
X936456Y333704D01*
X936415Y333652D01*
X936368Y333581D01*
X936327Y333487D01*
X936286Y333382D01*
X936257Y333258D01*
X936245Y333188D01*
Y333077D01*
X936251Y333030D01*
X936257Y332971D01*
X936274Y332901D01*
X936292Y332830D01*
X936321Y332754D01*
X936356Y332677D01*
X936362Y332672D01*
X936374Y332648D01*
X936403Y332613D01*
X936433Y332566D01*
X936474Y332519D01*
X936526Y332472D01*
X936579Y332419D01*
X936644Y332378D01*
X936579Y331909D01*
X934491Y332302D01*
Y334320D01*
X934966D01*
Y332695D01*
X936063Y332478D01*
X936057Y332484D01*
X936051Y332496D01*
X936040Y332513D01*
X936022Y332543D01*
X936004Y332578D01*
X935981Y332619D01*
X935934Y332713D01*
X935887Y332830D01*
X935846Y332959D01*
X935817Y333100D01*
X935805Y333170D01*
Y333299D01*
X935811Y333335D01*
X935817Y333382D01*
X935823Y333434D01*
X935834Y333493D01*
X935852Y333558D01*
X935893Y333698D01*
X935922Y333775D01*
X935963Y333851D01*
X936004Y333927D01*
X936051Y334003D01*
X936110Y334074D01*
X936174Y334144D01*
X936180Y334150D01*
X936192Y334162D01*
X936210Y334180D01*
X936239Y334203D01*
X936280Y334232D01*
X936321Y334262D01*
X936374Y334297D01*
X936433Y334332D01*
X936497Y334361D01*
X936568Y334397D01*
X936650Y334426D01*
X936732Y334455D01*
X936820Y334479D01*
X936920Y334496D01*
X937019Y334508D01*
X937125Y334514D01*
X937131D01*
X937149D01*
X937178D01*
X937219Y334508D01*
D02*
G37*
G36*
X938498Y330043D02*
X935324D01*
X935330Y330037D01*
X935353Y330008D01*
X935388Y329973D01*
X935429Y329914D01*
X935482Y329849D01*
X935541Y329767D01*
X935605Y329673D01*
X935670Y329568D01*
Y329562D01*
X935676Y329556D01*
X935699Y329521D01*
X935729Y329462D01*
X935764Y329392D01*
X935805Y329310D01*
X935846Y329222D01*
X935887Y329134D01*
X935922Y329046D01*
X935441D01*
Y329052D01*
X935429Y329063D01*
X935424Y329087D01*
X935406Y329116D01*
X935388Y329151D01*
X935365Y329192D01*
X935306Y329292D01*
X935242Y329409D01*
X935159Y329527D01*
X935066Y329650D01*
X934966Y329773D01*
X934960Y329779D01*
X934954Y329785D01*
X934937Y329803D01*
X934919Y329826D01*
X934860Y329879D01*
X934790Y329949D01*
X934708Y330020D01*
X934614Y330096D01*
X934520Y330160D01*
X934420Y330219D01*
Y330542D01*
X938498D01*
Y330043D01*
D02*
G37*
G36*
Y327678D02*
X937653Y327145D01*
X937647D01*
X937635Y327133D01*
X937618Y327121D01*
X937594Y327104D01*
X937530Y327062D01*
X937448Y327010D01*
X937360Y326945D01*
X937266Y326880D01*
X937178Y326816D01*
X937096Y326757D01*
X937090Y326751D01*
X937066Y326734D01*
X937031Y326704D01*
X936990Y326663D01*
X936902Y326575D01*
X936861Y326529D01*
X936826Y326482D01*
X936820Y326476D01*
X936814Y326464D01*
X936802Y326441D01*
X936785Y326405D01*
X936767Y326370D01*
X936749Y326329D01*
X936720Y326235D01*
Y326229D01*
X936714Y326217D01*
Y326194D01*
X936708Y326165D01*
X936703Y326124D01*
Y326077D01*
X936697Y326012D01*
Y325320D01*
X938498D01*
Y324780D01*
X934438D01*
Y326663D01*
X934444Y326710D01*
Y326763D01*
X934449Y326886D01*
X934467Y327015D01*
X934485Y327156D01*
X934514Y327285D01*
X934532Y327350D01*
X934549Y327403D01*
Y327409D01*
X934555Y327415D01*
X934573Y327450D01*
X934596Y327503D01*
X934637Y327567D01*
X934690Y327637D01*
X934761Y327714D01*
X934843Y327784D01*
X934937Y327854D01*
X934942D01*
X934948Y327860D01*
X934983Y327884D01*
X935042Y327907D01*
X935118Y327943D01*
X935206Y327972D01*
X935312Y328001D01*
X935424Y328019D01*
X935547Y328025D01*
X935553D01*
X935564D01*
X935588D01*
X935617Y328019D01*
X935658D01*
X935699Y328013D01*
X935799Y327990D01*
X935916Y327954D01*
X936040Y327907D01*
X936163Y327837D01*
X936221Y327790D01*
X936280Y327743D01*
X936286Y327737D01*
X936292Y327731D01*
X936310Y327714D01*
X936327Y327690D01*
X936350Y327661D01*
X936374Y327626D01*
X936403Y327579D01*
X936439Y327532D01*
X936468Y327473D01*
X936497Y327409D01*
X936532Y327338D01*
X936562Y327262D01*
X936585Y327174D01*
X936615Y327086D01*
X936632Y326986D01*
X936650Y326880D01*
X936656Y326892D01*
X936667Y326916D01*
X936691Y326951D01*
X936714Y326998D01*
X936779Y327104D01*
X936820Y327156D01*
X936855Y327203D01*
X936867Y327215D01*
X936896Y327244D01*
X936943Y327291D01*
X937002Y327350D01*
X937084Y327415D01*
X937172Y327491D01*
X937278Y327567D01*
X937395Y327649D01*
X938498Y328347D01*
Y327678D01*
D02*
G37*
G36*
X354753Y498708D02*
X354765Y498696D01*
X354789Y498673D01*
X354824Y498649D01*
X354865Y498614D01*
X354912Y498567D01*
X354971Y498520D01*
X355041Y498468D01*
X355112Y498415D01*
X355194Y498350D01*
X355288Y498286D01*
X355381Y498221D01*
X355487Y498151D01*
X355598Y498080D01*
X355722Y498010D01*
X355845Y497939D01*
X355851Y497934D01*
X355874Y497922D01*
X355909Y497904D01*
X355962Y497875D01*
X356027Y497846D01*
X356097Y497810D01*
X356179Y497769D01*
X356273Y497728D01*
X356379Y497681D01*
X356484Y497629D01*
X356602Y497582D01*
X356725Y497535D01*
X356977Y497441D01*
X357247Y497353D01*
X357253D01*
X357271Y497347D01*
X357300Y497341D01*
X357335Y497329D01*
X357382Y497318D01*
X357441Y497306D01*
X357505Y497288D01*
X357576Y497276D01*
X357658Y497259D01*
X357746Y497241D01*
X357934Y497212D01*
X358139Y497183D01*
X358362Y497165D01*
Y496655D01*
X358356D01*
X358339D01*
X358315D01*
X358280Y496660D01*
X358233D01*
X358174Y496666D01*
X358110Y496672D01*
X358039Y496678D01*
X357957Y496690D01*
X357875Y496702D01*
X357775Y496719D01*
X357676Y496737D01*
X357570Y496754D01*
X357453Y496778D01*
X357212Y496836D01*
X357206D01*
X357183Y496842D01*
X357147Y496854D01*
X357095Y496872D01*
X357036Y496889D01*
X356966Y496913D01*
X356883Y496936D01*
X356795Y496971D01*
X356696Y497007D01*
X356596Y497042D01*
X356373Y497130D01*
X356138Y497235D01*
X355904Y497353D01*
X355898Y497359D01*
X355874Y497370D01*
X355845Y497388D01*
X355798Y497411D01*
X355745Y497441D01*
X355681Y497482D01*
X355610Y497523D01*
X355534Y497570D01*
X355364Y497681D01*
X355188Y497799D01*
X355006Y497934D01*
X354836Y498074D01*
Y496085D01*
X354355D01*
Y498714D01*
X354748D01*
X354753Y498708D01*
D02*
G37*
G36*
X358362Y495065D02*
X357517Y494531D01*
X357511D01*
X357500Y494519D01*
X357482Y494507D01*
X357458Y494490D01*
X357394Y494448D01*
X357312Y494396D01*
X357224Y494331D01*
X357130Y494267D01*
X357042Y494202D01*
X356960Y494143D01*
X356954Y494137D01*
X356930Y494120D01*
X356895Y494090D01*
X356854Y494049D01*
X356766Y493961D01*
X356725Y493914D01*
X356690Y493867D01*
X356684Y493862D01*
X356678Y493850D01*
X356666Y493826D01*
X356649Y493791D01*
X356631Y493756D01*
X356614Y493715D01*
X356584Y493621D01*
Y493615D01*
X356578Y493604D01*
Y493580D01*
X356572Y493551D01*
X356567Y493510D01*
Y493463D01*
X356561Y493398D01*
Y492706D01*
X358362D01*
Y492166D01*
X354302D01*
Y494049D01*
X354308Y494096D01*
Y494149D01*
X354314Y494272D01*
X354331Y494402D01*
X354349Y494542D01*
X354378Y494671D01*
X354396Y494736D01*
X354413Y494789D01*
Y494795D01*
X354419Y494800D01*
X354437Y494836D01*
X354460Y494888D01*
X354501Y494953D01*
X354554Y495023D01*
X354624Y495100D01*
X354707Y495170D01*
X354800Y495241D01*
X354806D01*
X354812Y495246D01*
X354847Y495270D01*
X354906Y495293D01*
X354982Y495328D01*
X355070Y495358D01*
X355176Y495387D01*
X355288Y495405D01*
X355411Y495411D01*
X355417D01*
X355428D01*
X355452D01*
X355481Y495405D01*
X355522D01*
X355563Y495399D01*
X355663Y495376D01*
X355780Y495340D01*
X355904Y495293D01*
X356027Y495223D01*
X356085Y495176D01*
X356144Y495129D01*
X356150Y495123D01*
X356156Y495117D01*
X356174Y495100D01*
X356191Y495076D01*
X356214Y495047D01*
X356238Y495012D01*
X356267Y494965D01*
X356302Y494918D01*
X356332Y494859D01*
X356361Y494795D01*
X356396Y494724D01*
X356426Y494648D01*
X356449Y494560D01*
X356479Y494472D01*
X356496Y494372D01*
X356514Y494267D01*
X356520Y494278D01*
X356531Y494302D01*
X356555Y494337D01*
X356578Y494384D01*
X356643Y494490D01*
X356684Y494542D01*
X356719Y494589D01*
X356731Y494601D01*
X356760Y494630D01*
X356807Y494677D01*
X356866Y494736D01*
X356948Y494800D01*
X357036Y494877D01*
X357142Y494953D01*
X357259Y495035D01*
X358362Y495733D01*
Y495065D01*
D02*
G37*
G36*
X377360Y498460D02*
X377401Y498454D01*
X377454Y498448D01*
X377513Y498437D01*
X377577Y498419D01*
X377712Y498378D01*
X377788Y498349D01*
X377859Y498307D01*
X377935Y498266D01*
X378005Y498219D01*
X378076Y498161D01*
X378146Y498096D01*
X378152Y498090D01*
X378164Y498079D01*
X378182Y498061D01*
X378199Y498032D01*
X378228Y497991D01*
X378258Y497950D01*
X378287Y497897D01*
X378322Y497838D01*
X378358Y497774D01*
X378387Y497697D01*
X378416Y497615D01*
X378446Y497533D01*
X378463Y497439D01*
X378481Y497339D01*
X378493Y497240D01*
X378498Y497128D01*
Y497069D01*
X378493Y497028D01*
X378487Y496976D01*
X378481Y496917D01*
X378469Y496852D01*
X378451Y496782D01*
X378410Y496623D01*
X378381Y496541D01*
X378352Y496465D01*
X378311Y496383D01*
X378264Y496301D01*
X378211Y496225D01*
X378146Y496154D01*
X378140Y496148D01*
X378129Y496137D01*
X378111Y496119D01*
X378082Y496096D01*
X378047Y496072D01*
X378005Y496037D01*
X377959Y496007D01*
X377900Y495972D01*
X377841Y495937D01*
X377771Y495908D01*
X377624Y495849D01*
X377536Y495826D01*
X377448Y495808D01*
X377354Y495796D01*
X377260Y495790D01*
X377254D01*
X377243D01*
X377219D01*
X377196Y495796D01*
X377161D01*
X377120Y495802D01*
X377026Y495814D01*
X376920Y495837D01*
X376814Y495872D01*
X376703Y495925D01*
X376597Y495990D01*
X376591D01*
X376586Y496002D01*
X376556Y496025D01*
X376509Y496072D01*
X376451Y496137D01*
X376392Y496219D01*
X376328Y496318D01*
X376275Y496430D01*
X376234Y496565D01*
Y496559D01*
X376228Y496553D01*
X376222Y496535D01*
X376210Y496512D01*
X376187Y496459D01*
X376151Y496389D01*
X376105Y496312D01*
X376046Y496236D01*
X375981Y496166D01*
X375911Y496101D01*
X375899Y496096D01*
X375876Y496078D01*
X375829Y496054D01*
X375770Y496031D01*
X375694Y496002D01*
X375606Y495978D01*
X375506Y495961D01*
X375400Y495955D01*
X375395D01*
X375383D01*
X375359D01*
X375324Y495961D01*
X375289Y495966D01*
X375242Y495972D01*
X375142Y495996D01*
X375025Y496031D01*
X374902Y496090D01*
X374837Y496125D01*
X374773Y496166D01*
X374714Y496219D01*
X374655Y496272D01*
X374649Y496277D01*
X374644Y496289D01*
X374626Y496307D01*
X374608Y496330D01*
X374585Y496359D01*
X374561Y496401D01*
X374532Y496447D01*
X374503Y496494D01*
X374473Y496553D01*
X374444Y496618D01*
X374421Y496688D01*
X374397Y496764D01*
X374362Y496929D01*
X374356Y497023D01*
X374350Y497116D01*
Y497169D01*
X374356Y497204D01*
X374362Y497251D01*
X374368Y497304D01*
X374374Y497363D01*
X374391Y497421D01*
X374426Y497562D01*
X374479Y497703D01*
X374514Y497774D01*
X374556Y497844D01*
X374608Y497909D01*
X374661Y497973D01*
X374667Y497979D01*
X374673Y497985D01*
X374691Y498002D01*
X374714Y498026D01*
X374749Y498049D01*
X374784Y498079D01*
X374872Y498137D01*
X374984Y498196D01*
X375113Y498249D01*
X375260Y498290D01*
X375336Y498296D01*
X375418Y498302D01*
X375424D01*
X375430D01*
X375465D01*
X375518Y498296D01*
X375582Y498284D01*
X375664Y498266D01*
X375747Y498237D01*
X375829Y498202D01*
X375911Y498149D01*
X375923Y498143D01*
X375946Y498120D01*
X375981Y498084D01*
X376028Y498038D01*
X376081Y497973D01*
X376134Y497897D01*
X376187Y497809D01*
X376234Y497703D01*
Y497709D01*
X376240Y497721D01*
X376245Y497738D01*
X376257Y497762D01*
X376286Y497832D01*
X376328Y497914D01*
X376386Y498002D01*
X376451Y498096D01*
X376533Y498184D01*
X376627Y498266D01*
X376633D01*
X376638Y498272D01*
X376674Y498296D01*
X376732Y498331D01*
X376809Y498366D01*
X376903Y498401D01*
X377014Y498437D01*
X377137Y498460D01*
X377272Y498466D01*
X377278D01*
X377296D01*
X377325D01*
X377360Y498460D01*
D02*
G37*
G36*
X378428Y494810D02*
X377583Y494277D01*
X377577D01*
X377565Y494265D01*
X377548Y494253D01*
X377524Y494235D01*
X377460Y494194D01*
X377378Y494142D01*
X377290Y494077D01*
X377196Y494012D01*
X377108Y493948D01*
X377026Y493889D01*
X377020Y493883D01*
X376996Y493866D01*
X376961Y493837D01*
X376920Y493795D01*
X376832Y493707D01*
X376791Y493661D01*
X376756Y493614D01*
X376750Y493608D01*
X376744Y493596D01*
X376732Y493573D01*
X376715Y493537D01*
X376697Y493502D01*
X376679Y493461D01*
X376650Y493367D01*
Y493361D01*
X376644Y493349D01*
Y493326D01*
X376638Y493297D01*
X376633Y493256D01*
Y493209D01*
X376627Y493144D01*
Y492452D01*
X378428D01*
Y491912D01*
X374368D01*
Y493795D01*
X374374Y493842D01*
Y493895D01*
X374380Y494018D01*
X374397Y494147D01*
X374415Y494288D01*
X374444Y494417D01*
X374462Y494482D01*
X374479Y494535D01*
Y494541D01*
X374485Y494547D01*
X374503Y494582D01*
X374526Y494635D01*
X374567Y494699D01*
X374620Y494769D01*
X374691Y494846D01*
X374773Y494916D01*
X374866Y494986D01*
X374872D01*
X374878Y494992D01*
X374913Y495016D01*
X374972Y495039D01*
X375048Y495075D01*
X375136Y495104D01*
X375242Y495133D01*
X375354Y495151D01*
X375477Y495157D01*
X375483D01*
X375494D01*
X375518D01*
X375547Y495151D01*
X375588D01*
X375629Y495145D01*
X375729Y495121D01*
X375846Y495086D01*
X375970Y495039D01*
X376093Y494969D01*
X376151Y494922D01*
X376210Y494875D01*
X376216Y494869D01*
X376222Y494863D01*
X376240Y494846D01*
X376257Y494822D01*
X376281Y494793D01*
X376304Y494758D01*
X376333Y494711D01*
X376368Y494664D01*
X376398Y494605D01*
X376427Y494541D01*
X376462Y494470D01*
X376492Y494394D01*
X376515Y494306D01*
X376545Y494218D01*
X376562Y494118D01*
X376580Y494012D01*
X376586Y494024D01*
X376597Y494048D01*
X376621Y494083D01*
X376644Y494130D01*
X376709Y494235D01*
X376750Y494288D01*
X376785Y494335D01*
X376797Y494347D01*
X376826Y494376D01*
X376873Y494423D01*
X376932Y494482D01*
X377014Y494547D01*
X377102Y494623D01*
X377208Y494699D01*
X377325Y494781D01*
X378428Y495479D01*
Y494810D01*
D02*
G37*
G36*
X544436Y350525D02*
X544507D01*
X544583Y350519D01*
X544665Y350513D01*
X544853Y350496D01*
X545046Y350466D01*
X545234Y350431D01*
X545322Y350408D01*
X545410Y350378D01*
X545416D01*
X545428Y350373D01*
X545451Y350361D01*
X545481Y350349D01*
X545522Y350337D01*
X545563Y350314D01*
X545662Y350267D01*
X545768Y350208D01*
X545885Y350132D01*
X545991Y350044D01*
X546091Y349938D01*
Y349932D01*
X546102Y349927D01*
X546114Y349909D01*
X546126Y349885D01*
X546144Y349856D01*
X546167Y349827D01*
X546208Y349739D01*
X546249Y349633D01*
X546290Y349510D01*
X546314Y349363D01*
X546325Y349205D01*
Y349146D01*
X546320Y349105D01*
X546314Y349058D01*
X546302Y348999D01*
X546290Y348935D01*
X546273Y348865D01*
X546249Y348794D01*
X546226Y348718D01*
X546191Y348642D01*
X546149Y348565D01*
X546102Y348489D01*
X546044Y348413D01*
X545979Y348342D01*
X545909Y348278D01*
X545903Y348272D01*
X545885Y348260D01*
X545856Y348243D01*
X545809Y348213D01*
X545756Y348184D01*
X545686Y348155D01*
X545604Y348114D01*
X545510Y348078D01*
X545404Y348043D01*
X545281Y348008D01*
X545146Y347973D01*
X544994Y347943D01*
X544829Y347914D01*
X544653Y347896D01*
X544460Y347885D01*
X544254Y347879D01*
X544248D01*
X544225D01*
X544184D01*
X544137D01*
X544072Y347885D01*
X544002D01*
X543926Y347891D01*
X543838Y347896D01*
X543656Y347914D01*
X543462Y347943D01*
X543269Y347979D01*
X543181Y348002D01*
X543093Y348026D01*
X543087D01*
X543075Y348031D01*
X543051Y348043D01*
X543022Y348055D01*
X542981Y348067D01*
X542940Y348090D01*
X542840Y348137D01*
X542735Y348196D01*
X542623Y348272D01*
X542512Y348360D01*
X542418Y348466D01*
Y348471D01*
X542406Y348477D01*
X542394Y348495D01*
X542383Y348518D01*
X542359Y348548D01*
X542341Y348583D01*
X542295Y348671D01*
X542253Y348777D01*
X542212Y348900D01*
X542189Y349047D01*
X542177Y349205D01*
Y349258D01*
X542183Y349322D01*
X542195Y349398D01*
X542212Y349487D01*
X542236Y349580D01*
X542265Y349680D01*
X542312Y349774D01*
Y349780D01*
X542318Y349786D01*
X542336Y349815D01*
X542365Y349862D01*
X542406Y349921D01*
X542465Y349985D01*
X542529Y350056D01*
X542606Y350120D01*
X542694Y350185D01*
X542705Y350191D01*
X542735Y350214D01*
X542788Y350238D01*
X542864Y350279D01*
X542952Y350314D01*
X543051Y350361D01*
X543169Y350402D01*
X543298Y350437D01*
X543304D01*
X543316Y350443D01*
X543333Y350449D01*
X543363Y350455D01*
X543398Y350461D01*
X543439Y350466D01*
X543492Y350478D01*
X543550Y350484D01*
X543615Y350496D01*
X543685Y350502D01*
X543767Y350508D01*
X543849Y350519D01*
X543943Y350525D01*
X544037D01*
X544143Y350531D01*
X544254D01*
X544260D01*
X544284D01*
X544325D01*
X544372D01*
X544436Y350525D01*
D02*
G37*
G36*
X546255Y344652D02*
X546249D01*
X546226D01*
X546191D01*
X546144Y344658D01*
X546091Y344664D01*
X546032Y344675D01*
X545974Y344687D01*
X545909Y344711D01*
X545903D01*
X545897Y344716D01*
X545862Y344728D01*
X545809Y344752D01*
X545739Y344787D01*
X545657Y344834D01*
X545563Y344892D01*
X545469Y344957D01*
X545369Y345039D01*
X545363D01*
X545357Y345051D01*
X545322Y345080D01*
X545269Y345133D01*
X545193Y345209D01*
X545105Y345297D01*
X545000Y345409D01*
X544882Y345544D01*
X544759Y345690D01*
X544753Y345696D01*
X544735Y345720D01*
X544706Y345755D01*
X544671Y345796D01*
X544624Y345849D01*
X544571Y345913D01*
X544512Y345978D01*
X544448Y346054D01*
X544307Y346201D01*
X544166Y346348D01*
X544096Y346418D01*
X544025Y346482D01*
X543961Y346541D01*
X543896Y346588D01*
X543890D01*
X543885Y346600D01*
X543867Y346612D01*
X543844Y346623D01*
X543779Y346664D01*
X543703Y346711D01*
X543609Y346752D01*
X543509Y346793D01*
X543398Y346817D01*
X543292Y346829D01*
X543286D01*
X543280D01*
X543245Y346823D01*
X543186Y346817D01*
X543122Y346799D01*
X543040Y346776D01*
X542958Y346735D01*
X542876Y346682D01*
X542793Y346612D01*
X542782Y346600D01*
X542758Y346570D01*
X542729Y346529D01*
X542688Y346465D01*
X542653Y346383D01*
X542617Y346289D01*
X542594Y346177D01*
X542588Y346054D01*
Y346019D01*
X542594Y345995D01*
X542600Y345925D01*
X542617Y345843D01*
X542641Y345755D01*
X542682Y345655D01*
X542735Y345561D01*
X542805Y345473D01*
X542817Y345462D01*
X542846Y345438D01*
X542893Y345403D01*
X542963Y345368D01*
X543046Y345326D01*
X543151Y345291D01*
X543269Y345268D01*
X543404Y345256D01*
X543351Y344746D01*
X543345D01*
X543327Y344752D01*
X543298D01*
X543257Y344757D01*
X543210Y344769D01*
X543157Y344781D01*
X543093Y344799D01*
X543028Y344816D01*
X542887Y344863D01*
X542746Y344933D01*
X542676Y344975D01*
X542606Y345027D01*
X542541Y345080D01*
X542482Y345139D01*
X542477Y345145D01*
X542471Y345156D01*
X542453Y345174D01*
X542435Y345203D01*
X542412Y345238D01*
X542388Y345280D01*
X542359Y345326D01*
X542330Y345385D01*
X542300Y345450D01*
X542271Y345520D01*
X542248Y345596D01*
X542224Y345679D01*
X542207Y345767D01*
X542189Y345860D01*
X542183Y345960D01*
X542177Y346066D01*
Y346124D01*
X542183Y346166D01*
X542189Y346213D01*
X542195Y346271D01*
X542207Y346336D01*
X542218Y346400D01*
X542259Y346553D01*
X542318Y346705D01*
X542353Y346782D01*
X542394Y346858D01*
X542447Y346928D01*
X542506Y346993D01*
X542512Y346999D01*
X542518Y347010D01*
X542541Y347022D01*
X542565Y347046D01*
X542594Y347075D01*
X542635Y347104D01*
X542676Y347134D01*
X542729Y347169D01*
X542840Y347228D01*
X542981Y347286D01*
X543051Y347310D01*
X543134Y347322D01*
X543216Y347333D01*
X543304Y347339D01*
X543316D01*
X543345D01*
X543392Y347333D01*
X543456Y347327D01*
X543527Y347316D01*
X543609Y347292D01*
X543697Y347269D01*
X543785Y347233D01*
X543797Y347228D01*
X543826Y347216D01*
X543873Y347192D01*
X543937Y347157D01*
X544008Y347110D01*
X544096Y347052D01*
X544184Y346981D01*
X544284Y346899D01*
X544295Y346887D01*
X544331Y346858D01*
X544360Y346829D01*
X544389Y346799D01*
X544425Y346764D01*
X544471Y346717D01*
X544518Y346670D01*
X544571Y346612D01*
X544630Y346553D01*
X544694Y346482D01*
X544759Y346406D01*
X544835Y346324D01*
X544911Y346230D01*
X544994Y346136D01*
X545000Y346130D01*
X545011Y346119D01*
X545029Y346095D01*
X545052Y346066D01*
X545088Y346031D01*
X545123Y345990D01*
X545199Y345896D01*
X545287Y345796D01*
X545375Y345702D01*
X545451Y345620D01*
X545481Y345585D01*
X545510Y345555D01*
X545516Y345550D01*
X545533Y345532D01*
X545557Y345508D01*
X545592Y345479D01*
X545633Y345450D01*
X545674Y345415D01*
X545774Y345344D01*
Y347345D01*
X546255D01*
Y344652D01*
D02*
G37*
G36*
Y343736D02*
X545410Y343203D01*
X545404D01*
X545393Y343191D01*
X545375Y343179D01*
X545351Y343162D01*
X545287Y343120D01*
X545205Y343068D01*
X545117Y343003D01*
X545023Y342938D01*
X544935Y342874D01*
X544853Y342815D01*
X544847Y342809D01*
X544823Y342792D01*
X544788Y342762D01*
X544747Y342721D01*
X544659Y342633D01*
X544618Y342587D01*
X544583Y342539D01*
X544577Y342534D01*
X544571Y342522D01*
X544559Y342499D01*
X544542Y342463D01*
X544524Y342428D01*
X544507Y342387D01*
X544477Y342293D01*
Y342287D01*
X544471Y342276D01*
Y342252D01*
X544465Y342223D01*
X544460Y342182D01*
Y342135D01*
X544454Y342070D01*
Y341378D01*
X546255D01*
Y340838D01*
X542195D01*
Y342721D01*
X542201Y342768D01*
Y342821D01*
X542207Y342944D01*
X542224Y343074D01*
X542242Y343214D01*
X542271Y343343D01*
X542289Y343408D01*
X542306Y343461D01*
Y343467D01*
X542312Y343472D01*
X542330Y343508D01*
X542353Y343560D01*
X542394Y343625D01*
X542447Y343695D01*
X542518Y343772D01*
X542600Y343842D01*
X542694Y343913D01*
X542699D01*
X542705Y343918D01*
X542741Y343942D01*
X542799Y343965D01*
X542876Y344001D01*
X542963Y344030D01*
X543069Y344059D01*
X543181Y344077D01*
X543304Y344083D01*
X543310D01*
X543321D01*
X543345D01*
X543374Y344077D01*
X543415D01*
X543456Y344071D01*
X543556Y344047D01*
X543673Y344012D01*
X543797Y343965D01*
X543920Y343895D01*
X543979Y343848D01*
X544037Y343801D01*
X544043Y343795D01*
X544049Y343789D01*
X544067Y343772D01*
X544084Y343748D01*
X544108Y343719D01*
X544131Y343684D01*
X544160Y343637D01*
X544196Y343590D01*
X544225Y343531D01*
X544254Y343467D01*
X544290Y343396D01*
X544319Y343320D01*
X544342Y343232D01*
X544372Y343144D01*
X544389Y343044D01*
X544407Y342938D01*
X544413Y342950D01*
X544425Y342974D01*
X544448Y343009D01*
X544471Y343056D01*
X544536Y343162D01*
X544577Y343214D01*
X544612Y343261D01*
X544624Y343273D01*
X544653Y343302D01*
X544700Y343349D01*
X544759Y343408D01*
X544841Y343472D01*
X544929Y343549D01*
X545035Y343625D01*
X545152Y343707D01*
X546255Y344405D01*
Y343736D01*
D02*
G37*
G36*
X22566Y409743D02*
X22560D01*
X22537D01*
X22501D01*
X22455Y409749D01*
X22402Y409755D01*
X22343Y409766D01*
X22284Y409778D01*
X22220Y409802D01*
X22214D01*
X22208Y409808D01*
X22173Y409819D01*
X22120Y409843D01*
X22050Y409878D01*
X21967Y409925D01*
X21874Y409983D01*
X21780Y410048D01*
X21680Y410130D01*
X21674D01*
X21668Y410142D01*
X21633Y410171D01*
X21580Y410224D01*
X21504Y410300D01*
X21416Y410388D01*
X21310Y410500D01*
X21193Y410635D01*
X21070Y410782D01*
X21064Y410787D01*
X21046Y410811D01*
X21017Y410846D01*
X20982Y410887D01*
X20935Y410940D01*
X20882Y411004D01*
X20823Y411069D01*
X20759Y411145D01*
X20618Y411292D01*
X20477Y411439D01*
X20407Y411509D01*
X20336Y411574D01*
X20272Y411632D01*
X20207Y411679D01*
X20201D01*
X20196Y411691D01*
X20178Y411703D01*
X20155Y411714D01*
X20090Y411755D01*
X20014Y411802D01*
X19920Y411843D01*
X19820Y411885D01*
X19709Y411908D01*
X19603Y411920D01*
X19597D01*
X19591D01*
X19556Y411914D01*
X19497Y411908D01*
X19433Y411890D01*
X19351Y411867D01*
X19268Y411826D01*
X19186Y411773D01*
X19104Y411703D01*
X19093Y411691D01*
X19069Y411662D01*
X19040Y411620D01*
X18999Y411556D01*
X18963Y411474D01*
X18928Y411380D01*
X18905Y411269D01*
X18899Y411145D01*
Y411110D01*
X18905Y411087D01*
X18911Y411016D01*
X18928Y410934D01*
X18952Y410846D01*
X18993Y410746D01*
X19046Y410652D01*
X19116Y410564D01*
X19128Y410553D01*
X19157Y410529D01*
X19204Y410494D01*
X19274Y410459D01*
X19356Y410418D01*
X19462Y410382D01*
X19579Y410359D01*
X19714Y410347D01*
X19662Y409837D01*
X19656D01*
X19638Y409843D01*
X19609D01*
X19568Y409849D01*
X19521Y409860D01*
X19468Y409872D01*
X19404Y409890D01*
X19339Y409907D01*
X19198Y409954D01*
X19057Y410025D01*
X18987Y410066D01*
X18916Y410118D01*
X18852Y410171D01*
X18793Y410230D01*
X18787Y410236D01*
X18781Y410248D01*
X18764Y410265D01*
X18746Y410294D01*
X18723Y410330D01*
X18699Y410371D01*
X18670Y410418D01*
X18641Y410476D01*
X18611Y410541D01*
X18582Y410611D01*
X18559Y410688D01*
X18535Y410770D01*
X18518Y410858D01*
X18500Y410952D01*
X18494Y411051D01*
X18488Y411157D01*
Y411216D01*
X18494Y411257D01*
X18500Y411304D01*
X18506Y411362D01*
X18518Y411427D01*
X18529Y411492D01*
X18570Y411644D01*
X18629Y411797D01*
X18664Y411873D01*
X18705Y411949D01*
X18758Y412020D01*
X18817Y412084D01*
X18823Y412090D01*
X18829Y412102D01*
X18852Y412113D01*
X18875Y412137D01*
X18905Y412166D01*
X18946Y412196D01*
X18987Y412225D01*
X19040Y412260D01*
X19151Y412319D01*
X19292Y412377D01*
X19362Y412401D01*
X19445Y412413D01*
X19527Y412424D01*
X19615Y412430D01*
X19626D01*
X19656D01*
X19703Y412424D01*
X19767Y412419D01*
X19838Y412407D01*
X19920Y412383D01*
X20008Y412360D01*
X20096Y412325D01*
X20108Y412319D01*
X20137Y412307D01*
X20184Y412284D01*
X20248Y412248D01*
X20319Y412201D01*
X20407Y412143D01*
X20495Y412072D01*
X20594Y411990D01*
X20606Y411978D01*
X20642Y411949D01*
X20671Y411920D01*
X20700Y411890D01*
X20735Y411855D01*
X20782Y411808D01*
X20829Y411761D01*
X20882Y411703D01*
X20941Y411644D01*
X21005Y411574D01*
X21070Y411497D01*
X21146Y411415D01*
X21222Y411321D01*
X21305Y411227D01*
X21310Y411222D01*
X21322Y411210D01*
X21340Y411186D01*
X21363Y411157D01*
X21398Y411122D01*
X21434Y411081D01*
X21510Y410987D01*
X21598Y410887D01*
X21686Y410793D01*
X21762Y410711D01*
X21792Y410676D01*
X21821Y410647D01*
X21827Y410641D01*
X21844Y410623D01*
X21868Y410600D01*
X21903Y410570D01*
X21944Y410541D01*
X21985Y410506D01*
X22085Y410435D01*
Y412436D01*
X22566D01*
Y409743D01*
D02*
G37*
G36*
X20636Y409274D02*
X20683D01*
X20794Y409268D01*
X20923Y409250D01*
X21058Y409232D01*
X21199Y409203D01*
X21340Y409168D01*
X21346D01*
X21357Y409162D01*
X21375Y409156D01*
X21398Y409150D01*
X21463Y409127D01*
X21545Y409092D01*
X21639Y409057D01*
X21733Y409010D01*
X21833Y408951D01*
X21926Y408892D01*
X21938Y408886D01*
X21967Y408863D01*
X22009Y408828D01*
X22061Y408781D01*
X22120Y408728D01*
X22179Y408663D01*
X22243Y408599D01*
X22296Y408523D01*
X22302Y408511D01*
X22320Y408487D01*
X22343Y408446D01*
X22372Y408388D01*
X22408Y408317D01*
X22437Y408235D01*
X22472Y408141D01*
X22501Y408036D01*
Y408024D01*
X22507Y408006D01*
X22513Y407989D01*
X22519Y407930D01*
X22531Y407848D01*
X22543Y407754D01*
X22554Y407642D01*
X22560Y407519D01*
X22566Y407384D01*
Y405923D01*
X18506D01*
Y407484D01*
X18512Y407590D01*
X18518Y407707D01*
X18529Y407824D01*
X18547Y407942D01*
X18564Y408041D01*
Y408047D01*
X18570Y408059D01*
Y408077D01*
X18582Y408100D01*
X18600Y408165D01*
X18629Y408247D01*
X18670Y408341D01*
X18723Y408440D01*
X18781Y408540D01*
X18858Y408634D01*
X18864Y408640D01*
X18870Y408646D01*
X18887Y408663D01*
X18905Y408687D01*
X18963Y408745D01*
X19046Y408816D01*
X19145Y408892D01*
X19263Y408974D01*
X19398Y409051D01*
X19550Y409115D01*
X19556D01*
X19568Y409121D01*
X19591Y409133D01*
X19626Y409139D01*
X19668Y409156D01*
X19714Y409168D01*
X19767Y409180D01*
X19832Y409197D01*
X19896Y409215D01*
X19973Y409227D01*
X20137Y409256D01*
X20319Y409274D01*
X20518Y409279D01*
X20524D01*
X20536D01*
X20565D01*
X20594D01*
X20636Y409274D01*
D02*
G37*
G36*
X22566Y404304D02*
Y403776D01*
X19474Y402925D01*
X19468D01*
X19456Y402919D01*
X19439Y402913D01*
X19409Y402907D01*
X19345Y402890D01*
X19268Y402872D01*
X19186Y402849D01*
X19110Y402825D01*
X19046Y402808D01*
X19016Y402802D01*
X18999Y402796D01*
X19004D01*
X19010Y402790D01*
X19046Y402784D01*
X19098Y402772D01*
X19163Y402755D01*
X19233Y402737D01*
X19316Y402714D01*
X19398Y402696D01*
X19474Y402673D01*
X22566Y401816D01*
Y401253D01*
X18506Y400191D01*
Y400748D01*
X21170Y401353D01*
X21175D01*
X21187Y401358D01*
X21211Y401364D01*
X21240Y401370D01*
X21281Y401376D01*
X21322Y401388D01*
X21375Y401399D01*
X21434Y401411D01*
X21557Y401441D01*
X21698Y401470D01*
X21850Y401499D01*
X22003Y401529D01*
X21997D01*
X21973Y401535D01*
X21944Y401546D01*
X21897Y401552D01*
X21850Y401564D01*
X21792Y401581D01*
X21662Y401611D01*
X21533Y401646D01*
X21469Y401658D01*
X21410Y401675D01*
X21357Y401687D01*
X21310Y401699D01*
X21275Y401711D01*
X21252Y401716D01*
X18506Y402485D01*
Y403136D01*
X20565Y403711D01*
X20571D01*
X20600Y403723D01*
X20642Y403735D01*
X20694Y403746D01*
X20765Y403764D01*
X20841Y403788D01*
X20929Y403811D01*
X21029Y403834D01*
X21140Y403864D01*
X21252Y403887D01*
X21492Y403940D01*
X21745Y403993D01*
X22003Y404034D01*
X21997D01*
X21985Y404040D01*
X21962D01*
X21932Y404052D01*
X21897Y404058D01*
X21856Y404069D01*
X21803Y404075D01*
X21745Y404093D01*
X21616Y404122D01*
X21463Y404157D01*
X21299Y404192D01*
X21117Y404239D01*
X18506Y404873D01*
Y405419D01*
X22566Y404304D01*
D02*
G37*
G36*
X21545Y399815D02*
X21627Y399804D01*
X21721Y399780D01*
X21821Y399751D01*
X21926Y399704D01*
X22038Y399639D01*
X22044D01*
X22050Y399633D01*
X22085Y399604D01*
X22138Y399563D01*
X22196Y399504D01*
X22267Y399428D01*
X22343Y399334D01*
X22413Y399229D01*
X22478Y399105D01*
Y399100D01*
X22484Y399088D01*
X22490Y399070D01*
X22501Y399047D01*
X22513Y399011D01*
X22531Y398970D01*
X22554Y398876D01*
X22584Y398765D01*
X22613Y398630D01*
X22631Y398483D01*
X22636Y398325D01*
Y398231D01*
X22631Y398184D01*
Y398131D01*
X22625Y398073D01*
X22619Y398002D01*
X22595Y397856D01*
X22572Y397703D01*
X22531Y397551D01*
X22478Y397404D01*
Y397398D01*
X22472Y397386D01*
X22460Y397369D01*
X22449Y397345D01*
X22413Y397275D01*
X22361Y397193D01*
X22290Y397099D01*
X22208Y396999D01*
X22108Y396905D01*
X21997Y396817D01*
X21991D01*
X21979Y396805D01*
X21962Y396800D01*
X21938Y396782D01*
X21909Y396770D01*
X21874Y396753D01*
X21786Y396712D01*
X21674Y396670D01*
X21551Y396635D01*
X21410Y396612D01*
X21263Y396600D01*
X21216Y397105D01*
X21222D01*
X21228D01*
X21246Y397110D01*
X21269D01*
X21322Y397122D01*
X21398Y397140D01*
X21475Y397163D01*
X21563Y397187D01*
X21645Y397228D01*
X21721Y397269D01*
X21727Y397275D01*
X21750Y397292D01*
X21792Y397322D01*
X21833Y397369D01*
X21885Y397427D01*
X21938Y397492D01*
X21991Y397580D01*
X22038Y397674D01*
Y397680D01*
X22044Y397686D01*
X22050Y397703D01*
X22055Y397721D01*
X22073Y397779D01*
X22097Y397856D01*
X22120Y397949D01*
X22138Y398055D01*
X22149Y398172D01*
X22155Y398302D01*
Y398354D01*
X22149Y398413D01*
X22143Y398483D01*
X22132Y398566D01*
X22120Y398660D01*
X22097Y398753D01*
X22067Y398841D01*
X22061Y398853D01*
X22050Y398882D01*
X22026Y398923D01*
X22003Y398976D01*
X21962Y399029D01*
X21921Y399088D01*
X21874Y399146D01*
X21815Y399193D01*
X21809Y399199D01*
X21786Y399211D01*
X21756Y399229D01*
X21709Y399252D01*
X21662Y399276D01*
X21604Y399293D01*
X21539Y399305D01*
X21469Y399311D01*
X21463D01*
X21434D01*
X21398Y399305D01*
X21351Y399299D01*
X21305Y399281D01*
X21246Y399264D01*
X21187Y399235D01*
X21134Y399193D01*
X21128Y399188D01*
X21111Y399170D01*
X21087Y399146D01*
X21052Y399105D01*
X21017Y399058D01*
X20976Y398994D01*
X20935Y398918D01*
X20900Y398830D01*
X20894Y398824D01*
X20888Y398794D01*
X20870Y398747D01*
X20864Y398718D01*
X20853Y398677D01*
X20835Y398636D01*
X20823Y398583D01*
X20806Y398525D01*
X20788Y398454D01*
X20771Y398384D01*
X20747Y398302D01*
X20724Y398208D01*
X20700Y398108D01*
Y398102D01*
X20694Y398084D01*
X20688Y398055D01*
X20677Y398020D01*
X20665Y397973D01*
X20653Y397920D01*
X20618Y397803D01*
X20577Y397674D01*
X20536Y397539D01*
X20495Y397421D01*
X20471Y397369D01*
X20448Y397322D01*
Y397316D01*
X20442Y397310D01*
X20419Y397275D01*
X20389Y397222D01*
X20342Y397163D01*
X20289Y397093D01*
X20225Y397022D01*
X20149Y396952D01*
X20066Y396893D01*
X20055Y396888D01*
X20025Y396870D01*
X19978Y396846D01*
X19920Y396823D01*
X19843Y396800D01*
X19756Y396776D01*
X19662Y396758D01*
X19562Y396753D01*
X19556D01*
X19550D01*
X19533D01*
X19509D01*
X19450Y396764D01*
X19374Y396776D01*
X19286Y396794D01*
X19186Y396823D01*
X19087Y396864D01*
X18987Y396923D01*
X18981D01*
X18975Y396929D01*
X18940Y396958D01*
X18893Y396999D01*
X18834Y397052D01*
X18770Y397122D01*
X18699Y397210D01*
X18635Y397316D01*
X18576Y397433D01*
Y397439D01*
X18570Y397451D01*
X18564Y397468D01*
X18553Y397492D01*
X18541Y397521D01*
X18529Y397562D01*
X18506Y397650D01*
X18482Y397762D01*
X18459Y397891D01*
X18441Y398026D01*
X18435Y398178D01*
Y398255D01*
X18441Y398296D01*
Y398337D01*
X18453Y398448D01*
X18470Y398571D01*
X18500Y398700D01*
X18535Y398841D01*
X18582Y398970D01*
Y398976D01*
X18588Y398988D01*
X18600Y399006D01*
X18611Y399029D01*
X18641Y399088D01*
X18693Y399164D01*
X18752Y399252D01*
X18829Y399340D01*
X18916Y399422D01*
X19016Y399498D01*
X19022D01*
X19028Y399504D01*
X19046Y399516D01*
X19063Y399528D01*
X19122Y399557D01*
X19198Y399592D01*
X19292Y399633D01*
X19404Y399663D01*
X19521Y399692D01*
X19650Y399704D01*
X19691Y399188D01*
X19685D01*
X19673D01*
X19656Y399182D01*
X19626Y399176D01*
X19562Y399158D01*
X19474Y399135D01*
X19380Y399100D01*
X19286Y399047D01*
X19198Y398982D01*
X19116Y398900D01*
X19110Y398888D01*
X19087Y398859D01*
X19051Y398800D01*
X19016Y398724D01*
X18981Y398624D01*
X18946Y398507D01*
X18922Y398360D01*
X18916Y398196D01*
Y398114D01*
X18922Y398079D01*
X18928Y398032D01*
X18940Y397926D01*
X18963Y397809D01*
X18993Y397691D01*
X19040Y397580D01*
X19069Y397533D01*
X19098Y397486D01*
X19104Y397474D01*
X19128Y397451D01*
X19169Y397416D01*
X19216Y397380D01*
X19280Y397339D01*
X19351Y397304D01*
X19433Y397281D01*
X19527Y397269D01*
X19538D01*
X19562D01*
X19603Y397275D01*
X19650Y397286D01*
X19709Y397304D01*
X19767Y397333D01*
X19826Y397369D01*
X19885Y397421D01*
X19891Y397427D01*
X19908Y397457D01*
X19926Y397480D01*
X19937Y397504D01*
X19955Y397539D01*
X19978Y397580D01*
X19996Y397633D01*
X20020Y397691D01*
X20043Y397756D01*
X20072Y397832D01*
X20096Y397914D01*
X20125Y398008D01*
X20149Y398114D01*
X20178Y398231D01*
Y398237D01*
X20184Y398260D01*
X20190Y398296D01*
X20201Y398337D01*
X20213Y398390D01*
X20231Y398454D01*
X20248Y398519D01*
X20266Y398589D01*
X20307Y398742D01*
X20348Y398888D01*
X20372Y398959D01*
X20395Y399023D01*
X20413Y399082D01*
X20436Y399129D01*
Y399135D01*
X20442Y399146D01*
X20454Y399164D01*
X20466Y399188D01*
X20501Y399252D01*
X20548Y399328D01*
X20612Y399416D01*
X20683Y399504D01*
X20765Y399586D01*
X20853Y399657D01*
X20864Y399663D01*
X20894Y399686D01*
X20947Y399710D01*
X21017Y399745D01*
X21099Y399774D01*
X21199Y399804D01*
X21310Y399821D01*
X21428Y399827D01*
X21434D01*
X21439D01*
X21457D01*
X21481D01*
X21545Y399815D01*
D02*
G37*
G36*
X22566Y195800D02*
X19392D01*
X19398Y195794D01*
X19421Y195765D01*
X19456Y195730D01*
X19497Y195671D01*
X19550Y195607D01*
X19609Y195525D01*
X19673Y195431D01*
X19738Y195325D01*
Y195319D01*
X19744Y195313D01*
X19767Y195278D01*
X19797Y195219D01*
X19832Y195149D01*
X19873Y195067D01*
X19914Y194979D01*
X19955Y194891D01*
X19990Y194803D01*
X19509D01*
Y194809D01*
X19497Y194820D01*
X19491Y194844D01*
X19474Y194873D01*
X19456Y194908D01*
X19433Y194949D01*
X19374Y195049D01*
X19310Y195166D01*
X19227Y195284D01*
X19134Y195407D01*
X19034Y195530D01*
X19028Y195536D01*
X19022Y195542D01*
X19004Y195560D01*
X18987Y195583D01*
X18928Y195636D01*
X18858Y195706D01*
X18776Y195777D01*
X18682Y195853D01*
X18588Y195918D01*
X18488Y195976D01*
Y196299D01*
X22566D01*
Y195800D01*
D02*
G37*
G36*
X20636Y193882D02*
X20683D01*
X20794Y193876D01*
X20923Y193858D01*
X21058Y193841D01*
X21199Y193811D01*
X21340Y193776D01*
X21346D01*
X21357Y193770D01*
X21375Y193764D01*
X21398Y193758D01*
X21463Y193735D01*
X21545Y193700D01*
X21639Y193664D01*
X21733Y193617D01*
X21833Y193559D01*
X21926Y193500D01*
X21938Y193494D01*
X21967Y193471D01*
X22009Y193436D01*
X22061Y193389D01*
X22120Y193336D01*
X22179Y193271D01*
X22243Y193207D01*
X22296Y193131D01*
X22302Y193119D01*
X22320Y193095D01*
X22343Y193054D01*
X22372Y192996D01*
X22408Y192925D01*
X22437Y192843D01*
X22472Y192749D01*
X22501Y192644D01*
Y192632D01*
X22507Y192614D01*
X22513Y192597D01*
X22519Y192538D01*
X22531Y192456D01*
X22543Y192362D01*
X22554Y192250D01*
X22560Y192127D01*
X22566Y191992D01*
Y190531D01*
X18506D01*
Y192092D01*
X18512Y192198D01*
X18518Y192315D01*
X18529Y192432D01*
X18547Y192550D01*
X18564Y192649D01*
Y192655D01*
X18570Y192667D01*
Y192685D01*
X18582Y192708D01*
X18600Y192773D01*
X18629Y192855D01*
X18670Y192949D01*
X18723Y193048D01*
X18781Y193148D01*
X18858Y193242D01*
X18864Y193248D01*
X18870Y193254D01*
X18887Y193271D01*
X18905Y193295D01*
X18963Y193354D01*
X19046Y193424D01*
X19145Y193500D01*
X19263Y193582D01*
X19398Y193659D01*
X19550Y193723D01*
X19556D01*
X19568Y193729D01*
X19591Y193741D01*
X19626Y193747D01*
X19668Y193764D01*
X19714Y193776D01*
X19767Y193788D01*
X19832Y193805D01*
X19896Y193823D01*
X19973Y193835D01*
X20137Y193864D01*
X20319Y193882D01*
X20518Y193887D01*
X20524D01*
X20536D01*
X20565D01*
X20594D01*
X20636Y193882D01*
D02*
G37*
G36*
X22566Y188912D02*
Y188384D01*
X19474Y187533D01*
X19468D01*
X19456Y187527D01*
X19439Y187521D01*
X19409Y187515D01*
X19345Y187498D01*
X19268Y187480D01*
X19186Y187457D01*
X19110Y187433D01*
X19046Y187416D01*
X19016Y187410D01*
X18999Y187404D01*
X19004D01*
X19010Y187398D01*
X19046Y187392D01*
X19098Y187381D01*
X19163Y187363D01*
X19233Y187345D01*
X19316Y187322D01*
X19398Y187304D01*
X19474Y187281D01*
X22566Y186424D01*
Y185861D01*
X18506Y184799D01*
Y185356D01*
X21170Y185961D01*
X21175D01*
X21187Y185966D01*
X21211Y185972D01*
X21240Y185978D01*
X21281Y185984D01*
X21322Y185996D01*
X21375Y186007D01*
X21434Y186019D01*
X21557Y186049D01*
X21698Y186078D01*
X21850Y186107D01*
X22003Y186137D01*
X21997D01*
X21973Y186143D01*
X21944Y186154D01*
X21897Y186160D01*
X21850Y186172D01*
X21792Y186189D01*
X21662Y186219D01*
X21533Y186254D01*
X21469Y186266D01*
X21410Y186283D01*
X21357Y186295D01*
X21310Y186307D01*
X21275Y186318D01*
X21252Y186324D01*
X18506Y187093D01*
Y187744D01*
X20565Y188319D01*
X20571D01*
X20600Y188331D01*
X20642Y188343D01*
X20694Y188354D01*
X20765Y188372D01*
X20841Y188396D01*
X20929Y188419D01*
X21029Y188442D01*
X21140Y188472D01*
X21252Y188495D01*
X21492Y188548D01*
X21745Y188601D01*
X22003Y188642D01*
X21997D01*
X21985Y188648D01*
X21962D01*
X21932Y188660D01*
X21897Y188666D01*
X21856Y188677D01*
X21803Y188683D01*
X21745Y188701D01*
X21616Y188730D01*
X21463Y188765D01*
X21299Y188800D01*
X21117Y188847D01*
X18506Y189481D01*
Y190027D01*
X22566Y188912D01*
D02*
G37*
G36*
X21545Y184423D02*
X21627Y184412D01*
X21721Y184388D01*
X21821Y184359D01*
X21926Y184312D01*
X22038Y184247D01*
X22044D01*
X22050Y184241D01*
X22085Y184212D01*
X22138Y184171D01*
X22196Y184112D01*
X22267Y184036D01*
X22343Y183942D01*
X22413Y183837D01*
X22478Y183713D01*
Y183708D01*
X22484Y183696D01*
X22490Y183678D01*
X22501Y183655D01*
X22513Y183619D01*
X22531Y183578D01*
X22554Y183484D01*
X22584Y183373D01*
X22613Y183238D01*
X22631Y183091D01*
X22636Y182933D01*
Y182839D01*
X22631Y182792D01*
Y182739D01*
X22625Y182681D01*
X22619Y182610D01*
X22595Y182464D01*
X22572Y182311D01*
X22531Y182159D01*
X22478Y182012D01*
Y182006D01*
X22472Y181994D01*
X22460Y181977D01*
X22449Y181953D01*
X22413Y181883D01*
X22361Y181801D01*
X22290Y181707D01*
X22208Y181607D01*
X22108Y181513D01*
X21997Y181425D01*
X21991D01*
X21979Y181413D01*
X21962Y181408D01*
X21938Y181390D01*
X21909Y181378D01*
X21874Y181360D01*
X21786Y181320D01*
X21674Y181278D01*
X21551Y181243D01*
X21410Y181220D01*
X21263Y181208D01*
X21216Y181713D01*
X21222D01*
X21228D01*
X21246Y181719D01*
X21269D01*
X21322Y181730D01*
X21398Y181748D01*
X21475Y181771D01*
X21563Y181795D01*
X21645Y181836D01*
X21721Y181877D01*
X21727Y181883D01*
X21750Y181900D01*
X21792Y181930D01*
X21833Y181977D01*
X21885Y182035D01*
X21938Y182100D01*
X21991Y182188D01*
X22038Y182282D01*
Y182288D01*
X22044Y182293D01*
X22050Y182311D01*
X22055Y182329D01*
X22073Y182387D01*
X22097Y182464D01*
X22120Y182558D01*
X22138Y182663D01*
X22149Y182780D01*
X22155Y182910D01*
Y182962D01*
X22149Y183021D01*
X22143Y183091D01*
X22132Y183174D01*
X22120Y183267D01*
X22097Y183361D01*
X22067Y183449D01*
X22061Y183461D01*
X22050Y183490D01*
X22026Y183531D01*
X22003Y183584D01*
X21962Y183637D01*
X21921Y183696D01*
X21874Y183754D01*
X21815Y183801D01*
X21809Y183807D01*
X21786Y183819D01*
X21756Y183837D01*
X21709Y183860D01*
X21662Y183883D01*
X21604Y183901D01*
X21539Y183913D01*
X21469Y183919D01*
X21463D01*
X21434D01*
X21398Y183913D01*
X21351Y183907D01*
X21305Y183889D01*
X21246Y183872D01*
X21187Y183843D01*
X21134Y183801D01*
X21128Y183796D01*
X21111Y183778D01*
X21087Y183754D01*
X21052Y183713D01*
X21017Y183666D01*
X20976Y183602D01*
X20935Y183526D01*
X20900Y183438D01*
X20894Y183432D01*
X20888Y183402D01*
X20870Y183356D01*
X20864Y183326D01*
X20853Y183285D01*
X20835Y183244D01*
X20823Y183191D01*
X20806Y183132D01*
X20788Y183062D01*
X20771Y182992D01*
X20747Y182910D01*
X20724Y182816D01*
X20700Y182716D01*
Y182710D01*
X20694Y182692D01*
X20688Y182663D01*
X20677Y182628D01*
X20665Y182581D01*
X20653Y182528D01*
X20618Y182411D01*
X20577Y182282D01*
X20536Y182147D01*
X20495Y182029D01*
X20471Y181977D01*
X20448Y181930D01*
Y181924D01*
X20442Y181918D01*
X20419Y181883D01*
X20389Y181830D01*
X20342Y181771D01*
X20289Y181701D01*
X20225Y181630D01*
X20149Y181560D01*
X20066Y181501D01*
X20055Y181495D01*
X20025Y181478D01*
X19978Y181454D01*
X19920Y181431D01*
X19843Y181408D01*
X19756Y181384D01*
X19662Y181366D01*
X19562Y181360D01*
X19556D01*
X19550D01*
X19533D01*
X19509D01*
X19450Y181372D01*
X19374Y181384D01*
X19286Y181402D01*
X19186Y181431D01*
X19087Y181472D01*
X18987Y181531D01*
X18981D01*
X18975Y181537D01*
X18940Y181566D01*
X18893Y181607D01*
X18834Y181660D01*
X18770Y181730D01*
X18699Y181818D01*
X18635Y181924D01*
X18576Y182041D01*
Y182047D01*
X18570Y182059D01*
X18564Y182076D01*
X18553Y182100D01*
X18541Y182129D01*
X18529Y182170D01*
X18506Y182258D01*
X18482Y182370D01*
X18459Y182499D01*
X18441Y182634D01*
X18435Y182786D01*
Y182863D01*
X18441Y182904D01*
Y182945D01*
X18453Y183056D01*
X18470Y183179D01*
X18500Y183309D01*
X18535Y183449D01*
X18582Y183578D01*
Y183584D01*
X18588Y183596D01*
X18600Y183614D01*
X18611Y183637D01*
X18641Y183696D01*
X18693Y183772D01*
X18752Y183860D01*
X18829Y183948D01*
X18916Y184030D01*
X19016Y184107D01*
X19022D01*
X19028Y184112D01*
X19046Y184124D01*
X19063Y184136D01*
X19122Y184165D01*
X19198Y184200D01*
X19292Y184241D01*
X19404Y184271D01*
X19521Y184300D01*
X19650Y184312D01*
X19691Y183796D01*
X19685D01*
X19673D01*
X19656Y183790D01*
X19626Y183784D01*
X19562Y183766D01*
X19474Y183743D01*
X19380Y183708D01*
X19286Y183655D01*
X19198Y183590D01*
X19116Y183508D01*
X19110Y183496D01*
X19087Y183467D01*
X19051Y183408D01*
X19016Y183332D01*
X18981Y183232D01*
X18946Y183115D01*
X18922Y182968D01*
X18916Y182804D01*
Y182722D01*
X18922Y182687D01*
X18928Y182640D01*
X18940Y182534D01*
X18963Y182417D01*
X18993Y182299D01*
X19040Y182188D01*
X19069Y182141D01*
X19098Y182094D01*
X19104Y182082D01*
X19128Y182059D01*
X19169Y182024D01*
X19216Y181988D01*
X19280Y181947D01*
X19351Y181912D01*
X19433Y181889D01*
X19527Y181877D01*
X19538D01*
X19562D01*
X19603Y181883D01*
X19650Y181894D01*
X19709Y181912D01*
X19767Y181941D01*
X19826Y181977D01*
X19885Y182029D01*
X19891Y182035D01*
X19908Y182065D01*
X19926Y182088D01*
X19937Y182112D01*
X19955Y182147D01*
X19978Y182188D01*
X19996Y182241D01*
X20020Y182299D01*
X20043Y182364D01*
X20072Y182440D01*
X20096Y182522D01*
X20125Y182616D01*
X20149Y182722D01*
X20178Y182839D01*
Y182845D01*
X20184Y182868D01*
X20190Y182904D01*
X20201Y182945D01*
X20213Y182998D01*
X20231Y183062D01*
X20248Y183127D01*
X20266Y183197D01*
X20307Y183350D01*
X20348Y183496D01*
X20372Y183567D01*
X20395Y183631D01*
X20413Y183690D01*
X20436Y183737D01*
Y183743D01*
X20442Y183754D01*
X20454Y183772D01*
X20466Y183796D01*
X20501Y183860D01*
X20548Y183936D01*
X20612Y184024D01*
X20683Y184112D01*
X20765Y184195D01*
X20853Y184265D01*
X20864Y184271D01*
X20894Y184294D01*
X20947Y184318D01*
X21017Y184353D01*
X21099Y184382D01*
X21199Y184412D01*
X21310Y184429D01*
X21428Y184435D01*
X21434D01*
X21439D01*
X21457D01*
X21481D01*
X21545Y184423D01*
D02*
G37*
%LPC*%
G36*
X78794Y232399D02*
X77586D01*
X77515Y232393D01*
X77433Y232387D01*
X77339Y232382D01*
X77245Y232370D01*
X77151Y232352D01*
X77069Y232329D01*
X77057Y232323D01*
X77034Y232311D01*
X76999Y232294D01*
X76952Y232270D01*
X76899Y232235D01*
X76846Y232194D01*
X76793Y232141D01*
X76752Y232082D01*
X76747Y232076D01*
X76735Y232053D01*
X76717Y232018D01*
X76694Y231971D01*
X76676Y231918D01*
X76659Y231859D01*
X76647Y231789D01*
X76641Y231719D01*
Y231713D01*
Y231707D01*
X76647Y231672D01*
X76653Y231619D01*
X76664Y231548D01*
X76694Y231478D01*
X76729Y231396D01*
X76782Y231320D01*
X76852Y231243D01*
X76864Y231237D01*
X76893Y231214D01*
X76940Y231185D01*
X77016Y231149D01*
X77104Y231114D01*
X77222Y231085D01*
X77357Y231061D01*
X77515Y231056D01*
X78794D01*
Y232399D01*
D02*
G37*
G36*
X905564Y354573D02*
X904355D01*
X904285Y354567D01*
X904203Y354561D01*
X904109Y354556D01*
X904015Y354544D01*
X903921Y354526D01*
X903839Y354503D01*
X903828Y354497D01*
X903804Y354485D01*
X903769Y354468D01*
X903722Y354444D01*
X903669Y354409D01*
X903616Y354368D01*
X903563Y354315D01*
X903522Y354256D01*
X903516Y354250D01*
X903505Y354227D01*
X903487Y354192D01*
X903464Y354145D01*
X903446Y354092D01*
X903428Y354033D01*
X903417Y353963D01*
X903411Y353893D01*
Y353887D01*
Y353881D01*
X903417Y353846D01*
X903423Y353793D01*
X903434Y353722D01*
X903464Y353652D01*
X903499Y353570D01*
X903552Y353494D01*
X903622Y353417D01*
X903634Y353411D01*
X903663Y353388D01*
X903710Y353359D01*
X903786Y353323D01*
X903874Y353288D01*
X903992Y353259D01*
X904127Y353235D01*
X904285Y353229D01*
X905564D01*
Y354573D01*
D02*
G37*
G36*
X189138Y517133D02*
X187929D01*
X187859Y517127D01*
X187777Y517121D01*
X187683Y517116D01*
X187589Y517104D01*
X187495Y517086D01*
X187413Y517063D01*
X187402Y517057D01*
X187378Y517045D01*
X187343Y517028D01*
X187296Y517004D01*
X187243Y516969D01*
X187190Y516928D01*
X187137Y516875D01*
X187096Y516816D01*
X187090Y516810D01*
X187079Y516787D01*
X187061Y516752D01*
X187038Y516705D01*
X187020Y516652D01*
X187003Y516593D01*
X186991Y516523D01*
X186985Y516453D01*
Y516447D01*
Y516441D01*
X186991Y516406D01*
X186997Y516353D01*
X187008Y516282D01*
X187038Y516212D01*
X187073Y516130D01*
X187126Y516054D01*
X187196Y515977D01*
X187208Y515971D01*
X187237Y515948D01*
X187284Y515919D01*
X187360Y515883D01*
X187448Y515848D01*
X187566Y515819D01*
X187701Y515795D01*
X187859Y515789D01*
X189138D01*
Y517133D01*
D02*
G37*
G36*
X184415Y519058D02*
X184386D01*
X184362Y519052D01*
X184303Y519046D01*
X184227Y519028D01*
X184145Y518993D01*
X184051Y518952D01*
X183957Y518887D01*
X183910Y518852D01*
X183869Y518805D01*
Y518800D01*
X183857Y518794D01*
X183834Y518758D01*
X183799Y518700D01*
X183752Y518624D01*
X183711Y518524D01*
X183676Y518406D01*
X183652Y518271D01*
X183640Y518113D01*
Y518107D01*
Y518095D01*
Y518072D01*
X183646Y518043D01*
Y518007D01*
X183652Y517966D01*
X183670Y517873D01*
X183693Y517767D01*
X183734Y517655D01*
X183793Y517550D01*
X183869Y517450D01*
X183881Y517438D01*
X183910Y517409D01*
X183957Y517374D01*
X184022Y517327D01*
X184104Y517280D01*
X184198Y517245D01*
X184309Y517215D01*
X184433Y517204D01*
X184468D01*
X184491Y517210D01*
X184550Y517215D01*
X184632Y517233D01*
X184720Y517262D01*
X184820Y517309D01*
X184914Y517368D01*
X185008Y517450D01*
X185019Y517462D01*
X185043Y517491D01*
X185084Y517544D01*
X185125Y517620D01*
X185166Y517708D01*
X185207Y517820D01*
X185231Y517943D01*
X185242Y518084D01*
Y518095D01*
Y518125D01*
X185236Y518178D01*
X185231Y518242D01*
X185219Y518318D01*
X185195Y518400D01*
X185172Y518489D01*
X185137Y518577D01*
X185131Y518588D01*
X185113Y518618D01*
X185090Y518659D01*
X185054Y518712D01*
X185013Y518764D01*
X184961Y518829D01*
X184902Y518882D01*
X184832Y518935D01*
X184820Y518940D01*
X184796Y518952D01*
X184755Y518975D01*
X184702Y518993D01*
X184644Y519017D01*
X184573Y519040D01*
X184497Y519052D01*
X184415Y519058D01*
D02*
G37*
G36*
X638627Y66107D02*
X638621D01*
X638615D01*
X638580Y66101D01*
X638527Y66095D01*
X638456Y66084D01*
X638386Y66054D01*
X638304Y66019D01*
X638228Y65966D01*
X638151Y65896D01*
X638145Y65884D01*
X638122Y65855D01*
X638093Y65808D01*
X638057Y65732D01*
X638022Y65644D01*
X637993Y65526D01*
X637969Y65391D01*
X637963Y65233D01*
Y63954D01*
X639307D01*
Y65163D01*
X639301Y65233D01*
X639295Y65315D01*
X639290Y65409D01*
X639278Y65503D01*
X639260Y65597D01*
X639237Y65679D01*
X639231Y65690D01*
X639219Y65714D01*
X639202Y65749D01*
X639178Y65796D01*
X639143Y65849D01*
X639102Y65902D01*
X639049Y65955D01*
X638990Y65996D01*
X638984Y66002D01*
X638961Y66013D01*
X638926Y66031D01*
X638879Y66054D01*
X638826Y66072D01*
X638767Y66090D01*
X638697Y66101D01*
X638627Y66107D01*
D02*
G37*
G36*
X610543Y74374D02*
X610361D01*
X610355D01*
X610350D01*
X610320D01*
X610267D01*
X610197Y74369D01*
X610121D01*
X610027Y74363D01*
X609927Y74357D01*
X609815Y74345D01*
X609593Y74316D01*
X609481Y74298D01*
X609375Y74275D01*
X609276Y74251D01*
X609182Y74216D01*
X609100Y74181D01*
X609029Y74140D01*
X609023D01*
X609018Y74128D01*
X609000Y74116D01*
X608977Y74099D01*
X608924Y74046D01*
X608859Y73981D01*
X608801Y73893D01*
X608748Y73794D01*
X608724Y73741D01*
X608707Y73682D01*
X608701Y73618D01*
X608695Y73553D01*
Y73518D01*
X608701Y73494D01*
X608713Y73430D01*
X608730Y73354D01*
X608765Y73266D01*
X608818Y73172D01*
X608853Y73125D01*
X608889Y73078D01*
X608935Y73037D01*
X608988Y72996D01*
X608994D01*
X609006Y72984D01*
X609029Y72972D01*
X609059Y72955D01*
X609106Y72937D01*
X609158Y72913D01*
X609223Y72896D01*
X609299Y72872D01*
X609387Y72849D01*
X609487Y72825D01*
X609599Y72802D01*
X609722Y72784D01*
X609863Y72767D01*
X610015Y72755D01*
X610179Y72749D01*
X610361Y72743D01*
X610373D01*
X610402D01*
X610455D01*
X610526Y72749D01*
X610602D01*
X610696Y72755D01*
X610795Y72761D01*
X610901Y72773D01*
X611130Y72802D01*
X611241Y72820D01*
X611347Y72843D01*
X611447Y72867D01*
X611541Y72902D01*
X611623Y72937D01*
X611693Y72978D01*
X611699D01*
X611705Y72990D01*
X611746Y73019D01*
X611799Y73072D01*
X611857Y73137D01*
X611916Y73225D01*
X611969Y73324D01*
X612010Y73436D01*
X612016Y73494D01*
X612022Y73559D01*
Y73594D01*
X612016Y73618D01*
X612004Y73676D01*
X611981Y73758D01*
X611940Y73846D01*
X611881Y73946D01*
X611846Y73993D01*
X611799Y74040D01*
X611752Y74087D01*
X611693Y74134D01*
X611687D01*
X611675Y74146D01*
X611658Y74157D01*
X611629Y74169D01*
X611587Y74193D01*
X611535Y74210D01*
X611476Y74234D01*
X611406Y74257D01*
X611318Y74275D01*
X611224Y74298D01*
X611112Y74322D01*
X610995Y74339D01*
X610854Y74351D01*
X610707Y74363D01*
X610543Y74374D01*
D02*
G37*
G36*
X609417Y67885D02*
X609411D01*
X609405D01*
X609370Y67879D01*
X609317Y67873D01*
X609246Y67862D01*
X609176Y67832D01*
X609094Y67797D01*
X609018Y67744D01*
X608941Y67674D01*
X608935Y67662D01*
X608912Y67633D01*
X608883Y67586D01*
X608847Y67510D01*
X608812Y67422D01*
X608783Y67304D01*
X608759Y67169D01*
X608754Y67011D01*
Y65732D01*
X610097D01*
Y66940D01*
X610091Y67011D01*
X610085Y67093D01*
X610080Y67187D01*
X610068Y67281D01*
X610050Y67375D01*
X610027Y67457D01*
X610021Y67469D01*
X610009Y67492D01*
X609992Y67527D01*
X609968Y67574D01*
X609933Y67627D01*
X609892Y67680D01*
X609839Y67733D01*
X609780Y67774D01*
X609775Y67779D01*
X609751Y67791D01*
X609716Y67809D01*
X609669Y67832D01*
X609616Y67850D01*
X609557Y67867D01*
X609487Y67879D01*
X609417Y67885D01*
D02*
G37*
G36*
X835223Y369891D02*
X835217D01*
X835211D01*
X835176Y369885D01*
X835123Y369879D01*
X835052Y369868D01*
X834982Y369838D01*
X834900Y369803D01*
X834824Y369750D01*
X834747Y369680D01*
X834741Y369668D01*
X834718Y369639D01*
X834689Y369592D01*
X834653Y369516D01*
X834618Y369428D01*
X834589Y369310D01*
X834565Y369175D01*
X834559Y369017D01*
Y367738D01*
X835903D01*
Y368946D01*
X835897Y369017D01*
X835891Y369099D01*
X835886Y369193D01*
X835874Y369287D01*
X835856Y369381D01*
X835833Y369463D01*
X835827Y369474D01*
X835815Y369498D01*
X835798Y369533D01*
X835774Y369580D01*
X835739Y369633D01*
X835698Y369686D01*
X835645Y369739D01*
X835586Y369780D01*
X835581Y369785D01*
X835557Y369797D01*
X835522Y369815D01*
X835475Y369838D01*
X835422Y369856D01*
X835363Y369874D01*
X835293Y369885D01*
X835223Y369891D01*
D02*
G37*
G36*
X905056Y303011D02*
X903848D01*
X903777Y303005D01*
X903695Y302999D01*
X903601Y302994D01*
X903507Y302982D01*
X903413Y302964D01*
X903331Y302941D01*
X903319Y302935D01*
X903296Y302923D01*
X903261Y302906D01*
X903214Y302882D01*
X903161Y302847D01*
X903108Y302806D01*
X903055Y302753D01*
X903014Y302694D01*
X903008Y302689D01*
X902997Y302665D01*
X902979Y302630D01*
X902956Y302583D01*
X902938Y302530D01*
X902921Y302471D01*
X902909Y302401D01*
X902903Y302331D01*
Y302325D01*
Y302319D01*
X902909Y302284D01*
X902915Y302231D01*
X902926Y302160D01*
X902956Y302090D01*
X902991Y302008D01*
X903044Y301932D01*
X903114Y301855D01*
X903126Y301849D01*
X903155Y301826D01*
X903202Y301797D01*
X903278Y301761D01*
X903366Y301726D01*
X903484Y301697D01*
X903619Y301673D01*
X903777Y301667D01*
X905056D01*
Y303011D01*
D02*
G37*
G36*
X481800Y184839D02*
X481764D01*
X481741Y184833D01*
X481676Y184827D01*
X481600Y184810D01*
X481506Y184780D01*
X481412Y184739D01*
X481319Y184681D01*
X481231Y184599D01*
X481219Y184587D01*
X481195Y184552D01*
X481160Y184499D01*
X481113Y184422D01*
X481072Y184329D01*
X481037Y184217D01*
X481013Y184082D01*
X481002Y183930D01*
Y183924D01*
Y183912D01*
Y183889D01*
X481007Y183859D01*
Y183818D01*
X481013Y183777D01*
X481031Y183683D01*
X481054Y183572D01*
X481096Y183454D01*
X481154Y183343D01*
X481231Y183243D01*
Y183237D01*
X481242Y183231D01*
X481272Y183202D01*
X481319Y183161D01*
X481383Y183114D01*
X481465Y183073D01*
X481559Y183032D01*
X481665Y183003D01*
X481723Y182991D01*
X481817D01*
X481841Y182997D01*
X481905Y183003D01*
X481982Y183026D01*
X482075Y183055D01*
X482175Y183108D01*
X482275Y183173D01*
X482322Y183220D01*
X482369Y183267D01*
Y183272D01*
X482380Y183278D01*
X482392Y183296D01*
X482404Y183314D01*
X482445Y183372D01*
X482486Y183454D01*
X482533Y183554D01*
X482574Y183677D01*
X482598Y183818D01*
X482609Y183971D01*
Y183977D01*
Y183988D01*
Y184006D01*
X482603Y184035D01*
Y184070D01*
X482598Y184106D01*
X482580Y184194D01*
X482551Y184293D01*
X482515Y184399D01*
X482457Y184505D01*
X482380Y184599D01*
X482369Y184610D01*
X482339Y184634D01*
X482287Y184675D01*
X482222Y184716D01*
X482134Y184763D01*
X482034Y184804D01*
X481923Y184827D01*
X481800Y184839D01*
D02*
G37*
G36*
X486464Y184393D02*
X485256D01*
X485185Y184387D01*
X485103Y184381D01*
X485009Y184376D01*
X484915Y184364D01*
X484821Y184346D01*
X484739Y184323D01*
X484728Y184317D01*
X484704Y184305D01*
X484669Y184288D01*
X484622Y184264D01*
X484569Y184229D01*
X484516Y184188D01*
X484463Y184135D01*
X484422Y184076D01*
X484417Y184070D01*
X484405Y184047D01*
X484387Y184012D01*
X484364Y183965D01*
X484346Y183912D01*
X484328Y183853D01*
X484317Y183783D01*
X484311Y183713D01*
Y183707D01*
Y183701D01*
X484317Y183666D01*
X484323Y183613D01*
X484334Y183542D01*
X484364Y183472D01*
X484399Y183390D01*
X484452Y183314D01*
X484522Y183237D01*
X484534Y183231D01*
X484563Y183208D01*
X484610Y183179D01*
X484686Y183143D01*
X484774Y183108D01*
X484892Y183079D01*
X485027Y183055D01*
X485185Y183050D01*
X486464D01*
Y184393D01*
D02*
G37*
G36*
X883466Y400801D02*
X882258D01*
X882187Y400795D01*
X882105Y400789D01*
X882011Y400784D01*
X881917Y400772D01*
X881823Y400754D01*
X881741Y400731D01*
X881730Y400725D01*
X881706Y400713D01*
X881671Y400696D01*
X881624Y400672D01*
X881571Y400637D01*
X881518Y400596D01*
X881465Y400543D01*
X881424Y400484D01*
X881419Y400479D01*
X881407Y400455D01*
X881389Y400420D01*
X881366Y400373D01*
X881348Y400320D01*
X881330Y400261D01*
X881319Y400191D01*
X881313Y400121D01*
Y400115D01*
Y400109D01*
X881319Y400074D01*
X881325Y400021D01*
X881336Y399950D01*
X881366Y399880D01*
X881401Y399798D01*
X881454Y399722D01*
X881524Y399645D01*
X881536Y399639D01*
X881565Y399616D01*
X881612Y399587D01*
X881688Y399551D01*
X881776Y399516D01*
X881894Y399487D01*
X882029Y399463D01*
X882187Y399458D01*
X883466D01*
Y400801D01*
D02*
G37*
G36*
X876648Y401634D02*
X875369D01*
Y399815D01*
X876648Y401634D01*
D02*
G37*
G36*
X484449Y506229D02*
X484443D01*
X484437D01*
X484402Y506223D01*
X484349Y506217D01*
X484278Y506205D01*
X484208Y506176D01*
X484126Y506141D01*
X484050Y506088D01*
X483973Y506017D01*
X483967Y506006D01*
X483944Y505976D01*
X483915Y505929D01*
X483879Y505853D01*
X483844Y505765D01*
X483815Y505648D01*
X483791Y505513D01*
X483786Y505354D01*
Y504075D01*
X485129D01*
Y505284D01*
X485123Y505354D01*
X485117Y505437D01*
X485112Y505531D01*
X485100Y505624D01*
X485082Y505718D01*
X485059Y505800D01*
X485053Y505812D01*
X485041Y505836D01*
X485024Y505871D01*
X485000Y505918D01*
X484965Y505970D01*
X484924Y506023D01*
X484871Y506076D01*
X484812Y506117D01*
X484807Y506123D01*
X484783Y506135D01*
X484748Y506152D01*
X484701Y506176D01*
X484648Y506194D01*
X484589Y506211D01*
X484519Y506223D01*
X484449Y506229D01*
D02*
G37*
G36*
X935553Y327473D02*
X935547D01*
X935541D01*
X935506Y327467D01*
X935453Y327461D01*
X935382Y327450D01*
X935312Y327420D01*
X935230Y327385D01*
X935154Y327332D01*
X935077Y327262D01*
X935071Y327250D01*
X935048Y327221D01*
X935019Y327174D01*
X934983Y327098D01*
X934948Y327010D01*
X934919Y326892D01*
X934895Y326757D01*
X934890Y326599D01*
Y325320D01*
X936233D01*
Y326529D01*
X936227Y326599D01*
X936221Y326681D01*
X936216Y326775D01*
X936204Y326869D01*
X936186Y326963D01*
X936163Y327045D01*
X936157Y327057D01*
X936145Y327080D01*
X936128Y327115D01*
X936104Y327162D01*
X936069Y327215D01*
X936028Y327268D01*
X935975Y327321D01*
X935916Y327362D01*
X935910Y327368D01*
X935887Y327379D01*
X935852Y327397D01*
X935805Y327420D01*
X935752Y327438D01*
X935693Y327455D01*
X935623Y327467D01*
X935553Y327473D01*
D02*
G37*
G36*
X355417Y494859D02*
X355411D01*
X355405D01*
X355370Y494853D01*
X355317Y494847D01*
X355246Y494836D01*
X355176Y494806D01*
X355094Y494771D01*
X355018Y494718D01*
X354941Y494648D01*
X354935Y494636D01*
X354912Y494607D01*
X354883Y494560D01*
X354847Y494484D01*
X354812Y494396D01*
X354783Y494278D01*
X354759Y494143D01*
X354753Y493985D01*
Y492706D01*
X356097D01*
Y493914D01*
X356091Y493985D01*
X356085Y494067D01*
X356080Y494161D01*
X356068Y494255D01*
X356050Y494349D01*
X356027Y494431D01*
X356021Y494442D01*
X356009Y494466D01*
X355992Y494501D01*
X355968Y494548D01*
X355933Y494601D01*
X355892Y494654D01*
X355839Y494707D01*
X355780Y494748D01*
X355774Y494753D01*
X355751Y494765D01*
X355716Y494783D01*
X355669Y494806D01*
X355616Y494824D01*
X355557Y494841D01*
X355487Y494853D01*
X355417Y494859D01*
D02*
G37*
G36*
X375412Y497791D02*
X375406D01*
X375400D01*
X375365D01*
X375312Y497779D01*
X375248Y497768D01*
X375177Y497744D01*
X375101Y497709D01*
X375025Y497662D01*
X374949Y497598D01*
X374943Y497592D01*
X374919Y497562D01*
X374890Y497521D01*
X374855Y497468D01*
X374819Y497398D01*
X374790Y497322D01*
X374767Y497228D01*
X374761Y497128D01*
Y497081D01*
X374773Y497028D01*
X374784Y496958D01*
X374808Y496882D01*
X374837Y496800D01*
X374884Y496723D01*
X374949Y496647D01*
X374954Y496641D01*
X374978Y496618D01*
X375019Y496588D01*
X375072Y496559D01*
X375136Y496524D01*
X375213Y496494D01*
X375295Y496471D01*
X375389Y496465D01*
X375395D01*
X375400D01*
X375436Y496471D01*
X375488Y496477D01*
X375553Y496489D01*
X375629Y496512D01*
X375705Y496541D01*
X375788Y496588D01*
X375858Y496647D01*
X375864Y496653D01*
X375887Y496682D01*
X375917Y496723D01*
X375946Y496776D01*
X375981Y496847D01*
X376011Y496929D01*
X376034Y497023D01*
X376040Y497128D01*
Y497140D01*
X376034Y497175D01*
X376028Y497228D01*
X376017Y497298D01*
X375993Y497374D01*
X375964Y497451D01*
X375917Y497533D01*
X375858Y497603D01*
X375852Y497609D01*
X375823Y497633D01*
X375788Y497662D01*
X375735Y497697D01*
X375670Y497733D01*
X375594Y497762D01*
X375506Y497785D01*
X375412Y497791D01*
D02*
G37*
G36*
X377278Y497955D02*
X377272D01*
X377260D01*
X377243D01*
X377219Y497950D01*
X377155Y497944D01*
X377067Y497926D01*
X376979Y497897D01*
X376879Y497856D01*
X376779Y497797D01*
X376685Y497715D01*
X376674Y497703D01*
X376650Y497674D01*
X376609Y497621D01*
X376562Y497551D01*
X376521Y497463D01*
X376480Y497357D01*
X376456Y497240D01*
X376445Y497110D01*
Y497075D01*
X376451Y497052D01*
X376456Y496987D01*
X376474Y496905D01*
X376503Y496811D01*
X376545Y496717D01*
X376603Y496618D01*
X376679Y496530D01*
X376691Y496518D01*
X376721Y496494D01*
X376773Y496459D01*
X376838Y496418D01*
X376926Y496371D01*
X377026Y496336D01*
X377137Y496312D01*
X377260Y496301D01*
X377272D01*
X377296D01*
X377337Y496307D01*
X377389Y496312D01*
X377454Y496324D01*
X377524Y496342D01*
X377595Y496365D01*
X377671Y496395D01*
X377677Y496401D01*
X377706Y496412D01*
X377742Y496436D01*
X377783Y496471D01*
X377835Y496512D01*
X377888Y496565D01*
X377935Y496623D01*
X377982Y496694D01*
X377988Y496706D01*
X378000Y496729D01*
X378017Y496770D01*
X378035Y496823D01*
X378052Y496888D01*
X378070Y496964D01*
X378082Y497046D01*
X378088Y497128D01*
Y497163D01*
X378082Y497187D01*
X378076Y497257D01*
X378058Y497339D01*
X378029Y497433D01*
X377994Y497533D01*
X377935Y497627D01*
X377859Y497721D01*
X377847Y497733D01*
X377818Y497756D01*
X377765Y497797D01*
X377700Y497838D01*
X377618Y497879D01*
X377519Y497920D01*
X377401Y497944D01*
X377278Y497955D01*
D02*
G37*
G36*
X375483Y494605D02*
X375477D01*
X375471D01*
X375436Y494599D01*
X375383Y494593D01*
X375312Y494582D01*
X375242Y494552D01*
X375160Y494517D01*
X375084Y494464D01*
X375007Y494394D01*
X375001Y494382D01*
X374978Y494353D01*
X374949Y494306D01*
X374913Y494230D01*
X374878Y494142D01*
X374849Y494024D01*
X374825Y493889D01*
X374819Y493731D01*
Y492452D01*
X376163D01*
Y493661D01*
X376157Y493731D01*
X376151Y493813D01*
X376146Y493907D01*
X376134Y494001D01*
X376116Y494095D01*
X376093Y494177D01*
X376087Y494188D01*
X376075Y494212D01*
X376058Y494247D01*
X376034Y494294D01*
X375999Y494347D01*
X375958Y494400D01*
X375905Y494453D01*
X375846Y494494D01*
X375840Y494500D01*
X375817Y494511D01*
X375782Y494529D01*
X375735Y494552D01*
X375682Y494570D01*
X375623Y494588D01*
X375553Y494599D01*
X375483Y494605D01*
D02*
G37*
G36*
X544436Y350020D02*
X544254D01*
X544248D01*
X544243D01*
X544213D01*
X544160D01*
X544090Y350015D01*
X544014D01*
X543920Y350009D01*
X543820Y350003D01*
X543709Y349991D01*
X543486Y349962D01*
X543374Y349944D01*
X543269Y349921D01*
X543169Y349897D01*
X543075Y349862D01*
X542993Y349827D01*
X542922Y349786D01*
X542916D01*
X542911Y349774D01*
X542893Y349762D01*
X542870Y349745D01*
X542817Y349692D01*
X542752Y349627D01*
X542694Y349539D01*
X542641Y349440D01*
X542617Y349387D01*
X542600Y349328D01*
X542594Y349264D01*
X542588Y349199D01*
Y349164D01*
X542594Y349140D01*
X542606Y349076D01*
X542623Y348999D01*
X542658Y348912D01*
X542711Y348818D01*
X542746Y348771D01*
X542782Y348724D01*
X542828Y348683D01*
X542881Y348642D01*
X542887D01*
X542899Y348630D01*
X542922Y348618D01*
X542952Y348601D01*
X542999Y348583D01*
X543051Y348559D01*
X543116Y348542D01*
X543192Y348518D01*
X543280Y348495D01*
X543380Y348471D01*
X543492Y348448D01*
X543615Y348430D01*
X543756Y348413D01*
X543908Y348401D01*
X544072Y348395D01*
X544254Y348389D01*
X544266D01*
X544295D01*
X544348D01*
X544419Y348395D01*
X544495D01*
X544589Y348401D01*
X544688Y348407D01*
X544794Y348419D01*
X545023Y348448D01*
X545134Y348466D01*
X545240Y348489D01*
X545340Y348512D01*
X545434Y348548D01*
X545516Y348583D01*
X545586Y348624D01*
X545592D01*
X545598Y348636D01*
X545639Y348665D01*
X545692Y348718D01*
X545751Y348782D01*
X545809Y348870D01*
X545862Y348970D01*
X545903Y349082D01*
X545909Y349140D01*
X545915Y349205D01*
Y349240D01*
X545909Y349264D01*
X545897Y349322D01*
X545874Y349404D01*
X545833Y349492D01*
X545774Y349592D01*
X545739Y349639D01*
X545692Y349686D01*
X545645Y349733D01*
X545586Y349780D01*
X545580D01*
X545569Y349792D01*
X545551Y349803D01*
X545522Y349815D01*
X545481Y349839D01*
X545428Y349856D01*
X545369Y349880D01*
X545299Y349903D01*
X545211Y349921D01*
X545117Y349944D01*
X545005Y349968D01*
X544888Y349985D01*
X544747Y349997D01*
X544600Y350009D01*
X544436Y350020D01*
D02*
G37*
G36*
X543310Y343531D02*
X543304D01*
X543298D01*
X543263Y343525D01*
X543210Y343519D01*
X543139Y343508D01*
X543069Y343478D01*
X542987Y343443D01*
X542911Y343390D01*
X542834Y343320D01*
X542828Y343308D01*
X542805Y343279D01*
X542776Y343232D01*
X542741Y343156D01*
X542705Y343068D01*
X542676Y342950D01*
X542653Y342815D01*
X542647Y342657D01*
Y341378D01*
X543990D01*
Y342587D01*
X543984Y342657D01*
X543979Y342739D01*
X543973Y342833D01*
X543961Y342927D01*
X543943Y343021D01*
X543920Y343103D01*
X543914Y343115D01*
X543902Y343138D01*
X543885Y343173D01*
X543861Y343220D01*
X543826Y343273D01*
X543785Y343326D01*
X543732Y343379D01*
X543673Y343420D01*
X543668Y343425D01*
X543644Y343437D01*
X543609Y343455D01*
X543562Y343478D01*
X543509Y343496D01*
X543451Y343513D01*
X543380Y343525D01*
X543310Y343531D01*
D02*
G37*
G36*
X20506Y408728D02*
X20501D01*
X20477D01*
X20448D01*
X20401Y408722D01*
X20348D01*
X20289Y408716D01*
X20219Y408710D01*
X20149Y408704D01*
X19990Y408675D01*
X19826Y408640D01*
X19673Y408587D01*
X19597Y408552D01*
X19533Y408517D01*
X19527D01*
X19515Y408505D01*
X19497Y408493D01*
X19474Y408481D01*
X19415Y408434D01*
X19345Y408376D01*
X19268Y408300D01*
X19192Y408212D01*
X19128Y408112D01*
X19075Y408006D01*
X19069Y407994D01*
X19063Y407965D01*
X19046Y407912D01*
X19028Y407836D01*
X19016Y407742D01*
X18999Y407625D01*
X18993Y407554D01*
Y407478D01*
X18987Y407402D01*
Y406463D01*
X22085D01*
Y407425D01*
X22079Y407466D01*
X22073Y407554D01*
X22067Y407654D01*
X22055Y407760D01*
X22038Y407865D01*
X22015Y407953D01*
X22009Y407965D01*
X22003Y407994D01*
X21985Y408036D01*
X21962Y408088D01*
X21926Y408147D01*
X21891Y408206D01*
X21850Y408264D01*
X21803Y408323D01*
X21792Y408329D01*
X21768Y408352D01*
X21727Y408388D01*
X21668Y408429D01*
X21592Y408476D01*
X21504Y408528D01*
X21404Y408575D01*
X21293Y408616D01*
X21287D01*
X21275Y408622D01*
X21258Y408628D01*
X21234Y408634D01*
X21205Y408640D01*
X21164Y408652D01*
X21123Y408663D01*
X21076Y408675D01*
X20958Y408693D01*
X20823Y408710D01*
X20671Y408722D01*
X20506Y408728D01*
D02*
G37*
G36*
Y193336D02*
X20501D01*
X20477D01*
X20448D01*
X20401Y193330D01*
X20348D01*
X20289Y193324D01*
X20219Y193318D01*
X20149Y193312D01*
X19990Y193283D01*
X19826Y193248D01*
X19673Y193195D01*
X19597Y193160D01*
X19533Y193125D01*
X19527D01*
X19515Y193113D01*
X19497Y193101D01*
X19474Y193090D01*
X19415Y193043D01*
X19345Y192984D01*
X19268Y192908D01*
X19192Y192820D01*
X19128Y192720D01*
X19075Y192614D01*
X19069Y192603D01*
X19063Y192573D01*
X19046Y192520D01*
X19028Y192444D01*
X19016Y192350D01*
X18999Y192233D01*
X18993Y192162D01*
Y192086D01*
X18987Y192010D01*
Y191071D01*
X22085D01*
Y192033D01*
X22079Y192074D01*
X22073Y192162D01*
X22067Y192262D01*
X22055Y192368D01*
X22038Y192473D01*
X22015Y192561D01*
X22009Y192573D01*
X22003Y192603D01*
X21985Y192644D01*
X21962Y192696D01*
X21926Y192755D01*
X21891Y192814D01*
X21850Y192872D01*
X21803Y192931D01*
X21792Y192937D01*
X21768Y192960D01*
X21727Y192996D01*
X21668Y193037D01*
X21592Y193084D01*
X21504Y193136D01*
X21404Y193183D01*
X21293Y193224D01*
X21287D01*
X21275Y193230D01*
X21258Y193236D01*
X21234Y193242D01*
X21205Y193248D01*
X21164Y193260D01*
X21123Y193271D01*
X21076Y193283D01*
X20958Y193301D01*
X20823Y193318D01*
X20671Y193330D01*
X20506Y193336D01*
D02*
G37*
%LPD*%
D11*
X9866Y381000D02*
X30217D01*
Y481600D01*
X9866D02*
X30217D01*
X9866Y381000D02*
Y481600D01*
Y165608D02*
Y266208D01*
X30217D01*
Y165608D02*
Y266208D01*
X9866Y165608D02*
X30217D01*
D12*
X58334Y226664D02*
X79334D01*
X58334D02*
Y238664D01*
X79334D01*
Y226664D02*
Y238664D01*
X885104Y348838D02*
X906104D01*
X885104D02*
Y360838D01*
X906104D01*
Y348838D02*
Y360838D01*
X168678Y511398D02*
X189678D01*
X168678D02*
Y523398D01*
X189678D01*
Y511398D02*
Y523398D01*
X633572Y63414D02*
Y84414D01*
X645572D01*
Y63414D02*
Y84414D01*
X633572Y63414D02*
X645572D01*
X604362Y65192D02*
Y86192D01*
X616362D01*
Y65192D02*
Y86192D01*
X604362Y65192D02*
X616362D01*
X830168Y367198D02*
Y388198D01*
X842168D01*
Y367198D02*
Y388198D01*
X830168Y367198D02*
X842168D01*
X884596Y297276D02*
X905596D01*
X884596D02*
Y309276D01*
X905596D01*
Y297276D02*
Y309276D01*
X466004Y178658D02*
X487004D01*
X466004D02*
Y190658D01*
X487004D01*
Y178658D02*
Y190658D01*
X863006Y395066D02*
X884006D01*
X863006D02*
Y407066D01*
X884006D01*
Y395066D02*
Y407066D01*
X479394Y503535D02*
Y524536D01*
X491394D01*
Y503535D02*
Y524536D01*
X479394Y503535D02*
X491394D01*
X930498Y324780D02*
Y345780D01*
X942498D01*
Y324780D02*
Y345780D01*
X930498Y324780D02*
X942498D01*
X350362Y492166D02*
Y513166D01*
X362362D01*
Y492166D02*
Y513166D01*
X350362Y492166D02*
X362362D01*
X370428Y491912D02*
Y512912D01*
X382428D01*
Y491912D02*
Y512912D01*
X370428Y491912D02*
X382428D01*
X538255Y340838D02*
Y361838D01*
X550255D01*
Y340838D02*
Y361838D01*
X538255Y340838D02*
X550255D01*
M02*
