%TF.GenerationSoftware,Altium Limited,Altium Designer,19.1.9 (167)*%
G04 Layer_Color=255*
%FSLAX26Y26*%
%MOIN*%
%TF.FileFunction,Pads,Top*%
%TF.Part,Single*%
G01*
G75*
%TA.AperFunction,SMDPad,CuDef*%
%ADD10R,0.041339X0.041339*%
%ADD11R,0.041339X0.041339*%
%ADD12R,0.025591X0.041339*%
%ADD13R,0.047244X0.023622*%
%ADD14R,0.041339X0.015748*%
%ADD15R,0.015748X0.041339*%
%ADD16R,0.023622X0.070866*%
%ADD17R,0.041340X0.086610*%
%ADD18R,0.039370X0.041340*%
%ADD19R,0.086614X0.047244*%
%ADD20R,0.018701X0.014764*%
G04:AMPARAMS|DCode=21|XSize=59.055mil|YSize=59.055mil|CornerRadius=2.953mil|HoleSize=0mil|Usage=FLASHONLY|Rotation=180.000|XOffset=0mil|YOffset=0mil|HoleType=Round|Shape=RoundedRectangle|*
%AMROUNDEDRECTD21*
21,1,0.059055,0.053150,0,0,180.0*
21,1,0.053150,0.059055,0,0,180.0*
1,1,0.005906,-0.026575,0.026575*
1,1,0.005906,0.026575,0.026575*
1,1,0.005906,0.026575,-0.026575*
1,1,0.005906,-0.026575,-0.026575*
%
%ADD21ROUNDEDRECTD21*%
G04:AMPARAMS|DCode=22|XSize=19.685mil|YSize=31.496mil|CornerRadius=3.937mil|HoleSize=0mil|Usage=FLASHONLY|Rotation=270.000|XOffset=0mil|YOffset=0mil|HoleType=Round|Shape=RoundedRectangle|*
%AMROUNDEDRECTD22*
21,1,0.019685,0.023622,0,0,270.0*
21,1,0.011811,0.031496,0,0,270.0*
1,1,0.007874,-0.011811,-0.005906*
1,1,0.007874,-0.011811,0.005906*
1,1,0.007874,0.011811,0.005906*
1,1,0.007874,0.011811,-0.005906*
%
%ADD22ROUNDEDRECTD22*%
G04:AMPARAMS|DCode=23|XSize=19.685mil|YSize=31.496mil|CornerRadius=3.937mil|HoleSize=0mil|Usage=FLASHONLY|Rotation=180.000|XOffset=0mil|YOffset=0mil|HoleType=Round|Shape=RoundedRectangle|*
%AMROUNDEDRECTD23*
21,1,0.019685,0.023622,0,0,180.0*
21,1,0.011811,0.031496,0,0,180.0*
1,1,0.007874,-0.005906,0.011811*
1,1,0.007874,0.005906,0.011811*
1,1,0.007874,0.005906,-0.011811*
1,1,0.007874,-0.005906,-0.011811*
%
%ADD23ROUNDEDRECTD23*%
%ADD24R,0.035433X0.025591*%
%ADD25R,0.035433X0.039370*%
%ADD26R,0.027559X0.019685*%
%ADD27R,0.023622X0.033465*%
%ADD28R,0.033465X0.023622*%
G04:AMPARAMS|DCode=29|XSize=23.622mil|YSize=57.087mil|CornerRadius=2.008mil|HoleSize=0mil|Usage=FLASHONLY|Rotation=180.000|XOffset=0mil|YOffset=0mil|HoleType=Round|Shape=RoundedRectangle|*
%AMROUNDEDRECTD29*
21,1,0.023622,0.053071,0,0,180.0*
21,1,0.019606,0.057087,0,0,180.0*
1,1,0.004016,-0.009803,0.026535*
1,1,0.004016,0.009803,0.026535*
1,1,0.004016,0.009803,-0.026535*
1,1,0.004016,-0.009803,-0.026535*
%
%ADD29ROUNDEDRECTD29*%
%ADD30R,0.059055X0.027559*%
%ADD31R,0.059055X0.039370*%
%ADD32R,0.027559X0.059055*%
%ADD33R,0.031496X0.029748*%
%ADD34R,0.040000X0.035000*%
%ADD35R,0.037000X0.038000*%
%ADD36R,0.029748X0.031496*%
%ADD37R,0.038000X0.037000*%
%ADD38R,0.023622X0.045276*%
%ADD39R,0.028346X0.027165*%
%ADD40R,0.011024X0.016142*%
%ADD41R,0.016142X0.011024*%
%TA.AperFunction,ComponentPad*%
%ADD48C,0.250000*%
%ADD49O,0.100000X0.200000*%
%ADD50R,0.080000X0.080000*%
%ADD51O,0.066929X0.047244*%
%ADD52O,0.055118X0.039370*%
%ADD53C,0.059055*%
%ADD54R,0.059055X0.059055*%
%TA.AperFunction,ViaPad*%
%ADD55C,0.120000*%
D10*
X3181000Y921425D02*
D03*
Y974575D02*
D03*
X3298000Y2062575D02*
D03*
Y2009425D02*
D03*
X2534000Y138575D02*
D03*
Y85425D02*
D03*
X2340000Y324575D02*
D03*
Y271425D02*
D03*
X3308000Y1516575D02*
D03*
Y1463425D02*
D03*
X3763000Y1794425D02*
D03*
Y1847575D02*
D03*
X1711000Y2001575D02*
D03*
Y1948425D02*
D03*
X2011000Y1217425D02*
D03*
Y1270575D02*
D03*
X1818000Y1220425D02*
D03*
Y1273575D02*
D03*
X1647000Y1220425D02*
D03*
Y1273575D02*
D03*
X1387000Y1115575D02*
D03*
Y1062425D02*
D03*
X3629928Y1342230D02*
D03*
Y1289080D02*
D03*
X3025000Y1638575D02*
D03*
Y1585425D02*
D03*
X2942000Y2027575D02*
D03*
Y1974425D02*
D03*
X3144000Y1754575D02*
D03*
Y1701425D02*
D03*
X3561000Y1840575D02*
D03*
Y1787425D02*
D03*
X2947000Y516425D02*
D03*
Y569575D02*
D03*
X3678000Y1061575D02*
D03*
Y1008425D02*
D03*
X1403000Y1359575D02*
D03*
Y1306425D02*
D03*
X1955000Y1270575D02*
D03*
Y1217425D02*
D03*
X1898000Y1270575D02*
D03*
Y1217425D02*
D03*
X1758000Y1273575D02*
D03*
Y1220425D02*
D03*
X1702500Y1273575D02*
D03*
Y1220425D02*
D03*
X1641000Y2002575D02*
D03*
Y1949425D02*
D03*
D11*
X3020425Y1877000D02*
D03*
X3073575D02*
D03*
X2249575Y140000D02*
D03*
X2196425D02*
D03*
X2249575Y200000D02*
D03*
X2196425D02*
D03*
X2732575Y222000D02*
D03*
X2679425D02*
D03*
X1621575Y238000D02*
D03*
X1568425D02*
D03*
X1621575Y316000D02*
D03*
X1568425D02*
D03*
X1589425Y538000D02*
D03*
X1642575D02*
D03*
X2813425Y949000D02*
D03*
X2866575D02*
D03*
X941850Y2042000D02*
D03*
X995000D02*
D03*
X3201575Y659000D02*
D03*
X3148425D02*
D03*
D12*
X754748Y1912693D02*
D03*
Y1749307D02*
D03*
X670102Y1912693D02*
D03*
Y1749307D02*
D03*
X923677Y1758307D02*
D03*
Y1921693D02*
D03*
X1008323Y1758307D02*
D03*
Y1921693D02*
D03*
D13*
X659787Y1525402D02*
D03*
Y1488000D02*
D03*
Y1450598D02*
D03*
X758213D02*
D03*
Y1488000D02*
D03*
Y1525402D02*
D03*
X2950787Y657598D02*
D03*
Y732402D02*
D03*
X3049213D02*
D03*
Y695000D02*
D03*
Y657598D02*
D03*
X2953787Y948598D02*
D03*
Y1023402D02*
D03*
X3052213D02*
D03*
Y986000D02*
D03*
Y948598D02*
D03*
D14*
X3222402Y1826409D02*
D03*
Y1852000D02*
D03*
Y1877591D02*
D03*
X3147598D02*
D03*
Y1826409D02*
D03*
D15*
X2337409Y131598D02*
D03*
X2363000D02*
D03*
X2388591D02*
D03*
Y206402D02*
D03*
X2363000D02*
D03*
X2337409D02*
D03*
D16*
X2802528Y784354D02*
D03*
X2743472D02*
D03*
D17*
X2922930Y2469000D02*
D03*
X3039070D02*
D03*
X2846070Y109000D02*
D03*
X2729930D02*
D03*
D18*
X2981000Y2408960D02*
D03*
X2788000Y169040D02*
D03*
D19*
X1910000Y2248110D02*
D03*
Y2511890D02*
D03*
D20*
X476787Y1506307D02*
D03*
Y1479693D02*
D03*
X515173D02*
D03*
Y1506307D02*
D03*
D21*
X1862685Y1683984D02*
D03*
Y1585559D02*
D03*
Y1487134D02*
D03*
X1764260Y1683984D02*
D03*
Y1585559D02*
D03*
Y1487134D02*
D03*
X1665835Y1683984D02*
D03*
Y1585559D02*
D03*
Y1487134D02*
D03*
D22*
X1559535Y1763709D02*
D03*
Y1732213D02*
D03*
Y1700717D02*
D03*
Y1669221D02*
D03*
Y1637725D02*
D03*
Y1606228D02*
D03*
Y1574732D02*
D03*
Y1543236D02*
D03*
Y1511740D02*
D03*
Y1480244D02*
D03*
Y1448748D02*
D03*
Y1417252D02*
D03*
X1968984Y1412331D02*
D03*
Y1443827D02*
D03*
Y1475323D02*
D03*
Y1506819D02*
D03*
Y1538315D02*
D03*
Y1569811D02*
D03*
Y1601307D02*
D03*
Y1632803D02*
D03*
Y1664299D02*
D03*
Y1695795D02*
D03*
Y1727291D02*
D03*
Y1758787D02*
D03*
D23*
X1591032Y1808000D02*
D03*
X1622527D02*
D03*
X1654024D02*
D03*
X1685520D02*
D03*
X1717016D02*
D03*
X1748512D02*
D03*
X1780008D02*
D03*
X1811504D02*
D03*
X1843000D02*
D03*
X1874496D02*
D03*
X1905992D02*
D03*
X1937488D02*
D03*
Y1363118D02*
D03*
X1905992D02*
D03*
X1874496D02*
D03*
X1843000D02*
D03*
X1811504D02*
D03*
X1780008D02*
D03*
X1748512D02*
D03*
X1717016D02*
D03*
X1685520D02*
D03*
X1654024D02*
D03*
X1622527D02*
D03*
X1591032D02*
D03*
D24*
X3552213Y911638D02*
D03*
Y866362D02*
D03*
D25*
X3453787Y889000D02*
D03*
D26*
X3169000Y1181236D02*
D03*
Y1210764D02*
D03*
X3113000Y913764D02*
D03*
Y884236D02*
D03*
X3486000Y1509764D02*
D03*
Y1480236D02*
D03*
X2868000Y855236D02*
D03*
Y884764D02*
D03*
D27*
X3500410Y1397000D02*
D03*
X3551591D02*
D03*
X679835Y2037000D02*
D03*
X731016D02*
D03*
X2540410Y219000D02*
D03*
X2591591D02*
D03*
X3498410Y1194000D02*
D03*
X3549591D02*
D03*
X2796590Y859000D02*
D03*
X2745409D02*
D03*
X1866409Y729000D02*
D03*
X1917591D02*
D03*
X3413410Y1579000D02*
D03*
X3464591D02*
D03*
X3417590Y1514000D02*
D03*
X3366409D02*
D03*
D28*
X2438000Y325591D02*
D03*
Y274409D02*
D03*
X3242000Y1519591D02*
D03*
Y1468409D02*
D03*
X1911000Y2049352D02*
D03*
Y1998171D02*
D03*
X3687000Y1345591D02*
D03*
Y1294409D02*
D03*
X1403000Y2004591D02*
D03*
Y1953409D02*
D03*
X1482000Y2003591D02*
D03*
Y1952409D02*
D03*
X2127000Y1414591D02*
D03*
Y1363409D02*
D03*
X3696000Y1798409D02*
D03*
Y1849591D02*
D03*
D29*
X3299000Y1702716D02*
D03*
X3349000D02*
D03*
X3399000D02*
D03*
X3449000D02*
D03*
X3299000Y1917283D02*
D03*
X3349000D02*
D03*
X3399000D02*
D03*
X3449000D02*
D03*
X3561000Y1482716D02*
D03*
X3611000D02*
D03*
X3661000D02*
D03*
X3711000D02*
D03*
X3561000Y1697283D02*
D03*
X3611000D02*
D03*
X3661000D02*
D03*
X3711000D02*
D03*
D30*
X1741543Y562591D02*
D03*
Y523221D02*
D03*
Y483850D02*
D03*
Y444480D02*
D03*
Y405110D02*
D03*
Y365740D02*
D03*
Y326370D02*
D03*
Y287000D02*
D03*
Y247630D02*
D03*
Y208260D02*
D03*
Y168890D02*
D03*
Y129520D02*
D03*
X2088000D02*
D03*
Y168890D02*
D03*
Y208260D02*
D03*
Y247630D02*
D03*
Y287000D02*
D03*
Y326370D02*
D03*
Y365740D02*
D03*
Y405110D02*
D03*
Y444480D02*
D03*
Y483850D02*
D03*
Y523221D02*
D03*
Y562591D02*
D03*
D31*
X1741543Y84244D02*
D03*
X2088000D02*
D03*
D32*
X1993512Y578339D02*
D03*
X1954142D02*
D03*
X1914772D02*
D03*
X1875402D02*
D03*
X1836032D02*
D03*
D33*
X3568000Y1284378D02*
D03*
Y1345622D02*
D03*
X2896000Y1585378D02*
D03*
Y1646622D02*
D03*
X2958000Y1645622D02*
D03*
Y1584378D02*
D03*
X2876000Y2032622D02*
D03*
Y1971378D02*
D03*
X2807000Y1972378D02*
D03*
Y2033622D02*
D03*
X3114000Y1326378D02*
D03*
Y1387622D02*
D03*
X3112000Y1179378D02*
D03*
Y1240622D02*
D03*
D34*
X2123000Y1482000D02*
D03*
X2067000D02*
D03*
X1868000Y792000D02*
D03*
X1924000D02*
D03*
D35*
X493000Y1110500D02*
D03*
Y1051500D02*
D03*
X1560000Y2006500D02*
D03*
Y1947500D02*
D03*
X2949000Y1809500D02*
D03*
Y1750500D02*
D03*
X1402000Y1727500D02*
D03*
Y1786500D02*
D03*
X1321000Y1785500D02*
D03*
Y1726500D02*
D03*
D36*
X3202622Y733000D02*
D03*
X3141378D02*
D03*
D37*
X1865500Y679000D02*
D03*
X1924500D02*
D03*
X2086500Y1612000D02*
D03*
X2145500D02*
D03*
X2086500Y1554000D02*
D03*
X2145500D02*
D03*
X1847500Y1933000D02*
D03*
X1906500D02*
D03*
X1852500Y2122000D02*
D03*
X1911500D02*
D03*
D38*
X3774000Y1108213D02*
D03*
X3811402Y1009787D02*
D03*
X3736598D02*
D03*
D39*
X2595000Y82118D02*
D03*
Y121882D02*
D03*
D40*
X1347472Y1180913D02*
D03*
X1367158D02*
D03*
X1386842D02*
D03*
X1406528D02*
D03*
Y1245087D02*
D03*
X1386842D02*
D03*
X1367158D02*
D03*
X1347472D02*
D03*
D41*
X1409087Y1203158D02*
D03*
Y1222842D02*
D03*
X1344913D02*
D03*
Y1203158D02*
D03*
D48*
X2831685Y1286000D02*
D03*
X1042315D02*
D03*
D49*
X497039D02*
D03*
X3376961D02*
D03*
D50*
X3778000Y1298000D02*
D03*
D51*
X117276Y1391284D02*
D03*
Y1176716D02*
D03*
D52*
X236567Y1379472D02*
D03*
Y1188528D02*
D03*
D53*
X70000Y976000D02*
D03*
Y776000D02*
D03*
Y876000D02*
D03*
Y1787000D02*
D03*
Y1687000D02*
D03*
Y1887000D02*
D03*
D54*
Y676000D02*
D03*
Y1587000D02*
D03*
D55*
X659000Y2419000D02*
D03*
X3186000Y160000D02*
D03*
X659000D02*
D03*
X3186000Y2419000D02*
D03*
%TF.MD5,17a8f88815788dd56ebfc8a3b1ef4173*%
M02*
