G04*
G04 #@! TF.GenerationSoftware,Altium Limited,Altium Designer,21.6.4 (81)*
G04*
G04 Layer_Physical_Order=4*
G04 Layer_Color=16711680*
%FSLAX25Y25*%
%MOIN*%
G70*
G04*
G04 #@! TF.SameCoordinates,D92126B2-5F21-4161-9152-1B55B43E0DBD*
G04*
G04*
G04 #@! TF.FilePolarity,Positive*
G04*
G01*
G75*
%ADD11C,0.01000*%
%ADD21R,0.03800X0.03700*%
%ADD98C,0.00847*%
%ADD99C,0.01500*%
%ADD105C,0.04000*%
%ADD106C,0.25000*%
%ADD107O,0.10000X0.20000*%
%ADD108R,0.08000X0.08000*%
%ADD109O,0.06693X0.04724*%
%ADD110O,0.05512X0.03937*%
%ADD111C,0.05906*%
%ADD112R,0.05906X0.05906*%
%ADD113C,0.12000*%
%ADD114C,0.01600*%
%ADD115C,0.01400*%
%ADD127R,0.06890X0.01575*%
%ADD128R,0.09843X0.05610*%
%ADD129R,0.05748X0.07874*%
G36*
X321802Y254659D02*
X323667Y254159D01*
X325451Y253420D01*
X327123Y252455D01*
X328655Y251280D01*
X330020Y249915D01*
X331195Y248383D01*
X332161Y246711D01*
X332899Y244927D01*
X333399Y243062D01*
X333651Y241148D01*
X333651Y240182D01*
Y234277D01*
X333654Y234264D01*
X333651Y234252D01*
X333685Y232900D01*
X333693Y232863D01*
X333689Y232825D01*
X333954Y230133D01*
X333969Y230085D01*
Y230034D01*
X334497Y227382D01*
X334516Y227335D01*
X334521Y227285D01*
X335306Y224697D01*
X335330Y224652D01*
X335340Y224602D01*
X336375Y222104D01*
X336403Y222062D01*
X336418Y222013D01*
X337692Y219628D01*
X337724Y219589D01*
X337744Y219542D01*
X339246Y217294D01*
X339282Y217258D01*
X339306Y217213D01*
X341022Y215123D01*
X341061Y215091D01*
X341089Y215049D01*
X343001Y213136D01*
X343043Y213108D01*
X343075Y213069D01*
X345166Y211353D01*
X345211Y211329D01*
X345246Y211294D01*
X347495Y209791D01*
X347542Y209772D01*
X347581Y209740D01*
X349966Y208465D01*
X350014Y208450D01*
X350057Y208422D01*
X352555Y207387D01*
X352605Y207377D01*
X352649Y207353D01*
X355238Y206568D01*
X355288Y206563D01*
X355334Y206544D01*
X357987Y206016D01*
X358038D01*
X358086Y206002D01*
X360777Y205736D01*
X360815Y205740D01*
X360853Y205732D01*
X362205Y205699D01*
X362217Y205701D01*
X362230Y205698D01*
X371069D01*
X372983Y205446D01*
X374848Y204947D01*
X376632Y204208D01*
X378304Y203242D01*
X379836Y202067D01*
X381201Y200702D01*
X382376Y199170D01*
X383342Y197498D01*
X384081Y195714D01*
X384580Y193849D01*
X384832Y191935D01*
Y190970D01*
Y64986D01*
Y64020D01*
X384580Y62106D01*
X384081Y60241D01*
X383342Y58457D01*
X382376Y56785D01*
X381201Y55254D01*
X379836Y53888D01*
X378304Y52713D01*
X376632Y51748D01*
X374848Y51009D01*
X372983Y50509D01*
X371069Y50257D01*
X370104Y50257D01*
X362230D01*
X362217Y50255D01*
X362205Y50257D01*
X360853Y50224D01*
X360815Y50215D01*
X360777Y50219D01*
X358086Y49954D01*
X358038Y49939D01*
X357987D01*
X355334Y49412D01*
X355288Y49392D01*
X355238Y49387D01*
X352649Y48602D01*
X352605Y48578D01*
X352555Y48568D01*
X350057Y47534D01*
X350014Y47506D01*
X349966Y47491D01*
X347581Y46216D01*
X347542Y46184D01*
X347495Y46164D01*
X345246Y44662D01*
X345211Y44626D01*
X345166Y44602D01*
X343075Y42887D01*
X343043Y42847D01*
X343001Y42819D01*
X341089Y40907D01*
X341061Y40865D01*
X341022Y40833D01*
X339306Y38742D01*
X339282Y38698D01*
X339246Y38662D01*
X337744Y36413D01*
X337724Y36366D01*
X337692Y36327D01*
X336418Y33942D01*
X336403Y33894D01*
X336375Y33852D01*
X335340Y31353D01*
X335330Y31304D01*
X335306Y31259D01*
X334521Y28671D01*
X334516Y28620D01*
X334497Y28574D01*
X333969Y25921D01*
Y25871D01*
X333954Y25822D01*
X333689Y23131D01*
X333693Y23093D01*
X333685Y23056D01*
X333651Y21704D01*
X333654Y21691D01*
X333651Y21678D01*
Y14808D01*
X333399Y12893D01*
X332899Y11028D01*
X332160Y9245D01*
X331195Y7573D01*
X330020Y6041D01*
X328655Y4676D01*
X327123Y3500D01*
X325451Y2535D01*
X323667Y1796D01*
X321802Y1297D01*
X319888Y1044D01*
X205416D01*
Y17700D01*
X205354Y18012D01*
X205177Y18277D01*
X204912Y18454D01*
X204600Y18516D01*
X178800D01*
X178488Y18454D01*
X178223Y18277D01*
X178046Y18012D01*
X177984Y17700D01*
Y1044D01*
X65989D01*
X64075Y1297D01*
X62210Y1796D01*
X60426Y2535D01*
X58754Y3500D01*
X57222Y4676D01*
X55857Y6041D01*
X54682Y7573D01*
X53716Y9245D01*
X52977Y11029D01*
X52478Y12893D01*
X52226Y14808D01*
X52226Y15773D01*
Y21679D01*
X52223Y21691D01*
X52225Y21704D01*
X52192Y23056D01*
X52184Y23093D01*
X52188Y23131D01*
X51923Y25822D01*
X51908Y25871D01*
Y25921D01*
X51380Y28574D01*
X51361Y28620D01*
X51356Y28671D01*
X50571Y31259D01*
X50547Y31304D01*
X50537Y31353D01*
X49502Y33852D01*
X49474Y33894D01*
X49459Y33942D01*
X48184Y36327D01*
X48152Y36366D01*
X48133Y36413D01*
X46630Y38662D01*
X46595Y38698D01*
X46571Y38742D01*
X44855Y40833D01*
X44816Y40865D01*
X44788Y40907D01*
X42875Y42819D01*
X42833Y42847D01*
X42801Y42887D01*
X40711Y44602D01*
X40666Y44626D01*
X40630Y44662D01*
X38382Y46164D01*
X38335Y46184D01*
X38296Y46216D01*
X35911Y47491D01*
X35862Y47506D01*
X35820Y47534D01*
X33322Y48568D01*
X33272Y48578D01*
X33227Y48602D01*
X30639Y49387D01*
X30589Y49392D01*
X30542Y49412D01*
X27890Y49939D01*
X27839D01*
X27791Y49954D01*
X25099Y50219D01*
X25061Y50215D01*
X25024Y50224D01*
X23672Y50257D01*
X23660Y50255D01*
X23647Y50257D01*
X15773Y50257D01*
X14808Y50257D01*
X12893Y50509D01*
X11029Y51009D01*
X9245Y51748D01*
X7573Y52713D01*
X6041Y53888D01*
X4676Y55254D01*
X3500Y56785D01*
X2535Y58457D01*
X1796Y60241D01*
X1297Y62106D01*
X1044Y64020D01*
X1044Y64986D01*
Y190970D01*
X1044Y191935D01*
X1297Y193849D01*
X1796Y195714D01*
X2535Y197498D01*
X3500Y199170D01*
X4676Y200702D01*
X6041Y202067D01*
X7573Y203242D01*
X9245Y204208D01*
X11029Y204947D01*
X12893Y205446D01*
X14808Y205698D01*
X15773Y205698D01*
X23647Y205698D01*
X23660Y205701D01*
X23672Y205699D01*
X25024Y205732D01*
X25061Y205740D01*
X25099Y205736D01*
X27791Y206002D01*
X27839Y206016D01*
X27890D01*
X30542Y206544D01*
X30589Y206563D01*
X30639Y206568D01*
X33227Y207353D01*
X33272Y207377D01*
X33322Y207387D01*
X35820Y208422D01*
X35862Y208450D01*
X35911Y208465D01*
X38296Y209740D01*
X38335Y209772D01*
X38382Y209791D01*
X40630Y211294D01*
X40666Y211329D01*
X40711Y211353D01*
X42801Y213069D01*
X42834Y213108D01*
X42875Y213136D01*
X44788Y215049D01*
X44816Y215091D01*
X44855Y215123D01*
X46571Y217213D01*
X46595Y217258D01*
X46630Y217294D01*
X48133Y219542D01*
X48152Y219589D01*
X48184Y219628D01*
X49459Y222013D01*
X49474Y222062D01*
X49502Y222104D01*
X50537Y224602D01*
X50547Y224652D01*
X50571Y224697D01*
X51356Y227285D01*
X51361Y227335D01*
X51380Y227382D01*
X51908Y230034D01*
Y230085D01*
X51923Y230133D01*
X52188Y232825D01*
X52184Y232863D01*
X52192Y232900D01*
X52225Y234252D01*
X52223Y234264D01*
X52226Y234277D01*
X52226Y240182D01*
X52226Y241148D01*
X52478Y243062D01*
X52977Y244927D01*
X53716Y246711D01*
X54681Y248383D01*
X55857Y249915D01*
X57222Y251280D01*
X58754Y252455D01*
X60426Y253420D01*
X62210Y254159D01*
X64075Y254659D01*
X65989Y254911D01*
X66954D01*
X86684D01*
X86684Y219200D01*
X86746Y218888D01*
X86923Y218623D01*
X87188Y218446D01*
X87500Y218384D01*
X286300Y218384D01*
X286612Y218446D01*
X286877Y218623D01*
X287054Y218888D01*
X287116Y219200D01*
X287116Y254911D01*
X318923D01*
X319888D01*
X321802Y254659D01*
D02*
G37*
%LPC*%
G36*
X318600Y248733D02*
X317267Y248602D01*
X315985Y248213D01*
X314804Y247581D01*
X313768Y246732D01*
X312919Y245696D01*
X312287Y244515D01*
X311898Y243233D01*
X311767Y241900D01*
X311898Y240567D01*
X312287Y239285D01*
X312919Y238104D01*
X313768Y237068D01*
X314804Y236219D01*
X315985Y235587D01*
X317267Y235198D01*
X318600Y235067D01*
X319933Y235198D01*
X321215Y235587D01*
X322396Y236219D01*
X323432Y237068D01*
X324281Y238104D01*
X324913Y239285D01*
X325302Y240567D01*
X325433Y241900D01*
X325302Y243233D01*
X324913Y244515D01*
X324281Y245696D01*
X323432Y246732D01*
X322396Y247581D01*
X321215Y248213D01*
X319933Y248602D01*
X318600Y248733D01*
D02*
G37*
G36*
X65900D02*
X64567Y248602D01*
X63285Y248213D01*
X62104Y247581D01*
X61068Y246732D01*
X60219Y245696D01*
X59587Y244515D01*
X59198Y243233D01*
X59067Y241900D01*
X59198Y240567D01*
X59587Y239285D01*
X60219Y238104D01*
X61068Y237068D01*
X62104Y236219D01*
X63285Y235587D01*
X64567Y235198D01*
X65900Y235067D01*
X67233Y235198D01*
X68515Y235587D01*
X69696Y236219D01*
X70732Y237068D01*
X71581Y238104D01*
X72213Y239285D01*
X72602Y240567D01*
X72733Y241900D01*
X72602Y243233D01*
X72213Y244515D01*
X71581Y245696D01*
X70732Y246732D01*
X69696Y247581D01*
X68515Y248213D01*
X67233Y248602D01*
X65900Y248733D01*
D02*
G37*
G36*
X148200Y207829D02*
X147615Y207713D01*
X147119Y207381D01*
X146787Y206885D01*
X146671Y206300D01*
X146685Y206225D01*
X146003Y205225D01*
X142397D01*
X141715Y206225D01*
X141729Y206300D01*
X141613Y206885D01*
X141281Y207381D01*
X140785Y207713D01*
X140200Y207829D01*
X139615Y207713D01*
X139119Y207381D01*
X138787Y206885D01*
X138671Y206300D01*
X138685Y206225D01*
X138003Y205225D01*
X107616D01*
X107485Y205313D01*
X106900Y205429D01*
X106315Y205313D01*
X105819Y204981D01*
X105487Y204485D01*
X105371Y203900D01*
X105487Y203315D01*
X105819Y202819D01*
X106315Y202487D01*
X106900Y202371D01*
X107485Y202487D01*
X107616Y202574D01*
X147951D01*
X153000Y197526D01*
X152586Y196526D01*
X136016D01*
X135885Y196613D01*
X135300Y196729D01*
X134715Y196613D01*
X134219Y196281D01*
X133887Y195785D01*
X133771Y195200D01*
X133887Y194615D01*
X134219Y194119D01*
X134715Y193787D01*
X135300Y193671D01*
X135885Y193787D01*
X136016Y193875D01*
X152751D01*
X158456Y188169D01*
X158487Y188015D01*
X158819Y187519D01*
X159315Y187187D01*
X159900Y187071D01*
X160485Y187187D01*
X160981Y187519D01*
X161226Y187885D01*
X161381Y187944D01*
X162387Y188015D01*
X162719Y187519D01*
X163215Y187187D01*
X163800Y187071D01*
X164385Y187187D01*
X164881Y187519D01*
X165213Y188015D01*
X165329Y188600D01*
X165213Y189185D01*
X164881Y189681D01*
X164385Y190013D01*
X164231Y190044D01*
X149857Y204417D01*
X149463Y204966D01*
X149613Y205715D01*
X149729Y206300D01*
X149613Y206885D01*
X149281Y207381D01*
X148785Y207713D01*
X148200Y207829D01*
D02*
G37*
G36*
X156100D02*
X155515Y207713D01*
X155019Y207381D01*
X154687Y206885D01*
X154571Y206300D01*
X154687Y205715D01*
X155019Y205219D01*
X155515Y204887D01*
X156100Y204771D01*
X156685Y204887D01*
X157181Y205219D01*
X157513Y205715D01*
X157629Y206300D01*
X157513Y206885D01*
X157181Y207381D01*
X156685Y207713D01*
X156100Y207829D01*
D02*
G37*
G36*
X324200Y207780D02*
X323595Y207660D01*
X323082Y207317D01*
X322740Y206805D01*
X322620Y206200D01*
X322740Y205595D01*
X323082Y205083D01*
X324869Y203296D01*
X324376Y202374D01*
X324100Y202429D01*
X323515Y202313D01*
X323019Y201981D01*
X322687Y201485D01*
X322571Y200900D01*
X322687Y200315D01*
X323019Y199819D01*
X323515Y199487D01*
X324100Y199371D01*
X324685Y199487D01*
X325181Y199819D01*
X325513Y200315D01*
X325629Y200900D01*
X325574Y201176D01*
X326496Y201669D01*
X327920Y200245D01*
Y194955D01*
X326445Y193480D01*
X322200D01*
X321595Y193360D01*
X321082Y193017D01*
X320740Y192505D01*
X320620Y191900D01*
X320740Y191295D01*
X321082Y190782D01*
X321595Y190440D01*
X322200Y190320D01*
X327100D01*
X327705Y190440D01*
X328218Y190782D01*
X330617Y193183D01*
X330960Y193695D01*
X331080Y194300D01*
Y200900D01*
X330960Y201505D01*
X330617Y202017D01*
X325318Y207317D01*
X324805Y207660D01*
X324200Y207780D01*
D02*
G37*
G36*
X301700Y204329D02*
X301115Y204213D01*
X300619Y203881D01*
X300287Y203385D01*
X300171Y202800D01*
X300287Y202215D01*
X300619Y201719D01*
X301115Y201387D01*
X301700Y201271D01*
X302285Y201387D01*
X302781Y201719D01*
X303113Y202215D01*
X303229Y202800D01*
X303113Y203385D01*
X302781Y203881D01*
X302285Y204213D01*
X301700Y204329D01*
D02*
G37*
G36*
X80500Y201129D02*
X79915Y201013D01*
X79419Y200681D01*
X79087Y200185D01*
X78971Y199600D01*
X79087Y199015D01*
X79419Y198519D01*
X79915Y198187D01*
X80500Y198071D01*
X81085Y198187D01*
X81581Y198519D01*
X81913Y199015D01*
X82029Y199600D01*
X81913Y200185D01*
X81581Y200681D01*
X81085Y201013D01*
X80500Y201129D01*
D02*
G37*
G36*
X305000Y195629D02*
X304415Y195513D01*
X303919Y195181D01*
X303587Y194685D01*
X303471Y194100D01*
X303587Y193515D01*
X303919Y193019D01*
X304415Y192687D01*
X305000Y192571D01*
X305585Y192687D01*
X306081Y193019D01*
X306413Y193515D01*
X306529Y194100D01*
X306413Y194685D01*
X306081Y195181D01*
X305585Y195513D01*
X305000Y195629D01*
D02*
G37*
G36*
X376100Y193829D02*
X375515Y193713D01*
X375019Y193381D01*
X374687Y192885D01*
X374571Y192300D01*
X374687Y191715D01*
X375019Y191219D01*
X375515Y190887D01*
X376100Y190771D01*
X376685Y190887D01*
X377181Y191219D01*
X377513Y191715D01*
X377629Y192300D01*
X377513Y192885D01*
X377181Y193381D01*
X376685Y193713D01*
X376100Y193829D01*
D02*
G37*
G36*
X369000D02*
X368415Y193713D01*
X367919Y193381D01*
X367587Y192885D01*
X367471Y192300D01*
X367587Y191715D01*
X367919Y191219D01*
X368415Y190887D01*
X369000Y190771D01*
X369585Y190887D01*
X370081Y191219D01*
X370413Y191715D01*
X370529Y192300D01*
X370413Y192885D01*
X370081Y193381D01*
X369585Y193713D01*
X369000Y193829D01*
D02*
G37*
G36*
X362200D02*
X361615Y193713D01*
X361119Y193381D01*
X360787Y192885D01*
X360671Y192300D01*
X360787Y191715D01*
X361119Y191219D01*
X361615Y190887D01*
X362200Y190771D01*
X362785Y190887D01*
X363281Y191219D01*
X363613Y191715D01*
X363729Y192300D01*
X363613Y192885D01*
X363281Y193381D01*
X362785Y193713D01*
X362200Y193829D01*
D02*
G37*
G36*
X294100Y193029D02*
X293515Y192913D01*
X293019Y192581D01*
X292687Y192085D01*
X292571Y191500D01*
X292687Y190915D01*
X293019Y190419D01*
X293515Y190087D01*
X294100Y189971D01*
X294685Y190087D01*
X295181Y190419D01*
X295513Y190915D01*
X295629Y191500D01*
X295513Y192085D01*
X295181Y192581D01*
X294685Y192913D01*
X294100Y193029D01*
D02*
G37*
G36*
X280600Y192429D02*
X280015Y192313D01*
X279519Y191981D01*
X279187Y191485D01*
X279071Y190900D01*
X279187Y190315D01*
X279519Y189819D01*
X280015Y189487D01*
X280600Y189371D01*
X281185Y189487D01*
X281681Y189819D01*
X282013Y190315D01*
X282129Y190900D01*
X282013Y191485D01*
X281681Y191981D01*
X281185Y192313D01*
X280600Y192429D01*
D02*
G37*
G36*
X7000Y192485D02*
X6020Y192356D01*
X5107Y191978D01*
X4324Y191376D01*
X3722Y190593D01*
X3344Y189680D01*
X3215Y188700D01*
X3344Y187720D01*
X3722Y186807D01*
X4324Y186023D01*
X5107Y185422D01*
X6020Y185044D01*
X7000Y184915D01*
X7980Y185044D01*
X8893Y185422D01*
X9676Y186023D01*
X10278Y186807D01*
X10513Y187374D01*
X119674D01*
X126099Y180949D01*
X125716Y180025D01*
X10513D01*
X10278Y180593D01*
X9676Y181377D01*
X8893Y181978D01*
X7980Y182356D01*
X7000Y182485D01*
X6020Y182356D01*
X5107Y181978D01*
X4324Y181377D01*
X3722Y180593D01*
X3344Y179680D01*
X3215Y178700D01*
X3344Y177720D01*
X3722Y176807D01*
X4324Y176023D01*
X5107Y175422D01*
X6020Y175044D01*
X7000Y174915D01*
X7980Y175044D01*
X8893Y175422D01*
X9676Y176023D01*
X10278Y176807D01*
X10513Y177374D01*
X127128D01*
X132854Y171649D01*
X132471Y170726D01*
X67616D01*
X67485Y170813D01*
X66900Y170929D01*
X66315Y170813D01*
X65819Y170481D01*
X65487Y169985D01*
X65371Y169400D01*
X65487Y168815D01*
X65819Y168319D01*
X66315Y167987D01*
X66900Y167871D01*
X67485Y167987D01*
X67616Y168075D01*
X133883D01*
X143521Y158436D01*
X143192Y157351D01*
X143185Y157350D01*
X140004Y160531D01*
X139491Y160874D01*
X138886Y160994D01*
X112334D01*
X111729Y160874D01*
X111216Y160531D01*
X99865Y149180D01*
X70900D01*
X70295Y149060D01*
X69783Y148717D01*
X69440Y148205D01*
X69320Y147600D01*
Y130955D01*
X53445Y115080D01*
X46352D01*
X37033Y124399D01*
X36520Y124742D01*
X35999Y124846D01*
X35879Y124896D01*
X35129Y125600D01*
X35013Y126185D01*
X34681Y126681D01*
Y127119D01*
X35013Y127615D01*
X35129Y128200D01*
X35013Y128785D01*
X34681Y129281D01*
X34185Y129613D01*
X33600Y129729D01*
X33015Y129613D01*
X32884Y129525D01*
X30825D01*
X30318Y129425D01*
X30201Y129346D01*
X27395D01*
X27095Y129406D01*
Y131931D01*
Y135106D01*
X27095Y135106D01*
X27284Y135568D01*
X27346Y135880D01*
Y143754D01*
X27284Y144067D01*
X27107Y144331D01*
X26843Y144508D01*
X26531Y144570D01*
X22164D01*
X21326Y145334D01*
Y147643D01*
X21564Y147882D01*
X22325Y148297D01*
X23000Y148150D01*
X23617Y148150D01*
X25400D01*
Y151000D01*
Y153850D01*
X23617D01*
X23000Y153850D01*
X22083Y153650D01*
X17300D01*
Y148350D01*
X18675D01*
Y145883D01*
X17483Y144692D01*
X17402Y144570D01*
X17042D01*
X16730Y144508D01*
X16466Y144331D01*
X16289Y144067D01*
X16227Y143754D01*
Y142503D01*
X8972D01*
X8951Y142499D01*
X8930Y142502D01*
X8776Y142494D01*
X8755Y142489D01*
X8733Y142491D01*
X8583Y142475D01*
X8528Y142458D01*
X8471Y142455D01*
X8401Y142438D01*
X8381Y142428D01*
X8360Y142426D01*
X8288Y142404D01*
X8288Y142404D01*
X8147Y142361D01*
X8086Y142329D01*
X8020Y142311D01*
X7871Y142236D01*
X7846Y142216D01*
X7816Y142206D01*
X7678Y142123D01*
X7647Y142095D01*
X7608Y142076D01*
X7482Y141982D01*
X7463Y141960D01*
X7438Y141946D01*
X7319Y141843D01*
X7284Y141798D01*
X7238Y141762D01*
X7132Y141640D01*
X7118Y141616D01*
X7097Y141597D01*
X6999Y141467D01*
X6973Y141415D01*
X6936Y141371D01*
X6857Y141229D01*
X6850Y141208D01*
X6837Y141190D01*
X6766Y141044D01*
X6751Y140986D01*
X6722Y140934D01*
X6671Y140772D01*
X6665Y140725D01*
X6647Y140681D01*
X6624Y140559D01*
X6624Y140535D01*
X6616Y140513D01*
X6596Y140367D01*
X6599Y140334D01*
X6590Y140302D01*
X6582Y140157D01*
X6586Y140135D01*
X6581Y140113D01*
Y138144D01*
X6585Y138125D01*
X6582Y138106D01*
X6590Y137937D01*
X6601Y137893D01*
X6599Y137849D01*
X6624Y137685D01*
X6639Y137645D01*
X6642Y137602D01*
X6683Y137446D01*
X6703Y137407D01*
X6710Y137363D01*
X6769Y137209D01*
X6796Y137167D01*
X6810Y137120D01*
X6877Y136994D01*
X6887Y136982D01*
X6892Y136967D01*
X6963Y136845D01*
X6996Y136808D01*
X7017Y136763D01*
X6824Y136133D01*
X6529Y135794D01*
X5022D01*
Y128584D01*
X5022D01*
Y128216D01*
X5022D01*
Y121005D01*
X6529D01*
X6824Y120667D01*
X7017Y120037D01*
X6996Y119992D01*
X6963Y119955D01*
X6892Y119833D01*
X6887Y119818D01*
X6877Y119806D01*
X6810Y119680D01*
X6796Y119633D01*
X6769Y119590D01*
X6710Y119437D01*
X6703Y119393D01*
X6683Y119354D01*
X6642Y119198D01*
X6639Y119155D01*
X6624Y119115D01*
X6599Y118951D01*
X6601Y118907D01*
X6590Y118863D01*
X6582Y118694D01*
X6585Y118675D01*
X6581Y118656D01*
Y116687D01*
X6585Y116665D01*
X6582Y116643D01*
X6590Y116498D01*
X6599Y116466D01*
X6596Y116432D01*
X6616Y116287D01*
X6624Y116265D01*
X6624Y116241D01*
X6647Y116119D01*
X6665Y116075D01*
X6671Y116027D01*
X6722Y115866D01*
X6751Y115814D01*
X6766Y115756D01*
X6837Y115610D01*
X6850Y115592D01*
X6857Y115571D01*
X6936Y115429D01*
X6973Y115385D01*
X6999Y115333D01*
X7097Y115203D01*
X7118Y115184D01*
X7132Y115160D01*
X7238Y115038D01*
X7284Y115002D01*
X7319Y114957D01*
X7437Y114855D01*
X7463Y114840D01*
X7482Y114818D01*
X7608Y114724D01*
X7647Y114706D01*
X7678Y114677D01*
X7816Y114594D01*
X7846Y114584D01*
X7871Y114564D01*
X8020Y114489D01*
X8086Y114471D01*
X8147Y114439D01*
X8288Y114396D01*
X8360Y114374D01*
X8381Y114372D01*
X8401Y114362D01*
X8471Y114345D01*
X8528Y114342D01*
X8583Y114325D01*
X8733Y114309D01*
X8755Y114311D01*
X8776Y114306D01*
X8930Y114298D01*
X8951Y114301D01*
X8972Y114297D01*
X16227D01*
Y113046D01*
X16289Y112733D01*
X16466Y112469D01*
X16730Y112292D01*
X17042Y112230D01*
X19798D01*
X20111Y112292D01*
X20290Y112412D01*
X20470Y112292D01*
X20783Y112230D01*
X26531D01*
X26843Y112292D01*
X27107Y112469D01*
X27284Y112734D01*
X27346Y113046D01*
Y120920D01*
X28026Y121642D01*
X28133Y121702D01*
X35261D01*
X44580Y112382D01*
X45092Y112040D01*
X45697Y111920D01*
X54100D01*
X54705Y112040D01*
X55217Y112382D01*
X72018Y129183D01*
X72360Y129695D01*
X72480Y130300D01*
Y146020D01*
X100520D01*
X101124Y146140D01*
X101637Y146483D01*
X112988Y157834D01*
X133584D01*
X134471Y157164D01*
X134587Y156579D01*
X134752Y156331D01*
Y127128D01*
X124599Y116974D01*
X124306Y116916D01*
X123810Y116584D01*
X123479Y116088D01*
X123362Y115503D01*
X123479Y114918D01*
X123810Y114421D01*
X124306Y114090D01*
X124892Y113973D01*
X125477Y114090D01*
X125973Y114421D01*
X126305Y114918D01*
X126363Y115210D01*
X136882Y125729D01*
X137153Y126134D01*
X137248Y126611D01*
Y156331D01*
X137413Y156579D01*
X137523Y157130D01*
X137671Y157231D01*
X138462Y157604D01*
X142096Y153969D01*
X142609Y153626D01*
X143214Y153506D01*
X223499D01*
X224104Y153626D01*
X224174Y153673D01*
X225174Y153141D01*
Y122649D01*
X177069Y74544D01*
X176915Y74513D01*
X176419Y74181D01*
X176087Y73685D01*
X175971Y73100D01*
X176087Y72515D01*
X176419Y72019D01*
X176915Y71687D01*
X177500Y71571D01*
X178085Y71687D01*
X178581Y72019D01*
X178913Y72515D01*
X178944Y72669D01*
X227437Y121163D01*
X227725Y121593D01*
X227825Y122100D01*
Y155967D01*
X228749Y156350D01*
X252859Y132240D01*
Y124387D01*
X252960Y123880D01*
X253247Y123450D01*
X283234Y93463D01*
X283664Y93175D01*
X284172Y93075D01*
X377931D01*
X377967Y93037D01*
X378144Y91934D01*
X378119Y91847D01*
X373812Y87541D01*
X311816D01*
X311308Y87440D01*
X310878Y87153D01*
X304269Y80544D01*
X304115Y80513D01*
X303619Y80181D01*
X303287Y79685D01*
X303171Y79100D01*
X303287Y78515D01*
X303619Y78019D01*
X304115Y77687D01*
X304700Y77571D01*
X305285Y77687D01*
X305781Y78019D01*
X306113Y78515D01*
X306144Y78669D01*
X312365Y84890D01*
X374361D01*
X374868Y84991D01*
X375298Y85278D01*
X382337Y92317D01*
X382625Y92747D01*
X382726Y93254D01*
Y111328D01*
X382625Y111836D01*
X382337Y112266D01*
X327466Y167137D01*
X327036Y167425D01*
X326528Y167525D01*
X295955D01*
X295413Y168515D01*
X295529Y169100D01*
X295413Y169685D01*
X295081Y170181D01*
X294585Y170513D01*
X294431Y170544D01*
X275437Y189537D01*
X275007Y189825D01*
X274500Y189926D01*
X168616D01*
X168485Y190013D01*
X167900Y190129D01*
X167315Y190013D01*
X166819Y189681D01*
X166487Y189185D01*
X166371Y188600D01*
X166487Y188015D01*
X166819Y187519D01*
X167315Y187187D01*
X167900Y187071D01*
X168485Y187187D01*
X168616Y187275D01*
X273951D01*
X281576Y179649D01*
X281193Y178726D01*
X150900D01*
X150393Y178625D01*
X149963Y178337D01*
X149769Y178144D01*
X149615Y178113D01*
X149119Y177781D01*
X148787Y177285D01*
X148671Y176700D01*
X148787Y176115D01*
X149119Y175619D01*
X149288Y175506D01*
X149306Y175456D01*
Y174444D01*
X149288Y174394D01*
X149119Y174281D01*
X148787Y173785D01*
X148671Y173200D01*
X148787Y172615D01*
X149119Y172119D01*
X149615Y171787D01*
X149769Y171756D01*
X152263Y169263D01*
X152693Y168975D01*
X153200Y168875D01*
X200263D01*
X209175Y159963D01*
X209605Y159675D01*
X210112Y159574D01*
X222979D01*
X224354Y158200D01*
X224196Y157664D01*
X223931Y157209D01*
X223464Y157116D01*
X222952Y156774D01*
X222844Y156666D01*
X152616D01*
X151729Y157336D01*
X151613Y157921D01*
X151281Y158417D01*
Y159419D01*
X151613Y159915D01*
X151729Y160500D01*
X151613Y161085D01*
X151281Y161581D01*
Y162519D01*
X151613Y163015D01*
X151729Y163600D01*
X151613Y164185D01*
X151281Y164681D01*
X151210Y164729D01*
Y165871D01*
X151281Y165919D01*
X151613Y166415D01*
X151729Y167000D01*
X151613Y167585D01*
X151281Y168081D01*
X150785Y168413D01*
X150200Y168529D01*
X149615Y168413D01*
X149011Y169212D01*
X148953Y169325D01*
X149013Y169415D01*
X149129Y170000D01*
X149013Y170585D01*
X148681Y171081D01*
X148185Y171413D01*
X147600Y171529D01*
X147015Y171413D01*
X146519Y171081D01*
X146187Y170585D01*
X146071Y170000D01*
X146187Y169415D01*
X146189Y169412D01*
X145588Y168512D01*
X145500Y168529D01*
X144915Y168413D01*
X144419Y168081D01*
X144303Y167909D01*
X143317Y167679D01*
X143091Y167706D01*
X121160Y189637D01*
X120730Y189925D01*
X120223Y190025D01*
X10513D01*
X10278Y190593D01*
X9676Y191376D01*
X8893Y191978D01*
X7980Y192356D01*
X7000Y192485D01*
D02*
G37*
G36*
X361000Y180729D02*
X360415Y180613D01*
X359919Y180281D01*
X359587Y179785D01*
X359471Y179200D01*
X359587Y178615D01*
X359919Y178119D01*
X360415Y177787D01*
X361000Y177671D01*
X361585Y177787D01*
X362081Y178119D01*
X362413Y178615D01*
X362529Y179200D01*
X362413Y179785D01*
X362081Y180281D01*
X361585Y180613D01*
X361000Y180729D01*
D02*
G37*
G36*
X308400Y176929D02*
X307815Y176813D01*
X307319Y176481D01*
X306987Y175985D01*
X306871Y175400D01*
X306987Y174815D01*
X307319Y174319D01*
X307815Y173987D01*
X308400Y173871D01*
X308985Y173987D01*
X309481Y174319D01*
X309813Y174815D01*
X309929Y175400D01*
X309813Y175985D01*
X309481Y176481D01*
X308985Y176813D01*
X308400Y176929D01*
D02*
G37*
G36*
Y171629D02*
X307815Y171513D01*
X307319Y171181D01*
X306987Y170685D01*
X306871Y170100D01*
X306987Y169515D01*
X307319Y169019D01*
X307815Y168687D01*
X308400Y168571D01*
X308985Y168687D01*
X309481Y169019D01*
X309813Y169515D01*
X309929Y170100D01*
X309813Y170685D01*
X309481Y171181D01*
X308985Y171513D01*
X308400Y171629D01*
D02*
G37*
G36*
X7000Y172485D02*
X6020Y172356D01*
X5107Y171978D01*
X4324Y171377D01*
X3722Y170593D01*
X3344Y169680D01*
X3215Y168700D01*
X3344Y167720D01*
X3722Y166807D01*
X4324Y166024D01*
X5107Y165422D01*
X6020Y165044D01*
X7000Y164915D01*
X7980Y165044D01*
X8893Y165422D01*
X9676Y166024D01*
X10278Y166807D01*
X10656Y167720D01*
X10785Y168700D01*
X10656Y169680D01*
X10278Y170593D01*
X9676Y171377D01*
X8893Y171978D01*
X7980Y172356D01*
X7000Y172485D01*
D02*
G37*
G36*
X371300Y156929D02*
X370715Y156813D01*
X370219Y156481D01*
X369887Y155985D01*
X369771Y155400D01*
X369887Y154815D01*
X370219Y154319D01*
X370715Y153987D01*
X371300Y153871D01*
X371885Y153987D01*
X372381Y154319D01*
X372713Y154815D01*
X372829Y155400D01*
X372713Y155985D01*
X372381Y156481D01*
X371885Y156813D01*
X371300Y156929D01*
D02*
G37*
G36*
X26400Y153850D02*
Y151500D01*
X28800D01*
Y153850D01*
X26400D01*
D02*
G37*
G36*
X28800Y150500D02*
X26400D01*
Y148150D01*
X28800D01*
Y150500D01*
D02*
G37*
G36*
X359800Y141029D02*
X359215Y140913D01*
X358719Y140581D01*
X358387Y140085D01*
X358271Y139500D01*
X358387Y138915D01*
X358719Y138419D01*
X359215Y138087D01*
X359800Y137971D01*
X360385Y138087D01*
X360881Y138419D01*
X361213Y138915D01*
X361329Y139500D01*
X361213Y140085D01*
X360881Y140581D01*
X360385Y140913D01*
X359800Y141029D01*
D02*
G37*
G36*
X213581Y132848D02*
X212996Y132731D01*
X212500Y132400D01*
X212169Y131904D01*
X212052Y131319D01*
X212169Y130733D01*
X212500Y130237D01*
X212996Y129906D01*
X213581Y129789D01*
X214167Y129906D01*
X214663Y130237D01*
X214994Y130733D01*
X215111Y131319D01*
X214994Y131904D01*
X214663Y132400D01*
X214167Y132731D01*
X213581Y132848D01*
D02*
G37*
G36*
X201100Y132829D02*
X200515Y132713D01*
X200019Y132381D01*
X199687Y131885D01*
X199571Y131300D01*
X199687Y130715D01*
X200019Y130219D01*
X200515Y129887D01*
X201100Y129771D01*
X201685Y129887D01*
X202181Y130219D01*
X202513Y130715D01*
X202629Y131300D01*
X202513Y131885D01*
X202181Y132381D01*
X201685Y132713D01*
X201100Y132829D01*
D02*
G37*
G36*
X143500Y132329D02*
X142915Y132213D01*
X142419Y131881D01*
X142087Y131385D01*
X141971Y130800D01*
X142087Y130215D01*
X142419Y129719D01*
X142915Y129387D01*
X143500Y129271D01*
X144085Y129387D01*
X144581Y129719D01*
X144913Y130215D01*
X145029Y130800D01*
X144913Y131385D01*
X144581Y131881D01*
X144085Y132213D01*
X143500Y132329D01*
D02*
G37*
G36*
X160300Y128629D02*
X159715Y128513D01*
X159219Y128181D01*
X158887Y127685D01*
X158771Y127100D01*
X158887Y126515D01*
X159219Y126019D01*
X159715Y125687D01*
X160300Y125571D01*
X160885Y125687D01*
X161381Y126019D01*
X161713Y126515D01*
X161829Y127100D01*
X161713Y127685D01*
X161381Y128181D01*
X160885Y128513D01*
X160300Y128629D01*
D02*
G37*
G36*
X382600Y134600D02*
X373000D01*
Y125000D01*
X382600D01*
Y134600D01*
D02*
G37*
G36*
X121924Y123929D02*
X121338Y123813D01*
X120842Y123481D01*
X120511Y122985D01*
X120394Y122400D01*
X120511Y121815D01*
X120842Y121319D01*
X121338Y120987D01*
X121924Y120871D01*
X122509Y120987D01*
X123005Y121319D01*
X123337Y121815D01*
X123453Y122400D01*
X123337Y122985D01*
X123005Y123481D01*
X122509Y123813D01*
X121924Y123929D01*
D02*
G37*
G36*
X49704Y139428D02*
X48567Y139316D01*
X47474Y138984D01*
X46466Y138446D01*
X45583Y137721D01*
X44858Y136838D01*
X44319Y135830D01*
X43988Y134737D01*
X43876Y133600D01*
Y123600D01*
X43988Y122463D01*
X44319Y121370D01*
X44858Y120362D01*
X45583Y119479D01*
X46466Y118754D01*
X47474Y118216D01*
X48567Y117884D01*
X49704Y117772D01*
X50841Y117884D01*
X51934Y118216D01*
X52942Y118754D01*
X53825Y119479D01*
X54550Y120362D01*
X55088Y121370D01*
X55420Y122463D01*
X55532Y123600D01*
Y133600D01*
X55420Y134737D01*
X55088Y135830D01*
X54550Y136838D01*
X53825Y137721D01*
X52942Y138446D01*
X51934Y138984D01*
X50841Y139316D01*
X49704Y139428D01*
D02*
G37*
G36*
X104232Y141941D02*
X102145Y141777D01*
X100109Y141288D01*
X98175Y140487D01*
X96390Y139393D01*
X94798Y138034D01*
X93438Y136442D01*
X92344Y134657D01*
X91543Y132723D01*
X91055Y130687D01*
X90890Y128600D01*
X91055Y126513D01*
X91543Y124477D01*
X92344Y122543D01*
X93438Y120758D01*
X94798Y119166D01*
X96390Y117807D01*
X98175Y116713D01*
X100109Y115912D01*
X102145Y115423D01*
X104232Y115259D01*
X106318Y115423D01*
X108354Y115912D01*
X110288Y116713D01*
X112073Y117807D01*
X113665Y119166D01*
X115025Y120758D01*
X116119Y122543D01*
X116920Y124477D01*
X117408Y126513D01*
X117573Y128600D01*
X117408Y130687D01*
X116920Y132723D01*
X116119Y134657D01*
X115025Y136442D01*
X113665Y138034D01*
X112073Y139393D01*
X110288Y140487D01*
X108354Y141288D01*
X106318Y141777D01*
X104232Y141941D01*
D02*
G37*
G36*
X185900Y116629D02*
X185315Y116513D01*
X184819Y116181D01*
X184487Y115685D01*
X184371Y115100D01*
X184487Y114515D01*
X184819Y114019D01*
X185315Y113687D01*
X185900Y113571D01*
X186485Y113687D01*
X186981Y114019D01*
X187313Y114515D01*
X187429Y115100D01*
X187313Y115685D01*
X186981Y116181D01*
X186485Y116513D01*
X185900Y116629D01*
D02*
G37*
G36*
X144700Y112629D02*
X144115Y112513D01*
X143619Y112181D01*
X143287Y111685D01*
X143171Y111100D01*
X143287Y110515D01*
X143619Y110019D01*
X144115Y109687D01*
X144700Y109571D01*
X145285Y109687D01*
X145781Y110019D01*
X146113Y110515D01*
X146229Y111100D01*
X146113Y111685D01*
X145781Y112181D01*
X145285Y112513D01*
X144700Y112629D01*
D02*
G37*
G36*
X54368Y106529D02*
X53783Y106413D01*
X53286Y106081D01*
X52955Y105585D01*
X52839Y105000D01*
X52955Y104415D01*
X53286Y103919D01*
X53783Y103587D01*
X54368Y103471D01*
X54953Y103587D01*
X55449Y103919D01*
X55781Y104415D01*
X55897Y105000D01*
X55781Y105585D01*
X55449Y106081D01*
X54953Y106413D01*
X54368Y106529D01*
D02*
G37*
G36*
X219400Y102429D02*
X218815Y102313D01*
X218592Y102164D01*
X213652D01*
X213612Y102191D01*
X213027Y102307D01*
X212442Y102191D01*
X211946Y101859D01*
X211614Y101363D01*
X211498Y100778D01*
X211614Y100192D01*
X211946Y99696D01*
X212442Y99365D01*
X213027Y99248D01*
X213612Y99365D01*
X213835Y99513D01*
X218775D01*
X218815Y99487D01*
X219400Y99371D01*
X219985Y99487D01*
X220481Y99819D01*
X220813Y100315D01*
X220929Y100900D01*
X220813Y101485D01*
X220481Y101981D01*
X219985Y102313D01*
X219400Y102429D01*
D02*
G37*
G36*
X7000Y101385D02*
X6020Y101256D01*
X5107Y100878D01*
X4324Y100277D01*
X3722Y99493D01*
X3344Y98580D01*
X3215Y97600D01*
X3344Y96620D01*
X3722Y95707D01*
X4324Y94924D01*
X5107Y94322D01*
X6020Y93944D01*
X7000Y93815D01*
X7980Y93944D01*
X8893Y94322D01*
X9676Y94924D01*
X10278Y95707D01*
X10656Y96620D01*
X10785Y97600D01*
X10656Y98580D01*
X10278Y99493D01*
X9676Y100277D01*
X8893Y100878D01*
X7980Y101256D01*
X7000Y101385D01*
D02*
G37*
G36*
Y91385D02*
X6020Y91256D01*
X5107Y90878D01*
X4324Y90276D01*
X3722Y89493D01*
X3344Y88580D01*
X3215Y87600D01*
X3344Y86620D01*
X3722Y85707D01*
X4324Y84923D01*
X5107Y84322D01*
X6020Y83944D01*
X7000Y83815D01*
X7980Y83944D01*
X8893Y84322D01*
X9676Y84923D01*
X10278Y85707D01*
X10656Y86620D01*
X10785Y87600D01*
X10656Y88580D01*
X10278Y89493D01*
X9676Y90276D01*
X8893Y90878D01*
X7980Y91256D01*
X7000Y91385D01*
D02*
G37*
G36*
Y81385D02*
X6020Y81256D01*
X5107Y80878D01*
X4324Y80277D01*
X3722Y79493D01*
X3344Y78580D01*
X3215Y77600D01*
X3344Y76620D01*
X3722Y75707D01*
X4324Y74923D01*
X5107Y74322D01*
X6020Y73944D01*
X7000Y73815D01*
X7980Y73944D01*
X8893Y74322D01*
X9676Y74923D01*
X10278Y75707D01*
X10656Y76620D01*
X10785Y77600D01*
X10656Y78580D01*
X10278Y79493D01*
X9676Y80277D01*
X8893Y80878D01*
X7980Y81256D01*
X7000Y81385D01*
D02*
G37*
G36*
X10753Y71353D02*
X3247D01*
Y63847D01*
X10753D01*
Y71353D01*
D02*
G37*
G36*
X314900Y62829D02*
X314315Y62713D01*
X313819Y62381D01*
X313487Y61885D01*
X313371Y61300D01*
X313487Y60715D01*
X313819Y60219D01*
X314315Y59887D01*
X314900Y59771D01*
X315485Y59887D01*
X315981Y60219D01*
X316313Y60715D01*
X316429Y61300D01*
X316313Y61885D01*
X315981Y62381D01*
X315485Y62713D01*
X314900Y62829D01*
D02*
G37*
G36*
X67393Y80423D02*
X66769Y80299D01*
X66240Y79945D01*
X65886Y79416D01*
X65762Y78792D01*
X65886Y78167D01*
X66240Y77638D01*
X66769Y77284D01*
X67090Y77221D01*
X79874Y64436D01*
Y31682D01*
X79788Y31646D01*
X79203Y31197D01*
X78754Y30612D01*
X78472Y29931D01*
X78376Y29200D01*
X78472Y28469D01*
X78754Y27788D01*
X79203Y27203D01*
X79788Y26754D01*
X80469Y26472D01*
X81200Y26376D01*
X81931Y26472D01*
X82612Y26754D01*
X83197Y27203D01*
X83646Y27788D01*
X83928Y28469D01*
X83996Y28984D01*
X85004D01*
X85072Y28469D01*
X85354Y27788D01*
X85803Y27203D01*
X86388Y26754D01*
X87069Y26472D01*
X87800Y26376D01*
X88531Y26472D01*
X89212Y26754D01*
X89797Y27203D01*
X90246Y27788D01*
X90528Y28469D01*
X90624Y29200D01*
X90528Y29931D01*
X90246Y30612D01*
X89797Y31197D01*
X89212Y31646D01*
X89126Y31682D01*
Y53221D01*
X90287Y54382D01*
X91447Y54447D01*
X91976Y54093D01*
X92600Y53969D01*
X93224Y54093D01*
X93496Y54274D01*
X95570D01*
X96077Y54375D01*
X96507Y54663D01*
X107537Y65693D01*
X107825Y66123D01*
X107925Y66630D01*
Y75204D01*
X108107Y75476D01*
X108231Y76100D01*
X108107Y76724D01*
X107754Y77254D01*
X107224Y77607D01*
X106600Y77731D01*
X105976Y77607D01*
X105704Y77425D01*
X91562D01*
X91055Y77325D01*
X91050Y77321D01*
X91000Y77331D01*
X90376Y77207D01*
X89846Y76854D01*
X89493Y76324D01*
X89369Y75700D01*
X89493Y75076D01*
X89846Y74546D01*
X90376Y74193D01*
X91000Y74069D01*
X91624Y74193D01*
X92154Y74546D01*
X92306Y74774D01*
X105274D01*
Y67179D01*
X103563Y65468D01*
X102403Y65403D01*
X101874Y65757D01*
X101250Y65881D01*
X100626Y65757D01*
X100354Y65575D01*
X98280D01*
X97773Y65475D01*
X97343Y65187D01*
X86863Y54707D01*
X86575Y54277D01*
X86475Y53770D01*
Y31682D01*
X86388Y31646D01*
X85803Y31197D01*
X85354Y30612D01*
X85072Y29931D01*
X85004Y29416D01*
X83996D01*
X83928Y29931D01*
X83646Y30612D01*
X83197Y31197D01*
X82612Y31646D01*
X82525Y31682D01*
Y64985D01*
X82425Y65492D01*
X82137Y65922D01*
X68964Y79095D01*
X68901Y79416D01*
X68547Y79945D01*
X68018Y80299D01*
X67393Y80423D01*
D02*
G37*
G36*
X270300Y78929D02*
X269715Y78813D01*
X269219Y78481D01*
X268887Y77985D01*
X268856Y77831D01*
X256051Y65026D01*
X162185D01*
X161677Y64925D01*
X161247Y64637D01*
X152040Y55430D01*
X151753Y55000D01*
X151652Y54493D01*
Y47226D01*
X146369Y41944D01*
X146215Y41913D01*
X145719Y41581D01*
X144615Y41731D01*
X120925Y65421D01*
Y73204D01*
X121107Y73476D01*
X121231Y74100D01*
X121107Y74724D01*
X120754Y75253D01*
X120224Y75607D01*
X119600Y75731D01*
X118976Y75607D01*
X118447Y75253D01*
X118093Y74724D01*
X117969Y74100D01*
X118093Y73476D01*
X118274Y73204D01*
Y64872D01*
X118375Y64364D01*
X118663Y63934D01*
X145034Y37563D01*
X145464Y37275D01*
X145972Y37174D01*
X147628D01*
X148136Y37275D01*
X148566Y37563D01*
X156217Y45214D01*
X156504Y45644D01*
X156605Y46151D01*
Y53700D01*
X161487Y58582D01*
X162646Y58647D01*
X163176Y58293D01*
X163496Y58229D01*
X193163Y28563D01*
X193593Y28275D01*
X194100Y28174D01*
X227884D01*
X228015Y28087D01*
X228600Y27971D01*
X229185Y28087D01*
X229681Y28419D01*
X230013Y28915D01*
X230129Y29500D01*
X230013Y30085D01*
X229681Y30581D01*
X229185Y30913D01*
X228600Y31029D01*
X228015Y30913D01*
X227884Y30825D01*
X194649D01*
X165900Y59575D01*
X166314Y60575D01*
X231342D01*
X247354Y44563D01*
X247784Y44275D01*
X248291Y44175D01*
X316518D01*
X316790Y43993D01*
X317414Y43869D01*
X318039Y43993D01*
X318568Y44346D01*
X318921Y44876D01*
X319046Y45500D01*
X318921Y46124D01*
X318568Y46654D01*
X318039Y47007D01*
X317414Y47131D01*
X316790Y47007D01*
X316518Y46826D01*
X248840D01*
X234215Y61451D01*
X234597Y62375D01*
X256600D01*
X257107Y62475D01*
X257537Y62763D01*
X270731Y75956D01*
X270885Y75987D01*
X271381Y76319D01*
X271713Y76815D01*
X271829Y77400D01*
X271713Y77985D01*
X271381Y78481D01*
X270885Y78813D01*
X270300Y78929D01*
D02*
G37*
G36*
X188000Y48729D02*
X187415Y48613D01*
X186919Y48281D01*
X186587Y47785D01*
X186471Y47200D01*
X186587Y46615D01*
X186919Y46119D01*
X187415Y45787D01*
X188000Y45671D01*
X188585Y45787D01*
X188716Y45875D01*
X231051D01*
X247556Y29369D01*
X247587Y29215D01*
X247919Y28719D01*
X248415Y28387D01*
X249000Y28271D01*
X249585Y28387D01*
X250081Y28719D01*
X250413Y29215D01*
X250529Y29800D01*
X250413Y30385D01*
X250081Y30881D01*
X249585Y31213D01*
X249431Y31244D01*
X232537Y48137D01*
X232107Y48425D01*
X231600Y48526D01*
X188716D01*
X188585Y48613D01*
X188000Y48729D01*
D02*
G37*
G36*
X143918Y28842D02*
X143332Y28725D01*
X142836Y28394D01*
X142505Y27898D01*
X142388Y27312D01*
X142505Y26727D01*
X142836Y26231D01*
X143332Y25900D01*
X143918Y25783D01*
X144503Y25900D01*
X144999Y26231D01*
X145331Y26727D01*
X145447Y27312D01*
X145331Y27898D01*
X144999Y28394D01*
X144503Y28725D01*
X143918Y28842D01*
D02*
G37*
G36*
X238500Y26929D02*
X237915Y26813D01*
X237676Y26654D01*
X237530Y26625D01*
X237100Y26337D01*
X236289Y25526D01*
X225516D01*
X225385Y25613D01*
X224800Y25729D01*
X224215Y25613D01*
X223719Y25281D01*
X223387Y24785D01*
X223271Y24200D01*
X223387Y23615D01*
X223719Y23119D01*
X224215Y22787D01*
X224800Y22671D01*
X225385Y22787D01*
X225516Y22874D01*
X236838D01*
X237345Y22975D01*
X237775Y23263D01*
X238402Y23890D01*
X238500Y23871D01*
X239085Y23987D01*
X239581Y24319D01*
X239913Y24815D01*
X240029Y25400D01*
X239913Y25985D01*
X239581Y26481D01*
X239085Y26813D01*
X238500Y26929D01*
D02*
G37*
G36*
X318600Y22833D02*
X317267Y22702D01*
X315985Y22313D01*
X314804Y21681D01*
X313768Y20832D01*
X312919Y19796D01*
X312287Y18615D01*
X311898Y17333D01*
X311767Y16000D01*
X311898Y14667D01*
X312287Y13385D01*
X312919Y12204D01*
X313768Y11168D01*
X314804Y10319D01*
X315985Y9687D01*
X317267Y9298D01*
X318600Y9167D01*
X319933Y9298D01*
X321215Y9687D01*
X322396Y10319D01*
X323432Y11168D01*
X324281Y12204D01*
X324913Y13385D01*
X325302Y14667D01*
X325433Y16000D01*
X325302Y17333D01*
X324913Y18615D01*
X324281Y19796D01*
X323432Y20832D01*
X322396Y21681D01*
X321215Y22313D01*
X319933Y22702D01*
X318600Y22833D01*
D02*
G37*
G36*
X65900D02*
X64567Y22702D01*
X63285Y22313D01*
X62104Y21681D01*
X61068Y20832D01*
X60219Y19796D01*
X59587Y18615D01*
X59198Y17333D01*
X59067Y16000D01*
X59198Y14667D01*
X59587Y13385D01*
X60219Y12204D01*
X61068Y11168D01*
X62104Y10319D01*
X63285Y9687D01*
X64567Y9298D01*
X65900Y9167D01*
X67233Y9298D01*
X68515Y9687D01*
X69696Y10319D01*
X70732Y11168D01*
X71581Y12204D01*
X72213Y13385D01*
X72602Y14667D01*
X72733Y16000D01*
X72602Y17333D01*
X72213Y18615D01*
X71581Y19796D01*
X70732Y20832D01*
X69696Y21681D01*
X68515Y22313D01*
X67233Y22702D01*
X65900Y22833D01*
D02*
G37*
%LPD*%
G36*
X203700Y175075D02*
X203201Y174575D01*
X202913Y174145D01*
X202812Y173638D01*
Y171381D01*
X201888Y170998D01*
X201749Y171137D01*
X201319Y171425D01*
X200812Y171526D01*
X153749D01*
X151644Y173631D01*
X151613Y173785D01*
X151281Y174281D01*
X151222Y174321D01*
X151143Y175330D01*
X151838Y176075D01*
X203286D01*
X203700Y175075D01*
D02*
G37*
G36*
X19798Y136569D02*
X8885D01*
X8798Y136573D01*
X8716Y136589D01*
X8637Y136605D01*
X8570Y136620D01*
X8503Y136640D01*
X8377Y136687D01*
X8235Y136750D01*
X8098Y136837D01*
X7980Y136920D01*
X7869Y137022D01*
X7765Y137126D01*
X7668Y137254D01*
X7598Y137376D01*
X7531Y137502D01*
X7472Y137656D01*
X7430Y137811D01*
X7405Y137975D01*
X7397Y138144D01*
Y140113D01*
X7405Y140258D01*
X7424Y140404D01*
X7448Y140526D01*
X7499Y140687D01*
X7570Y140833D01*
X7649Y140975D01*
X7747Y141105D01*
X7853Y141227D01*
X7972Y141329D01*
X8098Y141424D01*
X8235Y141506D01*
X8385Y141581D01*
X8527Y141624D01*
X8598Y141646D01*
X8669Y141664D01*
X8818Y141680D01*
X8972Y141687D01*
X17042D01*
Y143754D01*
X19798D01*
Y136569D01*
D02*
G37*
G36*
X19798Y113046D02*
X17042D01*
Y115113D01*
X8972D01*
X8818Y115120D01*
X8669Y115136D01*
X8598Y115154D01*
X8527Y115176D01*
X8385Y115219D01*
X8235Y115294D01*
X8098Y115376D01*
X7972Y115471D01*
X7853Y115573D01*
X7747Y115695D01*
X7649Y115825D01*
X7570Y115967D01*
X7499Y116113D01*
X7448Y116274D01*
X7424Y116396D01*
X7405Y116542D01*
X7397Y116687D01*
Y118656D01*
X7405Y118825D01*
X7430Y118989D01*
X7472Y119144D01*
X7531Y119298D01*
X7598Y119424D01*
X7668Y119546D01*
X7765Y119674D01*
X7869Y119778D01*
X7980Y119880D01*
X8098Y119963D01*
X8235Y120050D01*
X8377Y120113D01*
X8503Y120160D01*
X8570Y120179D01*
X8637Y120195D01*
X8716Y120211D01*
X8798Y120227D01*
X8885Y120231D01*
X19798D01*
Y113046D01*
D02*
G37*
G36*
X292389Y163463D02*
X292819Y163175D01*
X293326Y163075D01*
X312057D01*
X312772Y162074D01*
X312771Y162069D01*
X312887Y161483D01*
X313219Y160987D01*
X313715Y160656D01*
X314300Y160539D01*
X314885Y160656D01*
X315381Y160987D01*
X315713Y161483D01*
X315829Y162069D01*
X315828Y162074D01*
X316543Y163075D01*
X324951D01*
X326056Y161969D01*
X326087Y161815D01*
X326419Y161319D01*
X326915Y160987D01*
X327500Y160871D01*
X328085Y160987D01*
X328581Y161319D01*
X329684Y161169D01*
X380075Y110779D01*
Y96622D01*
X379950Y96451D01*
X379075Y95895D01*
X378900Y95929D01*
X378315Y95813D01*
X378184Y95726D01*
X284721D01*
X255510Y124936D01*
Y132790D01*
X255409Y133297D01*
X255122Y133727D01*
X225211Y163637D01*
X224781Y163925D01*
X224274Y164025D01*
X211407D01*
X207368Y168064D01*
X207219Y169167D01*
X207551Y169663D01*
X207581Y169817D01*
X211639Y173874D01*
X281977D01*
X292389Y163463D01*
D02*
G37*
%LPC*%
G36*
X289600Y153529D02*
X289015Y153413D01*
X288519Y153081D01*
X288187Y152585D01*
X288071Y152000D01*
X288187Y151415D01*
X288519Y150919D01*
X289015Y150587D01*
X289600Y150471D01*
X290185Y150587D01*
X290681Y150919D01*
X291013Y151415D01*
X291129Y152000D01*
X291013Y152585D01*
X290681Y153081D01*
X290185Y153413D01*
X289600Y153529D01*
D02*
G37*
G36*
X302400Y153429D02*
X301815Y153313D01*
X301319Y152981D01*
X300987Y152485D01*
X300871Y151900D01*
X300987Y151315D01*
X301319Y150819D01*
X301815Y150487D01*
X302400Y150371D01*
X302985Y150487D01*
X303481Y150819D01*
X303813Y151315D01*
X303929Y151900D01*
X303813Y152485D01*
X303481Y152981D01*
X302985Y153313D01*
X302400Y153429D01*
D02*
G37*
G36*
X330500Y143829D02*
X329915Y143713D01*
X329419Y143381D01*
X329087Y142885D01*
X328971Y142300D01*
X329087Y141715D01*
X329419Y141219D01*
X329915Y140887D01*
X330500Y140771D01*
X331085Y140887D01*
X331581Y141219D01*
X331913Y141715D01*
X332029Y142300D01*
X331913Y142885D01*
X331581Y143381D01*
X331085Y143713D01*
X330500Y143829D01*
D02*
G37*
G36*
X324100D02*
X323515Y143713D01*
X323019Y143381D01*
X322687Y142885D01*
X322571Y142300D01*
X322687Y141715D01*
X323019Y141219D01*
X323515Y140887D01*
X324100Y140771D01*
X324685Y140887D01*
X325181Y141219D01*
X325513Y141715D01*
X325629Y142300D01*
X325513Y142885D01*
X325181Y143381D01*
X324685Y143713D01*
X324100Y143829D01*
D02*
G37*
G36*
X356700Y125729D02*
X356115Y125613D01*
X355619Y125281D01*
X355287Y124785D01*
X355171Y124200D01*
X355287Y123615D01*
X355619Y123119D01*
X356115Y122787D01*
X356700Y122671D01*
X357285Y122787D01*
X357781Y123119D01*
X358113Y123615D01*
X358229Y124200D01*
X358113Y124785D01*
X357781Y125281D01*
X357285Y125613D01*
X356700Y125729D01*
D02*
G37*
G36*
X362800Y125629D02*
X362215Y125513D01*
X361719Y125181D01*
X361387Y124685D01*
X361271Y124100D01*
X361387Y123515D01*
X361719Y123019D01*
X362215Y122687D01*
X362800Y122571D01*
X363385Y122687D01*
X363881Y123019D01*
X364213Y123515D01*
X364329Y124100D01*
X364213Y124685D01*
X363881Y125181D01*
X363385Y125513D01*
X362800Y125629D01*
D02*
G37*
G36*
X337696Y139428D02*
X336559Y139316D01*
X335466Y138984D01*
X334458Y138446D01*
X333575Y137721D01*
X332850Y136838D01*
X332312Y135830D01*
X331980Y134737D01*
X331868Y133600D01*
Y123600D01*
X331980Y122463D01*
X332312Y121370D01*
X332850Y120362D01*
X333575Y119479D01*
X334458Y118754D01*
X335466Y118216D01*
X336559Y117884D01*
X337696Y117772D01*
X338833Y117884D01*
X339926Y118216D01*
X340934Y118754D01*
X341817Y119479D01*
X342542Y120362D01*
X343080Y121370D01*
X343412Y122463D01*
X343524Y123600D01*
Y133600D01*
X343412Y134737D01*
X343080Y135830D01*
X342542Y136838D01*
X341817Y137721D01*
X340934Y138446D01*
X339926Y138984D01*
X338833Y139316D01*
X337696Y139428D01*
D02*
G37*
G36*
X283169Y141941D02*
X281082Y141777D01*
X279046Y141288D01*
X277112Y140487D01*
X275327Y139393D01*
X273735Y138034D01*
X272375Y136442D01*
X271282Y134657D01*
X270480Y132723D01*
X269992Y130687D01*
X269827Y128600D01*
X269992Y126513D01*
X270480Y124477D01*
X271282Y122543D01*
X272375Y120758D01*
X273735Y119166D01*
X275327Y117807D01*
X277112Y116713D01*
X279046Y115912D01*
X281082Y115423D01*
X283169Y115259D01*
X285256Y115423D01*
X287291Y115912D01*
X289225Y116713D01*
X291010Y117807D01*
X292602Y119166D01*
X293962Y120758D01*
X295056Y122543D01*
X295857Y124477D01*
X296345Y126513D01*
X296510Y128600D01*
X296345Y130687D01*
X295857Y132723D01*
X295056Y134657D01*
X293962Y136442D01*
X292602Y138034D01*
X291010Y139393D01*
X289225Y140487D01*
X287291Y141288D01*
X285256Y141777D01*
X283169Y141941D01*
D02*
G37*
G36*
X362300Y102229D02*
X361715Y102113D01*
X361219Y101781D01*
X360887Y101285D01*
X360771Y100700D01*
X360887Y100115D01*
X361219Y99619D01*
X361715Y99287D01*
X362300Y99171D01*
X362885Y99287D01*
X363381Y99619D01*
X363713Y100115D01*
X363829Y100700D01*
X363713Y101285D01*
X363381Y101781D01*
X362885Y102113D01*
X362300Y102229D01*
D02*
G37*
G36*
X286400Y102331D02*
X285776Y102207D01*
X285246Y101854D01*
X284893Y101324D01*
X284769Y100700D01*
X284893Y100076D01*
X285246Y99546D01*
X285776Y99193D01*
X286400Y99069D01*
X287024Y99193D01*
X287554Y99546D01*
X287907Y100076D01*
X288031Y100700D01*
X287907Y101324D01*
X287554Y101854D01*
X287024Y102207D01*
X286400Y102331D01*
D02*
G37*
%LPD*%
D11*
X67393Y78792D02*
X81200Y64985D01*
Y29200D02*
Y64985D01*
X98280Y64250D02*
X101250D01*
X87800Y53770D02*
X98280Y64250D01*
X87800Y29200D02*
Y53770D01*
X95570Y55600D02*
X106600Y66630D01*
Y76100D01*
X92600Y55600D02*
X95570D01*
X206138Y170248D02*
X211090Y175200D01*
X282526D02*
X293326Y164400D01*
X211090Y175200D02*
X282526D01*
X150200Y176700D02*
X150900Y177400D01*
X282872D02*
X294072Y166200D01*
X150900Y177400D02*
X282872D01*
X152977Y54493D02*
X162185Y63700D01*
X146800Y40500D02*
X152977Y46677D01*
Y54493D01*
X210112Y160900D02*
X223528D01*
X226500Y157928D01*
X224274Y162700D02*
X254185Y132790D01*
X226500Y122100D02*
Y157928D01*
X210858Y162700D02*
X224274D01*
X254185Y124387D02*
Y132790D01*
X177500Y73100D02*
X226500Y122100D01*
X146696Y157136D02*
X147892D01*
X148015Y157260D01*
X150124D01*
X150200Y157336D01*
X134432Y169400D02*
X146696Y157136D01*
X8400Y178700D02*
X127678D01*
X66900Y169400D02*
X134432D01*
X127678Y178700D02*
X145878Y160500D01*
X145323Y163600D02*
X150300D01*
X120223Y188700D02*
X145323Y163600D01*
X145878Y160500D02*
X150200D01*
X8400Y188700D02*
X120223D01*
X91000Y75700D02*
X91162D01*
X91562Y76100D01*
X106600D01*
X145972Y38500D02*
X147628D01*
X119600Y64872D02*
X145972Y38500D01*
X30825Y128200D02*
X33600D01*
X23137Y128113D02*
X26932D01*
X27024Y128021D02*
X30646D01*
X23137Y126128D02*
X26932D01*
Y128113D02*
X27024Y128021D01*
X29900Y126221D02*
X30521Y125600D01*
X26932Y126128D02*
X27024Y126221D01*
X30646Y128021D02*
X30825Y128200D01*
X27024Y126221D02*
X29900D01*
X30521Y125600D02*
X33600D01*
X119600Y64872D02*
Y74100D01*
X213088Y100839D02*
X219339D01*
X213027Y100778D02*
X213088Y100839D01*
X219339D02*
X219400Y100900D01*
X147628Y38500D02*
X155279Y46151D01*
Y54249D01*
X162930Y61900D02*
X231891D01*
X248291Y45500D01*
X317414D01*
X155279Y54249D02*
X162930Y61900D01*
X256600Y63700D02*
X270300Y77400D01*
X163800Y59800D02*
X194100Y29500D01*
X228600D01*
X231600Y47200D02*
X249000Y29800D01*
X188000Y47200D02*
X231600D01*
X200812Y170200D02*
X210112Y160900D01*
X153200Y170200D02*
X200812D01*
X150200Y173200D02*
X153200Y170200D01*
X159900Y188500D02*
Y188600D01*
X204138Y173638D02*
X205900Y175400D01*
X378900Y94000D02*
X379600D01*
X22850Y125841D02*
X23137Y126128D01*
X22850Y128400D02*
X23137Y128113D01*
X293326Y164400D02*
X325500D01*
X327500Y162400D01*
X378715Y94400D02*
X378900Y94215D01*
X204138Y169420D02*
Y173638D01*
Y169420D02*
X210858Y162700D01*
X284172Y94400D02*
X378715D01*
X374361Y86216D02*
X381400Y93254D01*
X304700Y79100D02*
X311816Y86216D01*
X326528Y166200D02*
X381400Y111328D01*
X294072Y166200D02*
X326528D01*
X254185Y124387D02*
X284172Y94400D01*
X162185Y63700D02*
X256600D01*
X236838Y24200D02*
X238038Y25400D01*
X238500D01*
X224800Y24200D02*
X236838D01*
X274500Y188600D02*
X294000Y169100D01*
X167900Y188600D02*
X274500D01*
X381400Y93254D02*
Y111328D01*
X148500Y203900D02*
X163800Y188600D01*
X106900Y203900D02*
X148500D01*
X18420Y140879D02*
X18500Y140800D01*
X18420Y140879D02*
Y143754D01*
X20000Y145334D01*
Y151000D01*
X10743Y138144D02*
X11728Y139128D01*
X10743Y132189D02*
Y138144D01*
Y124611D02*
Y132189D01*
X22476Y117672D02*
X23657Y118853D01*
X11728Y117672D02*
X22476D01*
X10743Y124611D02*
X11728Y123626D01*
Y117672D02*
Y123626D01*
X23137Y136937D02*
X24100Y137900D01*
X22504Y139100D02*
X22900D01*
X19401D02*
X22504D01*
X22900D02*
X24100Y137900D01*
X22850Y133518D02*
X23137Y133806D01*
Y136937D01*
X22504Y139100D02*
X23657Y137947D01*
X311816Y86216D02*
X374361D01*
X153300Y195200D02*
X159900Y188600D01*
X135300Y195200D02*
X153300D01*
X145600Y167000D02*
X150200D01*
X145500Y167100D02*
X145600Y167000D01*
D21*
X20000Y151000D02*
D03*
X25900D02*
D03*
D98*
X136000Y126611D02*
Y157164D01*
X124892Y115503D02*
X136000Y126611D01*
D99*
X35915Y123282D02*
X45697Y113500D01*
X70900Y130300D02*
Y147600D01*
X54100Y113500D02*
X70900Y130300D01*
X45697Y113500D02*
X54100D01*
X143214Y155086D02*
X223499D01*
X224069Y155656D01*
X138886Y159414D02*
X143214Y155086D01*
X112334Y159414D02*
X138886D01*
X70900Y147600D02*
X100520D01*
X22850Y123282D02*
X35915D01*
X100520Y147600D02*
X112334Y159414D01*
X322200Y191900D02*
X327100D01*
X329500Y194300D01*
Y200900D01*
X324200Y206200D02*
X329500Y200900D01*
D105*
X87800Y29200D02*
D03*
X81200D02*
D03*
D106*
X283169Y128600D02*
D03*
X104232D02*
D03*
D107*
X49704D02*
D03*
X337696D02*
D03*
D108*
X377800Y129800D02*
D03*
D109*
X11728Y139128D02*
D03*
Y117672D02*
D03*
D110*
X23657Y137947D02*
D03*
Y118853D02*
D03*
D111*
X7000Y97600D02*
D03*
Y77600D02*
D03*
Y87600D02*
D03*
Y178700D02*
D03*
Y168700D02*
D03*
Y188700D02*
D03*
D112*
Y67600D02*
D03*
Y158700D02*
D03*
D113*
X65900Y241900D02*
D03*
X318600Y16000D02*
D03*
X65900D02*
D03*
X318600Y241900D02*
D03*
D114*
X67393Y78792D02*
D03*
X101250Y64250D02*
D03*
X211900Y111700D02*
D03*
X206500Y106900D02*
D03*
X129300Y60600D02*
D03*
X109500Y60700D02*
D03*
X370000Y200000D02*
D03*
Y80000D02*
D03*
X360000Y60000D02*
D03*
X350000Y200000D02*
D03*
X340000Y140000D02*
D03*
Y100000D02*
D03*
X350000Y80000D02*
D03*
X340000Y60000D02*
D03*
X330000Y240000D02*
D03*
X320000Y220000D02*
D03*
Y180000D02*
D03*
Y140000D02*
D03*
X330000Y120000D02*
D03*
Y80000D02*
D03*
X320000Y60000D02*
D03*
X330000Y40000D02*
D03*
X310000Y240000D02*
D03*
Y200000D02*
D03*
X300000Y180000D02*
D03*
Y140000D02*
D03*
X310000Y120000D02*
D03*
Y80000D02*
D03*
X300000Y60000D02*
D03*
X310000Y40000D02*
D03*
X300000Y20000D02*
D03*
X290000Y240000D02*
D03*
X280000Y180000D02*
D03*
Y60000D02*
D03*
X290000Y40000D02*
D03*
X270000Y200000D02*
D03*
X260000Y180000D02*
D03*
X270000Y160000D02*
D03*
X260000Y140000D02*
D03*
X270000Y120000D02*
D03*
X260000Y100000D02*
D03*
Y60000D02*
D03*
X240000Y180000D02*
D03*
X250000Y160000D02*
D03*
Y120000D02*
D03*
Y80000D02*
D03*
X240000Y60000D02*
D03*
X250000Y40000D02*
D03*
X220000Y180000D02*
D03*
X230000Y120000D02*
D03*
Y80000D02*
D03*
Y40000D02*
D03*
X200000Y180000D02*
D03*
X210000Y80000D02*
D03*
X200000Y20000D02*
D03*
X180000Y140000D02*
D03*
X190000Y40000D02*
D03*
X180000Y20000D02*
D03*
X160000Y140000D02*
D03*
Y100000D02*
D03*
X170000Y80000D02*
D03*
X140000Y140000D02*
D03*
X150000Y120000D02*
D03*
X140000Y100000D02*
D03*
Y20000D02*
D03*
X130000Y200000D02*
D03*
X120000Y100000D02*
D03*
X130000Y80000D02*
D03*
Y40000D02*
D03*
X120000Y20000D02*
D03*
X110000Y200000D02*
D03*
Y40000D02*
D03*
X100000Y20000D02*
D03*
X80000Y220000D02*
D03*
X90000Y200000D02*
D03*
Y160000D02*
D03*
X80000Y140000D02*
D03*
X90000Y120000D02*
D03*
Y40000D02*
D03*
X80000Y20000D02*
D03*
X60000Y220000D02*
D03*
X70000Y200000D02*
D03*
Y160000D02*
D03*
X60000Y140000D02*
D03*
Y60000D02*
D03*
X70000Y40000D02*
D03*
X50000Y200000D02*
D03*
Y160000D02*
D03*
X40000Y100000D02*
D03*
Y60000D02*
D03*
X50000Y40000D02*
D03*
X30000Y200000D02*
D03*
Y160000D02*
D03*
X20000Y100000D02*
D03*
X30000Y80000D02*
D03*
X20000Y60000D02*
D03*
X106600Y80600D02*
D03*
X91000Y72900D02*
D03*
Y75700D02*
D03*
X92600Y55600D02*
D03*
X106600Y76100D02*
D03*
X300000Y99200D02*
D03*
X119600Y74100D02*
D03*
X131984Y118084D02*
D03*
X62100Y88700D02*
D03*
X317414Y45500D02*
D03*
X179900Y159800D02*
D03*
X179400Y174700D02*
D03*
X159800D02*
D03*
X187309Y217219D02*
D03*
X186743Y206955D02*
D03*
X195482Y206893D02*
D03*
X195721Y209482D02*
D03*
X195874Y212077D02*
D03*
X195792Y214676D02*
D03*
X194691Y217032D02*
D03*
X297565Y245787D02*
D03*
X293307Y240872D02*
D03*
X293381Y238273D02*
D03*
X294409Y235885D02*
D03*
Y233285D02*
D03*
Y230685D02*
D03*
Y228085D02*
D03*
X293596Y225615D02*
D03*
X291757Y223777D02*
D03*
X289919Y221938D02*
D03*
X288080Y220100D02*
D03*
X283873Y217191D02*
D03*
X281273D02*
D03*
X278673D02*
D03*
X276073D02*
D03*
X273472D02*
D03*
X270872D02*
D03*
X268272D02*
D03*
X265672D02*
D03*
X263073Y217148D02*
D03*
X260736Y216009D02*
D03*
X258897Y214171D02*
D03*
X257059Y212333D02*
D03*
X255220Y210494D02*
D03*
X253382Y208656D02*
D03*
X251543Y206817D02*
D03*
X249705Y204979D02*
D03*
X247561Y203508D02*
D03*
X244961D02*
D03*
X242361D02*
D03*
X239761D02*
D03*
X237161D02*
D03*
X234561D02*
D03*
X231961D02*
D03*
X229361D02*
D03*
X226761D02*
D03*
X224161D02*
D03*
X221561D02*
D03*
X218961D02*
D03*
X216361D02*
D03*
X213761D02*
D03*
X211161D02*
D03*
X208561D02*
D03*
X205961D02*
D03*
X203361D02*
D03*
X200761D02*
D03*
X198161D02*
D03*
X195561D02*
D03*
X187829Y203302D02*
D03*
X186604Y201009D02*
D03*
X186633Y198409D02*
D03*
X186924Y185642D02*
D03*
X194306Y185928D02*
D03*
X195305Y190928D02*
D03*
X195374Y193527D02*
D03*
X195321Y196126D02*
D03*
X197921D02*
D03*
X200521D02*
D03*
X203121D02*
D03*
X205721D02*
D03*
X208321D02*
D03*
X210921D02*
D03*
X213521D02*
D03*
X216121D02*
D03*
X218721D02*
D03*
X221321D02*
D03*
X223921D02*
D03*
X226521D02*
D03*
X229121D02*
D03*
X231721D02*
D03*
X234321D02*
D03*
X236921D02*
D03*
X239521D02*
D03*
X242121D02*
D03*
X244721D02*
D03*
X247321D02*
D03*
X249921Y196134D02*
D03*
X252310Y197159D02*
D03*
X254156Y198991D02*
D03*
X255994Y200829D02*
D03*
X257833Y202668D02*
D03*
X259671Y204506D02*
D03*
X261510Y206345D02*
D03*
X263348Y208183D02*
D03*
X265377Y209809D02*
D03*
X267977D02*
D03*
X270577D02*
D03*
X273177D02*
D03*
X275777D02*
D03*
X278377D02*
D03*
X280977D02*
D03*
X283577D02*
D03*
X286177D02*
D03*
X288704Y210420D02*
D03*
X290609Y212190D02*
D03*
X292448Y214028D02*
D03*
X294286Y215866D02*
D03*
X296125Y217705D02*
D03*
X297963Y219543D02*
D03*
X299801Y221382D02*
D03*
X301457Y223387D02*
D03*
X301791Y225965D02*
D03*
Y228566D02*
D03*
Y231166D02*
D03*
Y233766D02*
D03*
Y236366D02*
D03*
X302879Y238727D02*
D03*
X286400Y100700D02*
D03*
X163800Y59800D02*
D03*
D115*
X224069Y155656D02*
D03*
X150200Y157336D02*
D03*
X136000Y157164D02*
D03*
X33600Y128200D02*
D03*
Y125600D02*
D03*
X124892Y115503D02*
D03*
X213581Y131319D02*
D03*
X201100Y131300D02*
D03*
X185900Y115100D02*
D03*
X121924Y122400D02*
D03*
X213027Y100778D02*
D03*
X219400Y100900D02*
D03*
X54368Y105000D02*
D03*
X305000Y194100D02*
D03*
X347098Y142004D02*
D03*
X350700Y168500D02*
D03*
X350800Y175700D02*
D03*
X335000Y200400D02*
D03*
X328900Y180400D02*
D03*
X205900Y175400D02*
D03*
X206138Y170248D02*
D03*
X70900Y150200D02*
D03*
Y147600D02*
D03*
X270300Y77400D02*
D03*
X238500Y25400D02*
D03*
X224800Y24200D02*
D03*
X362800Y124100D02*
D03*
X356700Y124200D02*
D03*
X362300Y100700D02*
D03*
X378900Y94400D02*
D03*
X192400Y159600D02*
D03*
X147600Y170000D02*
D03*
X177500Y73100D02*
D03*
X330500Y142300D02*
D03*
X359800Y139500D02*
D03*
X324100Y142300D02*
D03*
X139400Y150700D02*
D03*
X144700Y111100D02*
D03*
X314300Y162069D02*
D03*
X302400Y151900D02*
D03*
X150200Y173200D02*
D03*
Y176700D02*
D03*
X362200Y192300D02*
D03*
X376100D02*
D03*
X369000D02*
D03*
X301700Y202800D02*
D03*
X294100Y191500D02*
D03*
X280600Y190900D02*
D03*
X289600Y152000D02*
D03*
X324200Y206200D02*
D03*
X138633Y126505D02*
D03*
X143918Y27312D02*
D03*
X294000Y169100D02*
D03*
X308400Y170100D02*
D03*
Y175400D02*
D03*
X322200Y191900D02*
D03*
X135300Y195200D02*
D03*
X159900Y188600D02*
D03*
X148200Y206300D02*
D03*
X140200D02*
D03*
X188000Y47200D02*
D03*
X371300Y155400D02*
D03*
X304700Y79100D02*
D03*
X156100Y206300D02*
D03*
X167900Y188600D02*
D03*
X163800D02*
D03*
X327500Y162400D02*
D03*
X66900Y169400D02*
D03*
X150200Y160500D02*
D03*
X106900Y203900D02*
D03*
X150200Y163600D02*
D03*
Y167000D02*
D03*
X145500D02*
D03*
X143500Y130800D02*
D03*
X314900Y61300D02*
D03*
X361000Y179200D02*
D03*
X324100Y200900D02*
D03*
X80500Y199600D02*
D03*
X160300Y127100D02*
D03*
X146800Y40500D02*
D03*
X249000Y29800D02*
D03*
X228600Y29500D02*
D03*
D127*
X22850Y128400D02*
D03*
Y125841D02*
D03*
Y123282D02*
D03*
Y130959D02*
D03*
Y133518D02*
D03*
D128*
X10743Y124611D02*
D03*
Y132189D02*
D03*
D129*
X23657Y139817D02*
D03*
X23656Y116983D02*
D03*
M02*
